<?xml version="1.0" standalone="no"?>
<!DOCTYPE svg PUBLIC "-//W3C//DTD SVG 20010904//EN"
 "http://www.w3.org/TR/2001/REC-SVG-20010904/DTD/svg10.dtd">
<svg version="1.0" xmlns="http://www.w3.org/2000/svg"
 width="343.000000pt" height="249.000000pt" viewBox="0 0 343.000000 249.000000"
 preserveAspectRatio="xMidYMid meet">

<g transform="translate(0.000000,249.000000) scale(0.100000,-0.100000)"
fill="#000000" stroke="none">
<path d="M387 2413 c-4 -43 -12 -196 -18 -340 -7 -145 -15 -263 -18 -263 -3 0
-82 120 -175 265 -94 146 -171 265 -173 265 -2 0 -3 -15 -3 -33 0 -25 40 -94
176 -305 l176 -274 -15 -289 c-8 -160 -17 -292 -19 -295 -3 -2 -66 23 -142 56
-180 78 -178 77 -174 50 2 -17 32 -34 158 -87 85 -37 156 -67 157 -68 2 -1 -7
-197 -18 -436 -17 -328 -25 -438 -36 -450 -7 -9 -70 -58 -138 -110 -117 -88
-123 -94 -96 -97 25 -3 49 11 130 72 55 42 103 76 106 76 3 0 5 -26 5 -57 0
-38 -5 -62 -17 -75 -15 -17 -14 -18 15 -18 25 0 102 54 412 290 209 160 386
293 393 295 7 3 42 -42 81 -102 l68 -108 -33 -28 c-19 -15 -127 -98 -242 -185
-189 -143 -204 -157 -177 -160 25 -3 63 22 252 167 l223 169 48 -74 c39 -60
46 -78 37 -89 -7 -8 -59 -50 -117 -92 -99 -74 -103 -78 -74 -81 25 -3 49 11
130 72 l100 76 46 -75 c46 -73 48 -75 87 -75 36 0 61 16 266 173 125 95 233
176 240 181 20 12 748 -303 762 -330 11 -19 21 -21 98 -22 97 -1 98 -3 -30 52
-62 27 -27 -18 -375 487 l-73 106 215 164 c119 90 218 163 221 163 3 -1 137
-107 297 -235 160 -129 294 -235 299 -237 4 -2 8 7 8 20 0 19 -55 68 -285 252
-157 126 -285 230 -285 231 0 1 17 14 38 29 37 25 43 26 175 26 l137 0 0 108
1 107 44 33 c24 17 46 32 49 32 3 0 32 -23 65 -50 l61 -51 0 28 c-1 21 -12 37
-45 63 -25 19 -45 37 -45 40 1 3 21 20 45 38 33 24 45 40 45 58 0 25 -1 24
-59 -20 -33 -25 -62 -46 -66 -46 -3 0 -26 17 -51 37 -39 33 -44 42 -44 78 0
39 2 42 110 124 88 67 110 88 110 108 l0 25 -37 -28 c-21 -16 -69 -53 -108
-82 -38 -30 -71 -49 -73 -43 -2 7 -38 11 -93 11 -86 0 -129 10 -129 29 0 5 99
85 220 177 179 136 220 172 220 191 0 17 -4 22 -12 17 -7 -4 -115 -86 -240
-182 l-228 -173 -105 86 -105 87 345 261 c270 206 344 267 345 285 0 12 -2 22
-5 22 -3 0 -165 -122 -360 -271 l-355 -271 -40 32 c-22 17 -40 33 -40 35 0 2
156 122 346 267 308 235 342 263 316 266 -25 3 -69 -27 -283 -190 -140 -107
-290 -221 -334 -255 l-81 -61 -308 255 c-263 217 -312 254 -336 251 -26 -3 5
-31 291 -267 176 -145 319 -265 317 -266 -2 -2 -104 -80 -227 -174 -222 -170
-224 -171 -247 -153 -13 9 -205 163 -426 341 -401 323 -403 325 -471 423 -56
81 -72 98 -93 98 l-26 0 38 -52 c39 -54 35 -53 -48 15 -36 29 -55 38 -78 35
-28 -3 -24 -8 94 -101 68 -55 134 -109 146 -122 26 -27 599 -857 600 -867 0
-4 -169 -136 -376 -293 l-376 -287 -44 17 c-24 9 -53 24 -63 33 -11 9 -144
210 -296 446 l-275 429 5 61 c3 33 10 160 15 281 6 121 13 262 16 313 6 87 5
92 -13 92 -18 0 -21 -9 -26 -77z m1322 -536 c185 -148 342 -275 349 -282 11
-10 -7 -28 -94 -94 -97 -74 -108 -80 -119 -64 -7 10 -118 172 -247 360 -271
392 -255 369 -238 358 7 -4 164 -129 349 -278z m960 -15 c0 -8 -428 -334 -444
-339 -6 -1 -27 12 -48 30 l-38 32 227 172 227 173 38 -31 c22 -17 39 -34 38
-37z m144 -113 c53 -44 97 -83 97 -86 0 -3 -8 -12 -17 -19 -14 -10 -69 -13
-225 -14 l-207 0 -3 -151 -3 -151 -95 78 c-52 42 -95 80 -95 85 0 10 426 338
440 338 6 1 54 -35 108 -80z m-2173 -469 c132 -205 238 -375 236 -377 -4 -4
-496 205 -508 216 -4 4 -1 126 7 271 8 146 15 267 15 269 0 9 16 -15 250 -379z
m2560 65 l0 -275 -362 2 -363 3 -3 260 c-1 143 0 265 3 272 3 10 83 13 365 13
l360 0 0 -275z m-1020 147 c0 -9 -226 -182 -238 -182 -5 0 -21 18 -35 39 l-26
39 112 85 112 85 37 -30 c21 -16 38 -33 38 -36z m142 -108 c51 -42 97 -79 101
-83 4 -5 -64 -63 -151 -129 l-160 -121 -73 106 c-41 59 -74 108 -74 110 0 6
248 193 256 193 4 0 49 -34 101 -76z m927 6 l23 -20 -23 -20 c-34 -28 -39 -25
-39 20 0 45 5 48 39 20z m-1372 -70 c23 -35 24 -43 12 -55 -8 -7 -162 -126
-342 -263 l-328 -250 -50 20 c-27 12 -48 25 -47 30 3 8 718 558 725 558 2 0
15 -18 30 -40z m598 -262 c13 -3 -199 -173 -228 -183 -7 -3 -34 27 -61 66 -58
84 -72 61 129 213 l140 107 3 -100 c2 -77 6 -100 17 -103z m-471 79 c38 -56
68 -106 66 -112 -2 -5 -123 -101 -268 -211 l-264 -202 -139 60 -139 60 48 37
c286 219 618 471 622 471 3 -1 36 -47 74 -103z m-1358 -183 c148 -64 274 -120
281 -126 7 -5 21 -25 32 -44 l20 -34 -327 -249 c-180 -137 -329 -245 -330
-240 -4 10 24 616 34 737 3 39 9 72 13 72 4 0 128 -52 277 -116z m2113 78 l33
-28 -212 -162 -213 -162 -49 71 c-27 40 -47 76 -46 81 2 5 66 58 143 118 l140
108 85 1 c80 1 88 -1 119 -27z m101 23 c0 -2 -9 -9 -19 -14 -14 -8 -22 -7 -31
4 -11 13 -8 15 19 15 17 0 31 -2 31 -5z m-706 -136 c26 -39 46 -74 44 -79 -2
-7 -183 -148 -388 -302 l-35 -26 -86 36 c-47 20 -88 42 -90 47 -3 9 486 393
502 394 3 1 27 -31 53 -70z m131 -190 l49 -72 -30 -24 c-16 -13 -88 -68 -161
-123 l-131 -100 -97 42 -97 41 23 18 c13 9 103 78 199 152 96 75 180 136 186
136 6 1 32 -31 59 -70z m-1137 8 l34 -14 -43 -31 c-24 -18 -45 -32 -48 -32 -8
0 -51 68 -51 79 0 6 8 14 17 20 17 9 25 7 91 -22z m-119 -61 c12 -18 21 -38
21 -43 0 -6 -111 -95 -247 -199 -137 -103 -303 -230 -371 -282 l-123 -94 3 68
3 67 339 259 c186 142 342 258 347 258 4 0 17 -15 28 -34z m337 -32 c71 -31
130 -57 131 -58 3 -3 -234 -186 -240 -186 -7 0 -137 207 -137 218 0 12 90 81
106 82 5 0 68 -25 140 -56z m1082 -151 c241 -348 264 -383 240 -374 -66 25
-614 264 -621 270 -5 5 278 231 290 231 1 0 42 -57 91 -127z m-730 0 c6 -3 12
-8 12 -12 -1 -8 -350 -274 -354 -269 -2 1 -25 36 -51 77 l-48 74 24 18 c13 9
73 55 134 102 l110 84 80 -34 c44 -19 86 -37 93 -40z m164 -70 c48 -21 87 -40
87 -43 0 -7 -470 -363 -472 -359 -2 2 -24 37 -51 77 -26 41 -46 75 -44 77 25
24 375 285 383 285 5 0 49 -17 97 -37z"/>
<path d="M2767 1514 c-25 -13 -47 -49 -47 -75 0 -5 16 -9 35 -9 24 0 37 6 45
20 18 34 80 20 80 -17 0 -8 -18 -31 -40 -53 -29 -29 -40 -47 -40 -70 0 -27 3
-30 30 -30 23 0 31 5 36 25 3 13 21 34 38 45 49 30 69 87 46 131 -25 46 -126
64 -183 33z"/>
<path d="M2800 1236 c-6 -8 -10 -25 -8 -38 2 -19 9 -23 38 -23 29 0 36 4 38
23 4 28 -14 52 -38 52 -10 0 -23 -7 -30 -14z"/>
</g>
</svg>
