<svg xmlns="http://www.w3.org/2000/svg" xmlns:xlink="http://www.w3.org/1999/xlink" width="343" zoomAndPan="magnify" viewBox="0 0 257.25 186.749995" height="249" preserveAspectRatio="xMidYMid meet" version="1.0"><defs><clipPath id="b954a957e8"><path d="M 163.398438 10.550781 L 238.179688 10.550781 L 238.179688 85.335938 L 163.398438 85.335938 Z M 163.398438 10.550781 " clip-rule="nonzero"/></clipPath><clipPath id="53ddc5b36b"><path d="M 18.621094 10.550781 L 93.402344 10.550781 L 93.402344 85.335938 L 18.621094 85.335938 Z M 18.621094 10.550781 " clip-rule="nonzero"/></clipPath><clipPath id="38223d97b2"><path d="M 18.621094 105.167969 L 93.402344 105.167969 L 93.402344 179.949219 L 18.621094 179.949219 Z M 18.621094 105.167969 " clip-rule="nonzero"/></clipPath><clipPath id="58663a8600"><path d="M 152.582031 101.511719 L 247.171875 101.511719 L 247.171875 173.894531 L 152.582031 173.894531 Z M 152.582031 101.511719 " clip-rule="nonzero"/></clipPath><clipPath id="dd2336e5e6"><path d="M 152.582031 101.511719 L 247.171875 101.511719 L 247.171875 105 L 152.582031 105 Z M 152.582031 101.511719 " clip-rule="nonzero"/></clipPath><clipPath id="a6d38989cf"><path d="M 152.582031 170 L 247.171875 170 L 247.171875 173.894531 L 152.582031 173.894531 Z M 152.582031 170 " clip-rule="nonzero"/></clipPath><clipPath id="171145021c"><path d="M 152.582031 101.511719 L 156 101.511719 L 156 173.894531 L 152.582031 173.894531 Z M 152.582031 101.511719 " clip-rule="nonzero"/></clipPath><clipPath id="23c834a42b"><path d="M 244 101.511719 L 247.171875 101.511719 L 247.171875 173.894531 L 244 173.894531 Z M 244 101.511719 " clip-rule="nonzero"/></clipPath><clipPath id="f19e1e557a"><path d="M 191.03125 123.226562 L 209.050781 123.226562 L 209.050781 144 L 191.03125 144 Z M 191.03125 123.226562 " clip-rule="nonzero"/></clipPath><clipPath id="66d40ca864"><path d="M 196 145 L 203 145 L 203 151.871094 L 196 151.871094 Z M 196 145 " clip-rule="nonzero"/></clipPath><clipPath id="a3a7e22da4"><path d="M 59.148438 51.828125 L 93.105469 51.828125 L 93.105469 85.035156 L 59.148438 85.035156 Z M 59.148438 51.828125 " clip-rule="nonzero"/></clipPath><clipPath id="c0a4d3b378"><path d="M 0.148438 0.828125 L 34.105469 0.828125 L 34.105469 34.035156 L 0.148438 34.035156 Z M 0.148438 0.828125 " clip-rule="nonzero"/></clipPath><clipPath id="a3e92629a0"><rect x="0" width="35" y="0" height="35"/></clipPath><clipPath id="c0a9731373"><path d="M 59.148438 105.351562 L 93.105469 105.351562 L 93.105469 138.558594 L 59.148438 138.558594 Z M 59.148438 105.351562 " clip-rule="nonzero"/></clipPath><clipPath id="3a976f8de8"><path d="M 0.148438 0.351562 L 34.105469 0.351562 L 34.105469 33.558594 L 0.148438 33.558594 Z M 0.148438 0.351562 " clip-rule="nonzero"/></clipPath><clipPath id="45dd0a1318"><rect x="0" width="35" y="0" height="34"/></clipPath><clipPath id="da7896e935"><path d="M 163.398438 10.550781 L 209.015625 10.550781 L 209.015625 32.988281 L 163.398438 32.988281 Z M 163.398438 10.550781 " clip-rule="nonzero"/></clipPath></defs><g clip-path="url(#b954a957e8)"><path fill="#161616" d="M 164.480469 84.246094 L 237.085938 84.246094 L 237.085938 11.640625 L 164.480469 11.640625 Z M 238.171875 85.332031 L 163.394531 85.332031 L 163.394531 10.550781 L 238.171875 10.550781 L 238.171875 85.332031 " fill-opacity="1" fill-rule="nonzero"/></g><g clip-path="url(#53ddc5b36b)"><path fill="#161616" d="M 19.703125 84.246094 L 92.308594 84.246094 L 92.308594 11.640625 L 19.703125 11.640625 Z M 93.394531 85.332031 L 18.617188 85.332031 L 18.617188 10.550781 L 93.394531 10.550781 L 93.394531 85.332031 " fill-opacity="1" fill-rule="nonzero"/></g><g clip-path="url(#38223d97b2)"><path fill="#161616" d="M 19.703125 178.859375 L 92.308594 178.859375 L 92.308594 106.253906 L 19.703125 106.253906 Z M 93.394531 179.945312 L 18.617188 179.945312 L 18.617188 105.167969 L 93.394531 105.167969 L 93.394531 179.945312 " fill-opacity="1" fill-rule="nonzero"/></g><g clip-path="url(#58663a8600)"><path fill="#ffffff" d="M 152.582031 101.511719 L 247.171875 101.511719 L 247.171875 173.894531 L 152.582031 173.894531 Z M 152.582031 101.511719 " fill-opacity="1" fill-rule="nonzero"/><path fill="#ffffff" d="M 152.582031 101.511719 L 247.171875 101.511719 L 247.171875 173.894531 L 152.582031 173.894531 Z M 152.582031 101.511719 " fill-opacity="1" fill-rule="nonzero"/></g><g clip-path="url(#dd2336e5e6)"><path stroke-linecap="butt" transform="matrix(1.501414, 0, 0, 1.507901, 144.230241, 101.512683)" fill="none" stroke-linejoin="miter" d="M 0.000151794 1.001892 L 74.122963 1.001892 " stroke="#000000" stroke-width="2" stroke-opacity="1" stroke-miterlimit="4"/></g><g clip-path="url(#a6d38989cf)"><path stroke-linecap="butt" transform="matrix(1.501414, 0, 0, 1.507901, 149.935608, 170.87612)" fill="none" stroke-linejoin="miter" d="M 0.00126036 0.999198 L 74.124072 0.999198 " stroke="#000000" stroke-width="2" stroke-opacity="1" stroke-miterlimit="4"/></g><g clip-path="url(#171145021c)"><path stroke-linecap="butt" transform="matrix(0, 1.507901, -1.501414, 0, 155.585152, 103.020585)" fill="none" stroke-linejoin="miter" d="M 0.00189186 0.998535 L 48.001652 0.998535 " stroke="#000000" stroke-width="2" stroke-opacity="1" stroke-miterlimit="4"/></g><g clip-path="url(#23c834a42b)"><path stroke-linecap="butt" transform="matrix(0, 1.507901, -1.501414, 0, 247.171423, 103.020585)" fill="none" stroke-linejoin="miter" d="M 0.00189186 1.001358 L 48.001652 1.001358 " stroke="#000000" stroke-width="2" stroke-opacity="1" stroke-miterlimit="4"/></g><g clip-path="url(#f19e1e557a)"><path fill="#000000" d="M 207.851562 126.550781 C 207.082031 125.46875 206.011719 124.644531 204.644531 124.082031 C 203.296875 123.515625 201.730469 123.226562 199.953125 123.226562 C 198.335938 123.226562 196.867188 123.507812 195.53125 124.066406 C 194.207031 124.621094 193.128906 125.476562 192.316406 126.609375 C 191.675781 127.503906 191.273438 128.59375 191.113281 129.878906 C 191.039062 130.425781 191.488281 130.917969 192.066406 130.917969 L 195.636719 130.917969 C 196.09375 130.917969 196.480469 130.601562 196.578125 130.167969 C 196.664062 129.78125 196.816406 129.433594 197.019531 129.132812 C 197.347656 128.648438 197.773438 128.285156 198.289062 128.035156 C 198.804688 127.792969 199.351562 127.664062 199.929688 127.664062 C 200.53125 127.664062 201.070312 127.785156 201.566406 128.035156 C 202.058594 128.269531 202.453125 128.625 202.75 129.078125 C 203.039062 129.53125 203.191406 130.054688 203.191406 130.652344 C 203.191406 131.21875 203.054688 131.734375 202.796875 132.183594 C 202.539062 132.636719 202.195312 133.058594 201.761719 133.429688 C 201.320312 133.808594 200.835938 134.164062 200.28125 134.511719 C 199.542969 134.960938 198.90625 135.460938 198.386719 136.019531 C 197.863281 136.578125 197.46875 137.304688 197.1875 138.207031 C 196.921875 139.121094 196.777344 140.320312 196.769531 141.839844 L 196.769531 142.597656 C 196.769531 143.113281 197.203125 143.542969 197.734375 143.542969 L 200.875 143.542969 C 201.40625 143.542969 201.839844 143.121094 201.839844 142.597656 L 201.839844 141.839844 C 201.847656 140.992188 201.960938 140.273438 202.179688 139.691406 C 202.394531 139.121094 202.734375 138.601562 203.175781 138.160156 C 203.625 137.714844 204.203125 137.296875 204.902344 136.882812 C 205.746094 136.390625 206.46875 135.851562 207.082031 135.246094 C 207.691406 134.640625 208.175781 133.945312 208.519531 133.152344 C 208.867188 132.371094 209.042969 131.46875 209.042969 130.449219 C 209.019531 128.925781 208.625 127.625 207.851562 126.550781 Z M 207.851562 126.550781 " fill-opacity="1" fill-rule="nonzero"/></g><g clip-path="url(#66d40ca864)"><path fill="#000000" d="M 199.40625 145.648438 C 198.515625 145.648438 197.75 145.949219 197.125 146.5625 C 196.496094 147.167969 196.183594 147.902344 196.199219 148.75 C 196.183594 149.605469 196.496094 150.347656 197.125 150.960938 C 197.75 151.574219 198.515625 151.871094 199.40625 151.871094 C 199.96875 151.871094 200.5 151.734375 200.972656 151.453125 C 201.457031 151.164062 201.839844 150.792969 202.148438 150.316406 C 202.445312 149.839844 202.597656 149.320312 202.605469 148.75 C 202.589844 147.894531 202.265625 147.167969 201.625 146.5625 C 200.988281 145.949219 200.25 145.648438 199.40625 145.648438 Z M 199.40625 145.648438 " fill-opacity="1" fill-rule="nonzero"/></g><g clip-path="url(#a3a7e22da4)"><g transform="matrix(1, 0, 0, 1, 59, 51)"><g clip-path="url(#a3e92629a0)"><g clip-path="url(#c0a4d3b378)"><path fill="#000000" d="M 0.148438 0.828125 L 34.136719 0.828125 L 34.136719 34.035156 L 0.148438 34.035156 Z M 0.148438 0.828125 " fill-opacity="1" fill-rule="nonzero"/></g></g></g></g><g clip-path="url(#c0a9731373)"><g transform="matrix(1, 0, 0, 1, 59, 105)"><g clip-path="url(#45dd0a1318)"><g clip-path="url(#3a976f8de8)"><path fill="#000000" d="M 0.148438 0.351562 L 34.136719 0.351562 L 34.136719 33.558594 L 0.148438 33.558594 Z M 0.148438 0.351562 " fill-opacity="1" fill-rule="nonzero"/></g></g></g></g><g clip-path="url(#da7896e935)"><path fill="#000000" d="M 209.007812 10.550781 C 208.792969 22.976562 198.671875 32.980469 186.207031 32.980469 C 173.753906 32.980469 163.632812 22.976562 163.414062 10.550781 Z M 209.007812 10.550781 " fill-opacity="1" fill-rule="nonzero"/></g></svg>