<svg xmlns="http://www.w3.org/2000/svg" xmlns:xlink="http://www.w3.org/1999/xlink" width="343" zoomAndPan="magnify" viewBox="0 0 257.25 186.749995" height="249" preserveAspectRatio="xMidYMid meet" version="1.0"><defs><clipPath id="ff3d9b3dcd"><path d="M 194.390625 10.304688 L 237.765625 10.304688 L 237.765625 53.675781 L 194.390625 53.675781 Z M 194.390625 10.304688 " clip-rule="nonzero"/></clipPath><clipPath id="905cbe55ed"><path d="M 194.390625 71.503906 L 237.765625 71.503906 L 237.765625 114.878906 L 194.390625 114.878906 Z M 194.390625 71.503906 " clip-rule="nonzero"/></clipPath><clipPath id="aab213f98a"><path d="M 194.390625 132.941406 L 237.765625 132.941406 L 237.765625 176.316406 L 194.390625 176.316406 Z M 194.390625 132.941406 " clip-rule="nonzero"/></clipPath><clipPath id="76e9c8d75a"><path d="M 102.359375 10.070312 L 145.734375 10.070312 L 145.734375 53.441406 L 102.359375 53.441406 Z M 102.359375 10.070312 " clip-rule="nonzero"/></clipPath><clipPath id="66a178cfb6"><path d="M 102.359375 71.503906 L 145.734375 71.503906 L 145.734375 114.878906 L 102.359375 114.878906 Z M 102.359375 71.503906 " clip-rule="nonzero"/></clipPath><clipPath id="533e86d983"><path d="M 102.359375 132.941406 L 145.734375 132.941406 L 145.734375 176.316406 L 102.359375 176.316406 Z M 102.359375 132.941406 " clip-rule="nonzero"/></clipPath><clipPath id="2867f26c95"><path d="M 116.113281 91.484375 L 131.820312 91.484375 L 131.820312 107.1875 L 116.113281 107.1875 Z M 116.113281 91.484375 " clip-rule="nonzero"/></clipPath><clipPath id="a4acc2892e"><path d="M 0.113281 0.484375 L 15.609375 0.484375 L 15.609375 15.976562 L 0.113281 15.976562 Z M 0.113281 0.484375 " clip-rule="nonzero"/></clipPath><clipPath id="d188a5401b"><rect x="0" width="16" y="0" height="17"/></clipPath><clipPath id="16df7f3165"><path d="M 116.832031 26.097656 L 132.535156 26.097656 L 132.535156 41.800781 L 116.832031 41.800781 Z M 116.832031 26.097656 " clip-rule="nonzero"/></clipPath><clipPath id="dcc0a64f2b"><path d="M 0.832031 0.0976562 L 16.535156 0.0976562 L 16.535156 15.589844 L 0.832031 15.589844 Z M 0.832031 0.0976562 " clip-rule="nonzero"/></clipPath><clipPath id="589be786ff"><rect x="0" width="17" y="0" height="16"/></clipPath><clipPath id="0dd5c63b7f"><path d="M 116.113281 146.9375 L 131.820312 146.9375 L 131.820312 162.644531 L 116.113281 162.644531 Z M 116.113281 146.9375 " clip-rule="nonzero"/></clipPath><clipPath id="016061a6ac"><path d="M 0.113281 0.9375 L 15.609375 0.9375 L 15.609375 16.644531 L 0.113281 16.644531 Z M 0.113281 0.9375 " clip-rule="nonzero"/></clipPath><clipPath id="6b0236a31c"><rect x="0" width="16" y="0" height="17"/></clipPath><clipPath id="d931e6ac8f"><path d="M 211.625 26.347656 L 227.328125 26.347656 L 227.328125 42.054688 L 211.625 42.054688 Z M 211.625 26.347656 " clip-rule="nonzero"/></clipPath><clipPath id="6ca38c29e4"><path d="M 0.625 0.347656 L 16.328125 0.347656 L 16.328125 15.84375 L 0.625 15.84375 Z M 0.625 0.347656 " clip-rule="nonzero"/></clipPath><clipPath id="961234dacf"><rect x="0" width="17" y="0" height="17"/></clipPath><clipPath id="df71628096"><path d="M 203.875 90.261719 L 219.582031 90.261719 L 219.582031 105.96875 L 203.875 105.96875 Z M 203.875 90.261719 " clip-rule="nonzero"/></clipPath><clipPath id="3560fae2b5"><path d="M 0.875 0.261719 L 16.371094 0.261719 L 16.371094 15.757812 L 0.875 15.757812 Z M 0.875 0.261719 " clip-rule="nonzero"/></clipPath><clipPath id="59755931cc"><rect x="0" width="17" y="0" height="16"/></clipPath><clipPath id="c9f7b225b8"><path d="M 208.386719 146.9375 L 224 146.9375 L 224 162.644531 L 208.386719 162.644531 Z M 208.386719 146.9375 " clip-rule="nonzero"/></clipPath><clipPath id="46d7659cce"><path d="M 0.386719 0.9375 L 15.882812 0.9375 L 15.882812 16.644531 L 0.386719 16.644531 Z M 0.386719 0.9375 " clip-rule="nonzero"/></clipPath><clipPath id="70e7a5a111"><rect x="0" width="16" y="0" height="17"/></clipPath><clipPath id="475661e7fe"><path d="M 37.683594 26.347656 L 53.386719 26.347656 L 53.386719 42.054688 L 37.683594 42.054688 Z M 37.683594 26.347656 " clip-rule="nonzero"/></clipPath><clipPath id="3ab7d36f55"><path d="M 0.683594 0.347656 L 16.386719 0.347656 L 16.386719 15.84375 L 0.683594 15.84375 Z M 0.683594 0.347656 " clip-rule="nonzero"/></clipPath><clipPath id="a100431c4c"><rect x="0" width="17" y="0" height="17"/></clipPath><clipPath id="a580cfa872"><path d="M 37.683594 90.261719 L 53.386719 90.261719 L 53.386719 105.96875 L 37.683594 105.96875 Z M 37.683594 90.261719 " clip-rule="nonzero"/></clipPath><clipPath id="12b4bcf0e1"><path d="M 0.683594 0.261719 L 16.175781 0.261719 L 16.175781 15.757812 L 0.683594 15.757812 Z M 0.683594 0.261719 " clip-rule="nonzero"/></clipPath><clipPath id="e9223696da"><rect x="0" width="17" y="0" height="16"/></clipPath><clipPath id="e872e04d1d"><path d="M 12.890625 133.320312 L 71.097656 133.320312 L 71.097656 177.46875 L 12.890625 177.46875 Z M 12.890625 133.320312 " clip-rule="nonzero"/></clipPath><clipPath id="adfaef1d65"><path d="M 12.890625 133.320312 L 71.097656 133.320312 L 71.097656 135.839844 L 12.890625 135.839844 Z M 12.890625 133.320312 " clip-rule="nonzero"/></clipPath><clipPath id="d2145ce57f"><path d="M 12.890625 175 L 71.097656 175 L 71.097656 177.46875 L 12.890625 177.46875 Z M 12.890625 175 " clip-rule="nonzero"/></clipPath><clipPath id="8cfdc444ea"><path d="M 12.890625 133.320312 L 15 133.320312 L 15 177.46875 L 12.890625 177.46875 Z M 12.890625 133.320312 " clip-rule="nonzero"/></clipPath><clipPath id="b3c65c8813"><path d="M 69 133.320312 L 71.097656 133.320312 L 71.097656 177.46875 L 69 177.46875 Z M 69 133.320312 " clip-rule="nonzero"/></clipPath><clipPath id="6f08a06354"><path d="M 36.550781 146.5625 L 47.640625 146.5625 L 47.640625 159 L 36.550781 159 Z M 36.550781 146.5625 " clip-rule="nonzero"/></clipPath><clipPath id="ac14c88060"><path d="M 39.132812 160 L 44 160 L 44 164.035156 L 39.132812 164.035156 Z M 39.132812 160 " clip-rule="nonzero"/></clipPath><clipPath id="bb0011a52b"><path d="M 0 0.148438 L 256.503906 0.148438 L 256.503906 4 L 0 4 Z M 0 0.148438 " clip-rule="nonzero"/></clipPath><clipPath id="f5c8f9c591"><path d="M 0 60 L 256.503906 60 L 256.503906 64 L 0 64 Z M 0 60 " clip-rule="nonzero"/></clipPath><clipPath id="50ee13ffa4"><path d="M 0 125 L 256.503906 125 L 256.503906 129 L 0 129 Z M 0 125 " clip-rule="nonzero"/></clipPath><clipPath id="cef5154120"><path d="M 0 183 L 256.503906 183 L 256.503906 186.355469 L 0 186.355469 Z M 0 183 " clip-rule="nonzero"/></clipPath><clipPath id="1aca3e42f6"><path d="M 82 0.148438 L 86 0.148438 L 86 186.355469 L 82 186.355469 Z M 82 0.148438 " clip-rule="nonzero"/></clipPath><clipPath id="b3e4fa6437"><path d="M 164 0.148438 L 168 0.148438 L 168 186.355469 L 164 186.355469 Z M 164 0.148438 " clip-rule="nonzero"/></clipPath><clipPath id="9a49e07374"><path d="M 0 0.148438 L 3 0.148438 L 3 186.355469 L 0 186.355469 Z M 0 0.148438 " clip-rule="nonzero"/></clipPath><clipPath id="ca51537d55"><path d="M 253 0.148438 L 256.503906 0.148438 L 256.503906 186.355469 L 253 186.355469 Z M 253 0.148438 " clip-rule="nonzero"/></clipPath></defs><g clip-path="url(#ff3d9b3dcd)"><path fill="#161616" d="M 195.019531 53.046875 L 237.132812 53.046875 L 237.132812 10.933594 L 195.019531 10.933594 Z M 237.761719 53.675781 L 194.390625 53.675781 L 194.390625 10.304688 L 237.761719 10.304688 L 237.761719 53.675781 " fill-opacity="1" fill-rule="nonzero"/></g><g clip-path="url(#905cbe55ed)"><path fill="#161616" d="M 195.019531 114.25 L 237.132812 114.25 L 237.132812 72.136719 L 195.019531 72.136719 Z M 237.761719 114.878906 L 194.390625 114.878906 L 194.390625 71.503906 L 237.761719 71.503906 L 237.761719 114.878906 " fill-opacity="1" fill-rule="nonzero"/></g><g clip-path="url(#aab213f98a)"><path fill="#161616" d="M 195.019531 175.683594 L 237.132812 175.683594 L 237.132812 133.574219 L 195.019531 133.574219 Z M 237.761719 176.316406 L 194.390625 176.316406 L 194.390625 132.941406 L 237.761719 132.941406 L 237.761719 176.316406 " fill-opacity="1" fill-rule="nonzero"/></g><g clip-path="url(#76e9c8d75a)"><path fill="#000000" d="M 124.046875 10.070312 C 112.078125 10.070312 102.359375 19.785156 102.359375 31.753906 C 102.359375 43.726562 112.078125 53.441406 124.046875 53.441406 C 136.019531 53.441406 145.734375 43.726562 145.734375 31.753906 C 145.734375 19.785156 136.019531 10.070312 124.046875 10.070312 Z M 124.046875 11.273438 C 135.367188 11.273438 144.53125 20.4375 144.53125 31.753906 C 144.53125 43.074219 135.367188 52.238281 124.046875 52.238281 C 112.730469 52.238281 103.566406 43.074219 103.566406 31.753906 C 103.566406 20.4375 112.730469 11.273438 124.046875 11.273438 Z M 124.046875 11.273438 " fill-opacity="1" fill-rule="nonzero"/></g><g clip-path="url(#66a178cfb6)"><path fill="#000000" d="M 124.046875 71.503906 C 112.078125 71.503906 102.359375 81.222656 102.359375 93.191406 C 102.359375 105.164062 112.078125 114.878906 124.046875 114.878906 C 136.019531 114.878906 145.734375 105.164062 145.734375 93.191406 C 145.734375 81.222656 136.019531 71.503906 124.046875 71.503906 Z M 124.046875 72.710938 C 135.367188 72.710938 144.53125 81.875 144.53125 93.191406 C 144.53125 104.511719 135.367188 113.675781 124.046875 113.675781 C 112.730469 113.675781 103.566406 104.511719 103.566406 93.191406 C 103.566406 81.875 112.730469 72.710938 124.046875 72.710938 Z M 124.046875 72.710938 " fill-opacity="1" fill-rule="nonzero"/></g><g clip-path="url(#533e86d983)"><path fill="#000000" d="M 124.046875 132.941406 C 112.078125 132.941406 102.359375 142.660156 102.359375 154.628906 C 102.359375 166.601562 112.078125 176.316406 124.046875 176.316406 C 136.019531 176.316406 145.734375 166.601562 145.734375 154.628906 C 145.734375 142.660156 136.019531 132.941406 124.046875 132.941406 Z M 124.046875 134.148438 C 135.367188 134.148438 144.53125 143.308594 144.53125 154.628906 C 144.53125 165.949219 135.367188 175.113281 124.046875 175.113281 C 112.730469 175.113281 103.566406 165.949219 103.566406 154.628906 C 103.566406 143.308594 112.730469 134.148438 124.046875 134.148438 Z M 124.046875 134.148438 " fill-opacity="1" fill-rule="nonzero"/></g><g clip-path="url(#2867f26c95)"><g transform="matrix(1, 0, 0, 1, 116, 91)"><g clip-path="url(#d188a5401b)"><g clip-path="url(#a4acc2892e)"><path fill="#000000" d="M 0.324219 1.113281 L 14.769531 1.113281 L 14.769531 15.558594 C 14.769531 15.789062 14.957031 15.976562 15.191406 15.976562 C 15.421875 15.976562 15.609375 15.789062 15.609375 15.558594 L 15.609375 0.695312 C 15.609375 0.460938 15.421875 0.273438 15.191406 0.273438 L 0.324219 0.273438 C 0.09375 0.273438 -0.09375 0.460938 -0.09375 0.695312 C -0.09375 0.925781 0.09375 1.113281 0.324219 1.113281 Z M 0.324219 1.113281 " fill-opacity="1" fill-rule="nonzero"/></g></g></g></g><g clip-path="url(#16df7f3165)"><g transform="matrix(1, 0, 0, 1, 116, 26)"><g clip-path="url(#589be786ff)"><g clip-path="url(#dcc0a64f2b)"><path fill="#000000" d="M 16.117188 0.722656 L 1.671875 0.722656 L 1.671875 15.171875 C 1.671875 15.402344 1.484375 15.589844 1.25 15.589844 C 1.019531 15.589844 0.832031 15.402344 0.832031 15.171875 L 0.832031 0.304688 C 0.832031 0.0742188 1.019531 -0.113281 1.25 -0.113281 L 16.117188 -0.113281 C 16.347656 -0.113281 16.535156 0.0742188 16.535156 0.304688 C 16.535156 0.535156 16.347656 0.722656 16.117188 0.722656 Z M 16.117188 0.722656 " fill-opacity="1" fill-rule="nonzero"/></g></g></g></g><g clip-path="url(#0dd5c63b7f)"><g transform="matrix(1, 0, 0, 1, 116, 146)"><g clip-path="url(#6b0236a31c)"><g clip-path="url(#016061a6ac)"><path fill="#000000" d="M 0.324219 15.804688 L 14.769531 15.804688 L 14.769531 1.359375 C 14.769531 1.128906 14.957031 0.9375 15.191406 0.9375 C 15.421875 0.9375 15.609375 1.128906 15.609375 1.359375 L 15.609375 16.222656 C 15.609375 16.457031 15.421875 16.644531 15.191406 16.644531 L 0.324219 16.644531 C 0.09375 16.644531 -0.09375 16.457031 -0.09375 16.222656 C -0.09375 15.992188 0.09375 15.804688 0.324219 15.804688 Z M 0.324219 15.804688 " fill-opacity="1" fill-rule="nonzero"/></g></g></g></g><g clip-path="url(#d931e6ac8f)"><g transform="matrix(1, 0, 0, 1, 211, 26)"><g clip-path="url(#961234dacf)"><g clip-path="url(#6ca38c29e4)"><path fill="#000000" d="M 15.910156 0.976562 L 1.464844 0.976562 L 1.464844 15.421875 C 1.464844 15.65625 1.273438 15.84375 1.042969 15.84375 C 0.8125 15.84375 0.625 15.65625 0.625 15.421875 L 0.625 0.558594 C 0.625 0.328125 0.8125 0.140625 1.042969 0.140625 L 15.910156 0.140625 C 16.140625 0.140625 16.328125 0.328125 16.328125 0.558594 C 16.328125 0.789062 16.140625 0.976562 15.910156 0.976562 Z M 15.910156 0.976562 " fill-opacity="1" fill-rule="nonzero"/></g></g></g></g><g clip-path="url(#df71628096)"><g transform="matrix(1, 0, 0, 1, 203, 90)"><g clip-path="url(#59755931cc)"><g clip-path="url(#3560fae2b5)"><path fill="#000000" d="M 1.085938 0.890625 L 15.53125 0.890625 L 15.53125 15.335938 C 15.53125 15.570312 15.71875 15.757812 15.949219 15.757812 C 16.183594 15.757812 16.371094 15.570312 16.371094 15.335938 L 16.371094 0.472656 C 16.371094 0.242188 16.183594 0.0507812 15.949219 0.0507812 L 1.085938 0.0507812 C 0.855469 0.0507812 0.664062 0.242188 0.664062 0.472656 C 0.664062 0.703125 0.855469 0.890625 1.085938 0.890625 Z M 1.085938 0.890625 " fill-opacity="1" fill-rule="nonzero"/></g></g></g></g><g clip-path="url(#c9f7b225b8)"><g transform="matrix(1, 0, 0, 1, 208, 146)"><g clip-path="url(#70e7a5a111)"><g clip-path="url(#46d7659cce)"><path fill="#000000" d="M 0.597656 15.804688 L 15.042969 15.804688 L 15.042969 1.359375 C 15.042969 1.128906 15.230469 0.9375 15.464844 0.9375 C 15.695312 0.9375 15.882812 1.128906 15.882812 1.359375 L 15.882812 16.222656 C 15.882812 16.457031 15.695312 16.644531 15.464844 16.644531 L 0.597656 16.644531 C 0.367188 16.644531 0.179688 16.457031 0.179688 16.222656 C 0.179688 15.992188 0.367188 15.804688 0.597656 15.804688 Z M 0.597656 15.804688 " fill-opacity="1" fill-rule="nonzero"/></g></g></g></g><g clip-path="url(#475661e7fe)"><g transform="matrix(1, 0, 0, 1, 37, 26)"><g clip-path="url(#a100431c4c)"><g clip-path="url(#3ab7d36f55)"><path fill="#000000" d="M 15.964844 0.976562 L 1.519531 0.976562 L 1.519531 15.421875 C 1.519531 15.65625 1.332031 15.84375 1.101562 15.84375 C 0.871094 15.84375 0.683594 15.65625 0.683594 15.421875 L 0.683594 0.558594 C 0.683594 0.328125 0.871094 0.140625 1.101562 0.140625 L 15.964844 0.140625 C 16.199219 0.140625 16.386719 0.328125 16.386719 0.558594 C 16.386719 0.789062 16.199219 0.976562 15.964844 0.976562 Z M 15.964844 0.976562 " fill-opacity="1" fill-rule="nonzero"/></g></g></g></g><g clip-path="url(#a580cfa872)"><g transform="matrix(1, 0, 0, 1, 37, 90)"><g clip-path="url(#e9223696da)"><g clip-path="url(#12b4bcf0e1)"><path fill="#000000" d="M 0.890625 0.890625 L 15.335938 0.890625 L 15.335938 15.335938 C 15.335938 15.570312 15.523438 15.757812 15.757812 15.757812 C 15.988281 15.757812 16.175781 15.570312 16.175781 15.335938 L 16.175781 0.472656 C 16.175781 0.242188 15.988281 0.0507812 15.757812 0.0507812 L 0.890625 0.0507812 C 0.660156 0.0507812 0.472656 0.242188 0.472656 0.472656 C 0.472656 0.703125 0.660156 0.890625 0.890625 0.890625 Z M 0.890625 0.890625 " fill-opacity="1" fill-rule="nonzero"/></g></g></g></g><g clip-path="url(#e872e04d1d)"><path fill="#ffffff" d="M 12.890625 133.320312 L 71.097656 133.320312 L 71.097656 177.46875 L 12.890625 177.46875 Z M 12.890625 133.320312 " fill-opacity="1" fill-rule="nonzero"/><path fill="#ffffff" d="M 12.890625 133.320312 L 71.097656 133.320312 L 71.097656 177.46875 L 12.890625 177.46875 Z M 12.890625 133.320312 " fill-opacity="1" fill-rule="nonzero"/></g><g clip-path="url(#adfaef1d65)"><path stroke-linecap="butt" transform="matrix(0.923947, 0, 0, 0.919752, 7.750293, 133.319108)" fill="none" stroke-linejoin="miter" d="M -0.000317581 0.999371 L 74.125419 0.999371 " stroke="#000000" stroke-width="2" stroke-opacity="1" stroke-miterlimit="4"/></g><g clip-path="url(#d2145ce57f)"><path stroke-linecap="butt" transform="matrix(0.923947, 0, 0, 0.919752, 11.261292, 175.627695)" fill="none" stroke-linejoin="miter" d="M 0.000461344 0.999378 L 74.126198 0.999378 " stroke="#000000" stroke-width="2" stroke-opacity="1" stroke-miterlimit="4"/></g><g clip-path="url(#8cfdc444ea)"><path stroke-linecap="butt" transform="matrix(0, 0.919752, -0.923947, 0, 14.737934, 134.238869)" fill="none" stroke-linejoin="miter" d="M -0.000638863 0.997381 L 47.999737 0.997381 " stroke="#000000" stroke-width="2" stroke-opacity="1" stroke-miterlimit="4"/></g><g clip-path="url(#b3c65c8813)"><path stroke-linecap="butt" transform="matrix(0, 0.919752, -0.923947, 0, 71.098707, 134.238869)" fill="none" stroke-linejoin="miter" d="M -0.000638863 1.003122 L 47.999737 1.003122 " stroke="#000000" stroke-width="2" stroke-opacity="1" stroke-miterlimit="4"/></g><g clip-path="url(#6f08a06354)"><path fill="#000000" d="M 46.902344 148.589844 C 46.429688 147.933594 45.769531 147.429688 44.929688 147.085938 C 44.097656 146.742188 43.132812 146.5625 42.039062 146.5625 C 41.046875 146.5625 40.140625 146.734375 39.320312 147.074219 C 38.503906 147.414062 37.84375 147.9375 37.34375 148.625 C 36.945312 149.171875 36.699219 149.835938 36.601562 150.621094 C 36.554688 150.953125 36.832031 151.253906 37.1875 151.253906 L 39.386719 151.253906 C 39.667969 151.253906 39.902344 151.0625 39.964844 150.796875 C 40.019531 150.5625 40.113281 150.347656 40.234375 150.167969 C 40.4375 149.871094 40.699219 149.648438 41.015625 149.496094 C 41.332031 149.351562 41.671875 149.269531 42.027344 149.269531 C 42.398438 149.269531 42.726562 149.34375 43.035156 149.496094 C 43.335938 149.640625 43.578125 149.855469 43.761719 150.132812 C 43.941406 150.410156 44.035156 150.726562 44.035156 151.09375 C 44.035156 151.4375 43.949219 151.753906 43.792969 152.027344 C 43.632812 152.304688 43.421875 152.558594 43.152344 152.785156 C 42.882812 153.019531 42.585938 153.234375 42.242188 153.445312 C 41.789062 153.722656 41.398438 154.027344 41.078125 154.367188 C 40.753906 154.707031 40.511719 155.148438 40.339844 155.699219 C 40.175781 156.257812 40.085938 156.992188 40.082031 157.917969 L 40.082031 158.378906 C 40.082031 158.695312 40.347656 158.957031 40.675781 158.957031 L 42.609375 158.957031 C 42.9375 158.957031 43.203125 158.699219 43.203125 158.378906 L 43.203125 157.917969 C 43.207031 157.398438 43.277344 156.960938 43.410156 156.605469 C 43.542969 156.257812 43.753906 155.941406 44.023438 155.671875 C 44.300781 155.402344 44.65625 155.144531 45.085938 154.894531 C 45.605469 154.59375 46.050781 154.261719 46.429688 153.894531 C 46.804688 153.523438 47.101562 153.101562 47.3125 152.617188 C 47.527344 152.140625 47.632812 151.589844 47.632812 150.96875 C 47.621094 150.039062 47.378906 149.246094 46.902344 148.589844 Z M 46.902344 148.589844 " fill-opacity="1" fill-rule="nonzero"/></g><g clip-path="url(#ac14c88060)"><path fill="#000000" d="M 41.703125 160.242188 C 41.15625 160.242188 40.6875 160.421875 40.300781 160.796875 C 39.914062 161.167969 39.722656 161.613281 39.730469 162.132812 C 39.722656 162.652344 39.914062 163.105469 40.300781 163.480469 C 40.6875 163.855469 41.15625 164.035156 41.703125 164.035156 C 42.050781 164.035156 42.378906 163.953125 42.667969 163.78125 C 42.964844 163.601562 43.203125 163.375 43.390625 163.085938 C 43.574219 162.796875 43.667969 162.480469 43.671875 162.132812 C 43.664062 161.609375 43.464844 161.167969 43.070312 160.796875 C 42.679688 160.421875 42.222656 160.242188 41.703125 160.242188 Z M 41.703125 160.242188 " fill-opacity="1" fill-rule="nonzero"/></g><g clip-path="url(#bb0011a52b)"><path stroke-linecap="butt" transform="matrix(0.74782, 0, 0, 0.74782, -9.091193, 0.1468)" fill="none" stroke-linejoin="miter" d="M 0.00180436 1.997574 L 375.311587 1.997574 " stroke="#000000" stroke-width="4" stroke-opacity="1" stroke-miterlimit="4"/></g><g clip-path="url(#f5c8f9c591)"><path stroke-linecap="butt" transform="matrix(0.74782, 0.000000000000000029, -0.000000000000000029, 0.74782, -9.226357, 60.113854)" fill="none" stroke-linejoin="miter" d="M -0.00027542 1.999841 L 360.960502 1.999841 " stroke="#000000" stroke-width="4" stroke-opacity="1" stroke-miterlimit="4"/></g><g clip-path="url(#50ee13ffa4)"><path stroke-linecap="butt" transform="matrix(0.74782, 0, 0, 0.74782, -15.373313, 125.981857)" fill="none" stroke-linejoin="miter" d="M -0.0022553 1.998751 L 375.312751 1.998751 " stroke="#000000" stroke-width="4" stroke-opacity="1" stroke-miterlimit="4"/></g><g clip-path="url(#cef5154120)"><path stroke-linecap="butt" transform="matrix(0.74782, 0, 0, 0.74782, 0, 183.362635)" fill="none" stroke-linejoin="miter" d="M 0 2.001471 L 375.315006 2.001471 " stroke="#000000" stroke-width="4" stroke-opacity="1" stroke-miterlimit="4"/></g><g clip-path="url(#1aca3e42f6)"><path stroke-linecap="butt" transform="matrix(0, -0.74782, 0.74782, 0, 82.070237, 190.014199)" fill="none" stroke-linejoin="miter" d="M -0.00190738 2.000709 L 253.897642 2.000709 " stroke="#000000" stroke-width="4" stroke-opacity="1" stroke-miterlimit="4"/></g><g clip-path="url(#b3e4fa6437)"><path stroke-linecap="butt" transform="matrix(0, -0.74782, 0.74782, 0, 164.143453, 188.182567)" fill="none" stroke-linejoin="miter" d="M -0.00137335 2.00205 L 253.898176 2.00205 " stroke="#000000" stroke-width="4" stroke-opacity="1" stroke-miterlimit="4"/></g><g clip-path="url(#9a49e07374)"><path stroke-linecap="butt" transform="matrix(0, -0.74782, 0.74782, 0, -0.00297822, 191.88746)" fill="none" stroke-linejoin="miter" d="M 0.000990604 1.999366 L 253.90054 1.999366 " stroke="#000000" stroke-width="4" stroke-opacity="1" stroke-miterlimit="4"/></g><g clip-path="url(#ca51537d55)"><path stroke-linecap="butt" transform="matrix(0, -0.74782, 0.74782, 0, 253.62248, 191.509838)" fill="none" stroke-linejoin="miter" d="M -0.00251485 1.998754 L 253.897034 1.998754 " stroke="#000000" stroke-width="4" stroke-opacity="1" stroke-miterlimit="4"/></g></svg>