<svg xmlns="http://www.w3.org/2000/svg" xmlns:xlink="http://www.w3.org/1999/xlink" width="343" zoomAndPan="magnify" viewBox="0 0 257.25 186.749995" height="249" preserveAspectRatio="xMidYMid meet" version="1.0"><defs><clipPath id="6c2fc2eb50"><path d="M 194.390625 10.304688 L 237.765625 10.304688 L 237.765625 53.675781 L 194.390625 53.675781 Z M 194.390625 10.304688 " clip-rule="nonzero"/></clipPath><clipPath id="41c6c220cb"><path d="M 194.390625 71.503906 L 237.765625 71.503906 L 237.765625 114.878906 L 194.390625 114.878906 Z M 194.390625 71.503906 " clip-rule="nonzero"/></clipPath><clipPath id="30aa59e87c"><path d="M 194.390625 132.941406 L 237.765625 132.941406 L 237.765625 176.316406 L 194.390625 176.316406 Z M 194.390625 132.941406 " clip-rule="nonzero"/></clipPath><clipPath id="df8538e476"><path d="M 94.371094 10.304688 L 137.742188 10.304688 L 137.742188 53.675781 L 94.371094 53.675781 Z M 94.371094 10.304688 " clip-rule="nonzero"/></clipPath><clipPath id="836d274cb8"><path d="M 94.371094 71.503906 L 137.742188 71.503906 L 137.742188 114.878906 L 94.371094 114.878906 Z M 94.371094 71.503906 " clip-rule="nonzero"/></clipPath><clipPath id="96f6bed7d4"><path d="M 94.371094 132.941406 L 137.742188 132.941406 L 137.742188 176.316406 L 94.371094 176.316406 Z M 94.371094 132.941406 " clip-rule="nonzero"/></clipPath><clipPath id="dec2faed88"><path d="M 102.359375 90.261719 L 118 90.261719 L 118 105.96875 L 102.359375 105.96875 Z M 102.359375 90.261719 " clip-rule="nonzero"/></clipPath><clipPath id="471c7dae95"><path d="M 0.359375 0.261719 L 15.855469 0.261719 L 15.855469 15.757812 L 0.359375 15.757812 Z M 0.359375 0.261719 " clip-rule="nonzero"/></clipPath><clipPath id="d65103c645"><rect x="0" width="16" y="0" height="16"/></clipPath><clipPath id="993708d03a"><path d="M 116.113281 26.347656 L 131.820312 26.347656 L 131.820312 42.054688 L 116.113281 42.054688 Z M 116.113281 26.347656 " clip-rule="nonzero"/></clipPath><clipPath id="a3accff97a"><path d="M 0.113281 0.347656 L 15.820312 0.347656 L 15.820312 15.84375 L 0.113281 15.84375 Z M 0.113281 0.347656 " clip-rule="nonzero"/></clipPath><clipPath id="6265b5bf15"><rect x="0" width="16" y="0" height="17"/></clipPath><clipPath id="4c4d2174d0"><path d="M 102.359375 144.90625 L 118 144.90625 L 118 160.613281 L 102.359375 160.613281 Z M 102.359375 144.90625 " clip-rule="nonzero"/></clipPath><clipPath id="cf7a59f080"><path d="M 0.359375 0.90625 L 15.855469 0.90625 L 15.855469 16.613281 L 0.359375 16.613281 Z M 0.359375 0.90625 " clip-rule="nonzero"/></clipPath><clipPath id="9beee1e8d0"><rect x="0" width="16" y="0" height="17"/></clipPath><clipPath id="1ec35bb712"><path d="M 211.625 26.347656 L 227.328125 26.347656 L 227.328125 42.054688 L 211.625 42.054688 Z M 211.625 26.347656 " clip-rule="nonzero"/></clipPath><clipPath id="b3da7730e4"><path d="M 0.625 0.347656 L 16.328125 0.347656 L 16.328125 15.84375 L 0.625 15.84375 Z M 0.625 0.347656 " clip-rule="nonzero"/></clipPath><clipPath id="2f0380c735"><rect x="0" width="17" y="0" height="17"/></clipPath><clipPath id="3d2aa7b85e"><path d="M 203.875 90.261719 L 219.582031 90.261719 L 219.582031 105.96875 L 203.875 105.96875 Z M 203.875 90.261719 " clip-rule="nonzero"/></clipPath><clipPath id="ea674b9a06"><path d="M 0.875 0.261719 L 16.371094 0.261719 L 16.371094 15.757812 L 0.875 15.757812 Z M 0.875 0.261719 " clip-rule="nonzero"/></clipPath><clipPath id="bb8cbfb751"><rect x="0" width="17" y="0" height="16"/></clipPath><clipPath id="b8f25ea05c"><path d="M 208.386719 146.9375 L 224 146.9375 L 224 162.644531 L 208.386719 162.644531 Z M 208.386719 146.9375 " clip-rule="nonzero"/></clipPath><clipPath id="6e53d0c681"><path d="M 0.386719 0.9375 L 15.882812 0.9375 L 15.882812 16.644531 L 0.386719 16.644531 Z M 0.386719 0.9375 " clip-rule="nonzero"/></clipPath><clipPath id="d377087d75"><rect x="0" width="16" y="0" height="17"/></clipPath><clipPath id="9aa3f73f93"><path d="M 22.039062 26.347656 L 37.742188 26.347656 L 37.742188 42.054688 L 22.039062 42.054688 Z M 22.039062 26.347656 " clip-rule="nonzero"/></clipPath><clipPath id="2f0a0e5cd5"><path d="M 0.0390625 0.347656 L 15.742188 0.347656 L 15.742188 15.84375 L 0.0390625 15.84375 Z M 0.0390625 0.347656 " clip-rule="nonzero"/></clipPath><clipPath id="57fe1d8eb9"><rect x="0" width="16" y="0" height="17"/></clipPath><clipPath id="ae79079c31"><path d="M 18.621094 90.261719 L 34.324219 90.261719 L 34.324219 105.96875 L 18.621094 105.96875 Z M 18.621094 90.261719 " clip-rule="nonzero"/></clipPath><clipPath id="b073265835"><path d="M 0.621094 0.261719 L 16.113281 0.261719 L 16.113281 15.757812 L 0.621094 15.757812 Z M 0.621094 0.261719 " clip-rule="nonzero"/></clipPath><clipPath id="7a0420971a"><rect x="0" width="17" y="0" height="16"/></clipPath><clipPath id="bc497aa1cb"><path d="M 7.894531 134.945312 L 66.101562 134.945312 L 66.101562 179.09375 L 7.894531 179.09375 Z M 7.894531 134.945312 " clip-rule="nonzero"/></clipPath><clipPath id="6776ed5e02"><path d="M 7.894531 134.945312 L 66.101562 134.945312 L 66.101562 137 L 7.894531 137 Z M 7.894531 134.945312 " clip-rule="nonzero"/></clipPath><clipPath id="ac6800c3f0"><path d="M 7.894531 177 L 66.101562 177 L 66.101562 179.09375 L 7.894531 179.09375 Z M 7.894531 177 " clip-rule="nonzero"/></clipPath><clipPath id="b44cdd9b11"><path d="M 7.894531 134.945312 L 10 134.945312 L 10 179.09375 L 7.894531 179.09375 Z M 7.894531 134.945312 " clip-rule="nonzero"/></clipPath><clipPath id="c034320007"><path d="M 64 134.945312 L 66.101562 134.945312 L 66.101562 179.09375 L 64 179.09375 Z M 64 134.945312 " clip-rule="nonzero"/></clipPath><clipPath id="d2ceeb257b"><path d="M 31.554688 148.191406 L 42.644531 148.191406 L 42.644531 161 L 31.554688 161 Z M 31.554688 148.191406 " clip-rule="nonzero"/></clipPath><clipPath id="5de07a7ab9"><path d="M 34.136719 161.414062 L 39 161.414062 L 39 165.664062 L 34.136719 165.664062 Z M 34.136719 161.414062 " clip-rule="nonzero"/></clipPath></defs><g clip-path="url(#6c2fc2eb50)"><path fill="#161616" d="M 195.019531 53.046875 L 237.132812 53.046875 L 237.132812 10.933594 L 195.019531 10.933594 Z M 237.761719 53.675781 L 194.390625 53.675781 L 194.390625 10.304688 L 237.761719 10.304688 L 237.761719 53.675781 " fill-opacity="1" fill-rule="nonzero"/></g><g clip-path="url(#41c6c220cb)"><path fill="#161616" d="M 195.019531 114.25 L 237.132812 114.25 L 237.132812 72.136719 L 195.019531 72.136719 Z M 237.761719 114.878906 L 194.390625 114.878906 L 194.390625 71.503906 L 237.761719 71.503906 L 237.761719 114.878906 " fill-opacity="1" fill-rule="nonzero"/></g><g clip-path="url(#30aa59e87c)"><path fill="#161616" d="M 195.019531 175.683594 L 237.132812 175.683594 L 237.132812 133.574219 L 195.019531 133.574219 Z M 237.761719 176.316406 L 194.390625 176.316406 L 194.390625 132.941406 L 237.761719 132.941406 L 237.761719 176.316406 " fill-opacity="1" fill-rule="nonzero"/></g><g clip-path="url(#df8538e476)"><path fill="#000000" d="M 116.058594 10.304688 C 104.085938 10.304688 94.371094 20.019531 94.371094 31.988281 C 94.371094 43.960938 104.085938 53.675781 116.058594 53.675781 C 128.027344 53.675781 137.742188 43.960938 137.742188 31.988281 C 137.742188 20.019531 128.027344 10.304688 116.058594 10.304688 Z M 116.058594 11.507812 C 127.375 11.507812 136.539062 20.671875 136.539062 31.988281 C 136.539062 43.308594 127.375 52.472656 116.058594 52.472656 C 104.738281 52.472656 95.574219 43.308594 95.574219 31.988281 C 95.574219 20.671875 104.738281 11.507812 116.058594 11.507812 Z M 116.058594 11.507812 " fill-opacity="1" fill-rule="nonzero"/></g><g clip-path="url(#836d274cb8)"><path fill="#000000" d="M 116.058594 71.503906 C 104.085938 71.503906 94.371094 81.222656 94.371094 93.191406 C 94.371094 105.164062 104.085938 114.878906 116.058594 114.878906 C 128.027344 114.878906 137.742188 105.164062 137.742188 93.191406 C 137.742188 81.222656 128.027344 71.503906 116.058594 71.503906 Z M 116.058594 72.710938 C 127.375 72.710938 136.539062 81.875 136.539062 93.191406 C 136.539062 104.511719 127.375 113.675781 116.058594 113.675781 C 104.738281 113.675781 95.574219 104.511719 95.574219 93.191406 C 95.574219 81.875 104.738281 72.710938 116.058594 72.710938 Z M 116.058594 72.710938 " fill-opacity="1" fill-rule="nonzero"/></g><g clip-path="url(#96f6bed7d4)"><path fill="#000000" d="M 116.058594 132.941406 C 104.085938 132.941406 94.371094 142.660156 94.371094 154.628906 C 94.371094 166.601562 104.085938 176.316406 116.058594 176.316406 C 128.027344 176.316406 137.742188 166.601562 137.742188 154.628906 C 137.742188 142.660156 128.027344 132.941406 116.058594 132.941406 Z M 116.058594 134.148438 C 127.375 134.148438 136.539062 143.308594 136.539062 154.628906 C 136.539062 165.949219 127.375 175.113281 116.058594 175.113281 C 104.738281 175.113281 95.574219 165.949219 95.574219 154.628906 C 95.574219 143.308594 104.738281 134.148438 116.058594 134.148438 Z M 116.058594 134.148438 " fill-opacity="1" fill-rule="nonzero"/></g><g clip-path="url(#dec2faed88)"><g transform="matrix(1, 0, 0, 1, 102, 90)"><g clip-path="url(#d65103c645)"><g clip-path="url(#471c7dae95)"><path fill="#000000" d="M 0.570312 0.890625 L 15.015625 0.890625 L 15.015625 15.335938 C 15.015625 15.570312 15.203125 15.757812 15.433594 15.757812 C 15.667969 15.757812 15.855469 15.570312 15.855469 15.335938 L 15.855469 0.472656 C 15.855469 0.242188 15.667969 0.0507812 15.433594 0.0507812 L 0.570312 0.0507812 C 0.339844 0.0507812 0.152344 0.242188 0.152344 0.472656 C 0.152344 0.703125 0.339844 0.890625 0.570312 0.890625 Z M 0.570312 0.890625 " fill-opacity="1" fill-rule="nonzero"/></g></g></g></g><g clip-path="url(#993708d03a)"><g transform="matrix(1, 0, 0, 1, 116, 26)"><g clip-path="url(#6265b5bf15)"><g clip-path="url(#a3accff97a)"><path fill="#000000" d="M 15.398438 0.976562 L 0.953125 0.976562 L 0.953125 15.421875 C 0.953125 15.65625 0.765625 15.84375 0.535156 15.84375 C 0.304688 15.84375 0.113281 15.65625 0.113281 15.421875 L 0.113281 0.558594 C 0.113281 0.328125 0.304688 0.140625 0.535156 0.140625 L 15.398438 0.140625 C 15.632812 0.140625 15.820312 0.328125 15.820312 0.558594 C 15.820312 0.789062 15.632812 0.976562 15.398438 0.976562 Z M 15.398438 0.976562 " fill-opacity="1" fill-rule="nonzero"/></g></g></g></g><g clip-path="url(#4c4d2174d0)"><g transform="matrix(1, 0, 0, 1, 102, 144)"><g clip-path="url(#9beee1e8d0)"><g clip-path="url(#cf7a59f080)"><path fill="#000000" d="M 0.570312 15.773438 L 15.015625 15.773438 L 15.015625 1.328125 C 15.015625 1.097656 15.203125 0.90625 15.433594 0.90625 C 15.667969 0.90625 15.855469 1.097656 15.855469 1.328125 L 15.855469 16.191406 C 15.855469 16.425781 15.667969 16.613281 15.433594 16.613281 L 0.570312 16.613281 C 0.339844 16.613281 0.152344 16.425781 0.152344 16.191406 C 0.152344 15.960938 0.339844 15.773438 0.570312 15.773438 Z M 0.570312 15.773438 " fill-opacity="1" fill-rule="nonzero"/></g></g></g></g><g clip-path="url(#1ec35bb712)"><g transform="matrix(1, 0, 0, 1, 211, 26)"><g clip-path="url(#2f0380c735)"><g clip-path="url(#b3da7730e4)"><path fill="#000000" d="M 15.910156 0.976562 L 1.464844 0.976562 L 1.464844 15.421875 C 1.464844 15.65625 1.273438 15.84375 1.042969 15.84375 C 0.8125 15.84375 0.625 15.65625 0.625 15.421875 L 0.625 0.558594 C 0.625 0.328125 0.8125 0.140625 1.042969 0.140625 L 15.910156 0.140625 C 16.140625 0.140625 16.328125 0.328125 16.328125 0.558594 C 16.328125 0.789062 16.140625 0.976562 15.910156 0.976562 Z M 15.910156 0.976562 " fill-opacity="1" fill-rule="nonzero"/></g></g></g></g><g clip-path="url(#3d2aa7b85e)"><g transform="matrix(1, 0, 0, 1, 203, 90)"><g clip-path="url(#bb8cbfb751)"><g clip-path="url(#ea674b9a06)"><path fill="#000000" d="M 1.085938 0.890625 L 15.53125 0.890625 L 15.53125 15.335938 C 15.53125 15.570312 15.71875 15.757812 15.949219 15.757812 C 16.183594 15.757812 16.371094 15.570312 16.371094 15.335938 L 16.371094 0.472656 C 16.371094 0.242188 16.183594 0.0507812 15.949219 0.0507812 L 1.085938 0.0507812 C 0.855469 0.0507812 0.664062 0.242188 0.664062 0.472656 C 0.664062 0.703125 0.855469 0.890625 1.085938 0.890625 Z M 1.085938 0.890625 " fill-opacity="1" fill-rule="nonzero"/></g></g></g></g><g clip-path="url(#b8f25ea05c)"><g transform="matrix(1, 0, 0, 1, 208, 146)"><g clip-path="url(#d377087d75)"><g clip-path="url(#6e53d0c681)"><path fill="#000000" d="M 0.597656 15.804688 L 15.042969 15.804688 L 15.042969 1.359375 C 15.042969 1.128906 15.230469 0.9375 15.464844 0.9375 C 15.695312 0.9375 15.882812 1.128906 15.882812 1.359375 L 15.882812 16.222656 C 15.882812 16.457031 15.695312 16.644531 15.464844 16.644531 L 0.597656 16.644531 C 0.367188 16.644531 0.179688 16.457031 0.179688 16.222656 C 0.179688 15.992188 0.367188 15.804688 0.597656 15.804688 Z M 0.597656 15.804688 " fill-opacity="1" fill-rule="nonzero"/></g></g></g></g><g clip-path="url(#9aa3f73f93)"><g transform="matrix(1, 0, 0, 1, 22, 26)"><g clip-path="url(#57fe1d8eb9)"><g clip-path="url(#2f0a0e5cd5)"><path fill="#000000" d="M 15.324219 0.976562 L 0.878906 0.976562 L 0.878906 15.421875 C 0.878906 15.65625 0.691406 15.84375 0.457031 15.84375 C 0.226562 15.84375 0.0390625 15.65625 0.0390625 15.421875 L 0.0390625 0.558594 C 0.0390625 0.328125 0.226562 0.140625 0.457031 0.140625 L 15.324219 0.140625 C 15.554688 0.140625 15.742188 0.328125 15.742188 0.558594 C 15.742188 0.789062 15.554688 0.976562 15.324219 0.976562 Z M 15.324219 0.976562 " fill-opacity="1" fill-rule="nonzero"/></g></g></g></g><g clip-path="url(#ae79079c31)"><g transform="matrix(1, 0, 0, 1, 18, 90)"><g clip-path="url(#7a0420971a)"><g clip-path="url(#b073265835)"><path fill="#000000" d="M 0.828125 0.890625 L 15.277344 0.890625 L 15.277344 15.335938 C 15.277344 15.570312 15.464844 15.757812 15.695312 15.757812 C 15.925781 15.757812 16.113281 15.570312 16.113281 15.335938 L 16.113281 0.472656 C 16.113281 0.242188 15.925781 0.0507812 15.695312 0.0507812 L 0.828125 0.0507812 C 0.597656 0.0507812 0.410156 0.242188 0.410156 0.472656 C 0.410156 0.703125 0.597656 0.890625 0.828125 0.890625 Z M 0.828125 0.890625 " fill-opacity="1" fill-rule="nonzero"/></g></g></g></g><g clip-path="url(#bc497aa1cb)"><path fill="#ffffff" d="M 7.894531 134.945312 L 66.101562 134.945312 L 66.101562 179.09375 L 7.894531 179.09375 Z M 7.894531 134.945312 " fill-opacity="1" fill-rule="nonzero"/><path fill="#ffffff" d="M 7.894531 134.945312 L 66.101562 134.945312 L 66.101562 179.09375 L 7.894531 179.09375 Z M 7.894531 134.945312 " fill-opacity="1" fill-rule="nonzero"/></g><g clip-path="url(#6776ed5e02)"><path stroke-linecap="butt" transform="matrix(0.923947, 0, 0, 0.919752, 2.75414, 134.946084)" fill="none" stroke-linejoin="miter" d="M -0.000252622 1.00147 L 74.125484 1.00147 " stroke="#000000" stroke-width="2" stroke-opacity="1" stroke-miterlimit="4"/></g><g clip-path="url(#ac6800c3f0)"><path stroke-linecap="butt" transform="matrix(0.923947, 0, 0, 0.919752, 6.265139, 177.254671)" fill="none" stroke-linejoin="miter" d="M 0.000526277 1.001477 L 74.126263 1.001477 " stroke="#000000" stroke-width="2" stroke-opacity="1" stroke-miterlimit="4"/></g><g clip-path="url(#b44cdd9b11)"><path stroke-linecap="butt" transform="matrix(0, 0.919752, -0.923947, 0, 9.74178, 135.865842)" fill="none" stroke-linejoin="miter" d="M 0.00146266 0.997316 L 48.001838 0.997316 " stroke="#000000" stroke-width="2" stroke-opacity="1" stroke-miterlimit="4"/></g><g clip-path="url(#c034320007)"><path stroke-linecap="butt" transform="matrix(0, 0.919752, -0.923947, 0, 66.102555, 135.865842)" fill="none" stroke-linejoin="miter" d="M 0.00146266 1.003059 L 48.001838 1.003059 " stroke="#000000" stroke-width="2" stroke-opacity="1" stroke-miterlimit="4"/></g><g clip-path="url(#d2ceeb257b)"><path fill="#000000" d="M 41.90625 150.21875 C 41.433594 149.558594 40.773438 149.058594 39.933594 148.710938 C 39.101562 148.367188 38.136719 148.191406 37.042969 148.191406 C 36.050781 148.191406 35.144531 148.363281 34.324219 148.703125 C 33.507812 149.042969 32.84375 149.5625 32.347656 150.253906 C 31.949219 150.800781 31.703125 151.464844 31.605469 152.246094 C 31.558594 152.582031 31.835938 152.882812 32.191406 152.882812 L 34.390625 152.882812 C 34.671875 152.882812 34.90625 152.691406 34.96875 152.425781 C 35.023438 152.1875 35.117188 151.976562 35.238281 151.792969 C 35.441406 151.5 35.703125 151.277344 36.019531 151.125 C 36.335938 150.976562 36.671875 150.898438 37.03125 150.898438 C 37.402344 150.898438 37.730469 150.972656 38.039062 151.125 C 38.339844 151.265625 38.582031 151.484375 38.765625 151.757812 C 38.945312 152.035156 39.039062 152.355469 39.039062 152.71875 C 39.039062 153.0625 38.953125 153.378906 38.796875 153.65625 C 38.636719 153.929688 38.425781 154.1875 38.15625 154.414062 C 37.886719 154.644531 37.589844 154.863281 37.246094 155.074219 C 36.792969 155.347656 36.402344 155.652344 36.082031 155.992188 C 35.757812 156.332031 35.515625 156.777344 35.34375 157.328125 C 35.179688 157.882812 35.089844 158.617188 35.085938 159.542969 L 35.085938 160.007812 C 35.085938 160.320312 35.351562 160.582031 35.679688 160.582031 L 37.613281 160.582031 C 37.941406 160.582031 38.207031 160.328125 38.207031 160.007812 L 38.207031 159.542969 C 38.210938 159.027344 38.28125 158.589844 38.414062 158.234375 C 38.546875 157.882812 38.757812 157.570312 39.027344 157.296875 C 39.304688 157.027344 39.660156 156.773438 40.089844 156.519531 C 40.609375 156.21875 41.054688 155.890625 41.433594 155.519531 C 41.808594 155.152344 42.105469 154.726562 42.316406 154.246094 C 42.53125 153.769531 42.636719 153.21875 42.636719 152.597656 C 42.625 151.667969 42.382812 150.875 41.90625 150.21875 Z M 41.90625 150.21875 " fill-opacity="1" fill-rule="nonzero"/></g><g clip-path="url(#5de07a7ab9)"><path fill="#000000" d="M 36.707031 161.867188 C 36.160156 161.867188 35.691406 162.050781 35.304688 162.421875 C 34.917969 162.792969 34.726562 163.242188 34.734375 163.757812 C 34.726562 164.28125 34.917969 164.734375 35.304688 165.105469 C 35.691406 165.480469 36.160156 165.664062 36.707031 165.664062 C 37.054688 165.664062 37.382812 165.578125 37.671875 165.40625 C 37.96875 165.230469 38.207031 165.003906 38.394531 164.714844 C 38.578125 164.421875 38.671875 164.109375 38.675781 163.757812 C 38.667969 163.234375 38.46875 162.792969 38.074219 162.421875 C 37.683594 162.050781 37.226562 161.867188 36.707031 161.867188 Z M 36.707031 161.867188 " fill-opacity="1" fill-rule="nonzero"/></g></svg>