<svg xmlns="http://www.w3.org/2000/svg" xmlns:xlink="http://www.w3.org/1999/xlink" width="343" zoomAndPan="magnify" viewBox="0 0 257.25 186.749995" height="249" preserveAspectRatio="xMidYMid meet" version="1.0"><defs><clipPath id="faa347253a"><path d="M 0 0.148438 L 254.769531 0.148438 L 254.769531 186.355469 L 0 186.355469 Z M 0 0.148438 " clip-rule="nonzero"/></clipPath><clipPath id="ececabe609"><path d="M 98.125 56.382812 L 149.726562 56.382812 L 149.726562 107.980469 L 98.125 107.980469 Z M 98.125 56.382812 " clip-rule="nonzero"/></clipPath><clipPath id="8eca1a82b2"><path d="M 78.160156 88.082031 L 172.75 88.082031 L 172.75 160.460938 L 78.160156 160.460938 Z M 78.160156 88.082031 " clip-rule="nonzero"/></clipPath><clipPath id="bfa605c885"><path d="M 78.160156 88.082031 L 172.75 88.082031 L 172.75 92 L 78.160156 92 Z M 78.160156 88.082031 " clip-rule="nonzero"/></clipPath><clipPath id="598888f4aa"><path d="M 78.160156 157 L 172.75 157 L 172.75 160.460938 L 78.160156 160.460938 Z M 78.160156 157 " clip-rule="nonzero"/></clipPath><clipPath id="31842371f5"><path d="M 78.160156 88.082031 L 81.714844 88.082031 L 81.714844 160.460938 L 78.160156 160.460938 Z M 78.160156 88.082031 " clip-rule="nonzero"/></clipPath><clipPath id="90d7c8af19"><path d="M 169 88.082031 L 172.75 88.082031 L 172.75 160.460938 L 169 160.460938 Z M 169 88.082031 " clip-rule="nonzero"/></clipPath><clipPath id="0c0482f615"><path d="M 116.609375 109.792969 L 134.628906 109.792969 L 134.628906 131 L 116.609375 131 Z M 116.609375 109.792969 " clip-rule="nonzero"/></clipPath><clipPath id="0c5352ffb6"><path d="M 121 132 L 129 132 L 129 138.441406 L 121 138.441406 Z M 121 132 " clip-rule="nonzero"/></clipPath></defs><g clip-path="url(#faa347253a)"><path fill="#231f20" d="M 254.632812 253.488281 L 254.523438 208.007812 L 254.488281 192.125 L 254.320312 125.605469 C 254.320312 125.605469 254.320312 125.601562 254.320312 125.601562 L 254.191406 72.28125 L 254.054688 15.828125 C 254.054688 15.828125 254.054688 15.828125 254.054688 15.824219 L 254.015625 -3.710938 C 254.015625 -3.75 254.007812 -3.792969 254 -3.832031 C 254 -3.839844 254 -3.839844 254 -3.84375 C 253.984375 -3.894531 253.964844 -3.941406 253.9375 -3.984375 C 253.925781 -4 253.917969 -4.007812 253.90625 -4.019531 C 253.886719 -4.046875 253.859375 -4.070312 253.832031 -4.097656 C 253.816406 -4.109375 253.808594 -4.117188 253.792969 -4.128906 C 253.78125 -4.132812 253.769531 -4.144531 253.761719 -4.152344 C 253.738281 -4.164062 253.726562 -4.167969 253.703125 -4.179688 C 253.6875 -4.183594 253.671875 -4.195312 253.65625 -4.199219 C 253.601562 -4.214844 253.546875 -4.226562 253.5 -4.226562 C 253.5 -4.226562 253.496094 -4.226562 253.496094 -4.226562 L -4.328125 -4.226562 C -4.335938 -4.226562 -4.335938 -4.226562 -4.339844 -4.226562 C -4.386719 -4.226562 -4.433594 -4.214844 -4.480469 -4.199219 C -4.496094 -4.195312 -4.511719 -4.191406 -4.53125 -4.179688 C -4.546875 -4.175781 -4.566406 -4.167969 -4.589844 -4.160156 C -4.597656 -4.148438 -4.609375 -4.136719 -4.621094 -4.132812 C -4.636719 -4.121094 -4.652344 -4.113281 -4.660156 -4.097656 C -4.6875 -4.078125 -4.714844 -4.050781 -4.734375 -4.019531 C -4.742188 -4.007812 -4.753906 -4 -4.765625 -3.984375 C -4.789062 -3.941406 -4.816406 -3.894531 -4.828125 -3.84375 C -4.828125 -3.839844 -4.828125 -3.839844 -4.828125 -3.832031 C -4.84375 -3.792969 -4.847656 -3.75 -4.847656 -3.710938 L -4.894531 15.828125 C -4.894531 15.828125 -4.894531 15.828125 -4.894531 15.832031 L -5.027344 72.28125 L -5.464844 253.785156 C -5.464844 253.800781 -5.460938 253.8125 -5.460938 253.828125 C -5.460938 253.859375 -5.453125 253.894531 -5.445312 253.925781 C -5.4375 253.945312 -5.429688 253.96875 -5.421875 253.984375 C -5.417969 254 -5.414062 254.015625 -5.40625 254.023438 C -5.402344 254.039062 -5.390625 254.046875 -5.382812 254.0625 C -5.371094 254.082031 -5.359375 254.097656 -5.34375 254.113281 C -5.324219 254.136719 -5.304688 254.160156 -5.277344 254.179688 C -5.261719 254.191406 -5.246094 254.207031 -5.230469 254.214844 C -5.199219 254.238281 -5.167969 254.253906 -5.132812 254.269531 C -5.121094 254.273438 -5.113281 254.277344 -5.101562 254.28125 C -5.097656 254.28125 -5.097656 254.28125 -5.089844 254.28125 C -5.042969 254.296875 -4.992188 254.304688 -4.941406 254.304688 L 254.207031 254.304688 C 254.398438 254.304688 254.578125 254.195312 254.667969 254.023438 C 254.757812 253.855469 254.742188 253.648438 254.632812 253.488281 Z M 239.507812 253.269531 L 216.027344 215.738281 L 226.46875 215.738281 L 253.109375 253.269531 Z M 224.242188 253.269531 L 203.898438 215.738281 L 214.808594 215.738281 L 238.289062 253.269531 Z M 208.679688 253.269531 L 191.527344 215.738281 L 202.722656 215.738281 L 223.066406 253.269531 Z M 192.804688 253.269531 L 178.90625 215.738281 L 190.382812 215.738281 L 207.535156 253.269531 Z M 176.617188 253.269531 L 166.046875 215.738281 L 177.808594 215.738281 L 191.699219 253.269531 Z M 53.976562 253.269531 L 68.605469 215.738281 L 82.273438 215.738281 L 71.460938 253.269531 Z M 35.046875 253.269531 L 53.570312 215.738281 L 67.492188 215.738281 L 52.859375 253.269531 Z M 15.738281 253.269531 L 38.234375 215.738281 L 52.410156 215.738281 L 33.886719 253.269531 Z M -3.945312 253.269531 L 22.695312 215.738281 L 37.027344 215.738281 L 14.53125 253.269531 Z M 34.441406 -3.191406 L 52.046875 11.429688 L 38.394531 11.429688 L 17.015625 -3.191406 Z M 53.316406 -3.191406 L 67.226562 11.429688 L 53.675781 11.429688 L 36.0625 -3.191406 Z M 71.804688 -3.191406 L 82.085938 11.429688 L 68.652344 11.429688 L 54.742188 -3.191406 Z M 89.914062 -3.191406 L 96.640625 11.429688 L 83.351562 11.429688 L 73.070312 -3.191406 Z M 107.652344 -3.191406 L 110.894531 11.429688 L 97.78125 11.429688 L 91.054688 -3.191406 Z M 158.636719 -3.191406 L 151.824219 11.429688 L 139.542969 11.429688 L 143.066406 -3.191406 Z M 174.925781 -3.191406 L 164.898438 11.429688 L 152.972656 11.429688 L 159.78125 -3.191406 Z M 190.886719 -3.191406 L 177.699219 11.429688 L 166.15625 11.429688 L 176.179688 -3.191406 Z M 206.515625 -3.191406 L 190.238281 11.429688 L 179.09375 11.429688 L 192.28125 -3.191406 Z M 221.839844 -3.191406 L 202.519531 11.429688 L 191.78125 11.429688 L 208.066406 -3.191406 Z M 236.855469 -3.191406 L 214.5625 11.429688 L 204.238281 11.429688 L 223.554688 -3.191406 Z M 251.570312 -3.191406 L 226.335938 11.429688 L 216.449219 11.429688 L 238.742188 -3.191406 Z M -4.039062 90.835938 L 21.980469 86.949219 L 21.960938 100.011719 L -4.074219 107.476562 Z M 253.242188 107.476562 L 227.207031 100.011719 L 227.1875 86.949219 L 253.207031 90.835938 Z M 226.171875 99.714844 L 209.507812 94.941406 L 209.492188 84.3125 L 226.144531 86.796875 Z M 40.695312 95.722656 L 52.136719 92.445312 L 52.125 101.128906 L 40.679688 105.949219 Z M 39.644531 106.382812 L 22.96875 113.40625 L 22.992188 100.792969 L 39.652344 96.019531 Z M 179.570312 86.359375 L 174.917969 85.027344 L 174.910156 79.148438 L 179.566406 79.84375 Z M 180.601562 80.003906 L 186.71875 80.914062 L 186.722656 88.410156 L 180.605469 86.660156 Z M 79.921875 90.539062 L 82.734375 89.355469 L 82.734375 93.753906 L 79.921875 95.308594 Z M 78.878906 95.878906 L 75.277344 97.871094 L 75.28125 92.492188 L 78.882812 90.976562 Z M 99.234375 59.964844 L 99.234375 56.535156 L 149.933594 56.535156 L 149.933594 106.710938 L 141.359375 106.710938 C 141.359375 106.710938 141.359375 106.710938 141.355469 106.710938 L 99.234375 106.710938 Z M 98.195312 56.320312 L 98.195312 59.179688 L 97.773438 58.996094 L 97.773438 56.074219 Z M 98.195312 60.304688 L 98.195312 63.152344 L 97.773438 63.03125 L 97.773438 60.125 Z M 98.195312 64.222656 L 98.195312 67.03125 L 97.773438 66.972656 L 97.773438 64.101562 Z M 98.195312 68.070312 L 98.195312 70.824219 L 97.773438 70.828125 L 97.773438 68.015625 Z M 98.195312 71.855469 L 98.195312 74.535156 L 97.773438 74.597656 L 97.773438 71.863281 Z M 98.195312 75.582031 L 98.195312 78.167969 L 97.773438 78.292969 L 97.773438 75.648438 Z M 98.195312 79.242188 L 98.195312 81.714844 L 97.773438 81.898438 L 97.773438 79.363281 Z M 98.195312 82.839844 L 98.195312 85.191406 L 97.773438 85.429688 L 97.773438 83.019531 Z M 98.195312 86.375 L 98.195312 88.59375 L 97.773438 88.886719 L 97.773438 86.609375 Z M 98.195312 89.847656 L 98.195312 91.925781 L 97.773438 92.273438 L 97.773438 90.140625 Z M 98.195312 93.253906 L 98.195312 95.183594 L 97.773438 95.582031 L 97.773438 93.601562 Z M 98.195312 96.601562 L 98.195312 98.382812 L 97.773438 98.832031 L 97.773438 97 Z M 98.195312 99.886719 L 98.195312 101.511719 L 97.773438 102.011719 L 97.773438 100.335938 Z M 98.195312 103.109375 L 98.195312 104.578125 L 97.773438 105.132812 L 97.773438 103.609375 Z M 98.195312 106.269531 L 98.195312 107.066406 L 97.765625 107.671875 L 97.765625 106.824219 Z M 98.984375 108.265625 L 101.445312 108.265625 L 101.140625 108.777344 L 98.621094 108.777344 Z M 102.652344 108.265625 L 105.457031 108.265625 L 105.203125 108.777344 L 102.34375 108.777344 Z M 106.613281 108.265625 L 109.386719 108.265625 L 109.183594 108.777344 L 106.359375 108.777344 Z M 110.5 108.265625 L 113.238281 108.265625 L 113.09375 108.777344 L 110.304688 108.777344 Z M 114.316406 108.265625 L 117.007812 108.265625 L 116.90625 108.777344 L 114.164062 108.777344 Z M 118.058594 108.265625 L 120.691406 108.265625 L 120.644531 108.777344 L 117.960938 108.777344 Z M 121.738281 108.265625 L 124.308594 108.265625 L 124.3125 108.777344 L 121.691406 108.777344 Z M 125.34375 108.265625 L 127.847656 108.265625 L 127.902344 108.777344 L 125.351562 108.777344 Z M 128.886719 108.265625 L 131.304688 108.265625 L 131.40625 108.777344 L 128.9375 108.777344 Z M 132.363281 108.265625 L 134.699219 108.265625 L 134.847656 108.777344 L 132.460938 108.777344 Z M 135.777344 108.265625 L 138.023438 108.265625 L 138.214844 108.777344 L 135.925781 108.777344 Z M 139.128906 108.265625 L 141.273438 108.265625 L 141.507812 108.777344 L 139.3125 108.777344 Z M 142.414062 108.265625 L 144.460938 108.265625 L 144.742188 108.777344 L 142.652344 108.777344 Z M 145.640625 108.265625 L 147.585938 108.265625 L 147.90625 108.777344 L 145.921875 108.777344 Z M 148.808594 108.265625 L 150.183594 108.265625 L 150.546875 108.777344 L 149.125 108.777344 Z M 151.0625 107.066406 L 151.0625 106.394531 L 151.394531 106.824219 L 151.394531 107.539062 Z M 151.0625 104.699219 L 151.0625 103.21875 L 151.394531 103.609375 L 151.394531 105.132812 Z M 151.0625 101.621094 L 151.0625 99.984375 L 151.394531 100.335938 L 151.394531 102.011719 Z M 151.0625 98.480469 L 151.0625 96.691406 L 151.394531 97 L 151.394531 98.832031 Z M 151.0625 95.273438 L 151.0625 93.332031 L 151.394531 93.601562 L 151.394531 95.582031 Z M 151.0625 92 L 151.0625 89.910156 L 151.394531 90.136719 L 151.394531 92.269531 Z M 151.0625 88.65625 L 151.0625 86.429688 L 151.394531 86.609375 L 151.394531 88.886719 Z M 151.0625 85.242188 L 151.0625 82.878906 L 151.394531 83.019531 L 151.394531 85.429688 Z M 151.0625 81.757812 L 151.0625 79.269531 L 151.394531 79.363281 L 151.394531 81.898438 Z M 151.0625 78.191406 L 151.0625 75.597656 L 151.394531 75.648438 L 151.394531 78.292969 Z M 151.0625 74.550781 L 151.0625 71.863281 L 151.394531 71.867188 L 151.394531 74.605469 Z M 151.0625 70.828125 L 151.0625 68.058594 L 151.394531 68.015625 L 151.394531 70.828125 Z M 151.0625 67.015625 L 151.0625 64.195312 L 151.394531 64.101562 L 151.394531 66.972656 Z M 151.0625 63.121094 L 151.0625 60.265625 L 151.394531 60.125 L 151.394531 63.03125 Z M 151.0625 59.136719 L 151.0625 56.320312 L 151.394531 56.128906 L 151.394531 58.996094 Z M 152.433594 55.527344 L 153.035156 55.179688 L 153.035156 58.300781 L 152.433594 58.558594 Z M 96.734375 55.46875 L 96.734375 58.554688 L 96.132812 58.292969 L 96.132812 55.125 Z M 96.734375 59.679688 L 96.734375 62.742188 L 96.132812 62.578125 L 96.132812 59.425781 Z M 96.734375 63.8125 L 96.734375 66.835938 L 96.132812 66.75 L 96.132812 63.644531 Z M 96.734375 67.878906 L 96.734375 70.839844 L 96.132812 70.84375 L 96.132812 67.796875 Z M 96.734375 71.871094 L 96.734375 74.753906 L 96.132812 74.839844 L 96.132812 71.878906 Z M 96.734375 75.796875 L 96.734375 78.582031 L 96.132812 78.75 L 96.132812 75.886719 Z M 96.734375 79.664062 L 96.734375 82.335938 L 96.132812 82.589844 L 96.132812 79.839844 Z M 96.734375 83.453125 L 96.734375 86 L 96.132812 86.328125 L 96.132812 83.707031 Z M 96.734375 87.183594 L 96.734375 89.589844 L 96.132812 89.996094 L 96.132812 87.507812 Z M 96.734375 90.84375 L 96.734375 93.109375 L 96.132812 93.597656 L 96.132812 91.257812 Z M 96.734375 94.441406 L 96.734375 96.550781 L 96.132812 97.113281 L 96.132812 94.925781 Z M 96.734375 97.96875 L 96.734375 99.921875 L 96.132812 100.558594 L 96.132812 98.527344 Z M 96.734375 101.433594 L 96.734375 103.234375 L 96.132812 103.941406 L 96.132812 102.070312 Z M 96.734375 104.832031 L 96.734375 106.472656 L 96.132812 107.253906 L 96.132812 105.539062 Z M 96.734375 108.164062 L 96.734375 109.136719 L 96.132812 109.988281 L 96.132812 108.945312 Z M 97.886719 109.8125 L 100.519531 109.8125 L 99.75 111.089844 L 96.980469 111.089844 Z M 101.726562 109.8125 L 104.695312 109.8125 L 104.0625 111.089844 L 100.960938 111.089844 Z M 105.851562 109.8125 L 108.785156 109.8125 L 108.289062 111.089844 L 105.21875 111.089844 Z M 109.894531 109.8125 L 112.785156 109.8125 L 112.417969 111.089844 L 109.398438 111.089844 Z M 113.871094 109.8125 L 116.714844 109.8125 L 116.476562 111.089844 L 113.507812 111.089844 Z M 117.769531 109.8125 L 120.554688 109.8125 L 120.441406 111.089844 L 117.53125 111.089844 Z M 121.597656 109.8125 L 124.320312 109.8125 L 124.324219 111.089844 L 121.484375 111.089844 Z M 125.351562 109.8125 L 128 109.8125 L 128.125 111.089844 L 125.355469 111.089844 Z M 129.042969 109.8125 L 131.605469 109.8125 L 131.851562 111.089844 L 129.171875 111.089844 Z M 132.660156 109.8125 L 135.136719 109.8125 L 135.492188 111.089844 L 132.902344 111.089844 Z M 136.214844 109.8125 L 138.59375 109.8125 L 139.066406 111.089844 L 136.570312 111.089844 Z M 139.703125 109.8125 L 141.984375 109.8125 L 142.570312 111.089844 L 140.175781 111.089844 Z M 143.125 109.8125 L 145.300781 109.8125 L 145.988281 111.089844 L 143.703125 111.089844 Z M 146.480469 109.8125 L 148.554688 109.8125 L 149.351562 111.089844 L 147.175781 111.089844 Z M 149.773438 109.8125 L 151.28125 109.8125 L 152.1875 111.089844 L 150.578125 111.089844 Z M 152.433594 109 L 152.433594 108.164062 L 153.035156 108.945312 L 153.035156 109.855469 Z M 152.433594 106.472656 L 152.433594 104.832031 L 153.035156 105.539062 L 153.035156 107.253906 Z M 152.433594 103.234375 L 152.433594 101.433594 L 153.035156 102.070312 L 153.035156 103.941406 Z M 152.433594 99.929688 L 152.433594 97.972656 L 153.035156 98.535156 L 153.035156 100.570312 Z M 152.433594 96.550781 L 152.433594 94.441406 L 153.035156 94.925781 L 153.035156 97.113281 Z M 152.433594 93.105469 L 152.433594 90.839844 L 153.035156 91.25 L 153.035156 93.585938 Z M 152.433594 89.59375 L 152.433594 87.1875 L 153.035156 87.519531 L 153.035156 90.007812 Z M 152.433594 86 L 152.433594 83.453125 L 153.035156 83.707031 L 153.035156 86.328125 Z M 152.433594 82.332031 L 152.433594 79.65625 L 153.035156 79.828125 L 153.035156 82.578125 Z M 152.433594 78.585938 L 152.433594 75.804688 L 153.035156 75.890625 L 153.035156 78.757812 Z M 152.433594 74.753906 L 152.433594 71.871094 L 153.035156 71.878906 L 153.035156 74.839844 Z M 152.433594 70.839844 L 152.433594 67.878906 L 153.035156 67.796875 L 153.035156 70.84375 Z M 152.433594 66.835938 L 152.433594 63.8125 L 153.035156 63.648438 L 153.035156 66.757812 Z M 152.433594 62.738281 L 152.433594 59.675781 L 153.035156 59.417969 L 153.035156 62.566406 Z M 154.070312 58.976562 L 154.878906 58.628906 L 154.878906 62.054688 L 154.070312 62.28125 Z M 154.070312 57.855469 L 154.070312 54.582031 L 154.878906 54.109375 L 154.878906 57.507812 Z M 153.402344 53.710938 L 152.011719 53.710938 L 152.058594 53.679688 L 153.457031 53.679688 Z M 150.125 53.710938 L 148.398438 53.710938 L 148.441406 53.679688 L 150.171875 53.679688 Z M 95.097656 54.523438 L 95.097656 57.855469 L 94.289062 57.507812 L 94.289062 54.058594 Z M 95.097656 58.976562 L 95.097656 62.28125 L 94.289062 62.054688 L 94.289062 58.628906 Z M 95.097656 63.351562 L 95.097656 66.613281 L 94.289062 66.503906 L 94.289062 63.125 Z M 95.097656 67.65625 L 95.097656 70.851562 L 94.289062 70.859375 L 94.289062 67.546875 Z M 95.097656 71.886719 L 95.097656 75 L 94.289062 75.121094 L 94.289062 71.898438 Z M 95.097656 76.046875 L 95.097656 79.058594 L 94.289062 79.289062 L 94.289062 76.171875 Z M 95.097656 80.132812 L 95.097656 83.023438 L 94.289062 83.367188 L 94.289062 80.367188 Z M 95.097656 84.148438 L 95.097656 86.910156 L 94.289062 87.359375 L 94.289062 84.488281 Z M 95.097656 88.089844 L 95.097656 90.707031 L 94.289062 91.257812 L 94.289062 88.535156 Z M 95.097656 91.960938 L 95.097656 94.433594 L 94.289062 95.09375 L 94.289062 92.515625 Z M 95.097656 95.769531 L 95.097656 98.085938 L 94.289062 98.84375 L 94.289062 96.425781 Z M 95.09375 99.5 L 95.09375 101.65625 L 94.285156 102.507812 L 94.285156 100.253906 Z M 95.09375 103.160156 L 95.09375 105.15625 L 94.285156 106.109375 L 94.285156 104.015625 Z M 95.09375 106.757812 L 95.09375 108.585938 L 94.285156 109.636719 L 94.285156 107.707031 Z M 95.09375 110.285156 L 95.09375 111.453125 L 94.285156 112.597656 L 94.285156 111.328125 Z M 96.242188 112.121094 L 99.128906 112.121094 L 98.191406 113.6875 L 95.128906 113.6875 Z M 100.34375 112.121094 L 103.554688 112.121094 L 102.785156 113.6875 L 99.40625 113.6875 Z M 104.710938 112.121094 L 107.882812 112.121094 L 107.273438 113.6875 L 103.933594 113.6875 Z M 109 112.121094 L 112.128906 112.121094 L 111.679688 113.6875 L 108.386719 113.6875 Z M 113.207031 112.121094 L 116.28125 112.121094 L 115.984375 113.6875 L 112.757812 113.6875 Z M 117.332031 112.121094 L 120.34375 112.121094 L 120.203125 113.6875 L 117.035156 113.6875 Z M 121.386719 112.121094 L 124.324219 112.121094 L 124.335938 113.6875 L 121.242188 113.6875 Z M 125.367188 112.121094 L 128.226562 112.121094 L 128.382812 113.6875 L 125.371094 113.6875 Z M 129.269531 112.121094 L 132.046875 112.121094 L 132.347656 113.6875 L 129.425781 113.6875 Z M 133.105469 112.121094 L 135.789062 112.121094 L 136.230469 113.6875 L 133.40625 113.6875 Z M 136.863281 112.121094 L 139.449219 112.121094 L 140.027344 113.6875 L 137.304688 113.6875 Z M 140.558594 112.121094 L 143.039062 112.121094 L 143.753906 113.6875 L 141.136719 113.6875 Z M 144.179688 112.121094 L 146.554688 112.121094 L 147.40625 113.6875 L 144.894531 113.6875 Z M 147.730469 112.121094 L 149.996094 112.121094 L 150.976562 113.6875 L 148.582031 113.6875 Z M 151.21875 112.121094 L 152.917969 112.121094 L 154.035156 113.6875 L 152.199219 113.6875 Z M 154.070312 111.320312 L 154.070312 110.285156 L 154.878906 111.332031 L 154.878906 112.464844 Z M 154.070312 108.59375 L 154.070312 106.761719 L 154.878906 107.714844 L 154.878906 109.640625 Z M 154.070312 105.15625 L 154.070312 103.160156 L 154.878906 104.015625 L 154.878906 106.109375 Z M 154.070312 101.65625 L 154.070312 99.5 L 154.878906 100.253906 L 154.878906 102.507812 Z M 154.070312 98.082031 L 154.070312 95.765625 L 154.878906 96.421875 L 154.878906 98.835938 Z M 154.070312 94.433594 L 154.070312 91.960938 L 154.878906 92.515625 L 154.878906 95.09375 Z M 154.070312 90.710938 L 154.070312 88.089844 L 154.878906 88.539062 L 154.878906 91.265625 Z M 154.070312 86.910156 L 154.070312 84.148438 L 154.878906 84.488281 L 154.878906 87.359375 Z M 154.070312 83.023438 L 154.070312 80.132812 L 154.878906 80.367188 L 154.878906 83.367188 Z M 154.070312 79.058594 L 154.070312 76.046875 L 154.878906 76.164062 L 154.878906 79.285156 Z M 154.070312 74.996094 L 154.070312 71.882812 L 154.878906 71.886719 L 154.878906 75.109375 Z M 154.070312 70.851562 L 154.070312 67.65625 L 154.878906 67.546875 L 154.878906 70.859375 Z M 154.070312 66.613281 L 154.070312 63.351562 L 154.878906 63.125 L 154.878906 66.503906 Z M 155.914062 62.839844 L 156.972656 62.546875 L 156.972656 66.230469 L 155.914062 66.367188 Z M 155.914062 61.765625 L 155.914062 58.1875 L 156.972656 57.730469 L 156.972656 61.464844 Z M 155.914062 57.0625 L 155.914062 53.503906 L 156.972656 52.890625 L 156.972656 56.609375 Z M 155.242188 52.644531 L 153.632812 52.644531 L 153.902344 52.46875 L 155.542969 52.46875 Z M 151.746094 52.644531 L 149.804688 52.644531 L 150.039062 52.46875 L 152.015625 52.46875 Z M 148.09375 52.644531 L 145.90625 52.644531 L 146.105469 52.46875 L 148.328125 52.46875 Z M 146.726562 53.679688 L 146.683594 53.710938 L 144.71875 53.710938 L 144.757812 53.679688 Z M 143.171875 53.710938 L 140.972656 53.710938 L 141.003906 53.679688 L 143.207031 53.679688 Z M 139.578125 53.710938 L 137.164062 53.710938 L 137.183594 53.679688 L 139.609375 53.679688 Z M 135.902344 53.710938 L 133.285156 53.710938 L 133.300781 53.679688 L 135.925781 53.679688 Z M 132.140625 53.710938 L 129.351562 53.710938 L 129.355469 53.679688 L 132.152344 53.679688 Z M 128.289062 53.710938 L 125.371094 53.710938 L 125.371094 53.679688 L 128.300781 53.679688 Z M 124.328125 53.710938 L 121.328125 53.710938 L 121.324219 53.679688 L 124.335938 53.679688 Z M 120.265625 53.710938 L 117.234375 53.710938 L 117.21875 53.679688 L 120.253906 53.679688 Z M 116.09375 53.710938 L 113.082031 53.710938 L 113.0625 53.679688 L 116.078125 53.679688 Z M 111.816406 53.710938 L 108.867188 53.710938 L 108.835938 53.679688 L 111.796875 53.679688 Z M 107.4375 53.710938 L 104.578125 53.710938 L 104.539062 53.679688 L 107.40625 53.679688 Z M 102.953125 53.710938 L 100.207031 53.710938 L 100.160156 53.679688 L 102.914062 53.679688 Z M 98.378906 53.710938 L 95.765625 53.710938 L 95.707031 53.679688 L 98.332031 53.679688 Z M 93.253906 53.453125 L 93.253906 57.0625 L 92.195312 56.609375 L 92.195312 52.835938 Z M 93.253906 58.191406 L 93.253906 61.769531 L 92.195312 61.476562 L 92.195312 57.742188 Z M 93.253906 62.839844 L 93.253906 66.367188 L 92.195312 66.230469 L 92.195312 62.546875 Z M 93.253906 67.414062 L 93.253906 70.875 L 92.195312 70.882812 L 92.195312 67.273438 Z M 93.253906 71.902344 L 93.253906 75.277344 L 92.195312 75.4375 L 92.195312 71.917969 Z M 93.253906 76.320312 L 93.253906 79.585938 L 92.195312 79.890625 L 92.195312 76.480469 Z M 93.253906 80.660156 L 93.253906 83.800781 L 92.195312 84.246094 L 92.195312 80.960938 Z M 93.253906 84.921875 L 93.253906 87.929688 L 92.195312 88.511719 L 92.195312 85.367188 Z M 93.253906 89.113281 L 93.253906 91.972656 L 92.195312 92.695312 L 92.195312 89.703125 Z M 93.246094 93.226562 L 93.246094 95.929688 L 92.191406 96.789062 L 92.191406 93.949219 Z M 93.246094 97.265625 L 93.246094 99.808594 L 92.191406 100.796875 L 92.191406 98.117188 Z M 93.246094 101.226562 L 93.246094 103.609375 L 92.183594 104.734375 L 92.183594 102.21875 Z M 93.246094 105.117188 L 93.246094 107.335938 L 92.183594 108.582031 L 92.183594 106.238281 Z M 93.246094 108.929688 L 93.246094 110.976562 L 92.183594 112.347656 L 92.183594 110.175781 Z M 93.246094 112.671875 L 93.246094 114.066406 L 92.183594 115.566406 L 92.183594 114.050781 Z M 94.398438 114.726562 L 97.574219 114.726562 L 96.425781 116.652344 L 93.035156 116.652344 Z M 98.78125 114.726562 L 102.269531 114.726562 L 101.320312 116.652344 L 97.632812 116.652344 Z M 103.425781 114.726562 L 106.875 114.726562 L 106.121094 116.652344 L 102.476562 116.652344 Z M 107.980469 114.726562 L 111.378906 114.726562 L 110.824219 116.652344 L 107.230469 116.652344 Z M 112.457031 114.726562 L 115.789062 114.726562 L 115.425781 116.652344 L 111.902344 116.652344 Z M 116.84375 114.726562 L 120.109375 114.726562 L 119.933594 116.652344 L 116.476562 116.652344 Z M 121.152344 114.726562 L 124.34375 114.726562 L 124.355469 116.652344 L 120.980469 116.652344 Z M 125.375 114.726562 L 128.488281 114.726562 L 128.679688 116.652344 L 125.386719 116.652344 Z M 129.527344 114.726562 L 132.542969 114.726562 L 132.914062 116.652344 L 129.71875 116.652344 Z M 133.601562 114.726562 L 136.519531 114.726562 L 137.058594 116.652344 L 133.964844 116.652344 Z M 137.597656 114.726562 L 140.414062 114.726562 L 141.121094 116.652344 L 138.136719 116.652344 Z M 141.523438 114.726562 L 144.234375 114.726562 L 145.113281 116.652344 L 142.238281 116.652344 Z M 145.367188 114.726562 L 147.964844 114.726562 L 149.007812 116.652344 L 146.242188 116.652344 Z M 149.144531 114.726562 L 151.628906 114.726562 L 152.832031 116.652344 L 150.1875 116.652344 Z M 152.847656 114.726562 L 154.765625 114.726562 L 156.128906 116.652344 L 154.042969 116.652344 Z M 155.921875 113.929688 L 155.921875 112.671875 L 156.984375 114.042969 L 156.984375 115.425781 Z M 155.921875 110.980469 L 155.921875 108.933594 L 156.976562 110.179688 L 156.976562 112.351562 Z M 155.921875 107.332031 L 155.921875 105.113281 L 156.976562 106.230469 L 156.976562 108.570312 Z M 155.921875 103.605469 L 155.921875 101.222656 L 156.976562 102.210938 L 156.976562 104.722656 Z M 155.914062 99.808594 L 155.914062 97.265625 L 156.972656 98.125 L 156.972656 100.800781 Z M 155.914062 95.929688 L 155.914062 93.226562 L 156.972656 93.949219 L 156.972656 96.789062 Z M 155.914062 91.972656 L 155.914062 89.113281 L 156.972656 89.695312 L 156.972656 92.691406 Z M 155.914062 87.929688 L 155.914062 84.921875 L 156.972656 85.367188 L 156.972656 88.511719 Z M 155.914062 83.800781 L 155.914062 80.660156 L 156.972656 80.964844 L 156.972656 84.25 Z M 155.914062 79.585938 L 155.914062 76.320312 L 156.972656 76.480469 L 156.972656 79.890625 Z M 155.914062 75.277344 L 155.914062 71.902344 L 156.972656 71.914062 L 156.972656 75.429688 Z M 155.914062 70.867188 L 155.914062 67.410156 L 156.972656 67.269531 L 156.972656 70.878906 Z M 158.007812 67.128906 L 159.371094 66.949219 L 159.371094 70.898438 L 158.007812 70.890625 Z M 158.007812 66.089844 L 158.007812 62.257812 L 159.371094 61.875 L 159.371094 65.902344 Z M 158.007812 61.179688 L 158.007812 57.289062 L 159.371094 56.707031 L 159.371094 60.796875 Z M 158.007812 56.167969 L 158.007812 52.292969 L 159.371094 51.503906 L 159.371094 55.585938 Z M 157.332031 51.4375 L 155.480469 51.4375 L 156.019531 51.082031 L 157.9375 51.082031 Z M 153.59375 51.4375 L 151.40625 51.4375 L 151.871094 51.082031 L 154.132812 51.082031 Z M 149.691406 51.4375 L 147.253906 51.4375 L 147.648438 51.082031 L 150.15625 51.082031 Z M 145.703125 51.4375 L 143.023438 51.4375 L 143.339844 51.082031 L 146.09375 51.082031 Z M 144.554688 52.46875 L 144.355469 52.644531 L 141.929688 52.644531 L 142.09375 52.46875 Z M 140.535156 52.644531 L 137.886719 52.644531 L 138.007812 52.46875 L 140.699219 52.46875 Z M 136.632812 52.644531 L 133.785156 52.644531 L 133.867188 52.46875 L 136.757812 52.46875 Z M 132.636719 52.644531 L 129.609375 52.644531 L 129.652344 52.46875 L 132.722656 52.46875 Z M 128.542969 52.644531 L 125.375 52.644531 L 125.375 52.46875 L 128.578125 52.46875 Z M 124.34375 52.644531 L 121.09375 52.644531 L 121.054688 52.46875 L 124.34375 52.46875 Z M 120.03125 52.644531 L 116.746094 52.644531 L 116.664062 52.46875 L 119.992188 52.46875 Z M 115.605469 52.644531 L 112.335938 52.644531 L 112.210938 52.46875 L 115.523438 52.46875 Z M 111.066406 52.644531 L 107.851562 52.644531 L 107.6875 52.46875 L 110.945312 52.46875 Z M 106.421875 52.644531 L 103.292969 52.644531 L 103.078125 52.46875 L 106.25 52.46875 Z M 101.675781 52.644531 L 98.652344 52.644531 L 98.394531 52.46875 L 101.460938 52.46875 Z M 96.816406 52.644531 L 93.925781 52.644531 L 93.621094 52.46875 L 96.558594 52.46875 Z M 91.15625 52.242188 L 91.15625 56.167969 L 89.796875 55.585938 L 89.796875 51.449219 Z M 91.15625 57.289062 L 91.15625 61.179688 L 89.796875 60.796875 L 89.796875 56.707031 Z M 91.15625 62.257812 L 91.15625 66.089844 L 89.796875 65.910156 L 89.796875 61.878906 Z M 91.15625 67.128906 L 91.15625 70.882812 L 89.796875 70.894531 L 89.796875 66.941406 Z M 91.15625 71.925781 L 91.15625 75.585938 L 89.796875 75.789062 L 89.796875 71.933594 Z M 91.15625 76.632812 L 91.15625 80.183594 L 89.796875 80.574219 L 89.796875 76.832031 Z M 91.152344 81.261719 L 91.152344 84.683594 L 89.789062 85.257812 L 89.789062 81.652344 Z M 91.152344 85.808594 L 91.152344 89.09375 L 89.789062 89.847656 L 89.789062 86.386719 Z M 91.152344 90.269531 L 91.152344 93.402344 L 89.789062 94.332031 L 89.789062 91.027344 Z M 91.152344 94.65625 L 91.152344 97.632812 L 89.789062 98.738281 L 89.789062 95.59375 Z M 91.152344 98.960938 L 91.152344 101.769531 L 89.789062 103.042969 L 89.789062 100.066406 Z M 91.152344 103.1875 L 91.152344 105.824219 L 89.789062 107.269531 L 89.789062 104.464844 Z M 91.152344 107.332031 L 91.152344 109.796875 L 89.789062 111.402344 L 89.789062 108.769531 Z M 91.148438 111.394531 L 91.148438 113.691406 L 89.785156 115.457031 L 89.785156 113 Z M 91.148438 115.390625 L 91.148438 117.027344 L 89.785156 118.957031 L 89.785156 117.152344 Z M 92.296875 117.6875 L 95.800781 117.6875 L 94.390625 120.039062 L 90.628906 120.039062 Z M 97.007812 117.6875 L 100.808594 117.6875 L 99.648438 120.039062 L 95.601562 120.039062 Z M 101.964844 117.6875 L 105.71875 117.6875 L 104.800781 120.039062 L 100.804688 120.039062 Z M 106.828125 117.6875 L 110.523438 117.6875 L 109.84375 120.039062 L 105.910156 120.039062 Z M 111.601562 117.6875 L 115.226562 117.6875 L 114.78125 120.039062 L 110.921875 120.039062 Z M 116.285156 117.6875 L 119.839844 117.6875 L 119.628906 120.039062 L 115.839844 120.039062 Z M 120.882812 117.6875 L 124.355469 117.6875 L 124.367188 120.039062 L 120.664062 120.039062 Z M 125.390625 117.6875 L 128.777344 117.6875 L 129.011719 120.039062 L 125.402344 120.039062 Z M 129.824219 117.6875 L 133.113281 117.6875 L 133.566406 120.039062 L 130.0625 120.039062 Z M 134.167969 117.6875 L 137.355469 117.6875 L 138.019531 120.039062 L 134.617188 120.039062 Z M 138.433594 117.6875 L 141.511719 117.6875 L 142.382812 120.039062 L 139.097656 120.039062 Z M 142.617188 117.6875 L 145.582031 117.6875 L 146.652344 120.039062 L 143.480469 120.039062 Z M 146.71875 117.6875 L 149.570312 117.6875 L 150.847656 120.039062 L 147.796875 120.039062 Z M 150.746094 117.6875 L 153.472656 117.6875 L 154.945312 120.039062 L 152.023438 120.039062 Z M 154.695312 117.6875 L 156.867188 117.6875 L 158.539062 120.039062 L 156.167969 120.039062 Z M 158.015625 116.894531 L 158.015625 115.390625 L 159.378906 117.152344 L 159.378906 118.824219 Z M 158.015625 113.691406 L 158.015625 111.394531 L 159.378906 113 L 159.378906 115.457031 Z M 158.015625 109.796875 L 158.015625 107.332031 L 159.378906 108.773438 L 159.378906 111.40625 Z M 158.015625 105.824219 L 158.015625 103.1875 L 159.378906 104.460938 L 159.378906 107.261719 Z M 158.015625 101.765625 L 158.015625 98.957031 L 159.378906 100.0625 L 159.378906 103.039062 Z M 158.015625 97.625 L 158.015625 94.652344 L 159.378906 95.582031 L 159.378906 98.726562 Z M 158.015625 93.402344 L 158.015625 90.269531 L 159.378906 91.027344 L 159.378906 94.332031 Z M 158.015625 89.085938 L 158.015625 85.800781 L 159.378906 86.375 L 159.378906 89.835938 Z M 158.007812 84.683594 L 158.007812 81.261719 L 159.371094 81.648438 L 159.371094 85.253906 Z M 158.007812 80.183594 L 158.007812 76.632812 L 159.371094 76.832031 L 159.371094 80.574219 Z M 158.007812 75.585938 L 158.007812 71.925781 L 159.371094 71.933594 L 159.371094 75.789062 Z M 160.410156 71.945312 L 162.144531 71.960938 L 162.144531 76.203125 L 160.410156 75.941406 Z M 160.410156 70.910156 L 160.410156 66.808594 L 162.144531 66.574219 L 162.144531 70.925781 Z M 160.410156 65.769531 L 160.410156 61.589844 L 162.144531 61.101562 L 162.144531 65.535156 Z M 160.402344 60.507812 L 160.402344 56.261719 L 162.140625 55.515625 L 162.140625 60.015625 Z M 160.402344 55.140625 L 160.402344 50.898438 L 162.140625 49.890625 L 162.140625 54.394531 Z M 159.726562 50.050781 L 157.601562 50.050781 L 158.464844 49.480469 L 160.703125 49.480469 Z M 155.707031 50.050781 L 153.234375 50.050781 L 153.988281 49.480469 L 156.574219 49.480469 Z M 151.519531 50.050781 L 148.792969 50.050781 L 149.425781 49.480469 L 152.273438 49.480469 Z M 147.25 50.050781 L 144.273438 50.050781 L 144.789062 49.480469 L 147.882812 49.480469 Z M 142.878906 50.050781 L 139.671875 50.050781 L 140.058594 49.480469 L 143.394531 49.480469 Z M 141.945312 51.082031 L 141.628906 51.4375 L 138.722656 51.4375 L 138.964844 51.082031 Z M 137.464844 51.4375 L 134.34375 51.4375 L 134.507812 51.082031 L 137.707031 51.082031 Z M 133.203125 51.4375 L 129.902344 51.4375 L 129.984375 51.082031 L 133.363281 51.082031 Z M 128.832031 51.4375 L 125.390625 51.4375 L 125.398438 51.082031 L 128.921875 51.082031 Z M 124.355469 51.4375 L 120.820312 51.4375 L 120.742188 51.082031 L 124.359375 51.082031 Z M 119.761719 51.4375 L 116.191406 51.4375 L 116.03125 51.082031 L 119.691406 51.082031 Z M 115.046875 51.4375 L 111.480469 51.4375 L 111.230469 51.082031 L 114.882812 51.082031 Z M 110.214844 51.4375 L 106.703125 51.4375 L 106.363281 51.082031 L 109.96875 51.082031 Z M 105.273438 51.4375 L 101.835938 51.4375 L 101.410156 51.082031 L 104.933594 51.082031 Z M 100.210938 51.4375 L 96.878906 51.4375 L 96.367188 51.082031 L 99.792969 51.082031 Z M 95.046875 51.4375 L 91.832031 51.4375 L 91.226562 51.082031 L 94.53125 51.082031 Z M 88.761719 50.851562 L 88.761719 55.140625 L 87.027344 54.394531 L 87.027344 49.84375 Z M 88.761719 56.265625 L 88.761719 60.511719 L 87.027344 60.027344 L 87.027344 55.527344 Z M 88.757812 61.585938 L 88.757812 65.761719 L 87.023438 65.53125 L 87.023438 61.097656 Z M 88.757812 66.808594 L 88.757812 70.910156 L 87.023438 70.925781 L 87.023438 66.574219 Z M 88.757812 71.945312 L 88.757812 75.941406 L 87.023438 76.203125 L 87.023438 71.960938 Z M 88.757812 76.988281 L 88.757812 80.867188 L 87.023438 81.363281 L 87.023438 77.242188 Z M 88.753906 81.949219 L 88.753906 85.695312 L 87.015625 86.429688 L 87.015625 82.445312 Z M 88.753906 86.816406 L 88.753906 90.417969 L 87.015625 91.378906 L 87.015625 87.550781 Z M 88.753906 91.601562 L 88.753906 95.039062 L 87.011719 96.230469 L 87.011719 92.5625 Z M 88.753906 96.296875 L 88.753906 99.578125 L 87.011719 100.984375 L 87.011719 97.488281 Z M 88.753906 100.90625 L 88.753906 104.007812 L 87.011719 105.632812 L 87.011719 102.3125 Z M 88.753906 105.425781 L 88.753906 108.359375 L 87.011719 110.195312 L 87.011719 107.050781 Z M 88.746094 109.863281 L 88.746094 112.621094 L 87.007812 114.671875 L 87.007812 111.707031 Z M 88.746094 114.21875 L 88.746094 116.796875 L 87.007812 119.046875 L 87.007812 116.261719 Z M 88.746094 118.492188 L 88.746094 120.421875 L 87.007812 122.882812 L 87.007812 120.742188 Z M 89.894531 121.070312 L 93.769531 121.070312 L 92.039062 123.953125 L 87.847656 123.953125 Z M 94.976562 121.070312 L 99.140625 121.070312 L 97.714844 123.953125 L 93.253906 123.953125 Z M 100.296875 121.070312 L 104.402344 121.070312 L 103.277344 123.953125 L 98.875 123.953125 Z M 105.511719 121.070312 L 109.546875 121.070312 L 108.71875 123.953125 L 104.386719 123.953125 Z M 110.625 121.070312 L 114.589844 121.070312 L 114.046875 123.953125 L 109.792969 123.953125 Z M 115.648438 121.070312 L 119.535156 121.070312 L 119.277344 123.953125 L 115.109375 123.953125 Z M 120.578125 121.070312 L 124.375 121.070312 L 124.390625 123.953125 L 120.316406 123.953125 Z M 125.414062 121.070312 L 129.117188 121.070312 L 129.402344 123.953125 L 125.429688 123.953125 Z M 130.15625 121.070312 L 133.757812 121.070312 L 134.308594 123.953125 L 130.441406 123.953125 Z M 134.816406 121.070312 L 138.308594 121.070312 L 139.121094 123.953125 L 135.371094 123.953125 Z M 139.386719 121.070312 L 142.765625 121.070312 L 143.832031 123.953125 L 140.199219 123.953125 Z M 143.871094 121.070312 L 147.128906 121.070312 L 148.445312 123.953125 L 144.9375 123.953125 Z M 148.265625 121.070312 L 151.402344 121.070312 L 152.964844 123.953125 L 149.582031 123.953125 Z M 152.582031 121.070312 L 155.59375 121.070312 L 157.398438 123.953125 L 154.148438 123.953125 Z M 156.816406 121.070312 L 159.273438 121.070312 L 161.320312 123.953125 L 158.621094 123.953125 Z M 160.417969 120.292969 L 160.417969 118.496094 L 162.160156 120.746094 L 162.160156 122.753906 Z M 160.417969 116.800781 L 160.417969 114.226562 L 162.160156 116.273438 L 162.160156 119.054688 Z M 160.414062 112.621094 L 160.414062 109.863281 L 162.15625 111.707031 L 162.15625 114.671875 Z M 160.414062 108.359375 L 160.414062 105.425781 L 162.15625 107.050781 L 162.15625 110.195312 Z M 160.414062 104.007812 L 160.414062 100.90625 L 162.15625 102.3125 L 162.15625 105.632812 Z M 160.414062 99.570312 L 160.414062 96.292969 L 162.15625 97.480469 L 162.15625 100.976562 Z M 160.414062 95.039062 L 160.414062 91.601562 L 162.15625 92.5625 L 162.15625 96.230469 Z M 160.414062 90.417969 L 160.414062 86.816406 L 162.152344 87.550781 L 162.152344 91.378906 Z M 160.410156 85.695312 L 160.410156 81.949219 L 162.144531 82.445312 L 162.144531 86.429688 Z M 160.410156 80.871094 L 160.410156 76.992188 L 162.144531 77.25 L 162.144531 81.375 Z M 163.183594 77.402344 L 165.390625 77.734375 L 165.390625 82.300781 L 163.183594 81.667969 Z M 163.183594 76.355469 L 163.183594 71.96875 L 165.390625 71.992188 L 165.390625 76.6875 Z M 163.183594 70.9375 L 163.183594 66.441406 L 165.390625 66.144531 L 165.390625 70.957031 Z M 163.183594 65.394531 L 163.183594 60.808594 L 165.390625 60.191406 L 165.390625 65.101562 Z M 163.175781 59.738281 L 163.175781 55.082031 L 165.382812 54.136719 L 165.382812 59.121094 Z M 163.175781 53.953125 L 163.175781 49.292969 L 165.382812 48.015625 L 165.382812 53.011719 Z M 162.488281 48.445312 L 160.035156 48.445312 L 161.316406 47.601562 L 163.933594 47.601562 Z M 158.152344 48.445312 L 155.355469 48.445312 L 156.464844 47.601562 L 159.433594 47.601562 Z M 153.640625 48.445312 L 150.582031 48.445312 L 151.519531 47.601562 L 154.753906 47.601562 Z M 149.03125 48.445312 L 145.71875 48.445312 L 146.476562 47.601562 L 149.964844 47.601562 Z M 144.324219 48.445312 L 140.769531 48.445312 L 141.34375 47.601562 L 145.082031 47.601562 Z M 139.515625 48.445312 L 135.738281 48.445312 L 136.132812 47.601562 L 140.097656 47.601562 Z M 138.804688 49.480469 L 138.417969 50.050781 L 134.992188 50.050781 L 135.253906 49.480469 Z M 133.847656 50.050781 L 130.234375 50.050781 L 130.367188 49.480469 L 134.105469 49.480469 Z M 129.171875 50.050781 L 125.414062 50.050781 L 125.417969 49.480469 L 129.304688 49.480469 Z M 124.375 50.050781 L 120.519531 50.050781 L 120.394531 49.480469 L 124.386719 49.480469 Z M 119.453125 50.050781 L 115.550781 50.050781 L 115.285156 49.480469 L 119.324219 49.480469 Z M 114.410156 50.050781 L 110.507812 50.050781 L 110.105469 49.480469 L 114.144531 49.480469 Z M 109.242188 50.050781 L 105.378906 50.050781 L 104.839844 49.480469 L 108.84375 49.480469 Z M 103.949219 50.050781 L 100.160156 50.050781 L 99.476562 49.480469 L 103.40625 49.480469 Z M 98.542969 50.050781 L 94.855469 50.050781 L 94.019531 49.480469 L 97.855469 49.480469 Z M 93.019531 50.050781 L 89.441406 50.050781 L 88.464844 49.480469 L 92.191406 49.480469 Z M 85.992188 49.242188 L 85.992188 53.949219 L 83.78125 53.003906 L 83.78125 47.960938 Z M 85.992188 55.078125 L 85.992188 59.730469 L 83.78125 59.117188 L 83.78125 54.128906 Z M 85.984375 60.808594 L 85.984375 65.394531 L 83.777344 65.101562 L 83.777344 60.191406 Z M 85.984375 66.441406 L 85.984375 70.9375 L 83.777344 70.957031 L 83.777344 66.144531 Z M 85.984375 71.96875 L 85.984375 76.355469 L 83.777344 76.6875 L 83.777344 71.992188 Z M 85.980469 77.402344 L 85.980469 81.664062 L 83.773438 82.296875 L 83.773438 77.726562 Z M 85.980469 82.746094 L 85.980469 86.867188 L 83.773438 87.796875 L 83.773438 83.382812 Z M 85.980469 87.984375 L 85.980469 91.953125 L 83.773438 93.171875 L 83.773438 88.917969 Z M 85.980469 93.136719 L 85.980469 96.9375 L 83.765625 98.449219 L 83.765625 94.363281 Z M 85.976562 98.191406 L 85.976562 101.820312 L 83.761719 103.609375 L 83.761719 99.699219 Z M 85.976562 103.152344 L 85.976562 106.601562 L 83.761719 108.671875 L 83.761719 104.941406 Z M 85.976562 108.023438 L 85.976562 111.292969 L 83.761719 113.628906 L 83.761719 110.085938 Z M 85.96875 112.804688 L 85.96875 115.890625 L 83.757812 118.492188 L 83.757812 115.140625 Z M 85.96875 117.488281 L 85.96875 120.394531 L 83.757812 123.257812 L 83.757812 120.089844 Z M 85.96875 122.085938 L 85.96875 124.351562 L 83.757812 127.484375 L 83.757812 124.953125 Z M 87.109375 124.988281 L 91.417969 124.988281 L 89.285156 128.542969 L 84.585938 128.542969 Z M 92.628906 124.988281 L 97.207031 124.988281 L 95.453125 128.542969 L 90.503906 128.542969 Z M 98.355469 124.988281 L 102.867188 124.988281 L 101.484375 128.542969 L 96.605469 128.542969 Z M 103.980469 124.988281 L 108.417969 124.988281 L 107.398438 128.542969 L 102.597656 128.542969 Z M 109.496094 124.988281 L 113.855469 124.988281 L 113.1875 128.542969 L 108.476562 128.542969 Z M 114.90625 124.988281 L 119.175781 124.988281 L 118.855469 128.542969 L 114.238281 128.542969 Z M 120.21875 124.988281 L 124.390625 124.988281 L 124.414062 128.542969 L 119.898438 128.542969 Z M 125.433594 124.988281 L 129.507812 124.988281 L 129.859375 128.542969 L 125.453125 128.542969 Z M 130.542969 124.988281 L 134.507812 124.988281 L 135.1875 128.542969 L 130.898438 128.542969 Z M 135.566406 124.988281 L 139.414062 124.988281 L 140.414062 128.542969 L 136.246094 128.542969 Z M 140.492188 124.988281 L 144.21875 124.988281 L 145.535156 128.542969 L 141.496094 128.542969 Z M 145.320312 124.988281 L 148.921875 124.988281 L 150.546875 128.542969 L 146.636719 128.542969 Z M 150.058594 124.988281 L 153.53125 124.988281 L 155.453125 128.542969 L 151.679688 128.542969 Z M 154.707031 124.988281 L 158.046875 124.988281 L 160.269531 128.542969 L 156.636719 128.542969 Z M 159.269531 124.988281 L 162.050781 124.988281 L 164.570312 128.542969 L 161.488281 128.542969 Z M 163.199219 124.21875 L 163.199219 122.085938 L 165.410156 124.953125 L 165.410156 127.347656 Z M 163.199219 120.394531 L 163.199219 117.496094 L 165.410156 120.097656 L 165.410156 123.261719 Z M 163.191406 115.890625 L 163.191406 112.804688 L 165.40625 115.140625 L 165.40625 118.492188 Z M 163.191406 111.292969 L 163.191406 108.023438 L 165.40625 110.09375 L 165.40625 113.636719 Z M 163.191406 106.605469 L 163.191406 103.15625 L 165.40625 104.945312 L 165.40625 108.675781 Z M 163.191406 101.820312 L 163.191406 98.191406 L 165.40625 99.699219 L 165.40625 103.609375 Z M 163.1875 96.9375 L 163.1875 93.136719 L 165.398438 94.359375 L 165.398438 98.445312 Z M 163.1875 91.953125 L 163.1875 87.984375 L 165.394531 88.917969 L 165.394531 93.171875 Z M 163.1875 86.863281 L 163.1875 82.738281 L 165.394531 83.371094 L 165.394531 87.789062 Z M 166.429688 83.671875 L 169.242188 84.476562 L 169.242188 89.414062 L 166.425781 88.226562 Z M 166.429688 82.59375 L 166.429688 77.886719 L 169.242188 78.308594 L 169.242188 83.402344 Z M 166.425781 76.84375 L 166.425781 72 L 169.234375 72.027344 L 169.234375 77.261719 Z M 166.425781 70.96875 L 166.425781 66.007812 L 169.234375 65.628906 L 169.234375 70.992188 Z M 166.425781 64.960938 L 166.425781 59.902344 L 169.234375 59.117188 L 169.234375 64.585938 Z M 166.421875 58.828125 L 166.421875 53.691406 L 169.230469 52.492188 L 169.230469 58.046875 Z M 166.421875 52.5625 L 166.421875 47.410156 L 169.230469 45.78125 L 169.230469 51.363281 Z M 165.726562 46.566406 L 162.902344 46.566406 L 164.714844 45.378906 L 167.777344 45.378906 Z M 161.011719 46.566406 L 157.832031 46.566406 L 159.402344 45.378906 L 162.824219 45.378906 Z M 156.117188 46.566406 L 152.671875 46.566406 L 153.996094 45.378906 L 157.691406 45.378906 Z M 151.121094 46.566406 L 147.410156 46.566406 L 148.484375 45.378906 L 152.441406 45.378906 Z M 146.015625 46.566406 L 142.054688 46.566406 L 142.871094 45.378906 L 147.082031 45.378906 Z M 140.800781 46.566406 L 136.609375 46.566406 L 137.164062 45.378906 L 141.613281 45.378906 Z M 135.46875 46.566406 L 131.074219 46.566406 L 131.359375 45.378906 L 136.015625 45.378906 Z M 134.984375 47.601562 L 134.59375 48.445312 L 130.621094 48.445312 L 130.824219 47.601562 Z M 129.554688 48.445312 L 125.429688 48.445312 L 125.4375 47.601562 L 129.757812 47.601562 Z M 124.390625 48.445312 L 120.15625 48.445312 L 119.96875 47.601562 L 124.398438 47.601562 Z M 119.101562 48.445312 L 114.8125 48.445312 L 114.425781 47.601562 L 118.914062 47.601562 Z M 113.671875 48.445312 L 109.382812 48.445312 L 108.789062 47.601562 L 113.285156 47.601562 Z M 108.113281 48.445312 L 103.855469 48.445312 L 103.058594 47.601562 L 107.527344 47.601562 Z M 102.425781 48.445312 L 98.234375 48.445312 L 97.222656 47.601562 L 101.628906 47.601562 Z M 96.617188 48.445312 L 92.511719 48.445312 L 91.28125 47.601562 L 95.605469 47.601562 Z M 90.675781 48.445312 L 86.675781 48.445312 L 85.222656 47.601562 L 89.441406 47.601562 Z M 82.746094 47.363281 L 82.746094 52.5625 L 79.9375 51.363281 L 79.9375 45.734375 Z M 82.746094 53.691406 L 82.746094 58.828125 L 79.9375 58.039062 L 79.9375 52.484375 Z M 82.742188 59.902344 L 82.742188 64.960938 L 79.929688 64.585938 L 79.929688 59.117188 Z M 82.742188 66.007812 L 82.742188 70.96875 L 79.929688 70.992188 L 79.929688 65.628906 Z M 82.742188 72 L 82.742188 76.84375 L 79.929688 77.261719 L 79.929688 72.027344 Z M 82.734375 77.886719 L 82.734375 82.59375 L 79.921875 83.402344 L 79.921875 78.308594 Z M 82.734375 83.671875 L 82.734375 88.226562 L 79.921875 89.414062 L 79.921875 84.476562 Z M 82.730469 94.933594 L 82.730469 99.152344 L 79.917969 101.078125 L 79.917969 96.488281 Z M 82.730469 100.410156 L 82.730469 104.453125 L 79.917969 106.734375 L 79.917969 102.332031 Z M 82.726562 105.785156 L 82.726562 109.640625 L 79.910156 112.273438 L 79.910156 108.066406 Z M 82.726562 111.058594 L 82.726562 114.726562 L 79.910156 117.703125 L 79.910156 113.6875 Z M 82.726562 116.230469 L 82.726562 119.707031 L 79.910156 123.019531 L 79.910156 119.203125 Z M 82.71875 121.3125 L 82.71875 124.597656 L 79.902344 128.242188 L 79.902344 124.628906 Z M 82.71875 126.292969 L 82.71875 128.945312 L 79.902344 132.929688 L 79.902344 129.933594 Z M 83.855469 129.574219 L 88.671875 129.574219 L 86.03125 133.972656 L 80.730469 133.972656 Z M 89.882812 129.574219 L 94.941406 129.574219 L 92.769531 133.972656 L 87.246094 133.972656 Z M 96.097656 129.574219 L 101.082031 129.574219 L 99.367188 133.972656 L 93.925781 133.972656 Z M 102.191406 129.574219 L 107.097656 129.574219 L 105.824219 133.972656 L 100.476562 133.972656 Z M 108.175781 129.574219 L 112.988281 129.574219 L 112.160156 133.972656 L 106.902344 133.972656 Z M 114.046875 129.574219 L 118.761719 129.574219 L 118.363281 133.972656 L 113.21875 133.972656 Z M 119.804688 129.574219 L 124.417969 129.574219 L 124.4375 133.972656 L 119.402344 133.972656 Z M 125.453125 129.574219 L 129.957031 129.574219 L 130.394531 133.972656 L 125.476562 133.972656 Z M 131 129.574219 L 135.386719 129.574219 L 136.230469 133.972656 L 131.441406 133.972656 Z M 136.441406 129.574219 L 140.703125 129.574219 L 141.941406 133.972656 L 137.28125 133.972656 Z M 141.78125 129.574219 L 145.910156 129.574219 L 147.542969 133.972656 L 143.023438 133.972656 Z M 147.015625 129.574219 L 151.011719 129.574219 L 153.023438 133.972656 L 148.644531 133.972656 Z M 152.152344 129.574219 L 156.015625 129.574219 L 158.402344 133.972656 L 154.167969 133.972656 Z M 157.195312 129.574219 L 160.910156 129.574219 L 163.667969 133.972656 L 159.578125 133.972656 Z M 162.136719 129.574219 L 165.308594 129.574219 L 168.433594 133.972656 L 164.886719 133.972656 Z M 166.445312 128.816406 L 166.445312 126.296875 L 169.261719 129.941406 L 169.261719 132.800781 Z M 166.445312 124.601562 L 166.445312 121.316406 L 169.261719 124.628906 L 169.261719 128.242188 Z M 166.441406 119.714844 L 166.441406 116.238281 L 169.257812 119.210938 L 169.257812 123.027344 Z M 166.441406 114.726562 L 166.441406 111.058594 L 169.257812 113.691406 L 169.257812 117.707031 Z M 166.441406 109.640625 L 166.441406 105.785156 L 169.257812 108.066406 L 169.257812 112.269531 Z M 166.4375 104.453125 L 166.4375 100.410156 L 169.25 102.328125 L 169.25 106.730469 Z M 166.4375 99.15625 L 166.4375 94.9375 L 169.25 96.492188 L 169.25 101.082031 Z M 166.4375 93.753906 L 166.4375 89.355469 L 169.25 90.539062 L 169.25 95.308594 Z M 170.28125 90.976562 L 173.886719 92.492188 L 173.890625 97.871094 L 170.289062 95.878906 Z M 170.28125 89.851562 L 170.28125 84.777344 L 173.878906 85.808594 L 173.886719 91.367188 Z M 170.277344 83.703125 L 170.277344 78.46875 L 173.875 79.003906 L 173.878906 84.738281 Z M 170.277344 77.417969 L 170.277344 72.03125 L 173.875 72.0625 L 173.878906 77.949219 Z M 170.273438 71 L 170.273438 65.488281 L 173.871094 65.007812 L 173.871094 71.035156 Z M 170.273438 64.445312 L 170.273438 58.828125 L 173.871094 57.824219 L 173.875 63.96875 Z M 170.265625 57.75 L 170.261719 52.039062 L 173.855469 50.503906 L 173.859375 56.746094 Z M 170.261719 50.917969 L 170.257812 45.183594 L 173.847656 43.097656 L 173.855469 49.382812 Z M 169.5625 44.34375 L 166.285156 44.34375 L 168.796875 42.699219 L 172.398438 42.699219 Z M 164.398438 44.34375 L 160.765625 44.34375 L 162.9375 42.699219 L 166.902344 42.699219 Z M 159.054688 44.34375 L 155.148438 44.34375 L 156.976562 42.699219 L 161.226562 42.699219 Z M 153.597656 44.34375 L 149.421875 44.34375 L 150.902344 42.699219 L 155.433594 42.699219 Z M 148.019531 44.34375 L 143.578125 44.34375 L 144.710938 42.699219 L 149.503906 42.699219 Z M 142.324219 44.34375 L 137.644531 44.34375 L 138.410156 42.699219 L 143.457031 42.699219 Z M 136.503906 44.34375 L 131.613281 44.34375 L 132.003906 42.699219 L 137.265625 42.699219 Z M 130.542969 44.34375 L 125.480469 44.34375 L 125.5 42.699219 L 130.941406 42.699219 Z M 130.296875 45.378906 L 130.011719 46.566406 L 125.453125 46.566406 L 125.46875 45.378906 Z M 124.417969 46.566406 L 119.746094 46.566406 L 119.484375 45.378906 L 124.433594 45.378906 Z M 118.683594 46.566406 L 113.953125 46.566406 L 113.402344 45.378906 L 118.421875 45.378906 Z M 112.808594 46.566406 L 108.058594 46.566406 L 107.226562 45.378906 L 112.261719 45.378906 Z M 106.796875 46.566406 L 102.074219 46.566406 L 100.945312 45.378906 L 105.960938 45.378906 Z M 100.644531 46.566406 L 95.976562 46.566406 L 94.546875 45.378906 L 99.511719 45.378906 Z M 94.355469 46.566406 L 89.769531 46.566406 L 88.027344 45.378906 L 92.925781 45.378906 Z M 87.933594 46.566406 L 83.441406 46.566406 L 81.386719 45.378906 L 86.191406 45.378906 Z M 78.90625 45.136719 L 78.898438 50.917969 L 75.308594 49.382812 L 75.3125 43.054688 Z M 78.898438 52.046875 L 78.898438 57.757812 L 75.304688 56.753906 L 75.308594 50.507812 Z M 78.898438 58.828125 L 78.898438 64.445312 L 75.304688 63.964844 L 75.308594 57.820312 Z M 78.894531 65.488281 L 78.894531 71 L 75.296875 71.027344 L 75.304688 65.003906 Z M 78.890625 72.03125 L 78.890625 77.417969 L 75.292969 77.957031 L 75.296875 72.070312 Z M 78.890625 78.460938 L 78.890625 83.695312 L 75.292969 84.726562 L 75.296875 78.996094 Z M 78.882812 84.777344 L 78.882812 89.851562 L 75.28125 91.367188 L 75.289062 85.808594 Z M 74.246094 91.808594 L 69.589844 93.769531 L 69.597656 87.4375 L 74.25 86.101562 Z M 74.246094 92.929688 L 74.242188 98.449219 L 69.582031 101.023438 L 69.585938 94.890625 Z M 74.242188 99.628906 L 74.234375 104.949219 L 69.574219 108.132812 L 69.582031 102.203125 Z M 75.277344 99.054688 L 78.878906 97.0625 L 78.878906 101.785156 L 75.277344 104.246094 Z M 78.878906 103.039062 L 78.878906 107.566406 L 75.277344 110.484375 L 75.28125 105.492188 Z M 78.875 108.902344 L 78.875 113.238281 L 75.273438 116.605469 L 75.277344 111.820312 Z M 78.875 114.660156 L 78.875 118.796875 L 75.273438 122.605469 L 75.273438 118.023438 Z M 78.867188 120.304688 L 78.867188 124.246094 L 75.261719 128.484375 L 75.261719 124.117188 Z M 78.867188 125.84375 L 78.867188 129.582031 L 75.261719 134.25 L 75.261719 130.085938 Z M 78.863281 131.28125 L 78.863281 134.398438 L 75.257812 139.5 L 75.257812 135.945312 Z M 80 135.015625 L 85.414062 135.015625 L 82.109375 140.53125 L 76.082031 140.53125 Z M 86.621094 135.015625 L 92.257812 135.015625 L 89.53125 140.53125 L 83.3125 140.53125 Z M 93.414062 135.015625 L 98.964844 135.015625 L 96.8125 140.53125 L 90.691406 140.53125 Z M 100.074219 135.015625 L 105.53125 135.015625 L 103.941406 140.53125 L 97.921875 140.53125 Z M 106.609375 135.015625 L 111.96875 135.015625 L 110.925781 140.53125 L 105.019531 140.53125 Z M 113.019531 135.015625 L 118.269531 135.015625 L 117.769531 140.53125 L 111.976562 140.53125 Z M 119.3125 135.015625 L 124.449219 135.015625 L 124.480469 140.53125 L 118.816406 140.53125 Z M 125.484375 135.015625 L 130.496094 135.015625 L 131.046875 140.53125 L 125.511719 140.53125 Z M 131.539062 135.015625 L 136.425781 135.015625 L 137.484375 140.53125 L 132.089844 140.53125 Z M 137.484375 135.015625 L 142.238281 135.015625 L 143.792969 140.53125 L 138.542969 140.53125 Z M 143.308594 135.015625 L 147.921875 135.015625 L 149.964844 140.53125 L 144.863281 140.53125 Z M 149.027344 135.015625 L 153.496094 135.015625 L 156.019531 140.53125 L 151.070312 140.53125 Z M 154.640625 135.015625 L 158.960938 135.015625 L 161.953125 140.53125 L 157.160156 140.53125 Z M 160.140625 135.015625 L 164.3125 135.015625 L 167.761719 140.53125 L 163.128906 140.53125 Z M 165.539062 135.015625 L 169.167969 135.015625 L 173.085938 140.53125 L 168.992188 140.53125 Z M 170.304688 134.265625 L 170.304688 131.28125 L 173.910156 135.945312 L 173.910156 139.363281 Z M 170.296875 129.582031 L 170.296875 125.84375 L 173.90625 130.085938 L 173.90625 134.25 Z M 170.296875 124.246094 L 170.296875 120.304688 L 173.902344 124.109375 L 173.902344 128.480469 Z M 170.292969 118.796875 L 170.292969 114.660156 L 173.894531 118.027344 L 173.894531 122.609375 Z M 170.292969 113.242188 L 170.292969 108.90625 L 173.894531 111.824219 L 173.902344 116.609375 Z M 170.289062 107.574219 L 170.289062 103.042969 L 173.890625 105.503906 L 173.894531 110.496094 Z M 170.289062 101.785156 L 170.289062 97.0625 L 173.890625 99.054688 L 173.894531 104.242188 Z M 174.921875 99.628906 L 179.582031 102.203125 L 179.585938 108.132812 L 174.925781 104.949219 Z M 174.921875 98.449219 L 174.917969 92.929688 L 179.570312 94.890625 L 179.574219 101.023438 Z M 174.917969 91.808594 L 174.910156 86.105469 L 179.566406 87.441406 L 179.570312 93.773438 Z M 174.910156 78.109375 L 174.90625 72.078125 L 179.558594 72.121094 L 179.566406 78.804688 Z M 174.90625 71.042969 L 174.90625 64.867188 L 179.554688 64.25 L 179.558594 71.085938 Z M 174.902344 63.828125 L 174.894531 57.535156 L 179.542969 56.234375 L 179.550781 63.207031 Z M 174.902344 56.457031 L 174.894531 50.058594 L 179.542969 48.066406 L 179.550781 55.15625 Z M 174.894531 48.9375 L 174.890625 42.496094 L 179.539062 39.800781 L 179.542969 46.949219 Z M 174.183594 41.664062 L 170.375 41.664062 L 173.8125 39.410156 L 178.078125 39.410156 Z M 168.484375 41.664062 L 164.304688 41.664062 L 167.285156 39.410156 L 171.921875 39.410156 Z M 162.597656 41.664062 L 158.132812 41.664062 L 160.640625 39.410156 L 165.578125 39.410156 Z M 156.578125 41.664062 L 151.832031 41.664062 L 153.863281 39.410156 L 159.085938 39.410156 Z M 150.4375 41.664062 L 145.417969 41.664062 L 146.964844 39.410156 L 152.46875 39.410156 Z M 144.164062 41.664062 L 138.894531 41.664062 L 139.945312 39.410156 L 145.714844 39.410156 Z M 137.75 41.664062 L 132.253906 41.664062 L 132.796875 39.410156 L 138.800781 39.410156 Z M 131.191406 41.664062 L 125.511719 41.664062 L 125.539062 39.410156 L 131.734375 39.410156 Z M 124.476562 41.664062 L 118.660156 41.664062 L 118.15625 39.410156 L 124.5 39.410156 Z M 124.460938 42.699219 L 124.4375 44.34375 L 119.25 44.34375 L 118.886719 42.699219 Z M 118.1875 44.34375 L 112.921875 44.34375 L 112.164062 42.699219 L 117.820312 42.699219 Z M 111.785156 44.34375 L 106.5 44.34375 L 105.34375 42.699219 L 111.03125 42.699219 Z M 105.230469 44.34375 L 99.957031 44.34375 L 98.394531 42.699219 L 104.074219 42.699219 Z M 98.527344 44.34375 L 93.296875 44.34375 L 91.320312 42.699219 L 96.964844 42.699219 Z M 91.675781 44.34375 L 86.515625 44.34375 L 84.109375 42.699219 L 89.695312 42.699219 Z M 84.679688 44.34375 L 79.601562 44.34375 L 76.765625 42.699219 L 82.273438 42.699219 Z M 74.277344 42.449219 L 74.273438 48.933594 L 69.621094 46.941406 L 69.628906 39.75 Z M 74.273438 50.058594 L 74.265625 56.457031 L 69.617188 55.160156 L 69.621094 48.074219 Z M 74.265625 57.535156 L 74.261719 63.828125 L 69.613281 63.207031 L 69.617188 56.234375 Z M 74.261719 64.867188 L 74.257812 71.039062 L 69.601562 71.082031 L 69.605469 64.242188 Z M 74.257812 72.078125 L 74.25 78.109375 L 69.597656 78.804688 L 69.601562 72.121094 Z M 74.257812 79.15625 L 74.25 85.03125 L 69.597656 86.367188 L 69.601562 79.855469 Z M 68.558594 86.660156 L 62.4375 88.414062 L 62.445312 80.917969 L 68.558594 80.007812 Z M 68.558594 87.738281 L 68.554688 94.207031 L 62.433594 96.785156 L 62.4375 89.488281 Z M 68.554688 95.328125 L 68.550781 101.597656 L 62.429688 104.988281 L 62.433594 97.90625 Z M 68.550781 102.785156 L 68.542969 108.847656 L 62.417969 113.03125 L 62.421875 106.175781 Z M 68.542969 110.097656 L 68.539062 115.941406 L 62.414062 120.902344 L 62.417969 114.277344 Z M 69.582031 109.390625 L 74.242188 106.207031 L 74.234375 111.328125 L 69.574219 115.105469 Z M 74.234375 112.664062 L 74.230469 117.578125 L 69.570312 121.933594 L 69.574219 116.433594 Z M 74.230469 118.996094 L 74.226562 123.703125 L 69.558594 128.625 L 69.566406 123.351562 Z M 74.230469 125.207031 L 74.230469 129.703125 L 69.566406 135.191406 L 69.570312 130.136719 Z M 74.226562 131.304688 L 74.226562 135.59375 L 69.558594 141.628906 L 69.566406 136.792969 Z M 74.21875 137.285156 L 74.21875 140.960938 L 69.554688 147.558594 L 69.558594 143.316406 Z M 75.34375 141.566406 L 81.488281 141.566406 L 77.277344 148.585938 L 70.363281 148.585938 Z M 82.695312 141.566406 L 89.023438 141.566406 L 85.558594 148.585938 L 78.492188 148.585938 Z M 90.179688 141.566406 L 96.410156 141.566406 L 93.671875 148.585938 L 86.714844 148.585938 Z M 97.519531 141.566406 L 103.644531 141.566406 L 101.621094 148.585938 L 94.785156 148.585938 Z M 104.722656 141.566406 L 110.734375 141.566406 L 109.414062 148.585938 L 102.699219 148.585938 Z M 111.785156 141.566406 L 117.679688 141.566406 L 117.042969 148.585938 L 110.464844 148.585938 Z M 118.714844 141.566406 L 124.480469 141.566406 L 124.515625 148.585938 L 118.078125 148.585938 Z M 125.515625 141.566406 L 131.144531 141.566406 L 131.839844 148.585938 L 125.546875 148.585938 Z M 132.191406 141.566406 L 137.679688 141.566406 L 139.023438 148.585938 L 132.886719 148.585938 Z M 138.734375 141.566406 L 144.078125 141.566406 L 146.050781 148.585938 L 140.074219 148.585938 Z M 145.15625 141.566406 L 150.347656 141.566406 L 152.945312 148.585938 L 147.128906 148.585938 Z M 151.457031 141.566406 L 156.496094 141.566406 L 159.703125 148.585938 L 154.054688 148.585938 Z M 157.636719 141.566406 L 162.519531 141.566406 L 166.324219 148.585938 L 160.84375 148.585938 Z M 163.695312 141.566406 L 168.417969 141.566406 L 172.808594 148.585938 L 167.5 148.585938 Z M 169.640625 141.566406 L 173.824219 141.566406 L 178.804688 148.585938 L 174.03125 148.585938 Z M 174.949219 140.828125 L 174.949219 137.285156 L 179.613281 143.320312 L 179.617188 147.429688 Z M 174.941406 135.59375 L 174.941406 131.308594 L 179.605469 136.796875 L 179.613281 141.636719 Z M 174.9375 129.707031 L 174.9375 125.210938 L 179.601562 130.136719 L 179.605469 135.191406 Z M 174.9375 123.703125 L 174.933594 118.996094 L 179.589844 123.351562 L 179.597656 128.625 Z M 174.933594 117.578125 L 174.925781 112.664062 L 179.585938 116.4375 L 179.589844 121.9375 Z M 174.925781 111.328125 L 174.921875 106.207031 L 179.582031 109.390625 L 179.585938 115.105469 Z M 180.621094 110.097656 L 186.75 114.28125 L 186.753906 120.910156 L 180.628906 115.949219 Z M 180.621094 108.839844 L 180.617188 102.777344 L 186.738281 106.167969 L 186.742188 113.019531 Z M 180.617188 101.597656 L 180.613281 95.328125 L 186.734375 97.910156 L 186.738281 104.992188 Z M 180.613281 94.207031 L 180.605469 87.738281 L 186.726562 89.488281 L 186.734375 96.785156 Z M 187.765625 89.785156 L 195.996094 92.144531 L 196.007812 100.6875 L 187.769531 97.21875 Z M 187.765625 88.710938 L 187.761719 81.070312 L 195.992188 82.296875 L 196 91.066406 Z M 187.753906 80.023438 L 187.75 72.191406 L 195.976562 72.265625 L 195.984375 81.25 Z M 186.71875 79.871094 L 180.601562 78.957031 L 180.597656 72.132812 L 186.714844 72.1875 Z M 180.597656 71.097656 L 180.589844 64.113281 L 186.703125 63.296875 L 186.707031 71.152344 Z M 180.589844 63.0625 L 180.585938 55.941406 L 186.699219 54.234375 L 186.703125 62.246094 Z M 180.585938 54.871094 L 180.582031 47.628906 L 186.691406 45.011719 L 186.699219 53.15625 Z M 180.582031 46.5 L 180.578125 39.199219 L 186.683594 35.652344 L 186.6875 43.890625 Z M 179.859375 38.375 L 175.386719 38.375 L 180.113281 35.269531 L 185.210938 35.269531 Z M 173.5 38.375 L 168.65625 38.375 L 172.75 35.269531 L 178.226562 35.269531 Z M 166.941406 38.375 L 161.792969 38.375 L 165.246094 35.269531 L 171.035156 35.269531 Z M 160.242188 38.375 L 154.800781 38.375 L 157.601562 35.269531 L 163.699219 35.269531 Z M 153.40625 38.375 L 147.679688 38.375 L 149.804688 35.269531 L 156.199219 35.269531 Z M 146.417969 38.375 L 140.421875 38.375 L 141.867188 35.269531 L 148.542969 35.269531 Z M 139.28125 38.375 L 133.046875 38.375 L 133.792969 35.269531 L 140.722656 35.269531 Z M 131.984375 38.375 L 125.554688 38.375 L 125.589844 35.269531 L 132.730469 35.269531 Z M 124.511719 38.375 L 117.929688 38.375 L 117.238281 35.269531 L 124.546875 35.269531 Z M 116.867188 38.375 L 110.179688 38.375 L 108.753906 35.269531 L 116.183594 35.269531 Z M 117.09375 39.410156 L 117.597656 41.664062 L 111.695312 41.664062 L 110.65625 39.410156 Z M 110.554688 41.664062 L 104.613281 41.664062 L 103.027344 39.410156 L 109.515625 39.410156 Z M 103.347656 41.664062 L 97.410156 41.664062 L 95.261719 39.410156 L 101.761719 39.410156 Z M 95.976562 41.664062 L 90.070312 41.664062 L 87.355469 39.410156 L 93.832031 39.410156 Z M 88.453125 41.664062 L 82.59375 41.664062 L 79.300781 39.410156 L 85.738281 39.410156 Z M 80.765625 41.664062 L 74.980469 41.664062 L 71.089844 39.410156 L 77.464844 39.410156 Z M 68.589844 39.15625 L 68.585938 46.5 L 62.476562 43.882812 L 62.480469 35.613281 Z M 68.585938 47.628906 L 68.582031 54.871094 L 62.46875 53.164062 L 62.476562 45.015625 Z M 68.582031 55.945312 L 68.574219 63.070312 L 62.464844 62.25 L 62.46875 54.238281 Z M 68.574219 64.109375 L 68.570312 71.089844 L 62.453125 71.148438 L 62.460938 63.292969 Z M 68.570312 72.132812 L 68.566406 78.957031 L 62.449219 79.871094 L 62.453125 72.183594 Z M 61.414062 80.023438 L 53.1875 81.25 L 53.199219 72.265625 L 61.421875 72.191406 Z M 61.40625 81.070312 L 61.402344 88.710938 L 53.171875 91.066406 L 53.183594 82.296875 Z M 61.402344 89.785156 L 61.398438 97.222656 L 53.160156 100.695312 L 53.171875 92.148438 Z M 61.398438 98.34375 L 61.390625 105.5625 L 53.15625 110.117188 L 53.167969 101.8125 Z M 61.386719 106.746094 L 61.382812 113.734375 L 53.140625 119.363281 L 53.152344 111.304688 Z M 61.382812 114.984375 L 61.375 121.742188 L 53.136719 128.417969 L 53.144531 120.613281 Z M 61.375 123.082031 L 61.371094 129.597656 L 53.125 137.304688 L 53.136719 129.757812 Z M 62.414062 122.238281 L 68.539062 117.277344 L 68.535156 122.90625 L 62.40625 128.632812 Z M 68.535156 124.324219 L 68.527344 129.726562 L 62.398438 136.203125 L 62.402344 130.046875 Z M 68.527344 131.234375 L 68.523438 136.410156 L 62.390625 143.621094 L 62.398438 137.703125 Z M 68.523438 138.015625 L 68.519531 142.96875 L 62.386719 150.902344 L 62.390625 145.226562 Z M 68.519531 144.664062 L 68.511719 149.03125 L 62.375 157.707031 L 62.382812 152.605469 Z M 69.628906 149.621094 L 76.65625 149.621094 L 71.203125 158.71875 L 63.167969 158.71875 Z M 77.863281 149.621094 L 85.042969 149.621094 L 80.554688 158.71875 L 72.410156 158.71875 Z M 86.203125 149.621094 L 93.269531 149.621094 L 89.722656 158.71875 L 81.714844 158.71875 Z M 94.375 149.621094 L 101.320312 149.621094 L 98.699219 158.71875 L 90.832031 158.71875 Z M 102.398438 149.621094 L 109.214844 149.621094 L 107.5 158.71875 L 99.777344 158.71875 Z M 110.269531 149.621094 L 116.949219 149.621094 L 116.125 158.71875 L 108.558594 158.71875 Z M 117.992188 149.621094 L 124.527344 149.621094 L 124.574219 158.71875 L 117.167969 158.71875 Z M 125.558594 149.621094 L 131.945312 149.621094 L 132.84375 158.71875 L 125.605469 158.71875 Z M 132.992188 149.621094 L 139.21875 149.621094 L 140.960938 158.71875 L 133.890625 158.71875 Z M 140.277344 149.621094 L 146.347656 149.621094 L 148.90625 158.71875 L 142.015625 158.71875 Z M 147.425781 149.621094 L 153.335938 149.621094 L 156.703125 158.71875 L 149.992188 158.71875 Z M 154.4375 149.621094 L 160.175781 149.621094 L 164.332031 158.71875 L 157.800781 158.71875 Z M 161.316406 149.621094 L 166.882812 149.621094 L 171.8125 158.71875 L 165.472656 158.71875 Z M 168.058594 149.621094 L 173.453125 149.621094 L 179.144531 158.71875 L 172.988281 158.71875 Z M 174.679688 149.621094 L 179.539062 149.621094 L 185.996094 158.71875 L 180.367188 158.71875 Z M 180.648438 148.890625 L 180.644531 144.660156 L 186.773438 152.59375 L 186.78125 157.5625 Z M 180.644531 142.96875 L 180.636719 138.015625 L 186.769531 145.230469 L 186.773438 150.910156 Z M 180.636719 136.410156 L 180.632812 131.226562 L 186.765625 137.703125 L 186.769531 143.621094 Z M 180.636719 129.722656 L 180.632812 124.316406 L 186.757812 130.042969 L 186.765625 136.199219 Z M 180.632812 122.898438 L 180.628906 117.273438 L 186.753906 122.234375 L 186.757812 128.621094 Z M 187.789062 123.082031 L 196.03125 129.757812 L 196.042969 137.304688 L 187.796875 129.597656 Z M 187.789062 121.746094 L 187.785156 114.992188 L 196.027344 120.617188 L 196.039062 128.425781 Z M 187.785156 113.734375 L 187.78125 106.746094 L 196.015625 111.304688 L 196.027344 119.363281 Z M 187.777344 105.5625 L 187.769531 98.34375 L 196.007812 101.816406 L 196.015625 110.125 Z M 197.042969 102.25 L 208.488281 107.070312 L 208.503906 117.027344 L 197.054688 110.691406 Z M 197.042969 101.128906 L 197.03125 92.445312 L 208.472656 95.722656 L 208.488281 105.949219 Z M 197.03125 91.367188 L 197.023438 82.457031 L 208.457031 84.164062 L 208.472656 94.648438 Z M 197.023438 81.40625 L 197.011719 72.277344 L 208.441406 72.378906 L 208.457031 83.113281 Z M 197.011719 71.242188 L 197 61.910156 L 208.425781 60.382812 L 208.441406 71.34375 Z M 195.976562 71.234375 L 187.75 71.164062 L 187.746094 63.15625 L 195.964844 62.054688 Z M 187.738281 62.113281 L 187.734375 53.949219 L 195.953125 51.652344 L 195.964844 61.015625 Z M 187.734375 52.875 L 187.730469 44.570312 L 195.945312 41.054688 L 195.953125 50.578125 Z M 187.722656 43.445312 L 187.71875 35.054688 L 195.929688 30.289062 L 195.9375 39.925781 Z M 186.996094 34.238281 L 181.691406 34.238281 L 188.277344 29.914062 L 194.453125 29.914062 Z M 179.804688 34.238281 L 174.117188 34.238281 L 179.828125 29.914062 L 186.398438 29.914062 Z M 172.402344 34.238281 L 166.394531 34.238281 L 171.210938 29.914062 L 178.113281 29.914062 Z M 164.84375 34.238281 L 158.527344 34.238281 L 162.425781 29.914062 L 169.660156 29.914062 Z M 157.132812 34.238281 L 150.515625 34.238281 L 153.480469 29.914062 L 161.03125 29.914062 Z M 149.261719 34.238281 L 142.355469 34.238281 L 144.367188 29.914062 L 152.226562 29.914062 Z M 141.210938 34.238281 L 134.046875 34.238281 L 135.089844 29.914062 L 143.222656 29.914062 Z M 132.980469 34.238281 L 125.597656 34.238281 L 125.652344 29.914062 L 134.023438 29.914062 Z M 124.5625 34.238281 L 117.011719 34.238281 L 116.050781 29.914062 L 124.613281 29.914062 Z M 115.949219 34.238281 L 108.277344 34.238281 L 106.289062 29.914062 L 114.988281 29.914062 Z M 107.136719 34.238281 L 99.390625 34.238281 L 96.347656 29.914062 L 105.140625 29.914062 Z M 107.613281 35.269531 L 109.039062 38.375 L 102.300781 38.375 L 100.121094 35.269531 Z M 101.03125 38.375 L 94.277344 38.375 L 91.328125 35.269531 L 98.855469 35.269531 Z M 92.847656 38.375 L 86.109375 38.375 L 82.371094 35.269531 L 89.898438 35.269531 Z M 84.492188 38.375 L 77.789062 38.375 L 73.253906 35.269531 L 80.761719 35.269531 Z M 75.957031 38.375 L 69.304688 38.375 L 63.957031 35.269531 L 71.421875 35.269531 Z M 61.449219 35.019531 L 61.445312 43.445312 L 53.226562 39.925781 L 53.238281 30.257812 Z M 61.4375 44.570312 L 61.433594 52.875 L 53.214844 50.578125 L 53.222656 41.054688 Z M 61.433594 53.945312 L 61.429688 62.105469 L 53.207031 61.003906 L 53.21875 51.640625 Z M 61.421875 63.152344 L 61.417969 71.160156 L 53.191406 71.230469 L 53.203125 62.050781 Z M 52.15625 71.242188 L 40.726562 71.34375 L 40.742188 60.382812 L 52.164062 61.910156 Z M 52.15625 72.277344 L 52.144531 81.40625 L 40.710938 83.113281 L 40.726562 72.378906 Z M 52.144531 82.457031 L 52.136719 91.367188 L 40.695312 94.648438 L 40.710938 84.164062 Z M 52.125 102.25 L 52.113281 110.691406 L 40.664062 117.027344 L 40.679688 107.070312 Z M 52.113281 111.878906 L 52.105469 120.070312 L 40.648438 127.890625 L 40.664062 118.214844 Z M 52.105469 121.320312 L 52.09375 129.261719 L 40.632812 138.542969 L 40.644531 129.144531 Z M 52.09375 130.597656 L 52.082031 138.273438 L 40.625 148.984375 L 40.632812 139.875 Z M 52.082031 139.691406 L 52.074219 147.109375 L 40.609375 159.226562 L 40.617188 150.40625 Z M 53.121094 138.722656 L 61.367188 131.015625 L 61.359375 137.296875 L 53.113281 146.011719 Z M 61.359375 138.804688 L 61.355469 144.847656 L 53.105469 154.550781 L 53.109375 147.519531 Z M 61.355469 146.445312 L 61.351562 152.242188 L 53.097656 162.921875 L 53.105469 156.148438 Z M 61.34375 153.941406 L 61.339844 159.167969 L 53.082031 170.84375 L 53.089844 164.621094 Z M 62.4375 159.75 L 70.585938 159.75 L 63.335938 171.847656 L 53.851562 171.847656 Z M 71.792969 159.75 L 80.046875 159.75 L 74.074219 171.847656 L 64.542969 171.847656 Z M 81.203125 159.75 L 89.316406 159.75 L 84.601562 171.847656 L 75.230469 171.847656 Z M 90.433594 159.75 L 98.402344 159.75 L 94.921875 171.847656 L 85.714844 171.847656 Z M 99.480469 159.75 L 107.308594 159.75 L 105.027344 171.847656 L 96 171.847656 Z M 108.359375 159.75 L 116.03125 159.75 L 114.933594 171.847656 L 106.082031 171.847656 Z M 117.066406 159.75 L 124.574219 159.75 L 124.636719 171.847656 L 115.972656 171.847656 Z M 125.613281 159.75 L 132.953125 159.75 L 134.152344 171.847656 L 125.675781 171.847656 Z M 133.996094 159.75 L 141.160156 159.75 L 143.476562 171.847656 L 135.199219 171.847656 Z M 142.214844 159.75 L 149.203125 159.75 L 152.609375 171.847656 L 144.527344 171.847656 Z M 150.277344 159.75 L 157.082031 159.75 L 161.558594 171.847656 L 153.6875 171.847656 Z M 158.183594 159.75 L 164.804688 159.75 L 170.335938 171.847656 L 162.667969 171.847656 Z M 165.945312 159.75 L 172.371094 159.75 L 178.929688 171.847656 L 171.46875 171.847656 Z M 173.554688 159.75 L 179.792969 159.75 L 187.359375 171.847656 L 180.113281 171.847656 Z M 181.011719 159.75 L 186.726562 159.75 L 195.316406 171.847656 L 188.578125 171.847656 Z M 187.820312 159.035156 L 187.816406 153.941406 L 196.074219 164.617188 L 196.078125 170.703125 Z M 187.816406 152.25 L 187.8125 146.449219 L 196.0625 156.15625 L 196.066406 162.925781 Z M 187.8125 144.847656 L 187.804688 138.804688 L 196.058594 147.519531 L 196.0625 154.550781 Z M 187.804688 137.300781 L 187.800781 131.019531 L 196.046875 138.726562 L 196.058594 146.015625 Z M 197.085938 139.691406 L 208.550781 150.402344 L 208.558594 159.222656 L 197.09375 147.109375 Z M 197.078125 138.273438 L 197.070312 130.597656 L 208.527344 139.875 L 208.539062 148.984375 Z M 197.070312 129.261719 L 197.058594 121.320312 L 208.511719 129.144531 L 208.523438 138.542969 Z M 197.0625 120.070312 L 197.054688 111.878906 L 208.503906 118.214844 L 208.519531 127.890625 Z M 209.539062 118.789062 L 226.21875 128.015625 L 226.238281 139.996094 L 209.550781 128.601562 Z M 209.539062 117.601562 L 209.523438 107.511719 L 226.199219 114.535156 L 226.21875 126.835938 Z M 209.523438 106.382812 L 209.507812 96.019531 L 226.171875 100.792969 L 226.191406 113.40625 Z M 209.492188 83.269531 L 209.476562 72.390625 L 226.125 72.539062 L 226.152344 85.75 Z M 209.476562 71.355469 L 209.460938 60.246094 L 226.097656 58.019531 L 226.125 71.503906 Z M 209.457031 59.203125 L 209.441406 47.875 L 226.066406 43.230469 L 226.09375 56.980469 Z M 208.417969 59.34375 L 196.996094 60.871094 L 196.984375 51.359375 L 208.402344 48.167969 Z M 196.984375 50.289062 L 196.976562 40.609375 L 208.386719 35.722656 L 208.402344 47.089844 Z M 196.976562 39.480469 L 196.964844 29.683594 L 208.371094 23.0625 L 208.386719 34.59375 Z M 196.238281 28.882812 L 189.859375 28.882812 L 199.277344 22.703125 L 206.902344 22.703125 Z M 187.972656 28.882812 L 181.199219 28.882812 L 189.355469 22.703125 L 197.390625 22.703125 Z M 179.476562 28.882812 L 172.359375 28.882812 L 179.238281 22.703125 L 187.636719 22.703125 Z M 170.8125 28.882812 L 163.359375 28.882812 L 168.929688 22.703125 L 177.6875 22.703125 Z M 161.964844 28.882812 L 154.183594 28.882812 L 158.417969 22.703125 L 167.53125 22.703125 Z M 152.929688 28.882812 L 144.84375 28.882812 L 147.722656 22.703125 L 157.164062 22.703125 Z M 143.703125 28.882812 L 135.339844 28.882812 L 136.824219 22.703125 L 146.582031 22.703125 Z M 134.269531 28.882812 L 125.660156 28.882812 L 125.734375 22.703125 L 135.757812 22.703125 Z M 124.625 28.882812 L 115.820312 28.882812 L 114.449219 22.703125 L 124.699219 22.703125 Z M 114.761719 28.882812 L 105.8125 28.882812 L 102.96875 22.703125 L 113.394531 22.703125 Z M 104.671875 28.882812 L 95.621094 28.882812 L 91.277344 22.703125 L 101.824219 22.703125 Z M 94.355469 28.882812 L 85.25 28.882812 L 79.371094 22.703125 L 90.011719 22.703125 Z M 95.085938 29.917969 L 98.128906 34.242188 L 90.347656 34.242188 L 86.238281 29.917969 Z M 88.914062 34.238281 L 81.128906 34.238281 L 75.925781 29.914062 L 84.804688 29.914062 Z M 79.511719 34.238281 L 71.742188 34.238281 L 65.425781 29.914062 L 74.308594 29.914062 Z M 69.90625 34.238281 L 62.167969 34.238281 L 54.710938 29.914062 L 63.585938 29.914062 Z M 52.203125 29.660156 L 52.191406 39.488281 L 40.777344 34.597656 L 40.792969 23.046875 Z M 52.191406 40.609375 L 52.179688 50.289062 L 40.761719 47.097656 L 40.777344 35.726562 Z M 52.175781 51.359375 L 52.164062 60.871094 L 40.742188 59.34375 L 40.757812 48.171875 Z M 39.707031 59.203125 L 23.066406 56.980469 L 23.09375 43.230469 L 39.722656 47.875 Z M 39.707031 60.25 L 39.691406 71.359375 L 23.046875 71.511719 L 23.074219 58.027344 Z M 39.691406 72.390625 L 39.675781 83.269531 L 23.023438 85.75 L 23.042969 72.542969 Z M 39.675781 84.3125 L 39.660156 94.941406 L 22.996094 99.714844 L 23.015625 86.796875 Z M -4.082031 108.554688 L 21.953125 101.09375 L 21.933594 113.847656 L -4.117188 124.824219 Z M -4.121094 125.945312 L 21.933594 114.96875 L 21.914062 127.410156 L -4.160156 141.835938 Z M 22.96875 114.535156 L 39.644531 107.511719 L 39.628906 117.601562 L 22.949219 126.835938 Z M 39.628906 118.789062 L 39.613281 128.601562 L 22.921875 139.996094 L 22.945312 128.015625 Z M 39.613281 129.855469 L 39.601562 139.386719 L 22.90625 152.90625 L 22.929688 141.253906 Z M 39.597656 140.714844 L 39.585938 149.953125 L 22.882812 165.5625 L 22.902344 154.242188 Z M 39.582031 151.375 L 39.570312 160.324219 L 22.859375 177.984375 L 22.875 166.984375 Z M 39.566406 161.828125 L 39.554688 170.488281 L 22.835938 190.152344 L 22.855469 179.488281 Z M 40.609375 160.730469 L 52.078125 148.613281 L 52.066406 155.773438 L 40.597656 169.265625 Z M 52.0625 157.375 L 52.058594 164.269531 L 40.582031 179.117188 L 40.59375 170.871094 Z M 52.058594 165.960938 L 52.050781 172.308594 L 40.570312 188.539062 L 40.582031 180.8125 Z M 53.113281 172.882812 L 62.714844 172.882812 L 52.726562 189.546875 L 41.285156 189.546875 Z M 63.921875 172.882812 L 73.5625 172.882812 L 65.335938 189.546875 L 53.933594 189.546875 Z M 74.722656 172.882812 L 84.203125 172.882812 L 77.707031 189.546875 L 66.503906 189.546875 Z M 85.3125 172.882812 L 94.621094 172.882812 L 89.820312 189.546875 L 78.8125 189.546875 Z M 95.699219 172.882812 L 104.832031 172.882812 L 101.691406 189.546875 L 90.894531 189.546875 Z M 105.886719 172.882812 L 114.839844 172.882812 L 113.332031 189.546875 L 102.746094 189.546875 Z M 115.882812 172.882812 L 124.644531 172.882812 L 124.734375 189.546875 L 114.367188 189.546875 Z M 125.683594 172.882812 L 134.253906 172.882812 L 135.910156 189.546875 L 125.769531 189.546875 Z M 135.296875 172.882812 L 143.671875 172.882812 L 146.859375 189.546875 L 136.949219 189.546875 Z M 144.726562 172.882812 L 152.898438 172.882812 L 157.59375 189.546875 L 147.917969 189.546875 Z M 153.976562 172.882812 L 161.941406 172.882812 L 168.109375 189.546875 L 158.667969 189.546875 Z M 163.046875 172.882812 L 170.804688 172.882812 L 178.421875 189.546875 L 169.214844 189.546875 Z M 171.945312 172.882812 L 179.492188 172.882812 L 188.527344 189.546875 L 179.558594 189.546875 Z M 180.667969 172.882812 L 188.003906 172.882812 L 198.425781 189.546875 L 189.703125 189.546875 Z M 189.226562 172.882812 L 196.046875 172.882812 L 207.875 189.546875 L 199.644531 189.546875 Z M 197.117188 172.171875 L 197.109375 165.960938 L 208.585938 180.808594 L 208.597656 188.398438 Z M 197.109375 164.265625 L 197.105469 157.371094 L 208.574219 170.863281 L 208.585938 179.109375 Z M 197.101562 155.773438 L 197.09375 148.617188 L 208.566406 160.730469 L 208.574219 169.265625 Z M 209.597656 161.828125 L 226.3125 179.488281 L 226.332031 190.152344 L 209.613281 170.488281 Z M 209.597656 160.324219 L 209.585938 151.375 L 226.289062 166.984375 L 226.3125 177.984375 Z M 209.582031 149.953125 L 209.570312 140.714844 L 226.269531 154.234375 L 226.289062 165.558594 Z M 209.566406 139.386719 L 209.554688 129.855469 L 226.242188 141.253906 L 226.265625 152.90625 Z M 227.28125 141.960938 L 253.367188 159.773438 L 253.402344 174.882812 L 227.300781 153.742188 Z M 227.28125 140.703125 L 227.261719 128.589844 L 253.332031 143.015625 L 253.367188 158.519531 Z M 227.253906 127.410156 L 227.234375 114.96875 L 253.289062 125.945312 L 253.324219 141.835938 Z M 227.234375 113.847656 L 227.214844 101.09375 L 253.246094 108.554688 L 253.289062 124.824219 Z M 227.183594 85.90625 L 227.15625 72.550781 L 253.160156 72.789062 L 253.199219 89.789062 Z M 227.15625 71.515625 L 227.128906 57.878906 L 253.113281 54.40625 L 253.15625 71.753906 Z M 253.113281 53.363281 L 227.128906 56.839844 L 227.105469 42.941406 L 253.066406 35.683594 Z M 253.066406 34.609375 L 227.105469 41.867188 L 227.078125 27.71875 L 253.023438 16.613281 Z M 226.066406 42.15625 L 209.441406 46.800781 L 209.425781 35.277344 L 226.042969 28.164062 Z M 209.425781 34.152344 L 209.410156 22.46875 L 226.015625 12.832031 L 226.042969 27.042969 Z M 208.683594 21.667969 L 200.851562 21.667969 L 214.878906 12.464844 L 224.558594 12.464844 Z M 198.964844 21.667969 L 190.71875 21.667969 L 202.875 12.464844 L 212.992188 12.464844 Z M 189.003906 21.667969 L 180.390625 21.667969 L 190.632812 12.464844 L 201.152344 12.464844 Z M 178.839844 21.667969 L 169.863281 21.667969 L 178.160156 12.464844 L 189.085938 12.464844 Z M 168.46875 21.667969 L 159.132812 21.667969 L 165.441406 12.464844 L 176.761719 12.464844 Z M 157.878906 21.667969 L 148.207031 21.667969 L 152.488281 12.464844 L 164.1875 12.464844 Z M 147.0625 21.667969 L 137.074219 21.667969 L 139.292969 12.464844 L 151.34375 12.464844 Z M 136.007812 21.667969 L 125.746094 21.667969 L 125.851562 12.464844 L 138.21875 12.464844 Z M 124.714844 21.667969 L 114.222656 21.667969 L 112.179688 12.464844 L 124.820312 12.464844 Z M 113.160156 21.667969 L 102.492188 21.667969 L 98.257812 12.464844 L 111.117188 12.464844 Z M 101.351562 21.667969 L 90.550781 21.667969 L 84.082031 12.464844 L 97.117188 12.464844 Z M 89.285156 21.667969 L 78.390625 21.667969 L 69.636719 12.464844 L 82.820312 12.464844 Z M 76.957031 21.667969 L 65.996094 21.667969 L 54.917969 12.464844 L 68.207031 12.464844 Z M 77.941406 22.703125 L 83.820312 28.882812 L 74.679688 28.882812 L 67.242188 22.703125 Z M 73.058594 28.882812 L 63.90625 28.882812 L 54.871094 22.703125 L 65.617188 22.703125 Z M 62.074219 28.882812 L 52.929688 28.882812 L 42.265625 22.703125 L 53.042969 22.703125 Z M 39.757812 22.441406 L 39.742188 34.152344 L 23.125 27.042969 L 23.152344 12.816406 Z M 39.742188 35.277344 L 39.726562 46.800781 L 23.097656 42.15625 L 23.125 28.164062 Z M 22.0625 41.867188 L -3.90625 34.609375 L -3.859375 16.613281 L 22.089844 27.71875 Z M 22.058594 42.941406 L 22.03125 56.839844 L -3.949219 53.363281 L -3.910156 35.683594 Z M 22.03125 57.878906 L 22.003906 71.515625 L -3.992188 71.753906 L -3.949219 54.40625 Z M -3.992188 72.789062 L 22.003906 72.550781 L 21.980469 85.90625 L -4.039062 89.789062 Z M -4.164062 143.019531 L 21.90625 128.59375 L 21.886719 140.710938 L -4.199219 158.523438 Z M -4.199219 159.773438 L 21.886719 141.960938 L 21.867188 153.742188 L -4.234375 174.890625 Z M -4.242188 176.222656 L 21.859375 155.082031 L 21.839844 166.535156 L -4.277344 190.941406 Z M -4.28125 192.363281 L 21.835938 167.953125 L 21.8125 179.074219 L -4.3125 206.691406 Z M -4.320312 208.199219 L 21.8125 180.589844 L 21.792969 191.378906 L -4.351562 222.136719 Z M -4.355469 223.738281 L 21.792969 192.976562 L 21.773438 203.441406 L -4.386719 237.292969 Z M 22.835938 191.757812 L 39.554688 172.085938 L 39.546875 180.453125 L 22.820312 202.097656 Z M 39.539062 182.15625 L 39.53125 190.015625 L 22.792969 213.671875 L 22.808594 203.796875 Z M 40.550781 190.582031 L 52.105469 190.582031 L 37.648438 214.703125 L 23.429688 214.703125 Z M 53.3125 190.582031 L 64.828125 190.582031 L 52.921875 214.703125 L 38.855469 214.703125 Z M 65.984375 190.582031 L 77.296875 190.582031 L 67.898438 214.703125 L 54.078125 214.703125 Z M 78.414062 190.582031 L 89.519531 190.582031 L 82.570312 214.703125 L 69.003906 214.703125 Z M 90.597656 190.582031 L 101.5 190.582031 L 96.953125 214.703125 L 83.648438 214.703125 Z M 102.550781 190.582031 L 113.234375 190.582031 L 111.046875 214.703125 L 98.003906 214.703125 Z M 114.273438 190.582031 L 124.734375 190.582031 L 124.859375 214.703125 L 112.085938 214.703125 Z M 125.777344 190.582031 L 136.011719 190.582031 L 138.40625 214.703125 L 125.90625 214.703125 Z M 137.054688 190.582031 L 147.058594 190.582031 L 151.671875 214.703125 L 139.445312 214.703125 Z M 148.113281 190.582031 L 157.882812 190.582031 L 164.675781 214.703125 L 152.726562 214.703125 Z M 158.960938 190.582031 L 168.496094 190.582031 L 177.417969 214.703125 L 165.753906 214.703125 Z M 169.597656 190.582031 L 178.890625 190.582031 L 189.910156 214.703125 L 178.523438 214.703125 Z M 180.03125 190.582031 L 189.085938 190.582031 L 202.160156 214.703125 L 191.050781 214.703125 Z M 190.261719 190.582031 L 199.074219 190.582031 L 214.164062 214.703125 L 203.339844 214.703125 Z M 200.296875 190.582031 L 208.609375 190.582031 L 225.730469 214.703125 L 215.386719 214.703125 Z M 209.636719 189.875 L 209.628906 182.152344 L 226.359375 203.792969 L 226.375 213.535156 Z M 209.621094 180.453125 L 209.613281 172.085938 L 226.332031 191.757812 L 226.351562 202.097656 Z M 227.375 192.984375 L 253.523438 223.746094 L 253.554688 237.292969 L 227.390625 203.441406 Z M 227.367188 191.378906 L 227.347656 180.589844 L 253.480469 208.199219 L 253.511719 222.140625 Z M 227.347656 179.078125 L 227.328125 167.957031 L 253.445312 192.363281 L 253.480469 206.691406 Z M 227.328125 166.535156 L 227.304688 155.082031 L 253.410156 176.222656 L 253.445312 190.945312 Z M 253.019531 15.492188 L 227.074219 26.597656 L 227.046875 12.234375 L 252.972656 -2.808594 Z M 138.472656 11.429688 L 125.867188 11.429688 L 126.046875 -3.191406 L 142 -3.191406 Z M 124.832031 11.429688 L 111.953125 11.429688 L 108.714844 -3.191406 L 125.007812 -3.191406 Z M 53.296875 12.464844 L 64.371094 21.667969 L 53.363281 21.667969 L 39.90625 12.464844 Z M 51.527344 21.667969 L 40.484375 21.667969 L 24.609375 12.464844 L 38.074219 12.464844 Z M -0.0898438 -0.652344 L 22.113281 12.21875 L 22.089844 26.597656 L -3.859375 15.492188 L -3.8125 -2.8125 Z M -4.390625 238.988281 L 21.773438 205.136719 L 21.757812 215.136719 L -4.421875 252.152344 Z M 83.351562 215.738281 L 96.761719 215.738281 L 89.691406 253.269531 L 72.539062 253.269531 Z M 97.8125 215.738281 L 110.957031 215.738281 L 107.558594 253.269531 L 90.75 253.269531 Z M 111.992188 215.738281 L 124.867188 215.738281 L 125.066406 253.269531 L 108.59375 253.269531 Z M 125.90625 215.738281 L 138.503906 215.738281 L 142.226562 253.269531 L 126.101562 253.269531 Z M 139.546875 215.738281 L 151.867188 215.738281 L 159.046875 253.269531 L 143.261719 253.269531 Z M 152.925781 215.738281 L 164.964844 215.738281 L 175.53125 253.269531 L 160.101562 253.269531 Z M 227.410156 215.003906 L 227.394531 205.136719 L 253.558594 238.988281 L 253.589844 252.011719 Z M 15.179688 -3.191406 L 36.558594 11.429688 L 22.824219 11.429688 L -2.40625 -3.191406 Z M 15.179688 -3.191406 " fill-opacity="1" fill-rule="nonzero"/></g><g clip-path="url(#ececabe609)"><path fill="#262626" d="M 149.054688 56.382812 L 98.796875 56.382812 C 98.425781 56.382812 98.125 56.683594 98.125 57.050781 L 98.125 107.3125 C 98.125 107.683594 98.425781 107.980469 98.796875 107.980469 L 149.054688 107.980469 C 149.425781 107.980469 149.726562 107.683594 149.726562 107.3125 L 149.726562 57.050781 C 149.726562 56.683594 149.425781 56.382812 149.054688 56.382812 Z M 148.386719 106.640625 L 124.597656 106.640625 C 124.597656 106.640625 124.597656 82.851562 124.597656 82.851562 C 124.597656 82.851562 148.386719 82.851562 148.386719 82.851562 Z M 123.253906 95.703125 L 123.253906 106.640625 L 99.464844 106.640625 C 99.464844 106.640625 99.464844 82.851562 99.464844 82.851562 C 99.464844 82.851562 123.253906 82.851562 123.253906 82.851562 Z M 148.386719 81.511719 L 124.597656 81.511719 C 124.597656 81.511719 124.597656 57.722656 124.597656 57.722656 C 124.597656 57.722656 148.386719 57.722656 148.386719 57.722656 Z M 123.253906 70.570312 L 123.253906 81.511719 L 99.464844 81.511719 C 99.464844 81.511719 99.464844 57.722656 99.464844 57.722656 C 99.464844 57.722656 123.253906 57.722656 123.253906 57.722656 Z M 123.253906 70.570312 " fill-opacity="1" fill-rule="evenodd"/></g><g clip-path="url(#8eca1a82b2)"><path fill="#ffffff" d="M 78.160156 88.082031 L 172.75 88.082031 L 172.75 160.460938 L 78.160156 160.460938 Z M 78.160156 88.082031 " fill-opacity="1" fill-rule="nonzero"/><path fill="#ffffff" d="M 78.160156 88.082031 L 172.75 88.082031 L 172.75 160.460938 L 78.160156 160.460938 Z M 78.160156 88.082031 " fill-opacity="1" fill-rule="nonzero"/></g><g clip-path="url(#bfa605c885)"><path stroke-linecap="butt" transform="matrix(1.501414, 0, 0, 1.507901, 69.809097, 88.081008)" fill="none" stroke-linejoin="miter" d="M -0.000335064 1.000619 L 74.125078 1.000619 " stroke="#000000" stroke-width="2" stroke-opacity="1" stroke-miterlimit="4"/></g><g clip-path="url(#598888f4aa)"><path stroke-linecap="butt" transform="matrix(1.501414, 0, 0, 1.507901, 75.514471, 157.444459)" fill="none" stroke-linejoin="miter" d="M 0.000768717 1.000507 L 74.12358 1.000507 " stroke="#000000" stroke-width="2" stroke-opacity="1" stroke-miterlimit="4"/></g><g clip-path="url(#31842371f5)"><path stroke-linecap="butt" transform="matrix(0, 1.507901, -1.501414, 0, 81.164016, 89.58891)" fill="none" stroke-linejoin="miter" d="M 0.000619557 0.999027 L 48.00038 0.999027 " stroke="#000000" stroke-width="2" stroke-opacity="1" stroke-miterlimit="4"/></g><g clip-path="url(#90d7c8af19)"><path stroke-linecap="butt" transform="matrix(0, 1.507901, -1.501414, 0, 172.750274, 89.58891)" fill="none" stroke-linejoin="miter" d="M 0.000619557 1.001842 L 48.00038 1.001842 " stroke="#000000" stroke-width="2" stroke-opacity="1" stroke-miterlimit="4"/></g><g clip-path="url(#0c0482f615)"><path fill="#000000" d="M 133.433594 113.121094 C 132.660156 112.039062 131.589844 111.214844 130.226562 110.648438 C 128.875 110.085938 127.308594 109.792969 125.53125 109.792969 C 123.914062 109.792969 122.445312 110.078125 121.109375 110.632812 C 119.785156 111.191406 118.707031 112.046875 117.894531 113.175781 C 117.253906 114.070312 116.851562 115.160156 116.691406 116.445312 C 116.617188 116.996094 117.066406 117.488281 117.648438 117.488281 L 121.214844 117.488281 C 121.671875 117.488281 122.058594 117.171875 122.15625 116.734375 C 122.246094 116.347656 122.398438 116 122.597656 115.703125 C 122.925781 115.21875 123.351562 114.855469 123.867188 114.605469 C 124.382812 114.363281 124.929688 114.234375 125.507812 114.234375 C 126.109375 114.234375 126.648438 114.355469 127.148438 114.605469 C 127.636719 114.839844 128.03125 115.195312 128.328125 115.644531 C 128.617188 116.097656 128.769531 116.621094 128.769531 117.21875 C 128.769531 117.785156 128.632812 118.300781 128.375 118.753906 C 128.121094 119.207031 127.773438 119.625 127.339844 119.996094 C 126.898438 120.375 126.414062 120.730469 125.859375 121.078125 C 125.121094 121.53125 124.488281 122.03125 123.964844 122.589844 C 123.441406 123.144531 123.046875 123.871094 122.765625 124.777344 C 122.5 125.6875 122.355469 126.890625 122.347656 128.40625 L 122.347656 129.167969 C 122.347656 129.683594 122.78125 130.109375 123.3125 130.109375 L 126.457031 130.109375 C 126.984375 130.109375 127.421875 129.691406 127.421875 129.167969 L 127.421875 128.40625 C 127.429688 127.558594 127.539062 126.84375 127.757812 126.261719 C 127.972656 125.6875 128.3125 125.171875 128.753906 124.726562 C 129.203125 124.28125 129.78125 123.863281 130.480469 123.453125 C 131.324219 122.960938 132.050781 122.417969 132.660156 121.8125 C 133.269531 121.207031 133.753906 120.511719 134.097656 119.722656 C 134.445312 118.941406 134.621094 118.035156 134.621094 117.019531 C 134.597656 115.492188 134.203125 114.191406 133.433594 113.121094 Z M 133.433594 113.121094 " fill-opacity="1" fill-rule="nonzero"/></g><g clip-path="url(#0c5352ffb6)"><path fill="#000000" d="M 124.984375 132.21875 C 124.09375 132.21875 123.328125 132.515625 122.703125 133.128906 C 122.074219 133.734375 121.761719 134.46875 121.777344 135.316406 C 121.761719 136.171875 122.074219 136.914062 122.703125 137.527344 C 123.328125 138.140625 124.09375 138.441406 124.984375 138.441406 C 125.546875 138.441406 126.078125 138.304688 126.550781 138.019531 C 127.035156 137.730469 127.421875 137.359375 127.726562 136.882812 C 128.023438 136.40625 128.175781 135.890625 128.183594 135.316406 C 128.167969 134.460938 127.847656 133.734375 127.203125 133.128906 C 126.566406 132.515625 125.828125 132.21875 124.984375 132.21875 Z M 124.984375 132.21875 " fill-opacity="1" fill-rule="nonzero"/></g></svg>