<svg xmlns="http://www.w3.org/2000/svg" xmlns:xlink="http://www.w3.org/1999/xlink" width="343" zoomAndPan="magnify" viewBox="0 0 257.25 186.749995" height="249" preserveAspectRatio="xMidYMid meet" version="1.0"><defs><clipPath id="a116af9eb3"><path d="M 18.621094 12.445312 L 64.984375 12.445312 L 64.984375 58.808594 L 18.621094 58.808594 Z M 18.621094 12.445312 " clip-rule="nonzero"/></clipPath><clipPath id="42572b0fa7"><path d="M 18.621094 69.949219 L 64.984375 69.949219 L 64.984375 116.316406 L 18.621094 116.316406 Z M 18.621094 69.949219 " clip-rule="nonzero"/></clipPath><clipPath id="795b2a2f06"><path d="M 18.621094 129.726562 L 64.984375 129.726562 L 64.984375 176.09375 L 18.621094 176.09375 Z M 18.621094 129.726562 " clip-rule="nonzero"/></clipPath><clipPath id="6d8e8daffe"><path d="M 106.761719 12.445312 L 153.128906 12.445312 L 153.128906 58.808594 L 106.761719 58.808594 Z M 106.761719 12.445312 " clip-rule="nonzero"/></clipPath><clipPath id="6866481fbd"><path d="M 195.242188 12.445312 L 241.605469 12.445312 L 241.605469 58.808594 L 195.242188 58.808594 Z M 195.242188 12.445312 " clip-rule="nonzero"/></clipPath><clipPath id="7dc1eac94b"><path d="M 106.761719 69.949219 L 153.128906 69.949219 L 153.128906 116.316406 L 106.761719 116.316406 Z M 106.761719 69.949219 " clip-rule="nonzero"/></clipPath><clipPath id="522f68e08a"><path d="M 195.242188 69.949219 L 241.605469 69.949219 L 241.605469 116.316406 L 195.242188 116.316406 Z M 195.242188 69.949219 " clip-rule="nonzero"/></clipPath><clipPath id="6be8ff1652"><path d="M 106.761719 129.726562 L 153.128906 129.726562 L 153.128906 176.09375 L 106.761719 176.09375 Z M 106.761719 129.726562 " clip-rule="nonzero"/></clipPath><clipPath id="1bdda335e2"><path d="M 21.140625 14.742188 L 33.945312 14.742188 L 33.945312 27.769531 L 21.140625 27.769531 Z M 21.140625 14.742188 " clip-rule="nonzero"/></clipPath><clipPath id="2779ac0d47"><path d="M 0.140625 0.742188 L 12.945312 0.742188 L 12.945312 13.769531 L 0.140625 13.769531 Z M 0.140625 0.742188 " clip-rule="nonzero"/></clipPath><clipPath id="64a76be08a"><rect x="0" width="13" y="0" height="14"/></clipPath><clipPath id="2365478840"><path d="M 123.828125 14.742188 L 136.632812 14.742188 L 136.632812 27.769531 L 123.828125 27.769531 Z M 123.828125 14.742188 " clip-rule="nonzero"/></clipPath><clipPath id="5694011091"><path d="M 0.828125 0.742188 L 13.632812 0.742188 L 13.632812 13.769531 L 0.828125 13.769531 Z M 0.828125 0.742188 " clip-rule="nonzero"/></clipPath><clipPath id="5e50a8b589"><rect x="0" width="14" y="0" height="14"/></clipPath><clipPath id="35375f92a7"><path d="M 225.902344 14.742188 L 238.707031 14.742188 L 238.707031 27.769531 L 225.902344 27.769531 Z M 225.902344 14.742188 " clip-rule="nonzero"/></clipPath><clipPath id="5565d4eb2f"><path d="M 0.902344 0.742188 L 13.707031 0.742188 L 13.707031 13.769531 L 0.902344 13.769531 Z M 0.902344 0.742188 " clip-rule="nonzero"/></clipPath><clipPath id="15010eb457"><rect x="0" width="14" y="0" height="14"/></clipPath><clipPath id="16777f746b"><path d="M 21.140625 72.234375 L 33.945312 72.234375 L 33.945312 85.261719 L 21.140625 85.261719 Z M 21.140625 72.234375 " clip-rule="nonzero"/></clipPath><clipPath id="5c7b108aa5"><path d="M 0.140625 0.234375 L 12.945312 0.234375 L 12.945312 13.261719 L 0.140625 13.261719 Z M 0.140625 0.234375 " clip-rule="nonzero"/></clipPath><clipPath id="a47e25c4c3"><rect x="0" width="13" y="0" height="14"/></clipPath><clipPath id="0d8a4dd0dc"><path d="M 21.140625 87.871094 L 33.945312 87.871094 L 33.945312 100.902344 L 21.140625 100.902344 Z M 21.140625 87.871094 " clip-rule="nonzero"/></clipPath><clipPath id="abe2536466"><path d="M 0.140625 0.871094 L 12.945312 0.871094 L 12.945312 13.902344 L 0.140625 13.902344 Z M 0.140625 0.871094 " clip-rule="nonzero"/></clipPath><clipPath id="b04c18eec4"><rect x="0" width="13" y="0" height="14"/></clipPath><clipPath id="c3fb6f5fe3"><path d="M 123.828125 72.234375 L 136.632812 72.234375 L 136.632812 85.261719 L 123.828125 85.261719 Z M 123.828125 72.234375 " clip-rule="nonzero"/></clipPath><clipPath id="9fe4497f45"><path d="M 0.828125 0.234375 L 13.632812 0.234375 L 13.632812 13.261719 L 0.828125 13.261719 Z M 0.828125 0.234375 " clip-rule="nonzero"/></clipPath><clipPath id="450393af84"><rect x="0" width="14" y="0" height="14"/></clipPath><clipPath id="f3208b8359"><path d="M 123.828125 87.871094 L 136.632812 87.871094 L 136.632812 100.902344 L 123.828125 100.902344 Z M 123.828125 87.871094 " clip-rule="nonzero"/></clipPath><clipPath id="26119e7c2b"><path d="M 0.828125 0.871094 L 13.632812 0.871094 L 13.632812 13.902344 L 0.828125 13.902344 Z M 0.828125 0.871094 " clip-rule="nonzero"/></clipPath><clipPath id="06b4bb892d"><rect x="0" width="14" y="0" height="14"/></clipPath><clipPath id="f6445ebc85"><path d="M 225.902344 72.234375 L 238.707031 72.234375 L 238.707031 85.261719 L 225.902344 85.261719 Z M 225.902344 72.234375 " clip-rule="nonzero"/></clipPath><clipPath id="785f709456"><path d="M 0.902344 0.234375 L 13.707031 0.234375 L 13.707031 13.261719 L 0.902344 13.261719 Z M 0.902344 0.234375 " clip-rule="nonzero"/></clipPath><clipPath id="b00a8321c9"><rect x="0" width="14" y="0" height="14"/></clipPath><clipPath id="6b62ec425f"><path d="M 225.902344 87.871094 L 238.707031 87.871094 L 238.707031 100.902344 L 225.902344 100.902344 Z M 225.902344 87.871094 " clip-rule="nonzero"/></clipPath><clipPath id="cb16474a3d"><path d="M 0.902344 0.871094 L 13.707031 0.871094 L 13.707031 13.902344 L 0.902344 13.902344 Z M 0.902344 0.871094 " clip-rule="nonzero"/></clipPath><clipPath id="0a4248834a"><rect x="0" width="14" y="0" height="14"/></clipPath><clipPath id="18c8c0d21d"><path d="M 21.140625 132.011719 L 33.945312 132.011719 L 33.945312 145.039062 L 21.140625 145.039062 Z M 21.140625 132.011719 " clip-rule="nonzero"/></clipPath><clipPath id="21e11fd8bb"><path d="M 0.140625 0.0117188 L 12.945312 0.0117188 L 12.945312 13.039062 L 0.140625 13.039062 Z M 0.140625 0.0117188 " clip-rule="nonzero"/></clipPath><clipPath id="e3465d3826"><rect x="0" width="13" y="0" height="14"/></clipPath><clipPath id="fb2b6b8c6e"><path d="M 21.140625 146.515625 L 33.945312 146.515625 L 33.945312 159.542969 L 21.140625 159.542969 Z M 21.140625 146.515625 " clip-rule="nonzero"/></clipPath><clipPath id="20507dee11"><path d="M 0.140625 0.515625 L 12.945312 0.515625 L 12.945312 13.542969 L 0.140625 13.542969 Z M 0.140625 0.515625 " clip-rule="nonzero"/></clipPath><clipPath id="9dcd2af2d8"><rect x="0" width="13" y="0" height="14"/></clipPath><clipPath id="50dd291d92"><path d="M 21.140625 161.21875 L 33.945312 161.21875 L 33.945312 174.246094 L 21.140625 174.246094 Z M 21.140625 161.21875 " clip-rule="nonzero"/></clipPath><clipPath id="05e41a7f7d"><path d="M 0.140625 0.21875 L 12.945312 0.21875 L 12.945312 13.246094 L 0.140625 13.246094 Z M 0.140625 0.21875 " clip-rule="nonzero"/></clipPath><clipPath id="1e7e7b423f"><rect x="0" width="13" y="0" height="14"/></clipPath><clipPath id="d3cb230167"><path d="M 123.828125 132.011719 L 136.632812 132.011719 L 136.632812 145.039062 L 123.828125 145.039062 Z M 123.828125 132.011719 " clip-rule="nonzero"/></clipPath><clipPath id="77ec0821b9"><path d="M 0.828125 0.0117188 L 13.632812 0.0117188 L 13.632812 13.039062 L 0.828125 13.039062 Z M 0.828125 0.0117188 " clip-rule="nonzero"/></clipPath><clipPath id="4ec3eba5bb"><rect x="0" width="14" y="0" height="14"/></clipPath><clipPath id="6c20ed2db0"><path d="M 123.828125 146.515625 L 136.632812 146.515625 L 136.632812 159.542969 L 123.828125 159.542969 Z M 123.828125 146.515625 " clip-rule="nonzero"/></clipPath><clipPath id="4bef217eb7"><path d="M 0.828125 0.515625 L 13.632812 0.515625 L 13.632812 13.542969 L 0.828125 13.542969 Z M 0.828125 0.515625 " clip-rule="nonzero"/></clipPath><clipPath id="649d1fc77d"><rect x="0" width="14" y="0" height="14"/></clipPath><clipPath id="81f36bed29"><path d="M 123.660156 161.039062 L 136.464844 161.039062 L 136.464844 174.066406 L 123.660156 174.066406 Z M 123.660156 161.039062 " clip-rule="nonzero"/></clipPath><clipPath id="d4953f32c0"><path d="M 0.660156 0.0390625 L 13.464844 0.0390625 L 13.464844 13.066406 L 0.660156 13.066406 Z M 0.660156 0.0390625 " clip-rule="nonzero"/></clipPath><clipPath id="95ab35b14c"><rect x="0" width="14" y="0" height="14"/></clipPath><clipPath id="dda95a9f95"><path d="M 185.191406 127.316406 L 250.675781 127.316406 L 250.675781 177.261719 L 185.191406 177.261719 Z M 185.191406 127.316406 " clip-rule="nonzero"/></clipPath><clipPath id="f729210eab"><path d="M 185.191406 127.316406 L 250.675781 127.316406 L 250.675781 130 L 185.191406 130 Z M 185.191406 127.316406 " clip-rule="nonzero"/></clipPath><clipPath id="1f3fc33bf4"><path d="M 185.191406 175 L 250.675781 175 L 250.675781 177.261719 L 185.191406 177.261719 Z M 185.191406 175 " clip-rule="nonzero"/></clipPath><clipPath id="ca0dfb5f35"><path d="M 185.191406 127.316406 L 187.648438 127.316406 L 187.648438 177.261719 L 185.191406 177.261719 Z M 185.191406 127.316406 " clip-rule="nonzero"/></clipPath><clipPath id="b75456c10b"><path d="M 248 127.316406 L 250.675781 127.316406 L 250.675781 177.261719 L 248 177.261719 Z M 248 127.316406 " clip-rule="nonzero"/></clipPath><clipPath id="50d0141172"><path d="M 211.808594 142.300781 L 224.285156 142.300781 L 224.285156 157 L 211.808594 157 Z M 211.808594 142.300781 " clip-rule="nonzero"/></clipPath><clipPath id="1bee4e0e46"><path d="M 215 157.261719 L 220 157.261719 L 220 162.066406 L 215 162.066406 Z M 215 157.261719 " clip-rule="nonzero"/></clipPath></defs><g clip-path="url(#a116af9eb3)"><path fill="#161616" d="M 19.292969 58.132812 L 64.308594 58.132812 L 64.308594 13.117188 L 19.292969 13.117188 Z M 64.980469 58.808594 L 18.617188 58.808594 L 18.617188 12.445312 L 64.980469 12.445312 L 64.980469 58.808594 " fill-opacity="1" fill-rule="nonzero"/></g><g clip-path="url(#42572b0fa7)"><path fill="#161616" d="M 19.292969 115.640625 L 64.308594 115.640625 L 64.308594 70.625 L 19.292969 70.625 Z M 64.980469 116.3125 L 18.617188 116.3125 L 18.617188 69.949219 L 64.980469 69.949219 L 64.980469 116.3125 " fill-opacity="1" fill-rule="nonzero"/></g><g clip-path="url(#795b2a2f06)"><path fill="#161616" d="M 19.292969 175.417969 L 64.308594 175.417969 L 64.308594 130.402344 L 19.292969 130.402344 Z M 64.980469 176.089844 L 18.617188 176.089844 L 18.617188 129.726562 L 64.980469 129.726562 L 64.980469 176.089844 " fill-opacity="1" fill-rule="nonzero"/></g><g clip-path="url(#6d8e8daffe)"><path fill="#161616" d="M 107.433594 58.132812 L 152.449219 58.132812 L 152.449219 13.117188 L 107.433594 13.117188 Z M 153.121094 58.808594 L 106.757812 58.808594 L 106.757812 12.445312 L 153.121094 12.445312 L 153.121094 58.808594 " fill-opacity="1" fill-rule="nonzero"/></g><g clip-path="url(#6866481fbd)"><path fill="#161616" d="M 195.914062 58.132812 L 240.929688 58.132812 L 240.929688 13.117188 L 195.914062 13.117188 Z M 241.601562 58.808594 L 195.238281 58.808594 L 195.238281 12.445312 L 241.601562 12.445312 L 241.601562 58.808594 " fill-opacity="1" fill-rule="nonzero"/></g><g clip-path="url(#7dc1eac94b)"><path fill="#161616" d="M 107.433594 115.640625 L 152.449219 115.640625 L 152.449219 70.625 L 107.433594 70.625 Z M 153.121094 116.3125 L 106.757812 116.3125 L 106.757812 69.949219 L 153.121094 69.949219 L 153.121094 116.3125 " fill-opacity="1" fill-rule="nonzero"/></g><g clip-path="url(#522f68e08a)"><path fill="#161616" d="M 195.914062 115.640625 L 240.929688 115.640625 L 240.929688 70.625 L 195.914062 70.625 Z M 241.601562 116.3125 L 195.238281 116.3125 L 195.238281 69.949219 L 241.601562 69.949219 L 241.601562 116.3125 " fill-opacity="1" fill-rule="nonzero"/></g><g clip-path="url(#6be8ff1652)"><path fill="#161616" d="M 107.433594 175.417969 L 152.449219 175.417969 L 152.449219 130.402344 L 107.433594 130.402344 Z M 153.121094 176.089844 L 106.757812 176.089844 L 106.757812 129.726562 L 153.121094 129.726562 L 153.121094 176.089844 " fill-opacity="1" fill-rule="nonzero"/></g><g clip-path="url(#1bdda335e2)"><g transform="matrix(1, 0, 0, 1, 21, 14)"><g clip-path="url(#64a76be08a)"><g clip-path="url(#2779ac0d47)"><path fill="#161616" d="M 0.140625 0.742188 L 12.945312 0.742188 L 12.945312 13.746094 L 0.140625 13.746094 Z M 0.140625 0.742188 " fill-opacity="1" fill-rule="nonzero"/></g></g></g></g><g clip-path="url(#2365478840)"><g transform="matrix(1, 0, 0, 1, 123, 14)"><g clip-path="url(#5e50a8b589)"><g clip-path="url(#5694011091)"><path fill="#161616" d="M 0.828125 0.742188 L 13.632812 0.742188 L 13.632812 13.746094 L 0.828125 13.746094 Z M 0.828125 0.742188 " fill-opacity="1" fill-rule="nonzero"/></g></g></g></g><g clip-path="url(#35375f92a7)"><g transform="matrix(1, 0, 0, 1, 225, 14)"><g clip-path="url(#15010eb457)"><g clip-path="url(#5565d4eb2f)"><path fill="#161616" d="M 0.902344 0.742188 L 13.707031 0.742188 L 13.707031 13.746094 L 0.902344 13.746094 Z M 0.902344 0.742188 " fill-opacity="1" fill-rule="nonzero"/></g></g></g></g><g clip-path="url(#16777f746b)"><g transform="matrix(1, 0, 0, 1, 21, 72)"><g clip-path="url(#a47e25c4c3)"><g clip-path="url(#5c7b108aa5)"><path fill="#161616" d="M 0.140625 0.234375 L 12.945312 0.234375 L 12.945312 13.238281 L 0.140625 13.238281 Z M 0.140625 0.234375 " fill-opacity="1" fill-rule="nonzero"/></g></g></g></g><g clip-path="url(#0d8a4dd0dc)"><g transform="matrix(1, 0, 0, 1, 21, 87)"><g clip-path="url(#b04c18eec4)"><g clip-path="url(#abe2536466)"><path fill="#161616" d="M 0.140625 0.871094 L 12.945312 0.871094 L 12.945312 13.875 L 0.140625 13.875 Z M 0.140625 0.871094 " fill-opacity="1" fill-rule="nonzero"/></g></g></g></g><g clip-path="url(#c3fb6f5fe3)"><g transform="matrix(1, 0, 0, 1, 123, 72)"><g clip-path="url(#450393af84)"><g clip-path="url(#9fe4497f45)"><path fill="#161616" d="M 0.828125 0.234375 L 13.632812 0.234375 L 13.632812 13.238281 L 0.828125 13.238281 Z M 0.828125 0.234375 " fill-opacity="1" fill-rule="nonzero"/></g></g></g></g><g clip-path="url(#f3208b8359)"><g transform="matrix(1, 0, 0, 1, 123, 87)"><g clip-path="url(#06b4bb892d)"><g clip-path="url(#26119e7c2b)"><path fill="#161616" d="M 0.828125 0.871094 L 13.632812 0.871094 L 13.632812 13.875 L 0.828125 13.875 Z M 0.828125 0.871094 " fill-opacity="1" fill-rule="nonzero"/></g></g></g></g><g clip-path="url(#f6445ebc85)"><g transform="matrix(1, 0, 0, 1, 225, 72)"><g clip-path="url(#b00a8321c9)"><g clip-path="url(#785f709456)"><path fill="#161616" d="M 0.902344 0.234375 L 13.707031 0.234375 L 13.707031 13.238281 L 0.902344 13.238281 Z M 0.902344 0.234375 " fill-opacity="1" fill-rule="nonzero"/></g></g></g></g><g clip-path="url(#6b62ec425f)"><g transform="matrix(1, 0, 0, 1, 225, 87)"><g clip-path="url(#0a4248834a)"><g clip-path="url(#cb16474a3d)"><path fill="#161616" d="M 0.902344 0.871094 L 13.707031 0.871094 L 13.707031 13.875 L 0.902344 13.875 Z M 0.902344 0.871094 " fill-opacity="1" fill-rule="nonzero"/></g></g></g></g><g clip-path="url(#18c8c0d21d)"><g transform="matrix(1, 0, 0, 1, 21, 132)"><g clip-path="url(#e3465d3826)"><g clip-path="url(#21e11fd8bb)"><path fill="#161616" d="M 0.140625 0.0117188 L 12.945312 0.0117188 L 12.945312 13.015625 L 0.140625 13.015625 Z M 0.140625 0.0117188 " fill-opacity="1" fill-rule="nonzero"/></g></g></g></g><g clip-path="url(#fb2b6b8c6e)"><g transform="matrix(1, 0, 0, 1, 21, 146)"><g clip-path="url(#9dcd2af2d8)"><g clip-path="url(#20507dee11)"><path fill="#161616" d="M 0.140625 0.515625 L 12.945312 0.515625 L 12.945312 13.519531 L 0.140625 13.519531 Z M 0.140625 0.515625 " fill-opacity="1" fill-rule="nonzero"/></g></g></g></g><g clip-path="url(#50dd291d92)"><g transform="matrix(1, 0, 0, 1, 21, 161)"><g clip-path="url(#1e7e7b423f)"><g clip-path="url(#05e41a7f7d)"><path fill="#161616" d="M 0.140625 0.21875 L 12.945312 0.21875 L 12.945312 13.222656 L 0.140625 13.222656 Z M 0.140625 0.21875 " fill-opacity="1" fill-rule="nonzero"/></g></g></g></g><g clip-path="url(#d3cb230167)"><g transform="matrix(1, 0, 0, 1, 123, 132)"><g clip-path="url(#4ec3eba5bb)"><g clip-path="url(#77ec0821b9)"><path fill="#161616" d="M 0.828125 0.0117188 L 13.632812 0.0117188 L 13.632812 13.015625 L 0.828125 13.015625 Z M 0.828125 0.0117188 " fill-opacity="1" fill-rule="nonzero"/></g></g></g></g><g clip-path="url(#6c20ed2db0)"><g transform="matrix(1, 0, 0, 1, 123, 146)"><g clip-path="url(#649d1fc77d)"><g clip-path="url(#4bef217eb7)"><path fill="#161616" d="M 0.828125 0.515625 L 13.632812 0.515625 L 13.632812 13.519531 L 0.828125 13.519531 Z M 0.828125 0.515625 " fill-opacity="1" fill-rule="nonzero"/></g></g></g></g><g clip-path="url(#81f36bed29)"><g transform="matrix(1, 0, 0, 1, 123, 161)"><g clip-path="url(#95ab35b14c)"><g clip-path="url(#d4953f32c0)"><path fill="#161616" d="M 0.660156 0.0390625 L 13.464844 0.0390625 L 13.464844 13.042969 L 0.660156 13.042969 Z M 0.660156 0.0390625 " fill-opacity="1" fill-rule="nonzero"/></g></g></g></g><g clip-path="url(#dda95a9f95)"><path fill="#ffffff" d="M 185.191406 127.316406 L 250.675781 127.316406 L 250.675781 177.261719 L 185.191406 177.261719 Z M 185.191406 127.316406 " fill-opacity="1" fill-rule="nonzero"/><path fill="#ffffff" d="M 185.191406 127.316406 L 250.675781 127.316406 L 250.675781 177.261719 L 185.191406 177.261719 Z M 185.191406 127.316406 " fill-opacity="1" fill-rule="nonzero"/></g><g clip-path="url(#f729210eab)"><path stroke-linecap="butt" transform="matrix(1.039441, 0, 0, 1.040498, 179.407842, 127.317693)" fill="none" stroke-linejoin="miter" d="M 0.00222685 1.001137 L 74.125608 1.001137 " stroke="#000000" stroke-width="2" stroke-opacity="1" stroke-miterlimit="4"/></g><g clip-path="url(#1f3fc33bf4)"><path stroke-linecap="butt" transform="matrix(1.039441, 0, 0, 1.040498, 183.357718, 175.180611)" fill="none" stroke-linejoin="miter" d="M 0.00159438 0.997732 L 74.124976 0.997732 " stroke="#000000" stroke-width="2" stroke-opacity="1" stroke-miterlimit="4"/></g><g clip-path="url(#ca0dfb5f35)"><path stroke-linecap="butt" transform="matrix(0, 1.040498, -1.039441, 0, 187.26893, 128.358201)" fill="none" stroke-linejoin="miter" d="M 0.00112821 0.999057 L 48.002461 0.999057 " stroke="#000000" stroke-width="2" stroke-opacity="1" stroke-miterlimit="4"/></g><g clip-path="url(#b75456c10b)"><path stroke-linecap="butt" transform="matrix(0, 1.040498, -1.039441, 0, 250.674814, 128.358201)" fill="none" stroke-linejoin="miter" d="M 0.00112821 1.002463 L 48.002461 1.002463 " stroke="#000000" stroke-width="2" stroke-opacity="1" stroke-miterlimit="4"/></g><g clip-path="url(#50d0141172)"><path fill="#000000" d="M 223.453125 144.59375 C 222.921875 143.847656 222.179688 143.28125 221.234375 142.890625 C 220.300781 142.5 219.214844 142.300781 217.984375 142.300781 C 216.867188 142.300781 215.847656 142.496094 214.925781 142.878906 C 214.007812 143.265625 213.261719 143.855469 212.699219 144.632812 C 212.253906 145.253906 211.976562 146.003906 211.863281 146.890625 C 211.8125 147.269531 212.125 147.609375 212.527344 147.609375 L 214.996094 147.609375 C 215.3125 147.609375 215.582031 147.390625 215.648438 147.089844 C 215.710938 146.824219 215.816406 146.582031 215.953125 146.378906 C 216.183594 146.042969 216.476562 145.792969 216.832031 145.621094 C 217.1875 145.453125 217.566406 145.363281 217.96875 145.363281 C 218.386719 145.363281 218.757812 145.449219 219.101562 145.621094 C 219.441406 145.78125 219.714844 146.027344 219.921875 146.339844 C 220.121094 146.652344 220.226562 147.011719 220.226562 147.425781 C 220.226562 147.816406 220.132812 148.171875 219.953125 148.484375 C 219.777344 148.792969 219.539062 149.085938 219.238281 149.339844 C 218.929688 149.601562 218.597656 149.847656 218.214844 150.085938 C 217.699219 150.398438 217.261719 150.746094 216.898438 151.128906 C 216.539062 151.511719 216.265625 152.015625 216.070312 152.636719 C 215.886719 153.265625 215.785156 154.097656 215.78125 155.144531 L 215.78125 155.667969 C 215.78125 156.023438 216.082031 156.320312 216.449219 156.320312 L 218.625 156.320312 C 218.992188 156.320312 219.292969 156.03125 219.292969 155.667969 L 219.292969 155.144531 C 219.296875 154.558594 219.375 154.0625 219.527344 153.664062 C 219.675781 153.265625 219.910156 152.910156 220.214844 152.605469 C 220.527344 152.296875 220.929688 152.007812 221.414062 151.722656 C 221.996094 151.386719 222.496094 151.011719 222.921875 150.59375 C 223.34375 150.175781 223.675781 149.695312 223.917969 149.152344 C 224.15625 148.609375 224.277344 147.988281 224.277344 147.285156 C 224.261719 146.234375 223.988281 145.335938 223.453125 144.59375 Z M 223.453125 144.59375 " fill-opacity="1" fill-rule="nonzero"/></g><g clip-path="url(#1bee4e0e46)"><path fill="#000000" d="M 217.605469 157.773438 C 216.988281 157.773438 216.460938 157.980469 216.027344 158.402344 C 215.59375 158.820312 215.375 159.328125 215.386719 159.914062 C 215.375 160.503906 215.59375 161.015625 216.027344 161.4375 C 216.460938 161.863281 216.988281 162.066406 217.605469 162.066406 C 217.996094 162.066406 218.363281 161.972656 218.691406 161.777344 C 219.023438 161.578125 219.292969 161.320312 219.503906 160.992188 C 219.710938 160.664062 219.816406 160.308594 219.820312 159.914062 C 219.808594 159.320312 219.585938 158.820312 219.140625 158.402344 C 218.703125 157.980469 218.191406 157.773438 217.605469 157.773438 Z M 217.605469 157.773438 " fill-opacity="1" fill-rule="nonzero"/></g></svg>