<svg xmlns="http://www.w3.org/2000/svg" xmlns:xlink="http://www.w3.org/1999/xlink" width="343" zoomAndPan="magnify" viewBox="0 0 257.25 186.749995" height="249" preserveAspectRatio="xMidYMid meet" version="1.0"><defs><clipPath id="6400fdba69"><path d="M 32.757812 82.148438 L 64.914062 82.148438 L 64.914062 114.304688 L 32.757812 114.304688 Z M 32.757812 82.148438 " clip-rule="nonzero"/></clipPath><clipPath id="ab7dc08681"><path d="M 19.617188 18.765625 L 77.949219 18.765625 L 77.949219 55.410156 L 19.617188 55.410156 Z M 19.617188 18.765625 " clip-rule="nonzero"/></clipPath><clipPath id="0f5a4f7298"><path d="M 109.769531 14.253906 L 155.386719 14.253906 L 155.386719 59.871094 L 109.769531 59.871094 Z M 109.769531 14.253906 " clip-rule="nonzero"/></clipPath><clipPath id="eadcba3f10"><path d="M 186.964844 14.253906 L 239.3125 14.253906 L 239.3125 59.871094 L 186.964844 59.871094 Z M 186.964844 14.253906 " clip-rule="nonzero"/></clipPath><clipPath id="acc4d3b6bf"><path d="M 19.617188 134.542969 L 77.949219 134.542969 L 77.949219 171.183594 L 19.617188 171.183594 Z M 19.617188 134.542969 " clip-rule="nonzero"/></clipPath><clipPath id="cd866f5933"><path d="M 32.757812 136.6875 L 64.914062 136.6875 L 64.914062 168.84375 L 32.757812 168.84375 Z M 32.757812 136.6875 " clip-rule="nonzero"/></clipPath><clipPath id="c4d5a08b79"><path d="M 116.429688 82.148438 L 148.585938 82.148438 L 148.585938 114.304688 L 116.429688 114.304688 Z M 116.429688 82.148438 " clip-rule="nonzero"/></clipPath><clipPath id="13455b4d4d"><path d="M 197.097656 82.148438 L 229.253906 82.148438 L 229.253906 114.304688 L 197.097656 114.304688 Z M 197.097656 82.148438 " clip-rule="nonzero"/></clipPath><clipPath id="a806ff8729"><path d="M 109.769531 130.027344 L 155.386719 130.027344 L 155.386719 175.644531 L 109.769531 175.644531 Z M 109.769531 130.027344 " clip-rule="nonzero"/></clipPath><clipPath id="519e9885af"><path d="M 116.429688 136.746094 L 148.585938 136.746094 L 148.585938 168.902344 L 116.429688 168.902344 Z M 116.429688 136.746094 " clip-rule="nonzero"/></clipPath><clipPath id="0d4da6f0f3"><path d="M 183.152344 129.097656 L 242.089844 129.097656 L 242.089844 173.972656 L 183.152344 173.972656 Z M 183.152344 129.097656 " clip-rule="nonzero"/></clipPath><clipPath id="6e2c2a0848"><path d="M 183.152344 129.097656 L 242.089844 129.097656 L 242.089844 131 L 183.152344 131 Z M 183.152344 129.097656 " clip-rule="nonzero"/></clipPath><clipPath id="57a7890548"><path d="M 183.152344 172 L 242.089844 172 L 242.089844 173.972656 L 183.152344 173.972656 Z M 183.152344 172 " clip-rule="nonzero"/></clipPath><clipPath id="90ab90de25"><path d="M 183.152344 129.097656 L 185.367188 129.097656 L 185.367188 173.972656 L 183.152344 173.972656 Z M 183.152344 129.097656 " clip-rule="nonzero"/></clipPath><clipPath id="f9b290cb78"><path d="M 240 129.097656 L 242.089844 129.097656 L 242.089844 173.972656 L 240 173.972656 Z M 240 129.097656 " clip-rule="nonzero"/></clipPath><clipPath id="22363b0c52"><path d="M 207.109375 142.558594 L 218.335938 142.558594 L 218.335938 156 L 207.109375 156 Z M 207.109375 142.558594 " clip-rule="nonzero"/></clipPath><clipPath id="21d6e0da1c"><path d="M 210 156 L 214.851562 156 L 214.851562 160.320312 L 210 160.320312 Z M 210 156 " clip-rule="nonzero"/></clipPath></defs><g clip-path="url(#6400fdba69)"><path fill="#000000" d="M 48.835938 82.148438 C 39.960938 82.148438 32.757812 89.351562 32.757812 98.226562 C 32.757812 107.101562 39.960938 114.304688 48.835938 114.304688 C 57.710938 114.304688 64.914062 107.101562 64.914062 98.226562 C 64.914062 89.351562 57.710938 82.148438 48.835938 82.148438 Z M 48.835938 83.042969 C 57.226562 83.042969 64.019531 89.835938 64.019531 98.226562 C 64.019531 106.617188 57.226562 113.410156 48.835938 113.410156 C 40.445312 113.410156 33.648438 106.617188 33.648438 98.226562 C 33.648438 89.835938 40.445312 83.042969 48.835938 83.042969 Z M 48.835938 83.042969 " fill-opacity="1" fill-rule="nonzero"/></g><g clip-path="url(#ab7dc08681)"><path fill="#000000" d="M 48.78125 55.40625 C 41.035156 55.40625 33.75 53.519531 28.261719 50.097656 C 25.574219 48.421875 23.464844 46.46875 21.984375 44.289062 C 20.441406 42.011719 19.65625 39.585938 19.65625 37.085938 C 19.65625 34.582031 20.441406 32.160156 21.984375 29.882812 C 23.464844 27.703125 25.574219 25.75 28.261719 24.074219 C 33.75 20.648438 41.035156 18.765625 48.78125 18.765625 C 56.527344 18.765625 63.816406 20.648438 69.300781 24.074219 C 71.988281 25.75 74.101562 27.703125 75.578125 29.882812 C 77.121094 32.160156 77.90625 34.582031 77.90625 37.085938 C 77.90625 39.585938 77.121094 42.011719 75.578125 44.289062 C 74.101562 46.46875 71.988281 48.421875 69.300781 50.097656 C 63.816406 53.519531 56.527344 55.40625 48.78125 55.40625 Z M 48.78125 19.574219 C 33.167969 19.574219 20.460938 27.429688 20.460938 37.085938 C 20.460938 46.742188 33.167969 54.59375 48.78125 54.59375 C 64.398438 54.59375 77.101562 46.742188 77.101562 37.085938 C 77.101562 27.429688 64.398438 19.574219 48.78125 19.574219 Z M 48.78125 19.574219 " fill-opacity="1" fill-rule="nonzero"/></g><g clip-path="url(#0f5a4f7298)"><path fill="#161616" d="M 110.429688 59.207031 L 154.71875 59.207031 L 154.71875 14.914062 L 110.429688 14.914062 Z M 155.382812 59.867188 L 109.765625 59.867188 L 109.765625 14.253906 L 155.382812 14.253906 L 155.382812 59.867188 " fill-opacity="1" fill-rule="nonzero"/></g><g clip-path="url(#eadcba3f10)"><path fill="#231f20" d="M 226.222656 14.292969 L 200.050781 14.292969 L 186.964844 37.0625 L 200.050781 59.832031 L 226.222656 59.832031 L 239.3125 37.0625 Z M 225.6875 58.898438 L 200.589844 58.898438 L 188.03125 37.0625 L 200.589844 15.222656 L 225.695312 15.222656 L 238.246094 37.0625 Z M 225.6875 58.898438 " fill-opacity="1" fill-rule="nonzero"/></g><g clip-path="url(#acc4d3b6bf)"><path fill="#000000" d="M 48.78125 171.179688 C 41.035156 171.179688 33.75 169.296875 28.261719 165.871094 C 25.574219 164.195312 23.464844 162.242188 21.984375 160.0625 C 20.441406 157.785156 19.65625 155.363281 19.65625 152.859375 C 19.65625 150.359375 20.441406 147.933594 21.984375 145.65625 C 23.464844 143.476562 25.574219 141.523438 28.261719 139.847656 C 33.75 136.425781 41.035156 134.539062 48.78125 134.539062 C 56.527344 134.539062 63.816406 136.425781 69.300781 139.847656 C 71.988281 141.523438 74.101562 143.476562 75.578125 145.65625 C 77.121094 147.933594 77.90625 150.359375 77.90625 152.859375 C 77.90625 155.363281 77.121094 157.785156 75.578125 160.0625 C 74.101562 162.242188 71.988281 164.195312 69.300781 165.871094 C 63.816406 169.296875 56.527344 171.179688 48.78125 171.179688 Z M 48.78125 135.351562 C 33.167969 135.351562 20.460938 143.203125 20.460938 152.859375 C 20.460938 162.515625 33.167969 170.371094 48.78125 170.371094 C 64.398438 170.371094 77.101562 162.515625 77.101562 152.859375 C 77.101562 143.203125 64.398438 135.351562 48.78125 135.351562 Z M 48.78125 135.351562 " fill-opacity="1" fill-rule="nonzero"/></g><g clip-path="url(#cd866f5933)"><path fill="#000000" d="M 48.835938 136.6875 C 39.960938 136.6875 32.757812 143.890625 32.757812 152.765625 C 32.757812 161.640625 39.960938 168.84375 48.835938 168.84375 C 57.710938 168.84375 64.914062 161.640625 64.914062 152.765625 C 64.914062 143.890625 57.710938 136.6875 48.835938 136.6875 Z M 48.835938 137.578125 C 57.226562 137.578125 64.019531 144.371094 64.019531 152.765625 C 64.019531 161.15625 57.226562 167.949219 48.835938 167.949219 C 40.445312 167.949219 33.648438 161.15625 33.648438 152.765625 C 33.648438 144.371094 40.445312 137.578125 48.835938 137.578125 Z M 48.835938 137.578125 " fill-opacity="1" fill-rule="nonzero"/></g><g clip-path="url(#c4d5a08b79)"><path fill="#000000" d="M 132.507812 82.148438 C 123.632812 82.148438 116.429688 89.351562 116.429688 98.226562 C 116.429688 107.101562 123.632812 114.304688 132.507812 114.304688 C 141.382812 114.304688 148.585938 107.101562 148.585938 98.226562 C 148.585938 89.351562 141.382812 82.148438 132.507812 82.148438 Z M 132.507812 83.042969 C 140.898438 83.042969 147.691406 89.835938 147.691406 98.226562 C 147.691406 106.617188 140.898438 113.410156 132.507812 113.410156 C 124.117188 113.410156 117.324219 106.617188 117.324219 98.226562 C 117.324219 89.835938 124.117188 83.042969 132.507812 83.042969 Z M 132.507812 83.042969 " fill-opacity="1" fill-rule="nonzero"/></g><g clip-path="url(#13455b4d4d)"><path fill="#000000" d="M 213.175781 82.148438 C 204.300781 82.148438 197.097656 89.351562 197.097656 98.226562 C 197.097656 107.101562 204.300781 114.304688 213.175781 114.304688 C 222.046875 114.304688 229.253906 107.101562 229.253906 98.226562 C 229.253906 89.351562 222.046875 82.148438 213.175781 82.148438 Z M 213.175781 83.042969 C 221.566406 83.042969 228.359375 89.835938 228.359375 98.226562 C 228.359375 106.617188 221.566406 113.410156 213.175781 113.410156 C 204.78125 113.410156 197.988281 106.617188 197.988281 98.226562 C 197.988281 89.835938 204.78125 83.042969 213.175781 83.042969 Z M 213.175781 83.042969 " fill-opacity="1" fill-rule="nonzero"/></g><g clip-path="url(#a806ff8729)"><path fill="#161616" d="M 110.429688 174.980469 L 154.71875 174.980469 L 154.71875 130.691406 L 110.429688 130.691406 Z M 155.382812 175.644531 L 109.765625 175.644531 L 109.765625 130.027344 L 155.382812 130.027344 L 155.382812 175.644531 " fill-opacity="1" fill-rule="nonzero"/></g><g clip-path="url(#519e9885af)"><path fill="#000000" d="M 132.507812 136.746094 C 123.632812 136.746094 116.429688 143.949219 116.429688 152.824219 C 116.429688 161.699219 123.632812 168.902344 132.507812 168.902344 C 141.382812 168.902344 148.585938 161.699219 148.585938 152.824219 C 148.585938 143.949219 141.382812 136.746094 132.507812 136.746094 Z M 132.507812 137.636719 C 140.898438 137.636719 147.691406 144.429688 147.691406 152.824219 C 147.691406 161.214844 140.898438 168.007812 132.507812 168.007812 C 124.117188 168.007812 117.324219 161.214844 117.324219 152.824219 C 117.324219 144.429688 124.117188 137.636719 132.507812 137.636719 Z M 132.507812 137.636719 " fill-opacity="1" fill-rule="nonzero"/></g><g clip-path="url(#0d4da6f0f3)"><path fill="#ffffff" d="M 183.152344 129.097656 L 242.089844 129.097656 L 242.089844 173.972656 L 183.152344 173.972656 Z M 183.152344 129.097656 " fill-opacity="1" fill-rule="nonzero"/><path fill="#ffffff" d="M 183.152344 129.097656 L 242.089844 129.097656 L 242.089844 173.972656 L 183.152344 173.972656 Z M 183.152344 129.097656 " fill-opacity="1" fill-rule="nonzero"/></g><g clip-path="url(#6e2c2a0848)"><path stroke-linecap="butt" transform="matrix(0.935497, 0, 0, 0.934905, 177.94854, 129.09682)" fill="none" stroke-linejoin="miter" d="M 0.000725384 0.999492 L 74.125777 0.999492 " stroke="#000000" stroke-width="2" stroke-opacity="1" stroke-miterlimit="4"/></g><g clip-path="url(#57a7890548)"><path stroke-linecap="butt" transform="matrix(0.935497, 0, 0, 0.934905, 181.503431, 172.102442)" fill="none" stroke-linejoin="miter" d="M 0.000507919 0.997657 L 74.12556 0.997657 " stroke="#000000" stroke-width="2" stroke-opacity="1" stroke-miterlimit="4"/></g><g clip-path="url(#90ab90de25)"><path stroke-linecap="butt" transform="matrix(0, 0.934905, -0.935497, 0, 185.02353, 130.031724)" fill="none" stroke-linejoin="miter" d="M -0.000506523 0.998064 L 48.003196 0.998064 " stroke="#000000" stroke-width="2" stroke-opacity="1" stroke-miterlimit="4"/></g><g clip-path="url(#f9b290cb78)"><path stroke-linecap="butt" transform="matrix(0, 0.934905, -0.935497, 0, 242.088821, 130.031724)" fill="none" stroke-linejoin="miter" d="M -0.000506523 1.001048 L 48.003196 1.001048 " stroke="#000000" stroke-width="2" stroke-opacity="1" stroke-miterlimit="4"/></g><g clip-path="url(#22363b0c52)"><path fill="#000000" d="M 217.589844 144.621094 C 217.109375 143.949219 216.445312 143.441406 215.59375 143.089844 C 214.75 142.738281 213.773438 142.558594 212.667969 142.558594 C 211.660156 142.558594 210.746094 142.734375 209.914062 143.078125 C 209.085938 143.425781 208.417969 143.957031 207.910156 144.65625 C 207.511719 145.210938 207.257812 145.886719 207.160156 146.683594 C 207.113281 147.023438 207.394531 147.328125 207.753906 147.328125 L 209.980469 147.328125 C 210.265625 147.328125 210.503906 147.132812 210.566406 146.863281 C 210.621094 146.621094 210.714844 146.40625 210.839844 146.222656 C 211.046875 145.921875 211.3125 145.695312 211.632812 145.542969 C 211.953125 145.390625 212.292969 145.3125 212.652344 145.3125 C 213.027344 145.3125 213.363281 145.386719 213.675781 145.542969 C 213.980469 145.6875 214.226562 145.90625 214.410156 146.1875 C 214.589844 146.46875 214.6875 146.792969 214.6875 147.164062 C 214.6875 147.511719 214.601562 147.832031 214.441406 148.113281 C 214.28125 148.394531 214.066406 148.65625 213.792969 148.886719 C 213.519531 149.121094 213.21875 149.339844 212.875 149.554688 C 212.414062 149.835938 212.015625 150.144531 211.691406 150.492188 C 211.367188 150.835938 211.121094 151.285156 210.945312 151.847656 C 210.78125 152.414062 210.691406 153.160156 210.683594 154.097656 L 210.683594 154.570312 C 210.683594 154.890625 210.957031 155.15625 211.285156 155.15625 L 213.242188 155.15625 C 213.574219 155.15625 213.84375 154.894531 213.84375 154.570312 L 213.84375 154.097656 C 213.847656 153.574219 213.917969 153.128906 214.054688 152.769531 C 214.191406 152.414062 214.402344 152.09375 214.675781 151.816406 C 214.957031 151.542969 215.316406 151.28125 215.753906 151.027344 C 216.277344 150.722656 216.730469 150.386719 217.109375 150.011719 C 217.488281 149.636719 217.789062 149.207031 218.007812 148.714844 C 218.222656 148.230469 218.332031 147.667969 218.332031 147.039062 C 218.316406 146.09375 218.070312 145.285156 217.589844 144.621094 Z M 217.589844 144.621094 " fill-opacity="1" fill-rule="nonzero"/></g><g clip-path="url(#21d6e0da1c)"><path fill="#000000" d="M 212.328125 156.460938 C 211.769531 156.460938 211.296875 156.648438 210.90625 157.027344 C 210.515625 157.402344 210.320312 157.859375 210.328125 158.382812 C 210.320312 158.914062 210.515625 159.375 210.90625 159.753906 C 211.296875 160.136719 211.769531 160.320312 212.328125 160.320312 C 212.679688 160.320312 213.007812 160.234375 213.304688 160.058594 C 213.605469 159.878906 213.84375 159.648438 214.035156 159.355469 C 214.21875 159.058594 214.316406 158.738281 214.320312 158.382812 C 214.308594 157.851562 214.109375 157.402344 213.710938 157.027344 C 213.3125 156.648438 212.851562 156.460938 212.328125 156.460938 Z M 212.328125 156.460938 " fill-opacity="1" fill-rule="nonzero"/></g></svg>