<svg xmlns="http://www.w3.org/2000/svg" xmlns:xlink="http://www.w3.org/1999/xlink" width="343" zoomAndPan="magnify" viewBox="0 0 257.25 186.749995" height="249" preserveAspectRatio="xMidYMid meet" version="1.0"><defs><clipPath id="7cfd3c7f2c"><path d="M 34.0625 82.082031 L 66.03125 82.082031 L 66.03125 114.070312 L 34.0625 114.070312 Z M 34.0625 82.082031 " clip-rule="nonzero"/></clipPath><clipPath id="1c7b4ba0e5"><path d="M 21 19.03125 L 78.992188 19.03125 L 78.992188 55.484375 L 21 55.484375 Z M 21 19.03125 " clip-rule="nonzero"/></clipPath><clipPath id="b08858ce6d"><path d="M 110.628906 14.542969 L 155.980469 14.542969 L 155.980469 59.921875 L 110.628906 59.921875 Z M 110.628906 14.542969 " clip-rule="nonzero"/></clipPath><clipPath id="9a80903dd4"><path d="M 187.375 14.542969 L 239.417969 14.542969 L 239.417969 59.921875 L 187.375 59.921875 Z M 187.375 14.542969 " clip-rule="nonzero"/></clipPath><clipPath id="32e73b18a4"><path d="M 21 134.203125 L 78.992188 134.203125 L 78.992188 170.652344 L 21 170.652344 Z M 21 134.203125 " clip-rule="nonzero"/></clipPath><clipPath id="06ddd7f380"><path d="M 34.0625 136.335938 L 66.03125 136.335938 L 66.03125 168.324219 L 34.0625 168.324219 Z M 34.0625 136.335938 " clip-rule="nonzero"/></clipPath><clipPath id="ebec17ebc6"><path d="M 117.25 82.082031 L 149.21875 82.082031 L 149.21875 114.070312 L 117.25 114.070312 Z M 117.25 82.082031 " clip-rule="nonzero"/></clipPath><clipPath id="465aaed0e5"><path d="M 197.449219 82.082031 L 229.417969 82.082031 L 229.417969 114.070312 L 197.449219 114.070312 Z M 197.449219 82.082031 " clip-rule="nonzero"/></clipPath><clipPath id="50957a33f5"><path d="M 110.628906 129.710938 L 155.980469 129.710938 L 155.980469 175.089844 L 110.628906 175.089844 Z M 110.628906 129.710938 " clip-rule="nonzero"/></clipPath><clipPath id="0e23834edc"><path d="M 117.25 136.394531 L 149.21875 136.394531 L 149.21875 168.382812 L 117.25 168.382812 Z M 117.25 136.394531 " clip-rule="nonzero"/></clipPath><clipPath id="fef5513c57"><path d="M 183.582031 128.785156 L 242.179688 128.785156 L 242.179688 173.425781 L 183.582031 173.425781 Z M 183.582031 128.785156 " clip-rule="nonzero"/></clipPath><clipPath id="d1247df8a5"><path d="M 183.582031 128.785156 L 242.179688 128.785156 L 242.179688 130.679688 L 183.582031 130.679688 Z M 183.582031 128.785156 " clip-rule="nonzero"/></clipPath><clipPath id="478de3165a"><path d="M 183.582031 171.464844 L 242.179688 171.464844 L 242.179688 173.425781 L 183.582031 173.425781 Z M 183.582031 171.464844 " clip-rule="nonzero"/></clipPath><clipPath id="06f9ad4e3e"><path d="M 183.582031 128.785156 L 185.785156 128.785156 L 185.785156 173.425781 L 183.582031 173.425781 Z M 183.582031 128.785156 " clip-rule="nonzero"/></clipPath><clipPath id="5d6458a849"><path d="M 240.101562 128.785156 L 242.179688 128.785156 L 242.179688 173.425781 L 240.101562 173.425781 Z M 240.101562 128.785156 " clip-rule="nonzero"/></clipPath><clipPath id="3f7bbdc6c9"><path d="M 207.402344 142.175781 L 218.5625 142.175781 L 218.5625 155 L 207.402344 155 Z M 207.402344 142.175781 " clip-rule="nonzero"/></clipPath><clipPath id="2c1bfb3ad1"><path d="M 210.273438 156 L 215 156 L 215 159.847656 L 210.273438 159.847656 Z M 210.273438 156 " clip-rule="nonzero"/></clipPath><clipPath id="b5663c9e8f"><path d="M 0 0.148438 L 256.503906 0.148438 L 256.503906 4 L 0 4 Z M 0 0.148438 " clip-rule="nonzero"/></clipPath><clipPath id="0ea0c17da2"><path d="M 0 183 L 256.503906 183 L 256.503906 186.355469 L 0 186.355469 Z M 0 183 " clip-rule="nonzero"/></clipPath><clipPath id="b2456dabab"><path d="M 0 66 L 256.503906 66 L 256.503906 70 L 0 70 Z M 0 66 " clip-rule="nonzero"/></clipPath><clipPath id="eb9cf8c08d"><path d="M 0 122 L 256.503906 122 L 256.503906 125 L 0 125 Z M 0 122 " clip-rule="nonzero"/></clipPath><clipPath id="54631789c1"><path d="M 0 0.148438 L 3 0.148438 L 3 186.355469 L 0 186.355469 Z M 0 0.148438 " clip-rule="nonzero"/></clipPath><clipPath id="8adc7e336f"><path d="M 253 0.148438 L 256.503906 0.148438 L 256.503906 186.355469 L 253 186.355469 Z M 253 0.148438 " clip-rule="nonzero"/></clipPath><clipPath id="3c0a7315e0"><path d="M 84 0.148438 L 88 0.148438 L 88 186.355469 L 84 186.355469 Z M 84 0.148438 " clip-rule="nonzero"/></clipPath><clipPath id="e01d6b7311"><path d="M 175 0.148438 L 179 0.148438 L 179 186.355469 L 175 186.355469 Z M 175 0.148438 " clip-rule="nonzero"/></clipPath></defs><g clip-path="url(#7cfd3c7f2c)"><path fill="#000000" d="M 50.046875 82.082031 C 41.222656 82.082031 34.0625 89.246094 34.0625 98.078125 C 34.0625 106.90625 41.222656 114.070312 50.046875 114.070312 C 58.871094 114.070312 66.03125 106.90625 66.03125 98.078125 C 66.03125 89.246094 58.871094 82.082031 50.046875 82.082031 Z M 50.046875 82.972656 C 58.390625 82.972656 65.144531 89.730469 65.144531 98.078125 C 65.144531 106.421875 58.390625 113.179688 50.046875 113.179688 C 41.707031 113.179688 34.949219 106.421875 34.949219 98.078125 C 34.949219 89.730469 41.707031 82.972656 50.046875 82.972656 Z M 50.046875 82.972656 " fill-opacity="1" fill-rule="nonzero"/></g><g clip-path="url(#1c7b4ba0e5)"><path fill="#000000" d="M 49.992188 55.480469 C 42.292969 55.480469 35.050781 53.601562 29.59375 50.199219 C 26.921875 48.53125 24.824219 46.589844 23.351562 44.421875 C 21.816406 42.15625 21.039062 39.742188 21.039062 37.253906 C 21.039062 34.765625 21.816406 32.355469 23.351562 30.089844 C 24.824219 27.921875 26.921875 25.980469 29.59375 24.3125 C 35.050781 20.902344 42.292969 19.03125 49.992188 19.03125 C 57.695312 19.03125 64.941406 20.902344 70.394531 24.3125 C 73.066406 25.980469 75.167969 27.921875 76.632812 30.089844 C 78.167969 32.355469 78.949219 34.765625 78.949219 37.253906 C 78.949219 39.742188 78.167969 42.15625 76.632812 44.421875 C 75.167969 46.589844 73.066406 48.53125 70.394531 50.199219 C 64.941406 53.601562 57.695312 55.480469 49.992188 55.480469 Z M 49.992188 19.835938 C 34.472656 19.835938 21.835938 27.648438 21.835938 37.253906 C 21.835938 46.859375 34.472656 54.671875 49.992188 54.671875 C 65.519531 54.671875 78.148438 46.859375 78.148438 37.253906 C 78.148438 27.648438 65.519531 19.835938 49.992188 19.835938 Z M 49.992188 19.835938 " fill-opacity="1" fill-rule="nonzero"/></g><g clip-path="url(#b08858ce6d)"><path fill="#161616" d="M 111.285156 59.261719 L 155.316406 59.261719 L 155.316406 15.199219 L 111.285156 15.199219 Z M 155.976562 59.917969 L 110.625 59.917969 L 110.625 14.542969 L 155.976562 14.542969 L 155.976562 59.917969 " fill-opacity="1" fill-rule="nonzero"/></g><g clip-path="url(#9a80903dd4)"><path fill="#231f20" d="M 226.402344 14.582031 L 200.382812 14.582031 L 187.375 37.230469 L 200.382812 59.882812 L 226.402344 59.882812 L 239.417969 37.230469 Z M 225.871094 58.953125 L 200.917969 58.953125 L 188.433594 37.230469 L 200.917969 15.507812 L 225.878906 15.507812 L 238.355469 37.230469 Z M 225.871094 58.953125 " fill-opacity="1" fill-rule="nonzero"/></g><g clip-path="url(#32e73b18a4)"><path fill="#000000" d="M 49.992188 170.648438 C 42.292969 170.648438 35.050781 168.777344 29.59375 165.367188 C 26.921875 163.699219 24.824219 161.757812 23.351562 159.589844 C 21.816406 157.324219 21.039062 154.914062 21.039062 152.425781 C 21.039062 149.9375 21.816406 147.523438 23.351562 145.257812 C 24.824219 143.089844 26.921875 141.148438 29.59375 139.480469 C 35.050781 136.078125 42.292969 134.199219 49.992188 134.199219 C 57.695312 134.199219 64.941406 136.078125 70.394531 139.480469 C 73.066406 141.148438 75.167969 143.089844 76.632812 145.257812 C 78.167969 147.523438 78.949219 149.9375 78.949219 152.425781 C 78.949219 154.914062 78.167969 157.324219 76.632812 159.589844 C 75.167969 161.757812 73.066406 163.699219 70.394531 165.367188 C 64.941406 168.777344 57.695312 170.648438 49.992188 170.648438 Z M 49.992188 135.007812 C 34.472656 135.007812 21.835938 142.816406 21.835938 152.425781 C 21.835938 162.03125 34.472656 169.84375 49.992188 169.84375 C 65.519531 169.84375 78.148438 162.03125 78.148438 152.425781 C 78.148438 142.816406 65.519531 135.007812 49.992188 135.007812 Z M 49.992188 135.007812 " fill-opacity="1" fill-rule="nonzero"/></g><g clip-path="url(#06ddd7f380)"><path fill="#000000" d="M 50.046875 136.335938 C 41.222656 136.335938 34.0625 143.503906 34.0625 152.332031 C 34.0625 161.160156 41.222656 168.324219 50.046875 168.324219 C 58.871094 168.324219 66.03125 161.160156 66.03125 152.332031 C 66.03125 143.503906 58.871094 136.335938 50.046875 136.335938 Z M 50.046875 137.222656 C 58.390625 137.222656 65.144531 143.980469 65.144531 152.332031 C 65.144531 160.675781 58.390625 167.433594 50.046875 167.433594 C 41.707031 167.433594 34.949219 160.675781 34.949219 152.332031 C 34.949219 143.980469 41.707031 137.222656 50.046875 137.222656 Z M 50.046875 137.222656 " fill-opacity="1" fill-rule="nonzero"/></g><g clip-path="url(#ebec17ebc6)"><path fill="#000000" d="M 133.234375 82.082031 C 124.410156 82.082031 117.25 89.246094 117.25 98.078125 C 117.25 106.90625 124.410156 114.070312 133.234375 114.070312 C 142.054688 114.070312 149.21875 106.90625 149.21875 98.078125 C 149.21875 89.246094 142.054688 82.082031 133.234375 82.082031 Z M 133.234375 82.972656 C 141.574219 82.972656 148.328125 89.730469 148.328125 98.078125 C 148.328125 106.421875 141.574219 113.179688 133.234375 113.179688 C 124.890625 113.179688 118.136719 106.421875 118.136719 98.078125 C 118.136719 89.730469 124.890625 82.972656 133.234375 82.972656 Z M 133.234375 82.972656 " fill-opacity="1" fill-rule="nonzero"/></g><g clip-path="url(#465aaed0e5)"><path fill="#000000" d="M 213.433594 82.082031 C 204.609375 82.082031 197.449219 89.246094 197.449219 98.078125 C 197.449219 106.90625 204.609375 114.070312 213.433594 114.070312 C 222.25 114.070312 229.417969 106.90625 229.417969 98.078125 C 229.417969 89.246094 222.25 82.082031 213.433594 82.082031 Z M 213.433594 82.972656 C 221.773438 82.972656 228.527344 89.730469 228.527344 98.078125 C 228.527344 106.421875 221.773438 113.179688 213.433594 113.179688 C 205.085938 113.179688 198.332031 106.421875 198.332031 98.078125 C 198.332031 89.730469 205.085938 82.972656 213.433594 82.972656 Z M 213.433594 82.972656 " fill-opacity="1" fill-rule="nonzero"/></g><g clip-path="url(#50957a33f5)"><path fill="#161616" d="M 111.285156 174.429688 L 155.316406 174.429688 L 155.316406 130.371094 L 111.285156 130.371094 Z M 155.976562 175.089844 L 110.625 175.089844 L 110.625 129.710938 L 155.976562 129.710938 L 155.976562 175.089844 " fill-opacity="1" fill-rule="nonzero"/></g><g clip-path="url(#0e23834edc)"><path fill="#000000" d="M 133.234375 136.394531 C 124.410156 136.394531 117.25 143.558594 117.25 152.390625 C 117.25 161.21875 124.410156 168.382812 133.234375 168.382812 C 142.054688 168.382812 149.21875 161.21875 149.21875 152.390625 C 149.21875 143.558594 142.054688 136.394531 133.234375 136.394531 Z M 133.234375 137.28125 C 141.574219 137.28125 148.328125 144.039062 148.328125 152.390625 C 148.328125 160.734375 141.574219 167.492188 133.234375 167.492188 C 124.890625 167.492188 118.136719 160.734375 118.136719 152.390625 C 118.136719 144.039062 124.890625 137.28125 133.234375 137.28125 Z M 133.234375 137.28125 " fill-opacity="1" fill-rule="nonzero"/></g><g clip-path="url(#fef5513c57)"><path fill="#ffffff" d="M 183.582031 128.785156 L 242.179688 128.785156 L 242.179688 173.425781 L 183.582031 173.425781 Z M 183.582031 128.785156 " fill-opacity="1" fill-rule="nonzero"/><path fill="#ffffff" d="M 183.582031 128.785156 L 242.179688 128.785156 L 242.179688 173.425781 L 183.582031 173.425781 Z M 183.582031 128.785156 " fill-opacity="1" fill-rule="nonzero"/></g><g clip-path="url(#d1247df8a5)"><path stroke-linecap="butt" transform="matrix(0.930058, 0, 0, 0.930022, 178.409618, 128.785583)" fill="none" stroke-linejoin="miter" d="M 0.000578421 0.999182 L 74.126481 0.999182 " stroke="#000000" stroke-width="2" stroke-opacity="1" stroke-miterlimit="4"/></g><g clip-path="url(#478de3165a)"><path stroke-linecap="butt" transform="matrix(0.930058, 0, 0, 0.930022, 181.943841, 171.566582)" fill="none" stroke-linejoin="miter" d="M 0.0015825 0.999452 L 74.127485 0.999452 " stroke="#000000" stroke-width="2" stroke-opacity="1" stroke-miterlimit="4"/></g><g clip-path="url(#06f9ad4e3e)"><path stroke-linecap="butt" transform="matrix(0, 0.930022, -0.930058, 0, 185.443477, 129.71561)" fill="none" stroke-linejoin="miter" d="M -0.000823882 0.997628 L 48.002934 0.997628 " stroke="#000000" stroke-width="2" stroke-opacity="1" stroke-miterlimit="4"/></g><g clip-path="url(#5d6458a849)"><path stroke-linecap="butt" transform="matrix(0, 0.930022, -0.930058, 0, 242.176997, 129.71561)" fill="none" stroke-linejoin="miter" d="M -0.000823882 1.000908 L 48.002934 1.000908 " stroke="#000000" stroke-width="2" stroke-opacity="1" stroke-miterlimit="4"/></g><g clip-path="url(#3f7bbdc6c9)"><path fill="#000000" d="M 217.820312 144.230469 C 217.34375 143.558594 216.683594 143.054688 215.835938 142.707031 C 214.996094 142.355469 214.027344 142.175781 212.925781 142.175781 C 211.925781 142.175781 211.015625 142.351562 210.1875 142.695312 C 209.367188 143.039062 208.703125 143.566406 208.195312 144.265625 C 207.800781 144.816406 207.546875 145.488281 207.453125 146.28125 C 207.40625 146.617188 207.683594 146.921875 208.042969 146.921875 L 210.253906 146.921875 C 210.539062 146.921875 210.777344 146.726562 210.835938 146.460938 C 210.890625 146.21875 210.984375 146.003906 211.109375 145.820312 C 211.316406 145.523438 211.578125 145.296875 211.898438 145.144531 C 212.214844 144.996094 212.554688 144.917969 212.910156 144.917969 C 213.285156 144.917969 213.617188 144.992188 213.929688 145.144531 C 214.230469 145.289062 214.476562 145.507812 214.660156 145.785156 C 214.835938 146.066406 214.933594 146.390625 214.933594 146.757812 C 214.933594 147.105469 214.847656 147.421875 214.691406 147.703125 C 214.53125 147.984375 214.316406 148.242188 214.046875 148.472656 C 213.773438 148.707031 213.476562 148.921875 213.132812 149.136719 C 212.675781 149.417969 212.277344 149.722656 211.957031 150.070312 C 211.632812 150.410156 211.390625 150.859375 211.214844 151.417969 C 211.050781 151.980469 210.960938 152.722656 210.953125 153.65625 L 210.953125 154.125 C 210.953125 154.445312 211.226562 154.707031 211.550781 154.707031 L 213.5 154.707031 C 213.828125 154.707031 214.097656 154.449219 214.097656 154.125 L 214.097656 153.65625 C 214.101562 153.136719 214.171875 152.691406 214.304688 152.335938 C 214.441406 151.980469 214.652344 151.664062 214.921875 151.386719 C 215.203125 151.113281 215.558594 150.855469 215.996094 150.601562 C 216.515625 150.296875 216.964844 149.964844 217.34375 149.589844 C 217.71875 149.21875 218.019531 148.789062 218.234375 148.300781 C 218.449219 147.820312 218.558594 147.257812 218.558594 146.632812 C 218.542969 145.695312 218.296875 144.890625 217.820312 144.230469 Z M 217.820312 144.230469 " fill-opacity="1" fill-rule="nonzero"/></g><g clip-path="url(#2c1bfb3ad1)"><path fill="#000000" d="M 212.589844 156.007812 C 212.035156 156.007812 211.5625 156.191406 211.175781 156.570312 C 210.789062 156.941406 210.59375 157.398438 210.601562 157.917969 C 210.59375 158.445312 210.789062 158.90625 211.175781 159.28125 C 211.5625 159.664062 212.035156 159.847656 212.589844 159.847656 C 212.9375 159.847656 213.265625 159.761719 213.558594 159.585938 C 213.859375 159.40625 214.097656 159.175781 214.285156 158.886719 C 214.46875 158.589844 214.566406 158.273438 214.570312 157.917969 C 214.558594 157.390625 214.359375 156.941406 213.964844 156.570312 C 213.566406 156.191406 213.109375 156.007812 212.589844 156.007812 Z M 212.589844 156.007812 " fill-opacity="1" fill-rule="nonzero"/></g><g clip-path="url(#b5663c9e8f)"><path stroke-linecap="butt" transform="matrix(0.74782, 0, 0, 0.74782, -9.091193, 0.1468)" fill="none" stroke-linejoin="miter" d="M 0.00180436 1.997574 L 375.311587 1.997574 " stroke="#000000" stroke-width="4" stroke-opacity="1" stroke-miterlimit="4"/></g><g clip-path="url(#0ea0c17da2)"><path stroke-linecap="butt" transform="matrix(0.74782, 0, 0, 0.74782, 0, 183.362635)" fill="none" stroke-linejoin="miter" d="M 0 2.001471 L 375.315006 2.001471 " stroke="#000000" stroke-width="4" stroke-opacity="1" stroke-miterlimit="4"/></g><g clip-path="url(#b2456dabab)"><path stroke-linecap="butt" transform="matrix(0.74782, 0.000000000000000029, -0.000000000000000029, 0.74782, -7.010687, 66.337435)" fill="none" stroke-linejoin="miter" d="M -0.00137996 1.998605 L 360.959398 1.998605 " stroke="#000000" stroke-width="4" stroke-opacity="1" stroke-miterlimit="4"/></g><g clip-path="url(#eb9cf8c08d)"><path stroke-linecap="butt" transform="matrix(0.74782, 0, 0, 0.74782, -15.373313, 121.998761)" fill="none" stroke-linejoin="miter" d="M -0.0022553 2.002264 L 375.312751 2.002264 " stroke="#000000" stroke-width="4" stroke-opacity="1" stroke-miterlimit="4"/></g><g clip-path="url(#54631789c1)"><path stroke-linecap="butt" transform="matrix(0, -0.74782, 0.74782, 0, -0.00297822, 191.88746)" fill="none" stroke-linejoin="miter" d="M 0.000990604 1.999366 L 253.90054 1.999366 " stroke="#000000" stroke-width="4" stroke-opacity="1" stroke-miterlimit="4"/></g><g clip-path="url(#8adc7e336f)"><path stroke-linecap="butt" transform="matrix(0, -0.74782, 0.74782, 0, 253.62248, 191.509838)" fill="none" stroke-linejoin="miter" d="M -0.00251485 1.998754 L 253.897034 1.998754 " stroke="#000000" stroke-width="4" stroke-opacity="1" stroke-miterlimit="4"/></g><g clip-path="url(#3c0a7315e0)"><path stroke-linecap="butt" transform="matrix(0, -0.74782, 0.74782, 0, 84.24442, 191.88746)" fill="none" stroke-linejoin="miter" d="M 0.000990604 1.997622 L 253.90054 1.997622 " stroke="#000000" stroke-width="4" stroke-opacity="1" stroke-miterlimit="4"/></g><g clip-path="url(#e01d6b7311)"><path stroke-linecap="butt" transform="matrix(0, -0.74782, 0.74782, 0, 175.248664, 191.509838)" fill="none" stroke-linejoin="miter" d="M -0.00251485 2.002393 L 253.897034 2.002393 " stroke="#000000" stroke-width="4" stroke-opacity="1" stroke-miterlimit="4"/></g></svg>