<svg xmlns="http://www.w3.org/2000/svg" xmlns:xlink="http://www.w3.org/1999/xlink" width="343" zoomAndPan="magnify" viewBox="0 0 257.25 186.749995" height="249" preserveAspectRatio="xMidYMid meet" version="1.0"><defs><clipPath id="f293f534e5"><path d="M 0 0.148438 L 256.503906 0.148438 L 256.503906 184.859375 L 0 184.859375 Z M 0 0.148438 " clip-rule="nonzero"/></clipPath><clipPath id="bc9901a445"><path d="M 135.535156 62.179688 L 230.125 62.179688 L 230.125 134.558594 L 135.535156 134.558594 Z M 135.535156 62.179688 " clip-rule="nonzero"/></clipPath><clipPath id="1d3a4377a9"><path d="M 135.535156 62.179688 L 230.125 62.179688 L 230.125 66 L 135.535156 66 Z M 135.535156 62.179688 " clip-rule="nonzero"/></clipPath><clipPath id="139fe3cfa1"><path d="M 135.535156 131 L 230.125 131 L 230.125 134.558594 L 135.535156 134.558594 Z M 135.535156 131 " clip-rule="nonzero"/></clipPath><clipPath id="2a1ab6659b"><path d="M 135.535156 62.179688 L 139 62.179688 L 139 134.558594 L 135.535156 134.558594 Z M 135.535156 62.179688 " clip-rule="nonzero"/></clipPath><clipPath id="1a240934d2"><path d="M 227 62.179688 L 230.125 62.179688 L 230.125 134.558594 L 227 134.558594 Z M 227 62.179688 " clip-rule="nonzero"/></clipPath><clipPath id="91d66a8465"><path d="M 174 83.894531 L 192 83.894531 L 192 105 L 174 105 Z M 174 83.894531 " clip-rule="nonzero"/></clipPath><clipPath id="6f7151177e"><path d="M 179 106 L 186 106 L 186 112.539062 L 179 112.539062 Z M 179 106 " clip-rule="nonzero"/></clipPath></defs><g clip-path="url(#f293f534e5)"><path fill="#231f20" d="M 197.601562 184.238281 C 197.601562 184.238281 193.035156 184.238281 185.570312 184.238281 L 181.789062 174.449219 L 192.738281 174.449219 C 192.75 174.449219 192.761719 174.449219 192.773438 174.449219 L 194.347656 174.449219 L 199.066406 184.238281 C 198.117188 184.238281 197.601562 184.238281 197.601562 184.238281 Z M 59.3125 184.238281 L 57.878906 184.238281 L 62.574219 174.449219 L 64.140625 174.449219 C 64.152344 174.449219 64.164062 174.449219 64.171875 174.449219 L 75.128906 174.449219 L 71.375 184.238281 C 63.894531 184.238281 59.320312 184.238281 59.3125 184.238281 Z M 190.683594 165.402344 L 202.34375 165.402344 L 207.214844 173.816406 L 194.742188 173.816406 Z M 178.296875 165.402344 L 188.492188 165.402344 C 188.5 165.402344 188.511719 165.402344 188.519531 165.402344 L 189.984375 165.402344 L 194.042969 173.816406 L 192.738281 173.816406 C 192.726562 173.816406 192.71875 173.816406 192.707031 173.820312 L 181.546875 173.820312 Z M 168.347656 173.820312 L 165.910156 165.402344 L 177.617188 165.402344 L 180.867188 173.820312 Z M 155.277344 174.449219 L 167.875 174.449219 L 170.710938 184.238281 C 166.5 184.238281 161.949219 184.238281 157.175781 184.238281 Z M 142.023438 174.449219 L 154.636719 174.449219 L 156.53125 184.238281 C 152.164062 184.238281 147.617188 184.238281 142.976562 184.238281 Z M 128.777344 174.449219 L 141.390625 174.449219 L 142.34375 184.238281 C 137.878906 184.238281 133.335938 184.238281 128.789062 184.238281 Z M 115.53125 174.449219 L 128.144531 174.449219 L 128.15625 184.238281 C 123.609375 184.238281 119.066406 184.238281 114.601562 184.238281 Z M 102.285156 174.449219 L 114.894531 174.449219 L 113.964844 184.238281 C 109.328125 184.238281 104.78125 184.238281 100.414062 184.238281 Z M 89.042969 174.449219 L 101.640625 174.449219 L 99.769531 184.238281 C 94.996094 184.238281 90.445312 184.238281 86.230469 184.238281 Z M 79.277344 165.402344 L 90.988281 165.402344 L 88.566406 173.820312 L 76.050781 173.820312 Z M 66.914062 165.402344 C 67.871094 165.402344 68.390625 165.402344 68.394531 165.402344 L 78.601562 165.402344 L 75.371094 173.820312 L 64.210938 173.820312 C 64.199219 173.816406 64.1875 173.816406 64.175781 173.816406 L 62.875 173.816406 Z M 49.703125 173.816406 L 54.550781 165.402344 C 59.746094 165.402344 63.859375 165.402344 66.210938 165.402344 L 62.175781 173.816406 Z M 22.082031 129.054688 L 30.257812 129.054688 L 26.113281 132.976562 L 17.550781 132.976562 Z M 50.890625 103.839844 L 56.910156 103.839844 L 55.078125 105.570312 L 48.910156 105.570312 Z M 56.425781 5.277344 L 51.089844 5.277344 L 51.089844 -0.714844 L 56.367188 -0.714844 Z M 62.941406 5.277344 L 57.058594 5.277344 L 57 -0.714844 L 62.886719 -0.714844 Z M 69.453125 5.277344 L 63.574219 5.277344 L 63.519531 -0.714844 L 69.40625 -0.714844 Z M 75.96875 5.277344 L 70.085938 5.277344 L 70.039062 -0.714844 L 75.921875 -0.714844 Z M 82.480469 5.277344 L 76.601562 5.277344 L 76.554688 -0.714844 L 82.441406 -0.714844 Z M 88.992188 5.277344 L 83.113281 5.277344 L 83.074219 -0.714844 L 88.960938 -0.714844 Z M 95.507812 5.277344 L 89.625 5.277344 L 89.59375 -0.714844 L 95.480469 -0.714844 Z M 102.019531 5.277344 L 96.136719 5.277344 L 96.113281 -0.714844 L 101.996094 -0.714844 Z M 108.53125 5.277344 L 102.652344 5.277344 L 102.628906 -0.714844 L 108.515625 -0.714844 Z M 115.042969 5.277344 L 109.164062 5.277344 L 109.148438 -0.714844 L 115.03125 -0.714844 Z M 121.558594 5.277344 L 115.675781 5.277344 L 115.664062 -0.714844 L 121.550781 -0.714844 Z M 128.070312 5.277344 L 122.191406 5.277344 L 122.183594 -0.714844 L 128.070312 -0.714844 Z M 134.582031 5.277344 L 128.703125 5.277344 L 128.703125 -0.714844 L 134.589844 -0.714844 Z M 141.097656 5.277344 L 135.214844 5.277344 L 135.222656 -0.714844 L 141.109375 -0.714844 Z M 147.609375 5.277344 L 141.726562 5.277344 L 141.738281 -0.714844 L 147.625 -0.714844 Z M 154.121094 5.277344 L 148.242188 5.277344 L 148.257812 -0.714844 L 154.144531 -0.714844 Z M 160.632812 5.277344 L 154.753906 5.277344 L 154.773438 -0.714844 L 160.660156 -0.714844 Z M 167.148438 5.277344 L 161.265625 5.277344 L 161.292969 -0.714844 L 167.179688 -0.714844 Z M 173.660156 5.277344 L 167.78125 5.277344 L 167.8125 -0.714844 L 173.699219 -0.714844 Z M 180.171875 5.277344 L 174.292969 5.277344 L 174.332031 -0.714844 L 180.214844 -0.714844 Z M 186.6875 5.277344 L 180.804688 5.277344 L 180.847656 -0.714844 L 186.734375 -0.714844 Z M 193.199219 5.277344 L 187.316406 5.277344 L 187.367188 -0.714844 L 193.253906 -0.714844 Z M 199.710938 5.277344 L 193.832031 5.277344 L 193.886719 -0.714844 L 199.773438 -0.714844 Z M 205.703125 5.277344 L 200.34375 5.277344 L 200.402344 -0.714844 L 205.703125 -0.714844 Z M 201.667969 105.570312 L 199.832031 103.839844 L 205.902344 103.839844 L 207.863281 105.570312 Z M 204.367188 108.121094 L 202.335938 106.203125 L 208.582031 106.203125 L 210.753906 108.121094 Z M 207.265625 110.859375 L 205.035156 108.753906 L 211.46875 108.753906 L 213.855469 110.859375 Z M 210.394531 113.8125 L 207.9375 111.488281 L 214.574219 111.488281 L 217.203125 113.8125 Z M 213.785156 117.011719 L 211.066406 114.441406 L 217.917969 114.441406 L 220.832031 117.011719 Z M 217.472656 120.488281 L 214.457031 117.640625 L 221.546875 117.640625 L 224.773438 120.488281 Z M 221.484375 124.277344 L 218.140625 121.121094 L 225.488281 121.121094 L 229.066406 124.277344 Z M 225.878906 128.421875 L 222.152344 124.90625 L 229.78125 124.90625 L 233.765625 128.421875 Z M 230.703125 132.976562 L 226.550781 129.054688 L 234.484375 129.054688 L 239.015625 132.976562 Z M 236.035156 138.007812 L 231.371094 133.609375 L 239.746094 133.609375 L 244.832031 138.007812 Z M 241.957031 143.597656 L 236.707031 138.640625 L 245.566406 138.640625 L 251.292969 143.597656 Z M 248.5625 149.832031 L 242.628906 144.230469 L 252.023438 144.230469 L 258.5 149.832031 Z M 255.988281 156.839844 L 249.234375 150.464844 L 259.230469 150.464844 L 266.59375 156.839844 C 264.980469 156.839844 261.152344 156.839844 255.988281 156.839844 Z M 264.386719 164.769531 L 256.65625 157.472656 L 267.328125 157.472656 L 275.757812 164.769531 C 274.070312 164.769531 269.960938 164.769531 264.386719 164.769531 Z M 265.058594 165.402344 L 276.492188 165.402344 L 286.21875 173.816406 L 273.972656 173.816406 Z M 252.660156 165.402344 L 264.136719 165.402344 L 273.054688 173.816406 L 260.765625 173.816406 Z M 240.261719 165.402344 L 251.78125 165.402344 L 259.886719 173.816406 L 247.558594 173.816406 Z M 227.863281 165.402344 L 239.421875 165.402344 L 246.722656 173.816406 L 234.351562 173.816406 Z M 215.46875 165.402344 L 227.066406 165.402344 L 233.554688 173.816406 L 221.148438 173.816406 Z M 214.707031 165.402344 L 220.386719 173.816406 L 207.945312 173.816406 L 203.074219 165.402344 Z M 198.488281 157.472656 L 209.355469 157.472656 L 214.28125 164.769531 C 210.089844 164.769531 206.171875 164.769531 202.710938 164.769531 Z M 186.859375 157.472656 L 197.757812 157.472656 L 201.980469 164.769531 C 196.738281 164.769531 192.632812 164.769531 190.378906 164.769531 Z M 175.234375 157.472656 L 184.769531 157.472656 C 184.777344 157.472656 184.785156 157.472656 184.792969 157.472656 L 186.15625 157.472656 L 189.679688 164.769531 C 188.890625 164.769531 188.464844 164.769531 188.460938 164.769531 C 188.460938 164.769531 184.511719 164.769531 178.050781 164.769531 Z M 163.609375 157.472656 L 174.558594 157.472656 L 177.375 164.769531 C 174.050781 164.769531 170.109375 164.769531 165.726562 164.769531 Z M 153.402344 164.769531 L 151.992188 157.472656 L 162.953125 157.472656 L 165.066406 164.769531 C 161.433594 164.769531 157.515625 164.769531 153.402344 164.769531 Z M 153.523438 165.402344 L 165.25 165.402344 L 167.691406 173.820312 L 155.15625 173.820312 Z M 141.144531 165.402344 L 152.882812 165.402344 L 154.511719 173.820312 L 141.964844 173.820312 Z M 128.765625 165.402344 L 140.507812 165.402344 L 141.328125 173.820312 L 128.773438 173.820312 Z M 116.386719 165.402344 L 128.132812 165.402344 L 128.140625 173.820312 L 115.589844 173.820312 Z M 104.015625 165.402344 L 115.753906 165.402344 L 114.953125 173.820312 L 102.40625 173.820312 Z M 103.371094 165.402344 L 101.761719 173.820312 L 89.226562 173.820312 L 91.644531 165.402344 Z M 93.921875 157.472656 L 104.886719 157.472656 L 103.492188 164.769531 C 99.378906 164.769531 95.460938 164.769531 91.828125 164.769531 Z M 82.320312 157.472656 L 93.265625 157.472656 L 91.167969 164.769531 C 86.789062 164.769531 82.84375 164.769531 79.519531 164.769531 Z M 70.71875 157.472656 C 71.605469 157.472656 72.089844 157.472656 72.089844 157.472656 L 81.640625 157.472656 L 78.84375 164.769531 C 72.363281 164.769531 68.398438 164.769531 68.394531 164.769531 L 67.214844 164.769531 Z M 59.117188 157.472656 C 63.964844 157.472656 67.808594 157.472656 70.015625 157.472656 L 66.515625 164.769531 L 54.914062 164.769531 Z M 42.613281 164.769531 L 47.519531 157.472656 C 51.445312 157.472656 55.128906 157.472656 58.386719 157.472656 L 54.183594 164.769531 Z M 42.1875 165.402344 C 46.394531 165.402344 50.335938 165.402344 53.820312 165.402344 L 48.976562 173.816406 L 36.53125 173.816406 Z M 29.828125 165.402344 C 33.800781 165.402344 37.710938 165.402344 41.425781 165.402344 L 35.769531 173.816406 L 23.363281 173.816406 Z M 17.472656 165.402344 C 21.296875 165.402344 25.1875 165.402344 29.03125 165.402344 L 22.566406 173.816406 L 10.195312 173.816406 Z M 5.113281 165.402344 C 8.78125 165.402344 12.667969 165.402344 16.636719 165.402344 L 9.359375 173.816406 L -2.972656 173.816406 Z M 4.238281 165.402344 L -3.847656 173.816406 L -16.136719 173.816406 L -7.242188 165.402344 C -3.855469 165.402344 0.0390625 165.402344 4.238281 165.402344 Z M 11.855469 157.472656 L 4.84375 164.769531 L -6.570312 164.769531 L 1.140625 157.472656 C 4.304688 157.472656 7.9375 157.472656 11.855469 157.472656 Z M 18.585938 150.464844 L 12.464844 156.839844 L 1.808594 156.839844 L 8.546875 150.464844 Z M 24.578125 144.230469 L 19.195312 149.832031 L 9.214844 149.832031 L 15.136719 144.230469 Z M 29.945312 138.640625 L 25.183594 143.597656 L 15.804688 143.597656 L 21.042969 138.640625 Z M 34.785156 133.609375 L 30.554688 138.007812 L 21.710938 138.007812 L 26.363281 133.609375 Z M 39.160156 129.054688 L 35.390625 132.976562 L 27.03125 132.976562 L 31.175781 129.054688 Z M 43.144531 124.90625 L 39.765625 128.421875 L 31.84375 128.421875 L 35.558594 124.90625 Z M 46.78125 121.121094 L 43.75 124.277344 L 36.230469 124.277344 L 39.5625 121.121094 Z M 50.125 117.640625 L 47.390625 120.488281 L 40.230469 120.488281 L 43.238281 117.640625 Z M 53.199219 114.441406 L 50.730469 117.011719 L 43.90625 117.011719 L 46.621094 114.441406 Z M 56.035156 111.488281 L 53.804688 113.8125 L 47.289062 113.8125 L 49.742188 111.488281 Z M 58.664062 108.753906 L 56.640625 110.859375 L 50.410156 110.859375 L 52.636719 108.753906 Z M 61.113281 106.203125 L 59.273438 108.121094 L 53.304688 108.121094 L 55.328125 106.203125 Z M 63.386719 103.839844 L 61.71875 105.570312 L 56 105.570312 L 57.828125 103.839844 Z M 57.347656 97.394531 L 57.40625 103.207031 L 51.089844 103.207031 L 51.089844 97.394531 Z M 57.28125 90.933594 L 57.339844 96.761719 L 51.089844 96.761719 L 51.089844 90.933594 Z M 57.21875 84.464844 L 57.277344 90.304688 L 51.089844 90.304688 L 51.089844 84.464844 Z M 57.152344 77.984375 L 57.210938 83.832031 L 51.089844 83.832031 L 51.089844 77.984375 Z M 57.089844 71.492188 L 57.148438 77.355469 L 51.089844 77.355469 L 51.089844 71.492188 Z M 57.023438 64.988281 L 57.082031 70.859375 L 51.089844 70.859375 L 51.089844 64.988281 Z M 56.957031 58.472656 L 57.015625 64.355469 L 51.089844 64.355469 L 51.089844 58.472656 Z M 56.894531 51.945312 L 56.953125 57.839844 L 51.089844 57.839844 L 51.089844 51.945312 Z M 56.828125 45.40625 L 56.886719 51.3125 L 51.089844 51.3125 L 51.089844 45.40625 Z M 56.761719 38.851562 L 56.820312 44.773438 L 51.089844 44.773438 L 51.089844 38.851562 Z M 56.699219 32.289062 L 56.757812 38.222656 L 51.089844 38.222656 L 51.089844 32.289062 Z M 56.632812 25.710938 L 56.691406 31.65625 L 51.089844 31.65625 L 51.089844 25.710938 Z M 56.566406 19.125 L 56.625 25.078125 L 51.089844 25.078125 L 51.089844 19.125 Z M 56.5 12.523438 L 56.558594 18.492188 L 51.089844 18.492188 L 51.089844 12.523438 Z M 56.496094 11.890625 L 51.089844 11.890625 L 51.089844 5.910156 L 56.433594 5.910156 Z M 63 11.890625 L 57.128906 11.890625 L 57.066406 5.910156 L 62.945312 5.910156 Z M 69.507812 11.890625 L 63.632812 11.890625 L 63.578125 5.910156 L 69.460938 5.910156 Z M 76.015625 11.890625 L 70.140625 11.890625 L 70.09375 5.910156 L 75.972656 5.910156 Z M 82.523438 11.890625 L 76.648438 11.890625 L 76.605469 5.910156 L 82.484375 5.910156 Z M 89.03125 11.890625 L 83.152344 11.890625 L 83.117188 5.910156 L 88.996094 5.910156 Z M 95.535156 11.890625 L 89.660156 11.890625 L 89.628906 5.910156 L 95.507812 5.910156 Z M 102.023438 5.910156 L 102.042969 11.890625 L 96.167969 11.890625 L 96.140625 5.910156 Z M 108.550781 11.890625 L 102.675781 11.890625 L 102.652344 5.910156 L 108.53125 5.910156 Z M 115.054688 11.890625 L 109.179688 11.890625 L 109.164062 5.910156 L 115.042969 5.910156 Z M 121.5625 11.890625 L 115.6875 11.890625 L 115.675781 5.910156 L 121.558594 5.910156 Z M 128.070312 11.890625 L 122.195312 11.890625 L 122.191406 5.910156 L 128.070312 5.910156 Z M 134.578125 11.890625 L 128.703125 11.890625 L 128.703125 5.910156 L 134.582031 5.910156 Z M 141.082031 11.890625 L 135.207031 11.890625 L 135.214844 5.910156 L 141.097656 5.910156 Z M 147.589844 11.890625 L 141.714844 11.890625 L 141.726562 5.910156 L 147.605469 5.910156 Z M 154.097656 11.890625 L 148.222656 11.890625 L 148.238281 5.910156 L 154.117188 5.910156 Z M 160.605469 11.890625 L 154.730469 11.890625 L 154.75 5.910156 L 160.632812 5.910156 Z M 167.109375 11.890625 L 161.238281 11.890625 L 161.265625 5.910156 L 167.144531 5.910156 Z M 173.617188 11.890625 L 167.742188 11.890625 L 167.777344 5.910156 L 173.65625 5.910156 Z M 180.125 11.890625 L 174.25 11.890625 L 174.289062 5.910156 L 180.167969 5.910156 Z M 186.632812 11.890625 L 180.757812 11.890625 L 180.800781 5.910156 L 186.679688 5.910156 Z M 193.140625 11.890625 L 187.265625 11.890625 L 187.3125 5.910156 L 193.191406 5.910156 Z M 199.644531 11.890625 L 193.773438 11.890625 L 193.824219 5.910156 L 199.707031 5.910156 Z M 200.277344 11.890625 L 200.339844 5.910156 L 205.703125 5.910156 L 205.703125 11.890625 Z M 200.210938 18.492188 L 200.273438 12.523438 L 205.703125 12.523438 L 205.703125 18.492188 Z M 200.148438 25.078125 L 200.207031 19.125 L 205.703125 19.125 L 205.703125 25.078125 Z M 200.082031 31.65625 L 200.140625 25.710938 L 205.703125 25.710938 L 205.703125 31.65625 Z M 200.015625 38.222656 L 200.078125 32.289062 L 205.703125 32.289062 L 205.703125 38.222656 Z M 199.953125 44.773438 L 200.011719 38.851562 L 205.703125 38.851562 L 205.703125 44.773438 Z M 199.886719 51.3125 L 199.945312 45.40625 L 205.703125 45.40625 L 205.703125 51.3125 Z M 199.824219 57.839844 L 199.882812 51.945312 L 205.703125 51.945312 L 205.703125 57.839844 Z M 199.757812 64.355469 L 199.816406 58.472656 L 205.703125 58.472656 L 205.703125 64.355469 Z M 199.691406 70.859375 L 199.75 64.988281 L 205.703125 64.988281 L 205.703125 70.859375 Z M 199.628906 77.355469 L 199.6875 71.492188 L 205.703125 71.492188 L 205.703125 77.355469 Z M 199.5625 83.832031 L 199.621094 77.984375 L 205.703125 77.984375 L 205.703125 83.832031 Z M 199.5 90.304688 L 199.558594 84.464844 L 205.703125 84.464844 L 205.703125 90.304688 Z M 199.433594 96.761719 L 199.492188 90.933594 L 205.703125 90.933594 L 205.703125 96.761719 Z M 199.371094 103.207031 L 199.429688 97.394531 L 205.703125 97.394531 L 205.703125 103.207031 Z M 195.023438 105.570312 L 193.355469 103.839844 L 198.910156 103.839844 L 200.746094 105.570312 Z M 197.476562 108.121094 L 195.632812 106.203125 L 201.414062 106.203125 L 203.445312 108.121094 Z M 200.117188 110.859375 L 198.089844 108.753906 L 204.113281 108.753906 L 206.347656 110.859375 Z M 202.960938 113.8125 L 200.726562 111.488281 L 207.015625 111.488281 L 209.472656 113.8125 Z M 206.042969 117.011719 L 203.570312 114.441406 L 210.144531 114.441406 L 212.867188 117.011719 Z M 209.394531 120.488281 L 206.652344 117.640625 L 213.535156 117.640625 L 216.550781 120.488281 Z M 213.042969 124.277344 L 210.003906 121.121094 L 217.21875 121.121094 L 220.5625 124.277344 Z M 217.039062 128.421875 L 213.648438 124.90625 L 221.234375 124.90625 L 224.957031 128.421875 Z M 221.425781 132.976562 L 217.648438 129.054688 L 225.628906 129.054688 L 229.78125 132.976562 Z M 226.273438 138.007812 L 222.03125 133.609375 L 230.453125 133.609375 L 235.113281 138.007812 Z M 231.65625 143.597656 L 226.882812 138.640625 L 235.785156 138.640625 L 241.035156 143.597656 Z M 237.664062 149.832031 L 232.265625 144.230469 L 241.707031 144.230469 L 247.640625 149.832031 Z M 244.410156 156.839844 L 238.273438 150.464844 L 248.3125 150.464844 L 255.066406 156.839844 C 251.90625 156.839844 248.292969 156.839844 244.410156 156.839844 Z M 245.023438 157.472656 L 255.734375 157.472656 L 263.464844 164.769531 C 260.085938 164.769531 256.214844 164.769531 252.050781 164.769531 Z M 233.386719 157.472656 L 244.144531 157.472656 L 251.171875 164.769531 C 247.519531 164.769531 243.65625 164.769531 239.710938 164.769531 Z M 221.75 157.472656 L 232.546875 157.472656 L 238.875 164.769531 C 235.070312 164.769531 231.195312 164.769531 227.378906 164.769531 Z M 220.953125 157.472656 L 226.578125 164.769531 C 222.625 164.769531 218.738281 164.769531 215.042969 164.769531 L 210.121094 157.472656 Z M 205.394531 150.464844 L 215.554688 150.464844 L 220.464844 156.839844 C 216.773438 156.839844 213.144531 156.839844 209.695312 156.839844 Z M 194.433594 150.464844 L 204.628906 150.464844 L 208.929688 156.839844 C 205.019531 156.839844 201.355469 156.839844 198.121094 156.839844 Z M 183.480469 150.464844 L 193.707031 150.464844 L 197.394531 156.839844 C 192.5 156.839844 188.664062 156.839844 186.554688 156.839844 Z M 172.527344 150.464844 L 181.480469 150.464844 C 181.480469 150.464844 181.480469 150.464844 181.484375 150.464844 L 182.78125 150.464844 L 185.855469 156.839844 C 185.136719 156.839844 184.75 156.839844 184.75 156.839844 C 184.75 156.839844 181.046875 156.839844 174.992188 156.839844 Z M 161.578125 150.464844 L 171.851562 150.464844 L 174.3125 156.839844 C 171.203125 156.839844 167.519531 156.839844 163.425781 156.839844 Z M 150.632812 150.464844 L 160.921875 150.464844 L 162.769531 156.839844 C 159.375 156.839844 155.707031 156.839844 151.867188 156.839844 Z M 140.308594 156.839844 L 139.6875 150.464844 L 149.988281 150.464844 L 151.222656 156.839844 C 147.703125 156.839844 144.042969 156.839844 140.308594 156.839844 Z M 140.371094 157.472656 L 151.347656 157.472656 L 152.757812 164.769531 C 148.996094 164.769531 145.078125 164.769531 141.082031 164.769531 Z M 128.753906 157.472656 L 139.734375 157.472656 L 140.445312 164.769531 C 136.597656 164.769531 132.683594 164.769531 128.765625 164.769531 Z M 117.140625 157.472656 L 128.121094 157.472656 L 128.132812 164.769531 C 124.210938 164.769531 120.296875 164.769531 116.449219 164.769531 Z M 116.507812 157.472656 L 115.8125 164.769531 C 111.816406 164.769531 107.902344 164.769531 104.136719 164.769531 L 105.53125 157.472656 Z M 106.871094 150.464844 L 117.171875 150.464844 L 116.566406 156.839844 C 112.832031 156.839844 109.171875 156.839844 105.652344 156.839844 Z M 95.9375 150.464844 L 106.226562 150.464844 L 105.007812 156.839844 C 101.164062 156.839844 97.5 156.839844 94.105469 156.839844 Z M 85.007812 150.464844 L 95.277344 150.464844 L 93.445312 156.839844 C 89.355469 156.839844 85.671875 156.839844 82.5625 156.839844 Z M 74.078125 150.464844 L 75.355469 150.464844 C 75.359375 150.464844 75.359375 150.464844 75.359375 150.464844 L 84.328125 150.464844 L 81.882812 156.839844 C 75.8125 156.839844 72.097656 156.839844 72.09375 156.839844 L 71.019531 156.839844 Z M 63.152344 150.464844 L 73.378906 150.464844 L 70.320312 156.839844 L 59.480469 156.839844 Z M 52.226562 150.464844 L 62.421875 150.464844 L 58.753906 156.839844 L 47.945312 156.839844 Z M 36.410156 156.839844 L 41.304688 150.464844 L 51.464844 150.464844 L 47.183594 156.839844 Z M 35.921875 157.472656 C 39.632812 157.472656 43.285156 157.472656 46.757812 157.472656 L 41.851562 164.769531 L 30.316406 164.769531 Z M 24.328125 157.472656 C 27.898438 157.472656 31.535156 157.472656 35.125 157.472656 L 29.519531 164.769531 L 18.019531 164.769531 Z M 23.492188 157.472656 L 17.183594 164.769531 L 5.722656 164.769531 L 12.734375 157.472656 C 16.160156 157.472656 19.785156 157.472656 23.492188 157.472656 Z M 29.546875 150.464844 L 24.039062 156.839844 L 13.339844 156.839844 L 19.464844 150.464844 Z M 34.9375 144.230469 L 30.09375 149.832031 L 20.070312 149.832031 L 25.453125 144.230469 Z M 39.773438 138.640625 L 35.484375 143.597656 L 26.0625 143.597656 L 30.824219 138.640625 Z M 44.121094 133.609375 L 40.320312 138.007812 L 31.429688 138.007812 L 35.660156 133.609375 Z M 48.058594 129.054688 L 44.667969 132.976562 L 36.265625 132.976562 L 40.035156 129.054688 Z M 51.644531 124.90625 L 48.605469 128.421875 L 40.640625 128.421875 L 44.019531 124.90625 Z M 54.917969 121.121094 L 52.191406 124.277344 L 44.625 124.277344 L 47.65625 121.121094 Z M 57.925781 117.640625 L 55.464844 120.488281 L 48.265625 120.488281 L 51 117.640625 Z M 60.691406 114.441406 L 58.472656 117.011719 L 51.609375 117.011719 L 54.074219 114.441406 Z M 63.246094 111.488281 L 61.238281 113.8125 L 54.679688 113.8125 L 56.910156 111.488281 Z M 65.613281 108.753906 L 63.792969 110.859375 L 57.519531 110.859375 L 59.542969 108.753906 Z M 67.816406 106.203125 L 66.160156 108.121094 L 60.148438 108.121094 L 61.988281 106.203125 Z M 69.859375 103.839844 L 68.363281 105.570312 L 62.597656 105.570312 L 64.261719 103.839844 Z M 63.773438 97.394531 L 63.828125 103.207031 L 58.035156 103.207031 L 57.980469 97.394531 Z M 63.71875 90.933594 L 63.769531 96.761719 L 57.972656 96.761719 L 57.914062 90.933594 Z M 63.660156 84.464844 L 63.710938 90.304688 L 57.90625 90.304688 L 57.851562 84.464844 Z M 63.601562 77.984375 L 63.652344 83.832031 L 57.84375 83.832031 L 57.785156 77.984375 Z M 63.539062 71.492188 L 63.59375 77.355469 L 57.78125 77.355469 L 57.71875 71.492188 Z M 63.480469 64.988281 L 63.535156 70.859375 L 57.714844 70.859375 L 57.65625 64.988281 Z M 63.421875 58.472656 L 63.476562 64.355469 L 57.648438 64.355469 L 57.589844 58.472656 Z M 57.527344 51.945312 L 63.363281 51.945312 L 63.417969 57.839844 L 57.585938 57.839844 Z M 63.304688 45.40625 L 63.359375 51.3125 L 57.519531 51.3125 L 57.460938 45.40625 Z M 63.246094 38.851562 L 63.300781 44.773438 L 57.453125 44.773438 L 57.394531 38.851562 Z M 63.183594 32.289062 L 63.238281 38.222656 L 57.390625 38.222656 L 57.332031 32.289062 Z M 63.125 25.710938 L 63.179688 31.65625 L 57.324219 31.65625 L 57.265625 25.710938 Z M 63.066406 19.125 L 63.121094 25.078125 L 57.257812 25.078125 L 57.199219 19.125 Z M 63.0625 18.492188 L 57.191406 18.492188 L 57.132812 12.523438 L 63.007812 12.523438 Z M 69.5625 18.492188 L 63.691406 18.492188 L 63.636719 12.523438 L 69.511719 12.523438 Z M 76.0625 18.492188 L 70.195312 18.492188 L 70.144531 12.523438 L 76.019531 12.523438 Z M 82.5625 18.492188 L 76.695312 18.492188 L 76.652344 12.523438 L 82.527344 12.523438 Z M 89.066406 18.492188 L 83.195312 18.492188 L 83.160156 12.523438 L 89.035156 12.523438 Z M 95.566406 18.492188 L 89.699219 18.492188 L 89.664062 12.523438 L 95.539062 12.523438 Z M 102.046875 12.523438 L 102.066406 18.492188 L 96.199219 18.492188 L 96.171875 12.523438 Z M 108.566406 18.492188 L 102.699219 18.492188 L 102.679688 12.523438 L 108.550781 12.523438 Z M 115.066406 18.492188 L 109.199219 18.492188 L 109.183594 12.523438 L 115.054688 12.523438 Z M 121.570312 18.492188 L 115.699219 18.492188 L 115.6875 12.523438 L 121.5625 12.523438 Z M 128.070312 18.492188 L 122.203125 18.492188 L 122.195312 12.523438 L 128.070312 12.523438 Z M 134.570312 18.492188 L 128.703125 18.492188 L 128.703125 12.523438 L 134.578125 12.523438 Z M 141.074219 18.492188 L 135.203125 18.492188 L 135.207031 12.523438 L 141.082031 12.523438 Z M 147.574219 18.492188 L 141.707031 18.492188 L 141.714844 12.523438 L 147.589844 12.523438 Z M 154.074219 18.492188 L 148.203125 18.492188 L 148.222656 12.523438 L 154.09375 12.523438 Z M 160.574219 18.492188 L 154.707031 18.492188 L 154.730469 12.523438 L 160.601562 12.523438 Z M 167.074219 18.492188 L 161.207031 18.492188 L 161.234375 12.523438 L 167.105469 12.523438 Z M 173.578125 18.492188 L 167.707031 18.492188 L 167.738281 12.523438 L 173.613281 12.523438 Z M 180.078125 18.492188 L 174.210938 18.492188 L 174.246094 12.523438 L 180.121094 12.523438 Z M 186.578125 18.492188 L 180.710938 18.492188 L 180.753906 12.523438 L 186.625 12.523438 Z M 193.078125 18.492188 L 187.210938 18.492188 L 187.257812 12.523438 L 193.132812 12.523438 Z M 193.710938 18.492188 L 193.765625 12.523438 L 199.640625 12.523438 L 199.582031 18.492188 Z M 193.652344 25.078125 L 193.707031 19.125 L 199.574219 19.125 L 199.515625 25.078125 Z M 193.59375 31.65625 L 193.648438 25.710938 L 199.507812 25.710938 L 199.449219 31.65625 Z M 193.535156 38.222656 L 193.585938 32.289062 L 199.445312 32.289062 L 199.386719 38.222656 Z M 193.476562 44.773438 L 193.527344 38.851562 L 199.378906 38.851562 L 199.320312 44.773438 Z M 199.253906 51.3125 L 193.414062 51.3125 L 193.46875 45.40625 L 199.3125 45.40625 Z M 193.355469 57.839844 L 193.410156 51.945312 L 199.246094 51.945312 L 199.191406 57.839844 Z M 193.296875 64.355469 L 193.351562 58.472656 L 199.183594 58.472656 L 199.125 64.355469 Z M 193.238281 70.859375 L 193.292969 64.988281 L 199.117188 64.988281 L 199.058594 70.859375 Z M 193.179688 77.355469 L 193.234375 71.492188 L 199.054688 71.492188 L 198.996094 77.355469 Z M 193.121094 83.832031 L 193.175781 77.984375 L 198.988281 77.984375 L 198.929688 83.832031 Z M 193.0625 90.304688 L 193.117188 84.464844 L 198.925781 84.464844 L 198.867188 90.304688 Z M 193.003906 96.761719 L 193.058594 90.933594 L 198.859375 90.933594 L 198.800781 96.761719 Z M 192.945312 103.207031 L 193 97.394531 L 198.796875 97.394531 L 198.738281 103.207031 Z M 188.382812 105.570312 L 186.878906 103.839844 L 192.476562 103.839844 L 194.148438 105.570312 Z M 190.589844 108.121094 L 188.929688 106.203125 L 194.753906 106.203125 L 196.601562 108.121094 Z M 192.964844 110.859375 L 191.140625 108.753906 L 197.210938 108.753906 L 199.238281 110.859375 Z M 195.527344 113.8125 L 193.515625 111.488281 L 199.847656 111.488281 L 202.082031 113.8125 Z M 198.300781 117.011719 L 196.074219 114.441406 L 202.691406 114.441406 L 205.164062 117.011719 Z M 201.316406 120.488281 L 198.847656 117.640625 L 205.773438 117.640625 L 208.515625 120.488281 Z M 204.601562 124.277344 L 201.863281 121.121094 L 209.125 121.121094 L 212.164062 124.277344 Z M 208.195312 128.421875 L 205.148438 124.90625 L 212.773438 124.90625 L 216.160156 128.421875 Z M 212.144531 132.976562 L 208.746094 129.054688 L 216.769531 129.054688 L 220.546875 132.976562 Z M 216.507812 138.007812 L 212.691406 133.609375 L 221.15625 133.609375 L 225.394531 138.007812 Z M 221.355469 143.597656 L 217.058594 138.640625 L 226.003906 138.640625 L 230.777344 143.597656 Z M 226.761719 149.832031 L 221.902344 144.230469 L 231.386719 144.230469 L 236.785156 149.832031 Z M 227.308594 150.464844 L 237.394531 150.464844 L 243.535156 156.839844 C 240.121094 156.839844 236.515625 156.839844 232.835938 156.839844 Z M 226.472656 150.464844 L 232 156.839844 C 228.445312 156.839844 224.832031 156.839844 221.265625 156.839844 L 216.351562 150.464844 Z M 211.542969 144.230469 L 221.066406 144.230469 L 225.925781 149.832031 L 215.863281 149.832031 Z M 201.1875 144.230469 L 210.746094 144.230469 L 215.066406 149.832031 L 204.964844 149.832031 Z M 190.828125 144.230469 L 200.425781 144.230469 L 204.203125 149.832031 L 194.070312 149.832031 Z M 180.472656 144.230469 L 190.097656 144.230469 L 193.339844 149.832031 L 183.175781 149.832031 Z M 159.773438 144.230469 L 169.445312 144.230469 L 171.609375 149.832031 L 161.394531 149.832031 Z M 149.425781 144.230469 L 159.113281 144.230469 L 160.738281 149.832031 L 150.511719 149.832031 Z M 139.078125 144.230469 L 148.78125 144.230469 L 149.867188 149.832031 L 139.625 149.832031 Z M 128.742188 149.832031 L 128.738281 144.230469 L 138.441406 144.230469 L 138.988281 149.832031 Z M 128.746094 150.464844 L 139.050781 150.464844 L 139.671875 156.839844 C 136.078125 156.839844 132.414062 156.839844 128.753906 156.839844 Z M 128.113281 150.464844 L 128.121094 156.839844 C 124.457031 156.839844 120.800781 156.839844 117.203125 156.839844 L 117.808594 150.464844 Z M 118.398438 144.230469 L 128.105469 144.230469 L 128.113281 149.832031 L 117.867188 149.832031 Z M 108.0625 144.230469 L 117.765625 144.230469 L 117.230469 149.832031 L 106.988281 149.832031 Z M 97.726562 144.230469 L 107.417969 144.230469 L 106.347656 149.832031 L 96.117188 149.832031 Z M 87.398438 144.230469 L 97.070312 144.230469 L 95.460938 149.832031 L 85.25 149.832031 Z M 66.746094 144.230469 L 76.367188 144.230469 L 73.679688 149.832031 L 63.515625 149.832031 Z M 56.417969 144.230469 L 66.015625 144.230469 L 62.789062 149.832031 L 52.652344 149.832031 Z M 46.097656 144.230469 L 55.65625 144.230469 L 51.890625 149.832031 L 41.789062 149.832031 Z M 49.59375 138.640625 L 45.785156 143.597656 L 36.324219 143.597656 L 40.609375 138.640625 Z M 53.460938 133.609375 L 50.078125 138.007812 L 41.15625 138.007812 L 44.960938 133.609375 Z M 56.957031 129.054688 L 53.945312 132.976562 L 45.507812 132.976562 L 48.894531 129.054688 Z M 60.144531 124.90625 L 57.445312 128.421875 L 49.441406 128.421875 L 52.480469 124.90625 Z M 63.058594 121.121094 L 60.632812 124.277344 L 53.027344 124.277344 L 55.757812 121.121094 Z M 65.726562 117.640625 L 63.542969 120.488281 L 56.304688 120.488281 L 58.761719 117.640625 Z M 68.1875 114.441406 L 66.214844 117.011719 L 59.308594 117.011719 L 61.53125 114.441406 Z M 70.457031 111.488281 L 68.671875 113.8125 L 62.074219 113.8125 L 64.082031 111.488281 Z M 72.558594 108.753906 L 70.941406 110.859375 L 64.628906 110.859375 L 66.449219 108.753906 Z M 74.519531 106.203125 L 73.042969 108.121094 L 66.996094 108.121094 L 68.652344 106.203125 Z M 76.335938 103.839844 L 75.003906 105.570312 L 69.199219 105.570312 L 70.695312 103.839844 Z M 70.207031 97.394531 L 70.253906 103.207031 L 64.460938 103.207031 L 64.410156 97.394531 Z M 70.152344 90.933594 L 70.199219 96.761719 L 64.402344 96.761719 L 64.351562 90.933594 Z M 70.101562 84.464844 L 70.148438 90.304688 L 64.34375 90.304688 L 64.289062 84.464844 Z M 70.046875 77.984375 L 70.09375 83.832031 L 64.285156 83.832031 L 64.230469 77.984375 Z M 69.996094 71.492188 L 70.042969 77.355469 L 64.226562 77.355469 L 64.171875 71.492188 Z M 69.941406 64.988281 L 69.988281 70.859375 L 64.167969 70.859375 L 64.113281 64.988281 Z M 69.886719 58.472656 L 69.9375 64.355469 L 64.109375 64.355469 L 64.054688 58.472656 Z M 63.996094 51.945312 L 69.835938 51.945312 L 69.882812 57.839844 L 64.050781 57.839844 Z M 69.78125 45.40625 L 69.832031 51.3125 L 63.988281 51.3125 L 63.9375 45.40625 Z M 69.730469 38.851562 L 69.777344 44.773438 L 63.929688 44.773438 L 63.878906 38.851562 Z M 69.675781 32.289062 L 69.722656 38.222656 L 63.871094 38.222656 L 63.816406 32.289062 Z M 69.621094 25.710938 L 69.671875 31.65625 L 63.8125 31.65625 L 63.757812 25.710938 Z M 69.617188 25.078125 L 63.753906 25.078125 L 63.699219 19.125 L 69.566406 19.125 Z M 76.109375 25.078125 L 70.25 25.078125 L 70.199219 19.125 L 76.066406 19.125 Z M 82.605469 25.078125 L 76.742188 25.078125 L 76.699219 19.125 L 82.566406 19.125 Z M 89.101562 25.078125 L 83.238281 25.078125 L 83.199219 19.125 L 89.070312 19.125 Z M 95.59375 25.078125 L 89.734375 25.078125 L 89.699219 19.125 L 95.570312 19.125 Z M 102.066406 19.125 L 102.089844 25.078125 L 96.226562 25.078125 L 96.203125 19.125 Z M 108.585938 25.078125 L 102.722656 25.078125 L 102.703125 19.125 L 108.570312 19.125 Z M 115.082031 25.078125 L 109.21875 25.078125 L 109.203125 19.125 L 115.070312 19.125 Z M 121.574219 25.078125 L 115.710938 25.078125 L 115.699219 19.125 L 121.570312 19.125 Z M 128.070312 25.078125 L 122.207031 25.078125 L 122.203125 19.125 L 128.070312 19.125 Z M 134.566406 25.078125 L 128.703125 25.078125 L 128.703125 19.125 L 134.570312 19.125 Z M 141.0625 25.078125 L 135.199219 25.078125 L 135.203125 19.125 L 141.070312 19.125 Z M 147.554688 25.078125 L 141.695312 25.078125 L 141.703125 19.125 L 147.570312 19.125 Z M 154.050781 25.078125 L 148.1875 25.078125 L 148.203125 19.125 L 154.070312 19.125 Z M 160.542969 25.078125 L 154.683594 25.078125 L 154.703125 19.125 L 160.570312 19.125 Z M 167.039062 25.078125 L 161.175781 25.078125 L 161.203125 19.125 L 167.074219 19.125 Z M 173.535156 25.078125 L 167.671875 25.078125 L 167.703125 19.125 L 173.574219 19.125 Z M 180.03125 25.078125 L 174.167969 25.078125 L 174.207031 19.125 L 180.074219 19.125 Z M 186.523438 25.078125 L 180.664062 25.078125 L 180.703125 19.125 L 186.574219 19.125 Z M 187.15625 25.078125 L 187.207031 19.125 L 193.074219 19.125 L 193.019531 25.078125 Z M 187.105469 31.65625 L 187.152344 25.710938 L 193.015625 25.710938 L 192.960938 31.65625 Z M 187.050781 38.222656 L 187.097656 32.289062 L 192.957031 32.289062 L 192.902344 38.222656 Z M 186.996094 44.773438 L 187.046875 38.851562 L 192.894531 38.851562 L 192.84375 44.773438 Z M 192.78125 51.3125 L 186.945312 51.3125 L 186.992188 45.40625 L 192.835938 45.40625 Z M 186.890625 57.839844 L 186.9375 51.945312 L 192.777344 51.945312 L 192.722656 57.839844 Z M 186.839844 64.355469 L 186.886719 58.472656 L 192.71875 58.472656 L 192.664062 64.355469 Z M 186.785156 70.859375 L 186.832031 64.988281 L 192.660156 64.988281 L 192.605469 70.859375 Z M 186.734375 77.355469 L 186.777344 71.492188 L 192.601562 71.492188 L 192.546875 77.355469 Z M 186.679688 83.832031 L 186.726562 77.984375 L 192.542969 77.984375 L 192.488281 83.832031 Z M 186.625 90.304688 L 186.671875 84.464844 L 192.484375 84.464844 L 192.429688 90.304688 Z M 186.574219 96.761719 L 186.621094 90.933594 L 192.425781 90.933594 L 192.371094 96.761719 Z M 186.519531 103.207031 L 186.570312 97.394531 L 192.367188 97.394531 L 192.316406 103.207031 Z M 181.742188 105.570312 L 180.40625 103.839844 L 186.042969 103.839844 L 187.542969 105.570312 Z M 183.707031 108.121094 L 182.230469 106.203125 L 188.09375 106.203125 L 189.753906 108.121094 Z M 185.816406 110.859375 L 184.195312 108.753906 L 190.300781 108.753906 L 192.128906 110.859375 Z M 188.09375 113.8125 L 186.304688 111.488281 L 192.675781 111.488281 L 194.6875 113.8125 Z M 190.558594 117.011719 L 188.582031 114.441406 L 195.234375 114.441406 L 197.460938 117.011719 Z M 193.238281 120.488281 L 191.046875 117.640625 L 198.011719 117.640625 L 200.480469 120.488281 Z M 196.160156 124.277344 L 193.726562 121.121094 L 201.027344 121.121094 L 203.761719 124.277344 Z M 199.359375 128.421875 L 196.648438 124.90625 L 204.3125 124.90625 L 207.359375 128.421875 Z M 202.867188 132.976562 L 199.84375 129.054688 L 207.90625 129.054688 L 211.308594 132.976562 Z M 206.75 138.007812 L 203.355469 133.609375 L 211.855469 133.609375 L 215.671875 138.007812 Z M 207.234375 138.640625 L 216.21875 138.640625 L 220.519531 143.597656 L 211.058594 143.597656 Z M 197.414062 138.640625 L 206.4375 138.640625 L 210.257812 143.597656 L 200.757812 143.597656 Z M 187.59375 138.640625 L 196.652344 138.640625 L 199.996094 143.597656 L 190.460938 143.597656 Z M 177.777344 138.640625 L 186.863281 138.640625 L 189.734375 143.597656 L 180.167969 143.597656 Z M 158.152344 138.644531 L 167.285156 138.644531 L 169.199219 143.597656 L 159.589844 143.597656 Z M 148.34375 138.644531 L 157.492188 138.644531 L 158.929688 143.597656 L 149.304688 143.597656 Z M 138.535156 138.644531 L 147.699219 138.644531 L 148.660156 143.597656 L 139.015625 143.597656 Z M 128.730469 138.644531 L 137.898438 138.644531 L 138.382812 143.597656 L 128.734375 143.597656 Z M 118.929688 138.644531 L 128.097656 138.644531 L 128.105469 143.597656 L 118.460938 143.597656 Z M 109.128906 138.644531 L 118.292969 138.644531 L 117.824219 143.597656 L 108.183594 143.597656 Z M 99.335938 138.644531 L 108.484375 138.644531 L 107.539062 143.597656 L 97.910156 143.597656 Z M 89.542969 138.644531 L 98.675781 138.644531 L 97.253906 143.597656 L 87.640625 143.597656 Z M 69.960938 138.640625 L 79.050781 138.640625 L 76.671875 143.597656 L 67.109375 143.597656 Z M 60.175781 138.640625 L 69.234375 138.640625 L 66.378906 143.597656 L 56.84375 143.597656 Z M 59.414062 138.640625 L 56.082031 143.597656 L 46.582031 143.597656 L 50.390625 138.640625 Z M 62.796875 133.609375 L 59.839844 138.007812 L 50.875 138.007812 L 54.257812 133.609375 Z M 65.855469 129.054688 L 63.222656 132.976562 L 54.746094 132.976562 L 57.757812 129.054688 Z M 68.644531 124.90625 L 66.28125 128.421875 L 58.242188 128.421875 L 60.945312 124.90625 Z M 71.191406 121.121094 L 69.070312 124.277344 L 61.429688 124.277344 L 63.855469 121.121094 Z M 73.527344 117.640625 L 71.617188 120.488281 L 64.339844 120.488281 L 66.527344 117.640625 Z M 75.679688 114.441406 L 73.953125 117.011719 L 67.011719 117.011719 L 68.984375 114.441406 Z M 77.664062 111.488281 L 76.105469 113.8125 L 69.472656 113.8125 L 71.253906 111.488281 Z M 79.503906 108.753906 L 78.089844 110.859375 L 71.738281 110.859375 L 73.359375 108.753906 Z M 81.21875 106.203125 L 79.929688 108.121094 L 73.84375 108.121094 L 75.316406 106.203125 Z M 82.804688 103.839844 L 81.640625 105.570312 L 75.800781 105.570312 L 77.132812 103.839844 Z M 76.632812 97.394531 L 76.675781 103.207031 L 70.886719 103.207031 L 70.839844 97.394531 Z M 76.589844 90.933594 L 76.628906 96.761719 L 70.832031 96.761719 L 70.785156 90.933594 Z M 76.542969 84.464844 L 76.582031 90.304688 L 70.78125 90.304688 L 70.734375 84.464844 Z M 76.496094 77.984375 L 76.539062 83.832031 L 70.726562 83.832031 L 70.679688 77.984375 Z M 76.449219 71.492188 L 76.492188 77.355469 L 70.675781 77.355469 L 70.628906 71.492188 Z M 76.402344 64.988281 L 76.445312 70.859375 L 70.621094 70.859375 L 70.574219 64.988281 Z M 76.351562 58.472656 L 76.394531 64.355469 L 70.570312 64.355469 L 70.519531 58.472656 Z M 70.46875 51.945312 L 76.304688 51.945312 L 76.347656 57.839844 L 70.515625 57.839844 Z M 76.257812 45.40625 L 76.300781 51.3125 L 70.460938 51.3125 L 70.414062 45.40625 Z M 76.210938 38.851562 L 76.253906 44.773438 L 70.410156 44.773438 L 70.359375 38.851562 Z M 76.164062 32.289062 L 76.207031 38.222656 L 70.355469 38.222656 L 70.304688 32.289062 Z M 76.160156 31.65625 L 70.300781 31.65625 L 70.253906 25.710938 L 76.117188 25.710938 Z M 82.648438 31.65625 L 76.792969 31.65625 L 76.75 25.710938 L 82.609375 25.710938 Z M 89.136719 31.65625 L 83.28125 31.65625 L 83.242188 25.710938 L 89.105469 25.710938 Z M 95.625 31.65625 L 89.769531 31.65625 L 89.738281 25.710938 L 95.597656 25.710938 Z M 102.09375 25.710938 L 102.113281 31.65625 L 96.257812 31.65625 L 96.230469 25.710938 Z M 108.601562 31.65625 L 102.746094 31.65625 L 102.726562 25.710938 L 108.585938 25.710938 Z M 115.09375 31.65625 L 109.234375 31.65625 L 109.21875 25.710938 L 115.082031 25.710938 Z M 121.582031 31.65625 L 115.722656 31.65625 L 115.714844 25.710938 L 121.574219 25.710938 Z M 128.070312 31.65625 L 122.214844 31.65625 L 122.207031 25.710938 L 128.070312 25.710938 Z M 134.558594 31.65625 L 128.703125 31.65625 L 128.703125 25.710938 L 134.5625 25.710938 Z M 141.050781 31.65625 L 135.191406 31.65625 L 135.195312 25.710938 L 141.058594 25.710938 Z M 147.539062 31.65625 L 141.679688 31.65625 L 141.691406 25.710938 L 147.554688 25.710938 Z M 154.027344 31.65625 L 148.171875 31.65625 L 148.1875 25.710938 L 154.046875 25.710938 Z M 160.515625 31.65625 L 154.660156 31.65625 L 154.679688 25.710938 L 160.542969 25.710938 Z M 167.003906 31.65625 L 161.148438 31.65625 L 161.175781 25.710938 L 167.035156 25.710938 Z M 173.492188 31.65625 L 167.636719 31.65625 L 167.667969 25.710938 L 173.53125 25.710938 Z M 179.980469 31.65625 L 174.125 31.65625 L 174.164062 25.710938 L 180.027344 25.710938 Z M 180.617188 31.65625 L 180.660156 25.710938 L 186.519531 25.710938 L 186.46875 31.65625 Z M 180.566406 38.222656 L 180.609375 32.289062 L 186.464844 32.289062 L 186.417969 38.222656 Z M 180.519531 44.773438 L 180.5625 38.851562 L 186.414062 38.851562 L 186.363281 44.773438 Z M 186.3125 51.3125 L 180.472656 51.3125 L 180.515625 45.40625 L 186.359375 45.40625 Z M 180.425781 57.839844 L 180.46875 51.945312 L 186.304688 51.945312 L 186.257812 57.839844 Z M 180.378906 64.355469 L 180.421875 58.472656 L 186.253906 58.472656 L 186.207031 64.355469 Z M 180.332031 70.859375 L 180.375 64.988281 L 186.199219 64.988281 L 186.152344 70.859375 Z M 180.285156 77.355469 L 180.328125 71.492188 L 186.148438 71.492188 L 186.101562 77.355469 Z M 180.238281 83.832031 L 180.28125 77.984375 L 186.09375 77.984375 L 186.046875 83.832031 Z M 180.191406 90.304688 L 180.234375 84.464844 L 186.042969 84.464844 L 185.996094 90.304688 Z M 180.144531 96.761719 L 180.1875 90.933594 L 185.988281 90.933594 L 185.941406 96.761719 Z M 180.097656 103.207031 L 180.140625 97.394531 L 185.9375 97.394531 L 185.890625 103.207031 Z M 175.101562 105.570312 L 173.933594 103.839844 L 179.605469 103.839844 L 180.941406 105.570312 Z M 176.820312 108.121094 L 175.527344 106.203125 L 181.429688 106.203125 L 182.90625 108.121094 Z M 178.667969 110.859375 L 177.25 108.753906 L 183.394531 108.753906 L 185.019531 110.859375 Z M 180.660156 113.8125 L 179.09375 111.488281 L 185.503906 111.488281 L 187.292969 113.8125 Z M 182.820312 117.011719 L 181.089844 114.441406 L 187.78125 114.441406 L 189.761719 117.011719 Z M 185.167969 120.488281 L 183.246094 117.640625 L 190.25 117.640625 L 192.441406 120.488281 Z M 187.722656 124.277344 L 185.59375 121.121094 L 192.929688 121.121094 L 195.363281 124.277344 Z M 190.519531 128.421875 L 188.148438 124.90625 L 195.851562 124.90625 L 198.558594 128.421875 Z M 193.59375 132.976562 L 190.945312 129.054688 L 199.046875 129.054688 L 202.070312 132.976562 Z M 194.019531 133.609375 L 202.554688 133.609375 L 205.949219 138.007812 L 196.988281 138.007812 Z M 184.683594 133.609375 L 193.257812 133.609375 L 196.226562 138.007812 L 187.230469 138.007812 Z M 175.351562 133.609375 L 183.953125 133.609375 L 186.5 138.007812 L 177.472656 138.007812 Z M 156.695312 133.609375 L 165.34375 133.609375 L 167.042969 138.011719 L 157.96875 138.011719 Z M 147.367188 133.609375 L 156.035156 133.609375 L 157.308594 138.011719 L 148.21875 138.011719 Z M 138.042969 133.609375 L 146.722656 133.609375 L 147.578125 138.011719 L 138.472656 138.011719 Z M 128.722656 133.609375 L 137.410156 133.609375 L 137.835938 138.011719 L 128.730469 138.011719 Z M 119.40625 133.609375 L 128.089844 133.609375 L 128.097656 138.011719 L 118.988281 138.011719 Z M 110.09375 133.609375 L 118.773438 133.609375 L 118.355469 138.011719 L 109.25 138.011719 Z M 100.78125 133.609375 L 109.449219 133.609375 L 108.605469 138.011719 L 99.515625 138.011719 Z M 91.472656 133.609375 L 100.121094 133.609375 L 98.859375 138.011719 L 89.785156 138.011719 Z M 72.863281 133.609375 L 81.464844 133.609375 L 79.351562 138.007812 L 70.328125 138.007812 Z M 72.132812 133.609375 L 69.597656 138.007812 L 60.601562 138.007812 L 63.558594 133.609375 Z M 74.753906 129.054688 L 72.496094 132.976562 L 63.984375 132.976562 L 66.617188 129.054688 Z M 77.144531 124.90625 L 75.117188 128.421875 L 67.042969 128.421875 L 69.40625 124.90625 Z M 79.324219 121.121094 L 77.507812 124.277344 L 69.832031 124.277344 L 71.953125 121.121094 Z M 81.328125 117.640625 L 79.691406 120.488281 L 72.378906 120.488281 L 74.289062 117.640625 Z M 83.171875 114.441406 L 81.691406 117.011719 L 74.714844 117.011719 L 76.441406 114.441406 Z M 84.871094 111.488281 L 83.535156 113.8125 L 76.867188 113.8125 L 78.425781 111.488281 Z M 86.449219 108.753906 L 85.234375 110.859375 L 78.851562 110.859375 L 80.265625 108.753906 Z M 87.914062 106.203125 L 86.8125 108.121094 L 80.691406 108.121094 L 81.980469 106.203125 Z M 89.277344 103.839844 L 88.28125 105.570312 L 82.402344 105.570312 L 83.570312 103.839844 Z M 83.066406 97.394531 L 83.101562 103.207031 L 77.308594 103.207031 L 77.265625 97.394531 Z M 83.023438 90.933594 L 83.0625 96.761719 L 77.261719 96.761719 L 77.21875 90.933594 Z M 82.980469 84.464844 L 83.019531 90.304688 L 77.214844 90.304688 L 77.171875 84.464844 Z M 82.941406 77.984375 L 82.976562 83.832031 L 77.167969 83.832031 L 77.125 77.984375 Z M 82.898438 71.492188 L 82.9375 77.355469 L 77.121094 77.355469 L 77.078125 71.492188 Z M 82.859375 64.988281 L 82.894531 70.859375 L 77.074219 70.859375 L 77.03125 64.988281 Z M 82.816406 58.472656 L 82.855469 64.355469 L 77.027344 64.355469 L 76.984375 58.472656 Z M 76.9375 51.945312 L 82.777344 51.945312 L 82.8125 57.839844 L 76.980469 57.839844 Z M 82.734375 45.40625 L 82.773438 51.3125 L 76.933594 51.3125 L 76.890625 45.40625 Z M 82.691406 38.851562 L 82.730469 44.773438 L 76.886719 44.773438 L 76.84375 38.851562 Z M 82.6875 38.222656 L 76.839844 38.222656 L 76.796875 32.289062 L 82.652344 32.289062 Z M 89.171875 38.222656 L 83.320312 38.222656 L 83.285156 32.289062 L 89.140625 32.289062 Z M 95.65625 38.222656 L 89.804688 38.222656 L 89.773438 32.289062 L 95.628906 32.289062 Z M 102.136719 38.222656 L 96.289062 38.222656 L 96.261719 32.289062 L 102.117188 32.289062 Z M 108.621094 38.222656 L 102.769531 38.222656 L 102.75 32.289062 L 108.605469 32.289062 Z M 115.101562 38.222656 L 109.253906 38.222656 L 109.238281 32.289062 L 115.09375 32.289062 Z M 121.589844 38.222656 L 115.734375 38.222656 L 115.726562 32.289062 L 121.582031 32.289062 Z M 128.070312 38.222656 L 122.21875 38.222656 L 122.214844 32.289062 L 128.070312 32.289062 Z M 134.554688 38.222656 L 128.703125 38.222656 L 128.703125 32.289062 L 134.558594 32.289062 Z M 141.035156 38.222656 L 135.1875 38.222656 L 135.191406 32.289062 L 141.046875 32.289062 Z M 147.519531 38.222656 L 141.667969 38.222656 L 141.679688 32.289062 L 147.535156 32.289062 Z M 154.003906 38.222656 L 148.152344 38.222656 L 148.167969 32.289062 L 154.023438 32.289062 Z M 160.484375 38.222656 L 154.636719 38.222656 L 154.65625 32.289062 L 160.511719 32.289062 Z M 166.96875 38.222656 L 161.117188 38.222656 L 161.144531 32.289062 L 167 32.289062 Z M 173.453125 38.222656 L 167.601562 38.222656 L 167.632812 32.289062 L 173.488281 32.289062 Z M 174.082031 38.222656 L 174.121094 32.289062 L 179.976562 32.289062 L 179.933594 38.222656 Z M 174.042969 44.773438 L 174.082031 38.851562 L 179.929688 38.851562 L 179.886719 44.773438 Z M 179.839844 51.3125 L 174.003906 51.3125 L 174.039062 45.40625 L 179.882812 45.40625 Z M 173.960938 57.839844 L 174 51.945312 L 179.835938 51.945312 L 179.792969 57.839844 Z M 173.917969 64.355469 L 173.957031 58.472656 L 179.789062 58.472656 L 179.746094 64.355469 Z M 173.878906 70.859375 L 173.914062 64.988281 L 179.742188 64.988281 L 179.699219 70.859375 Z M 173.835938 77.355469 L 173.875 71.492188 L 179.695312 71.492188 L 179.652344 77.355469 Z M 173.796875 83.832031 L 173.832031 77.984375 L 179.648438 77.984375 L 179.605469 83.832031 Z M 173.753906 90.304688 L 173.792969 84.464844 L 179.601562 84.464844 L 179.558594 90.304688 Z M 173.714844 96.761719 L 173.75 90.933594 L 179.554688 90.933594 L 179.511719 96.761719 Z M 173.671875 103.207031 L 173.710938 97.394531 L 179.507812 97.394531 L 179.464844 103.207031 Z M 168.464844 105.570312 L 167.460938 103.839844 L 173.171875 103.839844 L 174.339844 105.570312 Z M 169.9375 108.121094 L 168.832031 106.203125 L 174.765625 106.203125 L 176.058594 108.121094 Z M 171.523438 110.859375 L 170.304688 108.753906 L 176.484375 108.753906 L 177.90625 110.859375 Z M 173.230469 113.8125 L 171.886719 111.488281 L 178.332031 111.488281 L 179.898438 113.8125 Z M 175.082031 117.011719 L 173.597656 114.441406 L 180.324219 114.441406 L 182.058594 117.011719 Z M 177.09375 120.488281 L 175.449219 117.640625 L 182.484375 117.640625 L 184.402344 120.488281 Z M 179.285156 124.277344 L 177.457031 121.121094 L 184.828125 121.121094 L 186.960938 124.277344 Z M 181.683594 128.421875 L 179.648438 124.90625 L 187.386719 124.90625 L 189.757812 128.421875 Z M 182.050781 129.054688 L 190.183594 129.054688 L 192.828125 132.976562 L 184.316406 132.976562 Z M 173.15625 129.054688 L 181.320312 129.054688 L 183.585938 132.976562 L 175.046875 132.976562 Z M 155.371094 129.054688 L 163.582031 129.054688 L 165.101562 132.976562 L 156.511719 132.976562 Z M 146.484375 129.054688 L 154.714844 129.054688 L 155.851562 132.976562 L 147.246094 132.976562 Z M 137.597656 129.054688 L 145.839844 129.054688 L 146.601562 132.976562 L 137.980469 132.976562 Z M 128.71875 129.054688 L 136.964844 129.054688 L 137.347656 132.976562 L 128.722656 132.976562 Z M 119.839844 129.054688 L 128.085938 129.054688 L 128.089844 132.976562 L 119.464844 132.976562 Z M 110.960938 129.054688 L 119.203125 129.054688 L 118.832031 132.976562 L 110.210938 132.976562 Z M 102.089844 129.054688 L 110.320312 129.054688 L 109.566406 132.976562 L 100.960938 132.976562 Z M 93.21875 129.054688 L 101.433594 129.054688 L 100.304688 132.976562 L 91.714844 132.976562 Z M 83.648438 129.054688 L 81.769531 132.976562 L 73.226562 132.976562 L 75.484375 129.054688 Z M 85.636719 124.90625 L 83.953125 128.421875 L 75.847656 128.421875 L 77.871094 124.90625 Z M 87.457031 121.121094 L 85.941406 124.277344 L 78.238281 124.277344 L 80.054688 121.121094 Z M 89.125 117.640625 L 87.757812 120.488281 L 80.417969 120.488281 L 82.058594 117.640625 Z M 90.660156 114.441406 L 89.429688 117.011719 L 82.421875 117.011719 L 83.898438 114.441406 Z M 92.078125 111.488281 L 90.960938 113.8125 L 84.265625 113.8125 L 85.601562 111.488281 Z M 93.390625 108.753906 L 92.378906 110.859375 L 85.964844 110.859375 L 87.175781 108.753906 Z M 94.613281 106.203125 L 93.691406 108.121094 L 87.542969 108.121094 L 88.644531 106.203125 Z M 95.746094 103.839844 L 94.914062 105.570312 L 89.007812 105.570312 L 90.007812 103.839844 Z M 89.496094 97.394531 L 89.527344 103.207031 L 83.734375 103.207031 L 83.695312 97.394531 Z M 89.460938 90.933594 L 89.492188 96.761719 L 83.691406 96.761719 L 83.65625 90.933594 Z M 89.421875 84.464844 L 89.457031 90.304688 L 83.652344 90.304688 L 83.613281 84.464844 Z M 89.390625 77.984375 L 89.421875 83.832031 L 83.609375 83.832031 L 83.574219 77.984375 Z M 89.355469 71.492188 L 89.386719 77.355469 L 83.570312 77.355469 L 83.53125 71.492188 Z M 89.316406 64.988281 L 89.351562 70.859375 L 83.527344 70.859375 L 83.492188 64.988281 Z M 89.285156 58.472656 L 89.316406 64.355469 L 83.488281 64.355469 L 83.449219 58.472656 Z M 83.410156 51.945312 L 89.246094 51.945312 L 89.28125 57.839844 L 83.445312 57.839844 Z M 89.210938 45.40625 L 89.242188 51.3125 L 83.40625 51.3125 L 83.367188 45.40625 Z M 89.207031 44.773438 L 83.363281 44.773438 L 83.324219 38.851562 L 89.175781 38.851562 Z M 95.683594 44.773438 L 89.839844 44.773438 L 89.808594 38.851562 L 95.660156 38.851562 Z M 102.140625 38.851562 L 102.160156 44.773438 L 96.316406 44.773438 L 96.289062 38.851562 Z M 108.640625 44.773438 L 102.792969 44.773438 L 102.773438 38.851562 L 108.621094 38.851562 Z M 115.117188 44.773438 L 109.269531 44.773438 L 109.253906 38.851562 L 115.105469 38.851562 Z M 121.59375 44.773438 L 115.746094 44.773438 L 115.738281 38.851562 L 121.589844 38.851562 Z M 128.070312 44.773438 L 122.226562 44.773438 L 122.21875 38.851562 L 128.070312 38.851562 Z M 134.546875 44.773438 L 128.703125 44.773438 L 128.703125 38.851562 L 134.550781 38.851562 Z M 141.023438 44.773438 L 135.179688 44.773438 L 135.183594 38.851562 L 141.035156 38.851562 Z M 147.5 44.773438 L 141.65625 44.773438 L 141.667969 38.851562 L 147.519531 38.851562 Z M 153.976562 44.773438 L 148.132812 44.773438 L 148.148438 38.851562 L 154 38.851562 Z M 160.457031 44.773438 L 154.609375 44.773438 L 154.632812 38.851562 L 160.484375 38.851562 Z M 166.933594 44.773438 L 161.089844 44.773438 L 161.113281 38.851562 L 166.964844 38.851562 Z M 167.566406 44.773438 L 167.597656 38.851562 L 173.449219 38.851562 L 173.410156 44.773438 Z M 173.371094 51.3125 L 167.53125 51.3125 L 167.5625 45.40625 L 173.40625 45.40625 Z M 167.496094 57.839844 L 167.527344 51.945312 L 173.363281 51.945312 L 173.328125 57.839844 Z M 167.457031 64.355469 L 167.492188 58.472656 L 173.324219 58.472656 L 173.285156 64.355469 Z M 167.425781 70.859375 L 167.457031 64.988281 L 173.28125 64.988281 L 173.246094 70.859375 Z M 167.390625 77.355469 L 167.421875 71.492188 L 173.242188 71.492188 L 173.203125 77.355469 Z M 167.351562 83.832031 L 167.386719 77.984375 L 173.203125 77.984375 L 173.164062 83.832031 Z M 167.316406 90.304688 L 167.351562 84.464844 L 173.160156 84.464844 L 173.121094 90.304688 Z M 167.285156 96.761719 L 167.316406 90.933594 L 173.117188 90.933594 L 173.082031 96.761719 Z M 167.25 103.207031 L 167.28125 97.394531 L 173.078125 97.394531 L 173.039062 103.207031 Z M 161.828125 105.570312 L 160.992188 103.839844 L 166.730469 103.839844 L 167.734375 105.570312 Z M 163.058594 108.121094 L 162.132812 106.203125 L 168.097656 106.203125 L 169.207031 108.121094 Z M 164.378906 110.859375 L 163.363281 108.753906 L 169.574219 108.753906 L 170.792969 110.859375 Z M 165.800781 113.8125 L 164.683594 111.488281 L 171.160156 111.488281 L 172.5 113.8125 Z M 167.34375 117.011719 L 166.109375 114.441406 L 172.867188 114.441406 L 174.351562 117.011719 Z M 169.023438 120.488281 L 167.652344 117.640625 L 174.714844 117.640625 L 176.363281 120.488281 Z M 170.847656 124.277344 L 169.328125 121.121094 L 176.730469 121.121094 L 178.554688 124.277344 Z M 172.851562 128.421875 L 171.15625 124.90625 L 178.921875 124.90625 L 180.953125 128.421875 Z M 155.191406 128.421875 L 154.171875 124.90625 L 161.984375 124.90625 L 163.339844 128.421875 Z M 146.363281 128.421875 L 145.683594 124.90625 L 153.511719 124.90625 L 154.53125 128.421875 Z M 137.539062 128.421875 L 137.199219 124.90625 L 145.039062 124.90625 L 145.71875 128.421875 Z M 128.71875 128.421875 L 128.714844 124.90625 L 136.566406 124.90625 L 136.902344 128.421875 Z M 120.230469 124.90625 L 128.082031 124.90625 L 128.085938 128.421875 L 119.898438 128.421875 Z M 111.753906 124.90625 L 119.597656 124.90625 L 119.265625 128.421875 L 111.082031 128.421875 Z M 103.28125 124.90625 L 111.109375 124.90625 L 110.441406 128.421875 L 102.273438 128.421875 Z M 94.808594 124.90625 L 102.625 124.90625 L 101.613281 128.421875 L 93.460938 128.421875 Z M 89.042969 121.121094 C 89.046875 121.121094 89.050781 121.117188 89.054688 121.117188 L 95.585938 121.117188 L 94.375 124.273438 L 87.277344 124.273438 C 87.277344 124.273438 87.277344 124.277344 87.273438 124.277344 L 86.644531 124.277344 L 88.15625 121.121094 Z M 90.667969 117.640625 L 96.917969 117.640625 L 95.828125 120.484375 L 89.046875 120.484375 C 89.042969 120.484375 89.039062 120.488281 89.035156 120.488281 L 88.460938 120.488281 L 89.828125 117.640625 Z M 92.15625 114.441406 L 98.144531 114.441406 L 97.160156 117.011719 L 90.128906 117.011719 L 91.359375 114.441406 Z M 93.539062 111.488281 C 93.542969 111.488281 93.546875 111.488281 93.550781 111.488281 L 99.277344 111.488281 L 98.390625 113.8125 L 91.664062 113.8125 L 92.777344 111.488281 Z M 94.8125 108.753906 C 94.816406 108.753906 94.820312 108.75 94.824219 108.75 L 100.328125 108.75 L 99.523438 110.855469 L 93.535156 110.855469 C 93.53125 110.855469 93.527344 110.859375 93.523438 110.859375 L 93.082031 110.859375 L 94.089844 108.753906 Z M 95.988281 106.203125 C 95.992188 106.203125 95.996094 106.207031 96 106.207031 L 101.304688 106.207031 L 100.570312 108.117188 L 94.8125 108.117188 C 94.808594 108.117188 94.804688 108.121094 94.800781 108.121094 L 94.394531 108.121094 L 95.3125 106.203125 Z M 97.105469 103.839844 C 97.109375 103.839844 97.113281 103.839844 97.113281 103.839844 L 102.214844 103.839844 L 101.546875 105.574219 L 96.011719 105.574219 C 96.007812 105.574219 96.003906 105.570312 96 105.570312 L 95.617188 105.570312 L 96.449219 103.839844 Z M 95.925781 97.394531 L 95.949219 103.207031 L 90.160156 103.207031 L 90.128906 97.394531 Z M 95.894531 90.933594 L 95.921875 96.761719 L 90.121094 96.761719 L 90.09375 90.933594 Z M 95.867188 84.464844 L 95.890625 90.304688 L 90.089844 90.304688 L 90.054688 84.464844 Z M 95.835938 77.984375 L 95.863281 83.832031 L 90.054688 83.832031 L 90.019531 77.984375 Z M 95.808594 71.492188 L 95.832031 77.355469 L 90.015625 77.355469 L 89.988281 71.492188 Z M 95.777344 64.988281 L 95.804688 70.859375 L 89.984375 70.859375 L 89.949219 64.988281 Z M 95.746094 58.472656 L 95.773438 64.355469 L 89.945312 64.355469 L 89.914062 58.472656 Z M 89.878906 51.945312 L 95.71875 51.945312 L 95.742188 57.839844 L 89.910156 57.839844 Z M 95.714844 51.3125 L 89.875 51.3125 L 89.84375 45.40625 L 95.6875 45.40625 Z M 102.164062 45.40625 L 102.1875 51.3125 L 96.347656 51.3125 L 96.320312 45.40625 Z M 108.65625 51.3125 L 102.820312 51.3125 L 102.796875 45.40625 L 108.640625 45.40625 Z M 115.128906 51.3125 L 109.289062 51.3125 L 109.273438 45.40625 L 115.117188 45.40625 Z M 121.601562 51.3125 L 115.761719 51.3125 L 115.75 45.40625 L 121.59375 45.40625 Z M 128.070312 51.3125 L 122.234375 51.3125 L 122.226562 45.40625 L 128.070312 45.40625 Z M 134.542969 51.3125 L 128.703125 51.3125 L 128.703125 45.40625 L 134.546875 45.40625 Z M 141.011719 51.3125 L 135.175781 51.3125 L 135.179688 45.40625 L 141.023438 45.40625 Z M 147.484375 51.3125 L 141.644531 51.3125 L 141.65625 45.40625 L 147.5 45.40625 Z M 153.957031 51.3125 L 148.117188 51.3125 L 148.132812 45.40625 L 153.976562 45.40625 Z M 160.425781 51.3125 L 154.589844 51.3125 L 154.609375 45.40625 L 160.453125 45.40625 Z M 166.898438 51.3125 L 161.058594 51.3125 L 161.085938 45.40625 L 166.929688 45.40625 Z M 161.027344 57.839844 L 161.054688 51.945312 L 166.894531 51.945312 L 166.863281 57.839844 Z M 161 64.355469 L 161.027344 58.472656 L 166.859375 58.472656 L 166.828125 64.355469 Z M 160.96875 70.859375 L 160.996094 64.988281 L 166.824219 64.988281 L 166.792969 70.859375 Z M 160.941406 77.355469 L 160.96875 71.492188 L 166.789062 71.492188 L 166.757812 77.355469 Z M 160.914062 83.832031 L 160.9375 77.984375 L 166.753906 77.984375 L 166.722656 83.832031 Z M 160.882812 90.304688 L 160.910156 84.464844 L 166.71875 84.464844 L 166.6875 90.304688 Z M 160.855469 96.761719 L 160.878906 90.933594 L 166.683594 90.933594 L 166.652344 96.761719 Z M 160.824219 103.207031 L 160.851562 97.394531 L 166.648438 97.394531 L 166.617188 103.207031 Z M 160.703125 105.570312 C 160.699219 105.570312 160.695312 105.574219 160.691406 105.574219 L 155.195312 105.574219 L 154.527344 103.839844 L 159.578125 103.839844 C 159.582031 103.839844 159.585938 103.839844 159.589844 103.839844 L 160.292969 103.839844 L 161.125 105.570312 Z M 161.910156 108.121094 C 161.90625 108.121094 161.902344 108.117188 161.898438 108.117188 L 156.179688 108.117188 L 155.441406 106.207031 L 160.703125 106.207031 C 160.707031 106.207031 160.710938 106.203125 160.714844 106.203125 L 161.433594 106.203125 L 162.355469 108.121094 Z M 163.195312 110.859375 C 163.191406 110.859375 163.183594 110.855469 163.179688 110.855469 L 157.234375 110.855469 L 156.421875 108.75 L 161.882812 108.75 C 161.886719 108.75 161.890625 108.753906 161.898438 108.753906 L 162.660156 108.753906 L 163.675781 110.859375 Z M 164.570312 113.8125 L 158.378906 113.8125 L 157.480469 111.488281 L 163.167969 111.488281 C 163.171875 111.488281 163.175781 111.488281 163.179688 111.488281 L 163.980469 111.488281 L 165.101562 113.8125 Z M 166.070312 117.011719 L 159.613281 117.011719 L 158.621094 114.441406 L 165.40625 114.441406 L 166.644531 117.011719 Z M 167.714844 120.488281 C 167.710938 120.488281 167.707031 120.484375 167.703125 120.484375 L 160.953125 120.484375 L 159.855469 117.640625 L 166.949219 117.640625 L 168.320312 120.488281 Z M 153.070312 121.117188 L 160.519531 121.117188 L 161.738281 124.273438 L 153.988281 124.273438 Z M 144.949219 121.117188 L 152.414062 121.117188 L 153.328125 124.273438 L 145.558594 124.273438 Z M 136.835938 121.117188 L 144.304688 121.117188 L 144.914062 124.273438 L 137.136719 124.273438 Z M 128.707031 121.117188 L 136.199219 121.117188 L 136.503906 124.273438 L 128.710938 124.273438 Z M 120.59375 121.117188 L 128.074219 121.117188 L 128.078125 124.273438 L 120.292969 124.273438 Z M 112.480469 121.117188 L 119.957031 121.117188 L 119.660156 124.273438 L 111.875 124.273438 Z M 104.371094 121.117188 L 111.835938 121.117188 L 111.234375 124.273438 L 103.464844 124.273438 Z M 103.710938 121.117188 L 102.804688 124.273438 L 95.050781 124.273438 L 96.261719 121.117188 Z M 104.710938 117.640625 L 103.894531 120.484375 L 96.503906 120.484375 L 97.597656 117.640625 Z M 105.628906 114.441406 L 104.890625 117.011719 L 97.839844 117.011719 L 98.824219 114.441406 Z M 106.480469 111.488281 L 105.8125 113.8125 L 99.066406 113.8125 L 99.957031 111.488281 Z M 107.265625 108.75 L 106.660156 110.855469 L 100.199219 110.855469 L 101.007812 108.75 Z M 107.996094 106.207031 L 107.449219 108.117188 L 101.25 108.117188 L 101.984375 106.207031 Z M 102.890625 103.839844 L 108.675781 103.839844 L 108.179688 105.574219 L 102.226562 105.574219 Z M 102.332031 90.933594 L 102.351562 96.761719 L 96.554688 96.761719 L 96.527344 90.933594 Z M 102.304688 84.464844 L 102.328125 90.304688 L 96.523438 90.304688 L 96.5 84.464844 Z M 102.28125 77.984375 L 102.304688 83.832031 L 96.496094 83.832031 L 96.46875 77.984375 Z M 102.257812 71.492188 L 102.28125 77.355469 L 96.464844 77.355469 L 96.4375 71.492188 Z M 102.234375 64.988281 L 102.257812 70.859375 L 96.433594 70.859375 L 96.410156 64.988281 Z M 102.210938 58.472656 L 102.234375 64.355469 L 96.40625 64.355469 L 96.378906 58.472656 Z M 108.660156 51.945312 L 108.675781 57.839844 L 102.84375 57.839844 L 102.820312 51.945312 Z M 115.128906 51.945312 L 115.140625 57.839844 L 109.308594 57.839844 L 109.292969 51.945312 Z M 121.601562 51.945312 L 121.605469 57.839844 L 115.773438 57.839844 L 115.761719 51.945312 Z M 128.070312 51.945312 L 128.070312 57.839844 L 122.238281 57.839844 L 122.234375 51.945312 Z M 134.535156 57.839844 L 128.703125 57.839844 L 128.703125 51.945312 L 134.542969 51.945312 Z M 141 57.839844 L 135.167969 57.839844 L 135.175781 51.945312 L 141.011719 51.945312 Z M 147.46875 57.839844 L 141.632812 57.839844 L 141.644531 51.945312 L 147.484375 51.945312 Z M 153.933594 57.839844 L 148.097656 57.839844 L 148.117188 51.945312 L 153.953125 51.945312 Z M 154.542969 64.355469 L 154.5625 58.472656 L 160.394531 58.472656 L 160.367188 64.355469 Z M 154.515625 70.859375 L 154.539062 64.988281 L 160.363281 64.988281 L 160.339844 70.859375 Z M 154.492188 77.355469 L 154.515625 71.492188 L 160.335938 71.492188 L 160.308594 77.355469 Z M 154.46875 83.832031 L 154.492188 77.984375 L 160.308594 77.984375 L 160.28125 83.832031 Z M 154.449219 90.304688 L 154.46875 84.464844 L 160.277344 84.464844 L 160.25 90.304688 Z M 154.421875 96.761719 L 154.445312 90.933594 L 160.246094 90.933594 L 160.222656 96.761719 Z M 159.589844 103.207031 L 154.402344 103.207031 L 154.421875 97.394531 L 160.21875 97.394531 L 160.191406 103.207031 Z M 148.566406 105.574219 L 148.0625 103.839844 L 153.847656 103.839844 L 154.519531 105.574219 Z M 149.304688 108.117188 L 148.75 106.207031 L 154.761719 106.207031 L 155.5 108.117188 Z M 150.097656 110.855469 L 149.484375 108.75 L 155.746094 108.75 L 156.558594 110.855469 Z M 150.953125 113.8125 L 150.28125 111.488281 L 156.800781 111.488281 L 157.699219 113.8125 Z M 151.878906 117.011719 L 151.136719 114.441406 L 157.941406 114.441406 L 158.933594 117.011719 Z M 152.066406 117.640625 L 159.179688 117.640625 L 160.277344 120.484375 L 152.890625 120.484375 Z M 144.277344 117.640625 L 151.40625 117.640625 L 152.230469 120.484375 L 144.828125 120.484375 Z M 136.5 117.640625 L 143.632812 117.640625 L 144.183594 120.484375 L 136.773438 120.484375 Z M 128.703125 117.640625 L 135.863281 117.640625 L 136.136719 120.484375 L 128.707031 120.484375 Z M 120.921875 117.640625 L 128.070312 117.640625 L 128.074219 120.484375 L 120.652344 120.484375 Z M 113.144531 117.640625 L 120.289062 117.640625 L 120.015625 120.484375 L 112.601562 120.484375 Z M 112.5 117.640625 L 111.957031 120.484375 L 104.550781 120.484375 L 105.367188 117.640625 Z M 113.109375 114.441406 L 112.621094 117.011719 L 105.550781 117.011719 L 106.289062 114.441406 Z M 113.675781 111.488281 L 113.234375 113.8125 L 106.46875 113.8125 L 107.136719 111.488281 Z M 114.199219 108.75 L 113.796875 110.855469 L 107.320312 110.855469 L 107.921875 108.75 Z M 114.6875 106.207031 L 114.320312 108.117188 L 108.105469 108.117188 L 108.65625 106.207031 Z M 109.335938 103.839844 L 115.136719 103.839844 L 114.804688 105.574219 L 108.835938 105.574219 Z M 103.007812 103.207031 L 102.984375 97.394531 L 108.78125 97.394531 L 108.796875 103.207031 Z M 108.691406 64.355469 L 102.867188 64.355469 L 102.84375 58.472656 L 108.675781 58.472656 Z M 115.152344 64.355469 L 109.324219 64.355469 L 109.308594 58.472656 L 115.140625 58.472656 Z M 121.613281 64.355469 L 115.785156 64.355469 L 115.773438 58.472656 L 121.605469 58.472656 Z M 128.070312 64.355469 L 122.246094 64.355469 L 122.238281 58.472656 L 128.070312 58.472656 Z M 134.53125 64.355469 L 128.703125 64.355469 L 128.703125 58.472656 L 134.535156 58.472656 Z M 140.992188 64.355469 L 135.160156 64.355469 L 135.167969 58.472656 L 141 58.472656 Z M 147.449219 64.355469 L 141.621094 64.355469 L 141.632812 58.472656 L 147.464844 58.472656 Z M 153.910156 64.355469 L 148.082031 64.355469 L 148.097656 58.472656 L 153.929688 58.472656 Z M 147.992188 97.394531 L 153.789062 97.394531 L 153.769531 103.207031 L 147.976562 103.207031 Z M 141.9375 105.574219 L 141.601562 103.839844 L 147.402344 103.839844 L 147.90625 105.574219 Z M 142.429688 108.117188 L 142.058594 106.207031 L 148.089844 106.207031 L 148.644531 108.117188 Z M 142.960938 110.855469 L 142.554688 108.75 L 148.828125 108.75 L 149.4375 110.855469 Z M 143.535156 113.8125 L 143.082031 111.488281 L 149.621094 111.488281 L 150.292969 113.8125 Z M 143.65625 114.441406 L 150.476562 114.441406 L 151.222656 117.011719 L 144.152344 117.011719 Z M 136.191406 114.441406 L 143.011719 114.441406 L 143.507812 117.011719 L 136.4375 117.011719 Z M 128.699219 114.441406 L 135.554688 114.441406 L 135.800781 117.011719 L 128.703125 117.011719 Z M 121.226562 114.441406 L 128.066406 114.441406 L 128.070312 117.011719 L 120.984375 117.011719 Z M 120.589844 114.441406 L 120.347656 117.011719 L 113.265625 117.011719 L 113.753906 114.441406 Z M 120.871094 111.488281 L 120.652344 113.8125 L 113.875 113.8125 L 114.320312 111.488281 Z M 121.132812 108.75 L 120.929688 110.855469 L 114.441406 110.855469 L 114.84375 108.75 Z M 121.371094 106.207031 L 121.191406 108.117188 L 114.964844 108.117188 L 115.328125 106.207031 Z M 115.78125 103.839844 L 121.597656 103.839844 L 121.433594 105.574219 L 115.449219 105.574219 Z M 109.398438 90.933594 L 115.199219 90.933594 L 115.210938 96.761719 L 109.414062 96.761719 Z M 108.765625 90.933594 L 108.78125 96.761719 L 102.984375 96.761719 L 102.960938 90.933594 Z M 108.746094 84.464844 L 108.761719 90.304688 L 102.960938 90.304688 L 102.9375 84.464844 Z M 108.730469 77.984375 L 108.746094 83.832031 L 102.9375 83.832031 L 102.914062 77.984375 Z M 108.710938 71.492188 L 108.726562 77.355469 L 102.914062 77.355469 L 102.890625 71.492188 Z M 108.710938 70.859375 L 102.890625 70.859375 L 102.867188 64.988281 L 108.695312 64.988281 Z M 115.164062 70.859375 L 109.34375 70.859375 L 109.324219 64.988281 L 115.152344 64.988281 Z M 121.617188 70.859375 L 115.796875 70.859375 L 115.785156 64.988281 L 121.613281 64.988281 Z M 128.070312 70.859375 L 122.25 70.859375 L 122.246094 64.988281 L 128.070312 64.988281 Z M 134.523438 70.859375 L 128.703125 70.859375 L 128.703125 64.988281 L 134.53125 64.988281 Z M 140.976562 70.859375 L 135.15625 70.859375 L 135.160156 64.988281 L 140.988281 64.988281 Z M 147.433594 70.859375 L 141.609375 70.859375 L 141.621094 64.988281 L 147.445312 64.988281 Z M 148.066406 70.859375 L 148.082031 64.988281 L 153.90625 64.988281 L 153.886719 70.859375 Z M 148.046875 77.355469 L 148.0625 71.492188 L 153.882812 71.492188 L 153.863281 77.355469 Z M 148.027344 83.832031 L 148.042969 77.984375 L 153.859375 77.984375 L 153.839844 83.832031 Z M 148.011719 90.304688 L 148.027344 84.464844 L 153.835938 84.464844 L 153.816406 90.304688 Z M 141.5625 96.761719 L 141.574219 90.933594 L 147.378906 90.933594 L 147.363281 96.761719 Z M 135.335938 105.574219 L 135.167969 103.839844 L 140.957031 103.839844 L 141.292969 105.574219 Z M 135.582031 108.117188 L 135.394531 106.207031 L 141.414062 106.207031 L 141.785156 108.117188 Z M 135.84375 110.855469 L 135.640625 108.75 L 141.910156 108.75 L 142.316406 110.855469 Z M 135.90625 111.488281 L 142.441406 111.488281 L 142.890625 113.8125 L 136.128906 113.8125 Z M 128.695312 111.488281 L 135.269531 111.488281 L 135.496094 113.8125 L 128.699219 113.8125 Z M 128.0625 111.488281 L 128.066406 113.8125 L 121.285156 113.8125 L 121.507812 111.488281 Z M 128.058594 108.75 L 128.0625 110.855469 L 121.566406 110.855469 L 121.765625 108.75 Z M 128.058594 106.207031 L 128.058594 108.117188 L 121.828125 108.117188 L 122.007812 106.207031 Z M 122.234375 103.839844 L 128.054688 103.839844 L 128.054688 105.574219 L 122.066406 105.574219 Z M 121.636719 90.933594 L 121.640625 96.761719 L 115.84375 96.761719 L 115.832031 90.933594 Z M 115.820312 84.464844 L 121.628906 84.464844 L 121.636719 90.304688 L 115.832031 90.304688 Z M 115.1875 84.464844 L 115.199219 90.304688 L 109.394531 90.304688 L 109.378906 84.464844 Z M 115.175781 77.984375 L 115.1875 83.832031 L 109.378906 83.832031 L 109.363281 77.984375 Z M 115.175781 77.355469 L 109.359375 77.355469 L 109.34375 71.492188 L 115.164062 71.492188 Z M 121.621094 77.355469 L 115.808594 77.355469 L 115.796875 71.492188 L 121.617188 71.492188 Z M 128.070312 77.355469 L 122.257812 77.355469 L 122.25 71.492188 L 128.070312 71.492188 Z M 134.519531 77.355469 L 128.703125 77.355469 L 128.703125 71.492188 L 134.523438 71.492188 Z M 140.964844 77.355469 L 135.152344 77.355469 L 135.15625 71.492188 L 140.976562 71.492188 Z M 141.597656 77.355469 L 141.609375 71.492188 L 147.429688 71.492188 L 147.414062 77.355469 Z M 141.589844 83.832031 L 141.597656 77.984375 L 147.414062 77.984375 L 147.398438 83.832031 Z M 141.585938 84.464844 L 147.394531 84.464844 L 147.378906 90.304688 L 141.574219 90.304688 Z M 135.140625 90.304688 L 135.144531 84.464844 L 140.953125 84.464844 L 140.945312 90.304688 Z M 135.132812 96.761719 L 135.140625 90.933594 L 140.941406 90.933594 L 140.929688 96.761719 Z M 128.070312 90.933594 L 128.070312 96.761719 L 122.273438 96.761719 L 122.269531 90.933594 Z M 128.070312 84.464844 L 128.070312 90.304688 L 122.269531 90.304688 L 122.261719 84.464844 Z M 128.703125 90.304688 L 128.703125 84.464844 L 134.511719 84.464844 L 134.507812 90.304688 Z M 128.703125 96.761719 L 128.703125 90.933594 L 134.507812 90.933594 L 134.5 96.761719 Z M 134.496094 103.207031 L 128.703125 103.207031 L 128.703125 97.394531 L 134.5 97.394531 Z M 135.148438 77.984375 L 140.964844 77.984375 L 140.957031 83.832031 L 135.144531 83.832031 Z M 134.511719 83.832031 L 128.703125 83.832031 L 128.703125 77.984375 L 134.515625 77.984375 Z M 121.628906 83.832031 L 115.820312 83.832031 L 115.808594 77.984375 L 121.625 77.984375 Z M 122.257812 77.984375 L 128.070312 77.984375 L 128.070312 83.832031 L 122.261719 83.832031 Z M 122.28125 103.207031 L 122.273438 97.394531 L 128.070312 97.394531 L 128.070312 103.207031 Z M 128.6875 105.574219 L 128.6875 103.839844 L 134.535156 103.839844 L 134.699219 105.574219 Z M 135.007812 108.75 L 135.210938 110.855469 L 128.695312 110.855469 L 128.691406 108.75 Z M 128.691406 108.117188 L 128.6875 106.207031 L 134.761719 106.207031 L 134.945312 108.117188 Z M 135.128906 103.207031 L 135.132812 97.394531 L 140.929688 97.394531 L 140.921875 103.207031 Z M 115.855469 103.207031 L 115.84375 97.394531 L 121.640625 97.394531 L 121.648438 103.207031 Z M 141.554688 103.207031 L 141.5625 97.394531 L 147.359375 97.394531 L 147.34375 103.207031 Z M 147.992188 96.761719 L 148.011719 90.933594 L 153.8125 90.933594 L 153.792969 96.761719 Z M 109.429688 103.207031 L 109.414062 97.394531 L 115.210938 97.394531 L 115.222656 103.207031 Z M 160.394531 57.839844 L 154.5625 57.839844 L 154.585938 51.945312 L 160.421875 51.945312 Z M 96.351562 51.945312 L 102.1875 51.945312 L 102.210938 57.839844 L 96.375 57.839844 Z M 97.105469 103.207031 L 96.582031 103.207031 L 96.558594 97.394531 L 102.351562 97.394531 L 102.375 103.207031 Z M 169.484375 124.277344 C 169.484375 124.277344 169.484375 124.273438 169.480469 124.273438 L 162.417969 124.273438 L 161.199219 121.117188 L 167.691406 121.117188 C 167.695312 121.117188 167.699219 121.121094 167.703125 121.121094 L 168.625 121.121094 L 170.148438 124.277344 Z M 85.34375 128.421875 C 85.339844 128.421875 85.335938 128.421875 85.332031 128.421875 L 84.652344 128.421875 L 86.339844 124.90625 L 87.277344 124.90625 C 87.277344 124.90625 87.28125 124.90625 87.28125 124.90625 L 94.132812 124.90625 L 92.785156 128.421875 Z M 171.4375 128.421875 C 171.433594 128.421875 171.429688 128.421875 171.429688 128.421875 L 164.019531 128.421875 L 162.660156 124.90625 L 169.476562 124.90625 C 169.476562 124.90625 169.480469 124.90625 169.480469 124.90625 L 170.453125 124.90625 L 172.148438 128.421875 Z M 83.230469 132.976562 C 83.226562 132.976562 83.222656 132.976562 83.21875 132.976562 L 82.46875 132.976562 L 84.351562 129.054688 L 85.34375 129.054688 C 85.347656 129.054688 85.351562 129.054688 85.355469 129.054688 L 92.542969 129.054688 L 91.035156 132.976562 Z M 173.566406 132.976562 C 173.5625 132.976562 173.558594 132.976562 173.554688 132.976562 L 165.777344 132.976562 L 164.261719 129.054688 L 171.417969 129.054688 C 171.421875 129.054688 171.421875 129.054688 171.425781 129.054688 L 172.453125 129.054688 L 174.34375 132.976562 Z M 80.878906 138.011719 C 80.878906 138.011719 80.875 138.007812 80.871094 138.007812 L 80.054688 138.007812 L 82.167969 133.609375 L 83.207031 133.609375 C 83.210938 133.609375 83.214844 133.609375 83.21875 133.609375 L 90.792969 133.609375 L 89.105469 138.011719 Z M 175.929688 138.007812 C 175.925781 138.007812 175.925781 138.011719 175.921875 138.011719 L 167.722656 138.011719 L 166.019531 133.609375 L 173.566406 133.609375 C 173.570312 133.609375 173.574219 133.609375 173.578125 133.609375 L 174.648438 133.609375 L 176.769531 138.007812 Z M 78.265625 143.597656 C 78.265625 143.597656 78.261719 143.597656 78.261719 143.597656 L 77.371094 143.597656 L 79.75 138.640625 L 80.863281 138.640625 C 80.867188 138.640625 80.871094 138.644531 80.871094 138.644531 L 88.863281 138.644531 L 86.964844 143.597656 Z M 178.558594 143.597656 C 178.554688 143.597656 178.554688 143.597656 178.550781 143.597656 L 169.878906 143.597656 L 167.964844 138.644531 L 175.929688 138.644531 C 175.933594 138.644531 175.933594 138.640625 175.9375 138.640625 L 177.078125 138.640625 L 179.46875 143.597656 Z M 40.507812 150.464844 L 35.609375 156.839844 L 24.875 156.839844 L 30.382812 150.464844 Z M 30.929688 149.832031 L 35.777344 144.230469 L 45.300781 144.230469 L 40.992188 149.832031 Z M 75.359375 149.832031 C 75.359375 149.832031 75.359375 149.835938 75.359375 149.835938 C 75.359375 149.835938 75.359375 149.832031 75.355469 149.832031 L 74.382812 149.832031 L 77.070312 144.230469 L 78.265625 144.230469 C 78.269531 144.230469 78.269531 144.230469 78.273438 144.230469 L 86.722656 144.230469 L 84.570312 149.832031 Z M 181.484375 149.832031 C 181.480469 149.832031 181.480469 149.835938 181.480469 149.835938 C 181.480469 149.835938 181.480469 149.832031 181.480469 149.832031 L 172.285156 149.832031 L 170.121094 144.230469 L 178.546875 144.230469 C 178.550781 144.230469 178.550781 144.230469 178.554688 144.230469 L 179.773438 144.230469 L 182.472656 149.832031 Z M 48.191406 106.203125 L 54.410156 106.203125 L 52.382812 108.121094 L 46 108.121094 Z M 45.277344 108.753906 L 51.714844 108.753906 L 49.492188 110.859375 L 42.871094 110.859375 Z M 42.152344 111.488281 L 48.824219 111.488281 L 46.367188 113.8125 L 39.5 113.8125 Z M 38.777344 114.441406 L 45.699219 114.441406 L 42.988281 117.011719 L 35.84375 117.011719 Z M 35.121094 117.640625 L 42.320312 117.640625 L 39.3125 120.488281 L 31.871094 120.488281 Z M 31.152344 121.121094 L 38.644531 121.121094 L 35.308594 124.277344 L 27.546875 124.277344 Z M 26.824219 124.90625 L 34.640625 124.90625 L 30.925781 128.421875 L 22.808594 128.421875 Z M 16.820312 133.609375 L 25.445312 133.609375 L 20.792969 138.007812 L 11.738281 138.007812 Z M 11.003906 138.640625 L 20.125 138.640625 L 14.882812 143.597656 L 5.277344 143.597656 Z M 4.542969 144.230469 L 14.214844 144.230469 L 8.292969 149.832031 L -1.929688 149.832031 Z M -2.660156 150.464844 L 7.625 150.464844 L 0.890625 156.839844 L -10.027344 156.839844 Z M -10.757812 157.472656 C -10.019531 157.472656 -5.863281 157.472656 0.21875 157.472656 L -7.492188 164.769531 L -19.191406 164.769531 Z M -19.921875 165.402344 C -19.15625 165.402344 -14.699219 165.402344 -8.160156 165.402344 L -17.058594 173.816406 L -29.648438 173.816406 Z M -41.691406 184.238281 L -30.378906 174.449219 L -17.722656 174.449219 L -28.070312 184.238281 Z M -27.152344 184.238281 L -16.804688 174.449219 L -4.457031 174.449219 L -13.859375 184.238281 Z M -12.984375 184.238281 L -3.578125 174.449219 L 8.8125 174.449219 L 0.351562 184.238281 Z M 1.1875 184.238281 L 9.648438 174.449219 L 22.078125 174.449219 L 14.558594 184.238281 Z M 15.355469 184.238281 L 22.878906 174.449219 L 35.34375 174.449219 L 28.765625 184.238281 Z M 29.527344 184.238281 L 36.105469 174.449219 L 48.609375 174.449219 L 42.972656 184.238281 Z M 43.703125 184.238281 L 49.339844 174.449219 L 61.871094 174.449219 L 57.175781 184.238281 Z M 72.054688 184.238281 L 75.808594 174.449219 L 88.386719 174.449219 L 85.574219 184.238281 C 80.484375 184.238281 75.90625 184.238281 72.054688 184.238281 Z M 171.371094 184.238281 L 168.535156 174.449219 L 181.113281 174.449219 L 184.890625 184.238281 C 181.039062 184.238281 176.460938 184.238281 171.371094 184.238281 Z M 199.769531 184.238281 L 195.050781 174.449219 L 207.578125 174.449219 L 213.242188 184.238281 C 207.140625 184.238281 202.367188 184.238281 199.769531 184.238281 Z M 213.972656 184.238281 L 208.308594 174.449219 L 220.8125 174.449219 L 227.417969 184.238281 C 222.546875 184.238281 217.988281 184.238281 213.972656 184.238281 Z M 228.179688 184.238281 L 221.574219 174.449219 L 234.042969 174.449219 L 241.585938 184.238281 C 236.992188 184.238281 232.472656 184.238281 228.179688 184.238281 Z M 242.386719 184.238281 L 234.839844 174.449219 L 247.269531 174.449219 L 255.757812 184.238281 C 251.332031 184.238281 246.828125 184.238281 242.386719 184.238281 Z M 256.59375 184.238281 L 248.105469 174.449219 L 260.5 174.449219 L 269.925781 184.238281 C 265.679688 184.238281 261.183594 184.238281 256.59375 184.238281 Z M 270.804688 184.238281 L 261.375 174.449219 L 273.722656 174.449219 L 284.09375 184.238281 C 280.167969 184.238281 275.65625 184.238281 270.804688 184.238281 Z M 285.015625 184.238281 L 274.644531 174.449219 L 286.949219 174.449219 L 298.261719 184.238281 C 296.398438 184.238281 291.585938 184.238281 285.015625 184.238281 Z M 299.371094 184.726562 C 299.382812 184.707031 299.398438 184.6875 299.40625 184.660156 C 299.410156 184.644531 299.414062 184.628906 299.417969 184.609375 C 299.421875 184.59375 299.429688 184.574219 299.429688 184.554688 C 299.429688 184.546875 299.425781 184.542969 299.425781 184.539062 C 299.425781 184.523438 299.421875 184.511719 299.417969 184.5 C 299.410156 184.46875 299.40625 184.445312 299.394531 184.417969 C 299.390625 184.410156 299.386719 184.40625 299.382812 184.398438 C 299.367188 184.371094 299.347656 184.34375 299.320312 184.320312 C 299.320312 184.316406 299.320312 184.316406 299.316406 184.316406 L 276.835938 164.863281 C 276.832031 164.859375 276.832031 164.859375 276.828125 164.859375 L 267.671875 156.9375 C 267.671875 156.933594 267.667969 156.929688 267.664062 156.925781 L 234.8125 128.5 C 234.8125 128.5 234.8125 128.5 234.808594 128.5 L 206.335938 103.378906 L 206.335938 -1.03125 C 206.335938 -1.207031 206.195312 -1.34375 206.019531 -1.34375 L 50.773438 -1.34375 C 50.597656 -1.34375 50.457031 -1.207031 50.457031 -1.03125 L 50.457031 103.378906 L 21.761719 128.5 L 4.203125 143.691406 L -11.09375 156.925781 C -11.097656 156.929688 -11.101562 156.933594 -11.105469 156.9375 L -20.257812 164.855469 C -20.261719 164.859375 -20.265625 164.863281 -20.269531 164.863281 L -42.75 184.316406 C -42.75 184.316406 -42.75 184.316406 -42.75 184.320312 C -42.777344 184.34375 -42.800781 184.371094 -42.816406 184.402344 C -42.820312 184.40625 -42.824219 184.414062 -42.828125 184.417969 C -42.839844 184.445312 -42.84375 184.472656 -42.847656 184.503906 C -42.851562 184.515625 -42.855469 184.523438 -42.855469 184.539062 C -42.855469 184.542969 -42.859375 184.546875 -42.859375 184.554688 C -42.859375 184.574219 -42.851562 184.59375 -42.847656 184.613281 C -42.84375 184.632812 -42.84375 184.644531 -42.839844 184.660156 C -42.828125 184.6875 -42.8125 184.707031 -42.796875 184.730469 C -42.792969 184.742188 -42.789062 184.753906 -42.78125 184.761719 C -42.78125 184.761719 -42.777344 184.765625 -42.773438 184.765625 C -42.75 184.792969 -42.722656 184.808594 -42.695312 184.824219 C -42.683594 184.832031 -42.679688 184.839844 -42.667969 184.84375 C -42.652344 184.851562 -42.636719 184.847656 -42.625 184.851562 C -42.597656 184.859375 -42.570312 184.871094 -42.542969 184.871094 C -42.539062 184.871094 -42.539062 184.867188 -42.535156 184.867188 C -42.363281 184.867188 -36.625 184.867188 -27.953125 184.867188 C -27.949219 184.867188 -27.949219 184.871094 -27.945312 184.871094 C -27.945312 184.871094 -27.941406 184.867188 -27.941406 184.867188 C -23.78125 184.867188 -18.949219 184.867188 -13.734375 184.867188 C -13.730469 184.867188 -13.730469 184.871094 -13.726562 184.871094 C -13.726562 184.871094 -13.722656 184.867188 -13.722656 184.867188 C -9.210938 184.867188 -4.410156 184.867188 0.488281 184.867188 C 0.492188 184.867188 0.492188 184.871094 0.496094 184.871094 C 0.496094 184.871094 0.5 184.867188 0.5 184.867188 C 5.199219 184.867188 9.988281 184.867188 14.707031 184.867188 C 14.710938 184.871094 14.710938 184.871094 14.714844 184.871094 C 14.714844 184.871094 14.714844 184.871094 14.71875 184.867188 C 19.59375 184.871094 24.390625 184.871094 28.925781 184.871094 C 28.929688 184.871094 28.929688 184.871094 28.933594 184.871094 C 28.933594 184.871094 28.933594 184.871094 28.9375 184.871094 C 34.101562 184.871094 38.929688 184.871094 43.148438 184.871094 C 43.152344 184.871094 43.152344 184.871094 43.15625 184.871094 C 43.15625 184.871094 43.160156 184.871094 43.160156 184.871094 C 49.695312 184.871094 54.765625 184.871094 57.371094 184.871094 C 57.375 184.871094 57.375 184.871094 57.375 184.871094 C 58.625 184.871094 59.3125 184.871094 59.3125 184.871094 L 197.632812 184.871094 C 197.640625 184.871094 197.648438 184.871094 197.660156 184.867188 L 199.5625 184.867188 C 199.566406 184.867188 199.566406 184.871094 199.574219 184.871094 C 199.574219 184.871094 199.574219 184.867188 199.578125 184.867188 L 213.78125 184.867188 C 213.785156 184.867188 213.789062 184.871094 213.789062 184.871094 C 213.792969 184.871094 213.796875 184.867188 213.800781 184.867188 L 228.007812 184.867188 C 228.007812 184.867188 228.011719 184.871094 228.011719 184.871094 C 228.015625 184.871094 228.019531 184.867188 228.019531 184.867188 L 242.226562 184.867188 C 242.230469 184.867188 242.230469 184.871094 242.230469 184.871094 C 242.234375 184.871094 242.238281 184.867188 242.238281 184.867188 L 256.445312 184.867188 C 256.445312 184.867188 256.449219 184.871094 256.449219 184.871094 C 256.453125 184.871094 256.453125 184.867188 256.457031 184.867188 L 270.667969 184.867188 C 270.667969 184.867188 270.671875 184.871094 270.671875 184.871094 C 270.675781 184.871094 270.675781 184.867188 270.679688 184.867188 L 284.886719 184.867188 C 284.886719 184.867188 284.890625 184.871094 284.890625 184.871094 C 284.894531 184.871094 284.894531 184.867188 284.898438 184.867188 L 299.101562 184.867188 C 299.105469 184.867188 299.109375 184.871094 299.109375 184.871094 C 299.140625 184.871094 299.167969 184.859375 299.195312 184.851562 C 299.207031 184.847656 299.222656 184.847656 299.234375 184.84375 C 299.246094 184.839844 299.253906 184.828125 299.265625 184.824219 C 299.292969 184.808594 299.320312 184.792969 299.34375 184.765625 C 299.34375 184.765625 299.347656 184.761719 299.347656 184.761719 C 299.359375 184.75 299.359375 184.738281 299.371094 184.726562 " fill-opacity="1" fill-rule="nonzero"/></g><g clip-path="url(#bc9901a445)"><path fill="#ffffff" d="M 135.535156 62.179688 L 230.125 62.179688 L 230.125 134.558594 L 135.535156 134.558594 Z M 135.535156 62.179688 " fill-opacity="1" fill-rule="nonzero"/><path fill="#ffffff" d="M 135.535156 62.179688 L 230.125 62.179688 L 230.125 134.558594 L 135.535156 134.558594 Z M 135.535156 62.179688 " fill-opacity="1" fill-rule="nonzero"/></g><g clip-path="url(#1d3a4377a9)"><path stroke-linecap="butt" transform="matrix(1.501414, 0, 0, 1.507901, 127.1835, 62.179675)" fill="none" stroke-linejoin="miter" d="M 0.0000626343 0.99995 L 74.122874 0.99995 " stroke="#000000" stroke-width="2" stroke-opacity="1" stroke-miterlimit="4"/></g><g clip-path="url(#139fe3cfa1)"><path stroke-linecap="butt" transform="matrix(1.501414, 0, 0, 1.507901, 132.888867, 131.543109)" fill="none" stroke-linejoin="miter" d="M 0.0011712 0.999848 L 74.123983 0.999848 " stroke="#000000" stroke-width="2" stroke-opacity="1" stroke-miterlimit="4"/></g><g clip-path="url(#2a1ab6659b)"><path stroke-linecap="butt" transform="matrix(0, 1.507901, -1.501414, 0, 138.538411, 63.687576)" fill="none" stroke-linejoin="miter" d="M -0.0000503311 0.998624 L 48.0023 0.998624 " stroke="#000000" stroke-width="2" stroke-opacity="1" stroke-miterlimit="4"/></g><g clip-path="url(#1a240934d2)"><path stroke-linecap="butt" transform="matrix(0, 1.507901, -1.501414, 0, 230.12467, 63.687576)" fill="none" stroke-linejoin="miter" d="M -0.0000503311 1.00144 L 48.0023 1.00144 " stroke="#000000" stroke-width="2" stroke-opacity="1" stroke-miterlimit="4"/></g><g clip-path="url(#91d66a8465)"><path fill="#000000" d="M 190.804688 87.21875 C 190.035156 86.136719 188.964844 85.3125 187.597656 84.75 C 186.25 84.183594 184.683594 83.894531 182.90625 83.894531 C 181.289062 83.894531 179.820312 84.175781 178.484375 84.730469 C 177.160156 85.289062 176.082031 86.144531 175.269531 87.273438 C 174.628906 88.171875 174.226562 89.261719 174.066406 90.542969 C 173.992188 91.09375 174.441406 91.585938 175.019531 91.585938 L 178.589844 91.585938 C 179.046875 91.585938 179.433594 91.269531 179.53125 90.835938 C 179.617188 90.445312 179.769531 90.101562 179.972656 89.800781 C 180.300781 89.316406 180.726562 88.953125 181.242188 88.703125 C 181.757812 88.460938 182.304688 88.332031 182.882812 88.332031 C 183.484375 88.332031 184.023438 88.453125 184.519531 88.703125 C 185.011719 88.9375 185.40625 89.292969 185.703125 89.746094 C 185.992188 90.195312 186.144531 90.722656 186.144531 91.320312 C 186.144531 91.882812 186.007812 92.402344 185.75 92.851562 C 185.492188 93.304688 185.148438 93.722656 184.714844 94.09375 C 184.273438 94.476562 183.789062 94.832031 183.234375 95.175781 C 182.496094 95.628906 181.859375 96.128906 181.339844 96.6875 C 180.816406 97.242188 180.421875 97.96875 180.140625 98.875 C 179.875 99.785156 179.730469 100.988281 179.722656 102.507812 L 179.722656 103.265625 C 179.722656 103.78125 180.15625 104.210938 180.6875 104.210938 L 183.828125 104.210938 C 184.359375 104.210938 184.792969 103.789062 184.792969 103.265625 L 184.792969 102.507812 C 184.800781 101.660156 184.914062 100.941406 185.132812 100.359375 C 185.347656 99.785156 185.6875 99.269531 186.128906 98.824219 C 186.578125 98.382812 187.15625 97.960938 187.855469 97.550781 C 188.699219 97.058594 189.421875 96.515625 190.035156 95.910156 C 190.644531 95.304688 191.128906 94.613281 191.472656 93.820312 C 191.820312 93.039062 191.996094 92.132812 191.996094 91.117188 C 191.972656 89.589844 191.578125 88.292969 190.804688 87.21875 Z M 190.804688 87.21875 " fill-opacity="1" fill-rule="nonzero"/></g><g clip-path="url(#6f7151177e)"><path fill="#000000" d="M 182.359375 106.316406 C 181.46875 106.316406 180.703125 106.613281 180.078125 107.226562 C 179.449219 107.832031 179.136719 108.566406 179.152344 109.414062 C 179.136719 110.273438 179.449219 111.015625 180.078125 111.628906 C 180.703125 112.242188 181.46875 112.539062 182.359375 112.539062 C 182.921875 112.539062 183.453125 112.402344 183.925781 112.121094 C 184.410156 111.828125 184.792969 111.457031 185.101562 110.980469 C 185.398438 110.503906 185.550781 109.988281 185.558594 109.414062 C 185.542969 108.558594 185.21875 107.832031 184.578125 107.226562 C 183.941406 106.613281 183.203125 106.316406 182.359375 106.316406 Z M 182.359375 106.316406 " fill-opacity="1" fill-rule="nonzero"/></g></svg>