<svg xmlns="http://www.w3.org/2000/svg" xmlns:xlink="http://www.w3.org/1999/xlink" width="343" zoomAndPan="magnify" viewBox="0 0 257.25 186.749995" height="249" preserveAspectRatio="xMidYMid meet" version="1.0"><defs><clipPath id="34ce5bda4e"><path d="M 0 0.148438 L 256.503906 0.148438 L 256.503906 186.355469 L 0 186.355469 Z M 0 0.148438 " clip-rule="nonzero"/></clipPath><clipPath id="57791a5191"><path d="M 128.8125 63.921875 L 223.402344 63.921875 L 223.402344 136.300781 L 128.8125 136.300781 Z M 128.8125 63.921875 " clip-rule="nonzero"/></clipPath><clipPath id="50c6c78fd6"><path d="M 128.8125 63.921875 L 223.402344 63.921875 L 223.402344 67 L 128.8125 67 Z M 128.8125 63.921875 " clip-rule="nonzero"/></clipPath><clipPath id="be97d488b8"><path d="M 128.8125 133 L 223.402344 133 L 223.402344 136.300781 L 128.8125 136.300781 Z M 128.8125 133 " clip-rule="nonzero"/></clipPath><clipPath id="89837ca368"><path d="M 128.8125 63.921875 L 132 63.921875 L 132 136.300781 L 128.8125 136.300781 Z M 128.8125 63.921875 " clip-rule="nonzero"/></clipPath><clipPath id="79c4f88f10"><path d="M 220 63.921875 L 223.402344 63.921875 L 223.402344 136.300781 L 220 136.300781 Z M 220 63.921875 " clip-rule="nonzero"/></clipPath><clipPath id="c33ea2af9f"><path d="M 167.261719 85.636719 L 185.28125 85.636719 L 185.28125 106 L 167.261719 106 Z M 167.261719 85.636719 " clip-rule="nonzero"/></clipPath><clipPath id="c480fed1e9"><path d="M 172 108 L 179 108 L 179 114.28125 L 172 114.28125 Z M 172 108 " clip-rule="nonzero"/></clipPath></defs><g clip-path="url(#34ce5bda4e)"><path fill="#231f20" d="M 82.921875 186.238281 C 82.921875 186.429688 82.855469 186.589844 82.71875 186.726562 C 82.585938 186.859375 82.421875 186.925781 82.230469 186.925781 L 71.113281 186.925781 L 71.113281 198.046875 C 71.113281 198.238281 71.042969 198.398438 70.910156 198.535156 C 70.777344 198.667969 70.613281 198.734375 70.421875 198.734375 C 70.234375 198.734375 70.070312 198.667969 69.933594 198.535156 C 69.800781 198.398438 69.734375 198.238281 69.734375 198.046875 L 69.734375 186.925781 L 58.613281 186.925781 C 58.417969 186.933594 58.25 186.867188 58.113281 186.734375 C 57.972656 186.597656 57.902344 186.433594 57.902344 186.238281 C 57.902344 186.042969 57.972656 185.878906 58.113281 185.742188 C 58.25 185.605469 58.417969 185.542969 58.613281 185.546875 L 69.734375 185.546875 L 69.734375 174.429688 C 69.734375 174.238281 69.800781 174.074219 69.933594 173.941406 C 70.070312 173.804688 70.234375 173.738281 70.421875 173.738281 C 70.613281 173.738281 70.777344 173.804688 70.910156 173.941406 C 71.042969 174.074219 71.113281 174.238281 71.113281 174.429688 L 71.113281 185.546875 L 82.230469 185.546875 C 82.421875 185.546875 82.585938 185.617188 82.71875 185.75 C 82.855469 185.886719 82.921875 186.046875 82.921875 186.238281 Z M 82.230469 243.402344 L 71.113281 243.402344 L 71.113281 232.28125 C 71.113281 232.089844 71.042969 231.925781 70.910156 231.792969 C 70.777344 231.660156 70.613281 231.589844 70.421875 231.589844 C 70.234375 231.589844 70.070312 231.660156 69.933594 231.792969 C 69.800781 231.925781 69.734375 232.089844 69.734375 232.28125 L 69.734375 243.402344 L 58.613281 243.402344 C 58.417969 243.394531 58.25 243.460938 58.113281 243.59375 C 57.972656 243.730469 57.902344 243.894531 57.902344 244.089844 C 57.902344 244.285156 57.972656 244.449219 58.113281 244.585938 C 58.25 244.71875 58.417969 244.785156 58.613281 244.777344 L 69.734375 244.777344 L 69.734375 255.898438 C 69.734375 256.089844 69.800781 256.25 69.933594 256.386719 C 70.070312 256.519531 70.234375 256.589844 70.421875 256.589844 C 70.613281 256.589844 70.777344 256.519531 70.910156 256.386719 C 71.042969 256.25 71.113281 256.089844 71.113281 255.898438 L 71.113281 244.777344 L 82.230469 244.777344 C 82.425781 244.785156 82.59375 244.71875 82.734375 244.585938 C 82.875 244.449219 82.941406 244.285156 82.941406 244.089844 C 82.941406 243.894531 82.875 243.730469 82.734375 243.59375 C 82.59375 243.460938 82.425781 243.394531 82.230469 243.402344 Z M 82.230469 127.695312 L 71.113281 127.695312 L 71.113281 116.574219 C 71.113281 116.386719 71.042969 116.222656 70.910156 116.089844 C 70.777344 115.953125 70.613281 115.886719 70.421875 115.886719 C 70.234375 115.886719 70.070312 115.953125 69.933594 116.089844 C 69.800781 116.222656 69.734375 116.386719 69.734375 116.574219 L 69.734375 127.695312 L 58.613281 127.695312 C 58.417969 127.691406 58.25 127.753906 58.113281 127.890625 C 57.972656 128.027344 57.902344 128.191406 57.902344 128.386719 C 57.902344 128.578125 57.972656 128.746094 58.113281 128.878906 C 58.25 129.015625 58.417969 129.082031 58.613281 129.074219 L 69.734375 129.074219 L 69.734375 140.195312 C 69.734375 140.386719 69.800781 140.546875 69.933594 140.683594 C 70.070312 140.816406 70.234375 140.882812 70.421875 140.882812 C 70.613281 140.882812 70.777344 140.816406 70.910156 140.683594 C 71.042969 140.546875 71.113281 140.386719 71.113281 140.195312 L 71.113281 129.074219 L 82.230469 129.074219 C 82.425781 129.082031 82.59375 129.015625 82.734375 128.878906 C 82.875 128.746094 82.941406 128.578125 82.941406 128.386719 C 82.941406 128.191406 82.875 128.027344 82.734375 127.890625 C 82.59375 127.753906 82.425781 127.691406 82.230469 127.695312 Z M 82.230469 69.84375 L 71.113281 69.84375 L 71.113281 58.722656 C 71.113281 58.535156 71.042969 58.371094 70.910156 58.234375 C 70.777344 58.101562 70.613281 58.035156 70.421875 58.035156 C 70.234375 58.035156 70.070312 58.101562 69.933594 58.234375 C 69.800781 58.371094 69.734375 58.535156 69.734375 58.722656 L 69.734375 69.84375 L 58.613281 69.84375 C 58.417969 69.839844 58.25 69.902344 58.113281 70.039062 C 57.972656 70.171875 57.902344 70.339844 57.902344 70.53125 C 57.902344 70.726562 57.972656 70.894531 58.113281 71.027344 C 58.25 71.164062 58.417969 71.226562 58.613281 71.222656 L 69.734375 71.222656 L 69.734375 82.34375 C 69.734375 82.53125 69.800781 82.695312 69.933594 82.828125 C 70.070312 82.964844 70.234375 83.03125 70.421875 83.03125 C 70.613281 83.03125 70.777344 82.964844 70.910156 82.828125 C 71.042969 82.695312 71.113281 82.53125 71.113281 82.34375 L 71.113281 71.222656 L 82.230469 71.222656 C 82.425781 71.226562 82.59375 71.164062 82.734375 71.027344 C 82.875 70.894531 82.941406 70.726562 82.941406 70.53125 C 82.941406 70.339844 82.875 70.171875 82.734375 70.039062 C 82.59375 69.902344 82.425781 69.839844 82.230469 69.84375 Z M 82.230469 11.992188 L 71.113281 11.992188 L 71.113281 0.871094 C 71.113281 0.679688 71.042969 0.519531 70.910156 0.382812 C 70.777344 0.25 70.613281 0.183594 70.421875 0.183594 C 70.234375 0.183594 70.070312 0.25 69.933594 0.382812 C 69.800781 0.519531 69.734375 0.679688 69.734375 0.871094 L 69.734375 11.992188 L 58.613281 11.992188 C 58.417969 11.984375 58.25 12.050781 58.113281 12.1875 C 57.972656 12.320312 57.902344 12.484375 57.902344 12.679688 C 57.902344 12.875 57.972656 13.039062 58.113281 13.175781 C 58.25 13.3125 58.417969 13.375 58.613281 13.371094 L 69.734375 13.371094 L 69.734375 24.492188 C 69.734375 24.679688 69.800781 24.84375 69.933594 24.976562 C 70.070312 25.113281 70.234375 25.179688 70.421875 25.179688 C 70.613281 25.179688 70.777344 25.113281 70.910156 24.976562 C 71.042969 24.84375 71.113281 24.679688 71.113281 24.492188 L 71.113281 13.371094 L 82.230469 13.371094 C 82.425781 13.375 82.59375 13.3125 82.734375 13.175781 C 82.875 13.039062 82.941406 12.875 82.941406 12.679688 C 82.941406 12.484375 82.875 12.320312 82.734375 12.1875 C 82.59375 12.050781 82.425781 11.984375 82.230469 11.992188 Z M 232.171875 13.371094 L 243.289062 13.371094 L 243.289062 24.492188 C 243.289062 24.679688 243.359375 24.84375 243.492188 24.976562 C 243.625 25.113281 243.789062 25.179688 243.980469 25.179688 C 244.167969 25.179688 244.332031 25.113281 244.464844 24.976562 C 244.601562 24.84375 244.667969 24.679688 244.667969 24.492188 L 244.667969 13.371094 L 255.789062 13.371094 C 255.984375 13.375 256.148438 13.3125 256.289062 13.175781 C 256.429688 13.039062 256.5 12.875 256.5 12.679688 C 256.5 12.484375 256.429688 12.320312 256.289062 12.1875 C 256.148438 12.050781 255.984375 11.984375 255.789062 11.992188 L 244.667969 11.992188 L 244.667969 0.871094 C 244.667969 0.679688 244.601562 0.519531 244.464844 0.382812 C 244.332031 0.25 244.167969 0.183594 243.980469 0.183594 C 243.789062 0.183594 243.625 0.25 243.492188 0.382812 C 243.359375 0.519531 243.289062 0.679688 243.289062 0.871094 L 243.289062 11.992188 L 232.171875 11.992188 C 231.976562 11.984375 231.808594 12.050781 231.667969 12.1875 C 231.527344 12.320312 231.457031 12.484375 231.457031 12.679688 C 231.457031 12.875 231.527344 13.039062 231.667969 13.175781 C 231.808594 13.3125 231.976562 13.375 232.171875 13.371094 Z M 24.378906 243.402344 L 13.257812 243.402344 L 13.257812 232.28125 C 13.257812 232.089844 13.191406 231.925781 13.058594 231.792969 C 12.921875 231.660156 12.761719 231.589844 12.570312 231.589844 C 12.378906 231.589844 12.21875 231.660156 12.082031 231.792969 C 11.949219 231.925781 11.882812 232.089844 11.882812 232.28125 L 11.882812 243.402344 L 0.761719 243.402344 C 0.566406 243.394531 0.398438 243.460938 0.261719 243.59375 C 0.121094 243.730469 0.0507812 243.894531 0.0507812 244.089844 C 0.0507812 244.285156 0.121094 244.449219 0.261719 244.585938 C 0.398438 244.71875 0.566406 244.785156 0.761719 244.777344 L 11.882812 244.777344 L 11.882812 255.898438 C 11.882812 256.089844 11.949219 256.25 12.082031 256.386719 C 12.21875 256.519531 12.378906 256.589844 12.570312 256.589844 C 12.761719 256.589844 12.921875 256.519531 13.058594 256.386719 C 13.191406 256.25 13.257812 256.089844 13.257812 255.898438 L 13.257812 244.777344 L 24.378906 244.777344 C 24.574219 244.785156 24.742188 244.71875 24.882812 244.585938 C 25.019531 244.449219 25.089844 244.285156 25.089844 244.089844 C 25.089844 243.894531 25.019531 243.730469 24.882812 243.59375 C 24.742188 243.460938 24.574219 243.394531 24.378906 243.402344 Z M 140.085938 243.402344 L 128.964844 243.402344 L 128.964844 232.28125 C 128.964844 232.089844 128.898438 231.925781 128.761719 231.792969 C 128.628906 231.660156 128.464844 231.589844 128.273438 231.589844 C 128.085938 231.589844 127.921875 231.660156 127.789062 231.792969 C 127.652344 231.925781 127.585938 232.089844 127.585938 232.28125 L 127.585938 243.402344 L 116.464844 243.402344 C 116.269531 243.394531 116.105469 243.460938 115.964844 243.59375 C 115.824219 243.730469 115.753906 243.894531 115.753906 244.089844 C 115.753906 244.285156 115.824219 244.449219 115.964844 244.585938 C 116.105469 244.71875 116.269531 244.785156 116.464844 244.777344 L 127.585938 244.777344 L 127.585938 255.898438 C 127.585938 256.089844 127.652344 256.25 127.789062 256.386719 C 127.921875 256.519531 128.085938 256.589844 128.273438 256.589844 C 128.464844 256.589844 128.628906 256.519531 128.761719 256.386719 C 128.898438 256.25 128.964844 256.089844 128.964844 255.898438 L 128.964844 244.777344 L 140.085938 244.777344 C 140.277344 244.785156 140.445312 244.71875 140.585938 244.585938 C 140.726562 244.449219 140.796875 244.285156 140.796875 244.089844 C 140.796875 243.894531 140.726562 243.730469 140.585938 243.59375 C 140.445312 243.460938 140.277344 243.394531 140.085938 243.402344 Z M 24.378906 185.546875 L 13.257812 185.546875 L 13.257812 174.429688 C 13.257812 174.238281 13.191406 174.074219 13.058594 173.941406 C 12.921875 173.804688 12.761719 173.738281 12.570312 173.738281 C 12.378906 173.738281 12.21875 173.804688 12.082031 173.941406 C 11.949219 174.074219 11.882812 174.238281 11.882812 174.429688 L 11.882812 185.546875 L 0.761719 185.546875 C 0.566406 185.542969 0.398438 185.605469 0.261719 185.742188 C 0.121094 185.878906 0.0507812 186.042969 0.0507812 186.238281 C 0.0507812 186.433594 0.121094 186.597656 0.261719 186.734375 C 0.398438 186.867188 0.566406 186.933594 0.761719 186.925781 L 11.882812 186.925781 L 11.882812 198.046875 C 11.882812 198.238281 11.949219 198.398438 12.082031 198.535156 C 12.21875 198.667969 12.378906 198.734375 12.570312 198.734375 C 12.761719 198.734375 12.921875 198.667969 13.058594 198.535156 C 13.191406 198.398438 13.257812 198.238281 13.257812 198.046875 L 13.257812 186.925781 L 24.378906 186.925781 C 24.574219 186.933594 24.742188 186.867188 24.882812 186.734375 C 25.019531 186.597656 25.089844 186.433594 25.089844 186.238281 C 25.089844 186.042969 25.019531 185.878906 24.882812 185.742188 C 24.742188 185.605469 24.574219 185.542969 24.378906 185.546875 Z M 24.378906 127.695312 L 13.257812 127.695312 L 13.257812 116.574219 C 13.257812 116.386719 13.191406 116.222656 13.058594 116.089844 C 12.921875 115.953125 12.761719 115.886719 12.570312 115.886719 C 12.378906 115.886719 12.21875 115.953125 12.082031 116.089844 C 11.949219 116.222656 11.882812 116.386719 11.882812 116.574219 L 11.882812 127.695312 L 0.761719 127.695312 C 0.566406 127.691406 0.398438 127.753906 0.261719 127.890625 C 0.121094 128.027344 0.0507812 128.191406 0.0507812 128.386719 C 0.0507812 128.578125 0.121094 128.746094 0.261719 128.878906 C 0.398438 129.015625 0.566406 129.082031 0.761719 129.074219 L 11.882812 129.074219 L 11.882812 140.195312 C 11.882812 140.386719 11.949219 140.546875 12.082031 140.683594 C 12.21875 140.816406 12.378906 140.882812 12.570312 140.882812 C 12.761719 140.882812 12.921875 140.816406 13.058594 140.683594 C 13.191406 140.546875 13.257812 140.386719 13.257812 140.195312 L 13.257812 129.074219 L 24.378906 129.074219 C 24.574219 129.082031 24.742188 129.015625 24.882812 128.878906 C 25.019531 128.746094 25.089844 128.578125 25.089844 128.386719 C 25.089844 128.191406 25.019531 128.027344 24.882812 127.890625 C 24.742188 127.753906 24.574219 127.691406 24.378906 127.695312 Z M 24.378906 69.84375 L 13.257812 69.84375 L 13.257812 58.722656 C 13.257812 58.535156 13.191406 58.371094 13.058594 58.234375 C 12.921875 58.101562 12.761719 58.035156 12.570312 58.035156 C 12.378906 58.035156 12.21875 58.101562 12.082031 58.234375 C 11.949219 58.371094 11.882812 58.535156 11.882812 58.722656 L 11.882812 69.84375 L 0.761719 69.84375 C 0.566406 69.839844 0.398438 69.902344 0.261719 70.039062 C 0.121094 70.171875 0.0507812 70.339844 0.0507812 70.53125 C 0.0507812 70.726562 0.121094 70.894531 0.261719 71.027344 C 0.398438 71.164062 0.566406 71.226562 0.761719 71.222656 L 11.882812 71.222656 L 11.882812 82.34375 C 11.882812 82.53125 11.949219 82.695312 12.082031 82.828125 C 12.21875 82.964844 12.378906 83.03125 12.570312 83.03125 C 12.761719 83.03125 12.921875 82.964844 13.058594 82.828125 C 13.191406 82.695312 13.257812 82.53125 13.257812 82.34375 L 13.257812 71.222656 L 24.378906 71.222656 C 24.574219 71.226562 24.742188 71.164062 24.882812 71.027344 C 25.019531 70.894531 25.089844 70.726562 25.089844 70.53125 C 25.089844 70.339844 25.019531 70.171875 24.882812 70.039062 C 24.742188 69.902344 24.574219 69.839844 24.378906 69.84375 Z M 24.378906 11.992188 L 13.257812 11.992188 L 13.257812 0.871094 C 13.257812 0.679688 13.191406 0.519531 13.058594 0.382812 C 12.921875 0.25 12.761719 0.183594 12.570312 0.183594 C 12.378906 0.183594 12.21875 0.25 12.082031 0.382812 C 11.949219 0.519531 11.882812 0.679688 11.882812 0.871094 L 11.882812 11.992188 L 0.761719 11.992188 C 0.566406 11.984375 0.398438 12.050781 0.261719 12.1875 C 0.121094 12.320312 0.0507812 12.484375 0.0507812 12.679688 C 0.0507812 12.875 0.121094 13.039062 0.261719 13.175781 C 0.398438 13.3125 0.566406 13.375 0.761719 13.371094 L 11.882812 13.371094 L 11.882812 24.492188 C 11.882812 24.679688 11.949219 24.84375 12.082031 24.976562 C 12.21875 25.113281 12.378906 25.179688 12.570312 25.179688 C 12.761719 25.179688 12.921875 25.113281 13.058594 24.976562 C 13.191406 24.84375 13.257812 24.679688 13.257812 24.492188 L 13.257812 13.371094 L 24.378906 13.371094 C 24.574219 13.375 24.742188 13.3125 24.882812 13.175781 C 25.019531 13.039062 25.089844 12.875 25.089844 12.679688 C 25.089844 12.484375 25.019531 12.320312 24.882812 12.1875 C 24.742188 12.050781 24.574219 11.984375 24.378906 11.992188 Z M 197.9375 127.695312 L 186.816406 127.695312 L 186.816406 116.574219 C 186.816406 116.386719 186.75 116.222656 186.613281 116.089844 C 186.480469 115.953125 186.316406 115.886719 186.128906 115.886719 C 185.9375 115.886719 185.773438 115.953125 185.640625 116.089844 C 185.503906 116.222656 185.4375 116.386719 185.4375 116.574219 L 185.4375 127.695312 L 174.316406 127.695312 C 174.125 127.691406 173.957031 127.753906 173.816406 127.890625 C 173.675781 128.027344 173.605469 128.191406 173.605469 128.386719 C 173.605469 128.578125 173.675781 128.746094 173.816406 128.878906 C 173.957031 129.015625 174.125 129.082031 174.316406 129.074219 L 185.4375 129.074219 L 185.4375 140.195312 C 185.4375 140.386719 185.503906 140.546875 185.640625 140.683594 C 185.773438 140.816406 185.9375 140.882812 186.128906 140.882812 C 186.316406 140.882812 186.480469 140.816406 186.613281 140.683594 C 186.75 140.546875 186.816406 140.386719 186.816406 140.195312 L 186.816406 129.074219 L 197.9375 129.074219 C 198.128906 129.082031 198.296875 129.015625 198.4375 128.878906 C 198.578125 128.746094 198.648438 128.578125 198.648438 128.386719 C 198.648438 128.191406 198.578125 128.027344 198.4375 127.890625 C 198.296875 127.753906 198.128906 127.691406 197.9375 127.695312 Z M 197.9375 69.84375 L 186.816406 69.84375 L 186.816406 58.722656 C 186.816406 58.535156 186.75 58.371094 186.613281 58.234375 C 186.480469 58.101562 186.316406 58.035156 186.128906 58.035156 C 185.9375 58.035156 185.773438 58.101562 185.640625 58.234375 C 185.503906 58.371094 185.4375 58.535156 185.4375 58.722656 L 185.4375 69.84375 L 174.316406 69.84375 C 174.125 69.839844 173.957031 69.902344 173.816406 70.039062 C 173.675781 70.171875 173.605469 70.339844 173.605469 70.53125 C 173.605469 70.726562 173.675781 70.894531 173.816406 71.027344 C 173.957031 71.164062 174.125 71.226562 174.316406 71.222656 L 185.4375 71.222656 L 185.4375 82.34375 C 185.4375 82.53125 185.503906 82.695312 185.640625 82.828125 C 185.773438 82.964844 185.9375 83.03125 186.128906 83.03125 C 186.316406 83.03125 186.480469 82.964844 186.613281 82.828125 C 186.75 82.695312 186.816406 82.53125 186.816406 82.34375 L 186.816406 71.222656 L 197.9375 71.222656 C 198.128906 71.226562 198.296875 71.164062 198.4375 71.027344 C 198.578125 70.894531 198.648438 70.726562 198.648438 70.53125 C 198.648438 70.339844 198.578125 70.171875 198.4375 70.039062 C 198.296875 69.902344 198.128906 69.839844 197.9375 69.84375 Z M 197.9375 11.992188 L 186.816406 11.992188 L 186.816406 0.871094 C 186.816406 0.679688 186.75 0.519531 186.613281 0.382812 C 186.480469 0.25 186.316406 0.183594 186.128906 0.183594 C 185.9375 0.183594 185.773438 0.25 185.640625 0.382812 C 185.503906 0.519531 185.4375 0.679688 185.4375 0.871094 L 185.4375 11.992188 L 174.316406 11.992188 C 174.125 11.984375 173.957031 12.050781 173.816406 12.1875 C 173.675781 12.320312 173.605469 12.484375 173.605469 12.679688 C 173.605469 12.875 173.675781 13.039062 173.816406 13.175781 C 173.957031 13.3125 174.125 13.375 174.316406 13.371094 L 185.4375 13.371094 L 185.4375 24.492188 C 185.4375 24.679688 185.503906 24.84375 185.640625 24.976562 C 185.773438 25.113281 185.9375 25.179688 186.128906 25.179688 C 186.316406 25.179688 186.480469 25.113281 186.613281 24.976562 C 186.75 24.84375 186.816406 24.679688 186.816406 24.492188 L 186.816406 13.371094 L 197.9375 13.371094 C 198.128906 13.375 198.296875 13.3125 198.4375 13.175781 C 198.578125 13.039062 198.648438 12.875 198.648438 12.679688 C 198.648438 12.484375 198.578125 12.320312 198.4375 12.1875 C 198.296875 12.050781 198.128906 11.984375 197.9375 11.992188 Z M 255.789062 185.546875 L 244.667969 185.546875 L 244.667969 174.429688 C 244.667969 174.238281 244.601562 174.074219 244.464844 173.941406 C 244.332031 173.804688 244.167969 173.738281 243.980469 173.738281 C 243.789062 173.738281 243.625 173.804688 243.492188 173.941406 C 243.359375 174.074219 243.289062 174.238281 243.289062 174.429688 L 243.289062 185.546875 L 232.171875 185.546875 C 231.976562 185.542969 231.808594 185.605469 231.667969 185.742188 C 231.527344 185.878906 231.457031 186.042969 231.457031 186.238281 C 231.457031 186.433594 231.527344 186.597656 231.667969 186.734375 C 231.808594 186.867188 231.976562 186.933594 232.171875 186.925781 L 243.289062 186.925781 L 243.289062 198.046875 C 243.289062 198.238281 243.359375 198.398438 243.492188 198.535156 C 243.625 198.667969 243.789062 198.734375 243.980469 198.734375 C 244.167969 198.734375 244.332031 198.667969 244.464844 198.535156 C 244.601562 198.398438 244.667969 198.238281 244.667969 198.046875 L 244.667969 186.925781 L 255.789062 186.925781 C 255.984375 186.933594 256.148438 186.867188 256.289062 186.734375 C 256.429688 186.597656 256.5 186.433594 256.5 186.238281 C 256.5 186.042969 256.429688 185.878906 256.289062 185.742188 C 256.148438 185.605469 255.984375 185.542969 255.789062 185.546875 Z M 255.789062 243.402344 L 244.667969 243.402344 L 244.667969 232.28125 C 244.667969 232.089844 244.601562 231.925781 244.464844 231.792969 C 244.332031 231.660156 244.167969 231.589844 243.980469 231.589844 C 243.789062 231.589844 243.625 231.660156 243.492188 231.792969 C 243.359375 231.925781 243.289062 232.089844 243.289062 232.28125 L 243.289062 243.402344 L 232.171875 243.402344 C 231.976562 243.394531 231.808594 243.460938 231.667969 243.59375 C 231.527344 243.730469 231.457031 243.894531 231.457031 244.089844 C 231.457031 244.285156 231.527344 244.449219 231.667969 244.585938 C 231.808594 244.71875 231.976562 244.785156 232.171875 244.777344 L 243.289062 244.777344 L 243.289062 255.898438 C 243.289062 256.089844 243.359375 256.25 243.492188 256.386719 C 243.625 256.519531 243.789062 256.589844 243.980469 256.589844 C 244.167969 256.589844 244.332031 256.519531 244.464844 256.386719 C 244.601562 256.25 244.667969 256.089844 244.667969 255.898438 L 244.667969 244.777344 L 255.789062 244.777344 C 255.984375 244.785156 256.148438 244.71875 256.289062 244.585938 C 256.429688 244.449219 256.5 244.285156 256.5 244.089844 C 256.5 243.894531 256.429688 243.730469 256.289062 243.59375 C 256.148438 243.460938 255.984375 243.394531 255.789062 243.402344 Z M 255.789062 69.84375 L 244.667969 69.84375 L 244.667969 58.722656 C 244.667969 58.535156 244.601562 58.371094 244.464844 58.234375 C 244.332031 58.101562 244.167969 58.035156 243.980469 58.035156 C 243.789062 58.035156 243.625 58.101562 243.492188 58.234375 C 243.359375 58.371094 243.289062 58.535156 243.289062 58.722656 L 243.289062 69.84375 L 232.171875 69.84375 C 231.976562 69.839844 231.808594 69.902344 231.667969 70.039062 C 231.527344 70.171875 231.457031 70.339844 231.457031 70.53125 C 231.457031 70.726562 231.527344 70.894531 231.667969 71.027344 C 231.808594 71.164062 231.976562 71.226562 232.171875 71.222656 L 243.289062 71.222656 L 243.289062 82.34375 C 243.289062 82.53125 243.359375 82.695312 243.492188 82.828125 C 243.625 82.964844 243.789062 83.03125 243.980469 83.03125 C 244.167969 83.03125 244.332031 82.964844 244.464844 82.828125 C 244.601562 82.695312 244.667969 82.53125 244.667969 82.34375 L 244.667969 71.222656 L 255.789062 71.222656 C 255.984375 71.226562 256.148438 71.164062 256.289062 71.027344 C 256.429688 70.894531 256.5 70.726562 256.5 70.53125 C 256.5 70.339844 256.429688 70.171875 256.289062 70.039062 C 256.148438 69.902344 255.984375 69.839844 255.789062 69.84375 Z M 140.085938 185.546875 L 128.964844 185.546875 L 128.964844 174.429688 C 128.964844 174.238281 128.898438 174.074219 128.761719 173.941406 C 128.628906 173.804688 128.464844 173.738281 128.273438 173.738281 C 128.085938 173.738281 127.921875 173.804688 127.789062 173.941406 C 127.652344 174.074219 127.585938 174.238281 127.585938 174.429688 L 127.585938 185.546875 L 116.464844 185.546875 C 116.269531 185.542969 116.105469 185.605469 115.964844 185.742188 C 115.824219 185.878906 115.753906 186.042969 115.753906 186.238281 C 115.753906 186.433594 115.824219 186.597656 115.964844 186.734375 C 116.105469 186.867188 116.269531 186.933594 116.464844 186.925781 L 127.585938 186.925781 L 127.585938 198.046875 C 127.585938 198.238281 127.652344 198.398438 127.789062 198.535156 C 127.921875 198.667969 128.085938 198.734375 128.273438 198.734375 C 128.464844 198.734375 128.628906 198.667969 128.761719 198.535156 C 128.898438 198.398438 128.964844 198.238281 128.964844 198.046875 L 128.964844 186.925781 L 140.085938 186.925781 C 140.277344 186.933594 140.445312 186.867188 140.585938 186.734375 C 140.726562 186.597656 140.796875 186.433594 140.796875 186.238281 C 140.796875 186.042969 140.726562 185.878906 140.585938 185.742188 C 140.445312 185.605469 140.277344 185.542969 140.085938 185.546875 Z M 255.789062 127.695312 L 244.667969 127.695312 L 244.667969 116.574219 C 244.667969 116.386719 244.601562 116.222656 244.464844 116.089844 C 244.332031 115.953125 244.167969 115.886719 243.980469 115.886719 C 243.789062 115.886719 243.625 115.953125 243.492188 116.089844 C 243.359375 116.222656 243.289062 116.386719 243.289062 116.574219 L 243.289062 127.695312 L 232.171875 127.695312 C 231.976562 127.691406 231.808594 127.753906 231.667969 127.890625 C 231.527344 128.027344 231.457031 128.191406 231.457031 128.386719 C 231.457031 128.578125 231.527344 128.746094 231.667969 128.878906 C 231.808594 129.015625 231.976562 129.082031 232.171875 129.074219 L 243.289062 129.074219 L 243.289062 140.195312 C 243.289062 140.386719 243.359375 140.546875 243.492188 140.683594 C 243.625 140.816406 243.789062 140.882812 243.980469 140.882812 C 244.167969 140.882812 244.332031 140.816406 244.464844 140.683594 C 244.601562 140.546875 244.667969 140.386719 244.667969 140.195312 L 244.667969 129.074219 L 255.789062 129.074219 C 255.984375 129.082031 256.148438 129.015625 256.289062 128.878906 C 256.429688 128.746094 256.5 128.578125 256.5 128.386719 C 256.5 128.191406 256.429688 128.027344 256.289062 127.890625 C 256.148438 127.753906 255.984375 127.691406 255.789062 127.695312 Z M 197.9375 185.546875 L 186.816406 185.546875 L 186.816406 174.429688 C 186.816406 174.238281 186.75 174.074219 186.613281 173.941406 C 186.480469 173.804688 186.316406 173.738281 186.128906 173.738281 C 185.9375 173.738281 185.773438 173.804688 185.640625 173.941406 C 185.503906 174.074219 185.4375 174.238281 185.4375 174.429688 L 185.4375 185.546875 L 174.316406 185.546875 C 174.125 185.542969 173.957031 185.605469 173.816406 185.742188 C 173.675781 185.878906 173.605469 186.042969 173.605469 186.238281 C 173.605469 186.433594 173.675781 186.597656 173.816406 186.734375 C 173.957031 186.867188 174.125 186.933594 174.316406 186.925781 L 185.4375 186.925781 L 185.4375 198.046875 C 185.4375 198.238281 185.503906 198.398438 185.640625 198.535156 C 185.773438 198.667969 185.9375 198.734375 186.128906 198.734375 C 186.316406 198.734375 186.480469 198.667969 186.613281 198.535156 C 186.75 198.398438 186.816406 198.238281 186.816406 198.046875 L 186.816406 186.925781 L 197.9375 186.925781 C 198.128906 186.933594 198.296875 186.867188 198.4375 186.734375 C 198.578125 186.597656 198.648438 186.433594 198.648438 186.238281 C 198.648438 186.042969 198.578125 185.878906 198.4375 185.742188 C 198.296875 185.605469 198.128906 185.542969 197.9375 185.546875 Z M 140.085938 127.695312 L 128.964844 127.695312 L 128.964844 116.574219 C 128.964844 116.386719 128.898438 116.222656 128.761719 116.089844 C 128.628906 115.953125 128.464844 115.886719 128.273438 115.886719 C 128.085938 115.886719 127.921875 115.953125 127.789062 116.089844 C 127.652344 116.222656 127.585938 116.386719 127.585938 116.574219 L 127.585938 127.695312 L 116.464844 127.695312 C 116.269531 127.691406 116.105469 127.753906 115.964844 127.890625 C 115.824219 128.027344 115.753906 128.191406 115.753906 128.386719 C 115.753906 128.578125 115.824219 128.746094 115.964844 128.878906 C 116.105469 129.015625 116.269531 129.082031 116.464844 129.074219 L 127.585938 129.074219 L 127.585938 140.195312 C 127.585938 140.386719 127.652344 140.546875 127.789062 140.683594 C 127.921875 140.816406 128.085938 140.882812 128.273438 140.882812 C 128.464844 140.882812 128.628906 140.816406 128.761719 140.683594 C 128.898438 140.546875 128.964844 140.386719 128.964844 140.195312 L 128.964844 129.074219 L 140.085938 129.074219 C 140.277344 129.082031 140.445312 129.015625 140.585938 128.878906 C 140.726562 128.746094 140.796875 128.578125 140.796875 128.386719 C 140.796875 128.191406 140.726562 128.027344 140.585938 127.890625 C 140.445312 127.753906 140.277344 127.691406 140.085938 127.695312 Z M 140.085938 69.84375 L 128.964844 69.84375 L 128.964844 58.722656 C 128.964844 58.535156 128.898438 58.371094 128.761719 58.234375 C 128.628906 58.101562 128.464844 58.035156 128.273438 58.035156 C 128.085938 58.035156 127.921875 58.101562 127.789062 58.234375 C 127.652344 58.371094 127.585938 58.535156 127.585938 58.722656 L 127.585938 69.84375 L 116.464844 69.84375 C 116.269531 69.839844 116.105469 69.902344 115.964844 70.039062 C 115.824219 70.171875 115.753906 70.339844 115.753906 70.53125 C 115.753906 70.726562 115.824219 70.894531 115.964844 71.027344 C 116.105469 71.164062 116.269531 71.226562 116.464844 71.222656 L 127.585938 71.222656 L 127.585938 82.34375 C 127.585938 82.53125 127.652344 82.695312 127.789062 82.828125 C 127.921875 82.964844 128.085938 83.03125 128.273438 83.03125 C 128.464844 83.03125 128.628906 82.964844 128.761719 82.828125 C 128.898438 82.695312 128.964844 82.53125 128.964844 82.34375 L 128.964844 71.222656 L 140.085938 71.222656 C 140.277344 71.226562 140.445312 71.164062 140.585938 71.027344 C 140.726562 70.894531 140.796875 70.726562 140.796875 70.53125 C 140.796875 70.339844 140.726562 70.171875 140.585938 70.039062 C 140.445312 69.902344 140.277344 69.839844 140.085938 69.84375 Z M 197.9375 243.402344 L 186.816406 243.402344 L 186.816406 232.28125 C 186.816406 232.089844 186.75 231.925781 186.613281 231.792969 C 186.480469 231.660156 186.316406 231.589844 186.128906 231.589844 C 185.9375 231.589844 185.773438 231.660156 185.640625 231.792969 C 185.503906 231.925781 185.4375 232.089844 185.4375 232.28125 L 185.4375 243.402344 L 174.316406 243.402344 C 174.125 243.394531 173.957031 243.460938 173.816406 243.59375 C 173.675781 243.730469 173.605469 243.894531 173.605469 244.089844 C 173.605469 244.285156 173.675781 244.449219 173.816406 244.585938 C 173.957031 244.71875 174.125 244.785156 174.316406 244.777344 L 185.4375 244.777344 L 185.4375 255.898438 C 185.4375 256.089844 185.503906 256.25 185.640625 256.386719 C 185.773438 256.519531 185.9375 256.589844 186.128906 256.589844 C 186.316406 256.589844 186.480469 256.519531 186.613281 256.386719 C 186.75 256.25 186.816406 256.089844 186.816406 255.898438 L 186.816406 244.777344 L 197.9375 244.777344 C 198.128906 244.785156 198.296875 244.71875 198.4375 244.585938 C 198.578125 244.449219 198.648438 244.285156 198.648438 244.089844 C 198.648438 243.894531 198.578125 243.730469 198.4375 243.59375 C 198.296875 243.460938 198.128906 243.394531 197.9375 243.402344 Z M 140.085938 11.992188 L 128.964844 11.992188 L 128.964844 0.871094 C 128.964844 0.679688 128.898438 0.519531 128.761719 0.382812 C 128.628906 0.25 128.464844 0.183594 128.273438 0.183594 C 128.085938 0.183594 127.921875 0.25 127.789062 0.382812 C 127.652344 0.519531 127.585938 0.679688 127.585938 0.871094 L 127.585938 11.992188 L 116.464844 11.992188 C 116.269531 11.984375 116.105469 12.050781 115.964844 12.1875 C 115.824219 12.320312 115.753906 12.484375 115.753906 12.679688 C 115.753906 12.875 115.824219 13.039062 115.964844 13.175781 C 116.105469 13.3125 116.269531 13.375 116.464844 13.371094 L 127.585938 13.371094 L 127.585938 24.492188 C 127.585938 24.679688 127.652344 24.84375 127.789062 24.976562 C 127.921875 25.113281 128.085938 25.179688 128.273438 25.179688 C 128.464844 25.179688 128.628906 25.113281 128.761719 24.976562 C 128.898438 24.84375 128.964844 24.679688 128.964844 24.492188 L 128.964844 13.371094 L 140.085938 13.371094 C 140.277344 13.375 140.445312 13.3125 140.585938 13.175781 C 140.726562 13.039062 140.796875 12.875 140.796875 12.679688 C 140.796875 12.484375 140.726562 12.320312 140.585938 12.1875 C 140.445312 12.050781 140.277344 11.984375 140.085938 11.992188 Z M 140.085938 11.992188 " fill-opacity="1" fill-rule="nonzero"/></g><g clip-path="url(#57791a5191)"><path fill="#ffffff" d="M 128.8125 63.921875 L 223.402344 63.921875 L 223.402344 136.300781 L 128.8125 136.300781 Z M 128.8125 63.921875 " fill-opacity="1" fill-rule="nonzero"/><path fill="#ffffff" d="M 128.8125 63.921875 L 223.402344 63.921875 L 223.402344 136.300781 L 128.8125 136.300781 Z M 128.8125 63.921875 " fill-opacity="1" fill-rule="nonzero"/></g><g clip-path="url(#50c6c78fd6)"><path stroke-linecap="butt" transform="matrix(1.501414, 0, 0, 1.507901, 120.462024, 63.922276)" fill="none" stroke-linejoin="miter" d="M 0.00187798 1.002265 L 74.124689 1.002265 " stroke="#000000" stroke-width="2" stroke-opacity="1" stroke-miterlimit="4"/></g><g clip-path="url(#be97d488b8)"><path stroke-linecap="butt" transform="matrix(1.501414, 0, 0, 1.507901, 126.167398, 133.285718)" fill="none" stroke-linejoin="miter" d="M 0.000380043 0.999568 L 74.125793 0.999568 " stroke="#000000" stroke-width="2" stroke-opacity="1" stroke-miterlimit="4"/></g><g clip-path="url(#89837ca368)"><path stroke-linecap="butt" transform="matrix(0, 1.507901, -1.501414, 0, 131.816943, 65.430178)" fill="none" stroke-linejoin="miter" d="M 0.0022654 0.999415 L 48.002025 0.999415 " stroke="#000000" stroke-width="2" stroke-opacity="1" stroke-miterlimit="4"/></g><g clip-path="url(#79c4f88f10)"><path stroke-linecap="butt" transform="matrix(0, 1.507901, -1.501414, 0, 223.403201, 65.430178)" fill="none" stroke-linejoin="miter" d="M 0.0022654 1.002231 L 48.002025 1.002231 " stroke="#000000" stroke-width="2" stroke-opacity="1" stroke-miterlimit="4"/></g><g clip-path="url(#c33ea2af9f)"><path fill="#000000" d="M 184.085938 88.960938 C 183.3125 87.878906 182.246094 87.054688 180.878906 86.492188 C 179.527344 85.925781 177.960938 85.636719 176.183594 85.636719 C 174.570312 85.636719 173.097656 85.917969 171.765625 86.476562 C 170.4375 87.03125 169.359375 87.886719 168.550781 89.015625 C 167.90625 89.914062 167.503906 91.003906 167.34375 92.285156 C 167.269531 92.835938 167.722656 93.328125 168.300781 93.328125 L 171.867188 93.328125 C 172.328125 93.328125 172.710938 93.011719 172.808594 92.578125 C 172.898438 92.191406 173.050781 91.84375 173.25 91.542969 C 173.582031 91.058594 174.007812 90.695312 174.519531 90.445312 C 175.035156 90.203125 175.582031 90.074219 176.160156 90.074219 C 176.761719 90.074219 177.300781 90.195312 177.800781 90.445312 C 178.289062 90.679688 178.683594 91.035156 178.980469 91.488281 C 179.269531 91.941406 179.421875 92.464844 179.421875 93.0625 C 179.421875 93.625 179.285156 94.144531 179.03125 94.59375 C 178.773438 95.046875 178.425781 95.46875 177.992188 95.839844 C 177.550781 96.21875 177.066406 96.574219 176.515625 96.917969 C 175.773438 97.371094 175.140625 97.871094 174.617188 98.429688 C 174.09375 98.984375 173.699219 99.710938 173.417969 100.617188 C 173.152344 101.527344 173.007812 102.730469 173 104.25 L 173 105.007812 C 173 105.523438 173.4375 105.953125 173.964844 105.953125 L 177.109375 105.953125 C 177.640625 105.953125 178.074219 105.53125 178.074219 105.007812 L 178.074219 104.25 C 178.082031 103.402344 178.195312 102.683594 178.410156 102.101562 C 178.628906 101.527344 178.964844 101.011719 179.40625 100.566406 C 179.855469 100.125 180.4375 99.703125 181.136719 99.292969 C 181.980469 98.800781 182.703125 98.257812 183.3125 97.65625 C 183.925781 97.050781 184.40625 96.355469 184.75 95.5625 C 185.097656 94.78125 185.273438 93.875 185.273438 92.859375 C 185.25 91.335938 184.855469 90.035156 184.085938 88.960938 Z M 184.085938 88.960938 " fill-opacity="1" fill-rule="nonzero"/></g><g clip-path="url(#c480fed1e9)"><path fill="#000000" d="M 175.636719 108.058594 C 174.746094 108.058594 173.980469 108.359375 173.355469 108.972656 C 172.726562 109.578125 172.414062 110.3125 172.429688 111.160156 C 172.414062 112.015625 172.726562 112.757812 173.355469 113.371094 C 173.980469 113.984375 174.746094 114.28125 175.636719 114.28125 C 176.199219 114.28125 176.730469 114.144531 177.203125 113.863281 C 177.6875 113.570312 178.074219 113.199219 178.378906 112.722656 C 178.675781 112.25 178.828125 111.730469 178.835938 111.160156 C 178.820312 110.304688 178.5 109.578125 177.855469 108.972656 C 177.222656 108.359375 176.480469 108.058594 175.636719 108.058594 Z M 175.636719 108.058594 " fill-opacity="1" fill-rule="nonzero"/></g></svg>