<svg xmlns="http://www.w3.org/2000/svg" xmlns:xlink="http://www.w3.org/1999/xlink" width="343" zoomAndPan="magnify" viewBox="0 0 257.25 186.749995" height="249" preserveAspectRatio="xMidYMid meet" version="1.0"><defs><clipPath id="43cc191620"><path d="M 0 181 L 256.503906 181 L 256.503906 183 L 0 183 Z M 0 181 " clip-rule="nonzero"/></clipPath><clipPath id="69e2165b78"><path d="M 0 155 L 256.503906 155 L 256.503906 157 L 0 157 Z M 0 155 " clip-rule="nonzero"/></clipPath><clipPath id="e05a483cc6"><path d="M 0 129 L 256.503906 129 L 256.503906 131 L 0 131 Z M 0 129 " clip-rule="nonzero"/></clipPath><clipPath id="bdf284e530"><path d="M 0 103 L 256.503906 103 L 256.503906 105 L 0 105 Z M 0 103 " clip-rule="nonzero"/></clipPath><clipPath id="6e6c88554f"><path d="M 0 77 L 256.503906 77 L 256.503906 79 L 0 79 Z M 0 77 " clip-rule="nonzero"/></clipPath><clipPath id="06e82e73c4"><path d="M 0 51 L 256.503906 51 L 256.503906 53 L 0 53 Z M 0 51 " clip-rule="nonzero"/></clipPath><clipPath id="50ff1eb7c1"><path d="M 0 25 L 256.503906 25 L 256.503906 27 L 0 27 Z M 0 25 " clip-rule="nonzero"/></clipPath><clipPath id="7a2fb666be"><path d="M 0 0.148438 L 256.503906 0.148438 L 256.503906 1 L 0 1 Z M 0 0.148438 " clip-rule="nonzero"/></clipPath><clipPath id="08cd3b964d"><path d="M 247 0.148438 L 249 0.148438 L 249 186.355469 L 247 186.355469 Z M 247 0.148438 " clip-rule="nonzero"/></clipPath><clipPath id="bfb756a314"><path d="M 221 0.148438 L 224 0.148438 L 224 186.355469 L 221 186.355469 Z M 221 0.148438 " clip-rule="nonzero"/></clipPath><clipPath id="6e88d767cb"><path d="M 195 0.148438 L 198 0.148438 L 198 186.355469 L 195 186.355469 Z M 195 0.148438 " clip-rule="nonzero"/></clipPath><clipPath id="4b0d00c147"><path d="M 169 0.148438 L 172 0.148438 L 172 186.355469 L 169 186.355469 Z M 169 0.148438 " clip-rule="nonzero"/></clipPath><clipPath id="9c9868bb3d"><path d="M 143 0.148438 L 146 0.148438 L 146 186.355469 L 143 186.355469 Z M 143 0.148438 " clip-rule="nonzero"/></clipPath><clipPath id="01907cee31"><path d="M 117 0.148438 L 120 0.148438 L 120 186.355469 L 117 186.355469 Z M 117 0.148438 " clip-rule="nonzero"/></clipPath><clipPath id="57fcffaf33"><path d="M 91 0.148438 L 94 0.148438 L 94 186.355469 L 91 186.355469 Z M 91 0.148438 " clip-rule="nonzero"/></clipPath><clipPath id="8105f6a58c"><path d="M 66 0.148438 L 68 0.148438 L 68 186.355469 L 66 186.355469 Z M 66 0.148438 " clip-rule="nonzero"/></clipPath><clipPath id="e3ada79575"><path d="M 40 0.148438 L 42 0.148438 L 42 186.355469 L 40 186.355469 Z M 40 0.148438 " clip-rule="nonzero"/></clipPath><clipPath id="2e8c3cc147"><path d="M 14 0.148438 L 16 0.148438 L 16 186.355469 L 14 186.355469 Z M 14 0.148438 " clip-rule="nonzero"/></clipPath><clipPath id="0746145519"><path d="M 0 0.148438 L 256.503906 0.148438 L 256.503906 125 L 0 125 Z M 0 0.148438 " clip-rule="nonzero"/></clipPath><clipPath id="7d347cd42a"><path d="M 150.894531 44.753906 L 245.480469 44.753906 L 245.480469 117.132812 L 150.894531 117.132812 Z M 150.894531 44.753906 " clip-rule="nonzero"/></clipPath><clipPath id="a1e0bf3f54"><path d="M 150.894531 44.753906 L 245.480469 44.753906 L 245.480469 48 L 150.894531 48 Z M 150.894531 44.753906 " clip-rule="nonzero"/></clipPath><clipPath id="3e0717a47d"><path d="M 150.894531 114 L 245.480469 114 L 245.480469 117.132812 L 150.894531 117.132812 Z M 150.894531 114 " clip-rule="nonzero"/></clipPath><clipPath id="56b47bf6aa"><path d="M 150.894531 44.753906 L 154 44.753906 L 154 117.132812 L 150.894531 117.132812 Z M 150.894531 44.753906 " clip-rule="nonzero"/></clipPath><clipPath id="8b70259d8e"><path d="M 242 44.753906 L 245.480469 44.753906 L 245.480469 117.132812 L 242 117.132812 Z M 242 44.753906 " clip-rule="nonzero"/></clipPath><clipPath id="6acb479a9f"><path d="M 189.34375 66.46875 L 207.359375 66.46875 L 207.359375 87 L 189.34375 87 Z M 189.34375 66.46875 " clip-rule="nonzero"/></clipPath><clipPath id="9169505185"><path d="M 194 88.148438 L 201 88.148438 L 201 95.113281 L 194 95.113281 Z M 194 88.148438 " clip-rule="nonzero"/></clipPath></defs><g clip-path="url(#43cc191620)"><path fill="#000000" d="M -11.296875 181.539062 L 274.371094 181.539062 L 274.371094 182.71875 L -11.296875 182.71875 Z M -11.296875 181.539062 " fill-opacity="1" fill-rule="nonzero"/></g><g clip-path="url(#69e2165b78)"><path fill="#000000" d="M -11.296875 155.574219 L 274.371094 155.574219 L 274.371094 156.753906 L -11.296875 156.753906 Z M -11.296875 155.574219 " fill-opacity="1" fill-rule="nonzero"/></g><g clip-path="url(#e05a483cc6)"><path fill="#000000" d="M -11.296875 129.59375 L 274.371094 129.59375 L 274.371094 130.773438 L -11.296875 130.773438 Z M -11.296875 129.59375 " fill-opacity="1" fill-rule="nonzero"/></g><g clip-path="url(#bdf284e530)"><path fill="#000000" d="M -11.296875 103.628906 L 274.371094 103.628906 L 274.371094 104.808594 L -11.296875 104.808594 Z M -11.296875 103.628906 " fill-opacity="1" fill-rule="nonzero"/></g><g clip-path="url(#6e6c88554f)"><path fill="#000000" d="M -11.296875 77.660156 L 274.371094 77.660156 L 274.371094 78.84375 L -11.296875 78.84375 Z M -11.296875 77.660156 " fill-opacity="1" fill-rule="nonzero"/></g><g clip-path="url(#06e82e73c4)"><path fill="#000000" d="M -11.296875 51.679688 L 274.371094 51.679688 L 274.371094 52.859375 L -11.296875 52.859375 Z M -11.296875 51.679688 " fill-opacity="1" fill-rule="nonzero"/></g><g clip-path="url(#50ff1eb7c1)"><path fill="#000000" d="M -11.296875 25.714844 L 274.371094 25.714844 L 274.371094 26.894531 L -11.296875 26.894531 Z M -11.296875 25.714844 " fill-opacity="1" fill-rule="nonzero"/></g><g clip-path="url(#7a2fb666be)"><path fill="#000000" d="M -11.296875 -0.25 L 274.371094 -0.25 L 274.371094 0.929688 L -11.296875 0.929688 Z M -11.296875 -0.25 " fill-opacity="1" fill-rule="nonzero"/></g><g clip-path="url(#08cd3b964d)"><path fill="#000000" d="M 247.796875 -25.625 L 248.976562 -25.625 L 248.976562 260.042969 L 247.796875 260.042969 Z M 247.796875 -25.625 " fill-opacity="1" fill-rule="nonzero"/></g><g clip-path="url(#bfb756a314)"><path fill="#000000" d="M 221.832031 -25.625 L 223.011719 -25.625 L 223.011719 260.042969 L 221.832031 260.042969 Z M 221.832031 -25.625 " fill-opacity="1" fill-rule="nonzero"/></g><g clip-path="url(#6e88d767cb)"><path fill="#000000" d="M 195.867188 -25.625 L 197.046875 -25.625 L 197.046875 260.042969 L 195.867188 260.042969 Z M 195.867188 -25.625 " fill-opacity="1" fill-rule="nonzero"/></g><g clip-path="url(#4b0d00c147)"><path fill="#000000" d="M 169.902344 -25.625 L 171.082031 -25.625 L 171.082031 260.042969 L 169.902344 260.042969 Z M 169.902344 -25.625 " fill-opacity="1" fill-rule="nonzero"/></g><g clip-path="url(#9c9868bb3d)"><path fill="#000000" d="M 143.921875 -25.625 L 145.101562 -25.625 L 145.101562 260.042969 L 143.921875 260.042969 Z M 143.921875 -25.625 " fill-opacity="1" fill-rule="nonzero"/></g><g clip-path="url(#01907cee31)"><path fill="#000000" d="M 117.957031 -25.625 L 119.136719 -25.625 L 119.136719 260.042969 L 117.957031 260.042969 Z M 117.957031 -25.625 " fill-opacity="1" fill-rule="nonzero"/></g><g clip-path="url(#57fcffaf33)"><path fill="#000000" d="M 91.988281 -25.625 L 93.171875 -25.625 L 93.171875 260.042969 L 91.988281 260.042969 Z M 91.988281 -25.625 " fill-opacity="1" fill-rule="nonzero"/></g><g clip-path="url(#8105f6a58c)"><path fill="#000000" d="M 66.007812 -25.625 L 67.1875 -25.625 L 67.1875 260.042969 L 66.007812 260.042969 Z M 66.007812 -25.625 " fill-opacity="1" fill-rule="nonzero"/></g><g clip-path="url(#e3ada79575)"><path fill="#000000" d="M 40.042969 -25.625 L 41.222656 -25.625 L 41.222656 260.042969 L 40.042969 260.042969 Z M 40.042969 -25.625 " fill-opacity="1" fill-rule="nonzero"/></g><g clip-path="url(#2e8c3cc147)"><path fill="#000000" d="M 14.078125 -25.625 L 15.257812 -25.625 L 15.257812 260.042969 L 14.078125 260.042969 Z M 14.078125 -25.625 " fill-opacity="1" fill-rule="nonzero"/></g><g clip-path="url(#0746145519)"><path fill="#000000" d="M -1.425781 -1.230469 L 6.839844 2.261719 L 5.675781 5.015625 L -2.589844 1.527344 M 9.59375 3.425781 L 17.863281 6.917969 L 16.699219 9.671875 L 8.433594 6.179688 M 20.617188 8.082031 L 28.886719 11.570312 L 27.722656 14.328125 L 19.453125 10.835938 M 31.640625 12.734375 L 39.90625 16.226562 L 38.742188 18.984375 L 30.476562 15.492188 M 42.664062 17.390625 L 50.929688 20.882812 L 49.765625 23.636719 L 41.5 20.148438 M 53.683594 22.046875 L 61.953125 25.539062 L 60.789062 28.292969 L 52.523438 24.800781 M 64.707031 26.703125 L 72.972656 30.191406 L 71.8125 32.949219 L 63.542969 29.457031 M 75.730469 31.355469 L 83.996094 34.847656 L 82.832031 37.601562 L 74.566406 34.113281 M 86.753906 36.011719 L 95.019531 39.503906 L 93.855469 42.257812 L 85.589844 38.765625 M 97.773438 40.667969 L 106.042969 44.15625 L 104.878906 46.914062 L 96.609375 43.421875 M 108.796875 45.320312 L 117.0625 48.8125 L 115.898438 51.570312 L 107.632812 48.078125 M 119.820312 49.976562 L 128.085938 53.46875 L 126.921875 56.222656 L 118.65625 52.734375 M 130.84375 54.632812 L 139.109375 58.125 L 137.945312 60.878906 L 129.679688 57.386719 M 141.863281 59.289062 L 150.132812 62.777344 L 148.96875 65.535156 L 140.699219 62.042969 M 152.886719 63.941406 L 161.152344 67.433594 L 159.988281 70.1875 L 151.722656 66.699219 M 163.910156 68.597656 L 172.175781 72.089844 L 171.011719 74.84375 L 162.746094 71.351562 M 174.933594 73.253906 L 183.199219 76.746094 L 182.035156 79.5 L 173.769531 76.007812 M 185.953125 77.90625 L 194.222656 81.398438 L 193.058594 84.15625 L 184.789062 80.664062 M 196.976562 82.5625 L 205.242188 86.054688 L 204.078125 88.808594 L 195.8125 85.320312 M 208 87.21875 L 216.265625 90.710938 L 215.101562 93.464844 L 206.835938 89.972656 M 219.019531 91.875 L 227.289062 95.363281 L 226.125 98.121094 L 217.859375 94.628906 M 230.042969 96.527344 L 238.3125 100.019531 L 237.148438 102.777344 L 228.878906 99.285156 M 241.066406 101.183594 L 249.332031 104.675781 L 248.167969 107.429688 L 239.902344 103.9375 M 252.089844 105.839844 L 260.355469 109.332031 L 259.191406 112.085938 L 250.925781 108.59375 M 263.109375 110.492188 L 271.378906 113.984375 L 270.214844 116.742188 L 261.949219 113.25 M 274.132812 115.148438 L 282.398438 118.640625 L 281.238281 121.394531 L 272.96875 117.90625 M 285.15625 119.804688 L 289.167969 121.5 L 288.003906 124.253906 L 283.992188 122.558594 " fill-opacity="1" fill-rule="nonzero"/></g><g clip-path="url(#7d347cd42a)"><path fill="#ffffff" d="M 150.894531 44.753906 L 245.480469 44.753906 L 245.480469 117.132812 L 150.894531 117.132812 Z M 150.894531 44.753906 " fill-opacity="1" fill-rule="nonzero"/><path fill="#ffffff" d="M 150.894531 44.753906 L 245.480469 44.753906 L 245.480469 117.132812 L 150.894531 117.132812 Z M 150.894531 44.753906 " fill-opacity="1" fill-rule="nonzero"/></g><g clip-path="url(#a1e0bf3f54)"><path stroke-linecap="butt" transform="matrix(1.501414, 0, 0, 1.507901, 142.54113, 44.753651)" fill="none" stroke-linejoin="miter" d="M 0.00122452 1.00011 L 74.124036 1.00011 " stroke="#000000" stroke-width="2" stroke-opacity="1" stroke-miterlimit="4"/></g><g clip-path="url(#3e0717a47d)"><path stroke-linecap="butt" transform="matrix(1.501414, 0, 0, 1.507901, 148.246499, 114.117098)" fill="none" stroke-linejoin="miter" d="M 0.00233149 1.000001 L 74.125143 1.000001 " stroke="#000000" stroke-width="2" stroke-opacity="1" stroke-miterlimit="4"/></g><g clip-path="url(#56b47bf6aa)"><path stroke-linecap="butt" transform="matrix(0, 1.507901, -1.501414, 0, 153.896044, 46.261553)" fill="none" stroke-linejoin="miter" d="M 0.000110216 1.000066 L 48.002461 1.000066 " stroke="#000000" stroke-width="2" stroke-opacity="1" stroke-miterlimit="4"/></g><g clip-path="url(#8b70259d8e)"><path stroke-linecap="butt" transform="matrix(0, 1.507901, -1.501414, 0, 245.482286, 46.261553)" fill="none" stroke-linejoin="miter" d="M 0.000110216 1.00287 L 48.002461 1.00287 " stroke="#000000" stroke-width="2" stroke-opacity="1" stroke-miterlimit="4"/></g><g clip-path="url(#6acb479a9f)"><path fill="#000000" d="M 206.164062 69.792969 C 205.390625 68.710938 204.324219 67.886719 202.957031 67.324219 C 201.605469 66.757812 200.039062 66.46875 198.261719 66.46875 C 196.648438 66.46875 195.175781 66.75 193.84375 67.304688 C 192.515625 67.863281 191.441406 68.71875 190.628906 69.847656 C 189.984375 70.746094 189.582031 71.835938 189.421875 73.117188 C 189.351562 73.667969 189.800781 74.160156 190.378906 74.160156 L 193.949219 74.160156 C 194.40625 74.160156 194.792969 73.84375 194.886719 73.410156 C 194.976562 73.019531 195.128906 72.675781 195.328125 72.375 C 195.660156 71.890625 196.085938 71.527344 196.601562 71.277344 C 197.113281 71.035156 197.660156 70.90625 198.238281 70.90625 C 198.84375 70.90625 199.378906 71.027344 199.878906 71.277344 C 200.367188 71.511719 200.761719 71.867188 201.058594 72.320312 C 201.347656 72.769531 201.503906 73.296875 201.503906 73.894531 C 201.503906 74.457031 201.367188 74.972656 201.109375 75.425781 C 200.851562 75.878906 200.503906 76.296875 200.070312 76.667969 C 199.628906 77.050781 199.148438 77.402344 198.59375 77.75 C 197.851562 78.203125 197.21875 78.703125 196.695312 79.261719 C 196.171875 79.816406 195.78125 80.542969 195.5 81.449219 C 195.234375 82.359375 195.089844 83.5625 195.082031 85.082031 L 195.082031 85.839844 C 195.082031 86.355469 195.515625 86.785156 196.046875 86.785156 L 199.1875 86.785156 C 199.71875 86.785156 200.152344 86.363281 200.152344 85.839844 L 200.152344 85.082031 C 200.160156 84.234375 200.273438 83.515625 200.488281 82.933594 C 200.707031 82.359375 201.042969 81.84375 201.484375 81.398438 C 201.9375 80.957031 202.515625 80.535156 203.214844 80.125 C 204.058594 79.632812 204.78125 79.089844 205.390625 78.484375 C 206.003906 77.878906 206.484375 77.1875 206.832031 76.394531 C 207.175781 75.613281 207.351562 74.707031 207.351562 73.691406 C 207.328125 72.164062 206.933594 70.867188 206.164062 69.792969 Z M 206.164062 69.792969 " fill-opacity="1" fill-rule="nonzero"/></g><g clip-path="url(#9169505185)"><path fill="#000000" d="M 197.71875 88.890625 C 196.824219 88.890625 196.0625 89.1875 195.433594 89.800781 C 194.808594 90.40625 194.492188 91.140625 194.511719 91.988281 C 194.492188 92.84375 194.808594 93.589844 195.433594 94.203125 C 196.0625 94.816406 196.824219 95.113281 197.71875 95.113281 C 198.28125 95.113281 198.808594 94.976562 199.285156 94.695312 C 199.765625 94.402344 200.152344 94.03125 200.457031 93.554688 C 200.753906 93.078125 200.90625 92.5625 200.914062 91.988281 C 200.898438 91.132812 200.578125 90.40625 199.933594 89.800781 C 199.300781 89.1875 198.5625 88.890625 197.71875 88.890625 Z M 197.71875 88.890625 " fill-opacity="1" fill-rule="nonzero"/></g></svg>