<svg xmlns="http://www.w3.org/2000/svg" xmlns:xlink="http://www.w3.org/1999/xlink" width="343" zoomAndPan="magnify" viewBox="0 0 257.25 186.749995" height="249" preserveAspectRatio="xMidYMid meet" version="1.0"><defs><clipPath id="b603055c62"><path d="M 225.222656 30.449219 L 240.925781 30.449219 L 240.925781 46.15625 L 225.222656 46.15625 Z M 225.222656 30.449219 " clip-rule="nonzero"/></clipPath><clipPath id="b1abc2d7ee"><path d="M 209.824219 85.351562 L 225.527344 85.351562 L 225.527344 101.058594 L 209.824219 101.058594 Z M 209.824219 85.351562 " clip-rule="nonzero"/></clipPath><clipPath id="22e8d2b057"><path d="M 22.980469 12.921875 L 38.683594 12.921875 L 38.683594 28.628906 L 22.980469 28.628906 Z M 22.980469 12.921875 " clip-rule="nonzero"/></clipPath><clipPath id="d9410ef9a1"><path d="M 22.980469 84.011719 L 38.683594 84.011719 L 38.683594 99.71875 L 22.980469 99.71875 Z M 22.980469 84.011719 " clip-rule="nonzero"/></clipPath><clipPath id="69f296b8a8"><path d="M 22.980469 152.019531 L 38.683594 152.019531 L 38.683594 167.722656 L 22.980469 167.722656 Z M 22.980469 152.019531 " clip-rule="nonzero"/></clipPath><clipPath id="edeac04703"><path d="M 129 22 L 148 22 L 148 39 L 129 39 Z M 129 22 " clip-rule="nonzero"/></clipPath><clipPath id="27e67c5bd4"><path d="M 129.746094 25.441406 L 142.578125 16.382812 L 151.632812 29.214844 L 138.804688 38.269531 Z M 129.746094 25.441406 " clip-rule="nonzero"/></clipPath><clipPath id="9addf1aa78"><path d="M 129.746094 25.441406 L 142.578125 16.382812 L 151.632812 29.214844 L 138.804688 38.269531 Z M 129.746094 25.441406 " clip-rule="nonzero"/></clipPath><clipPath id="c5bc5fb605"><path d="M 129.746094 25.441406 L 142.578125 16.382812 L 151.632812 29.214844 L 138.804688 38.269531 Z M 129.746094 25.441406 " clip-rule="nonzero"/></clipPath><clipPath id="86ed7af1ed"><path d="M 117 87 L 135 87 L 135 103 L 117 103 Z M 117 87 " clip-rule="nonzero"/></clipPath><clipPath id="e541441efe"><path d="M 117.410156 90.011719 L 130.238281 80.957031 L 139.292969 93.785156 L 126.464844 102.84375 Z M 117.410156 90.011719 " clip-rule="nonzero"/></clipPath><clipPath id="d041e4c93f"><path d="M 117.410156 90.011719 L 130.238281 80.957031 L 139.292969 93.785156 L 126.464844 102.84375 Z M 117.410156 90.011719 " clip-rule="nonzero"/></clipPath><clipPath id="6febd5076e"><path d="M 117.410156 90.011719 L 130.238281 80.957031 L 139.292969 93.785156 L 126.464844 102.84375 Z M 117.410156 90.011719 " clip-rule="nonzero"/></clipPath><clipPath id="1cd4e176ad"><path d="M 106 152 L 124 152 L 124 168 L 106 168 Z M 106 152 " clip-rule="nonzero"/></clipPath><clipPath id="023c904ff6"><path d="M 106.566406 154.824219 L 119.394531 145.769531 L 128.449219 158.597656 L 115.621094 167.65625 Z M 106.566406 154.824219 " clip-rule="nonzero"/></clipPath><clipPath id="a656e94f9a"><path d="M 106.566406 154.824219 L 119.394531 145.769531 L 128.449219 158.597656 L 115.621094 167.65625 Z M 106.566406 154.824219 " clip-rule="nonzero"/></clipPath><clipPath id="b723a80457"><path d="M 106.566406 154.824219 L 119.394531 145.769531 L 128.449219 158.597656 L 115.621094 167.65625 Z M 106.566406 154.824219 " clip-rule="nonzero"/></clipPath><clipPath id="d904e28084"><path d="M 186.90625 130.3125 L 237.109375 130.3125 L 237.109375 168.671875 L 186.90625 168.671875 Z M 186.90625 130.3125 " clip-rule="nonzero"/></clipPath><clipPath id="19085b8059"><path d="M 186.90625 130.3125 L 237.109375 130.3125 L 237.109375 132 L 186.90625 132 Z M 186.90625 130.3125 " clip-rule="nonzero"/></clipPath><clipPath id="ea8133bc39"><path d="M 186.90625 167 L 237.109375 167 L 237.109375 168.671875 L 186.90625 168.671875 Z M 186.90625 167 " clip-rule="nonzero"/></clipPath><clipPath id="23bcb82997"><path d="M 186.90625 130.3125 L 188.792969 130.3125 L 188.792969 168.671875 L 186.90625 168.671875 Z M 186.90625 130.3125 " clip-rule="nonzero"/></clipPath><clipPath id="abf8048411"><path d="M 235 130.3125 L 237.109375 130.3125 L 237.109375 168.671875 L 235 168.671875 Z M 235 130.3125 " clip-rule="nonzero"/></clipPath><clipPath id="3b88ed91a5"><path d="M 207.3125 141.816406 L 216.878906 141.816406 L 216.878906 153 L 207.3125 153 Z M 207.3125 141.816406 " clip-rule="nonzero"/></clipPath><clipPath id="6b98c8112f"><path d="M 210 153.308594 L 213.910156 153.308594 L 213.910156 157 L 210 157 Z M 210 153.308594 " clip-rule="nonzero"/></clipPath></defs><path stroke-linecap="butt" transform="matrix(0, -0.74782, 0.74782, 0, 29.376273, 57.39829)" fill="none" stroke-linejoin="miter" d="M -0.000197417 1.998906 L 54.935543 1.998906 " stroke="#000000" stroke-width="4" stroke-opacity="1" stroke-miterlimit="4"/><path stroke-linecap="butt" transform="matrix(0, -0.74782, 0.74782, 0, 29.376273, 113.786188)" fill="none" stroke-linejoin="miter" d="M 0.00137982 1.998906 L 54.931897 1.998906 " stroke="#000000" stroke-width="4" stroke-opacity="1" stroke-miterlimit="4"/><path stroke-linecap="butt" transform="matrix(0, -0.74782, 0.74782, 0, 29.376273, 167.728953)" fill="none" stroke-linejoin="miter" d="M -0.00202727 1.998906 L 54.933714 1.998906 " stroke="#000000" stroke-width="4" stroke-opacity="1" stroke-miterlimit="4"/><path stroke-linecap="butt" transform="matrix(0.618096, -0.420942, 0.420942, 0.618096, 108.935822, 47.185731)" fill="none" stroke-linejoin="miter" d="M -0.000365118 1.999675 L 54.932887 1.99759 " stroke="#000000" stroke-width="4" stroke-opacity="1" stroke-miterlimit="4"/><path stroke-linecap="butt" transform="matrix(0.618096, -0.420942, 0.420942, 0.618096, 108.093947, 103.573629)" fill="none" stroke-linejoin="miter" d="M 0.00276787 1.9999 L 54.93308 2.002132 " stroke="#000000" stroke-width="4" stroke-opacity="1" stroke-miterlimit="4"/><path stroke-linecap="butt" transform="matrix(0.618096, -0.420942, 0.420942, 0.618096, 108.935822, 159.830339)" fill="none" stroke-linejoin="miter" d="M -0.000306929 1.99959 L 54.932945 1.997504 " stroke="#000000" stroke-width="4" stroke-opacity="1" stroke-miterlimit="4"/><path stroke-linecap="butt" transform="matrix(0.74782, -0.000000000000000371, 0.000000000000000371, 0.74782, 196.801296, 36.851958)" fill="none" stroke-linejoin="miter" d="M -0.000688154 2.000079 L 54.935053 2.000079 " stroke="#000000" stroke-width="4" stroke-opacity="1" stroke-miterlimit="4"/><path stroke-linecap="butt" transform="matrix(0.74782, -0.000000000000000371, 0.000000000000000371, 0.74782, 196.801296, 91.754718)" fill="none" stroke-linejoin="miter" d="M -0.000688154 1.999523 L 54.935053 1.999523 " stroke="#000000" stroke-width="4" stroke-opacity="1" stroke-miterlimit="4"/><g clip-path="url(#b603055c62)"><path fill="#000000" d="M 225.289062 30.449219 L 240.921875 38.234375 L 225.222656 46.15625 C 227.753906 41.8125 229.785156 37.296875 225.289062 30.449219 Z M 225.289062 30.449219 " fill-opacity="1" fill-rule="nonzero"/></g><g clip-path="url(#b1abc2d7ee)"><path fill="#000000" d="M 209.890625 85.351562 L 225.527344 93.136719 L 209.824219 101.058594 C 212.355469 96.714844 214.386719 92.199219 209.890625 85.351562 Z M 209.890625 85.351562 " fill-opacity="1" fill-rule="nonzero"/></g><g clip-path="url(#22e8d2b057)"><path fill="#000000" d="M 22.980469 28.558594 L 30.761719 12.925781 L 38.683594 28.625 C 34.34375 26.097656 29.824219 24.0625 22.980469 28.558594 Z M 22.980469 28.558594 " fill-opacity="1" fill-rule="nonzero"/></g><g clip-path="url(#d9410ef9a1)"><path fill="#000000" d="M 22.980469 99.652344 L 30.761719 84.015625 L 38.683594 99.714844 C 34.34375 97.1875 29.824219 95.152344 22.980469 99.652344 Z M 22.980469 99.652344 " fill-opacity="1" fill-rule="nonzero"/></g><g clip-path="url(#69f296b8a8)"><path fill="#000000" d="M 22.980469 167.65625 L 30.761719 152.023438 L 38.683594 167.722656 C 34.34375 165.191406 29.824219 163.160156 22.980469 167.65625 Z M 22.980469 167.65625 " fill-opacity="1" fill-rule="nonzero"/></g><g clip-path="url(#edeac04703)"><g clip-path="url(#27e67c5bd4)"><g clip-path="url(#9addf1aa78)"><g clip-path="url(#c5bc5fb605)"><path fill="#000000" d="M 129.800781 25.402344 L 147.0625 22.746094 L 138.804688 38.269531 C 138.367188 33.265625 137.421875 28.402344 129.800781 25.402344 Z M 129.800781 25.402344 " fill-opacity="1" fill-rule="nonzero"/></g></g></g></g><g clip-path="url(#86ed7af1ed)"><g clip-path="url(#e541441efe)"><g clip-path="url(#d041e4c93f)"><g clip-path="url(#6febd5076e)"><path fill="#000000" d="M 117.464844 89.972656 L 134.726562 87.316406 L 126.464844 102.839844 C 126.03125 97.835938 125.085938 92.972656 117.464844 89.972656 Z M 117.464844 89.972656 " fill-opacity="1" fill-rule="nonzero"/></g></g></g></g><g clip-path="url(#1cd4e176ad)"><g clip-path="url(#023c904ff6)"><g clip-path="url(#a656e94f9a)"><g clip-path="url(#b723a80457)"><path fill="#000000" d="M 106.621094 154.789062 L 123.882812 152.128906 L 115.621094 167.65625 C 115.183594 162.648438 114.242188 157.785156 106.621094 154.789062 Z M 106.621094 154.789062 " fill-opacity="1" fill-rule="nonzero"/></g></g></g></g><g clip-path="url(#d904e28084)"><path fill="#ffffff" d="M 186.90625 130.3125 L 237.109375 130.3125 L 237.109375 168.671875 L 186.90625 168.671875 Z M 186.90625 130.3125 " fill-opacity="1" fill-rule="nonzero"/><path fill="#ffffff" d="M 186.90625 130.3125 L 237.109375 130.3125 L 237.109375 168.671875 L 186.90625 168.671875 Z M 186.90625 130.3125 " fill-opacity="1" fill-rule="nonzero"/></g><g clip-path="url(#19085b8059)"><path stroke-linecap="butt" transform="matrix(0.796905, 0, 0, 0.799155, 182.473084, 130.310595)" fill="none" stroke-linejoin="miter" d="M -0.00053686 0.999531 L 74.124151 0.999531 " stroke="#000000" stroke-width="2" stroke-opacity="1" stroke-miterlimit="4"/></g><g clip-path="url(#ea8133bc39)"><path stroke-linecap="butt" transform="matrix(0.796905, 0, 0, 0.799155, 185.501316, 167.071733)" fill="none" stroke-linejoin="miter" d="M 0.00325028 1.000257 L 74.123036 1.000257 " stroke="#000000" stroke-width="2" stroke-opacity="1" stroke-miterlimit="4"/></g><g clip-path="url(#23bcb82997)"><path stroke-linecap="butt" transform="matrix(0, 0.799155, -0.796905, 0, 188.499913, 131.109754)" fill="none" stroke-linejoin="miter" d="M -0.00047445 0.999853 L 47.999418 0.999853 " stroke="#000000" stroke-width="2" stroke-opacity="1" stroke-miterlimit="4"/></g><g clip-path="url(#abf8048411)"><path stroke-linecap="butt" transform="matrix(0, 0.799155, -0.796905, 0, 237.111087, 131.109754)" fill="none" stroke-linejoin="miter" d="M -0.00047445 1.00211 L 47.999418 1.00211 " stroke="#000000" stroke-width="2" stroke-opacity="1" stroke-miterlimit="4"/></g><g clip-path="url(#3b88ed91a5)"><path fill="#000000" d="M 216.242188 143.582031 C 215.832031 143.007812 215.265625 142.570312 214.539062 142.273438 C 213.824219 141.972656 212.992188 141.816406 212.046875 141.816406 C 211.191406 141.816406 210.410156 141.96875 209.703125 142.261719 C 209 142.558594 208.425781 143.011719 207.996094 143.609375 C 207.65625 144.085938 207.441406 144.664062 207.355469 145.34375 C 207.316406 145.632812 207.558594 145.894531 207.863281 145.894531 L 209.757812 145.894531 C 210 145.894531 210.207031 145.726562 210.257812 145.496094 C 210.304688 145.292969 210.386719 145.109375 210.492188 144.949219 C 210.667969 144.691406 210.894531 144.5 211.164062 144.367188 C 211.4375 144.238281 211.730469 144.171875 212.035156 144.171875 C 212.355469 144.171875 212.640625 144.234375 212.90625 144.367188 C 213.167969 144.492188 213.375 144.679688 213.535156 144.917969 C 213.6875 145.160156 213.769531 145.4375 213.769531 145.753906 C 213.769531 146.054688 213.695312 146.328125 213.558594 146.566406 C 213.421875 146.804688 213.238281 147.027344 213.007812 147.226562 C 212.773438 147.425781 212.519531 147.613281 212.222656 147.796875 C 211.832031 148.039062 211.496094 148.304688 211.21875 148.597656 C 210.941406 148.894531 210.730469 149.277344 210.582031 149.757812 C 210.441406 150.242188 210.363281 150.878906 210.359375 151.683594 L 210.359375 152.085938 C 210.359375 152.359375 210.589844 152.585938 210.871094 152.585938 L 212.539062 152.585938 C 212.820312 152.585938 213.050781 152.363281 213.050781 152.085938 L 213.050781 151.683594 C 213.054688 151.234375 213.113281 150.851562 213.230469 150.546875 C 213.34375 150.242188 213.523438 149.96875 213.757812 149.730469 C 214 149.496094 214.304688 149.273438 214.675781 149.054688 C 215.125 148.796875 215.507812 148.507812 215.832031 148.1875 C 216.15625 147.867188 216.414062 147.5 216.597656 147.078125 C 216.78125 146.664062 216.875 146.1875 216.875 145.648438 C 216.859375 144.839844 216.652344 144.148438 216.242188 143.582031 Z M 216.242188 143.582031 " fill-opacity="1" fill-rule="nonzero"/></g><g clip-path="url(#6b98c8112f)"><path fill="#000000" d="M 211.757812 153.703125 C 211.285156 153.703125 210.878906 153.859375 210.546875 154.183594 C 210.214844 154.507812 210.046875 154.894531 210.054688 155.34375 C 210.046875 155.796875 210.214844 156.191406 210.546875 156.515625 C 210.878906 156.84375 211.285156 157 211.757812 157 C 212.058594 157 212.339844 156.925781 212.589844 156.777344 C 212.847656 156.625 213.050781 156.425781 213.214844 156.175781 C 213.371094 155.921875 213.453125 155.648438 213.457031 155.34375 C 213.449219 154.890625 213.277344 154.507812 212.9375 154.183594 C 212.597656 153.859375 212.207031 153.703125 211.757812 153.703125 Z M 211.757812 153.703125 " fill-opacity="1" fill-rule="nonzero"/></g></svg>