<svg xmlns="http://www.w3.org/2000/svg" xmlns:xlink="http://www.w3.org/1999/xlink" width="343" zoomAndPan="magnify" viewBox="0 0 257.25 186.749995" height="249" preserveAspectRatio="xMidYMid meet" version="1.0"><defs><clipPath id="afcb137249"><path d="M 224.566406 30.769531 L 240.226562 30.769531 L 240.226562 46.460938 L 224.566406 46.460938 Z M 224.566406 30.769531 " clip-rule="nonzero"/></clipPath><clipPath id="bc45ea1611"><path d="M 209.214844 85.609375 L 224.871094 85.609375 L 224.871094 101.300781 L 209.214844 101.300781 Z M 209.214844 85.609375 " clip-rule="nonzero"/></clipPath><clipPath id="bca283b8d7"><path d="M 22.914062 13.265625 L 38.570312 13.265625 L 38.570312 28.953125 L 22.914062 28.953125 Z M 22.914062 13.265625 " clip-rule="nonzero"/></clipPath><clipPath id="eeb5b53358"><path d="M 22.914062 84.273438 L 38.570312 84.273438 L 38.570312 99.960938 L 22.914062 99.960938 Z M 22.914062 84.273438 " clip-rule="nonzero"/></clipPath><clipPath id="9784279193"><path d="M 22.914062 152.199219 L 38.570312 152.199219 L 38.570312 167.886719 L 22.914062 167.886719 Z M 22.914062 152.199219 " clip-rule="nonzero"/></clipPath><clipPath id="84b7fd5046"><path d="M 129 23 L 147 23 L 147 39 L 129 39 Z M 129 23 " clip-rule="nonzero"/></clipPath><clipPath id="d3912e0b5e"><path d="M 129.367188 25.769531 L 142.164062 16.722656 L 151.191406 29.539062 L 138.402344 38.582031 Z M 129.367188 25.769531 " clip-rule="nonzero"/></clipPath><clipPath id="9a85fbc70e"><path d="M 129.367188 25.769531 L 142.164062 16.722656 L 151.191406 29.539062 L 138.402344 38.582031 Z M 129.367188 25.769531 " clip-rule="nonzero"/></clipPath><clipPath id="ae278b1458"><path d="M 129.367188 25.769531 L 142.164062 16.722656 L 151.191406 29.539062 L 138.402344 38.582031 Z M 129.367188 25.769531 " clip-rule="nonzero"/></clipPath><clipPath id="42e75c0612"><path d="M 117 87.257812 L 134.609375 87.257812 L 134.609375 103.238281 L 117 103.238281 Z M 117 87.257812 " clip-rule="nonzero"/></clipPath><clipPath id="c1147ec459"><path d="M 117.070312 90.265625 L 129.859375 81.21875 L 138.886719 94.035156 L 126.097656 103.082031 Z M 117.070312 90.265625 " clip-rule="nonzero"/></clipPath><clipPath id="d35c330a41"><path d="M 117.070312 90.265625 L 129.859375 81.21875 L 138.886719 94.035156 L 126.097656 103.082031 Z M 117.070312 90.265625 " clip-rule="nonzero"/></clipPath><clipPath id="5b84801852"><path d="M 117.070312 90.265625 L 129.859375 81.21875 L 138.886719 94.035156 L 126.097656 103.082031 Z M 117.070312 90.265625 " clip-rule="nonzero"/></clipPath><clipPath id="0fad2d3e9f"><path d="M 106 152.179688 L 123.640625 152.179688 L 123.640625 168 L 106 168 Z M 106 152.179688 " clip-rule="nonzero"/></clipPath><clipPath id="a48d4c9238"><path d="M 106.257812 155.003906 L 119.046875 145.957031 L 128.074219 158.769531 L 115.285156 167.820312 Z M 106.257812 155.003906 " clip-rule="nonzero"/></clipPath><clipPath id="ee8a53fc4e"><path d="M 106.257812 155.003906 L 119.046875 145.957031 L 128.074219 158.769531 L 115.285156 167.820312 Z M 106.257812 155.003906 " clip-rule="nonzero"/></clipPath><clipPath id="43a13db898"><path d="M 106.257812 155.003906 L 119.046875 145.957031 L 128.074219 158.769531 L 115.285156 167.820312 Z M 106.257812 155.003906 " clip-rule="nonzero"/></clipPath><clipPath id="1ce406898d"><path d="M 186.363281 130.519531 L 236.421875 130.519531 L 236.421875 168.832031 L 186.363281 168.832031 Z M 186.363281 130.519531 " clip-rule="nonzero"/></clipPath><clipPath id="ba51c93fe5"><path d="M 186.363281 130.519531 L 236.421875 130.519531 L 236.421875 132.203125 L 186.363281 132.203125 Z M 186.363281 130.519531 " clip-rule="nonzero"/></clipPath><clipPath id="5502c744cb"><path d="M 186.363281 167.164062 L 236.421875 167.164062 L 236.421875 168.832031 L 186.363281 168.832031 Z M 186.363281 167.164062 " clip-rule="nonzero"/></clipPath><clipPath id="c4517edb78"><path d="M 186.363281 130.519531 L 188 130.519531 L 188 168.832031 L 186.363281 168.832031 Z M 186.363281 130.519531 " clip-rule="nonzero"/></clipPath><clipPath id="96ff5abce7"><path d="M 234.316406 130.519531 L 236.421875 130.519531 L 236.421875 168.832031 L 234.316406 168.832031 Z M 234.316406 130.519531 " clip-rule="nonzero"/></clipPath><clipPath id="6da1a46e38"><path d="M 206.710938 142.007812 L 216.25 142.007812 L 216.25 153 L 206.710938 153 Z M 206.710938 142.007812 " clip-rule="nonzero"/></clipPath><clipPath id="c521bfd24d"><path d="M 209.390625 153.488281 L 213 153.488281 L 213 157.175781 L 209.390625 157.175781 Z M 209.390625 153.488281 " clip-rule="nonzero"/></clipPath><clipPath id="22e26cabdd"><path d="M 0 0.148438 L 256.503906 0.148438 L 256.503906 4 L 0 4 Z M 0 0.148438 " clip-rule="nonzero"/></clipPath><clipPath id="75c5fd6868"><path d="M 82 0.148438 L 86 0.148438 L 86 186.355469 L 82 186.355469 Z M 82 0.148438 " clip-rule="nonzero"/></clipPath><clipPath id="9270b49e5e"><path d="M 164 0.148438 L 168 0.148438 L 168 186.355469 L 164 186.355469 Z M 164 0.148438 " clip-rule="nonzero"/></clipPath><clipPath id="a9fa3874fb"><path d="M 0 60 L 256.503906 60 L 256.503906 64 L 0 64 Z M 0 60 " clip-rule="nonzero"/></clipPath><clipPath id="eaa0d9452f"><path d="M 0 119 L 256.503906 119 L 256.503906 123 L 0 123 Z M 0 119 " clip-rule="nonzero"/></clipPath><clipPath id="af9add30b4"><path d="M 0 0.148438 L 3 0.148438 L 3 186.355469 L 0 186.355469 Z M 0 0.148438 " clip-rule="nonzero"/></clipPath><clipPath id="22cb003c8e"><path d="M 253 0.148438 L 256.503906 0.148438 L 256.503906 186.355469 L 253 186.355469 Z M 253 0.148438 " clip-rule="nonzero"/></clipPath><clipPath id="6410cb76bf"><path d="M 0 183 L 256.503906 183 L 256.503906 186.355469 L 0 186.355469 Z M 0 183 " clip-rule="nonzero"/></clipPath><clipPath id="0f47b09da0"><path d="M 179.871094 129.378906 L 242.445312 129.378906 L 242.445312 177.152344 L 179.871094 177.152344 Z M 179.871094 129.378906 " clip-rule="nonzero"/></clipPath><clipPath id="53ac229268"><path d="M 179.871094 129.378906 L 242.445312 129.378906 L 242.445312 132 L 179.871094 132 Z M 179.871094 129.378906 " clip-rule="nonzero"/></clipPath><clipPath id="a2f320f979"><path d="M 179.871094 175 L 242.445312 175 L 242.445312 177.152344 L 179.871094 177.152344 Z M 179.871094 175 " clip-rule="nonzero"/></clipPath><clipPath id="21e21e49c3"><path d="M 179.871094 129.378906 L 182 129.378906 L 182 177.152344 L 179.871094 177.152344 Z M 179.871094 129.378906 " clip-rule="nonzero"/></clipPath><clipPath id="cb097a371e"><path d="M 240 129.378906 L 242.445312 129.378906 L 242.445312 177.152344 L 240 177.152344 Z M 240 129.378906 " clip-rule="nonzero"/></clipPath><clipPath id="1f4b24bf64"><path d="M 205.308594 143.710938 L 217.226562 143.710938 L 217.226562 158 L 205.308594 158 Z M 205.308594 143.710938 " clip-rule="nonzero"/></clipPath><clipPath id="d16f5ea8d5"><path d="M 208.082031 158.019531 L 213 158.019531 L 213 162.617188 L 208.082031 162.617188 Z M 208.082031 158.019531 " clip-rule="nonzero"/></clipPath></defs><path stroke-linecap="butt" transform="matrix(0, -0.746953, 0.745646, 0, 29.290874, 57.68925)" fill="none" stroke-linejoin="miter" d="M 0.00234335 1.998771 L 54.933822 1.998771 " stroke="#000000" stroke-width="4" stroke-opacity="1" stroke-miterlimit="4"/><path stroke-linecap="butt" transform="matrix(0, -0.746953, 0.745646, 0, 29.290874, 114.011798)" fill="none" stroke-linejoin="miter" d="M 0.000105487 1.998771 L 54.931584 1.998771 " stroke="#000000" stroke-width="4" stroke-opacity="1" stroke-miterlimit="4"/><path stroke-linecap="butt" transform="matrix(0, -0.746953, 0.745646, 0, 29.290874, 167.892028)" fill="none" stroke-linejoin="miter" d="M -0.00335172 1.998771 L 54.933356 1.998771 " stroke="#000000" stroke-width="4" stroke-opacity="1" stroke-miterlimit="4"/><path stroke-linecap="butt" transform="matrix(0.616299, -0.420454, 0.419718, 0.61738, 108.619137, 47.48853)" fill="none" stroke-linejoin="miter" d="M -0.00123264 1.998136 L 54.932742 1.99742 " stroke="#000000" stroke-width="4" stroke-opacity="1" stroke-miterlimit="4"/><path stroke-linecap="butt" transform="matrix(0.616299, -0.420454, 0.419718, 0.61738, 107.779717, 103.81107)" fill="none" stroke-linejoin="miter" d="M 0.00430609 1.9983 L 54.935337 2.001907 " stroke="#000000" stroke-width="4" stroke-opacity="1" stroke-miterlimit="4"/><path stroke-linecap="butt" transform="matrix(0.616299, -0.420454, 0.419718, 0.61738, 108.619137, 160.002573)" fill="none" stroke-linejoin="miter" d="M -0.00242495 1.999886 L 54.93155 1.999171 " stroke="#000000" stroke-width="4" stroke-opacity="1" stroke-miterlimit="4"/><path stroke-linecap="butt" transform="matrix(0.745646, -0.000000000000000371, 0.00000000000000037, 0.746953, 196.229198, 37.16674)" fill="none" stroke-linejoin="miter" d="M 0.00170394 1.999344 L 54.935183 1.999344 " stroke="#000000" stroke-width="4" stroke-opacity="1" stroke-miterlimit="4"/><path stroke-linecap="butt" transform="matrix(0.745646, -0.000000000000000371, 0.00000000000000037, 0.746953, 196.229198, 92.005858)" fill="none" stroke-linejoin="miter" d="M 0.00170394 2.000315 L 54.935183 2.000315 " stroke="#000000" stroke-width="4" stroke-opacity="1" stroke-miterlimit="4"/><g clip-path="url(#afcb137249)"><path fill="#000000" d="M 224.632812 30.769531 L 240.222656 38.546875 L 224.566406 46.460938 C 227.09375 42.121094 229.117188 37.609375 224.632812 30.769531 Z M 224.632812 30.769531 " fill-opacity="1" fill-rule="nonzero"/></g><g clip-path="url(#bc45ea1611)"><path fill="#000000" d="M 209.28125 85.609375 L 224.871094 93.386719 L 209.214844 101.300781 C 211.738281 96.960938 213.761719 92.449219 209.28125 85.609375 Z M 209.28125 85.609375 " fill-opacity="1" fill-rule="nonzero"/></g><g clip-path="url(#bca283b8d7)"><path fill="#000000" d="M 22.914062 28.882812 L 30.671875 13.269531 L 38.570312 28.949219 C 34.242188 26.425781 29.738281 24.390625 22.914062 28.882812 Z M 22.914062 28.882812 " fill-opacity="1" fill-rule="nonzero"/></g><g clip-path="url(#eeb5b53358)"><path fill="#000000" d="M 22.914062 99.894531 L 30.671875 84.277344 L 38.570312 99.957031 C 34.242188 97.433594 29.738281 95.398438 22.914062 99.894531 Z M 22.914062 99.894531 " fill-opacity="1" fill-rule="nonzero"/></g><g clip-path="url(#9784279193)"><path fill="#000000" d="M 22.914062 167.820312 L 30.671875 152.203125 L 38.570312 167.886719 C 34.242188 165.359375 29.738281 163.328125 22.914062 167.820312 Z M 22.914062 167.820312 " fill-opacity="1" fill-rule="nonzero"/></g><g clip-path="url(#84b7fd5046)"><g clip-path="url(#d3912e0b5e)"><g clip-path="url(#9a85fbc70e)"><g clip-path="url(#ae278b1458)"><path fill="#000000" d="M 129.421875 25.730469 L 146.636719 23.078125 L 138.402344 38.582031 C 137.964844 33.585938 137.023438 28.726562 129.421875 25.730469 Z M 129.421875 25.730469 " fill-opacity="1" fill-rule="nonzero"/></g></g></g></g><g clip-path="url(#42e75c0612)"><g clip-path="url(#c1147ec459)"><g clip-path="url(#d35c330a41)"><g clip-path="url(#5b84801852)"><path fill="#000000" d="M 117.125 90.226562 L 134.335938 87.574219 L 126.097656 103.078125 C 125.664062 98.078125 124.722656 93.222656 117.125 90.226562 Z M 117.125 90.226562 " fill-opacity="1" fill-rule="nonzero"/></g></g></g></g><g clip-path="url(#0fad2d3e9f)"><g clip-path="url(#a48d4c9238)"><g clip-path="url(#ee8a53fc4e)"><g clip-path="url(#43a13db898)"><path fill="#000000" d="M 106.3125 154.96875 L 123.523438 152.308594 L 115.285156 167.820312 C 114.847656 162.816406 113.910156 157.960938 106.3125 154.96875 Z M 106.3125 154.96875 " fill-opacity="1" fill-rule="nonzero"/></g></g></g></g><g clip-path="url(#1ce406898d)"><path fill="#ffffff" d="M 186.363281 130.519531 L 236.421875 130.519531 L 236.421875 168.832031 L 186.363281 168.832031 Z M 186.363281 130.519531 " fill-opacity="1" fill-rule="nonzero"/><path fill="#ffffff" d="M 186.363281 130.519531 L 236.421875 130.519531 L 236.421875 168.832031 L 186.363281 168.832031 Z M 186.363281 130.519531 " fill-opacity="1" fill-rule="nonzero"/></g><g clip-path="url(#ba51c93fe5)"><path stroke-linecap="butt" transform="matrix(0.794588, 0, 0, 0.798229, 181.942644, 130.517048)" fill="none" stroke-linejoin="miter" d="M -0.00155794 1.001415 L 74.122908 1.001415 " stroke="#000000" stroke-width="2" stroke-opacity="1" stroke-miterlimit="4"/></g><g clip-path="url(#5502c744cb)"><path stroke-linecap="butt" transform="matrix(0.794588, 0, 0, 0.798229, 184.962067, 167.235581)" fill="none" stroke-linejoin="miter" d="M 0.003494 1.001687 L 74.123044 1.001687 " stroke="#000000" stroke-width="2" stroke-opacity="1" stroke-miterlimit="4"/></g><g clip-path="url(#c4517edb78)"><path stroke-linecap="butt" transform="matrix(0, 0.798229, -0.794588, 0, 187.951944, 131.315286)" fill="none" stroke-linejoin="miter" d="M 0.00140325 1.001392 L 47.998295 1.001392 " stroke="#000000" stroke-width="2" stroke-opacity="1" stroke-miterlimit="4"/></g><g clip-path="url(#96ff5abce7)"><path stroke-linecap="butt" transform="matrix(0, 0.798229, -0.794588, 0, 236.421822, 131.315286)" fill="none" stroke-linejoin="miter" d="M 0.00140325 1.002811 L 47.998295 1.002811 " stroke="#000000" stroke-width="2" stroke-opacity="1" stroke-miterlimit="4"/></g><g clip-path="url(#6da1a46e38)"><path fill="#000000" d="M 215.613281 143.773438 C 215.203125 143.199219 214.640625 142.761719 213.914062 142.464844 C 213.203125 142.164062 212.371094 142.007812 211.429688 142.007812 C 210.578125 142.007812 209.796875 142.160156 209.09375 142.453125 C 208.390625 142.75 207.820312 143.203125 207.390625 143.800781 C 207.050781 144.277344 206.839844 144.855469 206.753906 145.53125 C 206.714844 145.820312 206.957031 146.082031 207.257812 146.082031 L 209.148438 146.082031 C 209.390625 146.082031 209.597656 145.914062 209.648438 145.683594 C 209.691406 145.480469 209.773438 145.296875 209.878906 145.140625 C 210.054688 144.882812 210.28125 144.691406 210.550781 144.558594 C 210.824219 144.429688 211.113281 144.363281 211.417969 144.363281 C 211.738281 144.363281 212.023438 144.425781 212.289062 144.558594 C 212.546875 144.683594 212.753906 144.871094 212.914062 145.109375 C 213.066406 145.347656 213.148438 145.625 213.148438 145.941406 C 213.148438 146.242188 213.074219 146.515625 212.9375 146.753906 C 212.800781 146.992188 212.617188 147.214844 212.386719 147.414062 C 212.15625 147.613281 211.902344 147.800781 211.605469 147.984375 C 211.214844 148.226562 210.882812 148.492188 210.605469 148.78125 C 210.328125 149.078125 210.117188 149.460938 209.96875 149.941406 C 209.828125 150.425781 209.75 151.0625 209.746094 151.867188 L 209.746094 152.265625 C 209.746094 152.539062 209.976562 152.765625 210.257812 152.765625 L 211.921875 152.765625 C 212.203125 152.765625 212.429688 152.542969 212.429688 152.265625 L 212.429688 151.867188 C 212.433594 151.417969 212.492188 151.035156 212.609375 150.730469 C 212.722656 150.425781 212.902344 150.152344 213.136719 149.914062 C 213.378906 149.679688 213.683594 149.457031 214.050781 149.238281 C 214.5 148.980469 214.882812 148.691406 215.203125 148.375 C 215.527344 148.054688 215.785156 147.6875 215.96875 147.265625 C 216.152344 146.851562 216.246094 146.375 216.246094 145.835938 C 216.230469 145.03125 216.023438 144.339844 215.613281 143.773438 Z M 215.613281 143.773438 " fill-opacity="1" fill-rule="nonzero"/></g><g clip-path="url(#c521bfd24d)"><path fill="#000000" d="M 211.140625 153.882812 C 210.671875 153.882812 210.265625 154.039062 209.933594 154.363281 C 209.605469 154.6875 209.4375 155.074219 209.445312 155.519531 C 209.4375 155.972656 209.605469 156.367188 209.933594 156.691406 C 210.265625 157.019531 210.671875 157.175781 211.140625 157.175781 C 211.441406 157.175781 211.722656 157.101562 211.972656 156.953125 C 212.230469 156.800781 212.429688 156.601562 212.59375 156.351562 C 212.75 156.097656 212.832031 155.824219 212.835938 155.519531 C 212.828125 155.070312 212.65625 154.6875 212.320312 154.363281 C 211.980469 154.039062 211.589844 153.882812 211.140625 153.882812 Z M 211.140625 153.882812 " fill-opacity="1" fill-rule="nonzero"/></g><g clip-path="url(#22e26cabdd)"><path stroke-linecap="butt" transform="matrix(0.74782, 0, 0, 0.74782, -9.091193, 0.1468)" fill="none" stroke-linejoin="miter" d="M 0.00180436 1.997574 L 375.311587 1.997574 " stroke="#000000" stroke-width="4" stroke-opacity="1" stroke-miterlimit="4"/></g><g clip-path="url(#75c5fd6868)"><path stroke-linecap="butt" transform="matrix(0, -0.74782, 0.74782, 0, 82.070237, 190.014199)" fill="none" stroke-linejoin="miter" d="M -0.00190738 2.000709 L 253.897642 2.000709 " stroke="#000000" stroke-width="4" stroke-opacity="1" stroke-miterlimit="4"/></g><g clip-path="url(#9270b49e5e)"><path stroke-linecap="butt" transform="matrix(0, -0.74782, 0.74782, 0, 164.143453, 188.182567)" fill="none" stroke-linejoin="miter" d="M -0.00137335 2.00205 L 253.898176 2.00205 " stroke="#000000" stroke-width="4" stroke-opacity="1" stroke-miterlimit="4"/></g><g clip-path="url(#a9fa3874fb)"><path stroke-linecap="butt" transform="matrix(0.74782, 0.000000000000000029, -0.000000000000000029, 0.74782, -9.226357, 60.113854)" fill="none" stroke-linejoin="miter" d="M -0.00027542 1.999841 L 360.960502 1.999841 " stroke="#000000" stroke-width="4" stroke-opacity="1" stroke-miterlimit="4"/></g><g clip-path="url(#eaa0d9452f)"><path stroke-linecap="butt" transform="matrix(0.74782, 0, 0, 0.74782, -16.120142, 119.939438)" fill="none" stroke-linejoin="miter" d="M -0.00127304 1.998016 L 375.313733 1.998016 " stroke="#000000" stroke-width="4" stroke-opacity="1" stroke-miterlimit="4"/></g><g clip-path="url(#af9add30b4)"><path stroke-linecap="butt" transform="matrix(0, -0.74782, 0.74782, 0, -0.00297822, 191.88746)" fill="none" stroke-linejoin="miter" d="M 0.000990604 1.999366 L 253.90054 1.999366 " stroke="#000000" stroke-width="4" stroke-opacity="1" stroke-miterlimit="4"/></g><g clip-path="url(#22cb003c8e)"><path stroke-linecap="butt" transform="matrix(0, -0.74782, 0.74782, 0, 253.62248, 191.509838)" fill="none" stroke-linejoin="miter" d="M -0.00251485 1.998754 L 253.897034 1.998754 " stroke="#000000" stroke-width="4" stroke-opacity="1" stroke-miterlimit="4"/></g><g clip-path="url(#6410cb76bf)"><path stroke-linecap="butt" transform="matrix(0.74782, 0, 0, 0.74782, 0, 183.362635)" fill="none" stroke-linejoin="miter" d="M 0 2.001471 L 375.315006 2.001471 " stroke="#000000" stroke-width="4" stroke-opacity="1" stroke-miterlimit="4"/></g><g clip-path="url(#0f47b09da0)"><path fill="#ffffff" d="M 179.871094 129.378906 L 242.445312 129.378906 L 242.445312 177.152344 L 179.871094 177.152344 Z M 179.871094 129.378906 " fill-opacity="1" fill-rule="nonzero"/><path fill="#ffffff" d="M 179.871094 129.378906 L 242.445312 129.378906 L 242.445312 177.152344 L 179.871094 177.152344 Z M 179.871094 129.378906 " fill-opacity="1" fill-rule="nonzero"/></g><g clip-path="url(#53ac229268)"><path stroke-linecap="butt" transform="matrix(0.993244, 0, 0, 0.995234, 174.347234, 129.378756)" fill="none" stroke-linejoin="miter" d="M 0.000424981 1.001015 L 74.122323 1.001015 " stroke="#000000" stroke-width="2" stroke-opacity="1" stroke-miterlimit="4"/></g><g clip-path="url(#a2f320f979)"><path stroke-linecap="butt" transform="matrix(0.993244, 0, 0, 0.995234, 178.121546, 175.159505)" fill="none" stroke-linejoin="miter" d="M -0.000455485 0.997593 L 74.125376 0.997593 " stroke="#000000" stroke-width="2" stroke-opacity="1" stroke-miterlimit="4"/></g><g clip-path="url(#21e21e49c3)"><path stroke-linecap="butt" transform="matrix(0, 0.995234, -0.993244, 0, 181.858936, 130.373998)" fill="none" stroke-linejoin="miter" d="M 0.00100715 0.998495 L 48.003228 0.998495 " stroke="#000000" stroke-width="2" stroke-opacity="1" stroke-miterlimit="4"/></g><g clip-path="url(#cb097a371e)"><path stroke-linecap="butt" transform="matrix(0, 0.995234, -0.993244, 0, 242.446782, 130.373998)" fill="none" stroke-linejoin="miter" d="M 0.00100715 1.000416 L 48.003228 1.000416 " stroke="#000000" stroke-width="2" stroke-opacity="1" stroke-miterlimit="4"/></g><g clip-path="url(#1f4b24bf64)"><path fill="#000000" d="M 216.4375 145.90625 C 215.925781 145.191406 215.21875 144.648438 214.316406 144.273438 C 213.421875 143.902344 212.382812 143.710938 211.210938 143.710938 C 210.140625 143.710938 209.167969 143.894531 208.285156 144.265625 C 207.40625 144.632812 206.695312 145.195312 206.160156 145.941406 C 205.734375 146.535156 205.46875 147.253906 205.359375 148.097656 C 205.3125 148.460938 205.609375 148.785156 205.992188 148.785156 L 208.355469 148.785156 C 208.65625 148.785156 208.914062 148.578125 208.976562 148.292969 C 209.035156 148.035156 209.136719 147.804688 209.269531 147.609375 C 209.488281 147.289062 209.769531 147.050781 210.109375 146.886719 C 210.449219 146.726562 210.8125 146.640625 211.195312 146.640625 C 211.59375 146.640625 211.949219 146.71875 212.277344 146.886719 C 212.601562 147.039062 212.863281 147.273438 213.058594 147.570312 C 213.25 147.871094 213.351562 148.214844 213.351562 148.609375 C 213.351562 148.984375 213.261719 149.324219 213.089844 149.625 C 212.921875 149.921875 212.691406 150.199219 212.40625 150.445312 C 212.113281 150.695312 211.792969 150.929688 211.425781 151.15625 C 210.9375 151.457031 210.519531 151.785156 210.171875 152.152344 C 209.828125 152.519531 209.566406 153 209.378906 153.597656 C 209.207031 154.199219 209.109375 154.992188 209.105469 155.996094 L 209.105469 156.496094 C 209.105469 156.835938 209.390625 157.117188 209.742188 157.117188 L 211.820312 157.117188 C 212.171875 157.117188 212.460938 156.84375 212.460938 156.496094 L 212.460938 155.996094 C 212.464844 155.433594 212.539062 154.960938 212.683594 154.578125 C 212.824219 154.199219 213.050781 153.859375 213.339844 153.566406 C 213.640625 153.273438 214.023438 152.996094 214.484375 152.722656 C 215.042969 152.398438 215.523438 152.042969 215.925781 151.640625 C 216.328125 151.242188 216.648438 150.785156 216.878906 150.261719 C 217.105469 149.746094 217.222656 149.148438 217.222656 148.476562 C 217.207031 147.472656 216.945312 146.613281 216.4375 145.90625 Z M 216.4375 145.90625 " fill-opacity="1" fill-rule="nonzero"/></g><g clip-path="url(#d16f5ea8d5)"><path fill="#000000" d="M 210.847656 158.507812 C 210.257812 158.507812 209.753906 158.707031 209.339844 159.113281 C 208.921875 159.511719 208.714844 159.996094 208.726562 160.554688 C 208.714844 161.121094 208.921875 161.609375 209.339844 162.015625 C 209.753906 162.417969 210.257812 162.617188 210.847656 162.617188 C 211.21875 162.617188 211.570312 162.527344 211.886719 162.339844 C 212.203125 162.148438 212.460938 161.902344 212.660156 161.589844 C 212.859375 161.273438 212.957031 160.933594 212.964844 160.554688 C 212.953125 159.992188 212.742188 159.511719 212.316406 159.113281 C 211.894531 158.707031 211.40625 158.507812 210.847656 158.507812 Z M 210.847656 158.507812 " fill-opacity="1" fill-rule="nonzero"/></g></svg>