<svg xmlns="http://www.w3.org/2000/svg" xmlns:xlink="http://www.w3.org/1999/xlink" width="343" zoomAndPan="magnify" viewBox="0 0 257.25 186.749995" height="249" preserveAspectRatio="xMidYMid meet" version="1.0"><defs><clipPath id="f2443788a8"><path d="M 18.621094 18.765625 L 56.011719 18.765625 L 56.011719 56.160156 L 18.621094 56.160156 Z M 18.621094 18.765625 " clip-rule="nonzero"/></clipPath><clipPath id="58a6e54d2a"><path d="M 0 0.148438 L 256.503906 0.148438 L 256.503906 4 L 0 4 Z M 0 0.148438 " clip-rule="nonzero"/></clipPath><clipPath id="15baa97a2e"><path d="M 0 183 L 256.503906 183 L 256.503906 186.355469 L 0 186.355469 Z M 0 183 " clip-rule="nonzero"/></clipPath><clipPath id="54a47554df"><path d="M 0 60 L 256.503906 60 L 256.503906 64 L 0 64 Z M 0 60 " clip-rule="nonzero"/></clipPath><clipPath id="787d2dd8d1"><path d="M 0 125 L 256.503906 125 L 256.503906 129 L 0 129 Z M 0 125 " clip-rule="nonzero"/></clipPath><clipPath id="68b7a715af"><path d="M 80 0.148438 L 84 0.148438 L 84 186.355469 L 80 186.355469 Z M 80 0.148438 " clip-rule="nonzero"/></clipPath><clipPath id="7a22a2dc30"><path d="M 164 0.148438 L 168 0.148438 L 168 186.355469 L 164 186.355469 Z M 164 0.148438 " clip-rule="nonzero"/></clipPath><clipPath id="ebaccdbf5a"><path d="M 0 0.148438 L 3 0.148438 L 3 186.355469 L 0 186.355469 Z M 0 0.148438 " clip-rule="nonzero"/></clipPath><clipPath id="fe89e4c07f"><path d="M 253 0.148438 L 256.503906 0.148438 L 256.503906 186.355469 L 253 186.355469 Z M 253 0.148438 " clip-rule="nonzero"/></clipPath><clipPath id="05d4aefd18"><path d="M 105.152344 18.765625 L 142.542969 18.765625 L 142.542969 56.160156 L 105.152344 56.160156 Z M 105.152344 18.765625 " clip-rule="nonzero"/></clipPath><clipPath id="dcb390492f"><path d="M 195.414062 18.765625 L 232.804688 18.765625 L 232.804688 56.160156 L 195.414062 56.160156 Z M 195.414062 18.765625 " clip-rule="nonzero"/></clipPath><clipPath id="338a379c1f"><path d="M 105.152344 78.808594 L 142.542969 78.808594 L 142.542969 116.199219 L 105.152344 116.199219 Z M 105.152344 78.808594 " clip-rule="nonzero"/></clipPath><clipPath id="a72dbe0b04"><path d="M 18.621094 80.519531 L 56.011719 80.519531 L 56.011719 117.914062 L 18.621094 117.914062 Z M 18.621094 80.519531 " clip-rule="nonzero"/></clipPath><clipPath id="46dd994b2d"><path d="M 195.414062 80.519531 L 232.804688 80.519531 L 232.804688 117.914062 L 195.414062 117.914062 Z M 195.414062 80.519531 " clip-rule="nonzero"/></clipPath><clipPath id="f1a6c2b1f7"><path d="M 105.152344 140.269531 L 142.542969 140.269531 L 142.542969 177.660156 L 105.152344 177.660156 Z M 105.152344 140.269531 " clip-rule="nonzero"/></clipPath><clipPath id="ea11b83a28"><path d="M 18.621094 140.269531 L 56.011719 140.269531 L 56.011719 177.660156 L 18.621094 177.660156 Z M 18.621094 140.269531 " clip-rule="nonzero"/></clipPath><clipPath id="5496036898"><path d="M 21.804688 23.023438 L 30.03125 23.023438 L 30.03125 31.25 L 21.804688 31.25 Z M 21.804688 23.023438 " clip-rule="nonzero"/></clipPath><clipPath id="30b21852de"><path d="M 21.804688 108.160156 L 30.03125 108.160156 L 30.03125 116.386719 L 21.804688 116.386719 Z M 21.804688 108.160156 " clip-rule="nonzero"/></clipPath><clipPath id="fc0255aa7a"><path d="M 44.472656 165.992188 L 52.699219 165.992188 L 52.699219 174.214844 L 44.472656 174.214844 Z M 44.472656 165.992188 " clip-rule="nonzero"/></clipPath><clipPath id="ea77e4da69"><path d="M 110.691406 24.78125 L 118.917969 24.78125 L 118.917969 33.007812 L 110.691406 33.007812 Z M 110.691406 24.78125 " clip-rule="nonzero"/></clipPath><clipPath id="c966cf2044"><path d="M 110.691406 104.214844 L 118.917969 104.214844 L 118.917969 112.441406 L 110.691406 112.441406 Z M 110.691406 104.214844 " clip-rule="nonzero"/></clipPath><clipPath id="6dea7f850d"><path d="M 130.609375 165.992188 L 138.832031 165.992188 L 138.832031 174.214844 L 130.609375 174.214844 Z M 130.609375 165.992188 " clip-rule="nonzero"/></clipPath><clipPath id="2101abacdf"><path d="M 201.554688 24.78125 L 209.78125 24.78125 L 209.78125 33.007812 L 201.554688 33.007812 Z M 201.554688 24.78125 " clip-rule="nonzero"/></clipPath><clipPath id="8b60632f42"><path d="M 201.554688 104.214844 L 209.78125 104.214844 L 209.78125 112.441406 L 201.554688 112.441406 Z M 201.554688 104.214844 " clip-rule="nonzero"/></clipPath><clipPath id="9da3c94e24"><path d="M 44.039062 22.589844 L 52.796875 22.589844 L 52.796875 31.347656 L 44.039062 31.347656 Z M 44.039062 22.589844 " clip-rule="nonzero"/></clipPath><clipPath id="f7a4238465"><path d="M 43.140625 21.691406 L 53.613281 21.691406 L 53.613281 32.164062 L 43.140625 32.164062 Z M 43.140625 21.691406 " clip-rule="nonzero"/></clipPath><clipPath id="e5ad0859c0"><path d="M 42.707031 85.089844 L 51.464844 85.089844 L 51.464844 93.847656 L 42.707031 93.847656 Z M 42.707031 85.089844 " clip-rule="nonzero"/></clipPath><clipPath id="fe44e362a7"><path d="M 41.8125 84.195312 L 52.28125 84.195312 L 52.28125 94.664062 L 41.8125 94.664062 Z M 41.8125 84.195312 " clip-rule="nonzero"/></clipPath><clipPath id="b45d17e556"><path d="M 42.707031 145.574219 L 51.464844 145.574219 L 51.464844 154.332031 L 42.707031 154.332031 Z M 42.707031 145.574219 " clip-rule="nonzero"/></clipPath><clipPath id="8ada880023"><path d="M 41.8125 144.675781 L 52.28125 144.675781 L 52.28125 155.148438 L 41.8125 155.148438 Z M 41.8125 144.675781 " clip-rule="nonzero"/></clipPath><clipPath id="8cae042349"><path d="M 128.84375 42.523438 L 137.601562 42.523438 L 137.601562 51.28125 L 128.84375 51.28125 Z M 128.84375 42.523438 " clip-rule="nonzero"/></clipPath><clipPath id="a4e0893d0b"><path d="M 127.945312 41.625 L 138.414062 41.625 L 138.414062 52.09375 L 127.945312 52.09375 Z M 127.945312 41.625 " clip-rule="nonzero"/></clipPath><clipPath id="36c73f175e"><path d="M 129.148438 104.703125 L 137.90625 104.703125 L 137.90625 113.460938 L 129.148438 113.460938 Z M 129.148438 104.703125 " clip-rule="nonzero"/></clipPath><clipPath id="922a470c67"><path d="M 128.25 103.808594 L 138.71875 103.808594 L 138.71875 114.277344 L 128.25 114.277344 Z M 128.25 103.808594 " clip-rule="nonzero"/></clipPath><clipPath id="79b6bfe196"><path d="M 129.675781 165.058594 L 139.429688 165.058594 L 139.429688 174.8125 L 129.675781 174.8125 Z M 129.675781 165.058594 " clip-rule="nonzero"/></clipPath><clipPath id="9f1dd41364"><path d="M 128.777344 164.160156 L 139.996094 164.160156 L 139.996094 175.378906 L 128.777344 175.378906 Z M 128.777344 164.160156 " clip-rule="nonzero"/></clipPath><clipPath id="d7b60569ce"><path d="M 201.121094 42.523438 L 209.878906 42.523438 L 209.878906 51.28125 L 201.121094 51.28125 Z M 201.121094 42.523438 " clip-rule="nonzero"/></clipPath><clipPath id="468585ccb4"><path d="M 200.226562 41.625 L 210.695312 41.625 L 210.695312 52.09375 L 200.226562 52.09375 Z M 200.226562 41.625 " clip-rule="nonzero"/></clipPath><clipPath id="66d7519b0e"><path d="M 200.625 103.285156 L 210.378906 103.285156 L 210.378906 113.035156 L 200.625 113.035156 Z M 200.625 103.285156 " clip-rule="nonzero"/></clipPath><clipPath id="1f78d1bd7e"><path d="M 199.726562 102.386719 L 210.945312 102.386719 L 210.945312 113.601562 L 199.726562 113.601562 Z M 199.726562 102.386719 " clip-rule="nonzero"/></clipPath><clipPath id="532813d637"><path d="M 185.832031 138.050781 L 236.765625 138.050781 L 236.765625 177.140625 L 185.832031 177.140625 Z M 185.832031 138.050781 " clip-rule="nonzero"/></clipPath><clipPath id="c85cd43d8b"><path d="M 185.832031 138.050781 L 236.765625 138.050781 L 236.765625 140 L 185.832031 140 Z M 185.832031 138.050781 " clip-rule="nonzero"/></clipPath><clipPath id="bdd758fe85"><path d="M 185.832031 175 L 236.765625 175 L 236.765625 177.140625 L 185.832031 177.140625 Z M 185.832031 175 " clip-rule="nonzero"/></clipPath><clipPath id="2e3e06820a"><path d="M 185.832031 138.050781 L 187.746094 138.050781 L 187.746094 177.140625 L 185.832031 177.140625 Z M 185.832031 138.050781 " clip-rule="nonzero"/></clipPath><clipPath id="8ccc5fbc33"><path d="M 235 138.050781 L 236.765625 138.050781 L 236.765625 177.140625 L 235 177.140625 Z M 235 138.050781 " clip-rule="nonzero"/></clipPath><clipPath id="f8895ccd0d"><path d="M 206.539062 149.777344 L 216.238281 149.777344 L 216.238281 161 L 206.539062 161 Z M 206.539062 149.777344 " clip-rule="nonzero"/></clipPath><clipPath id="2518959bad"><path d="M 209 161.484375 L 213 161.484375 L 213 165.246094 L 209 165.246094 Z M 209 161.484375 " clip-rule="nonzero"/></clipPath></defs><g clip-path="url(#f2443788a8)"><path fill="#000000" d="M 56.011719 38.902344 L 38.753906 38.902344 L 38.753906 56.160156 L 35.878906 56.160156 L 35.878906 38.902344 L 18.621094 38.902344 L 18.621094 36.023438 L 35.878906 36.023438 L 35.878906 18.765625 L 38.753906 18.765625 L 38.753906 36.023438 L 56.011719 36.023438 Z M 56.011719 38.902344 " fill-opacity="1" fill-rule="nonzero"/></g><g clip-path="url(#58a6e54d2a)"><path stroke-linecap="butt" transform="matrix(0.74782, 0, 0, 0.74782, -9.838022, 0.1468)" fill="none" stroke-linejoin="miter" d="M -0.00243562 1.997574 L 375.31257 1.997574 " stroke="#000000" stroke-width="4" stroke-opacity="1" stroke-miterlimit="4"/></g><g clip-path="url(#15baa97a2e)"><path stroke-linecap="butt" transform="matrix(0.74782, 0, 0, 0.74782, -12.082472, 183.362635)" fill="none" stroke-linejoin="miter" d="M 0.000589419 2.001471 L 375.315595 2.001471 " stroke="#000000" stroke-width="4" stroke-opacity="1" stroke-miterlimit="4"/></g><g clip-path="url(#54a47554df)"><path stroke-linecap="butt" transform="matrix(0.74782, 0.000000000000000029, -0.000000000000000029, 0.74782, -9.226357, 60.113854)" fill="none" stroke-linejoin="miter" d="M -0.00027542 1.999841 L 360.960502 1.999841 " stroke="#000000" stroke-width="4" stroke-opacity="1" stroke-miterlimit="4"/></g><g clip-path="url(#787d2dd8d1)"><path stroke-linecap="butt" transform="matrix(0.74782, 0, 0, 0.74782, -15.373313, 125.981857)" fill="none" stroke-linejoin="miter" d="M -0.0022553 1.998751 L 375.312751 1.998751 " stroke="#000000" stroke-width="4" stroke-opacity="1" stroke-miterlimit="4"/></g><g clip-path="url(#68b7a715af)"><path stroke-linecap="butt" transform="matrix(0, -0.74782, 0.74782, 0, 80.404219, 190.014199)" fill="none" stroke-linejoin="miter" d="M -0.00190738 1.9981 L 253.897642 1.9981 " stroke="#000000" stroke-width="4" stroke-opacity="1" stroke-miterlimit="4"/></g><g clip-path="url(#7a22a2dc30)"><path stroke-linecap="butt" transform="matrix(0, -0.74782, 0.74782, 0, 164.143453, 188.182567)" fill="none" stroke-linejoin="miter" d="M -0.00137335 2.00205 L 253.898176 2.00205 " stroke="#000000" stroke-width="4" stroke-opacity="1" stroke-miterlimit="4"/></g><g clip-path="url(#ebaccdbf5a)"><path stroke-linecap="butt" transform="matrix(0, -0.74782, 0.74782, 0, -0.00297822, 191.88746)" fill="none" stroke-linejoin="miter" d="M 0.000990604 1.999366 L 253.90054 1.999366 " stroke="#000000" stroke-width="4" stroke-opacity="1" stroke-miterlimit="4"/></g><g clip-path="url(#fe89e4c07f)"><path stroke-linecap="butt" transform="matrix(0, -0.74782, 0.74782, 0, 253.62248, 191.509838)" fill="none" stroke-linejoin="miter" d="M -0.00251485 1.998754 L 253.897034 1.998754 " stroke="#000000" stroke-width="4" stroke-opacity="1" stroke-miterlimit="4"/></g><g clip-path="url(#05d4aefd18)"><path fill="#000000" d="M 142.542969 38.902344 L 125.285156 38.902344 L 125.285156 56.160156 L 122.410156 56.160156 L 122.410156 38.902344 L 105.152344 38.902344 L 105.152344 36.023438 L 122.410156 36.023438 L 122.410156 18.765625 L 125.285156 18.765625 L 125.285156 36.023438 L 142.542969 36.023438 Z M 142.542969 38.902344 " fill-opacity="1" fill-rule="nonzero"/></g><g clip-path="url(#dcb390492f)"><path fill="#000000" d="M 232.804688 38.902344 L 215.546875 38.902344 L 215.546875 56.160156 L 212.667969 56.160156 L 212.667969 38.902344 L 195.414062 38.902344 L 195.414062 36.023438 L 212.667969 36.023438 L 212.667969 18.765625 L 215.546875 18.765625 L 215.546875 36.023438 L 232.804688 36.023438 Z M 232.804688 38.902344 " fill-opacity="1" fill-rule="nonzero"/></g><g clip-path="url(#338a379c1f)"><path fill="#000000" d="M 142.542969 98.941406 L 125.285156 98.941406 L 125.285156 116.199219 L 122.410156 116.199219 L 122.410156 98.941406 L 105.152344 98.941406 L 105.152344 96.066406 L 122.410156 96.066406 L 122.410156 78.808594 L 125.285156 78.808594 L 125.285156 96.066406 L 142.542969 96.066406 Z M 142.542969 98.941406 " fill-opacity="1" fill-rule="nonzero"/></g><g clip-path="url(#a72dbe0b04)"><path fill="#000000" d="M 56.011719 100.65625 L 38.753906 100.65625 L 38.753906 117.914062 L 35.878906 117.914062 L 35.878906 100.65625 L 18.621094 100.65625 L 18.621094 97.777344 L 35.878906 97.777344 L 35.878906 80.519531 L 38.753906 80.519531 L 38.753906 97.777344 L 56.011719 97.777344 Z M 56.011719 100.65625 " fill-opacity="1" fill-rule="nonzero"/></g><g clip-path="url(#46dd994b2d)"><path fill="#000000" d="M 232.804688 100.65625 L 215.546875 100.65625 L 215.546875 117.914062 L 212.667969 117.914062 L 212.667969 100.65625 L 195.414062 100.65625 L 195.414062 97.777344 L 212.667969 97.777344 L 212.667969 80.519531 L 215.546875 80.519531 L 215.546875 97.777344 L 232.804688 97.777344 Z M 232.804688 100.65625 " fill-opacity="1" fill-rule="nonzero"/></g><g clip-path="url(#f1a6c2b1f7)"><path fill="#000000" d="M 142.542969 160.402344 L 125.285156 160.402344 L 125.285156 177.660156 L 122.410156 177.660156 L 122.410156 160.402344 L 105.152344 160.402344 L 105.152344 157.523438 L 122.410156 157.523438 L 122.410156 140.269531 L 125.285156 140.269531 L 125.285156 157.523438 L 142.542969 157.523438 Z M 142.542969 160.402344 " fill-opacity="1" fill-rule="nonzero"/></g><g clip-path="url(#ea11b83a28)"><path fill="#000000" d="M 56.011719 160.402344 L 38.753906 160.402344 L 38.753906 177.660156 L 35.878906 177.660156 L 35.878906 160.402344 L 18.621094 160.402344 L 18.621094 157.523438 L 35.878906 157.523438 L 35.878906 140.269531 L 38.753906 140.269531 L 38.753906 157.523438 L 56.011719 157.523438 Z M 56.011719 160.402344 " fill-opacity="1" fill-rule="nonzero"/></g><g clip-path="url(#5496036898)"><path fill="#000000" d="M 30.03125 27.136719 C 30.03125 27.40625 30.003906 27.675781 29.949219 27.9375 C 29.898438 28.203125 29.820312 28.460938 29.714844 28.710938 C 29.613281 28.960938 29.488281 29.199219 29.335938 29.421875 C 29.1875 29.648438 29.015625 29.855469 28.824219 30.046875 C 28.632812 30.234375 28.425781 30.40625 28.203125 30.558594 C 27.976562 30.707031 27.738281 30.832031 27.492188 30.9375 C 27.242188 31.039062 26.984375 31.117188 26.71875 31.171875 C 26.453125 31.222656 26.1875 31.25 25.917969 31.25 C 25.644531 31.25 25.378906 31.222656 25.113281 31.171875 C 24.847656 31.117188 24.59375 31.039062 24.34375 30.9375 C 24.09375 30.832031 23.855469 30.707031 23.632812 30.558594 C 23.40625 30.40625 23.199219 30.234375 23.007812 30.046875 C 22.816406 29.855469 22.648438 29.648438 22.496094 29.421875 C 22.347656 29.199219 22.21875 28.960938 22.117188 28.710938 C 22.011719 28.460938 21.933594 28.203125 21.882812 27.9375 C 21.828125 27.675781 21.804688 27.40625 21.804688 27.136719 C 21.804688 26.867188 21.828125 26.597656 21.882812 26.335938 C 21.933594 26.070312 22.011719 25.8125 22.117188 25.5625 C 22.21875 25.3125 22.347656 25.078125 22.496094 24.851562 C 22.648438 24.628906 22.816406 24.417969 23.007812 24.230469 C 23.199219 24.039062 23.40625 23.867188 23.632812 23.71875 C 23.855469 23.566406 24.09375 23.441406 24.34375 23.335938 C 24.59375 23.234375 24.847656 23.15625 25.113281 23.101562 C 25.378906 23.050781 25.644531 23.023438 25.917969 23.023438 C 26.1875 23.023438 26.453125 23.050781 26.71875 23.101562 C 26.984375 23.15625 27.242188 23.234375 27.492188 23.335938 C 27.738281 23.441406 27.976562 23.566406 28.203125 23.71875 C 28.425781 23.867188 28.632812 24.039062 28.824219 24.230469 C 29.015625 24.417969 29.1875 24.628906 29.335938 24.851562 C 29.488281 25.078125 29.613281 25.3125 29.714844 25.5625 C 29.820312 25.8125 29.898438 26.070312 29.949219 26.335938 C 30.003906 26.597656 30.03125 26.867188 30.03125 27.136719 Z M 30.03125 27.136719 " fill-opacity="1" fill-rule="nonzero"/></g><g clip-path="url(#30b21852de)"><path fill="#000000" d="M 30.03125 112.273438 C 30.03125 112.542969 30.003906 112.8125 29.949219 113.074219 C 29.898438 113.339844 29.820312 113.597656 29.714844 113.847656 C 29.613281 114.097656 29.488281 114.332031 29.335938 114.558594 C 29.1875 114.78125 29.015625 114.992188 28.824219 115.179688 C 28.632812 115.371094 28.425781 115.542969 28.203125 115.691406 C 27.976562 115.84375 27.738281 115.96875 27.492188 116.074219 C 27.242188 116.175781 26.984375 116.253906 26.71875 116.308594 C 26.453125 116.359375 26.1875 116.386719 25.917969 116.386719 C 25.644531 116.386719 25.378906 116.359375 25.113281 116.308594 C 24.847656 116.253906 24.59375 116.175781 24.34375 116.074219 C 24.09375 115.96875 23.855469 115.84375 23.632812 115.691406 C 23.40625 115.542969 23.199219 115.371094 23.007812 115.179688 C 22.816406 114.992188 22.648438 114.78125 22.496094 114.558594 C 22.347656 114.332031 22.21875 114.097656 22.117188 113.847656 C 22.011719 113.597656 21.933594 113.339844 21.882812 113.074219 C 21.828125 112.8125 21.804688 112.542969 21.804688 112.273438 C 21.804688 112.003906 21.828125 111.734375 21.882812 111.472656 C 21.933594 111.207031 22.011719 110.949219 22.117188 110.699219 C 22.21875 110.449219 22.347656 110.210938 22.496094 109.988281 C 22.648438 109.761719 22.816406 109.554688 23.007812 109.363281 C 23.199219 109.175781 23.40625 109.003906 23.632812 108.851562 C 23.855469 108.703125 24.09375 108.578125 24.34375 108.472656 C 24.59375 108.371094 24.847656 108.292969 25.113281 108.238281 C 25.378906 108.1875 25.644531 108.160156 25.917969 108.160156 C 26.1875 108.160156 26.453125 108.1875 26.71875 108.238281 C 26.984375 108.292969 27.242188 108.371094 27.492188 108.472656 C 27.738281 108.578125 27.976562 108.703125 28.203125 108.851562 C 28.425781 109.003906 28.632812 109.175781 28.824219 109.363281 C 29.015625 109.554688 29.1875 109.761719 29.335938 109.988281 C 29.488281 110.210938 29.613281 110.449219 29.714844 110.699219 C 29.820312 110.949219 29.898438 111.207031 29.949219 111.472656 C 30.003906 111.734375 30.03125 112.003906 30.03125 112.273438 Z M 30.03125 112.273438 " fill-opacity="1" fill-rule="nonzero"/></g><g clip-path="url(#fc0255aa7a)"><path fill="#000000" d="M 52.699219 170.105469 C 52.699219 170.375 52.671875 170.640625 52.621094 170.90625 C 52.566406 171.171875 52.488281 171.429688 52.386719 171.675781 C 52.28125 171.925781 52.15625 172.164062 52.007812 172.390625 C 51.855469 172.613281 51.683594 172.820312 51.496094 173.011719 C 51.304688 173.203125 51.097656 173.375 50.871094 173.523438 C 50.648438 173.671875 50.410156 173.800781 50.160156 173.902344 C 49.910156 174.007812 49.652344 174.085938 49.386719 174.136719 C 49.125 174.191406 48.855469 174.214844 48.585938 174.214844 C 48.316406 174.214844 48.046875 174.191406 47.785156 174.136719 C 47.519531 174.085938 47.261719 174.007812 47.011719 173.902344 C 46.761719 173.800781 46.527344 173.671875 46.300781 173.523438 C 46.078125 173.375 45.867188 173.203125 45.679688 173.011719 C 45.488281 172.820312 45.316406 172.613281 45.167969 172.390625 C 45.015625 172.164062 44.890625 171.925781 44.785156 171.675781 C 44.683594 171.429688 44.605469 171.171875 44.550781 170.90625 C 44.5 170.640625 44.472656 170.375 44.472656 170.105469 C 44.472656 169.832031 44.5 169.566406 44.550781 169.300781 C 44.605469 169.035156 44.683594 168.777344 44.785156 168.53125 C 44.890625 168.28125 45.015625 168.042969 45.167969 167.820312 C 45.316406 167.59375 45.488281 167.386719 45.679688 167.195312 C 45.867188 167.003906 46.078125 166.832031 46.300781 166.683594 C 46.527344 166.535156 46.761719 166.40625 47.011719 166.304688 C 47.261719 166.199219 47.519531 166.121094 47.785156 166.070312 C 48.046875 166.015625 48.316406 165.992188 48.585938 165.992188 C 48.855469 165.992188 49.125 166.015625 49.386719 166.070312 C 49.652344 166.121094 49.910156 166.199219 50.160156 166.304688 C 50.410156 166.40625 50.648438 166.535156 50.871094 166.683594 C 51.097656 166.832031 51.304688 167.003906 51.496094 167.195312 C 51.683594 167.386719 51.855469 167.59375 52.007812 167.820312 C 52.15625 168.042969 52.28125 168.28125 52.386719 168.53125 C 52.488281 168.777344 52.566406 169.035156 52.621094 169.300781 C 52.671875 169.566406 52.699219 169.832031 52.699219 170.105469 Z M 52.699219 170.105469 " fill-opacity="1" fill-rule="nonzero"/></g><g clip-path="url(#ea77e4da69)"><path fill="#000000" d="M 118.917969 28.894531 C 118.917969 29.164062 118.890625 29.433594 118.839844 29.699219 C 118.785156 29.960938 118.707031 30.21875 118.605469 30.46875 C 118.5 30.71875 118.375 30.957031 118.226562 31.179688 C 118.074219 31.40625 117.90625 31.613281 117.714844 31.804688 C 117.523438 31.996094 117.316406 32.164062 117.089844 32.316406 C 116.867188 32.464844 116.628906 32.59375 116.378906 32.695312 C 116.128906 32.796875 115.871094 32.875 115.609375 32.929688 C 115.34375 32.980469 115.074219 33.007812 114.804688 33.007812 C 114.535156 33.007812 114.265625 32.980469 114.003906 32.929688 C 113.738281 32.875 113.480469 32.796875 113.230469 32.695312 C 112.980469 32.59375 112.746094 32.464844 112.519531 32.316406 C 112.296875 32.164062 112.085938 31.996094 111.898438 31.804688 C 111.707031 31.613281 111.535156 31.40625 111.386719 31.179688 C 111.234375 30.957031 111.109375 30.71875 111.003906 30.46875 C 110.902344 30.21875 110.824219 29.960938 110.769531 29.699219 C 110.71875 29.433594 110.691406 29.164062 110.691406 28.894531 C 110.691406 28.625 110.71875 28.359375 110.769531 28.09375 C 110.824219 27.828125 110.902344 27.570312 111.003906 27.320312 C 111.109375 27.070312 111.234375 26.835938 111.386719 26.609375 C 111.535156 26.386719 111.707031 26.179688 111.898438 25.988281 C 112.085938 25.796875 112.296875 25.625 112.519531 25.476562 C 112.746094 25.324219 112.980469 25.199219 113.230469 25.09375 C 113.480469 24.992188 113.738281 24.914062 114.003906 24.863281 C 114.265625 24.808594 114.535156 24.78125 114.804688 24.78125 C 115.074219 24.78125 115.34375 24.808594 115.609375 24.863281 C 115.871094 24.914062 116.128906 24.992188 116.378906 25.09375 C 116.628906 25.199219 116.867188 25.324219 117.089844 25.476562 C 117.316406 25.625 117.523438 25.796875 117.714844 25.988281 C 117.90625 26.179688 118.074219 26.386719 118.226562 26.609375 C 118.375 26.835938 118.5 27.070312 118.605469 27.320312 C 118.707031 27.570312 118.785156 27.828125 118.839844 28.09375 C 118.890625 28.359375 118.917969 28.625 118.917969 28.894531 Z M 118.917969 28.894531 " fill-opacity="1" fill-rule="nonzero"/></g><g clip-path="url(#c966cf2044)"><path fill="#000000" d="M 118.917969 108.328125 C 118.917969 108.597656 118.890625 108.867188 118.839844 109.128906 C 118.785156 109.394531 118.707031 109.652344 118.605469 109.902344 C 118.5 110.152344 118.375 110.386719 118.226562 110.613281 C 118.074219 110.835938 117.90625 111.046875 117.714844 111.234375 C 117.523438 111.425781 117.316406 111.597656 117.089844 111.746094 C 116.867188 111.898438 116.628906 112.023438 116.378906 112.128906 C 116.128906 112.230469 115.871094 112.308594 115.609375 112.363281 C 115.34375 112.414062 115.074219 112.441406 114.804688 112.441406 C 114.535156 112.441406 114.265625 112.414062 114.003906 112.363281 C 113.738281 112.308594 113.480469 112.230469 113.230469 112.128906 C 112.980469 112.023438 112.746094 111.898438 112.519531 111.746094 C 112.296875 111.597656 112.085938 111.425781 111.898438 111.234375 C 111.707031 111.046875 111.535156 110.835938 111.386719 110.613281 C 111.234375 110.386719 111.109375 110.152344 111.003906 109.902344 C 110.902344 109.652344 110.824219 109.394531 110.769531 109.128906 C 110.71875 108.867188 110.691406 108.597656 110.691406 108.328125 C 110.691406 108.058594 110.71875 107.789062 110.769531 107.527344 C 110.824219 107.261719 110.902344 107.003906 111.003906 106.753906 C 111.109375 106.503906 111.234375 106.265625 111.386719 106.042969 C 111.535156 105.816406 111.707031 105.609375 111.898438 105.417969 C 112.085938 105.230469 112.296875 105.058594 112.519531 104.90625 C 112.746094 104.757812 112.980469 104.632812 113.230469 104.527344 C 113.480469 104.425781 113.738281 104.347656 114.003906 104.292969 C 114.265625 104.242188 114.535156 104.214844 114.804688 104.214844 C 115.074219 104.214844 115.34375 104.242188 115.609375 104.292969 C 115.871094 104.347656 116.128906 104.425781 116.378906 104.527344 C 116.628906 104.632812 116.867188 104.757812 117.089844 104.90625 C 117.316406 105.058594 117.523438 105.230469 117.714844 105.417969 C 117.90625 105.609375 118.074219 105.816406 118.226562 106.042969 C 118.375 106.265625 118.5 106.503906 118.605469 106.753906 C 118.707031 107.003906 118.785156 107.261719 118.839844 107.527344 C 118.890625 107.789062 118.917969 108.058594 118.917969 108.328125 Z M 118.917969 108.328125 " fill-opacity="1" fill-rule="nonzero"/></g><g clip-path="url(#6dea7f850d)"><path fill="#000000" d="M 138.832031 170.105469 C 138.832031 170.375 138.808594 170.640625 138.753906 170.90625 C 138.703125 171.171875 138.625 171.429688 138.519531 171.675781 C 138.417969 171.925781 138.289062 172.164062 138.140625 172.390625 C 137.992188 172.613281 137.820312 172.820312 137.628906 173.011719 C 137.4375 173.203125 137.230469 173.375 137.003906 173.523438 C 136.78125 173.671875 136.542969 173.800781 136.292969 173.902344 C 136.046875 174.007812 135.789062 174.085938 135.523438 174.136719 C 135.257812 174.191406 134.992188 174.214844 134.71875 174.214844 C 134.449219 174.214844 134.183594 174.191406 133.917969 174.136719 C 133.652344 174.085938 133.394531 174.007812 133.148438 173.902344 C 132.898438 173.800781 132.660156 173.671875 132.433594 173.523438 C 132.210938 173.375 132.003906 173.203125 131.8125 173.011719 C 131.621094 172.820312 131.449219 172.613281 131.300781 172.390625 C 131.152344 172.164062 131.023438 171.925781 130.921875 171.675781 C 130.816406 171.429688 130.738281 171.171875 130.6875 170.90625 C 130.632812 170.640625 130.609375 170.375 130.609375 170.105469 C 130.609375 169.832031 130.632812 169.566406 130.6875 169.300781 C 130.738281 169.035156 130.816406 168.777344 130.921875 168.53125 C 131.023438 168.28125 131.152344 168.042969 131.300781 167.820312 C 131.449219 167.59375 131.621094 167.386719 131.8125 167.195312 C 132.003906 167.003906 132.210938 166.832031 132.433594 166.683594 C 132.660156 166.535156 132.898438 166.40625 133.148438 166.304688 C 133.394531 166.199219 133.652344 166.121094 133.917969 166.070312 C 134.183594 166.015625 134.449219 165.992188 134.71875 165.992188 C 134.992188 165.992188 135.257812 166.015625 135.523438 166.070312 C 135.789062 166.121094 136.046875 166.199219 136.292969 166.304688 C 136.542969 166.40625 136.78125 166.535156 137.003906 166.683594 C 137.230469 166.832031 137.4375 167.003906 137.628906 167.195312 C 137.820312 167.386719 137.992188 167.59375 138.140625 167.820312 C 138.289062 168.042969 138.417969 168.28125 138.519531 168.53125 C 138.625 168.777344 138.703125 169.035156 138.753906 169.300781 C 138.808594 169.566406 138.832031 169.832031 138.832031 170.105469 Z M 138.832031 170.105469 " fill-opacity="1" fill-rule="nonzero"/></g><g clip-path="url(#2101abacdf)"><path fill="#000000" d="M 209.78125 28.894531 C 209.78125 29.164062 209.757812 29.433594 209.703125 29.699219 C 209.652344 29.960938 209.574219 30.21875 209.46875 30.46875 C 209.367188 30.71875 209.238281 30.957031 209.089844 31.179688 C 208.9375 31.40625 208.769531 31.613281 208.578125 31.804688 C 208.386719 31.996094 208.179688 32.164062 207.953125 32.316406 C 207.730469 32.464844 207.492188 32.59375 207.242188 32.695312 C 206.992188 32.796875 206.738281 32.875 206.472656 32.929688 C 206.207031 32.980469 205.9375 33.007812 205.667969 33.007812 C 205.398438 33.007812 205.132812 32.980469 204.867188 32.929688 C 204.601562 32.875 204.34375 32.796875 204.09375 32.695312 C 203.847656 32.59375 203.609375 32.464844 203.382812 32.316406 C 203.160156 32.164062 202.953125 31.996094 202.761719 31.804688 C 202.570312 31.613281 202.398438 31.40625 202.25 31.179688 C 202.097656 30.957031 201.972656 30.71875 201.871094 30.46875 C 201.765625 30.21875 201.6875 29.960938 201.636719 29.699219 C 201.582031 29.433594 201.554688 29.164062 201.554688 28.894531 C 201.554688 28.625 201.582031 28.359375 201.636719 28.09375 C 201.6875 27.828125 201.765625 27.570312 201.871094 27.320312 C 201.972656 27.070312 202.097656 26.835938 202.25 26.609375 C 202.398438 26.386719 202.570312 26.179688 202.761719 25.988281 C 202.953125 25.796875 203.160156 25.625 203.382812 25.476562 C 203.609375 25.324219 203.847656 25.199219 204.09375 25.09375 C 204.34375 24.992188 204.601562 24.914062 204.867188 24.863281 C 205.132812 24.808594 205.398438 24.78125 205.667969 24.78125 C 205.9375 24.78125 206.207031 24.808594 206.472656 24.863281 C 206.738281 24.914062 206.992188 24.992188 207.242188 25.09375 C 207.492188 25.199219 207.730469 25.324219 207.953125 25.476562 C 208.179688 25.625 208.386719 25.796875 208.578125 25.988281 C 208.769531 26.179688 208.9375 26.386719 209.089844 26.609375 C 209.238281 26.835938 209.367188 27.070312 209.46875 27.320312 C 209.574219 27.570312 209.652344 27.828125 209.703125 28.09375 C 209.757812 28.359375 209.78125 28.625 209.78125 28.894531 Z M 209.78125 28.894531 " fill-opacity="1" fill-rule="nonzero"/></g><g clip-path="url(#8b60632f42)"><path fill="#000000" d="M 209.78125 108.328125 C 209.78125 108.597656 209.757812 108.867188 209.703125 109.128906 C 209.652344 109.394531 209.574219 109.652344 209.46875 109.902344 C 209.367188 110.152344 209.238281 110.386719 209.089844 110.613281 C 208.9375 110.835938 208.769531 111.046875 208.578125 111.234375 C 208.386719 111.425781 208.179688 111.597656 207.953125 111.746094 C 207.730469 111.898438 207.492188 112.023438 207.242188 112.128906 C 206.992188 112.230469 206.738281 112.308594 206.472656 112.363281 C 206.207031 112.414062 205.9375 112.441406 205.667969 112.441406 C 205.398438 112.441406 205.132812 112.414062 204.867188 112.363281 C 204.601562 112.308594 204.34375 112.230469 204.09375 112.128906 C 203.847656 112.023438 203.609375 111.898438 203.382812 111.746094 C 203.160156 111.597656 202.953125 111.425781 202.761719 111.234375 C 202.570312 111.046875 202.398438 110.835938 202.25 110.613281 C 202.097656 110.386719 201.972656 110.152344 201.871094 109.902344 C 201.765625 109.652344 201.6875 109.394531 201.636719 109.128906 C 201.582031 108.867188 201.554688 108.597656 201.554688 108.328125 C 201.554688 108.058594 201.582031 107.789062 201.636719 107.527344 C 201.6875 107.261719 201.765625 107.003906 201.871094 106.753906 C 201.972656 106.503906 202.097656 106.265625 202.25 106.042969 C 202.398438 105.816406 202.570312 105.609375 202.761719 105.417969 C 202.953125 105.230469 203.160156 105.058594 203.382812 104.90625 C 203.609375 104.757812 203.847656 104.632812 204.09375 104.527344 C 204.34375 104.425781 204.601562 104.347656 204.867188 104.292969 C 205.132812 104.242188 205.398438 104.214844 205.667969 104.214844 C 205.9375 104.214844 206.207031 104.242188 206.472656 104.292969 C 206.738281 104.347656 206.992188 104.425781 207.242188 104.527344 C 207.492188 104.632812 207.730469 104.757812 207.953125 104.90625 C 208.179688 105.058594 208.386719 105.230469 208.578125 105.417969 C 208.769531 105.609375 208.9375 105.816406 209.089844 106.042969 C 209.238281 106.265625 209.367188 106.503906 209.46875 106.753906 C 209.574219 107.003906 209.652344 107.261719 209.703125 107.527344 C 209.757812 107.789062 209.78125 108.058594 209.78125 108.328125 Z M 209.78125 108.328125 " fill-opacity="1" fill-rule="nonzero"/></g><g clip-path="url(#9da3c94e24)"><path stroke-linecap="round" transform="matrix(0.275513, 0, 0, 0.275513, 41.758852, 20.309678)" fill="none" stroke-linejoin="round" d="M 40.503116 5.497177 L 7.496452 5.497177 C 6.943505 5.497177 6.475627 5.695671 6.092818 6.092658 C 5.69583 6.475467 5.497337 6.943345 5.497337 7.496292 L 5.497337 40.502957 C 5.497337 41.055903 5.69583 41.523781 6.092818 41.920769 C 6.475627 42.303578 6.943505 42.502072 7.496452 42.502072 L 40.503116 42.502072 C 41.056063 42.502072 41.523941 42.303578 41.920928 41.920769 C 42.303738 41.523781 42.502231 41.055903 42.502231 40.502957 L 42.502231 7.496292 C 42.502231 6.943345 42.303738 6.475467 41.920928 6.092658 C 41.523941 5.695671 41.056063 5.497177 40.503116 5.497177 Z M 40.503116 5.497177 " stroke="#000000" stroke-width="1" stroke-opacity="1" stroke-miterlimit="4"/></g><g clip-path="url(#f7a4238465)"><path stroke-linecap="butt" transform="matrix(0.74782, 0, 0, 0.74782, 43.142257, 21.693082)" fill="none" stroke-linejoin="miter" d="M -0.00218184 -0.00224098 L -0.00218184 14.111705 L 14.111764 14.111705 L 14.111764 -0.00224098 L -0.00218184 -0.00224098 " stroke="#000000" stroke-width="4" stroke-opacity="1" stroke-miterlimit="4"/></g><g clip-path="url(#e5ad0859c0)"><path stroke-linecap="round" transform="matrix(0.275513, 0, 0, 0.275513, 40.427963, 82.810238)" fill="none" stroke-linejoin="round" d="M 40.498972 5.495142 L 7.506485 5.495142 C 6.953539 5.495142 6.471482 5.693635 6.088673 6.090623 C 5.691686 6.473432 5.493192 6.94131 5.493192 7.494257 L 5.493192 40.500921 C 5.493192 41.053868 5.691686 41.521746 6.088673 41.918733 C 6.471482 42.301543 6.953539 42.500036 7.506485 42.500036 L 40.498972 42.500036 C 41.051919 42.500036 41.519797 42.301543 41.916784 41.918733 C 42.299593 41.521746 42.498087 41.053868 42.498087 40.500921 L 42.498087 7.494257 C 42.498087 6.94131 42.299593 6.473432 41.916784 6.090623 C 41.519797 5.693635 41.051919 5.495142 40.498972 5.495142 Z M 40.498972 5.495142 " stroke="#000000" stroke-width="1" stroke-opacity="1" stroke-miterlimit="4"/></g><g clip-path="url(#fe44e362a7)"><path stroke-linecap="butt" transform="matrix(0.74782, 0, 0, 0.74782, 41.811367, 84.193647)" fill="none" stroke-linejoin="miter" d="M 0.00151477 0.00222664 L 0.00151477 14.110949 L 14.110237 14.110949 L 14.110237 0.00222664 L 0.00151477 0.00222664 " stroke="#000000" stroke-width="4" stroke-opacity="1" stroke-miterlimit="4"/></g><g clip-path="url(#b45d17e556)"><path stroke-linecap="round" transform="matrix(0.275513, 0, 0, 0.275513, 40.427963, 143.293942)" fill="none" stroke-linejoin="round" d="M 40.498972 5.49758 L 7.506485 5.49758 C 6.953539 5.49758 6.471482 5.696073 6.088673 6.078883 C 5.691686 6.47587 5.493192 6.943748 5.493192 7.496695 L 5.493192 40.503359 C 5.493192 41.056306 5.691686 41.524184 6.088673 41.921171 C 6.471482 42.303981 6.953539 42.502474 7.506485 42.502474 L 40.498972 42.502474 C 41.051919 42.502474 41.519797 42.303981 41.916784 41.921171 C 42.299593 41.524184 42.498087 41.056306 42.498087 40.503359 L 42.498087 7.496695 C 42.498087 6.943748 42.299593 6.47587 41.916784 6.078883 C 41.519797 5.696073 41.051919 5.49758 40.498972 5.49758 Z M 40.498972 5.49758 " stroke="#000000" stroke-width="1" stroke-opacity="1" stroke-miterlimit="4"/></g><g clip-path="url(#8ada880023)"><path stroke-linecap="butt" transform="matrix(0.74782, 0, 0, 0.74782, 41.811367, 144.677351)" fill="none" stroke-linejoin="miter" d="M 0.00151477 -0.00209872 L 0.00151477 14.111847 L 14.110237 14.111847 L 14.110237 -0.00209872 L 0.00151477 -0.00209872 " stroke="#000000" stroke-width="4" stroke-opacity="1" stroke-miterlimit="4"/></g><g clip-path="url(#8cae042349)"><path stroke-linecap="round" transform="matrix(0.275513, 0, 0, 0.275513, 126.562283, 40.240976)" fill="none" stroke-linejoin="round" d="M 40.4935 5.505508 L 7.501014 5.505508 C 6.948067 5.505508 6.480189 5.689824 6.083202 6.086811 C 5.700393 6.46962 5.501899 6.951676 5.501899 7.504623 L 5.501899 40.49711 C 5.501899 41.050056 5.700393 41.517934 6.083202 41.914922 C 6.480189 42.297731 6.948067 42.496225 7.501014 42.496225 L 40.4935 42.496225 C 41.046447 42.496225 41.528503 42.297731 41.911313 41.914922 C 42.3083 41.517934 42.506794 41.050056 42.506794 40.49711 L 42.506794 7.504623 C 42.506794 6.951676 42.3083 6.46962 41.911313 6.086811 C 41.528503 5.689824 41.046447 5.505508 40.4935 5.505508 Z M 40.4935 5.505508 " stroke="#000000" stroke-width="1" stroke-opacity="1" stroke-miterlimit="4"/></g><g clip-path="url(#a4e0893d0b)"><path stroke-linecap="butt" transform="matrix(0.74782, 0, 0, 0.74782, 127.945692, 41.624381)" fill="none" stroke-linejoin="miter" d="M -0.000507399 0.00082774 L -0.000507399 14.10955 L 14.108215 14.10955 L 14.108215 0.00082774 L -0.000507399 0.00082774 " stroke="#000000" stroke-width="4" stroke-opacity="1" stroke-miterlimit="4"/></g><g clip-path="url(#36c73f175e)"><path stroke-linecap="round" transform="matrix(0.275513, 0, 0, 0.275513, 126.867676, 102.424083)" fill="none" stroke-linejoin="round" d="M 40.505119 5.493096 L 7.498454 5.493096 C 6.945507 5.493096 6.477629 5.69159 6.080642 6.088577 C 5.697833 6.471387 5.499339 6.953443 5.499339 7.50639 L 5.499339 40.498876 C 5.499339 41.051823 5.697833 41.519701 6.080642 41.916688 C 6.477629 42.299497 6.945507 42.497991 7.498454 42.497991 L 40.505119 42.497991 C 41.058065 42.497991 41.525943 42.299497 41.908752 41.916688 C 42.30574 41.519701 42.504234 41.051823 42.504234 40.498876 L 42.504234 7.50639 C 42.504234 6.953443 42.30574 6.471387 41.908752 6.088577 C 41.525943 5.69159 41.058065 5.493096 40.505119 5.493096 Z M 40.505119 5.493096 " stroke="#000000" stroke-width="1" stroke-opacity="1" stroke-miterlimit="4"/></g><g clip-path="url(#922a470c67)"><path stroke-linecap="butt" transform="matrix(0.74782, 0, 0, 0.74782, 128.251085, 103.80749)" fill="none" stroke-linejoin="miter" d="M -0.00145058 0.00147631 L -0.00145058 14.110199 L 14.107272 14.110199 L 14.107272 0.00147631 L -0.00145058 0.00147631 " stroke="#000000" stroke-width="4" stroke-opacity="1" stroke-miterlimit="4"/></g><g clip-path="url(#79b6bfe196)"><path stroke-linecap="round" transform="matrix(0.295192, 0, 0, 0.295192, 127.28092, 162.664052)" fill="none" stroke-linejoin="round" d="M 40.493834 5.504927 L 7.504181 5.504927 C 6.948398 5.504927 6.472014 5.690188 6.088259 6.087175 C 5.691272 6.470929 5.506011 6.947314 5.506011 7.503097 L 5.506011 40.505983 C 5.506011 41.048532 5.691272 41.524917 6.088259 41.908671 C 6.472014 42.305659 6.948398 42.504152 7.504181 42.504152 L 40.493834 42.504152 C 41.049616 42.504152 41.526001 42.305659 41.909755 41.908671 C 42.306743 41.524917 42.505237 41.048532 42.505237 40.505983 L 42.505237 7.503097 C 42.505237 6.947314 42.306743 6.470929 41.909755 6.087175 C 41.526001 5.690188 41.049616 5.504927 40.493834 5.504927 Z M 40.493834 5.504927 " stroke="#000000" stroke-width="1" stroke-opacity="1" stroke-miterlimit="4"/></g><g clip-path="url(#9f1dd41364)"><path stroke-linecap="butt" transform="matrix(0.74782, 0, 0, 0.74782, 128.778691, 164.161824)" fill="none" stroke-linejoin="miter" d="M -0.00180202 -0.00222996 L -0.00180202 15.438491 L 15.438919 15.438491 L 15.438919 -0.00222996 L -0.00180202 -0.00222996 " stroke="#000000" stroke-width="4" stroke-opacity="1" stroke-miterlimit="4"/></g><g clip-path="url(#d7b60569ce)"><path stroke-linecap="round" transform="matrix(0.275513, 0, 0, 0.275513, 198.841954, 40.240976)" fill="none" stroke-linejoin="round" d="M 40.499233 5.505508 L 7.506746 5.505508 C 6.9538 5.505508 6.471743 5.689824 6.088934 6.086811 C 5.691947 6.46962 5.493453 6.951676 5.493453 7.504623 L 5.493453 40.49711 C 5.493453 41.050056 5.691947 41.517934 6.088934 41.914922 C 6.471743 42.297731 6.9538 42.496225 7.506746 42.496225 L 40.499233 42.496225 C 41.052179 42.496225 41.520057 42.297731 41.917045 41.914922 C 42.299854 41.517934 42.498348 41.050056 42.498348 40.49711 L 42.498348 7.504623 C 42.498348 6.951676 42.299854 6.46962 41.917045 6.086811 C 41.520057 5.689824 41.052179 5.505508 40.499233 5.505508 Z M 40.499233 5.505508 " stroke="#000000" stroke-width="1" stroke-opacity="1" stroke-miterlimit="4"/></g><g clip-path="url(#468585ccb4)"><path stroke-linecap="butt" transform="matrix(0.74782, 0, 0, 0.74782, 200.22536, 41.624381)" fill="none" stroke-linejoin="miter" d="M 0.0016077 0.00082774 L 0.0016077 14.10955 L 14.11033 14.10955 L 14.11033 0.00082774 L 0.0016077 0.00082774 " stroke="#000000" stroke-width="4" stroke-opacity="1" stroke-miterlimit="4"/></g><g clip-path="url(#66d7519b0e)"><path stroke-linecap="round" transform="matrix(0.295192, 0, 0, 0.295192, 198.229703, 100.88838)" fill="none" stroke-linejoin="round" d="M 40.495308 5.499266 L 7.505655 5.499266 C 6.949872 5.499266 6.473487 5.697759 6.089733 6.081514 C 5.692746 6.478501 5.494252 6.941653 5.494252 7.497436 L 5.494252 40.500321 C 5.494252 41.056104 5.692746 41.519256 6.089733 41.916243 C 6.473487 42.299998 6.949872 42.498491 7.505655 42.498491 L 40.495308 42.498491 C 41.05109 42.498491 41.527475 42.299998 41.911229 41.916243 C 42.308217 41.519256 42.493478 41.056104 42.493478 40.500321 L 42.493478 7.497436 C 42.493478 6.941653 42.308217 6.478501 41.911229 6.081514 C 41.527475 5.697759 41.05109 5.499266 40.495308 5.499266 Z M 40.495308 5.499266 " stroke="#000000" stroke-width="1" stroke-opacity="1" stroke-miterlimit="4"/></g><g clip-path="url(#1f78d1bd7e)"><path stroke-linecap="butt" transform="matrix(0.74782, 0, 0, 0.74782, 199.727475, 102.386151)" fill="none" stroke-linejoin="miter" d="M -0.00122022 0.000758883 L -0.00122022 15.436256 L 15.439501 15.436256 L 15.439501 0.000758883 L -0.00122022 0.000758883 " stroke="#000000" stroke-width="4" stroke-opacity="1" stroke-miterlimit="4"/></g><g clip-path="url(#532813d637)"><path fill="#ffffff" d="M 185.832031 138.050781 L 236.765625 138.050781 L 236.765625 177.140625 L 185.832031 177.140625 Z M 185.832031 138.050781 " fill-opacity="1" fill-rule="nonzero"/><path fill="#ffffff" d="M 185.832031 138.050781 L 236.765625 138.050781 L 236.765625 177.140625 L 185.832031 177.140625 Z M 185.832031 138.050781 " fill-opacity="1" fill-rule="nonzero"/></g><g clip-path="url(#c85cd43d8b)"><path stroke-linecap="butt" transform="matrix(0.808454, 0, 0, 0.814345, 181.336779, 138.050938)" fill="none" stroke-linejoin="miter" d="M -0.00104034 1.002339 L 74.122883 1.002339 " stroke="#000000" stroke-width="2" stroke-opacity="1" stroke-miterlimit="4"/></g><g clip-path="url(#bdd758fe85)"><path stroke-linecap="butt" transform="matrix(0.808454, 0, 0, 0.814345, 184.408915, 175.510791)" fill="none" stroke-linejoin="miter" d="M 0.00153488 0.998874 L 74.125458 0.998874 " stroke="#000000" stroke-width="2" stroke-opacity="1" stroke-miterlimit="4"/></g><g clip-path="url(#2e3e06820a)"><path stroke-linecap="butt" transform="matrix(0, 0.814345, -0.808454, 0, 187.450962, 138.865286)" fill="none" stroke-linejoin="miter" d="M 0.00233482 0.997498 L 47.999131 0.997498 " stroke="#000000" stroke-width="2" stroke-opacity="1" stroke-miterlimit="4"/></g><g clip-path="url(#8ccc5fbc33)"><path stroke-linecap="butt" transform="matrix(0, 0.814345, -0.808454, 0, 236.766652, 138.865286)" fill="none" stroke-linejoin="miter" d="M 0.00233482 1.001443 L 47.999131 1.001443 " stroke="#000000" stroke-width="2" stroke-opacity="1" stroke-miterlimit="4"/></g><g clip-path="url(#f8895ccd0d)"><path fill="#000000" d="M 215.59375 151.574219 C 215.179688 150.988281 214.605469 150.542969 213.867188 150.238281 C 213.140625 149.933594 212.296875 149.777344 211.339844 149.777344 C 210.472656 149.777344 209.679688 149.929688 208.960938 150.230469 C 208.246094 150.53125 207.667969 150.992188 207.230469 151.605469 C 206.882812 152.085938 206.667969 152.675781 206.582031 153.371094 C 206.542969 153.664062 206.785156 153.929688 207.09375 153.929688 L 209.015625 153.929688 C 209.265625 153.929688 209.472656 153.761719 209.523438 153.527344 C 209.570312 153.316406 209.652344 153.128906 209.761719 152.96875 C 209.9375 152.707031 210.167969 152.511719 210.445312 152.375 C 210.722656 152.246094 211.015625 152.175781 211.328125 152.175781 C 211.652344 152.175781 211.941406 152.238281 212.210938 152.375 C 212.476562 152.5 212.6875 152.695312 212.847656 152.9375 C 213.003906 153.183594 213.085938 153.464844 213.085938 153.789062 C 213.085938 154.09375 213.011719 154.371094 212.875 154.617188 C 212.734375 154.859375 212.546875 155.085938 212.316406 155.289062 C 212.078125 155.492188 211.816406 155.683594 211.519531 155.871094 C 211.121094 156.117188 210.777344 156.386719 210.496094 156.6875 C 210.214844 156.988281 210.003906 157.378906 209.851562 157.867188 C 209.710938 158.359375 209.632812 159.011719 209.628906 159.828125 L 209.628906 160.238281 C 209.628906 160.519531 209.859375 160.75 210.148438 160.75 L 211.839844 160.75 C 212.125 160.75 212.359375 160.523438 212.359375 160.238281 L 212.359375 159.828125 C 212.363281 159.371094 212.421875 158.984375 212.539062 158.671875 C 212.65625 158.359375 212.839844 158.082031 213.078125 157.839844 C 213.320312 157.601562 213.628906 157.375 214.007812 157.152344 C 214.460938 156.886719 214.851562 156.59375 215.179688 156.269531 C 215.507812 155.941406 215.769531 155.566406 215.953125 155.140625 C 216.140625 154.714844 216.234375 154.226562 216.234375 153.679688 C 216.222656 152.855469 216.011719 152.152344 215.59375 151.574219 Z M 215.59375 151.574219 " fill-opacity="1" fill-rule="nonzero"/></g><g clip-path="url(#2518959bad)"><path fill="#000000" d="M 211.046875 161.886719 C 210.566406 161.886719 210.15625 162.046875 209.816406 162.378906 C 209.480469 162.707031 209.3125 163.101562 209.320312 163.5625 C 209.3125 164.023438 209.480469 164.425781 209.816406 164.753906 C 210.15625 165.085938 210.566406 165.246094 211.046875 165.246094 C 211.351562 165.246094 211.636719 165.175781 211.890625 165.019531 C 212.148438 164.863281 212.359375 164.664062 212.523438 164.40625 C 212.683594 164.148438 212.765625 163.871094 212.769531 163.5625 C 212.761719 163.097656 212.585938 162.707031 212.242188 162.378906 C 211.898438 162.046875 211.5 161.886719 211.046875 161.886719 Z M 211.046875 161.886719 " fill-opacity="1" fill-rule="nonzero"/></g></svg>