<svg xmlns="http://www.w3.org/2000/svg" xmlns:xlink="http://www.w3.org/1999/xlink" width="343" zoomAndPan="magnify" viewBox="0 0 257.25 186.749995" height="249" preserveAspectRatio="xMidYMid meet" version="1.0"><defs><clipPath id="dc4f181591"><path d="M 29.667969 10.460938 L 53.597656 10.460938 L 53.597656 53.085938 L 29.667969 53.085938 Z M 29.667969 10.460938 " clip-rule="nonzero"/></clipPath><clipPath id="8a111c6d6e"><path d="M 0.796875 1 L 24.597656 1 L 24.597656 42.695312 L 0.796875 42.695312 Z M 0.796875 1 " clip-rule="nonzero"/></clipPath><clipPath id="79cf94a894"><rect x="0" width="25" y="0" height="44"/></clipPath><clipPath id="19a688a5e4"><path d="M 0 0.148438 L 256.503906 0.148438 L 256.503906 4 L 0 4 Z M 0 0.148438 " clip-rule="nonzero"/></clipPath><clipPath id="6f822f6a23"><path d="M 0 60 L 256.503906 60 L 256.503906 64 L 0 64 Z M 0 60 " clip-rule="nonzero"/></clipPath><clipPath id="d57b450ff3"><path d="M 0 125 L 256.503906 125 L 256.503906 129 L 0 129 Z M 0 125 " clip-rule="nonzero"/></clipPath><clipPath id="930a184494"><path d="M 0 183 L 256.503906 183 L 256.503906 186.355469 L 0 186.355469 Z M 0 183 " clip-rule="nonzero"/></clipPath><clipPath id="d6f2e7e1d8"><path d="M 80 0.148438 L 84 0.148438 L 84 186.355469 L 80 186.355469 Z M 80 0.148438 " clip-rule="nonzero"/></clipPath><clipPath id="e83117e8e9"><path d="M 164 0.148438 L 168 0.148438 L 168 186.355469 L 164 186.355469 Z M 164 0.148438 " clip-rule="nonzero"/></clipPath><clipPath id="d1ba87d920"><path d="M 0 0.148438 L 3 0.148438 L 3 186.355469 L 0 186.355469 Z M 0 0.148438 " clip-rule="nonzero"/></clipPath><clipPath id="59e1ef2d13"><path d="M 253 0.148438 L 256.503906 0.148438 L 256.503906 186.355469 L 253 186.355469 Z M 253 0.148438 " clip-rule="nonzero"/></clipPath><clipPath id="aa92215a52"><path d="M 102.609375 19.722656 L 145.234375 19.722656 L 145.234375 43.652344 L 102.609375 43.652344 Z M 102.609375 19.722656 " clip-rule="nonzero"/></clipPath><clipPath id="93b3c339ab"><path d="M 1 0.722656 L 42.84375 0.722656 L 42.84375 24.523438 L 1 24.523438 Z M 1 0.722656 " clip-rule="nonzero"/></clipPath><clipPath id="19c68ba00a"><rect x="0" width="44" y="0" height="25"/></clipPath><clipPath id="ab7e21d2ae"><path d="M 198.480469 10.15625 L 222.410156 10.15625 L 222.410156 52.785156 L 198.480469 52.785156 Z M 198.480469 10.15625 " clip-rule="nonzero"/></clipPath><clipPath id="fa8569b449"><path d="M 0.480469 0.550781 L 24.28125 0.550781 L 24.28125 42 L 0.480469 42 Z M 0.480469 0.550781 " clip-rule="nonzero"/></clipPath><clipPath id="ef9de27c1e"><rect x="0" width="25" y="0" height="43"/></clipPath><clipPath id="3ba8552c11"><path d="M 190 82.640625 L 231.433594 82.640625 L 231.433594 106.570312 L 190 106.570312 Z M 190 82.640625 " clip-rule="nonzero"/></clipPath><clipPath id="3f4447239c"><path d="M 111.742188 74 L 135.671875 74 L 135.671875 115.59375 L 111.742188 115.59375 Z M 111.742188 74 " clip-rule="nonzero"/></clipPath><clipPath id="11498e3388"><path d="M 18.621094 82.640625 L 61.25 82.640625 L 61.25 106.570312 L 18.621094 106.570312 Z M 18.621094 82.640625 " clip-rule="nonzero"/></clipPath><clipPath id="4d4d25b417"><path d="M 0.710938 0.640625 L 43 0.640625 L 43 24.441406 L 0.710938 24.441406 Z M 0.710938 0.640625 " clip-rule="nonzero"/></clipPath><clipPath id="db2d9de645"><rect x="0" width="44" y="0" height="25"/></clipPath><clipPath id="21ddf96700"><path d="M 27.882812 136.148438 L 51.8125 136.148438 L 51.8125 178.773438 L 27.882812 178.773438 Z M 27.882812 136.148438 " clip-rule="nonzero"/></clipPath><clipPath id="6b11c4109e"><path d="M 0.882812 0.539062 L 24.683594 0.539062 L 24.683594 42 L 0.882812 42 Z M 0.882812 0.539062 " clip-rule="nonzero"/></clipPath><clipPath id="bb8b34d2b9"><rect x="0" width="25" y="0" height="43"/></clipPath><clipPath id="4c32bf4b54"><path d="M 102.609375 144.265625 L 145.234375 144.265625 L 145.234375 168.195312 L 102.609375 168.195312 Z M 102.609375 144.265625 " clip-rule="nonzero"/></clipPath><clipPath id="0633643994"><path d="M 0.71875 0.265625 L 43 0.265625 L 43 24.195312 L 0.71875 24.195312 Z M 0.71875 0.265625 " clip-rule="nonzero"/></clipPath><clipPath id="f365cd6653"><rect x="0" width="44" y="0" height="25"/></clipPath><clipPath id="d93b8a0c16"><path d="M 189.5 139.09375 L 236.792969 139.09375 L 236.792969 175.28125 L 189.5 175.28125 Z M 189.5 139.09375 " clip-rule="nonzero"/></clipPath><clipPath id="30007a08c9"><path d="M 189.5 139.09375 L 236.792969 139.09375 L 236.792969 141 L 189.5 141 Z M 189.5 139.09375 " clip-rule="nonzero"/></clipPath><clipPath id="d1f11919ee"><path d="M 189.5 173.1875 L 236.792969 173.1875 L 236.792969 175.28125 L 189.5 175.28125 Z M 189.5 173.1875 " clip-rule="nonzero"/></clipPath><clipPath id="00c47bb9a5"><path d="M 189.5 139.09375 L 191 139.09375 L 191 175.28125 L 189.5 175.28125 Z M 189.5 139.09375 " clip-rule="nonzero"/></clipPath><clipPath id="e26d7270bc"><path d="M 235 139.09375 L 236.792969 139.09375 L 236.792969 175.28125 L 235 175.28125 Z M 235 139.09375 " clip-rule="nonzero"/></clipPath><clipPath id="26e99185e4"><path d="M 208.722656 149.949219 L 217.734375 149.949219 L 217.734375 160.789062 L 208.722656 160.789062 Z M 208.722656 149.949219 " clip-rule="nonzero"/></clipPath><clipPath id="4aa61c49f6"><path d="M 211 161 L 214.9375 161 L 214.9375 164.273438 L 211 164.273438 Z M 211 161 " clip-rule="nonzero"/></clipPath></defs><g clip-path="url(#dc4f181591)"><g transform="matrix(1, 0, 0, 1, 29, 10)"><g clip-path="url(#79cf94a894)"><g clip-path="url(#8a111c6d6e)"><path fill="#000000" d="M 13.164062 33.597656 L 23.542969 41.210938 L 13.164062 4.683594 Z M 0.824219 42.117188 L 12.34375 1.574219 C 12.34375 1.574219 12.34375 1.570312 12.34375 1.570312 C 12.351562 1.550781 12.359375 1.53125 12.367188 1.511719 C 12.367188 1.511719 12.371094 1.507812 12.371094 1.503906 C 12.378906 1.484375 12.390625 1.46875 12.402344 1.453125 C 12.402344 1.449219 12.402344 1.449219 12.40625 1.445312 C 12.417969 1.429688 12.429688 1.417969 12.441406 1.402344 C 12.441406 1.402344 12.445312 1.398438 12.445312 1.394531 C 12.460938 1.382812 12.472656 1.371094 12.488281 1.359375 C 12.492188 1.355469 12.496094 1.351562 12.5 1.351562 C 12.515625 1.339844 12.53125 1.328125 12.550781 1.320312 C 12.550781 1.316406 12.550781 1.316406 12.550781 1.316406 C 12.570312 1.308594 12.585938 1.300781 12.605469 1.292969 C 12.609375 1.292969 12.613281 1.292969 12.613281 1.289062 C 12.632812 1.285156 12.652344 1.28125 12.671875 1.277344 C 12.675781 1.277344 12.679688 1.273438 12.683594 1.273438 C 12.703125 1.269531 12.722656 1.269531 12.746094 1.269531 C 12.765625 1.269531 12.785156 1.269531 12.808594 1.273438 C 12.8125 1.273438 12.816406 1.277344 12.820312 1.277344 C 12.839844 1.28125 12.859375 1.285156 12.875 1.289062 C 12.878906 1.292969 12.882812 1.292969 12.882812 1.292969 C 12.902344 1.300781 12.921875 1.308594 12.9375 1.316406 C 12.9375 1.316406 12.941406 1.316406 12.941406 1.320312 C 12.960938 1.328125 12.976562 1.339844 12.992188 1.351562 C 12.996094 1.351562 12.996094 1.355469 13 1.359375 C 13.015625 1.371094 13.03125 1.382812 13.042969 1.394531 C 13.046875 1.398438 13.046875 1.402344 13.050781 1.402344 C 13.0625 1.417969 13.074219 1.429688 13.085938 1.445312 C 13.085938 1.449219 13.089844 1.449219 13.089844 1.453125 C 13.101562 1.46875 13.109375 1.484375 13.121094 1.503906 C 13.121094 1.507812 13.121094 1.511719 13.125 1.511719 C 13.132812 1.53125 13.140625 1.550781 13.144531 1.570312 C 13.144531 1.570312 13.144531 1.574219 13.148438 1.574219 L 24.675781 42.152344 C 24.726562 42.324219 24.660156 42.507812 24.515625 42.613281 C 24.441406 42.660156 24.359375 42.6875 24.277344 42.6875 C 24.1875 42.6875 24.101562 42.660156 24.03125 42.605469 L 12.746094 34.328125 L 1.460938 42.605469 C 1.386719 42.660156 1.300781 42.6875 1.214844 42.6875 C 0.984375 42.683594 0.796875 42.5 0.796875 42.269531 C 0.796875 42.214844 0.804688 42.164062 0.824219 42.117188 " fill-opacity="1" fill-rule="nonzero"/></g></g></g></g><g clip-path="url(#19a688a5e4)"><path stroke-linecap="butt" transform="matrix(0.74782, 0, 0, 0.74782, -9.838022, 0.1468)" fill="none" stroke-linejoin="miter" d="M -0.00243562 1.997574 L 375.31257 1.997574 " stroke="#000000" stroke-width="4" stroke-opacity="1" stroke-miterlimit="4"/></g><g clip-path="url(#6f822f6a23)"><path stroke-linecap="butt" transform="matrix(0.74782, 0.000000000000000029, -0.000000000000000029, 0.74782, -9.226357, 60.113854)" fill="none" stroke-linejoin="miter" d="M -0.00027542 1.999841 L 360.960502 1.999841 " stroke="#000000" stroke-width="4" stroke-opacity="1" stroke-miterlimit="4"/></g><g clip-path="url(#d57b450ff3)"><path stroke-linecap="butt" transform="matrix(0.74782, 0, 0, 0.74782, -15.373313, 125.981857)" fill="none" stroke-linejoin="miter" d="M -0.0022553 1.998751 L 375.312751 1.998751 " stroke="#000000" stroke-width="4" stroke-opacity="1" stroke-miterlimit="4"/></g><g clip-path="url(#930a184494)"><path stroke-linecap="butt" transform="matrix(0.74782, 0, 0, 0.74782, -12.082472, 183.362635)" fill="none" stroke-linejoin="miter" d="M 0.000589419 2.001471 L 375.315595 2.001471 " stroke="#000000" stroke-width="4" stroke-opacity="1" stroke-miterlimit="4"/></g><g clip-path="url(#d6f2e7e1d8)"><path stroke-linecap="butt" transform="matrix(0, -0.74782, 0.74782, 0, 80.404219, 190.014199)" fill="none" stroke-linejoin="miter" d="M -0.00190738 1.9981 L 253.897642 1.9981 " stroke="#000000" stroke-width="4" stroke-opacity="1" stroke-miterlimit="4"/></g><g clip-path="url(#e83117e8e9)"><path stroke-linecap="butt" transform="matrix(0, -0.74782, 0.74782, 0, 164.143453, 188.182567)" fill="none" stroke-linejoin="miter" d="M -0.00137335 2.00205 L 253.898176 2.00205 " stroke="#000000" stroke-width="4" stroke-opacity="1" stroke-miterlimit="4"/></g><g clip-path="url(#d1ba87d920)"><path stroke-linecap="butt" transform="matrix(0, -0.74782, 0.74782, 0, -0.00297822, 191.88746)" fill="none" stroke-linejoin="miter" d="M 0.000990604 1.999366 L 253.90054 1.999366 " stroke="#000000" stroke-width="4" stroke-opacity="1" stroke-miterlimit="4"/></g><g clip-path="url(#59e1ef2d13)"><path stroke-linecap="butt" transform="matrix(0, -0.74782, 0.74782, 0, 253.62248, 191.509838)" fill="none" stroke-linejoin="miter" d="M -0.00251485 1.998754 L 253.897034 1.998754 " stroke="#000000" stroke-width="4" stroke-opacity="1" stroke-miterlimit="4"/></g><g clip-path="url(#aa92215a52)"><g transform="matrix(1, 0, 0, 1, 102, 19)"><g clip-path="url(#19c68ba00a)"><g clip-path="url(#93b3c339ab)"><path fill="#000000" d="M 33.746094 12.15625 L 41.359375 1.777344 L 4.832031 12.15625 Z M 42.265625 24.496094 L 1.722656 12.976562 C 1.722656 12.976562 1.71875 12.976562 1.71875 12.976562 C 1.699219 12.96875 1.679688 12.960938 1.660156 12.953125 C 1.65625 12.953125 1.65625 12.949219 1.652344 12.949219 C 1.632812 12.941406 1.617188 12.929688 1.601562 12.917969 C 1.597656 12.917969 1.597656 12.917969 1.59375 12.914062 C 1.578125 12.902344 1.566406 12.890625 1.550781 12.878906 C 1.550781 12.878906 1.546875 12.875 1.542969 12.875 C 1.53125 12.859375 1.515625 12.847656 1.503906 12.832031 C 1.503906 12.828125 1.5 12.824219 1.5 12.820312 C 1.488281 12.804688 1.476562 12.789062 1.464844 12.769531 C 1.457031 12.75 1.449219 12.734375 1.441406 12.714844 C 1.441406 12.710938 1.441406 12.707031 1.4375 12.707031 C 1.433594 12.6875 1.429688 12.667969 1.425781 12.648438 C 1.425781 12.644531 1.421875 12.640625 1.421875 12.636719 C 1.417969 12.617188 1.417969 12.597656 1.417969 12.574219 C 1.417969 12.554688 1.417969 12.53125 1.421875 12.511719 C 1.421875 12.507812 1.425781 12.503906 1.425781 12.5 C 1.429688 12.480469 1.433594 12.460938 1.4375 12.445312 C 1.441406 12.441406 1.441406 12.4375 1.441406 12.4375 C 1.449219 12.417969 1.457031 12.398438 1.464844 12.382812 C 1.464844 12.382812 1.464844 12.378906 1.464844 12.378906 C 1.476562 12.359375 1.488281 12.34375 1.5 12.328125 C 1.5 12.324219 1.503906 12.324219 1.503906 12.320312 C 1.515625 12.304688 1.53125 12.289062 1.542969 12.277344 C 1.546875 12.273438 1.550781 12.273438 1.550781 12.269531 C 1.566406 12.257812 1.578125 12.246094 1.59375 12.234375 C 1.597656 12.234375 1.597656 12.230469 1.601562 12.230469 C 1.617188 12.21875 1.632812 12.210938 1.652344 12.199219 C 1.65625 12.199219 1.65625 12.199219 1.660156 12.195312 C 1.679688 12.1875 1.699219 12.179688 1.71875 12.175781 C 1.71875 12.175781 1.722656 12.175781 1.722656 12.171875 L 42.300781 0.644531 C 42.472656 0.59375 42.65625 0.660156 42.761719 0.804688 C 42.808594 0.878906 42.835938 0.960938 42.835938 1.042969 C 42.835938 1.132812 42.808594 1.21875 42.753906 1.289062 L 34.476562 12.574219 L 42.753906 23.859375 C 42.808594 23.933594 42.835938 24.019531 42.835938 24.105469 C 42.832031 24.335938 42.648438 24.523438 42.414062 24.523438 C 42.363281 24.523438 42.3125 24.515625 42.265625 24.496094 " fill-opacity="1" fill-rule="nonzero"/></g></g></g></g><g clip-path="url(#ab7e21d2ae)"><g transform="matrix(1, 0, 0, 1, 198, 10)"><g clip-path="url(#ef9de27c1e)"><g clip-path="url(#fa8569b449)"><path fill="#000000" d="M 11.914062 9.648438 L 1.535156 2.035156 L 11.914062 38.5625 Z M 24.253906 1.128906 L 12.734375 41.671875 C 12.734375 41.671875 12.734375 41.671875 12.734375 41.675781 C 12.726562 41.695312 12.71875 41.714844 12.710938 41.730469 C 12.710938 41.734375 12.707031 41.738281 12.707031 41.742188 C 12.699219 41.757812 12.6875 41.777344 12.675781 41.792969 C 12.675781 41.796875 12.675781 41.796875 12.671875 41.800781 C 12.660156 41.8125 12.648438 41.828125 12.636719 41.84375 C 12.636719 41.84375 12.632812 41.847656 12.632812 41.847656 C 12.617188 41.863281 12.601562 41.875 12.589844 41.886719 C 12.585938 41.890625 12.582031 41.890625 12.578125 41.894531 C 12.5625 41.90625 12.546875 41.917969 12.527344 41.925781 C 12.527344 41.925781 12.527344 41.925781 12.523438 41.929688 C 12.507812 41.9375 12.488281 41.945312 12.472656 41.953125 C 12.46875 41.953125 12.464844 41.953125 12.464844 41.953125 C 12.445312 41.960938 12.425781 41.964844 12.40625 41.96875 C 12.402344 41.96875 12.398438 41.96875 12.394531 41.972656 C 12.375 41.972656 12.351562 41.976562 12.332031 41.976562 C 12.3125 41.976562 12.289062 41.972656 12.269531 41.972656 C 12.265625 41.96875 12.261719 41.96875 12.257812 41.96875 C 12.238281 41.964844 12.21875 41.960938 12.203125 41.953125 C 12.199219 41.953125 12.195312 41.953125 12.191406 41.953125 C 12.175781 41.945312 12.15625 41.9375 12.140625 41.929688 C 12.136719 41.925781 12.136719 41.925781 12.136719 41.925781 C 12.117188 41.917969 12.101562 41.90625 12.085938 41.894531 C 12.082031 41.890625 12.078125 41.890625 12.078125 41.886719 C 12.0625 41.875 12.046875 41.863281 12.035156 41.847656 C 12.03125 41.847656 12.03125 41.84375 12.027344 41.84375 C 12.015625 41.828125 12.003906 41.8125 11.992188 41.800781 C 11.992188 41.796875 11.988281 41.796875 11.988281 41.792969 C 11.976562 41.777344 11.96875 41.757812 11.957031 41.742188 C 11.957031 41.738281 11.957031 41.734375 11.953125 41.730469 C 11.945312 41.714844 11.9375 41.695312 11.933594 41.675781 C 11.933594 41.671875 11.929688 41.671875 11.929688 41.671875 L 0.402344 1.09375 C 0.351562 0.921875 0.417969 0.734375 0.5625 0.632812 C 0.636719 0.582031 0.71875 0.558594 0.800781 0.558594 C 0.886719 0.558594 0.976562 0.585938 1.046875 0.640625 L 12.332031 8.914062 L 23.617188 0.640625 C 23.691406 0.585938 23.777344 0.558594 23.863281 0.558594 C 24.09375 0.5625 24.28125 0.746094 24.28125 0.976562 C 24.28125 1.03125 24.273438 1.082031 24.253906 1.128906 " fill-opacity="1" fill-rule="nonzero"/></g></g></g></g><g clip-path="url(#3ba8552c11)"><path fill="#000000" d="M 222.335938 95.003906 L 229.949219 105.382812 L 193.421875 95.003906 Z M 230.855469 82.664062 L 190.308594 94.1875 C 190.289062 94.195312 190.269531 94.199219 190.25 94.210938 C 190.246094 94.210938 190.242188 94.210938 190.242188 94.214844 C 190.222656 94.222656 190.203125 94.234375 190.1875 94.242188 C 190.1875 94.246094 190.183594 94.246094 190.183594 94.246094 C 190.167969 94.257812 190.152344 94.269531 190.140625 94.28125 C 190.136719 94.285156 190.136719 94.285156 190.132812 94.289062 C 190.117188 94.300781 190.105469 94.316406 190.09375 94.332031 C 190.09375 94.335938 190.089844 94.339844 190.085938 94.339844 C 190.074219 94.359375 190.066406 94.375 190.054688 94.390625 C 190.054688 94.394531 190.054688 94.394531 190.054688 94.394531 C 190.042969 94.414062 190.039062 94.429688 190.03125 94.449219 C 190.03125 94.453125 190.027344 94.453125 190.027344 94.457031 C 190.019531 94.476562 190.015625 94.496094 190.011719 94.515625 C 190.011719 94.519531 190.011719 94.523438 190.011719 94.527344 C 190.007812 94.546875 190.007812 94.566406 190.007812 94.585938 C 190.007812 94.609375 190.007812 94.628906 190.011719 94.648438 C 190.011719 94.652344 190.011719 94.65625 190.011719 94.660156 C 190.015625 94.679688 190.019531 94.699219 190.027344 94.71875 C 190.027344 94.722656 190.03125 94.722656 190.03125 94.726562 C 190.039062 94.746094 190.042969 94.761719 190.054688 94.78125 C 190.054688 94.78125 190.054688 94.78125 190.054688 94.785156 C 190.066406 94.800781 190.074219 94.816406 190.085938 94.832031 C 190.089844 94.835938 190.09375 94.839844 190.09375 94.84375 C 190.105469 94.859375 190.117188 94.871094 190.132812 94.886719 C 190.136719 94.886719 190.136719 94.890625 190.140625 94.894531 C 190.152344 94.90625 190.167969 94.917969 190.183594 94.929688 C 190.183594 94.929688 190.1875 94.929688 190.1875 94.933594 C 190.203125 94.941406 190.222656 94.953125 190.242188 94.960938 C 190.242188 94.964844 190.246094 94.964844 190.25 94.964844 C 190.269531 94.976562 190.289062 94.980469 190.308594 94.988281 L 230.890625 106.519531 C 231.0625 106.566406 231.246094 106.503906 231.347656 106.355469 C 231.398438 106.285156 231.421875 106.203125 231.421875 106.117188 C 231.421875 106.03125 231.398438 105.945312 231.34375 105.871094 L 223.066406 94.585938 L 231.34375 83.304688 C 231.398438 83.230469 231.421875 83.144531 231.421875 83.058594 C 231.421875 82.824219 231.238281 82.640625 231.003906 82.640625 C 230.953125 82.640625 230.902344 82.648438 230.855469 82.664062 " fill-opacity="1" fill-rule="nonzero"/></g><g clip-path="url(#3f4447239c)"><path fill="#000000" d="M 123.304688 106.496094 L 112.925781 114.109375 L 123.304688 77.582031 Z M 135.644531 115.015625 L 124.125 74.46875 C 124.117188 74.449219 124.109375 74.429688 124.101562 74.410156 C 124.101562 74.40625 124.097656 74.402344 124.097656 74.402344 C 124.089844 74.382812 124.078125 74.363281 124.066406 74.347656 C 124.066406 74.347656 124.066406 74.34375 124.0625 74.34375 C 124.050781 74.328125 124.039062 74.3125 124.027344 74.300781 C 124.027344 74.296875 124.023438 74.296875 124.023438 74.292969 C 124.007812 74.277344 123.992188 74.265625 123.980469 74.253906 C 123.976562 74.253906 123.972656 74.25 123.96875 74.246094 C 123.953125 74.234375 123.9375 74.226562 123.917969 74.214844 C 123.917969 74.214844 123.917969 74.214844 123.914062 74.214844 C 123.898438 74.203125 123.882812 74.199219 123.863281 74.191406 C 123.859375 74.191406 123.855469 74.1875 123.855469 74.1875 C 123.835938 74.179688 123.816406 74.175781 123.796875 74.171875 C 123.792969 74.171875 123.789062 74.171875 123.785156 74.171875 C 123.765625 74.167969 123.746094 74.167969 123.722656 74.167969 C 123.703125 74.167969 123.679688 74.167969 123.660156 74.171875 C 123.65625 74.171875 123.652344 74.171875 123.648438 74.171875 C 123.628906 74.175781 123.609375 74.179688 123.59375 74.1875 C 123.589844 74.1875 123.585938 74.191406 123.585938 74.191406 C 123.566406 74.199219 123.546875 74.203125 123.53125 74.214844 C 123.53125 74.214844 123.527344 74.214844 123.527344 74.214844 C 123.507812 74.226562 123.492188 74.234375 123.476562 74.246094 C 123.472656 74.25 123.472656 74.253906 123.46875 74.253906 C 123.453125 74.265625 123.4375 74.277344 123.425781 74.292969 C 123.421875 74.296875 123.421875 74.296875 123.417969 74.300781 C 123.40625 74.3125 123.394531 74.328125 123.382812 74.34375 C 123.382812 74.34375 123.378906 74.347656 123.378906 74.347656 C 123.367188 74.363281 123.359375 74.382812 123.347656 74.402344 C 123.347656 74.402344 123.347656 74.40625 123.34375 74.410156 C 123.335938 74.429688 123.328125 74.449219 123.324219 74.46875 C 123.324219 74.46875 123.320312 74.46875 123.320312 74.46875 L 111.792969 115.050781 C 111.742188 115.222656 111.808594 115.40625 111.953125 115.507812 C 112.027344 115.558594 112.109375 115.582031 112.191406 115.582031 C 112.28125 115.582031 112.367188 115.558594 112.4375 115.503906 L 123.722656 107.226562 L 135.007812 115.503906 C 135.082031 115.554688 135.167969 115.582031 135.253906 115.582031 C 135.484375 115.582031 135.671875 115.398438 135.671875 115.164062 C 135.671875 115.113281 135.664062 115.0625 135.644531 115.015625 " fill-opacity="1" fill-rule="nonzero"/></g><g clip-path="url(#11498e3388)"><g transform="matrix(1, 0, 0, 1, 18, 82)"><g clip-path="url(#db2d9de645)"><g clip-path="url(#4d4d25b417)"><path fill="#000000" d="M 9.808594 12.074219 L 2.195312 1.695312 L 38.722656 12.074219 Z M 1.289062 24.414062 L 41.832031 12.894531 C 41.832031 12.894531 41.835938 12.894531 41.835938 12.894531 C 41.855469 12.886719 41.875 12.878906 41.894531 12.871094 C 41.894531 12.871094 41.898438 12.867188 41.902344 12.867188 C 41.921875 12.859375 41.9375 12.847656 41.953125 12.835938 C 41.957031 12.835938 41.957031 12.832031 41.960938 12.832031 C 41.976562 12.820312 41.988281 12.808594 42.003906 12.796875 C 42.003906 12.796875 42.007812 12.792969 42.011719 12.792969 C 42.023438 12.777344 42.035156 12.761719 42.046875 12.75 C 42.050781 12.746094 42.054688 12.742188 42.054688 12.738281 C 42.066406 12.722656 42.078125 12.707031 42.085938 12.6875 C 42.089844 12.6875 42.089844 12.6875 42.089844 12.683594 C 42.097656 12.667969 42.105469 12.648438 42.113281 12.632812 C 42.113281 12.628906 42.113281 12.625 42.113281 12.625 C 42.121094 12.605469 42.125 12.585938 42.128906 12.566406 C 42.128906 12.5625 42.132812 12.558594 42.132812 12.554688 C 42.132812 12.535156 42.136719 12.511719 42.136719 12.492188 C 42.136719 12.472656 42.132812 12.449219 42.132812 12.429688 C 42.132812 12.425781 42.128906 12.421875 42.128906 12.417969 C 42.125 12.398438 42.121094 12.378906 42.113281 12.359375 C 42.113281 12.359375 42.113281 12.355469 42.113281 12.351562 C 42.105469 12.335938 42.097656 12.316406 42.089844 12.300781 C 42.089844 12.296875 42.089844 12.296875 42.085938 12.296875 C 42.078125 12.277344 42.066406 12.261719 42.054688 12.246094 C 42.054688 12.242188 42.050781 12.238281 42.046875 12.238281 C 42.035156 12.222656 42.023438 12.207031 42.011719 12.195312 C 42.007812 12.191406 42.003906 12.191406 42.003906 12.1875 C 41.988281 12.175781 41.976562 12.164062 41.960938 12.152344 C 41.957031 12.152344 41.957031 12.148438 41.953125 12.148438 C 41.9375 12.136719 41.921875 12.128906 41.902344 12.117188 C 41.898438 12.117188 41.894531 12.117188 41.894531 12.113281 C 41.875 12.105469 41.855469 12.097656 41.835938 12.09375 C 41.835938 12.09375 41.832031 12.089844 41.832031 12.089844 L 1.253906 0.5625 C 1.082031 0.511719 0.898438 0.578125 0.792969 0.722656 C 0.746094 0.796875 0.71875 0.878906 0.71875 0.960938 C 0.71875 1.046875 0.746094 1.136719 0.800781 1.207031 L 9.078125 12.492188 L 0.800781 23.777344 C 0.746094 23.851562 0.71875 23.9375 0.71875 24.023438 C 0.722656 24.253906 0.90625 24.441406 1.136719 24.441406 C 1.191406 24.441406 1.242188 24.433594 1.289062 24.414062 " fill-opacity="1" fill-rule="nonzero"/></g></g></g></g><g clip-path="url(#21ddf96700)"><g transform="matrix(1, 0, 0, 1, 27, 136)"><g clip-path="url(#bb8b34d2b9)"><g clip-path="url(#6b11c4109e)"><path fill="#000000" d="M 12.320312 9.636719 L 1.941406 2.023438 L 12.320312 38.550781 Z M 24.65625 1.117188 L 13.136719 41.660156 C 13.136719 41.664062 13.136719 41.664062 13.136719 41.664062 C 13.128906 41.683594 13.125 41.703125 13.113281 41.722656 C 13.113281 41.726562 13.113281 41.726562 13.109375 41.730469 C 13.101562 41.75 13.089844 41.765625 13.078125 41.785156 C 13.078125 41.785156 13.078125 41.785156 13.074219 41.789062 C 13.066406 41.804688 13.054688 41.816406 13.039062 41.832031 C 13.039062 41.832031 13.035156 41.835938 13.035156 41.839844 C 13.019531 41.851562 13.007812 41.867188 12.992188 41.878906 C 12.988281 41.878906 12.984375 41.882812 12.980469 41.882812 C 12.964844 41.894531 12.949219 41.90625 12.933594 41.917969 C 12.929688 41.917969 12.929688 41.917969 12.929688 41.917969 C 12.910156 41.925781 12.894531 41.933594 12.875 41.941406 C 12.871094 41.941406 12.871094 41.941406 12.867188 41.945312 C 12.847656 41.949219 12.828125 41.957031 12.808594 41.957031 C 12.804688 41.960938 12.800781 41.960938 12.796875 41.960938 C 12.777344 41.964844 12.757812 41.964844 12.734375 41.964844 C 12.714844 41.964844 12.695312 41.964844 12.671875 41.960938 C 12.671875 41.960938 12.667969 41.960938 12.664062 41.957031 C 12.644531 41.957031 12.625 41.949219 12.605469 41.945312 C 12.601562 41.941406 12.597656 41.941406 12.597656 41.941406 C 12.578125 41.933594 12.558594 41.925781 12.542969 41.917969 C 12.542969 41.917969 12.539062 41.917969 12.539062 41.917969 C 12.523438 41.90625 12.503906 41.894531 12.488281 41.882812 C 12.488281 41.882812 12.484375 41.878906 12.480469 41.878906 C 12.464844 41.867188 12.449219 41.851562 12.4375 41.839844 C 12.433594 41.835938 12.433594 41.832031 12.429688 41.832031 C 12.417969 41.816406 12.40625 41.804688 12.394531 41.789062 C 12.394531 41.785156 12.394531 41.785156 12.390625 41.785156 C 12.378906 41.765625 12.371094 41.75 12.363281 41.730469 C 12.359375 41.726562 12.359375 41.726562 12.355469 41.722656 C 12.347656 41.703125 12.339844 41.683594 12.335938 41.664062 C 12.335938 41.664062 12.335938 41.664062 12.335938 41.660156 L 0.804688 1.082031 C 0.753906 0.910156 0.820312 0.726562 0.96875 0.625 C 1.039062 0.574219 1.121094 0.546875 1.207031 0.546875 C 1.292969 0.546875 1.378906 0.574219 1.453125 0.628906 L 12.734375 8.90625 L 24.019531 0.628906 C 24.09375 0.574219 24.179688 0.546875 24.265625 0.546875 C 24.5 0.550781 24.683594 0.734375 24.683594 0.96875 C 24.683594 1.019531 24.675781 1.070312 24.65625 1.117188 " fill-opacity="1" fill-rule="nonzero"/></g></g></g></g><g clip-path="url(#4c32bf4b54)"><g transform="matrix(1, 0, 0, 1, 102, 144)"><g clip-path="url(#f365cd6653)"><g clip-path="url(#0633643994)"><path fill="#000000" d="M 9.816406 12.628906 L 2.203125 23.007812 L 38.730469 12.628906 Z M 1.292969 0.289062 L 41.839844 11.8125 C 41.839844 11.8125 41.839844 11.8125 41.84375 11.8125 C 41.863281 11.816406 41.882812 11.824219 41.898438 11.832031 C 41.902344 11.835938 41.90625 11.835938 41.910156 11.839844 C 41.925781 11.847656 41.945312 11.855469 41.960938 11.867188 C 41.964844 11.871094 41.964844 11.871094 41.96875 11.871094 C 41.980469 11.882812 41.996094 11.894531 42.007812 11.90625 C 42.011719 11.910156 42.015625 11.910156 42.015625 11.914062 C 42.03125 11.925781 42.042969 11.941406 42.054688 11.957031 C 42.058594 11.960938 42.058594 11.964844 42.0625 11.964844 C 42.074219 11.980469 42.085938 12 42.09375 12.015625 C 42.09375 12.015625 42.09375 12.019531 42.09375 12.019531 C 42.105469 12.035156 42.113281 12.054688 42.117188 12.074219 C 42.121094 12.074219 42.121094 12.078125 42.121094 12.082031 C 42.128906 12.101562 42.132812 12.121094 42.136719 12.140625 C 42.136719 12.140625 42.136719 12.144531 42.136719 12.148438 C 42.140625 12.171875 42.144531 12.191406 42.144531 12.210938 C 42.144531 12.234375 42.140625 12.253906 42.136719 12.273438 C 42.136719 12.277344 42.136719 12.28125 42.136719 12.285156 C 42.132812 12.304688 42.128906 12.324219 42.121094 12.34375 C 42.121094 12.347656 42.121094 12.347656 42.117188 12.351562 C 42.113281 12.371094 42.105469 12.386719 42.09375 12.40625 C 42.09375 12.40625 42.09375 12.40625 42.09375 12.410156 C 42.085938 12.425781 42.074219 12.441406 42.0625 12.457031 C 42.058594 12.460938 42.058594 12.464844 42.054688 12.46875 C 42.042969 12.484375 42.03125 12.496094 42.015625 12.511719 C 42.015625 12.511719 42.011719 12.515625 42.007812 12.515625 C 41.996094 12.53125 41.980469 12.542969 41.96875 12.550781 C 41.964844 12.554688 41.964844 12.554688 41.960938 12.554688 C 41.945312 12.566406 41.925781 12.578125 41.910156 12.585938 C 41.90625 12.589844 41.902344 12.589844 41.898438 12.589844 C 41.882812 12.597656 41.863281 12.605469 41.84375 12.613281 C 41.839844 12.613281 41.839844 12.613281 41.839844 12.613281 L 1.257812 24.144531 C 1.085938 24.191406 0.902344 24.128906 0.800781 23.980469 C 0.75 23.910156 0.726562 23.824219 0.726562 23.742188 C 0.726562 23.65625 0.753906 23.570312 0.808594 23.496094 L 9.082031 12.210938 L 0.808594 0.929688 C 0.753906 0.855469 0.726562 0.769531 0.726562 0.683594 C 0.726562 0.679688 0.726562 0.679688 0.726562 0.679688 C 0.730469 0.449219 0.914062 0.261719 1.144531 0.261719 C 1.199219 0.261719 1.246094 0.273438 1.292969 0.289062 " fill-opacity="1" fill-rule="nonzero"/></g></g></g></g><g clip-path="url(#d93b8a0c16)"><path fill="#ffffff" d="M 189.5 139.09375 L 236.792969 139.09375 L 236.792969 175.28125 L 189.5 175.28125 Z M 189.5 139.09375 " fill-opacity="1" fill-rule="nonzero"/><path fill="#ffffff" d="M 189.5 139.09375 L 236.792969 139.09375 L 236.792969 175.28125 L 189.5 175.28125 Z M 189.5 139.09375 " fill-opacity="1" fill-rule="nonzero"/></g><g clip-path="url(#30007a08c9)"><path stroke-linecap="butt" transform="matrix(0.750707, 0, 0, 0.753951, 185.322744, 139.092978)" fill="none" stroke-linejoin="miter" d="M 0.0019646 1.000966 L 74.124775 1.000966 " stroke="#000000" stroke-width="2" stroke-opacity="1" stroke-miterlimit="4"/></g><g clip-path="url(#d1f11919ee)"><path stroke-linecap="butt" transform="matrix(0.750707, 0, 0, 0.753951, 188.175443, 173.77471)" fill="none" stroke-linejoin="miter" d="M 0.000450728 0.998253 L 74.123261 0.998253 " stroke="#000000" stroke-width="2" stroke-opacity="1" stroke-miterlimit="4"/></g><g clip-path="url(#00c47bb9a5)"><path stroke-linecap="butt" transform="matrix(0, 0.753951, -0.750707, 0, 191.000201, 139.846931)" fill="none" stroke-linejoin="miter" d="M 0.000962494 0.999326 L 48.003313 0.999326 " stroke="#000000" stroke-width="2" stroke-opacity="1" stroke-miterlimit="4"/></g><g clip-path="url(#e26d7270bc)"><path stroke-linecap="butt" transform="matrix(0, 0.753951, -0.750707, 0, 236.793336, 139.846931)" fill="none" stroke-linejoin="miter" d="M 0.000962494 0.999547 L 48.003313 0.999547 " stroke="#000000" stroke-width="2" stroke-opacity="1" stroke-miterlimit="4"/></g><g clip-path="url(#26e99185e4)"><path fill="#000000" d="M 217.132812 151.613281 C 216.75 151.070312 216.214844 150.660156 215.53125 150.378906 C 214.855469 150.09375 214.070312 149.949219 213.183594 149.949219 C 212.375 149.949219 211.640625 150.089844 210.972656 150.371094 C 210.3125 150.648438 209.773438 151.074219 209.367188 151.640625 C 209.042969 152.089844 208.84375 152.632812 208.761719 153.273438 C 208.726562 153.550781 208.953125 153.796875 209.242188 153.796875 L 211.027344 153.796875 C 211.253906 153.796875 211.449219 153.636719 211.496094 153.421875 C 211.539062 153.226562 211.617188 153.054688 211.71875 152.902344 C 211.882812 152.660156 212.09375 152.480469 212.351562 152.355469 C 212.609375 152.234375 212.882812 152.167969 213.171875 152.167969 C 213.472656 152.167969 213.742188 152.230469 213.992188 152.355469 C 214.238281 152.472656 214.433594 152.648438 214.582031 152.875 C 214.726562 153.101562 214.804688 153.363281 214.804688 153.664062 C 214.804688 153.945312 214.734375 154.203125 214.605469 154.429688 C 214.476562 154.65625 214.304688 154.867188 214.089844 155.050781 C 213.867188 155.242188 213.625 155.417969 213.347656 155.589844 C 212.980469 155.816406 212.660156 156.066406 212.398438 156.347656 C 212.140625 156.625 211.941406 156.988281 211.800781 157.441406 C 211.667969 157.894531 211.597656 158.496094 211.59375 159.257812 L 211.59375 159.636719 C 211.59375 159.894531 211.808594 160.109375 212.074219 160.109375 L 213.644531 160.109375 C 213.910156 160.109375 214.128906 159.898438 214.128906 159.636719 L 214.128906 159.257812 C 214.132812 158.832031 214.1875 158.472656 214.296875 158.183594 C 214.40625 157.894531 214.574219 157.636719 214.796875 157.414062 C 215.019531 157.195312 215.308594 156.984375 215.660156 156.777344 C 216.082031 156.53125 216.441406 156.261719 216.75 155.960938 C 217.054688 155.65625 217.292969 155.308594 217.46875 154.914062 C 217.640625 154.523438 217.730469 154.070312 217.730469 153.5625 C 217.714844 152.800781 217.519531 152.148438 217.132812 151.613281 Z M 217.132812 151.613281 " fill-opacity="1" fill-rule="nonzero"/></g><g clip-path="url(#4aa61c49f6)"><path fill="#000000" d="M 212.910156 161.160156 C 212.464844 161.160156 212.082031 161.3125 211.769531 161.617188 C 211.457031 161.921875 211.300781 162.289062 211.308594 162.710938 C 211.300781 163.140625 211.457031 163.511719 211.769531 163.816406 C 212.082031 164.125 212.464844 164.273438 212.910156 164.273438 C 213.191406 164.273438 213.457031 164.203125 213.695312 164.0625 C 213.933594 163.917969 214.128906 163.730469 214.28125 163.492188 C 214.429688 163.257812 214.507812 162.996094 214.511719 162.710938 C 214.5 162.285156 214.339844 161.921875 214.019531 161.617188 C 213.703125 161.3125 213.332031 161.160156 212.910156 161.160156 Z M 212.910156 161.160156 " fill-opacity="1" fill-rule="nonzero"/></g></svg>