<svg xmlns="http://www.w3.org/2000/svg" xmlns:xlink="http://www.w3.org/1999/xlink" width="343" zoomAndPan="magnify" viewBox="0 0 257.25 186.749995" height="249" preserveAspectRatio="xMidYMid meet" version="1.0"><defs><clipPath id="fead0d9031"><path d="M 0 0.148438 L 256.503906 0.148438 L 256.503906 4 L 0 4 Z M 0 0.148438 " clip-rule="nonzero"/></clipPath><clipPath id="27c56ef502"><path d="M 0 183 L 256.503906 183 L 256.503906 186.355469 L 0 186.355469 Z M 0 183 " clip-rule="nonzero"/></clipPath><clipPath id="7d3b9c0ea6"><path d="M 0 0.148438 L 3 0.148438 L 3 186.355469 L 0 186.355469 Z M 0 0.148438 " clip-rule="nonzero"/></clipPath><clipPath id="1ceda5b739"><path d="M 253 0.148438 L 256.503906 0.148438 L 256.503906 186.355469 L 253 186.355469 Z M 253 0.148438 " clip-rule="nonzero"/></clipPath><clipPath id="f17f21b8c4"><path d="M 0 125 L 256.503906 125 L 256.503906 129 L 0 129 Z M 0 125 " clip-rule="nonzero"/></clipPath><clipPath id="8207a546d5"><path d="M 0 60 L 256.503906 60 L 256.503906 64 L 0 64 Z M 0 60 " clip-rule="nonzero"/></clipPath><clipPath id="c718f223f1"><path d="M 80 0.148438 L 84 0.148438 L 84 186.355469 L 80 186.355469 Z M 80 0.148438 " clip-rule="nonzero"/></clipPath><clipPath id="d7a165bacf"><path d="M 164 0.148438 L 168 0.148438 L 168 186.355469 L 164 186.355469 Z M 164 0.148438 " clip-rule="nonzero"/></clipPath><clipPath id="6fc0aef75d"><path d="M 24.308594 6.316406 L 55.71875 6.316406 L 55.71875 57.167969 L 24.308594 57.167969 Z M 24.308594 6.316406 " clip-rule="nonzero"/></clipPath><clipPath id="6886ba569e"><path d="M 98.464844 142.003906 L 149.316406 142.003906 L 149.316406 173.414062 L 98.464844 173.414062 Z M 98.464844 142.003906 " clip-rule="nonzero"/></clipPath><clipPath id="40cf3c9d2b"><path d="M 185.074219 78.757812 L 235.925781 78.757812 L 235.925781 110.167969 L 185.074219 110.167969 Z M 185.074219 78.757812 " clip-rule="nonzero"/></clipPath><clipPath id="f91848d372"><path d="M 98.464844 78.757812 L 149.316406 78.757812 L 149.316406 110.167969 L 98.464844 110.167969 Z M 98.464844 78.757812 " clip-rule="nonzero"/></clipPath><clipPath id="5b4b271b34"><path d="M 108.140625 6.316406 L 139.546875 6.316406 L 139.546875 57.167969 L 108.140625 57.167969 Z M 108.140625 6.316406 " clip-rule="nonzero"/></clipPath><clipPath id="b077700ef0"><path d="M 108.140625 69.234375 L 139.546875 69.234375 L 139.546875 120.085938 L 108.140625 120.085938 Z M 108.140625 69.234375 " clip-rule="nonzero"/></clipPath><clipPath id="8e903baad0"><path d="M 96.550781 67.320312 L 151.140625 67.320312 L 151.140625 121.914062 L 96.550781 121.914062 Z M 96.550781 67.320312 " clip-rule="nonzero"/></clipPath><clipPath id="f66b5204bc"><path d="M 185.074219 4.40625 L 239.664062 4.40625 L 239.664062 58.996094 L 185.074219 58.996094 Z M 185.074219 4.40625 " clip-rule="nonzero"/></clipPath><clipPath id="28f004aa6c"><path d="M 94.636719 4.40625 L 149.226562 4.40625 L 149.226562 58.996094 L 94.636719 58.996094 Z M 94.636719 4.40625 " clip-rule="nonzero"/></clipPath><clipPath id="d08385cec7"><path d="M 182.09375 67.320312 L 236.683594 67.320312 L 236.683594 121.914062 L 182.09375 121.914062 Z M 182.09375 67.320312 " clip-rule="nonzero"/></clipPath><clipPath id="2805ed1ea5"><path d="M 24.308594 69.234375 L 55.71875 69.234375 L 55.71875 120.085938 L 24.308594 120.085938 Z M 24.308594 69.234375 " clip-rule="nonzero"/></clipPath><clipPath id="0ca88829bf"><path d="M 34.832031 89.433594 L 45.304688 89.433594 L 45.304688 99.902344 L 34.832031 99.902344 Z M 34.832031 89.433594 " clip-rule="nonzero"/></clipPath><clipPath id="69abf08073"><path d="M 118.664062 89.433594 L 129.132812 89.433594 L 129.132812 99.902344 L 118.664062 99.902344 Z M 118.664062 89.433594 " clip-rule="nonzero"/></clipPath><clipPath id="3a3055f9d0"><path d="M 118.664062 152.679688 L 129.132812 152.679688 L 129.132812 163.152344 L 118.664062 163.152344 Z M 118.664062 152.679688 " clip-rule="nonzero"/></clipPath><clipPath id="b03eebf980"><path d="M 34.832031 152.679688 L 45.304688 152.679688 L 45.304688 163.152344 L 34.832031 163.152344 Z M 34.832031 152.679688 " clip-rule="nonzero"/></clipPath><clipPath id="ff853f1167"><path d="M 185.375 137.308594 L 236.308594 137.308594 L 236.308594 176.386719 L 185.375 176.386719 Z M 185.375 137.308594 " clip-rule="nonzero"/></clipPath><clipPath id="6407a67163"><path d="M 185.375 137.308594 L 236.308594 137.308594 L 236.308594 139 L 185.375 139 Z M 185.375 137.308594 " clip-rule="nonzero"/></clipPath><clipPath id="761c9fe574"><path d="M 185.375 174.125 L 236.308594 174.125 L 236.308594 176.386719 L 185.375 176.386719 Z M 185.375 174.125 " clip-rule="nonzero"/></clipPath><clipPath id="8950306afe"><path d="M 185.375 137.308594 L 187 137.308594 L 187 176.386719 L 185.375 176.386719 Z M 185.375 137.308594 " clip-rule="nonzero"/></clipPath><clipPath id="be6469a80e"><path d="M 234 137.308594 L 236.308594 137.308594 L 236.308594 176.386719 L 234 176.386719 Z M 234 137.308594 " clip-rule="nonzero"/></clipPath><clipPath id="8bebd8648c"><path d="M 206.078125 149.03125 L 215.78125 149.03125 L 215.78125 160 L 206.078125 160 Z M 206.078125 149.03125 " clip-rule="nonzero"/></clipPath><clipPath id="5ab99dabdc"><path d="M 208.339844 161 L 212.769531 161 L 212.769531 164.5 L 208.339844 164.5 Z M 208.339844 161 " clip-rule="nonzero"/></clipPath></defs><g clip-path="url(#fead0d9031)"><path stroke-linecap="butt" transform="matrix(0.74782, 0, 0, 0.74782, -9.091193, 0.1468)" fill="none" stroke-linejoin="miter" d="M 0.00180436 1.997574 L 375.311587 1.997574 " stroke="#000000" stroke-width="4" stroke-opacity="1" stroke-miterlimit="4"/></g><g clip-path="url(#27c56ef502)"><path stroke-linecap="butt" transform="matrix(0.74782, 0, 0, 0.74782, 0, 183.362635)" fill="none" stroke-linejoin="miter" d="M 0 2.001471 L 375.315006 2.001471 " stroke="#000000" stroke-width="4" stroke-opacity="1" stroke-miterlimit="4"/></g><g clip-path="url(#7d3b9c0ea6)"><path stroke-linecap="butt" transform="matrix(0, -0.74782, 0.74782, 0, -0.00297822, 191.88746)" fill="none" stroke-linejoin="miter" d="M 0.000990604 1.999366 L 253.90054 1.999366 " stroke="#000000" stroke-width="4" stroke-opacity="1" stroke-miterlimit="4"/></g><g clip-path="url(#1ceda5b739)"><path stroke-linecap="butt" transform="matrix(0, -0.74782, 0.74782, 0, 253.62248, 191.509838)" fill="none" stroke-linejoin="miter" d="M -0.00251485 1.998754 L 253.897034 1.998754 " stroke="#000000" stroke-width="4" stroke-opacity="1" stroke-miterlimit="4"/></g><g clip-path="url(#f17f21b8c4)"><path stroke-linecap="butt" transform="matrix(0.74782, 0, 0, 0.74782, -15.373313, 125.981857)" fill="none" stroke-linejoin="miter" d="M -0.0022553 1.998751 L 375.312751 1.998751 " stroke="#000000" stroke-width="4" stroke-opacity="1" stroke-miterlimit="4"/></g><g clip-path="url(#8207a546d5)"><path stroke-linecap="butt" transform="matrix(0.74782, 0.000000000000000029, -0.000000000000000029, 0.74782, -9.226357, 60.113854)" fill="none" stroke-linejoin="miter" d="M -0.00027542 1.999841 L 360.960502 1.999841 " stroke="#000000" stroke-width="4" stroke-opacity="1" stroke-miterlimit="4"/></g><g clip-path="url(#c718f223f1)"><path stroke-linecap="butt" transform="matrix(0, -0.74782, 0.74782, 0, 80.404219, 190.014199)" fill="none" stroke-linejoin="miter" d="M -0.00190738 1.9981 L 253.897642 1.9981 " stroke="#000000" stroke-width="4" stroke-opacity="1" stroke-miterlimit="4"/></g><g clip-path="url(#d7a165bacf)"><path stroke-linecap="butt" transform="matrix(0, -0.74782, 0.74782, 0, 164.143453, 188.182567)" fill="none" stroke-linejoin="miter" d="M -0.00137335 2.00205 L 253.898176 2.00205 " stroke="#000000" stroke-width="4" stroke-opacity="1" stroke-miterlimit="4"/></g><g clip-path="url(#6fc0aef75d)"><path fill="#000000" d="M 24.316406 31.742188 C 24.316406 24.988281 25.929688 18.636719 28.863281 13.851562 C 30.300781 11.511719 31.976562 9.671875 33.84375 8.382812 C 35.796875 7.035156 37.875 6.351562 40.015625 6.351562 C 42.160156 6.351562 44.238281 7.035156 46.191406 8.382812 C 48.058594 9.671875 49.734375 11.511719 51.171875 13.851562 C 54.105469 18.636719 55.71875 24.988281 55.71875 31.742188 C 55.71875 38.492188 54.105469 44.847656 51.171875 49.628906 C 49.734375 51.972656 48.058594 53.8125 46.191406 55.101562 C 44.238281 56.449219 42.160156 57.128906 40.015625 57.128906 C 37.875 57.128906 35.796875 56.449219 33.84375 55.101562 C 31.976562 53.8125 30.300781 51.972656 28.863281 49.628906 C 25.929688 44.847656 24.316406 38.492188 24.316406 31.742188 Z M 55.027344 31.742188 C 55.027344 18.128906 48.292969 7.054688 40.015625 7.054688 C 31.742188 7.054688 25.007812 18.128906 25.007812 31.742188 C 25.007812 45.355469 31.742188 56.429688 40.015625 56.429688 C 48.292969 56.429688 55.027344 45.355469 55.027344 31.742188 Z M 55.027344 31.742188 " fill-opacity="1" fill-rule="nonzero"/></g><g clip-path="url(#6886ba569e)"><path fill="#000000" d="M 123.886719 173.410156 C 117.136719 173.410156 110.78125 171.792969 106 168.859375 C 103.65625 167.421875 101.816406 165.746094 100.527344 163.878906 C 99.183594 161.925781 98.5 159.851562 98.5 157.707031 C 98.5 155.5625 99.183594 153.484375 100.527344 151.53125 C 101.816406 149.664062 103.65625 147.988281 106 146.554688 C 110.78125 143.617188 117.136719 142.003906 123.886719 142.003906 C 130.640625 142.003906 136.992188 143.617188 141.777344 146.554688 C 144.121094 147.988281 145.960938 149.664062 147.25 151.53125 C 148.59375 153.484375 149.277344 155.5625 149.277344 157.707031 C 149.277344 159.851562 148.59375 161.925781 147.25 163.878906 C 145.960938 165.746094 144.121094 167.421875 141.777344 168.859375 C 136.992188 171.792969 130.640625 173.410156 123.886719 173.410156 Z M 123.886719 142.699219 C 110.277344 142.699219 99.199219 149.429688 99.199219 157.707031 C 99.199219 165.980469 110.277344 172.714844 123.886719 172.714844 C 137.5 172.714844 148.578125 165.980469 148.578125 157.707031 C 148.578125 149.429688 137.5 142.699219 123.886719 142.699219 Z M 123.886719 142.699219 " fill-opacity="1" fill-rule="nonzero"/></g><g clip-path="url(#40cf3c9d2b)"><path fill="#000000" d="M 210.496094 110.160156 C 203.746094 110.160156 197.390625 108.546875 192.609375 105.613281 C 190.265625 104.175781 188.425781 102.5 187.136719 100.632812 C 185.792969 98.679688 185.109375 96.601562 185.109375 94.457031 C 185.109375 92.316406 185.792969 90.238281 187.136719 88.285156 C 188.425781 86.417969 190.265625 84.742188 192.609375 83.304688 C 197.390625 80.371094 203.746094 78.753906 210.496094 78.753906 C 217.25 78.753906 223.601562 80.371094 228.386719 83.304688 C 230.726562 84.742188 232.570312 86.417969 233.859375 88.285156 C 235.203125 90.238281 235.886719 92.316406 235.886719 94.457031 C 235.886719 96.601562 235.203125 98.679688 233.859375 100.632812 C 232.570312 102.5 230.726562 104.175781 228.386719 105.613281 C 223.601562 108.546875 217.25 110.160156 210.496094 110.160156 Z M 210.496094 79.449219 C 196.886719 79.449219 185.808594 86.183594 185.808594 94.457031 C 185.808594 102.734375 196.886719 109.46875 210.496094 109.46875 C 224.109375 109.46875 235.183594 102.734375 235.183594 94.457031 C 235.183594 86.183594 224.109375 79.449219 210.496094 79.449219 Z M 210.496094 79.449219 " fill-opacity="1" fill-rule="nonzero"/></g><g clip-path="url(#f91848d372)"><path fill="#000000" d="M 123.886719 110.160156 C 117.136719 110.160156 110.78125 108.546875 106 105.613281 C 103.65625 104.175781 101.816406 102.5 100.527344 100.632812 C 99.183594 98.679688 98.5 96.601562 98.5 94.457031 C 98.5 92.316406 99.183594 90.238281 100.527344 88.285156 C 101.816406 86.417969 103.65625 84.742188 106 83.304688 C 110.78125 80.371094 117.136719 78.753906 123.886719 78.753906 C 130.640625 78.753906 136.992188 80.371094 141.777344 83.304688 C 144.121094 84.742188 145.960938 86.417969 147.25 88.285156 C 148.59375 90.238281 149.277344 92.316406 149.277344 94.457031 C 149.277344 96.601562 148.59375 98.679688 147.25 100.632812 C 145.960938 102.5 144.121094 104.175781 141.777344 105.613281 C 136.992188 108.546875 130.640625 110.160156 123.886719 110.160156 Z M 123.886719 79.449219 C 110.277344 79.449219 99.199219 86.183594 99.199219 94.457031 C 99.199219 102.734375 110.277344 109.46875 123.886719 109.46875 C 137.5 109.46875 148.578125 102.734375 148.578125 94.457031 C 148.578125 86.183594 137.5 79.449219 123.886719 79.449219 Z M 123.886719 79.449219 " fill-opacity="1" fill-rule="nonzero"/></g><g clip-path="url(#5b4b271b34)"><path fill="#000000" d="M 108.144531 31.742188 C 108.144531 24.988281 109.757812 18.636719 112.691406 13.851562 C 114.128906 11.511719 115.804688 9.671875 117.671875 8.382812 C 119.625 7.035156 121.703125 6.351562 123.847656 6.351562 C 125.992188 6.351562 128.066406 7.035156 130.019531 8.382812 C 131.886719 9.671875 133.5625 11.511719 135 13.851562 C 137.933594 18.636719 139.550781 24.988281 139.550781 31.742188 C 139.550781 38.492188 137.933594 44.847656 135 49.628906 C 133.5625 51.972656 131.886719 53.8125 130.019531 55.101562 C 128.066406 56.449219 125.992188 57.128906 123.847656 57.128906 C 121.703125 57.128906 119.625 56.449219 117.671875 55.101562 C 115.804688 53.8125 114.128906 51.972656 112.691406 49.628906 C 109.757812 44.847656 108.144531 38.492188 108.144531 31.742188 Z M 138.855469 31.742188 C 138.855469 18.128906 132.121094 7.054688 123.847656 7.054688 C 115.570312 7.054688 108.839844 18.128906 108.839844 31.742188 C 108.839844 45.355469 115.570312 56.429688 123.847656 56.429688 C 132.121094 56.429688 138.855469 45.355469 138.855469 31.742188 Z M 138.855469 31.742188 " fill-opacity="1" fill-rule="nonzero"/></g><g clip-path="url(#b077700ef0)"><path fill="#000000" d="M 108.144531 94.660156 C 108.144531 87.90625 109.757812 81.554688 112.691406 76.769531 C 114.128906 74.429688 115.804688 72.585938 117.671875 71.296875 C 119.625 69.953125 121.703125 69.269531 123.847656 69.269531 C 125.992188 69.269531 128.066406 69.953125 130.019531 71.296875 C 131.886719 72.585938 133.5625 74.429688 135 76.769531 C 137.933594 81.554688 139.550781 87.90625 139.550781 94.660156 C 139.550781 101.410156 137.933594 107.765625 135 112.546875 C 133.5625 114.890625 131.886719 116.730469 130.019531 118.019531 C 128.066406 119.363281 125.992188 120.046875 123.847656 120.046875 C 121.703125 120.046875 119.625 119.363281 117.671875 118.019531 C 115.804688 116.730469 114.128906 114.890625 112.691406 112.546875 C 109.757812 107.765625 108.144531 101.410156 108.144531 94.660156 Z M 138.855469 94.660156 C 138.855469 81.046875 132.121094 69.972656 123.847656 69.972656 C 115.570312 69.972656 108.839844 81.046875 108.839844 94.660156 C 108.839844 108.273438 115.570312 119.347656 123.847656 119.347656 C 132.121094 119.347656 138.855469 108.273438 138.855469 94.660156 Z M 138.855469 94.660156 " fill-opacity="1" fill-rule="nonzero"/></g><g clip-path="url(#8e903baad0)"><path stroke-linecap="round" transform="matrix(1.436601, 0, 0, 1.436601, 89.367986, 60.139024)" fill="none" stroke-linejoin="round" d="M 40.500313 5.499118 L 7.498699 5.499118 C 7.234947 5.499118 6.979352 5.55078 6.734634 5.651387 C 6.489916 5.754712 6.272389 5.898824 6.084771 6.086441 C 5.897154 6.274059 5.753042 6.488867 5.652436 6.733585 C 5.551829 6.978303 5.500167 7.233898 5.500167 7.500369 L 5.500167 40.499264 C 5.500167 40.765735 5.551829 41.02133 5.652436 41.266048 C 5.753042 41.510766 5.897154 41.725574 6.084771 41.913192 C 6.272389 42.100809 6.489916 42.244921 6.734634 42.348246 C 6.979352 42.448853 7.234947 42.500515 7.498699 42.500515 L 40.500313 42.500515 C 40.764065 42.500515 41.01966 42.448853 41.264378 42.348246 C 41.509096 42.244921 41.726623 42.100809 41.914241 41.913192 C 42.101858 41.725574 42.24597 41.510766 42.346576 41.266048 C 42.449902 41.02133 42.498845 40.765735 42.498845 40.499264 L 42.498845 7.500369 C 42.498845 7.233898 42.449902 6.978303 42.346576 6.733585 C 42.24597 6.488867 42.101858 6.274059 41.914241 6.086441 C 41.726623 5.898824 41.509096 5.754712 41.264378 5.651387 C 41.01966 5.55078 40.764065 5.499118 40.500313 5.499118 Z M 40.500313 5.499118 " stroke="#000000" stroke-width="1" stroke-opacity="1" stroke-miterlimit="4"/></g><g clip-path="url(#f66b5204bc)"><path stroke-linecap="round" transform="matrix(1.436601, 0, 0, 1.436601, 177.890569, -2.778501)" fill="none" stroke-linejoin="round" d="M 40.500908 5.498809 L 7.499293 5.498809 C 7.235542 5.498809 6.979947 5.550472 6.735229 5.651078 C 6.49051 5.754403 6.272983 5.898515 6.085366 6.086133 C 5.897748 6.27375 5.753637 6.488558 5.65303 6.733276 C 5.549705 6.980714 5.500761 7.233589 5.500761 7.50006 L 5.500761 40.498955 C 5.500761 40.765426 5.549705 41.021021 5.65303 41.265739 C 5.753637 41.510458 5.897748 41.727985 6.085366 41.912883 C 6.272983 42.1005 6.49051 42.247331 6.735229 42.347938 C 6.979947 42.448544 7.235542 42.500207 7.499293 42.500207 L 40.500908 42.500207 C 40.76466 42.500207 41.020254 42.448544 41.264972 42.347938 C 41.509691 42.247331 41.727218 42.1005 41.914835 41.912883 C 42.102453 41.727985 42.246564 41.510458 42.347171 41.265739 C 42.450496 41.021021 42.49944 40.765426 42.49944 40.498955 L 42.49944 7.50006 C 42.49944 7.233589 42.450496 6.980714 42.347171 6.733276 C 42.246564 6.488558 42.102453 6.27375 41.914835 6.086133 C 41.727218 5.898515 41.509691 5.754403 41.264972 5.651078 C 41.020254 5.550472 40.76466 5.498809 40.500908 5.498809 Z M 40.500908 5.498809 " stroke="#000000" stroke-width="1" stroke-opacity="1" stroke-miterlimit="4"/></g><g clip-path="url(#28f004aa6c)"><path stroke-linecap="round" transform="matrix(1.436601, 0, 0, 1.436601, 87.454524, -2.778501)" fill="none" stroke-linejoin="round" d="M 40.499895 5.498809 L 7.500999 5.498809 C 7.234528 5.498809 6.978934 5.550472 6.734216 5.651078 C 6.489497 5.754403 6.27197 5.898515 6.087072 6.086133 C 5.899455 6.27375 5.752624 6.488558 5.652017 6.733276 C 5.551411 6.980714 5.499748 7.233589 5.499748 7.50006 L 5.499748 40.498955 C 5.499748 40.765426 5.551411 41.021021 5.652017 41.265739 C 5.752624 41.510458 5.899455 41.727985 6.087072 41.912883 C 6.27197 42.1005 6.489497 42.247331 6.734216 42.347938 C 6.978934 42.448544 7.234528 42.500207 7.500999 42.500207 L 40.499895 42.500207 C 40.766366 42.500207 41.019241 42.448544 41.266678 42.347938 C 41.511397 42.247331 41.726205 42.1005 41.913822 41.912883 C 42.10144 41.727985 42.245551 41.510458 42.348877 41.265739 C 42.449483 41.021021 42.501146 40.765426 42.501146 40.498955 L 42.501146 7.50006 C 42.501146 7.233589 42.449483 6.980714 42.348877 6.733276 C 42.245551 6.488558 42.10144 6.27375 41.913822 6.086133 C 41.726205 5.898515 41.511397 5.754403 41.266678 5.651078 C 41.019241 5.550472 40.766366 5.498809 40.499895 5.498809 Z M 40.499895 5.498809 " stroke="#000000" stroke-width="1" stroke-opacity="1" stroke-miterlimit="4"/></g><g clip-path="url(#d08385cec7)"><path stroke-linecap="round" transform="matrix(1.436601, 0, 0, 1.436601, 174.911093, 60.139024)" fill="none" stroke-linejoin="round" d="M 40.500217 5.499118 L 7.501322 5.499118 C 7.234851 5.499118 6.979256 5.55078 6.734538 5.651387 C 6.48982 5.754712 6.272292 5.898824 6.084675 6.086441 C 5.897058 6.274059 5.752946 6.488867 5.65234 6.733585 C 5.551733 6.978303 5.50007 7.233898 5.50007 7.500369 L 5.50007 40.499264 C 5.50007 40.765735 5.551733 41.02133 5.65234 41.266048 C 5.752946 41.510766 5.897058 41.725574 6.084675 41.913192 C 6.272292 42.100809 6.48982 42.244921 6.734538 42.348246 C 6.979256 42.448853 7.234851 42.500515 7.501322 42.500515 L 40.500217 42.500515 C 40.763969 42.500515 41.019564 42.448853 41.264282 42.348246 C 41.511719 42.244921 41.726527 42.100809 41.914145 41.913192 C 42.101762 41.725574 42.245874 41.510766 42.34648 41.266048 C 42.449806 41.02133 42.498749 40.765735 42.498749 40.499264 L 42.498749 7.500369 C 42.498749 7.233898 42.449806 6.978303 42.34648 6.733585 C 42.245874 6.488867 42.101762 6.274059 41.914145 6.086441 C 41.726527 5.898824 41.511719 5.754712 41.264282 5.651387 C 41.019564 5.55078 40.763969 5.499118 40.500217 5.499118 Z M 40.500217 5.499118 " stroke="#000000" stroke-width="1" stroke-opacity="1" stroke-miterlimit="4"/></g><g clip-path="url(#2805ed1ea5)"><path fill="#000000" d="M 24.316406 94.660156 C 24.316406 87.90625 25.929688 81.554688 28.863281 76.769531 C 30.300781 74.429688 31.976562 72.585938 33.84375 71.296875 C 35.796875 69.953125 37.875 69.269531 40.015625 69.269531 C 42.160156 69.269531 44.238281 69.953125 46.191406 71.296875 C 48.058594 72.585938 49.734375 74.429688 51.171875 76.769531 C 54.105469 81.554688 55.71875 87.90625 55.71875 94.660156 C 55.71875 101.410156 54.105469 107.765625 51.171875 112.546875 C 49.734375 114.890625 48.058594 116.730469 46.191406 118.019531 C 44.238281 119.363281 42.160156 120.046875 40.015625 120.046875 C 37.875 120.046875 35.796875 119.363281 33.84375 118.019531 C 31.976562 116.730469 30.300781 114.890625 28.863281 112.546875 C 25.929688 107.765625 24.316406 101.410156 24.316406 94.660156 Z M 55.027344 94.660156 C 55.027344 81.046875 48.292969 69.972656 40.015625 69.972656 C 31.742188 69.972656 25.007812 81.046875 25.007812 94.660156 C 25.007812 108.273438 31.742188 119.347656 40.015625 119.347656 C 48.292969 119.347656 55.027344 108.273438 55.027344 94.660156 Z M 55.027344 94.660156 " fill-opacity="1" fill-rule="nonzero"/></g><g clip-path="url(#0ca88829bf)"><path fill="#000000" d="M 45.304688 94.667969 C 45.304688 95.011719 45.269531 95.351562 45.203125 95.691406 C 45.136719 96.027344 45.035156 96.355469 44.90625 96.671875 C 44.773438 96.988281 44.613281 97.289062 44.421875 97.578125 C 44.230469 97.863281 44.011719 98.125 43.769531 98.371094 C 43.527344 98.613281 43.261719 98.828125 42.976562 99.019531 C 42.691406 99.210938 42.390625 99.375 42.070312 99.503906 C 41.753906 99.636719 41.425781 99.734375 41.089844 99.800781 C 40.753906 99.871094 40.410156 99.902344 40.066406 99.902344 C 39.722656 99.902344 39.382812 99.871094 39.046875 99.800781 C 38.710938 99.734375 38.382812 99.636719 38.066406 99.503906 C 37.746094 99.375 37.445312 99.210938 37.160156 99.019531 C 36.875 98.828125 36.609375 98.613281 36.367188 98.371094 C 36.125 98.125 35.90625 97.863281 35.714844 97.578125 C 35.523438 97.289062 35.363281 96.988281 35.230469 96.671875 C 35.101562 96.355469 35 96.027344 34.933594 95.691406 C 34.867188 95.351562 34.832031 95.011719 34.832031 94.667969 C 34.832031 94.324219 34.867188 93.984375 34.933594 93.648438 C 35 93.308594 35.101562 92.984375 35.230469 92.664062 C 35.363281 92.347656 35.523438 92.046875 35.714844 91.761719 C 35.90625 91.472656 36.125 91.210938 36.367188 90.96875 C 36.609375 90.722656 36.875 90.507812 37.160156 90.316406 C 37.445312 90.125 37.746094 89.964844 38.066406 89.832031 C 38.382812 89.699219 38.710938 89.601562 39.046875 89.535156 C 39.382812 89.46875 39.722656 89.433594 40.066406 89.433594 C 40.410156 89.433594 40.753906 89.46875 41.089844 89.535156 C 41.425781 89.601562 41.753906 89.699219 42.070312 89.832031 C 42.390625 89.964844 42.691406 90.125 42.976562 90.316406 C 43.261719 90.507812 43.527344 90.722656 43.769531 90.96875 C 44.011719 91.210938 44.230469 91.472656 44.421875 91.761719 C 44.613281 92.046875 44.773438 92.347656 44.90625 92.664062 C 45.035156 92.984375 45.136719 93.308594 45.203125 93.648438 C 45.269531 93.984375 45.304688 94.324219 45.304688 94.667969 Z M 45.304688 94.667969 " fill-opacity="1" fill-rule="nonzero"/></g><g clip-path="url(#69abf08073)"><path fill="#000000" d="M 129.132812 94.667969 C 129.132812 95.011719 129.097656 95.351562 129.03125 95.691406 C 128.964844 96.027344 128.863281 96.355469 128.734375 96.671875 C 128.601562 96.988281 128.441406 97.289062 128.25 97.578125 C 128.058594 97.863281 127.84375 98.125 127.597656 98.371094 C 127.355469 98.613281 127.089844 98.828125 126.804688 99.019531 C 126.519531 99.210938 126.21875 99.375 125.902344 99.503906 C 125.582031 99.636719 125.253906 99.734375 124.917969 99.800781 C 124.582031 99.871094 124.242188 99.902344 123.898438 99.902344 C 123.554688 99.902344 123.214844 99.871094 122.875 99.800781 C 122.539062 99.734375 122.210938 99.636719 121.894531 99.503906 C 121.578125 99.375 121.273438 99.210938 120.988281 99.019531 C 120.703125 98.828125 120.4375 98.613281 120.195312 98.371094 C 119.953125 98.125 119.734375 97.863281 119.542969 97.578125 C 119.355469 97.289062 119.191406 96.988281 119.0625 96.671875 C 118.929688 96.355469 118.832031 96.027344 118.761719 95.691406 C 118.695312 95.351562 118.664062 95.011719 118.664062 94.667969 C 118.664062 94.324219 118.695312 93.984375 118.761719 93.648438 C 118.832031 93.308594 118.929688 92.984375 119.0625 92.664062 C 119.191406 92.347656 119.355469 92.046875 119.542969 91.761719 C 119.734375 91.472656 119.953125 91.210938 120.195312 90.96875 C 120.4375 90.722656 120.703125 90.507812 120.988281 90.316406 C 121.273438 90.125 121.578125 89.964844 121.894531 89.832031 C 122.210938 89.699219 122.539062 89.601562 122.875 89.535156 C 123.214844 89.46875 123.554688 89.433594 123.898438 89.433594 C 124.242188 89.433594 124.582031 89.46875 124.917969 89.535156 C 125.253906 89.601562 125.582031 89.699219 125.902344 89.832031 C 126.21875 89.964844 126.519531 90.125 126.804688 90.316406 C 127.089844 90.507812 127.355469 90.722656 127.597656 90.96875 C 127.84375 91.210938 128.058594 91.472656 128.25 91.761719 C 128.441406 92.046875 128.601562 92.347656 128.734375 92.664062 C 128.863281 92.984375 128.964844 93.308594 129.03125 93.648438 C 129.097656 93.984375 129.132812 94.324219 129.132812 94.667969 Z M 129.132812 94.667969 " fill-opacity="1" fill-rule="nonzero"/></g><g clip-path="url(#3a3055f9d0)"><path fill="#000000" d="M 129.132812 157.914062 C 129.132812 158.257812 129.097656 158.601562 129.03125 158.9375 C 128.964844 159.273438 128.863281 159.601562 128.734375 159.917969 C 128.601562 160.238281 128.441406 160.539062 128.25 160.824219 C 128.058594 161.109375 127.84375 161.375 127.597656 161.617188 C 127.355469 161.859375 127.089844 162.078125 126.804688 162.269531 C 126.519531 162.460938 126.21875 162.621094 125.902344 162.753906 C 125.582031 162.882812 125.253906 162.984375 124.917969 163.050781 C 124.582031 163.117188 124.242188 163.152344 123.898438 163.152344 C 123.554688 163.152344 123.214844 163.117188 122.875 163.050781 C 122.539062 162.984375 122.210938 162.882812 121.894531 162.753906 C 121.578125 162.621094 121.273438 162.460938 120.988281 162.269531 C 120.703125 162.078125 120.4375 161.859375 120.195312 161.617188 C 119.953125 161.375 119.734375 161.109375 119.542969 160.824219 C 119.355469 160.539062 119.191406 160.238281 119.0625 159.917969 C 118.929688 159.601562 118.832031 159.273438 118.761719 158.9375 C 118.695312 158.601562 118.664062 158.257812 118.664062 157.914062 C 118.664062 157.570312 118.695312 157.230469 118.761719 156.894531 C 118.832031 156.558594 118.929688 156.230469 119.0625 155.914062 C 119.191406 155.59375 119.355469 155.292969 119.542969 155.007812 C 119.734375 154.722656 119.953125 154.457031 120.195312 154.214844 C 120.4375 153.972656 120.703125 153.753906 120.988281 153.5625 C 121.273438 153.371094 121.578125 153.210938 121.894531 153.078125 C 122.210938 152.949219 122.539062 152.847656 122.875 152.78125 C 123.214844 152.714844 123.554688 152.679688 123.898438 152.679688 C 124.242188 152.679688 124.582031 152.714844 124.917969 152.78125 C 125.253906 152.847656 125.582031 152.949219 125.902344 153.078125 C 126.21875 153.210938 126.519531 153.371094 126.804688 153.5625 C 127.089844 153.753906 127.355469 153.972656 127.597656 154.214844 C 127.84375 154.457031 128.058594 154.722656 128.25 155.007812 C 128.441406 155.292969 128.601562 155.59375 128.734375 155.914062 C 128.863281 156.230469 128.964844 156.558594 129.03125 156.894531 C 129.097656 157.230469 129.132812 157.570312 129.132812 157.914062 Z M 129.132812 157.914062 " fill-opacity="1" fill-rule="nonzero"/></g><g clip-path="url(#b03eebf980)"><path fill="#000000" d="M 45.304688 157.914062 C 45.304688 158.257812 45.269531 158.601562 45.203125 158.9375 C 45.136719 159.273438 45.035156 159.601562 44.90625 159.917969 C 44.773438 160.238281 44.613281 160.539062 44.421875 160.824219 C 44.230469 161.109375 44.011719 161.375 43.769531 161.617188 C 43.527344 161.859375 43.261719 162.078125 42.976562 162.269531 C 42.691406 162.460938 42.390625 162.621094 42.070312 162.753906 C 41.753906 162.882812 41.425781 162.984375 41.089844 163.050781 C 40.753906 163.117188 40.410156 163.152344 40.066406 163.152344 C 39.722656 163.152344 39.382812 163.117188 39.046875 163.050781 C 38.710938 162.984375 38.382812 162.882812 38.066406 162.753906 C 37.746094 162.621094 37.445312 162.460938 37.160156 162.269531 C 36.875 162.078125 36.609375 161.859375 36.367188 161.617188 C 36.125 161.375 35.90625 161.109375 35.714844 160.824219 C 35.523438 160.539062 35.363281 160.238281 35.230469 159.917969 C 35.101562 159.601562 35 159.273438 34.933594 158.9375 C 34.867188 158.601562 34.832031 158.257812 34.832031 157.914062 C 34.832031 157.570312 34.867188 157.230469 34.933594 156.894531 C 35 156.558594 35.101562 156.230469 35.230469 155.914062 C 35.363281 155.59375 35.523438 155.292969 35.714844 155.007812 C 35.90625 154.722656 36.125 154.457031 36.367188 154.214844 C 36.609375 153.972656 36.875 153.753906 37.160156 153.5625 C 37.445312 153.371094 37.746094 153.210938 38.066406 153.078125 C 38.382812 152.949219 38.710938 152.847656 39.046875 152.78125 C 39.382812 152.714844 39.722656 152.679688 40.066406 152.679688 C 40.410156 152.679688 40.753906 152.714844 41.089844 152.78125 C 41.425781 152.847656 41.753906 152.949219 42.070312 153.078125 C 42.390625 153.210938 42.691406 153.371094 42.976562 153.5625 C 43.261719 153.753906 43.527344 153.972656 43.769531 154.214844 C 44.011719 154.457031 44.230469 154.722656 44.421875 155.007812 C 44.613281 155.292969 44.773438 155.59375 44.90625 155.914062 C 45.035156 156.230469 45.136719 156.558594 45.203125 156.894531 C 45.269531 157.230469 45.304688 157.570312 45.304688 157.914062 Z M 45.304688 157.914062 " fill-opacity="1" fill-rule="nonzero"/></g><g clip-path="url(#ff853f1167)"><path fill="#ffffff" d="M 185.375 137.308594 L 236.308594 137.308594 L 236.308594 176.386719 L 185.375 176.386719 Z M 185.375 137.308594 " fill-opacity="1" fill-rule="nonzero"/><path fill="#ffffff" d="M 185.375 137.308594 L 236.308594 137.308594 L 236.308594 176.386719 L 185.375 176.386719 Z M 185.375 137.308594 " fill-opacity="1" fill-rule="nonzero"/></g><g clip-path="url(#6407a67163)"><path stroke-linecap="butt" transform="matrix(0.808454, 0, 0, 0.814128, 180.879469, 137.308464)" fill="none" stroke-linejoin="miter" d="M -0.000696637 1.002957 L 74.123215 1.002957 " stroke="#000000" stroke-width="2" stroke-opacity="1" stroke-miterlimit="4"/></g><g clip-path="url(#761c9fe574)"><path stroke-linecap="butt" transform="matrix(0.808454, 0, 0, 0.814128, 183.951606, 174.758355)" fill="none" stroke-linejoin="miter" d="M 0.00187858 0.997333 L 74.125791 0.997333 " stroke="#000000" stroke-width="2" stroke-opacity="1" stroke-miterlimit="4"/></g><g clip-path="url(#8950306afe)"><path stroke-linecap="butt" transform="matrix(0, 0.814128, -0.808454, 0, 186.993653, 138.122595)" fill="none" stroke-linejoin="miter" d="M 0.00295449 0.997154 L 48.002923 0.997154 " stroke="#000000" stroke-width="2" stroke-opacity="1" stroke-miterlimit="4"/></g><g clip-path="url(#be6469a80e)"><path stroke-linecap="butt" transform="matrix(0, 0.814128, -0.808454, 0, 236.309342, 138.122595)" fill="none" stroke-linejoin="miter" d="M 0.00295449 1.001099 L 48.002923 1.001099 " stroke="#000000" stroke-width="2" stroke-opacity="1" stroke-miterlimit="4"/></g><g clip-path="url(#8bebd8648c)"><path fill="#000000" d="M 215.136719 150.828125 C 214.722656 150.242188 214.148438 149.796875 213.410156 149.492188 C 212.683594 149.1875 211.839844 149.03125 210.882812 149.03125 C 210.015625 149.03125 209.222656 149.183594 208.503906 149.484375 C 207.789062 149.785156 207.210938 150.246094 206.773438 150.859375 C 206.425781 151.339844 206.210938 151.929688 206.125 152.621094 C 206.085938 152.917969 206.328125 153.183594 206.636719 153.183594 L 208.558594 153.183594 C 208.804688 153.183594 209.015625 153.015625 209.066406 152.78125 C 209.113281 152.570312 209.195312 152.382812 209.304688 152.222656 C 209.480469 151.960938 209.710938 151.765625 209.988281 151.628906 C 210.265625 151.5 210.558594 151.429688 210.871094 151.429688 C 211.195312 151.429688 211.484375 151.492188 211.753906 151.628906 C 212.019531 151.753906 212.230469 151.945312 212.390625 152.191406 C 212.546875 152.433594 212.628906 152.71875 212.628906 153.039062 C 212.628906 153.347656 212.554688 153.625 212.414062 153.867188 C 212.277344 154.113281 212.089844 154.339844 211.859375 154.539062 C 211.621094 154.746094 211.359375 154.9375 211.0625 155.125 C 210.664062 155.367188 210.320312 155.636719 210.039062 155.9375 C 209.757812 156.238281 209.546875 156.632812 209.394531 157.121094 C 209.253906 157.613281 209.175781 158.261719 209.171875 159.082031 L 209.171875 159.492188 C 209.171875 159.769531 209.402344 160 209.6875 160 L 211.382812 160 C 211.667969 160 211.902344 159.773438 211.902344 159.492188 L 211.902344 159.082031 C 211.90625 158.625 211.964844 158.234375 212.082031 157.921875 C 212.199219 157.613281 212.382812 157.332031 212.621094 157.09375 C 212.863281 156.855469 213.171875 156.628906 213.550781 156.40625 C 214.003906 156.140625 214.394531 155.847656 214.722656 155.519531 C 215.050781 155.195312 215.3125 154.820312 215.496094 154.390625 C 215.683594 153.96875 215.777344 153.480469 215.777344 152.933594 C 215.765625 152.109375 215.554688 151.40625 215.136719 150.828125 Z M 215.136719 150.828125 " fill-opacity="1" fill-rule="nonzero"/></g><g clip-path="url(#5ab99dabdc)"><path fill="#000000" d="M 210.589844 161.136719 C 210.109375 161.136719 209.699219 161.300781 209.359375 161.628906 C 209.023438 161.957031 208.855469 162.355469 208.863281 162.8125 C 208.855469 163.273438 209.023438 163.675781 209.359375 164.003906 C 209.699219 164.335938 210.109375 164.5 210.589844 164.5 C 210.890625 164.5 211.179688 164.425781 211.433594 164.273438 C 211.691406 164.113281 211.902344 163.914062 212.066406 163.65625 C 212.226562 163.398438 212.308594 163.121094 212.3125 162.8125 C 212.304688 162.351562 212.128906 161.957031 211.785156 161.628906 C 211.441406 161.300781 211.042969 161.136719 210.589844 161.136719 Z M 210.589844 161.136719 " fill-opacity="1" fill-rule="nonzero"/></g></svg>