<svg xmlns="http://www.w3.org/2000/svg" xmlns:xlink="http://www.w3.org/1999/xlink" width="343" zoomAndPan="magnify" viewBox="0 0 257.25 186.749995" height="249" preserveAspectRatio="xMidYMid meet" version="1.0"><defs><clipPath id="84430be608"><path d="M 21.804688 15.488281 L 61.4375 15.488281 L 61.4375 47.644531 L 21.804688 47.644531 Z M 21.804688 15.488281 " clip-rule="nonzero"/></clipPath><clipPath id="92c1e09b60"><path d="M 0 0.148438 L 256.503906 0.148438 L 256.503906 4 L 0 4 Z M 0 0.148438 " clip-rule="nonzero"/></clipPath><clipPath id="e05a7ec713"><path d="M 0 60 L 256.503906 60 L 256.503906 64 L 0 64 Z M 0 60 " clip-rule="nonzero"/></clipPath><clipPath id="37c88b9228"><path d="M 0 125 L 256.503906 125 L 256.503906 129 L 0 129 Z M 0 125 " clip-rule="nonzero"/></clipPath><clipPath id="2440828776"><path d="M 0 183 L 256.503906 183 L 256.503906 186.355469 L 0 186.355469 Z M 0 183 " clip-rule="nonzero"/></clipPath><clipPath id="2d120f5082"><path d="M 0 0.148438 L 3 0.148438 L 3 186.355469 L 0 186.355469 Z M 0 0.148438 " clip-rule="nonzero"/></clipPath><clipPath id="7488d710d0"><path d="M 253 0.148438 L 256.503906 0.148438 L 256.503906 186.355469 L 253 186.355469 Z M 253 0.148438 " clip-rule="nonzero"/></clipPath><clipPath id="c6d4bf36a3"><path d="M 80 0.148438 L 84 0.148438 L 84 186.355469 L 80 186.355469 Z M 80 0.148438 " clip-rule="nonzero"/></clipPath><clipPath id="2b10971df4"><path d="M 164 0.148438 L 168 0.148438 L 168 186.355469 L 164 186.355469 Z M 164 0.148438 " clip-rule="nonzero"/></clipPath><clipPath id="21d82cc27a"><path d="M 103.875 79.980469 L 143.511719 79.980469 L 143.511719 112.136719 L 103.875 112.136719 Z M 103.875 79.980469 " clip-rule="nonzero"/></clipPath><clipPath id="c2676a7847"><path d="M 107.742188 11.726562 L 139.898438 11.726562 L 139.898438 51.363281 L 107.742188 51.363281 Z M 107.742188 11.726562 " clip-rule="nonzero"/></clipPath><clipPath id="ef3c767b6c"><path d="M 0.742188 0.726562 L 32.898438 0.726562 L 32.898438 40.363281 L 0.742188 40.363281 Z M 0.742188 0.726562 " clip-rule="nonzero"/></clipPath><clipPath id="d021c6f75e"><rect x="0" width="33" y="0" height="41"/></clipPath><clipPath id="003e0749fb"><path d="M 191.066406 16.984375 L 230.703125 16.984375 L 230.703125 49.140625 L 191.066406 49.140625 Z M 191.066406 16.984375 " clip-rule="nonzero"/></clipPath><clipPath id="36c379f7ab"><path d="M 0.0664062 0.984375 L 39.703125 0.984375 L 39.703125 33.140625 L 0.0664062 33.140625 Z M 0.0664062 0.984375 " clip-rule="nonzero"/></clipPath><clipPath id="4cd45dbf64"><rect x="0" width="40" y="0" height="34"/></clipPath><clipPath id="bbb51d79b8"><path d="M 21.804688 143.710938 L 61.4375 143.710938 L 61.4375 175.867188 L 21.804688 175.867188 Z M 21.804688 143.710938 " clip-rule="nonzero"/></clipPath><clipPath id="9ab687afd4"><path d="M 0.804688 0.710938 L 40.4375 0.710938 L 40.4375 32.867188 L 0.804688 32.867188 Z M 0.804688 0.710938 " clip-rule="nonzero"/></clipPath><clipPath id="7e208ce1ee"><rect x="0" width="41" y="0" height="33"/></clipPath><clipPath id="88e0f769f1"><path d="M 25.671875 76.21875 L 57.828125 76.21875 L 57.828125 115.855469 L 25.671875 115.855469 Z M 25.671875 76.21875 " clip-rule="nonzero"/></clipPath><clipPath id="0b85a26aeb"><path d="M 0.671875 0.21875 L 32.828125 0.21875 L 32.828125 39.855469 L 0.671875 39.855469 Z M 0.671875 0.21875 " clip-rule="nonzero"/></clipPath><clipPath id="52cf19d07a"><rect x="0" width="33" y="0" height="40"/></clipPath><clipPath id="d71aeb0599"><path d="M 107.742188 137.195312 L 139.898438 137.195312 L 139.898438 176.832031 L 107.742188 176.832031 Z M 107.742188 137.195312 " clip-rule="nonzero"/></clipPath><clipPath id="61b31fd2a8"><path d="M 0.742188 0.195312 L 32.898438 0.195312 L 32.898438 39.832031 L 0.742188 39.832031 Z M 0.742188 0.195312 " clip-rule="nonzero"/></clipPath><clipPath id="09176aa0e2"><rect x="0" width="33" y="0" height="40"/></clipPath><clipPath id="d9aac2b44d"><path d="M 196.882812 76.21875 L 229.039062 76.21875 L 229.039062 115.855469 L 196.882812 115.855469 Z M 196.882812 76.21875 " clip-rule="nonzero"/></clipPath><clipPath id="8c3d814a7f"><path d="M 0.882812 0.21875 L 33.039062 0.21875 L 33.039062 39.855469 L 0.882812 39.855469 Z M 0.882812 0.21875 " clip-rule="nonzero"/></clipPath><clipPath id="5f33ce5626"><rect x="0" width="34" y="0" height="40"/></clipPath><clipPath id="d38a5dc45a"><path d="M 37.753906 33.121094 L 45.980469 33.121094 L 45.980469 41.34375 L 37.753906 41.34375 Z M 37.753906 33.121094 " clip-rule="nonzero"/></clipPath><clipPath id="30bf694df7"><path d="M 119.828125 27.546875 L 128.054688 27.546875 L 128.054688 35.769531 L 119.828125 35.769531 Z M 119.828125 27.546875 " clip-rule="nonzero"/></clipPath><clipPath id="76a46fa794"><path d="M 111.9375 22.105469 L 120.164062 22.105469 L 120.164062 30.332031 L 111.9375 30.332031 Z M 111.9375 22.105469 " clip-rule="nonzero"/></clipPath><clipPath id="86937af8d6"><path d="M 111.9375 31.789062 L 120.164062 31.789062 L 120.164062 40.015625 L 111.9375 40.015625 Z M 111.9375 31.789062 " clip-rule="nonzero"/></clipPath><clipPath id="780b940954"><path d="M 203.074219 23.898438 L 211.300781 23.898438 L 211.300781 32.125 L 203.074219 32.125 Z M 203.074219 23.898438 " clip-rule="nonzero"/></clipPath><clipPath id="861aac7dd0"><path d="M 210.964844 23.601562 L 219.191406 23.601562 L 219.191406 31.824219 L 210.964844 31.824219 Z M 210.964844 23.601562 " clip-rule="nonzero"/></clipPath><clipPath id="9dd9facf3f"><path d="M 45.644531 97.613281 L 53.871094 97.613281 L 53.871094 105.835938 L 45.644531 105.835938 Z M 45.644531 97.613281 " clip-rule="nonzero"/></clipPath><clipPath id="c10702fed7"><path d="M 45.644531 88.226562 L 53.871094 88.226562 L 53.871094 96.453125 L 45.644531 96.453125 Z M 45.644531 88.226562 " clip-rule="nonzero"/></clipPath><clipPath id="207fe60272"><path d="M 37.753906 93.25 L 45.980469 93.25 L 45.980469 101.476562 L 37.753906 101.476562 Z M 37.753906 93.25 " clip-rule="nonzero"/></clipPath><clipPath id="66f4e95281"><path d="M 115.882812 97.613281 L 124.109375 97.613281 L 124.109375 105.835938 L 115.882812 105.835938 Z M 115.882812 97.613281 " clip-rule="nonzero"/></clipPath><clipPath id="309b8bb8f4"><path d="M 124.363281 97.195312 L 132.589844 97.195312 L 132.589844 105.421875 L 124.363281 105.421875 Z M 124.363281 97.195312 " clip-rule="nonzero"/></clipPath><clipPath id="c1da87aaa1"><path d="M 207.019531 92.171875 L 215.246094 92.171875 L 215.246094 100.398438 L 207.019531 100.398438 Z M 207.019531 92.171875 " clip-rule="nonzero"/></clipPath><clipPath id="21ca4d5dc4"><path d="M 33.808594 151.957031 L 42.035156 151.957031 L 42.035156 160.183594 L 33.808594 160.183594 Z M 33.808594 151.957031 " clip-rule="nonzero"/></clipPath><clipPath id="34a1d82f39"><path d="M 41.699219 151.957031 L 49.925781 151.957031 L 49.925781 160.183594 L 41.699219 160.183594 Z M 41.699219 151.957031 " clip-rule="nonzero"/></clipPath><clipPath id="2ea24ac9cd"><path d="M 124.363281 153.652344 L 132.589844 153.652344 L 132.589844 161.878906 L 124.363281 161.878906 Z M 124.363281 153.652344 " clip-rule="nonzero"/></clipPath><clipPath id="a9c4cc4035"><path d="M 186.246094 137.316406 L 236.449219 137.316406 L 236.449219 175.675781 L 186.246094 175.675781 Z M 186.246094 137.316406 " clip-rule="nonzero"/></clipPath><clipPath id="f497c20cad"><path d="M 186.246094 137.316406 L 236.449219 137.316406 L 236.449219 139 L 186.246094 139 Z M 186.246094 137.316406 " clip-rule="nonzero"/></clipPath><clipPath id="bfefff0ec1"><path d="M 186.246094 174 L 236.449219 174 L 236.449219 175.675781 L 186.246094 175.675781 Z M 186.246094 174 " clip-rule="nonzero"/></clipPath><clipPath id="ebe1e43841"><path d="M 186.246094 137.316406 L 188 137.316406 L 188 175.675781 L 186.246094 175.675781 Z M 186.246094 137.316406 " clip-rule="nonzero"/></clipPath><clipPath id="70bdb153f5"><path d="M 234 137.316406 L 236.449219 137.316406 L 236.449219 175.675781 L 234 175.675781 Z M 234 137.316406 " clip-rule="nonzero"/></clipPath><clipPath id="85c0475fef"><path d="M 206.652344 148.824219 L 216.21875 148.824219 L 216.21875 160 L 206.652344 160 Z M 206.652344 148.824219 " clip-rule="nonzero"/></clipPath><clipPath id="3dd944e2e8"><path d="M 209 160.3125 L 213 160.3125 L 213 164.003906 L 209 164.003906 Z M 209 160.3125 " clip-rule="nonzero"/></clipPath></defs><g clip-path="url(#84430be608)"><path fill="#212121" d="M 42.667969 16.667969 L 52.074219 33.058594 L 52.074219 33.0625 L 61.476562 49.453125 L 62.15625 50.632812 L 21.832031 50.632812 L 22.507812 49.453125 L 31.910156 33.0625 L 31.910156 33.058594 L 41.316406 16.667969 L 41.992188 15.488281 Z M 50.722656 33.847656 L 50.71875 33.847656 L 41.992188 18.636719 L 33.265625 33.847656 L 33.261719 33.847656 L 24.539062 49.054688 L 59.449219 49.054688 L 50.722656 33.847656 " fill-opacity="1" fill-rule="nonzero"/></g><g clip-path="url(#92c1e09b60)"><path stroke-linecap="butt" transform="matrix(0.74782, 0, 0, 0.74782, -9.091193, 0.1468)" fill="none" stroke-linejoin="miter" d="M 0.00180436 1.997574 L 375.311587 1.997574 " stroke="#000000" stroke-width="4" stroke-opacity="1" stroke-miterlimit="4"/></g><g clip-path="url(#e05a7ec713)"><path stroke-linecap="butt" transform="matrix(0.74782, 0.000000000000000029, -0.000000000000000029, 0.74782, -9.226357, 60.113854)" fill="none" stroke-linejoin="miter" d="M -0.00027542 1.999841 L 360.960502 1.999841 " stroke="#000000" stroke-width="4" stroke-opacity="1" stroke-miterlimit="4"/></g><g clip-path="url(#37c88b9228)"><path stroke-linecap="butt" transform="matrix(0.74782, 0, 0, 0.74782, -15.373313, 125.981857)" fill="none" stroke-linejoin="miter" d="M -0.0022553 1.998751 L 375.312751 1.998751 " stroke="#000000" stroke-width="4" stroke-opacity="1" stroke-miterlimit="4"/></g><g clip-path="url(#2440828776)"><path stroke-linecap="butt" transform="matrix(0.74782, 0, 0, 0.74782, 0, 183.362635)" fill="none" stroke-linejoin="miter" d="M 0 2.001471 L 375.315006 2.001471 " stroke="#000000" stroke-width="4" stroke-opacity="1" stroke-miterlimit="4"/></g><g clip-path="url(#2d120f5082)"><path stroke-linecap="butt" transform="matrix(0, -0.74782, 0.74782, 0, -0.00297822, 191.88746)" fill="none" stroke-linejoin="miter" d="M 0.000990604 1.999366 L 253.90054 1.999366 " stroke="#000000" stroke-width="4" stroke-opacity="1" stroke-miterlimit="4"/></g><g clip-path="url(#7488d710d0)"><path stroke-linecap="butt" transform="matrix(0, -0.74782, 0.74782, 0, 253.62248, 191.509838)" fill="none" stroke-linejoin="miter" d="M -0.00251485 1.998754 L 253.897034 1.998754 " stroke="#000000" stroke-width="4" stroke-opacity="1" stroke-miterlimit="4"/></g><g clip-path="url(#c6d4bf36a3)"><path stroke-linecap="butt" transform="matrix(0, -0.74782, 0.74782, 0, 80.404219, 190.014199)" fill="none" stroke-linejoin="miter" d="M -0.00190738 1.9981 L 253.897642 1.9981 " stroke="#000000" stroke-width="4" stroke-opacity="1" stroke-miterlimit="4"/></g><g clip-path="url(#2b10971df4)"><path stroke-linecap="butt" transform="matrix(0, -0.74782, 0.74782, 0, 164.143453, 188.182567)" fill="none" stroke-linejoin="miter" d="M -0.00137335 2.00205 L 253.898176 2.00205 " stroke="#000000" stroke-width="4" stroke-opacity="1" stroke-miterlimit="4"/></g><g clip-path="url(#21d82cc27a)"><path fill="#212121" d="M 124.742188 81.160156 L 134.148438 97.550781 L 134.148438 97.554688 L 143.550781 113.945312 L 144.226562 115.125 L 103.902344 115.125 L 104.582031 113.945312 L 113.984375 97.554688 L 113.984375 97.550781 L 123.390625 81.160156 L 124.066406 79.980469 Z M 132.796875 98.339844 L 132.792969 98.339844 L 124.066406 83.128906 L 115.339844 98.339844 L 115.335938 98.339844 L 106.609375 113.546875 L 141.519531 113.546875 L 132.796875 98.339844 " fill-opacity="1" fill-rule="nonzero"/></g><g clip-path="url(#c2676a7847)"><g transform="matrix(1, 0, 0, 1, 107, 11)"><g clip-path="url(#d021c6f75e)"><g clip-path="url(#ef3c767b6c)"><path fill="#212121" d="M 31.722656 19.648438 L 15.332031 10.242188 L 15.328125 10.242188 L -1.0625 0.839844 L -2.242188 0.164062 L -2.242188 40.488281 L -1.0625 39.808594 L 15.328125 30.40625 L 15.332031 30.40625 L 31.722656 21 L 32.902344 20.324219 Z M 14.542969 11.59375 L 14.542969 11.597656 L 29.753906 20.324219 L 14.542969 29.050781 L 14.542969 29.054688 L -0.664062 37.78125 L -0.664062 2.871094 L 14.542969 11.59375 " fill-opacity="1" fill-rule="nonzero"/></g></g></g></g><g clip-path="url(#003e0749fb)"><g transform="matrix(1, 0, 0, 1, 191, 16)"><g clip-path="url(#4cd45dbf64)"><g clip-path="url(#36c379f7ab)"><path fill="#212121" d="M 18.988281 32.066406 L 9.582031 15.675781 L 9.582031 15.671875 L 0.179688 -0.71875 L -0.496094 -1.898438 L 39.828125 -1.898438 L 39.148438 -0.71875 L 29.746094 15.671875 L 29.746094 15.675781 L 20.339844 32.066406 L 19.664062 33.246094 Z M 10.933594 14.886719 L 10.9375 14.886719 L 19.664062 30.097656 L 28.390625 14.886719 L 28.394531 14.886719 L 37.121094 -0.320312 L 2.210938 -0.320312 L 10.933594 14.886719 " fill-opacity="1" fill-rule="nonzero"/></g></g></g></g><g clip-path="url(#bbb51d79b8)"><g transform="matrix(1, 0, 0, 1, 21, 143)"><g clip-path="url(#7e208ce1ee)"><g clip-path="url(#9ab687afd4)"><path fill="#212121" d="M 19.722656 31.792969 L 10.320312 15.402344 L 0.914062 -0.988281 L 0.238281 -2.167969 L 40.5625 -2.167969 L 39.886719 -0.988281 L 30.480469 15.402344 L 21.078125 31.792969 L 20.398438 32.972656 Z M 11.671875 14.617188 L 20.398438 29.828125 L 29.128906 14.617188 L 37.855469 -0.59375 L 2.945312 -0.59375 L 11.671875 14.617188 " fill-opacity="1" fill-rule="nonzero"/></g></g></g></g><g clip-path="url(#88e0f769f1)"><g transform="matrix(1, 0, 0, 1, 25, 76)"><g clip-path="url(#52cf19d07a)"><g clip-path="url(#0b85a26aeb)"><path fill="#212121" d="M 1.746094 21.085938 L 18.136719 30.488281 L 34.527344 39.894531 L 35.707031 40.570312 L 35.707031 0.246094 L 34.527344 0.921875 L 1.746094 19.734375 L 0.566406 20.410156 Z M 18.921875 29.136719 L 3.710938 20.410156 L 18.921875 11.679688 L 34.132812 2.953125 L 34.132812 37.863281 L 18.921875 29.136719 " fill-opacity="1" fill-rule="nonzero"/></g></g></g></g><g clip-path="url(#d71aeb0599)"><g transform="matrix(1, 0, 0, 1, 107, 137)"><g clip-path="url(#09176aa0e2)"><g clip-path="url(#61b31fd2a8)"><path fill="#212121" d="M 1.816406 21.0625 L 18.207031 30.46875 L 18.210938 30.46875 L 34.601562 39.871094 L 35.78125 40.546875 L 35.78125 0.222656 L 34.601562 0.902344 L 18.210938 10.304688 L 18.207031 10.304688 L 1.816406 19.710938 L 0.636719 20.386719 Z M 18.996094 29.117188 L 18.996094 29.113281 L 3.785156 20.386719 L 18.996094 11.660156 L 18.996094 11.65625 L 34.203125 2.929688 L 34.203125 37.839844 L 18.996094 29.117188 " fill-opacity="1" fill-rule="nonzero"/></g></g></g></g><g clip-path="url(#d9aac2b44d)"><g transform="matrix(1, 0, 0, 1, 196, 76)"><g clip-path="url(#5f33ce5626)"><g clip-path="url(#8c3d814a7f)"><path fill="#212121" d="M 31.859375 19.140625 L 15.46875 9.734375 L 15.464844 9.734375 L -0.925781 0.332031 L -2.105469 -0.34375 L -2.105469 39.980469 L -0.925781 39.300781 L 15.464844 29.898438 L 15.46875 29.898438 L 31.859375 20.492188 L 33.039062 19.816406 Z M 14.679688 11.085938 L 14.679688 11.089844 L 29.890625 19.816406 L 14.679688 28.542969 L 14.679688 28.546875 L -0.527344 37.273438 L -0.527344 2.359375 L 14.679688 11.085938 " fill-opacity="1" fill-rule="nonzero"/></g></g></g></g><g clip-path="url(#d38a5dc45a)"><path fill="#000000" d="M 45.980469 37.234375 C 45.980469 37.503906 45.953125 37.769531 45.902344 38.035156 C 45.847656 38.300781 45.769531 38.558594 45.667969 38.804688 C 45.5625 39.054688 45.4375 39.292969 45.285156 39.519531 C 45.136719 39.742188 44.964844 39.949219 44.773438 40.140625 C 44.585938 40.332031 44.375 40.503906 44.152344 40.652344 C 43.925781 40.800781 43.691406 40.929688 43.441406 41.03125 C 43.191406 41.136719 42.933594 41.214844 42.667969 41.265625 C 42.40625 41.320312 42.136719 41.34375 41.867188 41.34375 C 41.597656 41.34375 41.328125 41.320312 41.066406 41.265625 C 40.800781 41.214844 40.542969 41.136719 40.292969 41.03125 C 40.042969 40.929688 39.804688 40.800781 39.582031 40.652344 C 39.355469 40.503906 39.148438 40.332031 38.957031 40.140625 C 38.769531 39.949219 38.597656 39.742188 38.445312 39.519531 C 38.296875 39.292969 38.171875 39.054688 38.066406 38.804688 C 37.964844 38.558594 37.886719 38.300781 37.832031 38.035156 C 37.78125 37.769531 37.753906 37.503906 37.753906 37.234375 C 37.753906 36.960938 37.78125 36.695312 37.832031 36.429688 C 37.886719 36.164062 37.964844 35.90625 38.066406 35.660156 C 38.171875 35.410156 38.296875 35.171875 38.445312 34.949219 C 38.597656 34.722656 38.769531 34.515625 38.957031 34.324219 C 39.148438 34.132812 39.355469 33.960938 39.582031 33.8125 C 39.804688 33.664062 40.042969 33.535156 40.292969 33.433594 C 40.542969 33.328125 40.800781 33.25 41.066406 33.199219 C 41.328125 33.144531 41.597656 33.121094 41.867188 33.121094 C 42.136719 33.121094 42.40625 33.144531 42.667969 33.199219 C 42.933594 33.25 43.191406 33.328125 43.441406 33.433594 C 43.691406 33.535156 43.925781 33.664062 44.152344 33.8125 C 44.375 33.960938 44.585938 34.132812 44.773438 34.324219 C 44.964844 34.515625 45.136719 34.722656 45.285156 34.949219 C 45.4375 35.171875 45.5625 35.410156 45.667969 35.660156 C 45.769531 35.90625 45.847656 36.164062 45.902344 36.429688 C 45.953125 36.695312 45.980469 36.960938 45.980469 37.234375 Z M 45.980469 37.234375 " fill-opacity="1" fill-rule="nonzero"/></g><g clip-path="url(#30bf694df7)"><path fill="#000000" d="M 128.054688 31.660156 C 128.054688 31.929688 128.027344 32.195312 127.972656 32.460938 C 127.921875 32.726562 127.84375 32.984375 127.738281 33.230469 C 127.636719 33.480469 127.511719 33.71875 127.359375 33.941406 C 127.210938 34.167969 127.039062 34.375 126.847656 34.566406 C 126.65625 34.757812 126.449219 34.929688 126.226562 35.078125 C 126 35.226562 125.761719 35.355469 125.515625 35.457031 C 125.265625 35.5625 125.007812 35.640625 124.742188 35.691406 C 124.476562 35.746094 124.210938 35.769531 123.941406 35.769531 C 123.671875 35.769531 123.402344 35.746094 123.136719 35.691406 C 122.871094 35.640625 122.617188 35.5625 122.367188 35.457031 C 122.117188 35.355469 121.878906 35.226562 121.65625 35.078125 C 121.429688 34.929688 121.222656 34.757812 121.03125 34.566406 C 120.839844 34.375 120.671875 34.167969 120.519531 33.941406 C 120.371094 33.71875 120.242188 33.480469 120.140625 33.230469 C 120.035156 32.984375 119.957031 32.726562 119.90625 32.460938 C 119.855469 32.195312 119.828125 31.929688 119.828125 31.660156 C 119.828125 31.386719 119.855469 31.121094 119.90625 30.855469 C 119.957031 30.589844 120.035156 30.332031 120.140625 30.085938 C 120.242188 29.835938 120.371094 29.597656 120.519531 29.375 C 120.671875 29.148438 120.839844 28.941406 121.03125 28.75 C 121.222656 28.558594 121.429688 28.386719 121.65625 28.238281 C 121.878906 28.089844 122.117188 27.960938 122.367188 27.859375 C 122.617188 27.753906 122.871094 27.675781 123.136719 27.625 C 123.402344 27.570312 123.671875 27.546875 123.941406 27.546875 C 124.210938 27.546875 124.476562 27.570312 124.742188 27.625 C 125.007812 27.675781 125.265625 27.753906 125.515625 27.859375 C 125.761719 27.960938 126 28.089844 126.226562 28.238281 C 126.449219 28.386719 126.65625 28.558594 126.847656 28.75 C 127.039062 28.941406 127.210938 29.148438 127.359375 29.375 C 127.511719 29.597656 127.636719 29.835938 127.738281 30.085938 C 127.84375 30.332031 127.921875 30.589844 127.972656 30.855469 C 128.027344 31.121094 128.054688 31.386719 128.054688 31.660156 Z M 128.054688 31.660156 " fill-opacity="1" fill-rule="nonzero"/></g><g clip-path="url(#76a46fa794)"><path fill="#000000" d="M 120.164062 26.21875 C 120.164062 26.488281 120.136719 26.757812 120.082031 27.023438 C 120.03125 27.285156 119.953125 27.542969 119.847656 27.792969 C 119.746094 28.042969 119.621094 28.28125 119.46875 28.503906 C 119.320312 28.730469 119.148438 28.9375 118.957031 29.128906 C 118.765625 29.320312 118.558594 29.488281 118.335938 29.640625 C 118.109375 29.789062 117.875 29.914062 117.625 30.019531 C 117.375 30.121094 117.117188 30.199219 116.851562 30.253906 C 116.585938 30.304688 116.320312 30.332031 116.050781 30.332031 C 115.78125 30.332031 115.511719 30.304688 115.246094 30.253906 C 114.980469 30.199219 114.726562 30.121094 114.476562 30.019531 C 114.226562 29.914062 113.988281 29.789062 113.765625 29.640625 C 113.539062 29.488281 113.332031 29.320312 113.140625 29.128906 C 112.949219 28.9375 112.78125 28.730469 112.628906 28.503906 C 112.480469 28.28125 112.351562 28.042969 112.25 27.792969 C 112.144531 27.542969 112.066406 27.285156 112.015625 27.023438 C 111.964844 26.757812 111.9375 26.488281 111.9375 26.21875 C 111.9375 25.949219 111.964844 25.683594 112.015625 25.417969 C 112.066406 25.152344 112.144531 24.894531 112.25 24.644531 C 112.351562 24.394531 112.480469 24.160156 112.628906 23.933594 C 112.78125 23.710938 112.949219 23.5 113.140625 23.3125 C 113.332031 23.121094 113.539062 22.949219 113.765625 22.800781 C 113.988281 22.648438 114.226562 22.523438 114.476562 22.417969 C 114.726562 22.316406 114.980469 22.238281 115.246094 22.183594 C 115.511719 22.132812 115.78125 22.105469 116.050781 22.105469 C 116.320312 22.105469 116.585938 22.132812 116.851562 22.183594 C 117.117188 22.238281 117.375 22.316406 117.625 22.417969 C 117.875 22.523438 118.109375 22.648438 118.335938 22.800781 C 118.558594 22.949219 118.765625 23.121094 118.957031 23.3125 C 119.148438 23.5 119.320312 23.710938 119.46875 23.933594 C 119.621094 24.160156 119.746094 24.394531 119.847656 24.644531 C 119.953125 24.894531 120.03125 25.152344 120.082031 25.417969 C 120.136719 25.683594 120.164062 25.949219 120.164062 26.21875 Z M 120.164062 26.21875 " fill-opacity="1" fill-rule="nonzero"/></g><g clip-path="url(#86937af8d6)"><path fill="#000000" d="M 120.164062 35.902344 C 120.164062 36.171875 120.136719 36.441406 120.082031 36.703125 C 120.03125 36.96875 119.953125 37.226562 119.847656 37.476562 C 119.746094 37.726562 119.621094 37.964844 119.46875 38.1875 C 119.320312 38.414062 119.148438 38.621094 118.957031 38.8125 C 118.765625 39 118.558594 39.171875 118.335938 39.324219 C 118.109375 39.472656 117.875 39.597656 117.625 39.703125 C 117.375 39.804688 117.117188 39.882812 116.851562 39.9375 C 116.585938 39.988281 116.320312 40.015625 116.050781 40.015625 C 115.78125 40.015625 115.511719 39.988281 115.246094 39.9375 C 114.980469 39.882812 114.726562 39.804688 114.476562 39.703125 C 114.226562 39.597656 113.988281 39.472656 113.765625 39.324219 C 113.539062 39.171875 113.332031 39 113.140625 38.8125 C 112.949219 38.621094 112.78125 38.414062 112.628906 38.1875 C 112.480469 37.964844 112.351562 37.726562 112.25 37.476562 C 112.144531 37.226562 112.066406 36.96875 112.015625 36.703125 C 111.964844 36.441406 111.9375 36.171875 111.9375 35.902344 C 111.9375 35.632812 111.964844 35.363281 112.015625 35.101562 C 112.066406 34.835938 112.144531 34.578125 112.25 34.328125 C 112.351562 34.078125 112.480469 33.84375 112.628906 33.617188 C 112.78125 33.394531 112.949219 33.183594 113.140625 32.996094 C 113.332031 32.804688 113.539062 32.632812 113.765625 32.484375 C 113.988281 32.332031 114.226562 32.207031 114.476562 32.101562 C 114.726562 32 114.980469 31.921875 115.246094 31.867188 C 115.511719 31.816406 115.78125 31.789062 116.050781 31.789062 C 116.320312 31.789062 116.585938 31.816406 116.851562 31.867188 C 117.117188 31.921875 117.375 32 117.625 32.101562 C 117.875 32.207031 118.109375 32.332031 118.335938 32.484375 C 118.558594 32.632812 118.765625 32.804688 118.957031 32.996094 C 119.148438 33.183594 119.320312 33.394531 119.46875 33.617188 C 119.621094 33.84375 119.746094 34.078125 119.847656 34.328125 C 119.953125 34.578125 120.03125 34.835938 120.082031 35.101562 C 120.136719 35.363281 120.164062 35.632812 120.164062 35.902344 Z M 120.164062 35.902344 " fill-opacity="1" fill-rule="nonzero"/></g><g clip-path="url(#780b940954)"><path fill="#000000" d="M 211.300781 28.011719 C 211.300781 28.28125 211.273438 28.550781 211.21875 28.8125 C 211.167969 29.078125 211.089844 29.335938 210.984375 29.585938 C 210.882812 29.835938 210.757812 30.074219 210.605469 30.296875 C 210.457031 30.523438 210.285156 30.730469 210.09375 30.921875 C 209.902344 31.109375 209.695312 31.28125 209.472656 31.433594 C 209.246094 31.582031 209.011719 31.707031 208.761719 31.8125 C 208.511719 31.914062 208.253906 31.992188 207.988281 32.046875 C 207.722656 32.097656 207.457031 32.125 207.1875 32.125 C 206.917969 32.125 206.648438 32.097656 206.382812 32.046875 C 206.117188 31.992188 205.863281 31.914062 205.613281 31.8125 C 205.363281 31.707031 205.125 31.582031 204.902344 31.433594 C 204.675781 31.28125 204.46875 31.109375 204.277344 30.921875 C 204.085938 30.730469 203.917969 30.523438 203.765625 30.296875 C 203.617188 30.074219 203.488281 29.835938 203.386719 29.585938 C 203.28125 29.335938 203.203125 29.078125 203.152344 28.8125 C 203.101562 28.550781 203.074219 28.28125 203.074219 28.011719 C 203.074219 27.742188 203.101562 27.472656 203.152344 27.210938 C 203.203125 26.945312 203.28125 26.6875 203.386719 26.4375 C 203.488281 26.1875 203.617188 25.953125 203.765625 25.726562 C 203.917969 25.503906 204.085938 25.292969 204.277344 25.105469 C 204.46875 24.914062 204.675781 24.742188 204.902344 24.59375 C 205.125 24.441406 205.363281 24.316406 205.613281 24.210938 C 205.863281 24.109375 206.117188 24.03125 206.382812 23.976562 C 206.648438 23.925781 206.917969 23.898438 207.1875 23.898438 C 207.457031 23.898438 207.722656 23.925781 207.988281 23.976562 C 208.253906 24.03125 208.511719 24.109375 208.761719 24.210938 C 209.011719 24.316406 209.246094 24.441406 209.472656 24.59375 C 209.695312 24.742188 209.902344 24.914062 210.09375 25.105469 C 210.285156 25.292969 210.457031 25.503906 210.605469 25.726562 C 210.757812 25.953125 210.882812 26.1875 210.984375 26.4375 C 211.089844 26.6875 211.167969 26.945312 211.21875 27.210938 C 211.273438 27.472656 211.300781 27.742188 211.300781 28.011719 Z M 211.300781 28.011719 " fill-opacity="1" fill-rule="nonzero"/></g><g clip-path="url(#861aac7dd0)"><path fill="#000000" d="M 219.191406 27.714844 C 219.191406 27.984375 219.164062 28.25 219.109375 28.515625 C 219.058594 28.78125 218.980469 29.039062 218.875 29.285156 C 218.773438 29.535156 218.648438 29.773438 218.496094 29.996094 C 218.347656 30.222656 218.175781 30.429688 217.984375 30.621094 C 217.792969 30.8125 217.585938 30.984375 217.363281 31.132812 C 217.136719 31.28125 216.902344 31.410156 216.652344 31.511719 C 216.402344 31.617188 216.144531 31.695312 215.878906 31.746094 C 215.613281 31.800781 215.347656 31.824219 215.078125 31.824219 C 214.808594 31.824219 214.539062 31.800781 214.273438 31.746094 C 214.007812 31.695312 213.753906 31.617188 213.503906 31.511719 C 213.253906 31.410156 213.015625 31.28125 212.792969 31.132812 C 212.566406 30.984375 212.359375 30.8125 212.167969 30.621094 C 211.976562 30.429688 211.808594 30.222656 211.65625 29.996094 C 211.507812 29.773438 211.378906 29.535156 211.277344 29.285156 C 211.171875 29.039062 211.09375 28.78125 211.042969 28.515625 C 210.992188 28.25 210.964844 27.984375 210.964844 27.714844 C 210.964844 27.441406 210.992188 27.175781 211.042969 26.910156 C 211.09375 26.644531 211.171875 26.386719 211.277344 26.140625 C 211.378906 25.890625 211.507812 25.652344 211.65625 25.429688 C 211.808594 25.203125 211.976562 24.996094 212.167969 24.804688 C 212.359375 24.613281 212.566406 24.441406 212.792969 24.292969 C 213.015625 24.144531 213.253906 24.015625 213.503906 23.914062 C 213.753906 23.808594 214.007812 23.730469 214.273438 23.679688 C 214.539062 23.625 214.808594 23.601562 215.078125 23.601562 C 215.347656 23.601562 215.613281 23.625 215.878906 23.679688 C 216.144531 23.730469 216.402344 23.808594 216.652344 23.914062 C 216.902344 24.015625 217.136719 24.144531 217.363281 24.292969 C 217.585938 24.441406 217.792969 24.613281 217.984375 24.804688 C 218.175781 24.996094 218.347656 25.203125 218.496094 25.429688 C 218.648438 25.652344 218.773438 25.890625 218.875 26.140625 C 218.980469 26.386719 219.058594 26.644531 219.109375 26.910156 C 219.164062 27.175781 219.191406 27.441406 219.191406 27.714844 Z M 219.191406 27.714844 " fill-opacity="1" fill-rule="nonzero"/></g><g clip-path="url(#9dd9facf3f)"><path fill="#000000" d="M 53.871094 101.726562 C 53.871094 101.996094 53.84375 102.261719 53.792969 102.527344 C 53.738281 102.792969 53.660156 103.050781 53.558594 103.296875 C 53.453125 103.546875 53.328125 103.785156 53.175781 104.011719 C 53.027344 104.234375 52.855469 104.441406 52.664062 104.632812 C 52.476562 104.824219 52.265625 104.996094 52.042969 105.144531 C 51.816406 105.292969 51.582031 105.421875 51.332031 105.523438 C 51.082031 105.628906 50.824219 105.707031 50.558594 105.757812 C 50.296875 105.8125 50.027344 105.835938 49.757812 105.835938 C 49.488281 105.835938 49.21875 105.8125 48.957031 105.757812 C 48.691406 105.707031 48.433594 105.628906 48.183594 105.523438 C 47.933594 105.421875 47.695312 105.292969 47.472656 105.144531 C 47.246094 104.996094 47.039062 104.824219 46.847656 104.632812 C 46.660156 104.441406 46.488281 104.234375 46.335938 104.011719 C 46.1875 103.785156 46.0625 103.546875 45.957031 103.296875 C 45.855469 103.050781 45.777344 102.792969 45.722656 102.527344 C 45.671875 102.261719 45.644531 101.996094 45.644531 101.726562 C 45.644531 101.453125 45.671875 101.1875 45.722656 100.921875 C 45.777344 100.65625 45.855469 100.398438 45.957031 100.152344 C 46.0625 99.902344 46.1875 99.664062 46.335938 99.441406 C 46.488281 99.214844 46.660156 99.007812 46.847656 98.816406 C 47.039062 98.625 47.246094 98.453125 47.472656 98.304688 C 47.695312 98.15625 47.933594 98.027344 48.183594 97.925781 C 48.433594 97.820312 48.691406 97.742188 48.957031 97.691406 C 49.21875 97.636719 49.488281 97.613281 49.757812 97.613281 C 50.027344 97.613281 50.296875 97.636719 50.558594 97.691406 C 50.824219 97.742188 51.082031 97.820312 51.332031 97.925781 C 51.582031 98.027344 51.816406 98.15625 52.042969 98.304688 C 52.265625 98.453125 52.476562 98.625 52.664062 98.816406 C 52.855469 99.007812 53.027344 99.214844 53.175781 99.441406 C 53.328125 99.664062 53.453125 99.902344 53.558594 100.152344 C 53.660156 100.398438 53.738281 100.65625 53.792969 100.921875 C 53.84375 101.1875 53.871094 101.453125 53.871094 101.726562 Z M 53.871094 101.726562 " fill-opacity="1" fill-rule="nonzero"/></g><g clip-path="url(#c10702fed7)"><path fill="#000000" d="M 53.871094 92.339844 C 53.871094 92.609375 53.84375 92.878906 53.792969 93.144531 C 53.738281 93.40625 53.660156 93.664062 53.558594 93.914062 C 53.453125 94.164062 53.328125 94.402344 53.175781 94.625 C 53.027344 94.851562 52.855469 95.058594 52.664062 95.25 C 52.476562 95.441406 52.265625 95.609375 52.042969 95.761719 C 51.816406 95.910156 51.582031 96.035156 51.332031 96.140625 C 51.082031 96.242188 50.824219 96.320312 50.558594 96.375 C 50.296875 96.425781 50.027344 96.453125 49.757812 96.453125 C 49.488281 96.453125 49.21875 96.425781 48.957031 96.375 C 48.691406 96.320312 48.433594 96.242188 48.183594 96.140625 C 47.933594 96.035156 47.695312 95.910156 47.472656 95.761719 C 47.246094 95.609375 47.039062 95.441406 46.847656 95.25 C 46.660156 95.058594 46.488281 94.851562 46.335938 94.625 C 46.1875 94.402344 46.0625 94.164062 45.957031 93.914062 C 45.855469 93.664062 45.777344 93.40625 45.722656 93.144531 C 45.671875 92.878906 45.644531 92.609375 45.644531 92.339844 C 45.644531 92.070312 45.671875 91.804688 45.722656 91.539062 C 45.777344 91.273438 45.855469 91.015625 45.957031 90.765625 C 46.0625 90.515625 46.1875 90.28125 46.335938 90.054688 C 46.488281 89.832031 46.660156 89.625 46.847656 89.433594 C 47.039062 89.242188 47.246094 89.070312 47.472656 88.921875 C 47.695312 88.769531 47.933594 88.644531 48.183594 88.539062 C 48.433594 88.4375 48.691406 88.359375 48.957031 88.304688 C 49.21875 88.253906 49.488281 88.226562 49.757812 88.226562 C 50.027344 88.226562 50.296875 88.253906 50.558594 88.304688 C 50.824219 88.359375 51.082031 88.4375 51.332031 88.539062 C 51.582031 88.644531 51.816406 88.769531 52.042969 88.921875 C 52.265625 89.070312 52.476562 89.242188 52.664062 89.433594 C 52.855469 89.625 53.027344 89.832031 53.175781 90.054688 C 53.328125 90.28125 53.453125 90.515625 53.558594 90.765625 C 53.660156 91.015625 53.738281 91.273438 53.792969 91.539062 C 53.84375 91.804688 53.871094 92.070312 53.871094 92.339844 Z M 53.871094 92.339844 " fill-opacity="1" fill-rule="nonzero"/></g><g clip-path="url(#207fe60272)"><path fill="#000000" d="M 45.980469 97.363281 C 45.980469 97.632812 45.953125 97.902344 45.902344 98.164062 C 45.847656 98.429688 45.769531 98.6875 45.667969 98.9375 C 45.5625 99.1875 45.4375 99.425781 45.285156 99.648438 C 45.136719 99.871094 44.964844 100.082031 44.773438 100.273438 C 44.585938 100.460938 44.375 100.632812 44.152344 100.785156 C 43.925781 100.933594 43.691406 101.058594 43.441406 101.164062 C 43.191406 101.265625 42.933594 101.34375 42.667969 101.398438 C 42.40625 101.449219 42.136719 101.476562 41.867188 101.476562 C 41.597656 101.476562 41.328125 101.449219 41.066406 101.398438 C 40.800781 101.34375 40.542969 101.265625 40.292969 101.164062 C 40.042969 101.058594 39.804688 100.933594 39.582031 100.785156 C 39.355469 100.632812 39.148438 100.460938 38.957031 100.273438 C 38.769531 100.082031 38.597656 99.871094 38.445312 99.648438 C 38.296875 99.425781 38.171875 99.1875 38.066406 98.9375 C 37.964844 98.6875 37.886719 98.429688 37.832031 98.164062 C 37.78125 97.902344 37.753906 97.632812 37.753906 97.363281 C 37.753906 97.09375 37.78125 96.824219 37.832031 96.5625 C 37.886719 96.296875 37.964844 96.039062 38.066406 95.789062 C 38.171875 95.539062 38.296875 95.304688 38.445312 95.078125 C 38.597656 94.855469 38.769531 94.644531 38.957031 94.453125 C 39.148438 94.265625 39.355469 94.09375 39.582031 93.945312 C 39.804688 93.792969 40.042969 93.667969 40.292969 93.5625 C 40.542969 93.460938 40.800781 93.382812 41.066406 93.328125 C 41.328125 93.277344 41.597656 93.25 41.867188 93.25 C 42.136719 93.25 42.40625 93.277344 42.667969 93.328125 C 42.933594 93.382812 43.191406 93.460938 43.441406 93.5625 C 43.691406 93.667969 43.925781 93.792969 44.152344 93.945312 C 44.375 94.09375 44.585938 94.265625 44.773438 94.453125 C 44.964844 94.644531 45.136719 94.855469 45.285156 95.078125 C 45.4375 95.304688 45.5625 95.539062 45.667969 95.789062 C 45.769531 96.039062 45.847656 96.296875 45.902344 96.5625 C 45.953125 96.824219 45.980469 97.09375 45.980469 97.363281 Z M 45.980469 97.363281 " fill-opacity="1" fill-rule="nonzero"/></g><g clip-path="url(#66f4e95281)"><path fill="#000000" d="M 124.109375 101.726562 C 124.109375 101.996094 124.082031 102.261719 124.027344 102.527344 C 123.976562 102.792969 123.898438 103.050781 123.792969 103.296875 C 123.691406 103.546875 123.566406 103.785156 123.414062 104.011719 C 123.265625 104.234375 123.09375 104.441406 122.902344 104.632812 C 122.710938 104.824219 122.503906 104.996094 122.28125 105.144531 C 122.054688 105.292969 121.820312 105.421875 121.570312 105.523438 C 121.320312 105.628906 121.0625 105.707031 120.796875 105.757812 C 120.53125 105.8125 120.265625 105.835938 119.996094 105.835938 C 119.726562 105.835938 119.457031 105.8125 119.191406 105.757812 C 118.925781 105.707031 118.671875 105.628906 118.421875 105.523438 C 118.171875 105.421875 117.933594 105.292969 117.710938 105.144531 C 117.484375 104.996094 117.277344 104.824219 117.085938 104.632812 C 116.894531 104.441406 116.726562 104.234375 116.574219 104.011719 C 116.425781 103.785156 116.296875 103.546875 116.195312 103.296875 C 116.089844 103.050781 116.011719 102.792969 115.960938 102.527344 C 115.910156 102.261719 115.882812 101.996094 115.882812 101.726562 C 115.882812 101.453125 115.910156 101.1875 115.960938 100.921875 C 116.011719 100.65625 116.089844 100.398438 116.195312 100.152344 C 116.296875 99.902344 116.425781 99.664062 116.574219 99.441406 C 116.726562 99.214844 116.894531 99.007812 117.085938 98.816406 C 117.277344 98.625 117.484375 98.453125 117.710938 98.304688 C 117.933594 98.15625 118.171875 98.027344 118.421875 97.925781 C 118.671875 97.820312 118.925781 97.742188 119.191406 97.691406 C 119.457031 97.636719 119.726562 97.613281 119.996094 97.613281 C 120.265625 97.613281 120.53125 97.636719 120.796875 97.691406 C 121.0625 97.742188 121.320312 97.820312 121.570312 97.925781 C 121.820312 98.027344 122.054688 98.15625 122.28125 98.304688 C 122.503906 98.453125 122.710938 98.625 122.902344 98.816406 C 123.09375 99.007812 123.265625 99.214844 123.414062 99.441406 C 123.566406 99.664062 123.691406 99.902344 123.792969 100.152344 C 123.898438 100.398438 123.976562 100.65625 124.027344 100.921875 C 124.082031 101.1875 124.109375 101.453125 124.109375 101.726562 Z M 124.109375 101.726562 " fill-opacity="1" fill-rule="nonzero"/></g><g clip-path="url(#309b8bb8f4)"><path fill="#000000" d="M 132.589844 101.308594 C 132.589844 101.578125 132.5625 101.847656 132.511719 102.109375 C 132.457031 102.375 132.378906 102.632812 132.277344 102.882812 C 132.171875 103.132812 132.046875 103.371094 131.894531 103.59375 C 131.746094 103.816406 131.574219 104.027344 131.382812 104.21875 C 131.195312 104.40625 130.984375 104.578125 130.761719 104.726562 C 130.535156 104.878906 130.300781 105.003906 130.050781 105.109375 C 129.800781 105.210938 129.542969 105.289062 129.277344 105.34375 C 129.011719 105.394531 128.746094 105.421875 128.476562 105.421875 C 128.207031 105.421875 127.9375 105.394531 127.671875 105.34375 C 127.410156 105.289062 127.152344 105.210938 126.902344 105.109375 C 126.652344 105.003906 126.414062 104.878906 126.191406 104.726562 C 125.964844 104.578125 125.757812 104.40625 125.566406 104.21875 C 125.375 104.027344 125.207031 103.816406 125.054688 103.59375 C 124.90625 103.371094 124.78125 103.132812 124.675781 102.882812 C 124.574219 102.632812 124.496094 102.375 124.441406 102.109375 C 124.390625 101.847656 124.363281 101.578125 124.363281 101.308594 C 124.363281 101.039062 124.390625 100.769531 124.441406 100.507812 C 124.496094 100.242188 124.574219 99.984375 124.675781 99.734375 C 124.78125 99.484375 124.90625 99.25 125.054688 99.023438 C 125.207031 98.800781 125.375 98.589844 125.566406 98.398438 C 125.757812 98.210938 125.964844 98.039062 126.191406 97.890625 C 126.414062 97.738281 126.652344 97.613281 126.902344 97.507812 C 127.152344 97.40625 127.410156 97.328125 127.671875 97.273438 C 127.9375 97.222656 128.207031 97.195312 128.476562 97.195312 C 128.746094 97.195312 129.011719 97.222656 129.277344 97.273438 C 129.542969 97.328125 129.800781 97.40625 130.050781 97.507812 C 130.300781 97.613281 130.535156 97.738281 130.761719 97.890625 C 130.984375 98.039062 131.195312 98.210938 131.382812 98.398438 C 131.574219 98.589844 131.746094 98.800781 131.894531 99.023438 C 132.046875 99.25 132.171875 99.484375 132.277344 99.734375 C 132.378906 99.984375 132.457031 100.242188 132.511719 100.507812 C 132.5625 100.769531 132.589844 101.039062 132.589844 101.308594 Z M 132.589844 101.308594 " fill-opacity="1" fill-rule="nonzero"/></g><g clip-path="url(#c1da87aaa1)"><path fill="#000000" d="M 215.246094 96.285156 C 215.246094 96.554688 215.21875 96.824219 215.164062 97.089844 C 215.113281 97.351562 215.035156 97.609375 214.929688 97.859375 C 214.828125 98.109375 214.703125 98.347656 214.550781 98.570312 C 214.402344 98.796875 214.230469 99.003906 214.039062 99.195312 C 213.847656 99.386719 213.640625 99.554688 213.417969 99.707031 C 213.191406 99.855469 212.957031 99.980469 212.707031 100.085938 C 212.457031 100.1875 212.199219 100.265625 211.933594 100.320312 C 211.667969 100.371094 211.402344 100.398438 211.132812 100.398438 C 210.863281 100.398438 210.59375 100.371094 210.328125 100.320312 C 210.0625 100.265625 209.808594 100.1875 209.558594 100.085938 C 209.308594 99.980469 209.070312 99.855469 208.847656 99.707031 C 208.621094 99.554688 208.414062 99.386719 208.222656 99.195312 C 208.03125 99.003906 207.863281 98.796875 207.710938 98.570312 C 207.5625 98.347656 207.433594 98.109375 207.332031 97.859375 C 207.226562 97.609375 207.148438 97.351562 207.097656 97.089844 C 207.046875 96.824219 207.019531 96.554688 207.019531 96.285156 C 207.019531 96.015625 207.046875 95.75 207.097656 95.484375 C 207.148438 95.21875 207.226562 94.960938 207.332031 94.710938 C 207.433594 94.460938 207.5625 94.226562 207.710938 94 C 207.863281 93.777344 208.03125 93.570312 208.222656 93.378906 C 208.414062 93.1875 208.621094 93.015625 208.847656 92.867188 C 209.070312 92.714844 209.308594 92.589844 209.558594 92.484375 C 209.808594 92.382812 210.0625 92.304688 210.328125 92.25 C 210.59375 92.199219 210.863281 92.171875 211.132812 92.171875 C 211.402344 92.171875 211.667969 92.199219 211.933594 92.25 C 212.199219 92.304688 212.457031 92.382812 212.707031 92.484375 C 212.957031 92.589844 213.191406 92.714844 213.417969 92.867188 C 213.640625 93.015625 213.847656 93.1875 214.039062 93.378906 C 214.230469 93.570312 214.402344 93.777344 214.550781 94 C 214.703125 94.226562 214.828125 94.460938 214.929688 94.710938 C 215.035156 94.960938 215.113281 95.21875 215.164062 95.484375 C 215.21875 95.75 215.246094 96.015625 215.246094 96.285156 Z M 215.246094 96.285156 " fill-opacity="1" fill-rule="nonzero"/></g><g clip-path="url(#21ca4d5dc4)"><path fill="#000000" d="M 42.035156 156.070312 C 42.035156 156.339844 42.007812 156.609375 41.957031 156.871094 C 41.902344 157.136719 41.824219 157.394531 41.722656 157.644531 C 41.617188 157.894531 41.492188 158.128906 41.339844 158.355469 C 41.191406 158.578125 41.019531 158.789062 40.828125 158.976562 C 40.640625 159.167969 40.429688 159.339844 40.207031 159.488281 C 39.980469 159.640625 39.746094 159.765625 39.496094 159.871094 C 39.246094 159.972656 38.988281 160.050781 38.722656 160.105469 C 38.460938 160.15625 38.191406 160.183594 37.921875 160.183594 C 37.652344 160.183594 37.382812 160.15625 37.121094 160.105469 C 36.855469 160.050781 36.597656 159.972656 36.347656 159.871094 C 36.097656 159.765625 35.859375 159.640625 35.636719 159.488281 C 35.410156 159.339844 35.203125 159.167969 35.011719 158.976562 C 34.824219 158.789062 34.652344 158.578125 34.5 158.355469 C 34.351562 158.128906 34.226562 157.894531 34.121094 157.644531 C 34.019531 157.394531 33.941406 157.136719 33.886719 156.871094 C 33.835938 156.609375 33.808594 156.339844 33.808594 156.070312 C 33.808594 155.800781 33.835938 155.53125 33.886719 155.265625 C 33.941406 155.003906 34.019531 154.746094 34.121094 154.496094 C 34.226562 154.246094 34.351562 154.007812 34.5 153.785156 C 34.652344 153.558594 34.824219 153.351562 35.011719 153.160156 C 35.203125 152.96875 35.410156 152.800781 35.636719 152.648438 C 35.859375 152.5 36.097656 152.375 36.347656 152.269531 C 36.597656 152.167969 36.855469 152.089844 37.121094 152.035156 C 37.382812 151.984375 37.652344 151.957031 37.921875 151.957031 C 38.191406 151.957031 38.460938 151.984375 38.722656 152.035156 C 38.988281 152.089844 39.246094 152.167969 39.496094 152.269531 C 39.746094 152.375 39.980469 152.5 40.207031 152.648438 C 40.429688 152.800781 40.640625 152.96875 40.828125 153.160156 C 41.019531 153.351562 41.191406 153.558594 41.339844 153.785156 C 41.492188 154.007812 41.617188 154.246094 41.722656 154.496094 C 41.824219 154.746094 41.902344 155.003906 41.957031 155.265625 C 42.007812 155.53125 42.035156 155.800781 42.035156 156.070312 Z M 42.035156 156.070312 " fill-opacity="1" fill-rule="nonzero"/></g><g clip-path="url(#34a1d82f39)"><path fill="#000000" d="M 49.925781 156.070312 C 49.925781 156.339844 49.898438 156.609375 49.847656 156.871094 C 49.792969 157.136719 49.714844 157.394531 49.613281 157.644531 C 49.507812 157.894531 49.382812 158.128906 49.230469 158.355469 C 49.082031 158.578125 48.910156 158.789062 48.71875 158.976562 C 48.53125 159.167969 48.320312 159.339844 48.097656 159.488281 C 47.871094 159.640625 47.636719 159.765625 47.386719 159.871094 C 47.136719 159.972656 46.878906 160.050781 46.613281 160.105469 C 46.351562 160.15625 46.082031 160.183594 45.8125 160.183594 C 45.542969 160.183594 45.273438 160.15625 45.011719 160.105469 C 44.746094 160.050781 44.488281 159.972656 44.238281 159.871094 C 43.988281 159.765625 43.75 159.640625 43.527344 159.488281 C 43.300781 159.339844 43.09375 159.167969 42.902344 158.976562 C 42.714844 158.789062 42.542969 158.578125 42.390625 158.355469 C 42.242188 158.128906 42.117188 157.894531 42.011719 157.644531 C 41.910156 157.394531 41.832031 157.136719 41.777344 156.871094 C 41.726562 156.609375 41.699219 156.339844 41.699219 156.070312 C 41.699219 155.800781 41.726562 155.53125 41.777344 155.265625 C 41.832031 155.003906 41.910156 154.746094 42.011719 154.496094 C 42.117188 154.246094 42.242188 154.007812 42.390625 153.785156 C 42.542969 153.558594 42.714844 153.351562 42.902344 153.160156 C 43.09375 152.96875 43.300781 152.800781 43.527344 152.648438 C 43.75 152.5 43.988281 152.375 44.238281 152.269531 C 44.488281 152.167969 44.746094 152.089844 45.011719 152.035156 C 45.273438 151.984375 45.542969 151.957031 45.8125 151.957031 C 46.082031 151.957031 46.351562 151.984375 46.613281 152.035156 C 46.878906 152.089844 47.136719 152.167969 47.386719 152.269531 C 47.636719 152.375 47.871094 152.5 48.097656 152.648438 C 48.320312 152.800781 48.53125 152.96875 48.71875 153.160156 C 48.910156 153.351562 49.082031 153.558594 49.230469 153.785156 C 49.382812 154.007812 49.507812 154.246094 49.613281 154.496094 C 49.714844 154.746094 49.792969 155.003906 49.847656 155.265625 C 49.898438 155.53125 49.925781 155.800781 49.925781 156.070312 Z M 49.925781 156.070312 " fill-opacity="1" fill-rule="nonzero"/></g><g clip-path="url(#2ea24ac9cd)"><path fill="#000000" d="M 132.589844 157.765625 C 132.589844 158.035156 132.5625 158.300781 132.511719 158.566406 C 132.457031 158.832031 132.378906 159.089844 132.277344 159.339844 C 132.171875 159.585938 132.046875 159.824219 131.894531 160.050781 C 131.746094 160.273438 131.574219 160.480469 131.382812 160.671875 C 131.195312 160.863281 130.984375 161.035156 130.761719 161.183594 C 130.535156 161.335938 130.300781 161.460938 130.050781 161.5625 C 129.800781 161.667969 129.542969 161.746094 129.277344 161.796875 C 129.011719 161.851562 128.746094 161.878906 128.476562 161.878906 C 128.207031 161.878906 127.9375 161.851562 127.671875 161.796875 C 127.410156 161.746094 127.152344 161.667969 126.902344 161.5625 C 126.652344 161.460938 126.414062 161.335938 126.191406 161.183594 C 125.964844 161.035156 125.757812 160.863281 125.566406 160.671875 C 125.375 160.480469 125.207031 160.273438 125.054688 160.050781 C 124.90625 159.824219 124.78125 159.585938 124.675781 159.339844 C 124.574219 159.089844 124.496094 158.832031 124.441406 158.566406 C 124.390625 158.300781 124.363281 158.035156 124.363281 157.765625 C 124.363281 157.492188 124.390625 157.226562 124.441406 156.960938 C 124.496094 156.695312 124.574219 156.441406 124.675781 156.191406 C 124.78125 155.941406 124.90625 155.703125 125.054688 155.480469 C 125.207031 155.253906 125.375 155.046875 125.566406 154.855469 C 125.757812 154.664062 125.964844 154.496094 126.191406 154.34375 C 126.414062 154.195312 126.652344 154.066406 126.902344 153.964844 C 127.152344 153.859375 127.410156 153.78125 127.671875 153.730469 C 127.9375 153.675781 128.207031 153.652344 128.476562 153.652344 C 128.746094 153.652344 129.011719 153.675781 129.277344 153.730469 C 129.542969 153.78125 129.800781 153.859375 130.050781 153.964844 C 130.300781 154.066406 130.535156 154.195312 130.761719 154.34375 C 130.984375 154.496094 131.195312 154.664062 131.382812 154.855469 C 131.574219 155.046875 131.746094 155.253906 131.894531 155.480469 C 132.046875 155.703125 132.171875 155.941406 132.277344 156.191406 C 132.378906 156.441406 132.457031 156.695312 132.511719 156.960938 C 132.5625 157.226562 132.589844 157.492188 132.589844 157.765625 Z M 132.589844 157.765625 " fill-opacity="1" fill-rule="nonzero"/></g><g clip-path="url(#a9c4cc4035)"><path fill="#ffffff" d="M 186.246094 137.316406 L 236.449219 137.316406 L 236.449219 175.675781 L 186.246094 175.675781 Z M 186.246094 137.316406 " fill-opacity="1" fill-rule="nonzero"/><path fill="#ffffff" d="M 186.246094 137.316406 L 236.449219 137.316406 L 236.449219 175.675781 L 186.246094 175.675781 Z M 186.246094 137.316406 " fill-opacity="1" fill-rule="nonzero"/></g><g clip-path="url(#f497c20cad)"><path stroke-linecap="butt" transform="matrix(0.796905, 0, 0, 0.79913, 181.812401, 137.316512)" fill="none" stroke-linejoin="miter" d="M 0.000123613 1.001933 L 74.124811 1.001933 " stroke="#000000" stroke-width="2" stroke-opacity="1" stroke-miterlimit="4"/></g><g clip-path="url(#bfefff0ec1)"><path stroke-linecap="butt" transform="matrix(0.796905, 0, 0, 0.79913, 184.840634, 174.076497)" fill="none" stroke-linejoin="miter" d="M -0.000991023 0.999215 L 74.123696 0.999215 " stroke="#000000" stroke-width="2" stroke-opacity="1" stroke-miterlimit="4"/></g><g clip-path="url(#ebe1e43841)"><path stroke-linecap="butt" transform="matrix(0, 0.79913, -0.796905, 0, 187.83923, 138.115641)" fill="none" stroke-linejoin="miter" d="M 0.0019358 0.999193 L 48.003333 0.999193 " stroke="#000000" stroke-width="2" stroke-opacity="1" stroke-miterlimit="4"/></g><g clip-path="url(#70bdb153f5)"><path stroke-linecap="butt" transform="matrix(0, 0.79913, -0.796905, 0, 236.450406, 138.115641)" fill="none" stroke-linejoin="miter" d="M 0.0019358 1.001453 L 48.003333 1.001453 " stroke="#000000" stroke-width="2" stroke-opacity="1" stroke-miterlimit="4"/></g><g clip-path="url(#85c0475fef)"><path fill="#000000" d="M 215.582031 150.585938 C 215.171875 150.011719 214.605469 149.578125 213.878906 149.277344 C 213.164062 148.976562 212.332031 148.824219 211.386719 148.824219 C 210.53125 148.824219 209.75 148.972656 209.042969 149.269531 C 208.339844 149.5625 207.765625 150.015625 207.335938 150.617188 C 206.996094 151.089844 206.78125 151.667969 206.695312 152.347656 C 206.65625 152.640625 206.894531 152.898438 207.203125 152.898438 L 209.097656 152.898438 C 209.339844 152.898438 209.546875 152.734375 209.597656 152.503906 C 209.644531 152.296875 209.722656 152.113281 209.832031 151.953125 C 210.007812 151.699219 210.230469 151.503906 210.503906 151.375 C 210.777344 151.246094 211.066406 151.175781 211.375 151.175781 C 211.695312 151.175781 211.980469 151.242188 212.246094 151.375 C 212.503906 151.496094 212.714844 151.683594 212.871094 151.925781 C 213.027344 152.164062 213.105469 152.441406 213.105469 152.757812 C 213.105469 153.058594 213.035156 153.332031 212.898438 153.570312 C 212.761719 153.8125 212.578125 154.035156 212.347656 154.230469 C 212.113281 154.433594 211.855469 154.621094 211.5625 154.804688 C 211.171875 155.042969 210.832031 155.308594 210.554688 155.605469 C 210.277344 155.898438 210.070312 156.285156 209.921875 156.761719 C 209.78125 157.246094 209.703125 157.882812 209.699219 158.6875 L 209.699219 159.089844 C 209.699219 159.363281 209.929688 159.589844 210.210938 159.589844 L 211.878906 159.589844 C 212.160156 159.589844 212.390625 159.367188 212.390625 159.089844 L 212.390625 158.6875 C 212.394531 158.238281 212.453125 157.859375 212.570312 157.550781 C 212.683594 157.246094 212.863281 156.972656 213.097656 156.738281 C 213.335938 156.503906 213.644531 156.28125 214.015625 156.0625 C 214.464844 155.800781 214.847656 155.515625 215.171875 155.191406 C 215.496094 154.871094 215.753906 154.503906 215.933594 154.085938 C 216.117188 153.671875 216.210938 153.191406 216.210938 152.652344 C 216.199219 151.84375 215.992188 151.15625 215.582031 150.585938 Z M 215.582031 150.585938 " fill-opacity="1" fill-rule="nonzero"/></g><g clip-path="url(#3dd944e2e8)"><path fill="#000000" d="M 211.097656 160.707031 C 210.625 160.707031 210.21875 160.867188 209.886719 161.191406 C 209.554688 161.511719 209.386719 161.902344 209.394531 162.351562 C 209.386719 162.804688 209.554688 163.195312 209.886719 163.523438 C 210.21875 163.847656 210.625 164.003906 211.097656 164.003906 C 211.398438 164.003906 211.679688 163.933594 211.929688 163.78125 C 212.1875 163.628906 212.390625 163.433594 212.550781 163.179688 C 212.710938 162.925781 212.792969 162.652344 212.796875 162.351562 C 212.789062 161.894531 212.617188 161.511719 212.273438 161.191406 C 211.9375 160.867188 211.546875 160.707031 211.097656 160.707031 Z M 211.097656 160.707031 " fill-opacity="1" fill-rule="nonzero"/></g></svg>