<svg xmlns="http://www.w3.org/2000/svg" xmlns:xlink="http://www.w3.org/1999/xlink" width="343" zoomAndPan="magnify" viewBox="0 0 257.25 186.749995" height="249" preserveAspectRatio="xMidYMid meet" version="1.0"><defs><clipPath id="cfc6d7fb5b"><path d="M 0 0.148438 L 256.503906 0.148438 L 256.503906 4 L 0 4 Z M 0 0.148438 " clip-rule="nonzero"/></clipPath><clipPath id="e43b3f6ed0"><path d="M 0 60 L 256.503906 60 L 256.503906 64 L 0 64 Z M 0 60 " clip-rule="nonzero"/></clipPath><clipPath id="a06dceb914"><path d="M 0 125 L 256.503906 125 L 256.503906 129 L 0 129 Z M 0 125 " clip-rule="nonzero"/></clipPath><clipPath id="fd4fe351cd"><path d="M 0 183 L 256.503906 183 L 256.503906 186.355469 L 0 186.355469 Z M 0 183 " clip-rule="nonzero"/></clipPath><clipPath id="d10835fc7e"><path d="M 0 0.148438 L 3 0.148438 L 3 186.355469 L 0 186.355469 Z M 0 0.148438 " clip-rule="nonzero"/></clipPath><clipPath id="eb79adb0df"><path d="M 80 0.148438 L 84 0.148438 L 84 186.355469 L 80 186.355469 Z M 80 0.148438 " clip-rule="nonzero"/></clipPath><clipPath id="6d2e940d99"><path d="M 164 0.148438 L 168 0.148438 L 168 186.355469 L 164 186.355469 Z M 164 0.148438 " clip-rule="nonzero"/></clipPath><clipPath id="9585b3b186"><path d="M 253 0.148438 L 256.503906 0.148438 L 256.503906 186.355469 L 253 186.355469 Z M 253 0.148438 " clip-rule="nonzero"/></clipPath><clipPath id="489cc549df"><path d="M 23.078125 75.921875 L 60.46875 75.921875 L 60.46875 113.3125 L 23.078125 113.3125 Z M 23.078125 75.921875 " clip-rule="nonzero"/></clipPath><clipPath id="a7b30d8ac7"><path d="M 105.152344 75.921875 L 142.542969 75.921875 L 142.542969 113.3125 L 105.152344 113.3125 Z M 105.152344 75.921875 " clip-rule="nonzero"/></clipPath><clipPath id="7b42f93126"><path d="M 191.761719 13.003906 L 229.152344 13.003906 L 229.152344 50.394531 L 191.761719 50.394531 Z M 191.761719 13.003906 " clip-rule="nonzero"/></clipPath><clipPath id="9807ad0acb"><path d="M 184.507812 137.652344 L 235.441406 137.652344 L 235.441406 176.738281 L 184.507812 176.738281 Z M 184.507812 137.652344 " clip-rule="nonzero"/></clipPath><clipPath id="681b4449c8"><path d="M 184.507812 137.652344 L 235.441406 137.652344 L 235.441406 139.882812 L 184.507812 139.882812 Z M 184.507812 137.652344 " clip-rule="nonzero"/></clipPath><clipPath id="53351ccc3e"><path d="M 184.507812 175 L 235.441406 175 L 235.441406 176.738281 L 184.507812 176.738281 Z M 184.507812 175 " clip-rule="nonzero"/></clipPath><clipPath id="49269447f5"><path d="M 184.507812 137.652344 L 186.421875 137.652344 L 186.421875 176.738281 L 184.507812 176.738281 Z M 184.507812 137.652344 " clip-rule="nonzero"/></clipPath><clipPath id="ceac149169"><path d="M 233 137.652344 L 235.441406 137.652344 L 235.441406 176.738281 L 233 176.738281 Z M 233 137.652344 " clip-rule="nonzero"/></clipPath><clipPath id="9896a6af2f"><path d="M 205.210938 149.378906 L 214.914062 149.378906 L 214.914062 161 L 205.210938 161 Z M 205.210938 149.378906 " clip-rule="nonzero"/></clipPath><clipPath id="8553e41c2a"><path d="M 207.472656 161.085938 L 211.902344 161.085938 L 211.902344 164.847656 L 207.472656 164.847656 Z M 207.472656 161.085938 " clip-rule="nonzero"/></clipPath></defs><g clip-path="url(#cfc6d7fb5b)"><path stroke-linecap="butt" transform="matrix(0.74782, 0, 0, 0.74782, -9.838022, 0.1468)" fill="none" stroke-linejoin="miter" d="M -0.00243562 1.997574 L 375.31257 1.997574 " stroke="#000000" stroke-width="4" stroke-opacity="1" stroke-miterlimit="4"/></g><g clip-path="url(#e43b3f6ed0)"><path stroke-linecap="butt" transform="matrix(0.74782, 0.000000000000000029, -0.000000000000000029, 0.74782, -9.226357, 60.113854)" fill="none" stroke-linejoin="miter" d="M -0.00027542 1.999841 L 360.960502 1.999841 " stroke="#000000" stroke-width="4" stroke-opacity="1" stroke-miterlimit="4"/></g><g clip-path="url(#a06dceb914)"><path stroke-linecap="butt" transform="matrix(0.74782, 0, 0, 0.74782, -15.373313, 125.981857)" fill="none" stroke-linejoin="miter" d="M -0.0022553 1.998751 L 375.312751 1.998751 " stroke="#000000" stroke-width="4" stroke-opacity="1" stroke-miterlimit="4"/></g><g clip-path="url(#fd4fe351cd)"><path stroke-linecap="butt" transform="matrix(0.74782, 0, 0, 0.74782, -12.082472, 183.362635)" fill="none" stroke-linejoin="miter" d="M 0.000589419 2.001471 L 375.315595 2.001471 " stroke="#000000" stroke-width="4" stroke-opacity="1" stroke-miterlimit="4"/></g><g clip-path="url(#d10835fc7e)"><path stroke-linecap="butt" transform="matrix(0, -0.74782, 0.74782, 0, -0.00297822, 191.88746)" fill="none" stroke-linejoin="miter" d="M 0.000990604 1.999366 L 253.90054 1.999366 " stroke="#000000" stroke-width="4" stroke-opacity="1" stroke-miterlimit="4"/></g><g clip-path="url(#eb79adb0df)"><path stroke-linecap="butt" transform="matrix(0, -0.74782, 0.74782, 0, 80.404219, 190.014199)" fill="none" stroke-linejoin="miter" d="M -0.00190738 1.9981 L 253.897642 1.9981 " stroke="#000000" stroke-width="4" stroke-opacity="1" stroke-miterlimit="4"/></g><g clip-path="url(#6d2e940d99)"><path stroke-linecap="butt" transform="matrix(0, -0.74782, 0.74782, 0, 164.143453, 188.182567)" fill="none" stroke-linejoin="miter" d="M -0.00137335 2.00205 L 253.898176 2.00205 " stroke="#000000" stroke-width="4" stroke-opacity="1" stroke-miterlimit="4"/></g><g clip-path="url(#9585b3b186)"><path stroke-linecap="butt" transform="matrix(0, -0.74782, 0.74782, 0, 253.62248, 191.509838)" fill="none" stroke-linejoin="miter" d="M -0.00251485 1.998754 L 253.897034 1.998754 " stroke="#000000" stroke-width="4" stroke-opacity="1" stroke-miterlimit="4"/></g><g clip-path="url(#489cc549df)"><path fill="#000000" d="M 60.46875 96.054688 L 43.210938 96.054688 L 43.210938 113.3125 L 40.335938 113.3125 L 40.335938 96.054688 L 23.078125 96.054688 L 23.078125 93.179688 L 40.335938 93.179688 L 40.335938 75.921875 L 43.210938 75.921875 L 43.210938 93.179688 L 60.46875 93.179688 Z M 60.46875 96.054688 " fill-opacity="1" fill-rule="nonzero"/></g><g clip-path="url(#a7b30d8ac7)"><path fill="#000000" d="M 142.542969 96.054688 L 125.285156 96.054688 L 125.285156 113.3125 L 122.410156 113.3125 L 122.410156 96.054688 L 105.152344 96.054688 L 105.152344 93.179688 L 122.410156 93.179688 L 122.410156 75.921875 L 125.285156 75.921875 L 125.285156 93.179688 L 142.542969 93.179688 Z M 142.542969 96.054688 " fill-opacity="1" fill-rule="nonzero"/></g><g clip-path="url(#7b42f93126)"><path fill="#000000" d="M 229.152344 33.140625 L 211.894531 33.140625 L 211.894531 50.394531 L 209.019531 50.394531 L 209.019531 33.140625 L 191.761719 33.140625 L 191.761719 30.261719 L 209.019531 30.261719 L 209.019531 13.003906 L 211.894531 13.003906 L 211.894531 30.261719 L 229.152344 30.261719 Z M 229.152344 33.140625 " fill-opacity="1" fill-rule="nonzero"/></g><path stroke-linecap="butt" transform="matrix(0.74782, 0, 0, 0.74782, 191.845632, 20.507709)" fill="none" stroke-linejoin="miter" d="M -0.00251674 2.000745 L 49.688812 2.000745 " stroke="#000000" stroke-width="4" stroke-opacity="1" stroke-miterlimit="4"/><path stroke-linecap="butt" transform="matrix(0.74782, 0, 0, 0.74782, 191.760874, 40.310781)" fill="none" stroke-linejoin="miter" d="M 0.00113017 1.997682 L 49.802153 1.997682 " stroke="#000000" stroke-width="4" stroke-opacity="1" stroke-miterlimit="4"/><path stroke-linecap="butt" transform="matrix(0.74782, 0, 0, 0.74782, 105.151744, 24.643213)" fill="none" stroke-linejoin="miter" d="M 0.000801525 2.002371 L 49.801824 2.002371 " stroke="#000000" stroke-width="4" stroke-opacity="1" stroke-miterlimit="4"/><path stroke-linecap="butt" transform="matrix(0.74782, 0, 0, 0.74782, 105.151744, 34.367841)" fill="none" stroke-linejoin="miter" d="M 0.000801525 1.999733 L 49.801824 1.999733 " stroke="#000000" stroke-width="4" stroke-opacity="1" stroke-miterlimit="4"/><path stroke-linecap="butt" transform="matrix(0.74782, 0, 0, 0.74782, 23.078526, 24.643213)" fill="none" stroke-linejoin="miter" d="M -0.000536096 2.002371 L 49.800486 2.002371 " stroke="#000000" stroke-width="4" stroke-opacity="1" stroke-miterlimit="4"/><path stroke-linecap="butt" transform="matrix(0.74782, 0, 0, 0.74782, 23.078526, 34.367841)" fill="none" stroke-linejoin="miter" d="M -0.000536096 1.999733 L 49.800486 1.999733 " stroke="#000000" stroke-width="4" stroke-opacity="1" stroke-miterlimit="4"/><path stroke-linecap="butt" transform="matrix(0.74782, 0, 0, 0.74782, 191.845632, 97.837909)" fill="none" stroke-linejoin="miter" d="M -0.00251674 1.997971 L 49.798506 1.997971 " stroke="#000000" stroke-width="4" stroke-opacity="1" stroke-miterlimit="4"/><path stroke-linecap="butt" transform="matrix(0.74782, 0, 0, 0.74782, 191.845632, 88.112287)" fill="none" stroke-linejoin="miter" d="M -0.00251674 2.001936 L 49.798506 2.001936 " stroke="#000000" stroke-width="4" stroke-opacity="1" stroke-miterlimit="4"/><path stroke-linecap="butt" transform="matrix(0.00000000130519, -0.74782, 0.74782, 0.00000000130519, 202.910136, 113.163028)" fill="none" stroke-linejoin="miter" d="M -0.00138318 2.000635 L 49.799639 2.000634 " stroke="#000000" stroke-width="4" stroke-opacity="1" stroke-miterlimit="4"/><path stroke-linecap="butt" transform="matrix(0.00000000130519, -0.74782, 0.74782, 0.00000000130519, 215.373135, 113.163028)" fill="none" stroke-linejoin="miter" d="M -0.00138318 1.997878 L 49.799639 1.997878 " stroke="#000000" stroke-width="4" stroke-opacity="1" stroke-miterlimit="4"/><path stroke-linecap="butt" transform="matrix(0.00000000130519, -0.74782, 0.74782, 0.00000000130519, 32.786137, 174.787421)" fill="none" stroke-linejoin="miter" d="M -0.00219505 1.999296 L 49.798827 1.999296 " stroke="#000000" stroke-width="4" stroke-opacity="1" stroke-miterlimit="4"/><path stroke-linecap="butt" transform="matrix(0.00000000130519, -0.74782, 0.74782, 0.00000000130519, 46.25977, 174.787421)" fill="none" stroke-linejoin="miter" d="M -0.00219505 1.99799 L 49.798827 1.99799 " stroke="#000000" stroke-width="4" stroke-opacity="1" stroke-miterlimit="4"/><path stroke-linecap="butt" transform="matrix(0.00000000130519, -0.74782, 0.74782, 0.00000000130519, 128.266493, 172.943769)" fill="none" stroke-linejoin="miter" d="M -0.00206406 1.999446 L 49.798958 1.999446 " stroke="#000000" stroke-width="4" stroke-opacity="1" stroke-miterlimit="4"/><path stroke-linecap="butt" transform="matrix(0.00000000130519, -0.74782, 0.74782, 0.00000000130519, 114.805731, 172.943769)" fill="none" stroke-linejoin="miter" d="M -0.00206406 1.999212 L 49.798958 1.999212 " stroke="#000000" stroke-width="4" stroke-opacity="1" stroke-miterlimit="4"/><g clip-path="url(#9807ad0acb)"><path fill="#ffffff" d="M 184.507812 137.652344 L 235.441406 137.652344 L 235.441406 176.738281 L 184.507812 176.738281 Z M 184.507812 137.652344 " fill-opacity="1" fill-rule="nonzero"/><path fill="#ffffff" d="M 184.507812 137.652344 L 235.441406 137.652344 L 235.441406 176.738281 L 184.507812 176.738281 Z M 184.507812 137.652344 " fill-opacity="1" fill-rule="nonzero"/></g><g clip-path="url(#681b4449c8)"><path stroke-linecap="butt" transform="matrix(0.808454, 0, 0, 0.814345, 180.012188, 137.651131)" fill="none" stroke-linejoin="miter" d="M -0.000579939 0.999224 L 74.123343 0.999224 " stroke="#000000" stroke-width="2" stroke-opacity="1" stroke-miterlimit="4"/></g><g clip-path="url(#53351ccc3e)"><path stroke-linecap="butt" transform="matrix(0.808454, 0, 0, 0.814345, 183.084324, 175.110984)" fill="none" stroke-linejoin="miter" d="M 0.00199528 1.000556 L 74.125918 1.000556 " stroke="#000000" stroke-width="2" stroke-opacity="1" stroke-miterlimit="4"/></g><g clip-path="url(#49269447f5)"><path stroke-linecap="butt" transform="matrix(0, 0.814345, -0.808454, 0, 186.126374, 138.465481)" fill="none" stroke-linejoin="miter" d="M -0.000783002 0.99704 L 48.00081 0.99704 " stroke="#000000" stroke-width="2" stroke-opacity="1" stroke-miterlimit="4"/></g><g clip-path="url(#ceac149169)"><path stroke-linecap="butt" transform="matrix(0, 0.814345, -0.808454, 0, 235.442061, 138.465481)" fill="none" stroke-linejoin="miter" d="M -0.000783002 1.000982 L 48.00081 1.000982 " stroke="#000000" stroke-width="2" stroke-opacity="1" stroke-miterlimit="4"/></g><g clip-path="url(#9896a6af2f)"><path fill="#000000" d="M 214.269531 151.171875 C 213.855469 150.589844 213.28125 150.144531 212.542969 149.839844 C 211.816406 149.535156 210.972656 149.378906 210.015625 149.378906 C 209.148438 149.378906 208.355469 149.53125 207.636719 149.832031 C 206.921875 150.132812 206.34375 150.59375 205.90625 151.203125 C 205.558594 151.6875 205.34375 152.277344 205.257812 152.96875 C 205.21875 153.265625 205.460938 153.53125 205.769531 153.53125 L 207.691406 153.53125 C 207.9375 153.53125 208.148438 153.363281 208.199219 153.125 C 208.246094 152.917969 208.328125 152.730469 208.4375 152.566406 C 208.613281 152.308594 208.84375 152.109375 209.121094 151.976562 C 209.398438 151.84375 209.691406 151.773438 210.003906 151.773438 C 210.328125 151.773438 210.617188 151.839844 210.886719 151.976562 C 211.148438 152.101562 211.363281 152.292969 211.523438 152.539062 C 211.679688 152.78125 211.761719 153.066406 211.761719 153.386719 C 211.761719 153.691406 211.6875 153.972656 211.546875 154.214844 C 211.410156 154.460938 211.222656 154.6875 210.988281 154.886719 C 210.753906 155.09375 210.492188 155.285156 210.195312 155.472656 C 209.796875 155.714844 209.453125 155.984375 209.171875 156.285156 C 208.890625 156.585938 208.679688 156.980469 208.527344 157.46875 C 208.386719 157.960938 208.308594 158.609375 208.300781 159.429688 L 208.300781 159.839844 C 208.300781 160.117188 208.535156 160.347656 208.820312 160.347656 L 210.515625 160.347656 C 210.800781 160.347656 211.035156 160.121094 211.035156 159.839844 L 211.035156 159.429688 C 211.039062 158.972656 211.097656 158.582031 211.214844 158.269531 C 211.332031 157.960938 211.515625 157.679688 211.75 157.441406 C 211.996094 157.203125 212.304688 156.976562 212.683594 156.753906 C 213.136719 156.488281 213.527344 156.195312 213.855469 155.867188 C 214.183594 155.542969 214.445312 155.167969 214.628906 154.738281 C 214.816406 154.316406 214.910156 153.828125 214.910156 153.277344 C 214.898438 152.453125 214.6875 151.753906 214.269531 151.171875 Z M 214.269531 151.171875 " fill-opacity="1" fill-rule="nonzero"/></g><g clip-path="url(#8553e41c2a)"><path fill="#000000" d="M 209.722656 161.488281 C 209.242188 161.488281 208.832031 161.648438 208.492188 161.980469 C 208.15625 162.308594 207.988281 162.703125 207.996094 163.160156 C 207.988281 163.625 208.15625 164.023438 208.492188 164.355469 C 208.832031 164.6875 209.242188 164.847656 209.722656 164.847656 C 210.023438 164.847656 210.3125 164.773438 210.566406 164.621094 C 210.824219 164.464844 211.035156 164.265625 211.199219 164.007812 C 211.359375 163.75 211.441406 163.46875 211.445312 163.160156 C 211.4375 162.699219 211.261719 162.308594 210.917969 161.980469 C 210.574219 161.648438 210.175781 161.488281 209.722656 161.488281 Z M 209.722656 161.488281 " fill-opacity="1" fill-rule="nonzero"/></g></svg>