<svg xmlns="http://www.w3.org/2000/svg" xmlns:xlink="http://www.w3.org/1999/xlink" width="343" zoomAndPan="magnify" viewBox="0 0 257.25 186.749995" height="249" preserveAspectRatio="xMidYMid meet" version="1.0"><defs><clipPath id="e01f0b7136"><path d="M 31.441406 19.003906 L 59 19.003906 L 59 46.699219 L 31.441406 46.699219 Z M 31.441406 19.003906 " clip-rule="nonzero"/></clipPath><clipPath id="1d3738f988"><path d="M 31.441406 19.003906 L 59.296875 19.003906 L 59.296875 46.84375 L 31.441406 46.84375 Z M 31.441406 19.003906 " clip-rule="nonzero"/></clipPath><clipPath id="eea9cbe998"><path d="M 59 46.699219 L 86.777344 46.699219 L 86.777344 74.339844 L 59 74.339844 Z M 59 46.699219 " clip-rule="nonzero"/></clipPath><clipPath id="4923b70278"><path d="M 58.949219 46.5 L 86.804688 46.5 L 86.804688 74.339844 L 58.949219 74.339844 Z M 58.949219 46.5 " clip-rule="nonzero"/></clipPath><clipPath id="77e6155af3"><path d="M 86.457031 46.699219 L 114.3125 46.699219 L 114.3125 74.339844 L 86.457031 74.339844 Z M 86.457031 46.699219 " clip-rule="nonzero"/></clipPath><clipPath id="6def1bb3be"><path d="M 86.457031 46.5 L 114.3125 46.5 L 114.3125 74.339844 L 86.457031 74.339844 Z M 86.457031 46.5 " clip-rule="nonzero"/></clipPath><clipPath id="0105c5f154"><path d="M 86.457031 19.003906 L 114.3125 19.003906 L 114.3125 46.699219 L 86.457031 46.699219 Z M 86.457031 19.003906 " clip-rule="nonzero"/></clipPath><clipPath id="8cc9182977"><path d="M 86.457031 19.003906 L 114.3125 19.003906 L 114.3125 46.84375 L 86.457031 46.84375 Z M 86.457031 19.003906 " clip-rule="nonzero"/></clipPath><clipPath id="828aaa838a"><path d="M 204 19.003906 L 231.570312 19.003906 L 231.570312 46.699219 L 204 46.699219 Z M 204 19.003906 " clip-rule="nonzero"/></clipPath><clipPath id="af8aca1d05"><path d="M 203.710938 19.003906 L 231.570312 19.003906 L 231.570312 46.84375 L 203.710938 46.84375 Z M 203.710938 19.003906 " clip-rule="nonzero"/></clipPath><clipPath id="8c4a93d0fe"><path d="M 176.203125 46.699219 L 204 46.699219 L 204 74.339844 L 176.203125 74.339844 Z M 176.203125 46.699219 " clip-rule="nonzero"/></clipPath><clipPath id="c215a78c02"><path d="M 176.203125 46.5 L 204.0625 46.5 L 204.0625 74.339844 L 176.203125 74.339844 Z M 176.203125 46.5 " clip-rule="nonzero"/></clipPath><clipPath id="f659ef249e"><path d="M 149 46.699219 L 176.554688 46.699219 L 176.554688 74.339844 L 149 74.339844 Z M 149 46.699219 " clip-rule="nonzero"/></clipPath><clipPath id="802348d423"><path d="M 148.695312 46.5 L 176.554688 46.5 L 176.554688 74.339844 L 148.695312 74.339844 Z M 148.695312 46.5 " clip-rule="nonzero"/></clipPath><clipPath id="8b1e074e4b"><path d="M 149 19.003906 L 176.554688 19.003906 L 176.554688 46.699219 L 149 46.699219 Z M 149 19.003906 " clip-rule="nonzero"/></clipPath><clipPath id="ee4326960b"><path d="M 148.695312 19.003906 L 176.554688 19.003906 L 176.554688 46.84375 L 148.695312 46.84375 Z M 148.695312 19.003906 " clip-rule="nonzero"/></clipPath><clipPath id="2cad64af17"><path d="M 24.679688 140.003906 L 52.480469 140.003906 L 52.480469 167.734375 L 24.679688 167.734375 Z M 24.679688 140.003906 " clip-rule="nonzero"/></clipPath><clipPath id="0f45d433a6"><path d="M 24.621094 140.003906 L 52.480469 140.003906 L 52.480469 167.847656 L 24.621094 167.847656 Z M 24.621094 140.003906 " clip-rule="nonzero"/></clipPath><clipPath id="93e81a61cb"><path d="M 52.128906 140.003906 L 79.988281 140.003906 L 79.988281 167.734375 L 52.128906 167.734375 Z M 52.128906 140.003906 " clip-rule="nonzero"/></clipPath><clipPath id="bba4d20adb"><path d="M 52.128906 140.003906 L 79.988281 140.003906 L 79.988281 167.847656 L 52.128906 167.847656 Z M 52.128906 140.003906 " clip-rule="nonzero"/></clipPath><clipPath id="cef67cc54c"><path d="M 79.636719 140.003906 L 107.496094 140.003906 L 107.496094 167.734375 L 79.636719 167.734375 Z M 79.636719 140.003906 " clip-rule="nonzero"/></clipPath><clipPath id="67490e128a"><path d="M 79.636719 140.003906 L 107.496094 140.003906 L 107.496094 167.847656 L 79.636719 167.847656 Z M 79.636719 140.003906 " clip-rule="nonzero"/></clipPath><clipPath id="a4936c1bf8"><path d="M 79.636719 112.507812 L 107.496094 112.507812 L 107.496094 140.355469 L 79.636719 140.355469 Z M 79.636719 112.507812 " clip-rule="nonzero"/></clipPath><clipPath id="883d53bea6"><path d="M 149.230469 108.605469 L 229.410156 108.605469 L 229.410156 169.230469 L 149.230469 169.230469 Z M 149.230469 108.605469 " clip-rule="nonzero"/></clipPath><clipPath id="69f6fd86cc"><path d="M 149.230469 108.605469 L 229.410156 108.605469 L 229.410156 111.871094 L 149.230469 111.871094 Z M 149.230469 108.605469 " clip-rule="nonzero"/></clipPath><clipPath id="c56e84b81f"><path d="M 149.230469 166.179688 L 229.410156 166.179688 L 229.410156 169.230469 L 149.230469 169.230469 Z M 149.230469 166.179688 " clip-rule="nonzero"/></clipPath><clipPath id="d8a9a640f5"><path d="M 149.230469 108.605469 L 151.980469 108.605469 L 151.980469 169.230469 L 149.230469 169.230469 Z M 149.230469 108.605469 " clip-rule="nonzero"/></clipPath><clipPath id="ffe4c6421d"><path d="M 226.5 108.605469 L 229.410156 108.605469 L 229.410156 169.230469 L 226.5 169.230469 Z M 226.5 108.605469 " clip-rule="nonzero"/></clipPath><clipPath id="ebb81dabda"><path d="M 181.820312 126.789062 L 197.09375 126.789062 L 197.09375 144 L 181.820312 144 Z M 181.820312 126.789062 " clip-rule="nonzero"/></clipPath><clipPath id="cbc0cfba7e"><path d="M 186.136719 145 L 192 145 L 192 150.785156 L 186.136719 150.785156 Z M 186.136719 145 " clip-rule="nonzero"/></clipPath><clipPath id="a20819b3c9"><path d="M 52.128906 112.507812 L 79.636719 112.507812 L 79.636719 140.003906 L 52.128906 140.003906 Z M 52.128906 112.507812 " clip-rule="nonzero"/></clipPath><clipPath id="8252c5a984"><path d="M 58.949219 19.003906 L 86.457031 19.003906 L 86.457031 46.5 L 58.949219 46.5 Z M 58.949219 19.003906 " clip-rule="nonzero"/></clipPath><clipPath id="4e3efb5fee"><path d="M 176.203125 19.003906 L 203.710938 19.003906 L 203.710938 46.5 L 176.203125 46.5 Z M 176.203125 19.003906 " clip-rule="nonzero"/></clipPath></defs><g clip-path="url(#e01f0b7136)"><path fill="#ffffff" d="M 57.390625 44.941406 L 33.351562 44.941406 L 33.351562 20.90625 L 57.390625 20.90625 Z M 59 19.300781 L 31.738281 19.300781 L 31.738281 46.546875 L 59 46.546875 Z M 59 19.300781 " fill-opacity="1" fill-rule="nonzero"/></g><g clip-path="url(#1d3738f988)"><path fill="#000000" d="M 59.296875 46.84375 L 31.441406 46.84375 L 31.441406 19.003906 L 59.296875 19.003906 Z M 32.042969 46.242188 L 58.695312 46.242188 L 58.695312 19.605469 L 32.042969 19.605469 Z M 57.6875 45.238281 L 33.050781 45.238281 L 33.050781 20.609375 L 57.6875 20.609375 Z M 33.648438 44.636719 L 57.085938 44.636719 L 57.085938 21.210938 L 33.648438 21.210938 Z M 33.648438 44.636719 " fill-opacity="1" fill-rule="nonzero"/></g><g clip-path="url(#eea9cbe998)"><path fill="#ffffff" d="M 84.898438 72.429688 L 60.855469 72.429688 L 60.855469 48.402344 L 84.898438 48.402344 Z M 86.503906 46.796875 L 59.246094 46.796875 L 59.246094 74.042969 L 86.503906 74.042969 Z M 86.503906 46.796875 " fill-opacity="1" fill-rule="nonzero"/></g><g clip-path="url(#4923b70278)"><path fill="#000000" d="M 86.804688 74.339844 L 58.949219 74.339844 L 58.949219 46.5 L 86.804688 46.5 Z M 59.550781 73.738281 L 86.203125 73.738281 L 86.203125 47.097656 L 59.550781 47.097656 Z M 85.195312 72.730469 L 60.554688 72.730469 L 60.554688 48.105469 L 85.195312 48.105469 Z M 61.15625 72.132812 L 84.59375 72.132812 L 84.59375 48.703125 L 61.15625 48.703125 Z M 61.15625 72.132812 " fill-opacity="1" fill-rule="nonzero"/></g><g clip-path="url(#77e6155af3)"><path fill="#ffffff" d="M 112.402344 72.429688 L 88.363281 72.429688 L 88.363281 48.402344 L 112.402344 48.402344 Z M 114.011719 46.796875 L 86.753906 46.796875 L 86.753906 74.042969 L 114.011719 74.042969 Z M 114.011719 46.796875 " fill-opacity="1" fill-rule="nonzero"/></g><g clip-path="url(#6def1bb3be)"><path fill="#000000" d="M 114.3125 74.339844 L 86.457031 74.339844 L 86.457031 46.5 L 114.3125 46.5 Z M 87.058594 73.738281 L 113.710938 73.738281 L 113.710938 47.097656 L 87.058594 47.097656 Z M 112.703125 72.730469 L 88.0625 72.730469 L 88.0625 48.105469 L 112.703125 48.105469 Z M 88.664062 72.132812 L 112.101562 72.132812 L 112.101562 48.703125 L 88.664062 48.703125 Z M 88.664062 72.132812 " fill-opacity="1" fill-rule="nonzero"/></g><g clip-path="url(#0105c5f154)"><path fill="#ffffff" d="M 112.402344 44.941406 L 88.363281 44.941406 L 88.363281 20.90625 L 112.402344 20.90625 Z M 114.011719 19.300781 L 86.753906 19.300781 L 86.753906 46.546875 L 114.011719 46.546875 Z M 114.011719 19.300781 " fill-opacity="1" fill-rule="nonzero"/></g><g clip-path="url(#8cc9182977)"><path fill="#000000" d="M 114.3125 46.84375 L 86.457031 46.84375 L 86.457031 19.003906 L 114.3125 19.003906 Z M 87.058594 46.242188 L 113.710938 46.242188 L 113.710938 19.605469 L 87.058594 19.605469 Z M 112.703125 45.238281 L 88.0625 45.238281 L 88.0625 20.609375 L 112.703125 20.609375 Z M 88.664062 44.636719 L 112.101562 44.636719 L 112.101562 21.210938 L 88.664062 21.210938 Z M 88.664062 44.636719 " fill-opacity="1" fill-rule="nonzero"/></g><g clip-path="url(#828aaa838a)"><path fill="#ffffff" d="M 229.660156 44.941406 L 205.621094 44.941406 L 205.621094 20.90625 L 229.660156 20.90625 Z M 231.265625 19.300781 L 204.015625 19.300781 L 204.015625 46.546875 L 231.265625 46.546875 Z M 231.265625 19.300781 " fill-opacity="1" fill-rule="nonzero"/></g><g clip-path="url(#af8aca1d05)"><path fill="#000000" d="M 231.570312 46.84375 L 203.710938 46.84375 L 203.710938 19.003906 L 231.570312 19.003906 Z M 204.3125 46.242188 L 230.96875 46.242188 L 230.96875 19.605469 L 204.3125 19.605469 Z M 229.957031 45.238281 L 205.316406 45.238281 L 205.316406 20.609375 L 229.957031 20.609375 Z M 205.917969 44.636719 L 229.355469 44.636719 L 229.355469 21.210938 L 205.917969 21.210938 Z M 205.917969 44.636719 " fill-opacity="1" fill-rule="nonzero"/></g><g clip-path="url(#8c4a93d0fe)"><path fill="#ffffff" d="M 202.152344 72.429688 L 178.113281 72.429688 L 178.113281 48.402344 L 202.152344 48.402344 Z M 203.757812 46.796875 L 176.507812 46.796875 L 176.507812 74.042969 L 203.757812 74.042969 Z M 203.757812 46.796875 " fill-opacity="1" fill-rule="nonzero"/></g><g clip-path="url(#c215a78c02)"><path fill="#000000" d="M 204.0625 74.339844 L 176.203125 74.339844 L 176.203125 46.5 L 204.0625 46.5 Z M 176.804688 73.738281 L 203.460938 73.738281 L 203.460938 47.097656 L 176.804688 47.097656 Z M 202.457031 72.730469 L 177.816406 72.730469 L 177.816406 48.105469 L 202.457031 48.105469 Z M 178.417969 72.132812 L 201.847656 72.132812 L 201.847656 48.703125 L 178.417969 48.703125 Z M 178.417969 72.132812 " fill-opacity="1" fill-rule="nonzero"/></g><g clip-path="url(#f659ef249e)"><path fill="#ffffff" d="M 174.644531 72.429688 L 150.605469 72.429688 L 150.605469 48.402344 L 174.644531 48.402344 Z M 176.25 46.796875 L 149 46.796875 L 149 74.042969 L 176.25 74.042969 Z M 176.25 46.796875 " fill-opacity="1" fill-rule="nonzero"/></g><g clip-path="url(#802348d423)"><path fill="#000000" d="M 176.554688 74.339844 L 148.695312 74.339844 L 148.695312 46.5 L 176.554688 46.5 Z M 149.296875 73.738281 L 175.953125 73.738281 L 175.953125 47.097656 L 149.296875 47.097656 Z M 174.949219 72.730469 L 150.308594 72.730469 L 150.308594 48.105469 L 174.949219 48.105469 Z M 150.910156 72.132812 L 174.347656 72.132812 L 174.347656 48.703125 L 150.910156 48.703125 Z M 150.910156 72.132812 " fill-opacity="1" fill-rule="nonzero"/></g><g clip-path="url(#8b1e074e4b)"><path fill="#ffffff" d="M 174.644531 44.941406 L 150.605469 44.941406 L 150.605469 20.90625 L 174.644531 20.90625 Z M 176.25 19.300781 L 149 19.300781 L 149 46.546875 L 176.25 46.546875 Z M 176.25 19.300781 " fill-opacity="1" fill-rule="nonzero"/></g><g clip-path="url(#ee4326960b)"><path fill="#000000" d="M 176.554688 46.84375 L 148.695312 46.84375 L 148.695312 19.003906 L 176.554688 19.003906 Z M 149.296875 46.242188 L 175.953125 46.242188 L 175.953125 19.605469 L 149.296875 19.605469 Z M 174.949219 45.238281 L 150.308594 45.238281 L 150.308594 20.609375 L 174.949219 20.609375 Z M 150.910156 44.636719 L 174.347656 44.636719 L 174.347656 21.210938 L 150.910156 21.210938 Z M 150.910156 44.636719 " fill-opacity="1" fill-rule="nonzero"/></g><g clip-path="url(#2cad64af17)"><path fill="#ffffff" d="M 50.570312 165.9375 L 26.53125 165.9375 L 26.53125 141.910156 L 50.570312 141.910156 Z M 52.175781 140.304688 L 24.921875 140.304688 L 24.921875 167.546875 L 52.175781 167.546875 Z M 52.175781 140.304688 " fill-opacity="1" fill-rule="nonzero"/></g><g clip-path="url(#0f45d433a6)"><path fill="#000000" d="M 52.480469 167.847656 L 24.621094 167.847656 L 24.621094 140.003906 L 52.480469 140.003906 Z M 25.21875 167.25 L 51.878906 167.25 L 51.878906 140.601562 L 25.21875 140.601562 Z M 50.867188 166.234375 L 26.234375 166.234375 L 26.234375 141.609375 L 50.867188 141.609375 Z M 26.832031 165.636719 L 50.265625 165.636719 L 50.265625 142.207031 L 26.832031 142.207031 Z M 26.832031 165.636719 " fill-opacity="1" fill-rule="nonzero"/></g><g clip-path="url(#93e81a61cb)"><path fill="#ffffff" d="M 78.078125 165.9375 L 54.039062 165.9375 L 54.039062 141.910156 L 78.078125 141.910156 Z M 79.683594 140.304688 L 52.429688 140.304688 L 52.429688 167.546875 L 79.683594 167.546875 Z M 79.683594 140.304688 " fill-opacity="1" fill-rule="nonzero"/></g><g clip-path="url(#bba4d20adb)"><path fill="#000000" d="M 79.988281 167.847656 L 52.128906 167.847656 L 52.128906 140.003906 L 79.988281 140.003906 Z M 52.726562 167.25 L 79.386719 167.25 L 79.386719 140.601562 L 52.726562 140.601562 Z M 78.375 166.234375 L 53.734375 166.234375 L 53.734375 141.609375 L 78.375 141.609375 Z M 54.335938 165.636719 L 77.773438 165.636719 L 77.773438 142.207031 L 54.335938 142.207031 Z M 54.335938 165.636719 " fill-opacity="1" fill-rule="nonzero"/></g><g clip-path="url(#cef67cc54c)"><path fill="#ffffff" d="M 105.585938 165.9375 L 81.546875 165.9375 L 81.546875 141.910156 L 105.585938 141.910156 Z M 107.191406 140.304688 L 79.9375 140.304688 L 79.9375 167.546875 L 107.191406 167.546875 Z M 107.191406 140.304688 " fill-opacity="1" fill-rule="nonzero"/></g><g clip-path="url(#67490e128a)"><path fill="#000000" d="M 107.496094 167.847656 L 79.636719 167.847656 L 79.636719 140.003906 L 107.496094 140.003906 Z M 80.234375 167.25 L 106.886719 167.25 L 106.886719 140.601562 L 80.234375 140.601562 Z M 105.882812 166.234375 L 81.242188 166.234375 L 81.242188 141.609375 L 105.882812 141.609375 Z M 81.84375 165.636719 L 105.28125 165.636719 L 105.28125 142.207031 L 81.84375 142.207031 Z M 81.84375 165.636719 " fill-opacity="1" fill-rule="nonzero"/></g><g clip-path="url(#a4936c1bf8)"><path fill="#ffffff" d="M 105.585938 138.445312 L 81.546875 138.445312 L 81.546875 114.417969 L 105.585938 114.417969 Z M 107.191406 112.8125 L 79.9375 112.8125 L 79.9375 140.050781 L 107.191406 140.050781 Z M 107.191406 112.8125 " fill-opacity="1" fill-rule="nonzero"/><path fill="#000000" d="M 107.496094 140.355469 L 79.636719 140.355469 L 79.636719 112.507812 L 107.496094 112.507812 Z M 80.234375 139.753906 L 106.886719 139.753906 L 106.886719 113.109375 L 80.234375 113.109375 Z M 105.882812 138.742188 L 81.242188 138.742188 L 81.242188 114.121094 L 105.882812 114.121094 Z M 81.84375 138.140625 L 105.28125 138.140625 L 105.28125 114.71875 L 81.84375 114.71875 Z M 81.84375 138.140625 " fill-opacity="1" fill-rule="nonzero"/></g><g clip-path="url(#883d53bea6)"><path fill="#ffffff" d="M 149.230469 108.605469 L 229.410156 108.605469 L 229.410156 169.230469 L 149.230469 169.230469 Z M 149.230469 108.605469 " fill-opacity="1" fill-rule="nonzero"/><path fill="#ffffff" d="M 149.230469 108.605469 L 229.410156 108.605469 L 229.410156 169.230469 L 149.230469 169.230469 Z M 149.230469 108.605469 " fill-opacity="1" fill-rule="nonzero"/></g><g clip-path="url(#69f6fd86cc)"><path stroke-linecap="butt" transform="matrix(1.272699, 0, 0, 1.263065, 142.149723, 108.602737)" fill="none" stroke-linejoin="miter" d="M 0.00205954 0.998004 L 74.124806 0.998004 " stroke="#000000" stroke-width="2" stroke-opacity="1" stroke-miterlimit="4"/></g><g clip-path="url(#c56e84b81f)"><path stroke-linecap="butt" transform="matrix(1.272699, 0, 0, 1.263065, 146.98597, 166.70365)" fill="none" stroke-linejoin="miter" d="M -0.00125303 0.998519 L 74.121493 0.998519 " stroke="#000000" stroke-width="2" stroke-opacity="1" stroke-miterlimit="4"/></g><g clip-path="url(#d8a9a640f5)"><path stroke-linecap="butt" transform="matrix(0, 1.263065, -1.272699, 0, 151.774909, 109.865801)" fill="none" stroke-linejoin="miter" d="M -0.00199508 0.998667 L 48.00253 0.998667 " stroke="#000000" stroke-width="2" stroke-opacity="1" stroke-miterlimit="4"/></g><g clip-path="url(#ffe4c6421d)"><path stroke-linecap="butt" transform="matrix(0, 1.263065, -1.272699, 0, 229.409465, 109.865801)" fill="none" stroke-linejoin="miter" d="M -0.00199508 1.003106 L 48.00253 1.003106 " stroke="#000000" stroke-width="2" stroke-opacity="1" stroke-miterlimit="4"/></g><g clip-path="url(#ebb81dabda)"><path fill="#000000" d="M 196.082031 129.578125 C 195.425781 128.667969 194.515625 127.980469 193.363281 127.507812 C 192.21875 127.035156 190.890625 126.789062 189.382812 126.789062 C 188.015625 126.789062 186.765625 127.023438 185.640625 127.492188 C 184.511719 127.957031 183.601562 128.679688 182.910156 129.625 C 182.363281 130.375 182.023438 131.285156 181.890625 132.359375 C 181.832031 132.820312 182.207031 133.230469 182.699219 133.230469 L 185.722656 133.230469 C 186.113281 133.230469 186.441406 132.972656 186.523438 132.605469 C 186.597656 132.28125 186.726562 131.988281 186.894531 131.742188 C 187.171875 131.335938 187.539062 131.03125 187.972656 130.820312 C 188.410156 130.617188 188.871094 130.511719 189.363281 130.511719 C 189.871094 130.511719 190.332031 130.613281 190.75 130.820312 C 191.167969 131.011719 191.503906 131.316406 191.753906 131.691406 C 192 132.074219 192.128906 132.511719 192.128906 133.011719 C 192.128906 133.484375 192.011719 133.917969 191.792969 134.292969 C 191.578125 134.675781 191.285156 135.027344 190.914062 135.335938 C 190.539062 135.65625 190.132812 135.953125 189.660156 136.242188 C 189.035156 136.621094 188.496094 137.039062 188.054688 137.503906 C 187.609375 137.972656 187.277344 138.582031 187.039062 139.339844 C 186.816406 140.105469 186.695312 141.113281 186.6875 142.382812 L 186.6875 143.015625 C 186.6875 143.449219 187.050781 143.808594 187.5 143.808594 L 190.167969 143.808594 C 190.617188 143.808594 190.980469 143.457031 190.980469 143.015625 L 190.980469 142.382812 C 190.992188 141.667969 191.085938 141.070312 191.273438 140.585938 C 191.453125 140.105469 191.738281 139.667969 192.117188 139.300781 C 192.496094 138.929688 192.988281 138.578125 193.578125 138.230469 C 194.292969 137.820312 194.910156 137.367188 195.425781 136.855469 C 195.941406 136.351562 196.355469 135.769531 196.644531 135.105469 C 196.9375 134.449219 197.089844 133.691406 197.089844 132.84375 C 197.070312 131.566406 196.738281 130.472656 196.082031 129.578125 Z M 196.082031 129.578125 " fill-opacity="1" fill-rule="nonzero"/></g><g clip-path="url(#cbc0cfba7e)"><path fill="#000000" d="M 188.921875 145.574219 C 188.160156 145.574219 187.519531 145.820312 186.984375 146.335938 C 186.453125 146.84375 186.191406 147.457031 186.203125 148.167969 C 186.191406 148.886719 186.453125 149.507812 186.984375 150.023438 C 187.519531 150.535156 188.160156 150.785156 188.921875 150.785156 C 189.398438 150.785156 189.847656 150.671875 190.25 150.433594 C 190.660156 150.191406 190.980469 149.882812 191.242188 149.480469 C 191.496094 149.082031 191.625 148.652344 191.628906 148.167969 C 191.617188 147.453125 191.347656 146.84375 190.800781 146.335938 C 190.261719 145.820312 189.636719 145.574219 188.921875 145.574219 Z M 188.921875 145.574219 " fill-opacity="1" fill-rule="nonzero"/></g><g clip-path="url(#a20819b3c9)"><path fill="#000000" d="M 52.128906 112.507812 L 79.636719 112.507812 L 79.636719 140.003906 L 52.128906 140.003906 Z M 52.128906 112.507812 " fill-opacity="1" fill-rule="nonzero"/></g><g clip-path="url(#8252c5a984)"><path fill="#000000" d="M 58.949219 19.003906 L 86.457031 19.003906 L 86.457031 46.5 L 58.949219 46.5 Z M 58.949219 19.003906 " fill-opacity="1" fill-rule="nonzero"/></g><g clip-path="url(#4e3efb5fee)"><path fill="#000000" d="M 176.203125 19.003906 L 203.710938 19.003906 L 203.710938 46.5 L 176.203125 46.5 Z M 176.203125 19.003906 " fill-opacity="1" fill-rule="nonzero"/></g></svg>