<svg xmlns="http://www.w3.org/2000/svg" xmlns:xlink="http://www.w3.org/1999/xlink" width="343" zoomAndPan="magnify" viewBox="0 0 257.25 186.749995" height="249" preserveAspectRatio="xMidYMid meet" version="1.0"><defs><clipPath id="ebd23931b2"><path d="M 18.621094 9.757812 L 61.996094 9.757812 L 61.996094 53.128906 L 18.621094 53.128906 Z M 18.621094 9.757812 " clip-rule="nonzero"/></clipPath><clipPath id="dfd6ebce1c"><path d="M 0 0.148438 L 256.503906 0.148438 L 256.503906 4 L 0 4 Z M 0 0.148438 " clip-rule="nonzero"/></clipPath><clipPath id="9309d0bc4e"><path d="M 0 60 L 256.503906 60 L 256.503906 64 L 0 64 Z M 0 60 " clip-rule="nonzero"/></clipPath><clipPath id="23ad6e1598"><path d="M 0 125 L 256.503906 125 L 256.503906 129 L 0 129 Z M 0 125 " clip-rule="nonzero"/></clipPath><clipPath id="f507519604"><path d="M 0 183 L 256.503906 183 L 256.503906 186.355469 L 0 186.355469 Z M 0 183 " clip-rule="nonzero"/></clipPath><clipPath id="0f6082613f"><path d="M 0 0.148438 L 3 0.148438 L 3 186.355469 L 0 186.355469 Z M 0 0.148438 " clip-rule="nonzero"/></clipPath><clipPath id="4a2c8a6405"><path d="M 80 0.148438 L 84 0.148438 L 84 186.355469 L 80 186.355469 Z M 80 0.148438 " clip-rule="nonzero"/></clipPath><clipPath id="2fedb1dc0a"><path d="M 164 0.148438 L 168 0.148438 L 168 186.355469 L 164 186.355469 Z M 164 0.148438 " clip-rule="nonzero"/></clipPath><clipPath id="921f637956"><path d="M 253 0.148438 L 256.503906 0.148438 L 256.503906 186.355469 L 253 186.355469 Z M 253 0.148438 " clip-rule="nonzero"/></clipPath><clipPath id="f7fc19a5e9"><path d="M 18.621094 72.675781 L 61.996094 72.675781 L 61.996094 116.046875 L 18.621094 116.046875 Z M 18.621094 72.675781 " clip-rule="nonzero"/></clipPath><clipPath id="b8914aaedd"><path d="M 18.621094 135.703125 L 61.996094 135.703125 L 61.996094 179.078125 L 18.621094 179.078125 Z M 18.621094 135.703125 " clip-rule="nonzero"/></clipPath><clipPath id="30b6fdaf7f"><path d="M 101.902344 9.757812 L 145.277344 9.757812 L 145.277344 53.128906 L 101.902344 53.128906 Z M 101.902344 9.757812 " clip-rule="nonzero"/></clipPath><clipPath id="6d451e879b"><path d="M 101.902344 72.675781 L 145.277344 72.675781 L 145.277344 116.046875 L 101.902344 116.046875 Z M 101.902344 72.675781 " clip-rule="nonzero"/></clipPath><clipPath id="1d793cd294"><path d="M 101.902344 134.296875 L 145.277344 134.296875 L 145.277344 177.671875 L 101.902344 177.671875 Z M 101.902344 134.296875 " clip-rule="nonzero"/></clipPath><clipPath id="18adf0faf3"><path d="M 188.511719 9.757812 L 231.886719 9.757812 L 231.886719 53.128906 L 188.511719 53.128906 Z M 188.511719 9.757812 " clip-rule="nonzero"/></clipPath><clipPath id="69d3247afe"><path d="M 188.511719 72.675781 L 231.886719 72.675781 L 231.886719 116.046875 L 188.511719 116.046875 Z M 188.511719 72.675781 " clip-rule="nonzero"/></clipPath><clipPath id="b0ee3c2d3a"><path d="M 19.238281 10.375 L 62.609375 10.375 L 62.609375 53.746094 L 19.238281 53.746094 Z M 19.238281 10.375 " clip-rule="nonzero"/></clipPath><clipPath id="d5043a0f48"><path d="M 102.210938 10.066406 L 145.585938 10.066406 L 145.585938 53.4375 L 102.210938 53.4375 Z M 102.210938 10.066406 " clip-rule="nonzero"/></clipPath><clipPath id="22d0b9ea66"><path d="M 188.511719 9.757812 L 231.886719 9.757812 L 231.886719 53.128906 L 188.511719 53.128906 Z M 188.511719 9.757812 " clip-rule="nonzero"/></clipPath><clipPath id="c2424899c1"><path d="M 19.238281 73.289062 L 62.609375 73.289062 L 62.609375 116.664062 L 19.238281 116.664062 Z M 19.238281 73.289062 " clip-rule="nonzero"/></clipPath><clipPath id="a4ad37634b"><path d="M 102.519531 73.289062 L 145.894531 73.289062 L 145.894531 116.664062 L 102.519531 116.664062 Z M 102.519531 73.289062 " clip-rule="nonzero"/></clipPath><clipPath id="a5640465b0"><path d="M 189.128906 73.289062 L 232.503906 73.289062 L 232.503906 116.664062 L 189.128906 116.664062 Z M 189.128906 73.289062 " clip-rule="nonzero"/></clipPath><clipPath id="6451179e28"><path d="M 18.589844 136.453125 L 61.964844 136.453125 L 61.964844 179.824219 L 18.589844 179.824219 Z M 18.589844 136.453125 " clip-rule="nonzero"/></clipPath><clipPath id="4f16c5f73d"><path d="M 102.519531 134.296875 L 145.894531 134.296875 L 145.894531 177.671875 L 102.519531 177.671875 Z M 102.519531 134.296875 " clip-rule="nonzero"/></clipPath><clipPath id="2bee139857"><path d="M 46.695312 27.679688 L 54.921875 27.679688 L 54.921875 35.902344 L 46.695312 35.902344 Z M 46.695312 27.679688 " clip-rule="nonzero"/></clipPath><clipPath id="bdd96b9832"><path d="M 129.859375 27.0625 L 138.085938 27.0625 L 138.085938 35.289062 L 129.859375 35.289062 Z M 129.859375 27.0625 " clip-rule="nonzero"/></clipPath><clipPath id="653a580e14"><path d="M 119.515625 16.492188 L 127.742188 16.492188 L 127.742188 24.71875 L 119.515625 24.71875 Z M 119.515625 16.492188 " clip-rule="nonzero"/></clipPath><clipPath id="25947039c6"><path d="M 205.816406 36.191406 L 214.042969 36.191406 L 214.042969 44.417969 L 205.816406 44.417969 Z M 205.816406 36.191406 " clip-rule="nonzero"/></clipPath><clipPath id="12cbde67f7"><path d="M 217.488281 27.0625 L 225.714844 27.0625 L 225.714844 35.289062 L 217.488281 35.289062 Z M 217.488281 27.0625 " clip-rule="nonzero"/></clipPath><clipPath id="2e80401198"><path d="M 26.546875 90.285156 L 34.773438 90.285156 L 34.773438 98.511719 L 26.546875 98.511719 Z M 26.546875 90.285156 " clip-rule="nonzero"/></clipPath><clipPath id="4a8a82510d"><path d="M 129.859375 90.285156 L 138.085938 90.285156 L 138.085938 98.511719 L 129.859375 98.511719 Z M 129.859375 90.285156 " clip-rule="nonzero"/></clipPath><clipPath id="332dd8505e"><path d="M 195.378906 90.59375 L 203.601562 90.59375 L 203.601562 98.820312 L 195.378906 98.820312 Z M 195.378906 90.59375 " clip-rule="nonzero"/></clipPath><clipPath id="d06ceaa4d9"><path d="M 217.488281 90.59375 L 225.714844 90.59375 L 225.714844 98.820312 L 217.488281 98.820312 Z M 217.488281 90.59375 " clip-rule="nonzero"/></clipPath><clipPath id="65e6c21273"><path d="M 26.546875 153.316406 L 34.773438 153.316406 L 34.773438 161.542969 L 26.546875 161.542969 Z M 26.546875 153.316406 " clip-rule="nonzero"/></clipPath><clipPath id="1328fef9ac"><path d="M 46.695312 153.652344 L 54.921875 153.652344 L 54.921875 161.878906 L 46.695312 161.878906 Z M 46.695312 153.652344 " clip-rule="nonzero"/></clipPath><clipPath id="d2766b0e3d"><path d="M 185.832031 138.050781 L 236.765625 138.050781 L 236.765625 177.140625 L 185.832031 177.140625 Z M 185.832031 138.050781 " clip-rule="nonzero"/></clipPath><clipPath id="132fd70c0d"><path d="M 185.832031 138.050781 L 236.765625 138.050781 L 236.765625 140 L 185.832031 140 Z M 185.832031 138.050781 " clip-rule="nonzero"/></clipPath><clipPath id="4b9a3be712"><path d="M 185.832031 175 L 236.765625 175 L 236.765625 177.140625 L 185.832031 177.140625 Z M 185.832031 175 " clip-rule="nonzero"/></clipPath><clipPath id="229409ab9d"><path d="M 185.832031 138.050781 L 187.746094 138.050781 L 187.746094 177.140625 L 185.832031 177.140625 Z M 185.832031 138.050781 " clip-rule="nonzero"/></clipPath><clipPath id="05f1b16fae"><path d="M 235 138.050781 L 236.765625 138.050781 L 236.765625 177.140625 L 235 177.140625 Z M 235 138.050781 " clip-rule="nonzero"/></clipPath><clipPath id="db55df2ef9"><path d="M 206.539062 149.777344 L 216.238281 149.777344 L 216.238281 161 L 206.539062 161 Z M 206.539062 149.777344 " clip-rule="nonzero"/></clipPath><clipPath id="4749c6a727"><path d="M 209 161.484375 L 213 161.484375 L 213 165.246094 L 209 165.246094 Z M 209 161.484375 " clip-rule="nonzero"/></clipPath></defs><g clip-path="url(#ebd23931b2)"><path fill="#000000" d="M 40.308594 9.757812 C 28.335938 9.757812 18.621094 19.472656 18.621094 31.445312 C 18.621094 43.414062 28.335938 53.128906 40.308594 53.128906 C 52.277344 53.128906 61.996094 43.414062 61.996094 31.445312 C 61.996094 19.472656 52.277344 9.757812 40.308594 9.757812 Z M 40.308594 10.960938 C 51.625 10.960938 60.789062 20.125 60.789062 31.445312 C 60.789062 42.761719 51.625 51.925781 40.308594 51.925781 C 28.988281 51.925781 19.824219 42.761719 19.824219 31.445312 C 19.824219 20.125 28.988281 10.960938 40.308594 10.960938 Z M 40.308594 10.960938 " fill-opacity="1" fill-rule="nonzero"/></g><g clip-path="url(#dfd6ebce1c)"><path stroke-linecap="butt" transform="matrix(0.74782, 0, 0, 0.74782, -9.091193, 0.1468)" fill="none" stroke-linejoin="miter" d="M 0.00180436 1.997574 L 375.311587 1.997574 " stroke="#000000" stroke-width="4" stroke-opacity="1" stroke-miterlimit="4"/></g><g clip-path="url(#9309d0bc4e)"><path stroke-linecap="butt" transform="matrix(0.74782, 0.000000000000000029, -0.000000000000000029, 0.74782, -9.091193, 60.113854)" fill="none" stroke-linejoin="miter" d="M 0.00180436 1.999841 L 360.957359 1.999841 " stroke="#000000" stroke-width="4" stroke-opacity="1" stroke-miterlimit="4"/></g><g clip-path="url(#23ad6e1598)"><path stroke-linecap="butt" transform="matrix(0.74782, 0, 0, 0.74782, -15.373313, 125.981857)" fill="none" stroke-linejoin="miter" d="M -0.0022553 1.998751 L 375.312751 1.998751 " stroke="#000000" stroke-width="4" stroke-opacity="1" stroke-miterlimit="4"/></g><g clip-path="url(#f507519604)"><path stroke-linecap="butt" transform="matrix(0.74782, 0, 0, 0.74782, 0, 183.362635)" fill="none" stroke-linejoin="miter" d="M 0 2.001471 L 375.315006 2.001471 " stroke="#000000" stroke-width="4" stroke-opacity="1" stroke-miterlimit="4"/></g><g clip-path="url(#0f6082613f)"><path stroke-linecap="butt" transform="matrix(0, -0.74782, 0.74782, 0, -0.00297822, 191.88746)" fill="none" stroke-linejoin="miter" d="M 0.000990604 1.999366 L 253.90054 1.999366 " stroke="#000000" stroke-width="4" stroke-opacity="1" stroke-miterlimit="4"/></g><g clip-path="url(#4a2c8a6405)"><path stroke-linecap="butt" transform="matrix(0, -0.74782, 0.74782, 0, 80.404219, 190.014199)" fill="none" stroke-linejoin="miter" d="M -0.00190738 1.9981 L 253.897642 1.9981 " stroke="#000000" stroke-width="4" stroke-opacity="1" stroke-miterlimit="4"/></g><g clip-path="url(#2fedb1dc0a)"><path stroke-linecap="butt" transform="matrix(0, -0.74782, 0.74782, 0, 164.143453, 188.182567)" fill="none" stroke-linejoin="miter" d="M -0.00137335 2.00205 L 253.898176 2.00205 " stroke="#000000" stroke-width="4" stroke-opacity="1" stroke-miterlimit="4"/></g><g clip-path="url(#921f637956)"><path stroke-linecap="butt" transform="matrix(0, -0.74782, 0.74782, 0, 253.62248, 191.509838)" fill="none" stroke-linejoin="miter" d="M -0.00251485 1.998754 L 253.897034 1.998754 " stroke="#000000" stroke-width="4" stroke-opacity="1" stroke-miterlimit="4"/></g><g clip-path="url(#f7fc19a5e9)"><path fill="#000000" d="M 40.308594 72.675781 C 28.335938 72.675781 18.621094 82.390625 18.621094 94.359375 C 18.621094 106.332031 28.335938 116.046875 40.308594 116.046875 C 52.277344 116.046875 61.996094 106.332031 61.996094 94.359375 C 61.996094 82.390625 52.277344 72.675781 40.308594 72.675781 Z M 40.308594 73.878906 C 51.625 73.878906 60.789062 83.042969 60.789062 94.359375 C 60.789062 105.679688 51.625 114.84375 40.308594 114.84375 C 28.988281 114.84375 19.824219 105.679688 19.824219 94.359375 C 19.824219 83.042969 28.988281 73.878906 40.308594 73.878906 Z M 40.308594 73.878906 " fill-opacity="1" fill-rule="nonzero"/></g><g clip-path="url(#b8914aaedd)"><path fill="#000000" d="M 40.308594 135.703125 C 28.335938 135.703125 18.621094 145.421875 18.621094 157.390625 C 18.621094 169.359375 28.335938 179.078125 40.308594 179.078125 C 52.277344 179.078125 61.996094 169.359375 61.996094 157.390625 C 61.996094 145.421875 52.277344 135.703125 40.308594 135.703125 Z M 40.308594 136.910156 C 51.625 136.910156 60.789062 146.070312 60.789062 157.390625 C 60.789062 168.710938 51.625 177.871094 40.308594 177.871094 C 28.988281 177.871094 19.824219 168.710938 19.824219 157.390625 C 19.824219 146.070312 28.988281 136.910156 40.308594 136.910156 Z M 40.308594 136.910156 " fill-opacity="1" fill-rule="nonzero"/></g><g clip-path="url(#30b6fdaf7f)"><path fill="#000000" d="M 123.589844 9.757812 C 111.621094 9.757812 101.902344 19.472656 101.902344 31.445312 C 101.902344 43.414062 111.621094 53.128906 123.589844 53.128906 C 135.558594 53.128906 145.277344 43.414062 145.277344 31.445312 C 145.277344 19.472656 135.558594 9.757812 123.589844 9.757812 Z M 123.589844 10.960938 C 134.910156 10.960938 144.070312 20.125 144.070312 31.445312 C 144.070312 42.761719 134.910156 51.925781 123.589844 51.925781 C 112.269531 51.925781 103.109375 42.761719 103.109375 31.445312 C 103.109375 20.125 112.269531 10.960938 123.589844 10.960938 Z M 123.589844 10.960938 " fill-opacity="1" fill-rule="nonzero"/></g><g clip-path="url(#6d451e879b)"><path fill="#000000" d="M 123.589844 72.675781 C 111.621094 72.675781 101.902344 82.390625 101.902344 94.359375 C 101.902344 106.332031 111.621094 116.046875 123.589844 116.046875 C 135.558594 116.046875 145.277344 106.332031 145.277344 94.359375 C 145.277344 82.390625 135.558594 72.675781 123.589844 72.675781 Z M 123.589844 73.878906 C 134.910156 73.878906 144.070312 83.042969 144.070312 94.359375 C 144.070312 105.679688 134.910156 114.84375 123.589844 114.84375 C 112.269531 114.84375 103.109375 105.679688 103.109375 94.359375 C 103.109375 83.042969 112.269531 73.878906 123.589844 73.878906 Z M 123.589844 73.878906 " fill-opacity="1" fill-rule="nonzero"/></g><g clip-path="url(#1d793cd294)"><path fill="#000000" d="M 123.589844 134.296875 C 111.621094 134.296875 101.902344 144.015625 101.902344 155.984375 C 101.902344 167.957031 111.621094 177.671875 123.589844 177.671875 C 135.558594 177.671875 145.277344 167.957031 145.277344 155.984375 C 145.277344 144.015625 135.558594 134.296875 123.589844 134.296875 Z M 123.589844 135.503906 C 134.910156 135.503906 144.070312 144.667969 144.070312 155.984375 C 144.070312 167.304688 134.910156 176.46875 123.589844 176.46875 C 112.269531 176.46875 103.109375 167.304688 103.109375 155.984375 C 103.109375 144.667969 112.269531 135.503906 123.589844 135.503906 Z M 123.589844 135.503906 " fill-opacity="1" fill-rule="nonzero"/></g><g clip-path="url(#18adf0faf3)"><path fill="#000000" d="M 210.199219 9.757812 C 198.230469 9.757812 188.511719 19.472656 188.511719 31.445312 C 188.511719 43.414062 198.230469 53.128906 210.199219 53.128906 C 222.167969 53.128906 231.886719 43.414062 231.886719 31.445312 C 231.886719 19.472656 222.167969 9.757812 210.199219 9.757812 Z M 210.199219 10.960938 C 221.519531 10.960938 230.679688 20.125 230.679688 31.445312 C 230.679688 42.761719 221.519531 51.925781 210.199219 51.925781 C 198.878906 51.925781 189.71875 42.761719 189.71875 31.445312 C 189.71875 20.125 198.878906 10.960938 210.199219 10.960938 Z M 210.199219 10.960938 " fill-opacity="1" fill-rule="nonzero"/></g><g clip-path="url(#69d3247afe)"><path fill="#000000" d="M 210.199219 72.675781 C 198.230469 72.675781 188.511719 82.390625 188.511719 94.359375 C 188.511719 106.332031 198.230469 116.046875 210.199219 116.046875 C 222.167969 116.046875 231.886719 106.332031 231.886719 94.359375 C 231.886719 82.390625 222.167969 72.675781 210.199219 72.675781 Z M 210.199219 73.878906 C 221.519531 73.878906 230.679688 83.042969 230.679688 94.359375 C 230.679688 105.679688 221.519531 114.84375 210.199219 114.84375 C 198.878906 114.84375 189.71875 105.679688 189.71875 94.359375 C 189.71875 83.042969 198.878906 73.878906 210.199219 73.878906 Z M 210.199219 73.878906 " fill-opacity="1" fill-rule="nonzero"/></g><g clip-path="url(#b0ee3c2d3a)"><path fill="#000000" d="M 40.925781 53.746094 C 40.542969 53.746094 40.238281 53.4375 40.238281 53.058594 L 40.238281 32.746094 L 19.925781 32.746094 C 19.546875 32.746094 19.238281 32.441406 19.238281 32.058594 C 19.238281 31.679688 19.546875 31.371094 19.925781 31.371094 L 40.238281 31.371094 L 40.238281 11.0625 C 40.238281 10.679688 40.542969 10.375 40.925781 10.375 C 41.304688 10.375 41.609375 10.679688 41.609375 11.0625 L 41.609375 31.371094 L 61.921875 31.371094 C 62.300781 31.371094 62.609375 31.679688 62.609375 32.058594 C 62.609375 32.441406 62.300781 32.746094 61.921875 32.746094 L 41.609375 32.746094 L 41.609375 53.058594 C 41.609375 53.4375 41.304688 53.746094 40.925781 53.746094 Z M 40.925781 53.746094 " fill-opacity="1" fill-rule="nonzero"/></g><g clip-path="url(#d5043a0f48)"><path fill="#000000" d="M 123.898438 53.4375 C 123.519531 53.4375 123.210938 53.128906 123.210938 52.75 L 123.210938 32.4375 L 102.898438 32.4375 C 102.519531 32.4375 102.210938 32.132812 102.210938 31.75 C 102.210938 31.371094 102.519531 31.0625 102.898438 31.0625 L 123.210938 31.0625 L 123.210938 10.753906 C 123.210938 10.371094 123.519531 10.066406 123.898438 10.066406 C 124.277344 10.066406 124.585938 10.371094 124.585938 10.753906 L 124.585938 31.0625 L 144.898438 31.0625 C 145.277344 31.0625 145.585938 31.371094 145.585938 31.75 C 145.585938 32.132812 145.277344 32.4375 144.898438 32.4375 L 124.585938 32.4375 L 124.585938 52.75 C 124.585938 53.128906 124.277344 53.4375 123.898438 53.4375 Z M 123.898438 53.4375 " fill-opacity="1" fill-rule="nonzero"/></g><g clip-path="url(#22d0b9ea66)"><path fill="#000000" d="M 210.199219 53.128906 C 209.820312 53.128906 209.511719 52.820312 209.511719 52.441406 L 209.511719 32.128906 L 189.199219 32.128906 C 188.820312 32.128906 188.511719 31.824219 188.511719 31.441406 C 188.511719 31.0625 188.820312 30.757812 189.199219 30.757812 L 209.511719 30.757812 L 209.511719 10.445312 C 209.511719 10.066406 209.820312 9.757812 210.199219 9.757812 C 210.578125 9.757812 210.886719 10.066406 210.886719 10.445312 L 210.886719 30.757812 L 231.199219 30.757812 C 231.578125 30.757812 231.886719 31.0625 231.886719 31.441406 C 231.886719 31.824219 231.578125 32.128906 231.199219 32.128906 L 210.886719 32.128906 L 210.886719 52.441406 C 210.886719 52.820312 210.578125 53.128906 210.199219 53.128906 Z M 210.199219 53.128906 " fill-opacity="1" fill-rule="nonzero"/></g><g clip-path="url(#c2424899c1)"><path fill="#000000" d="M 40.925781 116.664062 C 40.542969 116.664062 40.238281 116.355469 40.238281 115.976562 L 40.238281 95.664062 L 19.925781 95.664062 C 19.546875 95.664062 19.238281 95.355469 19.238281 94.976562 C 19.238281 94.597656 19.546875 94.289062 19.925781 94.289062 L 40.238281 94.289062 L 40.238281 73.976562 C 40.238281 73.597656 40.542969 73.289062 40.925781 73.289062 C 41.304688 73.289062 41.609375 73.597656 41.609375 73.976562 L 41.609375 94.289062 L 61.921875 94.289062 C 62.300781 94.289062 62.609375 94.597656 62.609375 94.976562 C 62.609375 95.355469 62.300781 95.664062 61.921875 95.664062 L 41.609375 95.664062 L 41.609375 115.976562 C 41.609375 116.355469 41.304688 116.664062 40.925781 116.664062 Z M 40.925781 116.664062 " fill-opacity="1" fill-rule="nonzero"/></g><g clip-path="url(#a4ad37634b)"><path fill="#000000" d="M 124.207031 116.664062 C 123.828125 116.664062 123.519531 116.355469 123.519531 115.976562 L 123.519531 95.664062 L 103.207031 95.664062 C 102.828125 95.664062 102.519531 95.355469 102.519531 94.976562 C 102.519531 94.597656 102.828125 94.289062 103.207031 94.289062 L 123.519531 94.289062 L 123.519531 73.976562 C 123.519531 73.597656 123.828125 73.289062 124.207031 73.289062 C 124.585938 73.289062 124.894531 73.597656 124.894531 73.976562 L 124.894531 94.289062 L 145.207031 94.289062 C 145.585938 94.289062 145.894531 94.597656 145.894531 94.976562 C 145.894531 95.355469 145.585938 95.664062 145.207031 95.664062 L 124.894531 95.664062 L 124.894531 115.976562 C 124.894531 116.355469 124.585938 116.664062 124.207031 116.664062 Z M 124.207031 116.664062 " fill-opacity="1" fill-rule="nonzero"/></g><g clip-path="url(#a5640465b0)"><path fill="#000000" d="M 210.816406 116.664062 C 210.4375 116.664062 210.128906 116.355469 210.128906 115.976562 L 210.128906 95.664062 L 189.816406 95.664062 C 189.4375 95.664062 189.128906 95.355469 189.128906 94.976562 C 189.128906 94.597656 189.4375 94.289062 189.816406 94.289062 L 210.128906 94.289062 L 210.128906 73.976562 C 210.128906 73.597656 210.4375 73.289062 210.816406 73.289062 C 211.195312 73.289062 211.503906 73.597656 211.503906 73.976562 L 211.503906 94.289062 L 231.816406 94.289062 C 232.195312 94.289062 232.503906 94.597656 232.503906 94.976562 C 232.503906 95.355469 232.195312 95.664062 231.816406 95.664062 L 211.503906 95.664062 L 211.503906 115.976562 C 211.503906 116.355469 211.195312 116.664062 210.816406 116.664062 Z M 210.816406 116.664062 " fill-opacity="1" fill-rule="nonzero"/></g><g clip-path="url(#6451179e28)"><path fill="#000000" d="M 40.277344 179.824219 C 39.898438 179.824219 39.589844 179.515625 39.589844 179.136719 L 39.589844 158.824219 L 19.277344 158.824219 C 18.898438 158.824219 18.589844 158.515625 18.589844 158.136719 C 18.589844 157.757812 18.898438 157.449219 19.277344 157.449219 L 39.589844 157.449219 L 39.589844 137.136719 C 39.589844 136.757812 39.898438 136.453125 40.277344 136.453125 C 40.65625 136.453125 40.964844 136.757812 40.964844 137.136719 L 40.964844 157.449219 L 61.277344 157.449219 C 61.65625 157.449219 61.964844 157.757812 61.964844 158.136719 C 61.964844 158.515625 61.65625 158.824219 61.277344 158.824219 L 40.964844 158.824219 L 40.964844 179.136719 C 40.964844 179.515625 40.65625 179.824219 40.277344 179.824219 Z M 40.277344 179.824219 " fill-opacity="1" fill-rule="nonzero"/></g><g clip-path="url(#4f16c5f73d)"><path fill="#000000" d="M 124.207031 177.671875 C 123.828125 177.671875 123.519531 177.363281 123.519531 176.984375 L 123.519531 156.671875 L 103.207031 156.671875 C 102.828125 156.671875 102.519531 156.363281 102.519531 155.984375 C 102.519531 155.605469 102.828125 155.296875 103.207031 155.296875 L 123.519531 155.296875 L 123.519531 134.984375 C 123.519531 134.605469 123.828125 134.296875 124.207031 134.296875 C 124.585938 134.296875 124.894531 134.605469 124.894531 134.984375 L 124.894531 155.296875 L 145.207031 155.296875 C 145.585938 155.296875 145.894531 155.605469 145.894531 155.984375 C 145.894531 156.363281 145.585938 156.671875 145.207031 156.671875 L 124.894531 156.671875 L 124.894531 176.984375 C 124.894531 177.363281 124.585938 177.671875 124.207031 177.671875 Z M 124.207031 177.671875 " fill-opacity="1" fill-rule="nonzero"/></g><g clip-path="url(#2bee139857)"><path fill="#000000" d="M 54.921875 31.789062 C 54.921875 32.0625 54.898438 32.328125 54.84375 32.59375 C 54.792969 32.859375 54.714844 33.117188 54.609375 33.363281 C 54.507812 33.613281 54.378906 33.851562 54.230469 34.074219 C 54.078125 34.300781 53.910156 34.507812 53.71875 34.699219 C 53.527344 34.890625 53.320312 35.0625 53.09375 35.210938 C 52.871094 35.359375 52.632812 35.488281 52.382812 35.589844 C 52.132812 35.695312 51.878906 35.773438 51.613281 35.824219 C 51.347656 35.878906 51.082031 35.902344 50.808594 35.902344 C 50.539062 35.902344 50.273438 35.878906 50.007812 35.824219 C 49.742188 35.773438 49.484375 35.695312 49.234375 35.589844 C 48.988281 35.488281 48.75 35.359375 48.523438 35.210938 C 48.300781 35.0625 48.09375 34.890625 47.902344 34.699219 C 47.710938 34.507812 47.539062 34.300781 47.390625 34.074219 C 47.242188 33.851562 47.113281 33.613281 47.011719 33.363281 C 46.90625 33.117188 46.828125 32.859375 46.777344 32.59375 C 46.722656 32.328125 46.695312 32.0625 46.695312 31.789062 C 46.695312 31.519531 46.722656 31.253906 46.777344 30.988281 C 46.828125 30.722656 46.90625 30.464844 47.011719 30.21875 C 47.113281 29.96875 47.242188 29.730469 47.390625 29.503906 C 47.539062 29.28125 47.710938 29.074219 47.902344 28.882812 C 48.09375 28.691406 48.300781 28.519531 48.523438 28.371094 C 48.75 28.222656 48.988281 28.09375 49.234375 27.992188 C 49.484375 27.886719 49.742188 27.808594 50.007812 27.757812 C 50.273438 27.703125 50.539062 27.679688 50.808594 27.679688 C 51.082031 27.679688 51.347656 27.703125 51.613281 27.757812 C 51.878906 27.808594 52.132812 27.886719 52.382812 27.992188 C 52.632812 28.09375 52.871094 28.222656 53.09375 28.371094 C 53.320312 28.519531 53.527344 28.691406 53.71875 28.882812 C 53.910156 29.074219 54.078125 29.28125 54.230469 29.503906 C 54.378906 29.730469 54.507812 29.96875 54.609375 30.21875 C 54.714844 30.464844 54.792969 30.722656 54.84375 30.988281 C 54.898438 31.253906 54.921875 31.519531 54.921875 31.789062 Z M 54.921875 31.789062 " fill-opacity="1" fill-rule="nonzero"/></g><g clip-path="url(#bdd96b9832)"><path fill="#000000" d="M 138.085938 31.175781 C 138.085938 31.445312 138.058594 31.710938 138.007812 31.976562 C 137.953125 32.242188 137.875 32.5 137.773438 32.75 C 137.667969 32.996094 137.542969 33.234375 137.394531 33.460938 C 137.242188 33.683594 137.074219 33.890625 136.882812 34.082031 C 136.691406 34.273438 136.484375 34.445312 136.257812 34.59375 C 136.035156 34.742188 135.796875 34.871094 135.546875 34.972656 C 135.296875 35.078125 135.039062 35.15625 134.777344 35.207031 C 134.511719 35.261719 134.242188 35.289062 133.972656 35.289062 C 133.703125 35.289062 133.433594 35.261719 133.171875 35.207031 C 132.90625 35.15625 132.648438 35.078125 132.398438 34.972656 C 132.148438 34.871094 131.914062 34.742188 131.6875 34.59375 C 131.464844 34.445312 131.253906 34.273438 131.066406 34.082031 C 130.875 33.890625 130.703125 33.683594 130.554688 33.460938 C 130.402344 33.234375 130.277344 32.996094 130.171875 32.75 C 130.070312 32.5 129.992188 32.242188 129.9375 31.976562 C 129.886719 31.710938 129.859375 31.445312 129.859375 31.175781 C 129.859375 30.902344 129.886719 30.636719 129.9375 30.371094 C 129.992188 30.105469 130.070312 29.851562 130.171875 29.601562 C 130.277344 29.351562 130.402344 29.113281 130.554688 28.890625 C 130.703125 28.664062 130.875 28.457031 131.066406 28.265625 C 131.253906 28.074219 131.464844 27.90625 131.6875 27.753906 C 131.914062 27.605469 132.148438 27.476562 132.398438 27.375 C 132.648438 27.269531 132.90625 27.191406 133.171875 27.140625 C 133.433594 27.085938 133.703125 27.0625 133.972656 27.0625 C 134.242188 27.0625 134.511719 27.085938 134.777344 27.140625 C 135.039062 27.191406 135.296875 27.269531 135.546875 27.375 C 135.796875 27.476562 136.035156 27.605469 136.257812 27.753906 C 136.484375 27.90625 136.691406 28.074219 136.882812 28.265625 C 137.074219 28.457031 137.242188 28.664062 137.394531 28.890625 C 137.542969 29.113281 137.667969 29.351562 137.773438 29.601562 C 137.875 29.851562 137.953125 30.105469 138.007812 30.371094 C 138.058594 30.636719 138.085938 30.902344 138.085938 31.175781 Z M 138.085938 31.175781 " fill-opacity="1" fill-rule="nonzero"/></g><g clip-path="url(#653a580e14)"><path fill="#000000" d="M 127.742188 20.605469 C 127.742188 20.875 127.714844 21.140625 127.664062 21.40625 C 127.609375 21.671875 127.53125 21.929688 127.429688 22.179688 C 127.324219 22.429688 127.199219 22.664062 127.050781 22.890625 C 126.898438 23.113281 126.726562 23.320312 126.539062 23.511719 C 126.347656 23.703125 126.136719 23.875 125.914062 24.023438 C 125.691406 24.175781 125.453125 24.300781 125.203125 24.402344 C 124.953125 24.507812 124.695312 24.585938 124.429688 24.636719 C 124.167969 24.691406 123.898438 24.71875 123.628906 24.71875 C 123.359375 24.71875 123.089844 24.691406 122.828125 24.636719 C 122.5625 24.585938 122.304688 24.507812 122.054688 24.402344 C 121.804688 24.300781 121.570312 24.175781 121.34375 24.023438 C 121.121094 23.875 120.910156 23.703125 120.71875 23.511719 C 120.53125 23.320312 120.359375 23.113281 120.210938 22.890625 C 120.058594 22.664062 119.933594 22.429688 119.828125 22.179688 C 119.726562 21.929688 119.648438 21.671875 119.59375 21.40625 C 119.542969 21.140625 119.515625 20.875 119.515625 20.605469 C 119.515625 20.335938 119.542969 20.066406 119.59375 19.800781 C 119.648438 19.535156 119.726562 19.28125 119.828125 19.03125 C 119.933594 18.78125 120.058594 18.542969 120.210938 18.320312 C 120.359375 18.09375 120.53125 17.886719 120.71875 17.695312 C 120.910156 17.503906 121.121094 17.335938 121.34375 17.183594 C 121.570312 17.035156 121.804688 16.90625 122.054688 16.804688 C 122.304688 16.699219 122.5625 16.621094 122.828125 16.570312 C 123.089844 16.519531 123.359375 16.492188 123.628906 16.492188 C 123.898438 16.492188 124.167969 16.519531 124.429688 16.570312 C 124.695312 16.621094 124.953125 16.699219 125.203125 16.804688 C 125.453125 16.90625 125.691406 17.035156 125.914062 17.183594 C 126.136719 17.335938 126.347656 17.503906 126.539062 17.695312 C 126.726562 17.886719 126.898438 18.09375 127.050781 18.320312 C 127.199219 18.542969 127.324219 18.78125 127.429688 19.03125 C 127.53125 19.28125 127.609375 19.535156 127.664062 19.800781 C 127.714844 20.066406 127.742188 20.335938 127.742188 20.605469 Z M 127.742188 20.605469 " fill-opacity="1" fill-rule="nonzero"/></g><g clip-path="url(#25947039c6)"><path fill="#000000" d="M 214.042969 40.304688 C 214.042969 40.574219 214.015625 40.839844 213.964844 41.105469 C 213.910156 41.371094 213.832031 41.628906 213.730469 41.878906 C 213.625 42.128906 213.5 42.363281 213.351562 42.589844 C 213.199219 42.8125 213.027344 43.019531 212.839844 43.210938 C 212.648438 43.402344 212.4375 43.574219 212.214844 43.722656 C 211.992188 43.875 211.753906 44 211.503906 44.105469 C 211.253906 44.207031 210.996094 44.285156 210.730469 44.335938 C 210.46875 44.390625 210.199219 44.417969 209.929688 44.417969 C 209.660156 44.417969 209.390625 44.390625 209.128906 44.335938 C 208.863281 44.285156 208.605469 44.207031 208.355469 44.105469 C 208.105469 44 207.871094 43.875 207.644531 43.722656 C 207.421875 43.574219 207.210938 43.402344 207.019531 43.210938 C 206.832031 43.019531 206.660156 42.8125 206.511719 42.589844 C 206.359375 42.363281 206.234375 42.128906 206.128906 41.878906 C 206.027344 41.628906 205.949219 41.371094 205.894531 41.105469 C 205.84375 40.839844 205.816406 40.574219 205.816406 40.304688 C 205.816406 40.035156 205.84375 39.765625 205.894531 39.5 C 205.949219 39.238281 206.027344 38.980469 206.128906 38.730469 C 206.234375 38.480469 206.359375 38.242188 206.511719 38.019531 C 206.660156 37.792969 206.832031 37.585938 207.019531 37.394531 C 207.210938 37.203125 207.421875 37.035156 207.644531 36.882812 C 207.871094 36.734375 208.105469 36.605469 208.355469 36.503906 C 208.605469 36.402344 208.863281 36.324219 209.128906 36.269531 C 209.390625 36.21875 209.660156 36.191406 209.929688 36.191406 C 210.199219 36.191406 210.46875 36.21875 210.730469 36.269531 C 210.996094 36.324219 211.253906 36.402344 211.503906 36.503906 C 211.753906 36.605469 211.992188 36.734375 212.214844 36.882812 C 212.4375 37.035156 212.648438 37.203125 212.839844 37.394531 C 213.027344 37.585938 213.199219 37.792969 213.351562 38.019531 C 213.5 38.242188 213.625 38.480469 213.730469 38.730469 C 213.832031 38.980469 213.910156 39.238281 213.964844 39.5 C 214.015625 39.765625 214.042969 40.035156 214.042969 40.304688 Z M 214.042969 40.304688 " fill-opacity="1" fill-rule="nonzero"/></g><g clip-path="url(#12cbde67f7)"><path fill="#000000" d="M 225.714844 31.175781 C 225.714844 31.445312 225.6875 31.710938 225.636719 31.976562 C 225.582031 32.242188 225.503906 32.5 225.402344 32.75 C 225.296875 32.996094 225.171875 33.234375 225.019531 33.460938 C 224.871094 33.683594 224.699219 33.890625 224.507812 34.082031 C 224.316406 34.273438 224.109375 34.445312 223.886719 34.59375 C 223.660156 34.742188 223.425781 34.871094 223.175781 34.972656 C 222.925781 35.078125 222.667969 35.15625 222.402344 35.207031 C 222.136719 35.261719 221.871094 35.289062 221.601562 35.289062 C 221.332031 35.289062 221.0625 35.261719 220.796875 35.207031 C 220.535156 35.15625 220.277344 35.078125 220.027344 34.972656 C 219.777344 34.871094 219.539062 34.742188 219.316406 34.59375 C 219.089844 34.445312 218.882812 34.273438 218.691406 34.082031 C 218.5 33.890625 218.332031 33.683594 218.179688 33.460938 C 218.03125 33.234375 217.90625 32.996094 217.800781 32.75 C 217.699219 32.5 217.621094 32.242188 217.566406 31.976562 C 217.515625 31.710938 217.488281 31.445312 217.488281 31.175781 C 217.488281 30.902344 217.515625 30.636719 217.566406 30.371094 C 217.621094 30.105469 217.699219 29.851562 217.800781 29.601562 C 217.90625 29.351562 218.03125 29.113281 218.179688 28.890625 C 218.332031 28.664062 218.5 28.457031 218.691406 28.265625 C 218.882812 28.074219 219.089844 27.90625 219.316406 27.753906 C 219.539062 27.605469 219.777344 27.476562 220.027344 27.375 C 220.277344 27.269531 220.535156 27.191406 220.796875 27.140625 C 221.0625 27.085938 221.332031 27.0625 221.601562 27.0625 C 221.871094 27.0625 222.136719 27.085938 222.402344 27.140625 C 222.667969 27.191406 222.925781 27.269531 223.175781 27.375 C 223.425781 27.476562 223.660156 27.605469 223.886719 27.753906 C 224.109375 27.90625 224.316406 28.074219 224.507812 28.265625 C 224.699219 28.457031 224.871094 28.664062 225.019531 28.890625 C 225.171875 29.113281 225.296875 29.351562 225.402344 29.601562 C 225.503906 29.851562 225.582031 30.105469 225.636719 30.371094 C 225.6875 30.636719 225.714844 30.902344 225.714844 31.175781 Z M 225.714844 31.175781 " fill-opacity="1" fill-rule="nonzero"/></g><g clip-path="url(#2e80401198)"><path fill="#000000" d="M 34.773438 94.398438 C 34.773438 94.671875 34.75 94.9375 34.695312 95.203125 C 34.644531 95.46875 34.566406 95.722656 34.460938 95.972656 C 34.359375 96.222656 34.230469 96.460938 34.082031 96.683594 C 33.929688 96.910156 33.761719 97.117188 33.570312 97.308594 C 33.378906 97.5 33.171875 97.667969 32.945312 97.820312 C 32.722656 97.96875 32.484375 98.097656 32.234375 98.199219 C 31.984375 98.304688 31.730469 98.382812 31.464844 98.433594 C 31.199219 98.488281 30.933594 98.511719 30.660156 98.511719 C 30.390625 98.511719 30.125 98.488281 29.859375 98.433594 C 29.59375 98.382812 29.335938 98.304688 29.085938 98.199219 C 28.839844 98.097656 28.601562 97.96875 28.375 97.820312 C 28.152344 97.667969 27.945312 97.5 27.753906 97.308594 C 27.5625 97.117188 27.390625 96.910156 27.242188 96.683594 C 27.089844 96.460938 26.964844 96.222656 26.863281 95.972656 C 26.757812 95.722656 26.679688 95.46875 26.628906 95.203125 C 26.574219 94.9375 26.546875 94.671875 26.546875 94.398438 C 26.546875 94.128906 26.574219 93.863281 26.628906 93.597656 C 26.679688 93.332031 26.757812 93.074219 26.863281 92.824219 C 26.964844 92.578125 27.089844 92.339844 27.242188 92.113281 C 27.390625 91.890625 27.5625 91.683594 27.753906 91.492188 C 27.945312 91.300781 28.152344 91.128906 28.375 90.980469 C 28.601562 90.832031 28.839844 90.703125 29.085938 90.601562 C 29.335938 90.496094 29.59375 90.417969 29.859375 90.367188 C 30.125 90.3125 30.390625 90.285156 30.660156 90.285156 C 30.933594 90.285156 31.199219 90.3125 31.464844 90.367188 C 31.730469 90.417969 31.984375 90.496094 32.234375 90.601562 C 32.484375 90.703125 32.722656 90.832031 32.945312 90.980469 C 33.171875 91.128906 33.378906 91.300781 33.570312 91.492188 C 33.761719 91.683594 33.929688 91.890625 34.082031 92.113281 C 34.230469 92.339844 34.359375 92.578125 34.460938 92.824219 C 34.566406 93.074219 34.644531 93.332031 34.695312 93.597656 C 34.75 93.863281 34.773438 94.128906 34.773438 94.398438 Z M 34.773438 94.398438 " fill-opacity="1" fill-rule="nonzero"/></g><g clip-path="url(#4a8a82510d)"><path fill="#000000" d="M 138.085938 94.398438 C 138.085938 94.671875 138.058594 94.9375 138.007812 95.203125 C 137.953125 95.46875 137.875 95.722656 137.773438 95.972656 C 137.667969 96.222656 137.542969 96.460938 137.394531 96.683594 C 137.242188 96.910156 137.074219 97.117188 136.882812 97.308594 C 136.691406 97.5 136.484375 97.667969 136.257812 97.820312 C 136.035156 97.96875 135.796875 98.097656 135.546875 98.199219 C 135.296875 98.304688 135.039062 98.382812 134.777344 98.433594 C 134.511719 98.488281 134.242188 98.511719 133.972656 98.511719 C 133.703125 98.511719 133.433594 98.488281 133.171875 98.433594 C 132.90625 98.382812 132.648438 98.304688 132.398438 98.199219 C 132.148438 98.097656 131.914062 97.96875 131.6875 97.820312 C 131.464844 97.667969 131.253906 97.5 131.066406 97.308594 C 130.875 97.117188 130.703125 96.910156 130.554688 96.683594 C 130.402344 96.460938 130.277344 96.222656 130.171875 95.972656 C 130.070312 95.722656 129.992188 95.46875 129.9375 95.203125 C 129.886719 94.9375 129.859375 94.671875 129.859375 94.398438 C 129.859375 94.128906 129.886719 93.863281 129.9375 93.597656 C 129.992188 93.332031 130.070312 93.074219 130.171875 92.824219 C 130.277344 92.578125 130.402344 92.339844 130.554688 92.113281 C 130.703125 91.890625 130.875 91.683594 131.066406 91.492188 C 131.253906 91.300781 131.464844 91.128906 131.6875 90.980469 C 131.914062 90.832031 132.148438 90.703125 132.398438 90.601562 C 132.648438 90.496094 132.90625 90.417969 133.171875 90.367188 C 133.433594 90.3125 133.703125 90.285156 133.972656 90.285156 C 134.242188 90.285156 134.511719 90.3125 134.777344 90.367188 C 135.039062 90.417969 135.296875 90.496094 135.546875 90.601562 C 135.796875 90.703125 136.035156 90.832031 136.257812 90.980469 C 136.484375 91.128906 136.691406 91.300781 136.882812 91.492188 C 137.074219 91.683594 137.242188 91.890625 137.394531 92.113281 C 137.542969 92.339844 137.667969 92.578125 137.773438 92.824219 C 137.875 93.074219 137.953125 93.332031 138.007812 93.597656 C 138.058594 93.863281 138.085938 94.128906 138.085938 94.398438 Z M 138.085938 94.398438 " fill-opacity="1" fill-rule="nonzero"/></g><g clip-path="url(#332dd8505e)"><path fill="#000000" d="M 203.601562 94.707031 C 203.601562 94.976562 203.578125 95.246094 203.523438 95.511719 C 203.472656 95.777344 203.394531 96.03125 203.289062 96.28125 C 203.1875 96.53125 203.058594 96.769531 202.910156 96.992188 C 202.761719 97.21875 202.589844 97.425781 202.398438 97.617188 C 202.207031 97.808594 202 97.976562 201.773438 98.128906 C 201.550781 98.277344 201.3125 98.40625 201.0625 98.507812 C 200.816406 98.613281 200.558594 98.691406 200.292969 98.742188 C 200.027344 98.796875 199.761719 98.820312 199.488281 98.820312 C 199.21875 98.820312 198.953125 98.796875 198.6875 98.742188 C 198.421875 98.691406 198.164062 98.613281 197.917969 98.507812 C 197.667969 98.40625 197.429688 98.277344 197.203125 98.128906 C 196.980469 97.976562 196.773438 97.808594 196.582031 97.617188 C 196.390625 97.425781 196.21875 97.21875 196.070312 96.992188 C 195.921875 96.769531 195.792969 96.53125 195.691406 96.28125 C 195.585938 96.03125 195.507812 95.777344 195.457031 95.511719 C 195.402344 95.246094 195.378906 94.976562 195.378906 94.707031 C 195.378906 94.4375 195.402344 94.171875 195.457031 93.90625 C 195.507812 93.640625 195.585938 93.382812 195.691406 93.132812 C 195.792969 92.886719 195.921875 92.648438 196.070312 92.421875 C 196.21875 92.199219 196.390625 91.992188 196.582031 91.800781 C 196.773438 91.609375 196.980469 91.4375 197.203125 91.289062 C 197.429688 91.136719 197.667969 91.011719 197.917969 90.910156 C 198.164062 90.804688 198.421875 90.726562 198.6875 90.675781 C 198.953125 90.621094 199.21875 90.59375 199.488281 90.59375 C 199.761719 90.59375 200.027344 90.621094 200.292969 90.675781 C 200.558594 90.726562 200.816406 90.804688 201.0625 90.910156 C 201.3125 91.011719 201.550781 91.136719 201.773438 91.289062 C 202 91.4375 202.207031 91.609375 202.398438 91.800781 C 202.589844 91.992188 202.761719 92.199219 202.910156 92.421875 C 203.058594 92.648438 203.1875 92.886719 203.289062 93.132812 C 203.394531 93.382812 203.472656 93.640625 203.523438 93.90625 C 203.578125 94.171875 203.601562 94.4375 203.601562 94.707031 Z M 203.601562 94.707031 " fill-opacity="1" fill-rule="nonzero"/></g><g clip-path="url(#d06ceaa4d9)"><path fill="#000000" d="M 225.714844 94.707031 C 225.714844 94.976562 225.6875 95.246094 225.636719 95.511719 C 225.582031 95.777344 225.503906 96.03125 225.402344 96.28125 C 225.296875 96.53125 225.171875 96.769531 225.019531 96.992188 C 224.871094 97.21875 224.699219 97.425781 224.507812 97.617188 C 224.316406 97.808594 224.109375 97.976562 223.886719 98.128906 C 223.660156 98.277344 223.425781 98.40625 223.175781 98.507812 C 222.925781 98.613281 222.667969 98.691406 222.402344 98.742188 C 222.136719 98.796875 221.871094 98.820312 221.601562 98.820312 C 221.332031 98.820312 221.0625 98.796875 220.796875 98.742188 C 220.535156 98.691406 220.277344 98.613281 220.027344 98.507812 C 219.777344 98.40625 219.539062 98.277344 219.316406 98.128906 C 219.089844 97.976562 218.882812 97.808594 218.691406 97.617188 C 218.5 97.425781 218.332031 97.21875 218.179688 96.992188 C 218.03125 96.769531 217.90625 96.53125 217.800781 96.28125 C 217.699219 96.03125 217.621094 95.777344 217.566406 95.511719 C 217.515625 95.246094 217.488281 94.976562 217.488281 94.707031 C 217.488281 94.4375 217.515625 94.171875 217.566406 93.90625 C 217.621094 93.640625 217.699219 93.382812 217.800781 93.132812 C 217.90625 92.886719 218.03125 92.648438 218.179688 92.421875 C 218.332031 92.199219 218.5 91.992188 218.691406 91.800781 C 218.882812 91.609375 219.089844 91.4375 219.316406 91.289062 C 219.539062 91.136719 219.777344 91.011719 220.027344 90.910156 C 220.277344 90.804688 220.535156 90.726562 220.796875 90.675781 C 221.0625 90.621094 221.332031 90.59375 221.601562 90.59375 C 221.871094 90.59375 222.136719 90.621094 222.402344 90.675781 C 222.667969 90.726562 222.925781 90.804688 223.175781 90.910156 C 223.425781 91.011719 223.660156 91.136719 223.886719 91.289062 C 224.109375 91.4375 224.316406 91.609375 224.507812 91.800781 C 224.699219 91.992188 224.871094 92.199219 225.019531 92.421875 C 225.171875 92.648438 225.296875 92.886719 225.402344 93.132812 C 225.503906 93.382812 225.582031 93.640625 225.636719 93.90625 C 225.6875 94.171875 225.714844 94.4375 225.714844 94.707031 Z M 225.714844 94.707031 " fill-opacity="1" fill-rule="nonzero"/></g><g clip-path="url(#65e6c21273)"><path fill="#000000" d="M 34.773438 157.429688 C 34.773438 157.699219 34.75 157.964844 34.695312 158.230469 C 34.644531 158.496094 34.566406 158.753906 34.460938 159.003906 C 34.359375 159.253906 34.230469 159.488281 34.082031 159.714844 C 33.929688 159.9375 33.761719 160.148438 33.570312 160.335938 C 33.378906 160.527344 33.171875 160.699219 32.945312 160.847656 C 32.722656 161 32.484375 161.125 32.234375 161.230469 C 31.984375 161.332031 31.730469 161.410156 31.464844 161.464844 C 31.199219 161.515625 30.933594 161.542969 30.660156 161.542969 C 30.390625 161.542969 30.125 161.515625 29.859375 161.464844 C 29.59375 161.410156 29.335938 161.332031 29.085938 161.230469 C 28.839844 161.125 28.601562 161 28.375 160.847656 C 28.152344 160.699219 27.945312 160.527344 27.753906 160.335938 C 27.5625 160.148438 27.390625 159.9375 27.242188 159.714844 C 27.089844 159.488281 26.964844 159.253906 26.863281 159.003906 C 26.757812 158.753906 26.679688 158.496094 26.628906 158.230469 C 26.574219 157.964844 26.546875 157.699219 26.546875 157.429688 C 26.546875 157.160156 26.574219 156.890625 26.628906 156.625 C 26.679688 156.363281 26.757812 156.105469 26.863281 155.855469 C 26.964844 155.605469 27.089844 155.367188 27.242188 155.144531 C 27.390625 154.917969 27.5625 154.710938 27.753906 154.519531 C 27.945312 154.328125 28.152344 154.160156 28.375 154.007812 C 28.601562 153.859375 28.839844 153.734375 29.085938 153.628906 C 29.335938 153.527344 29.59375 153.449219 29.859375 153.394531 C 30.125 153.34375 30.390625 153.316406 30.660156 153.316406 C 30.933594 153.316406 31.199219 153.34375 31.464844 153.394531 C 31.730469 153.449219 31.984375 153.527344 32.234375 153.628906 C 32.484375 153.734375 32.722656 153.859375 32.945312 154.007812 C 33.171875 154.160156 33.378906 154.328125 33.570312 154.519531 C 33.761719 154.710938 33.929688 154.917969 34.082031 155.144531 C 34.230469 155.367188 34.359375 155.605469 34.460938 155.855469 C 34.566406 156.105469 34.644531 156.363281 34.695312 156.625 C 34.75 156.890625 34.773438 157.160156 34.773438 157.429688 Z M 34.773438 157.429688 " fill-opacity="1" fill-rule="nonzero"/></g><g clip-path="url(#1328fef9ac)"><path fill="#000000" d="M 54.921875 157.765625 C 54.921875 158.035156 54.898438 158.300781 54.84375 158.566406 C 54.792969 158.832031 54.714844 159.089844 54.609375 159.339844 C 54.507812 159.585938 54.378906 159.824219 54.230469 160.050781 C 54.078125 160.273438 53.910156 160.480469 53.71875 160.671875 C 53.527344 160.863281 53.320312 161.035156 53.09375 161.183594 C 52.871094 161.335938 52.632812 161.460938 52.382812 161.5625 C 52.132812 161.667969 51.878906 161.746094 51.613281 161.796875 C 51.347656 161.851562 51.082031 161.878906 50.808594 161.878906 C 50.539062 161.878906 50.273438 161.851562 50.007812 161.796875 C 49.742188 161.746094 49.484375 161.667969 49.234375 161.5625 C 48.988281 161.460938 48.75 161.335938 48.523438 161.183594 C 48.300781 161.035156 48.09375 160.863281 47.902344 160.671875 C 47.710938 160.480469 47.539062 160.273438 47.390625 160.050781 C 47.242188 159.824219 47.113281 159.585938 47.011719 159.339844 C 46.90625 159.089844 46.828125 158.832031 46.777344 158.566406 C 46.722656 158.300781 46.695312 158.035156 46.695312 157.765625 C 46.695312 157.492188 46.722656 157.226562 46.777344 156.960938 C 46.828125 156.695312 46.90625 156.441406 47.011719 156.191406 C 47.113281 155.941406 47.242188 155.703125 47.390625 155.480469 C 47.539062 155.253906 47.710938 155.046875 47.902344 154.855469 C 48.09375 154.664062 48.300781 154.496094 48.523438 154.34375 C 48.75 154.195312 48.988281 154.066406 49.234375 153.964844 C 49.484375 153.859375 49.742188 153.78125 50.007812 153.730469 C 50.273438 153.675781 50.539062 153.652344 50.808594 153.652344 C 51.082031 153.652344 51.347656 153.675781 51.613281 153.730469 C 51.878906 153.78125 52.132812 153.859375 52.382812 153.964844 C 52.632812 154.066406 52.871094 154.195312 53.09375 154.34375 C 53.320312 154.496094 53.527344 154.664062 53.71875 154.855469 C 53.910156 155.046875 54.078125 155.253906 54.230469 155.480469 C 54.378906 155.703125 54.507812 155.941406 54.609375 156.191406 C 54.714844 156.441406 54.792969 156.695312 54.84375 156.960938 C 54.898438 157.226562 54.921875 157.492188 54.921875 157.765625 Z M 54.921875 157.765625 " fill-opacity="1" fill-rule="nonzero"/></g><g clip-path="url(#d2766b0e3d)"><path fill="#ffffff" d="M 185.832031 138.050781 L 236.765625 138.050781 L 236.765625 177.140625 L 185.832031 177.140625 Z M 185.832031 138.050781 " fill-opacity="1" fill-rule="nonzero"/><path fill="#ffffff" d="M 185.832031 138.050781 L 236.765625 138.050781 L 236.765625 177.140625 L 185.832031 177.140625 Z M 185.832031 138.050781 " fill-opacity="1" fill-rule="nonzero"/></g><g clip-path="url(#132fd70c0d)"><path stroke-linecap="butt" transform="matrix(0.808454, 0, 0, 0.814345, 181.336779, 138.050938)" fill="none" stroke-linejoin="miter" d="M -0.00104034 1.002339 L 74.122883 1.002339 " stroke="#000000" stroke-width="2" stroke-opacity="1" stroke-miterlimit="4"/></g><g clip-path="url(#4b9a3be712)"><path stroke-linecap="butt" transform="matrix(0.808454, 0, 0, 0.814345, 184.408915, 175.510791)" fill="none" stroke-linejoin="miter" d="M 0.00153488 0.998874 L 74.125458 0.998874 " stroke="#000000" stroke-width="2" stroke-opacity="1" stroke-miterlimit="4"/></g><g clip-path="url(#229409ab9d)"><path stroke-linecap="butt" transform="matrix(0, 0.814345, -0.808454, 0, 187.450962, 138.865286)" fill="none" stroke-linejoin="miter" d="M 0.00233482 0.997498 L 47.999131 0.997498 " stroke="#000000" stroke-width="2" stroke-opacity="1" stroke-miterlimit="4"/></g><g clip-path="url(#05f1b16fae)"><path stroke-linecap="butt" transform="matrix(0, 0.814345, -0.808454, 0, 236.766652, 138.865286)" fill="none" stroke-linejoin="miter" d="M 0.00233482 1.001443 L 47.999131 1.001443 " stroke="#000000" stroke-width="2" stroke-opacity="1" stroke-miterlimit="4"/></g><g clip-path="url(#db55df2ef9)"><path fill="#000000" d="M 215.59375 151.574219 C 215.179688 150.988281 214.605469 150.542969 213.867188 150.238281 C 213.140625 149.933594 212.296875 149.777344 211.339844 149.777344 C 210.472656 149.777344 209.679688 149.929688 208.960938 150.230469 C 208.246094 150.53125 207.667969 150.992188 207.230469 151.605469 C 206.882812 152.085938 206.667969 152.675781 206.582031 153.371094 C 206.542969 153.664062 206.785156 153.929688 207.09375 153.929688 L 209.015625 153.929688 C 209.265625 153.929688 209.472656 153.761719 209.523438 153.527344 C 209.570312 153.316406 209.652344 153.128906 209.761719 152.96875 C 209.9375 152.707031 210.167969 152.511719 210.445312 152.375 C 210.722656 152.246094 211.015625 152.175781 211.328125 152.175781 C 211.652344 152.175781 211.941406 152.238281 212.210938 152.375 C 212.476562 152.5 212.6875 152.695312 212.847656 152.9375 C 213.003906 153.183594 213.085938 153.464844 213.085938 153.789062 C 213.085938 154.09375 213.011719 154.371094 212.875 154.617188 C 212.734375 154.859375 212.546875 155.085938 212.316406 155.289062 C 212.078125 155.492188 211.816406 155.683594 211.519531 155.871094 C 211.121094 156.117188 210.777344 156.386719 210.496094 156.6875 C 210.214844 156.988281 210.003906 157.378906 209.851562 157.867188 C 209.710938 158.359375 209.632812 159.011719 209.628906 159.828125 L 209.628906 160.238281 C 209.628906 160.519531 209.859375 160.75 210.148438 160.75 L 211.839844 160.75 C 212.125 160.75 212.359375 160.523438 212.359375 160.238281 L 212.359375 159.828125 C 212.363281 159.371094 212.421875 158.984375 212.539062 158.671875 C 212.65625 158.359375 212.839844 158.082031 213.078125 157.839844 C 213.320312 157.601562 213.628906 157.375 214.007812 157.152344 C 214.460938 156.886719 214.851562 156.59375 215.179688 156.269531 C 215.507812 155.941406 215.769531 155.566406 215.953125 155.140625 C 216.140625 154.714844 216.234375 154.226562 216.234375 153.679688 C 216.222656 152.855469 216.011719 152.152344 215.59375 151.574219 Z M 215.59375 151.574219 " fill-opacity="1" fill-rule="nonzero"/></g><g clip-path="url(#4749c6a727)"><path fill="#000000" d="M 211.046875 161.886719 C 210.566406 161.886719 210.15625 162.046875 209.816406 162.378906 C 209.480469 162.707031 209.3125 163.101562 209.320312 163.5625 C 209.3125 164.023438 209.480469 164.425781 209.816406 164.753906 C 210.15625 165.085938 210.566406 165.246094 211.046875 165.246094 C 211.351562 165.246094 211.636719 165.175781 211.890625 165.019531 C 212.148438 164.863281 212.359375 164.664062 212.523438 164.40625 C 212.683594 164.148438 212.765625 163.871094 212.769531 163.5625 C 212.761719 163.097656 212.585938 162.707031 212.242188 162.378906 C 211.898438 162.046875 211.5 161.886719 211.046875 161.886719 Z M 211.046875 161.886719 " fill-opacity="1" fill-rule="nonzero"/></g></svg>