<svg xmlns="http://www.w3.org/2000/svg" xmlns:xlink="http://www.w3.org/1999/xlink" width="343" zoomAndPan="magnify" viewBox="0 0 257.25 186.749995" height="249" preserveAspectRatio="xMidYMid meet" version="1.0"><defs><clipPath id="bc03e78e47"><path d="M 18.566406 10.027344 L 61.816406 10.027344 L 61.816406 53.195312 L 18.566406 53.195312 Z M 18.566406 10.027344 " clip-rule="nonzero"/></clipPath><clipPath id="f05cfa52f1"><path d="M 0 0.464844 L 255.757812 0.464844 L 255.757812 4 L 0 4 Z M 0 0.464844 " clip-rule="nonzero"/></clipPath><clipPath id="838375398b"><path d="M 0 60.03125 L 255.757812 60.03125 L 255.757812 64 L 0 64 Z M 0 60.03125 " clip-rule="nonzero"/></clipPath><clipPath id="6634f1203f"><path d="M 0 125 L 255.757812 125 L 255.757812 128.707031 L 0 128.707031 Z M 0 125 " clip-rule="nonzero"/></clipPath><clipPath id="d5efe82603"><path d="M 0 182.453125 L 255.757812 182.453125 L 255.757812 185.792969 L 0 185.792969 Z M 0 182.453125 " clip-rule="nonzero"/></clipPath><clipPath id="7cf8b0e5ff"><path d="M 0 0.464844 L 2.992188 0.464844 L 2.992188 185.792969 L 0 185.792969 Z M 0 0.464844 " clip-rule="nonzero"/></clipPath><clipPath id="dd3304ed6f"><path d="M 80 0.464844 L 83.753906 0.464844 L 83.753906 185.792969 L 80 185.792969 Z M 80 0.464844 " clip-rule="nonzero"/></clipPath><clipPath id="4e06cee74a"><path d="M 163.523438 0.464844 L 167 0.464844 L 167 185.792969 L 163.523438 185.792969 Z M 163.523438 0.464844 " clip-rule="nonzero"/></clipPath><clipPath id="8d88be014c"><path d="M 252.265625 0.464844 L 255.757812 0.464844 L 255.757812 185.792969 L 252.265625 185.792969 Z M 252.265625 0.464844 " clip-rule="nonzero"/></clipPath><clipPath id="6c0e6ce366"><path d="M 18.566406 72.648438 L 61.816406 72.648438 L 61.816406 115.816406 L 18.566406 115.816406 Z M 18.566406 72.648438 " clip-rule="nonzero"/></clipPath><clipPath id="5dcbdfd247"><path d="M 18.566406 135.378906 L 61.816406 135.378906 L 61.816406 178.550781 L 18.566406 178.550781 Z M 18.566406 135.378906 " clip-rule="nonzero"/></clipPath><clipPath id="847334c97b"><path d="M 101.605469 10.027344 L 144.855469 10.027344 L 144.855469 53.195312 L 101.605469 53.195312 Z M 101.605469 10.027344 " clip-rule="nonzero"/></clipPath><clipPath id="4d8aba3d42"><path d="M 101.605469 72.648438 L 144.855469 72.648438 L 144.855469 115.816406 L 101.605469 115.816406 Z M 101.605469 72.648438 " clip-rule="nonzero"/></clipPath><clipPath id="adc222fe74"><path d="M 101.605469 133.980469 L 144.855469 133.980469 L 144.855469 177.148438 L 101.605469 177.148438 Z M 101.605469 133.980469 " clip-rule="nonzero"/></clipPath><clipPath id="b5495b1603"><path d="M 187.964844 10.027344 L 231.210938 10.027344 L 231.210938 53.195312 L 187.964844 53.195312 Z M 187.964844 10.027344 " clip-rule="nonzero"/></clipPath><clipPath id="5f53f5808b"><path d="M 187.964844 72.648438 L 231.210938 72.648438 L 231.210938 115.816406 L 187.964844 115.816406 Z M 187.964844 72.648438 " clip-rule="nonzero"/></clipPath><clipPath id="47ab40b8bc"><path d="M 19.183594 10.640625 L 62.425781 10.640625 L 62.425781 53.808594 L 19.183594 53.808594 Z M 19.183594 10.640625 " clip-rule="nonzero"/></clipPath><clipPath id="3b4b86e8af"><path d="M 101.914062 10.335938 L 145.164062 10.335938 L 145.164062 53.5 L 101.914062 53.5 Z M 101.914062 10.335938 " clip-rule="nonzero"/></clipPath><clipPath id="2abddecf2e"><path d="M 187.964844 10.027344 L 231.210938 10.027344 L 231.210938 53.195312 L 187.964844 53.195312 Z M 187.964844 10.027344 " clip-rule="nonzero"/></clipPath><clipPath id="64e373b187"><path d="M 19.183594 73.257812 L 62.425781 73.257812 L 62.425781 116.429688 L 19.183594 116.429688 Z M 19.183594 73.257812 " clip-rule="nonzero"/></clipPath><clipPath id="87bc259b1f"><path d="M 102.222656 73.257812 L 145.46875 73.257812 L 145.46875 116.429688 L 102.222656 116.429688 Z M 102.222656 73.257812 " clip-rule="nonzero"/></clipPath><clipPath id="b95c4fb9c1"><path d="M 188.578125 73.257812 L 231.828125 73.257812 L 231.828125 116.429688 L 188.578125 116.429688 Z M 188.578125 73.257812 " clip-rule="nonzero"/></clipPath><clipPath id="fe3ec02ac9"><path d="M 18.535156 136.125 L 61.785156 136.125 L 61.785156 179.292969 L 18.535156 179.292969 Z M 18.535156 136.125 " clip-rule="nonzero"/></clipPath><clipPath id="4720f79bb3"><path d="M 102.222656 133.980469 L 145.46875 133.980469 L 145.46875 177.148438 L 102.222656 177.148438 Z M 102.222656 133.980469 " clip-rule="nonzero"/></clipPath><clipPath id="76780b4226"><path d="M 46.558594 27.863281 L 54.761719 27.863281 L 54.761719 36.050781 L 46.558594 36.050781 Z M 46.558594 27.863281 " clip-rule="nonzero"/></clipPath><clipPath id="9edecbde09"><path d="M 129.480469 27.25 L 137.683594 27.25 L 137.683594 35.4375 L 129.480469 35.4375 Z M 129.480469 27.25 " clip-rule="nonzero"/></clipPath><clipPath id="a054ecdeff"><path d="M 119.167969 16.730469 L 127.371094 16.730469 L 127.371094 24.917969 L 119.167969 24.917969 Z M 119.167969 16.730469 " clip-rule="nonzero"/></clipPath><clipPath id="7bd24c54f0"><path d="M 205.21875 36.335938 L 213.421875 36.335938 L 213.421875 44.523438 L 205.21875 44.523438 Z M 205.21875 36.335938 " clip-rule="nonzero"/></clipPath><clipPath id="2b39ccbb45"><path d="M 216.855469 27.25 L 225.058594 27.25 L 225.058594 35.4375 L 216.855469 35.4375 Z M 216.855469 27.25 " clip-rule="nonzero"/></clipPath><clipPath id="6641928760"><path d="M 26.46875 90.175781 L 34.671875 90.175781 L 34.671875 98.363281 L 26.46875 98.363281 Z M 26.46875 90.175781 " clip-rule="nonzero"/></clipPath><clipPath id="918a32ed4c"><path d="M 129.480469 90.175781 L 137.683594 90.175781 L 137.683594 98.363281 L 129.480469 98.363281 Z M 129.480469 90.175781 " clip-rule="nonzero"/></clipPath><clipPath id="23b80ec33b"><path d="M 194.8125 90.480469 L 203.007812 90.480469 L 203.007812 98.671875 L 194.8125 98.671875 Z M 194.8125 90.480469 " clip-rule="nonzero"/></clipPath><clipPath id="a702a0aeae"><path d="M 216.855469 90.480469 L 225.058594 90.480469 L 225.058594 98.671875 L 216.855469 98.671875 Z M 216.855469 90.480469 " clip-rule="nonzero"/></clipPath><clipPath id="ad77ae9077"><path d="M 26.46875 152.910156 L 34.671875 152.910156 L 34.671875 161.097656 L 26.46875 161.097656 Z M 26.46875 152.910156 " clip-rule="nonzero"/></clipPath><clipPath id="c4b59de835"><path d="M 46.558594 153.242188 L 54.761719 153.242188 L 54.761719 161.429688 L 46.558594 161.429688 Z M 46.558594 153.242188 " clip-rule="nonzero"/></clipPath><clipPath id="e4df20aa3f"><path d="M 185.292969 137.714844 L 236.078125 137.714844 L 236.078125 176.621094 L 185.292969 176.621094 Z M 185.292969 137.714844 " clip-rule="nonzero"/></clipPath><clipPath id="8610364ca6"><path d="M 185.292969 137.714844 L 236.078125 137.714844 L 236.078125 139.65625 L 185.292969 139.65625 Z M 185.292969 137.714844 " clip-rule="nonzero"/></clipPath><clipPath id="8af7296656"><path d="M 185.292969 175 L 236.078125 175 L 236.078125 176.621094 L 185.292969 176.621094 Z M 185.292969 175 " clip-rule="nonzero"/></clipPath><clipPath id="35f6ad333c"><path d="M 185.292969 137.714844 L 187 137.714844 L 187 176.621094 L 185.292969 176.621094 Z M 185.292969 137.714844 " clip-rule="nonzero"/></clipPath><clipPath id="46da7dc2fc"><path d="M 234.316406 137.714844 L 236.078125 137.714844 L 236.078125 176.621094 L 234.316406 176.621094 Z M 234.316406 137.714844 " clip-rule="nonzero"/></clipPath><clipPath id="de2dc485a9"><path d="M 205.9375 149.386719 L 215.609375 149.386719 L 215.609375 160.554688 L 205.9375 160.554688 Z M 205.9375 149.386719 " clip-rule="nonzero"/></clipPath><clipPath id="6f81144107"><path d="M 208.390625 161.039062 L 212.378906 161.039062 L 212.378906 164.78125 L 208.390625 164.78125 Z M 208.390625 161.039062 " clip-rule="nonzero"/></clipPath><clipPath id="6002fa8955"><path d="M 119.738281 161.710938 L 127.964844 161.710938 L 127.964844 169.9375 L 119.738281 169.9375 Z M 119.738281 161.710938 " clip-rule="nonzero"/></clipPath><clipPath id="ec139017f7"><path d="M 129.960938 151.519531 L 138.1875 151.519531 L 138.1875 159.746094 L 129.960938 159.746094 Z M 129.960938 151.519531 " clip-rule="nonzero"/></clipPath></defs><g clip-path="url(#bc03e78e47)"><path fill="#000000" d="M 40.191406 10.027344 C 28.253906 10.027344 18.566406 19.695312 18.566406 31.613281 C 18.566406 43.523438 28.253906 53.195312 40.191406 53.195312 C 52.125 53.195312 61.816406 43.523438 61.816406 31.613281 C 61.816406 19.695312 52.125 10.027344 40.191406 10.027344 Z M 40.191406 11.226562 C 51.476562 11.226562 60.613281 20.347656 60.613281 31.613281 C 60.613281 42.875 51.476562 51.996094 40.191406 51.996094 C 28.902344 51.996094 19.765625 42.875 19.765625 31.613281 C 19.765625 20.347656 28.902344 11.226562 40.191406 11.226562 Z M 40.191406 11.226562 " fill-opacity="1" fill-rule="nonzero"/></g><g clip-path="url(#f05cfa52f1)"><path stroke-linecap="butt" transform="matrix(0.745646, 0, 0, 0.744292, -9.064765, 0.462027)" fill="none" stroke-linejoin="miter" d="M 0.0030383 1.99813 L 375.311939 1.99813 " stroke="#000000" stroke-width="4" stroke-opacity="1" stroke-miterlimit="4"/></g><g clip-path="url(#838375398b)"><path stroke-linecap="butt" transform="matrix(0.745646, 0.000000000000000029, -0.000000000000000029, 0.744292, -9.064765, 60.146146)" fill="none" stroke-linejoin="miter" d="M 0.0030383 1.997425 L 360.957779 1.997425 " stroke="#000000" stroke-width="4" stroke-opacity="1" stroke-miterlimit="4"/></g><g clip-path="url(#6634f1203f)"><path stroke-linecap="butt" transform="matrix(0.745646, 0, 0, 0.744292, -15.328623, 125.703367)" fill="none" stroke-linejoin="miter" d="M -0.00457085 1.999269 L 375.314808 1.999269 " stroke="#000000" stroke-width="4" stroke-opacity="1" stroke-miterlimit="4"/></g><g clip-path="url(#d5efe82603)"><path stroke-linecap="butt" transform="matrix(0.745646, 0, 0, 0.744292, 0.000000000000021254, 182.813427)" fill="none" stroke-linejoin="miter" d="M -0.000000000000028505 2.003597 L 375.31414 2.003597 " stroke="#000000" stroke-width="4" stroke-opacity="1" stroke-miterlimit="4"/></g><g clip-path="url(#7cf8b0e5ff)"><path stroke-linecap="butt" transform="matrix(0, -0.744292, 0.745646, 0, -0.00296956, 191.298024)" fill="none" stroke-linejoin="miter" d="M 0.00154434 1.999944 L 253.902744 1.999944 " stroke="#000000" stroke-width="4" stroke-opacity="1" stroke-miterlimit="4"/></g><g clip-path="url(#dd3304ed6f)"><path stroke-linecap="butt" transform="matrix(0, -0.744292, 0.745646, 0, 80.17049, 189.433603)" fill="none" stroke-linejoin="miter" d="M 0.0000128923 1.997819 L 253.895965 1.997819 " stroke="#000000" stroke-width="4" stroke-opacity="1" stroke-miterlimit="4"/></g><g clip-path="url(#4e06cee74a)"><path stroke-linecap="butt" transform="matrix(0, -0.744292, 0.745646, 0, 163.666294, 187.610617)" fill="none" stroke-linejoin="miter" d="M -0.00357897 2.003447 L 253.897621 2.003447 " stroke="#000000" stroke-width="4" stroke-opacity="1" stroke-miterlimit="4"/></g><g clip-path="url(#8d88be014c)"><path stroke-linecap="butt" transform="matrix(0, -0.744292, 0.745646, 0, 252.885206, 190.922188)" fill="none" stroke-linejoin="miter" d="M -0.00482749 1.99799 L 253.896373 1.99799 " stroke="#000000" stroke-width="4" stroke-opacity="1" stroke-miterlimit="4"/></g><g clip-path="url(#6c0e6ce366)"><path fill="#000000" d="M 40.191406 72.648438 C 28.253906 72.648438 18.566406 82.316406 18.566406 94.230469 C 18.566406 106.144531 28.253906 115.816406 40.191406 115.816406 C 52.125 115.816406 61.816406 106.144531 61.816406 94.230469 C 61.816406 82.316406 52.125 72.648438 40.191406 72.648438 Z M 40.191406 73.847656 C 51.476562 73.847656 60.613281 82.96875 60.613281 94.230469 C 60.613281 105.496094 51.476562 114.617188 40.191406 114.617188 C 28.902344 114.617188 19.765625 105.496094 19.765625 94.230469 C 19.765625 82.96875 28.902344 73.847656 40.191406 73.847656 Z M 40.191406 73.847656 " fill-opacity="1" fill-rule="nonzero"/></g><g clip-path="url(#5dcbdfd247)"><path fill="#000000" d="M 40.191406 135.378906 C 28.253906 135.378906 18.566406 145.050781 18.566406 156.964844 C 18.566406 168.875 28.253906 178.550781 40.191406 178.550781 C 52.125 178.550781 61.816406 168.875 61.816406 156.964844 C 61.816406 145.050781 52.125 135.378906 40.191406 135.378906 Z M 40.191406 136.582031 C 51.476562 136.582031 60.613281 145.695312 60.613281 156.964844 C 60.613281 168.230469 51.476562 177.347656 40.191406 177.347656 C 28.902344 177.347656 19.765625 168.230469 19.765625 156.964844 C 19.765625 145.695312 28.902344 136.582031 40.191406 136.582031 Z M 40.191406 136.582031 " fill-opacity="1" fill-rule="nonzero"/></g><g clip-path="url(#847334c97b)"><path fill="#000000" d="M 123.230469 10.027344 C 111.296875 10.027344 101.605469 19.695312 101.605469 31.613281 C 101.605469 43.523438 111.296875 53.195312 123.230469 53.195312 C 135.164062 53.195312 144.855469 43.523438 144.855469 31.613281 C 144.855469 19.695312 135.164062 10.027344 123.230469 10.027344 Z M 123.230469 11.226562 C 134.519531 11.226562 143.652344 20.347656 143.652344 31.613281 C 143.652344 42.875 134.519531 51.996094 123.230469 51.996094 C 111.941406 51.996094 102.808594 42.875 102.808594 31.613281 C 102.808594 20.347656 111.941406 11.226562 123.230469 11.226562 Z M 123.230469 11.226562 " fill-opacity="1" fill-rule="nonzero"/></g><g clip-path="url(#4d8aba3d42)"><path fill="#000000" d="M 123.230469 72.648438 C 111.296875 72.648438 101.605469 82.316406 101.605469 94.230469 C 101.605469 106.144531 111.296875 115.816406 123.230469 115.816406 C 135.164062 115.816406 144.855469 106.144531 144.855469 94.230469 C 144.855469 82.316406 135.164062 72.648438 123.230469 72.648438 Z M 123.230469 73.847656 C 134.519531 73.847656 143.652344 82.96875 143.652344 94.230469 C 143.652344 105.496094 134.519531 114.617188 123.230469 114.617188 C 111.941406 114.617188 102.808594 105.496094 102.808594 94.230469 C 102.808594 82.96875 111.941406 73.847656 123.230469 73.847656 Z M 123.230469 73.847656 " fill-opacity="1" fill-rule="nonzero"/></g><g clip-path="url(#adc222fe74)"><path fill="#000000" d="M 123.230469 133.980469 C 111.296875 133.980469 101.605469 143.652344 101.605469 155.5625 C 101.605469 167.480469 111.296875 177.148438 123.230469 177.148438 C 135.164062 177.148438 144.855469 167.480469 144.855469 155.5625 C 144.855469 143.652344 135.164062 133.980469 123.230469 133.980469 Z M 123.230469 135.179688 C 134.519531 135.179688 143.652344 144.300781 143.652344 155.5625 C 143.652344 166.832031 134.519531 175.953125 123.230469 175.953125 C 111.941406 175.953125 102.808594 166.832031 102.808594 155.5625 C 102.808594 144.300781 111.941406 135.179688 123.230469 135.179688 Z M 123.230469 135.179688 " fill-opacity="1" fill-rule="nonzero"/></g><g clip-path="url(#b5495b1603)"><path fill="#000000" d="M 209.589844 10.027344 C 197.652344 10.027344 187.964844 19.695312 187.964844 31.613281 C 187.964844 43.523438 197.652344 53.195312 209.589844 53.195312 C 221.523438 53.195312 231.210938 43.523438 231.210938 31.613281 C 231.210938 19.695312 221.523438 10.027344 209.589844 10.027344 Z M 209.589844 11.226562 C 220.875 11.226562 230.007812 20.347656 230.007812 31.613281 C 230.007812 42.875 220.875 51.996094 209.589844 51.996094 C 198.300781 51.996094 189.167969 42.875 189.167969 31.613281 C 189.167969 20.347656 198.300781 11.226562 209.589844 11.226562 Z M 209.589844 11.226562 " fill-opacity="1" fill-rule="nonzero"/></g><g clip-path="url(#5f53f5808b)"><path fill="#000000" d="M 209.589844 72.648438 C 197.652344 72.648438 187.964844 82.316406 187.964844 94.230469 C 187.964844 106.144531 197.652344 115.816406 209.589844 115.816406 C 221.523438 115.816406 231.210938 106.144531 231.210938 94.230469 C 231.210938 82.316406 221.523438 72.648438 209.589844 72.648438 Z M 209.589844 73.847656 C 220.875 73.847656 230.007812 82.96875 230.007812 94.230469 C 230.007812 105.496094 220.875 114.617188 209.589844 114.617188 C 198.300781 114.617188 189.167969 105.496094 189.167969 94.230469 C 189.167969 82.96875 198.300781 73.847656 209.589844 73.847656 Z M 209.589844 73.847656 " fill-opacity="1" fill-rule="nonzero"/></g><g clip-path="url(#47ab40b8bc)"><path fill="#000000" d="M 40.808594 53.808594 C 40.425781 53.808594 40.121094 53.5 40.121094 53.125 L 40.121094 32.90625 L 19.867188 32.90625 C 19.488281 32.90625 19.183594 32.605469 19.183594 32.222656 C 19.183594 31.847656 19.488281 31.539062 19.867188 31.539062 L 40.121094 31.539062 L 40.121094 11.328125 C 40.121094 10.945312 40.425781 10.640625 40.808594 10.640625 C 41.183594 10.640625 41.488281 10.945312 41.488281 11.328125 L 41.488281 31.539062 L 61.742188 31.539062 C 62.121094 31.539062 62.425781 31.847656 62.425781 32.222656 C 62.425781 32.605469 62.121094 32.90625 61.742188 32.90625 L 41.488281 32.90625 L 41.488281 53.125 C 41.488281 53.5 41.183594 53.808594 40.808594 53.808594 Z M 40.808594 53.808594 " fill-opacity="1" fill-rule="nonzero"/></g><g clip-path="url(#3b4b86e8af)"><path fill="#000000" d="M 123.539062 53.5 C 123.160156 53.5 122.851562 53.195312 122.851562 52.816406 L 122.851562 32.601562 L 102.597656 32.601562 C 102.222656 32.601562 101.914062 32.296875 101.914062 31.917969 C 101.914062 31.539062 102.222656 31.230469 102.597656 31.230469 L 122.851562 31.230469 L 122.851562 11.019531 C 122.851562 10.636719 123.160156 10.335938 123.539062 10.335938 C 123.917969 10.335938 124.222656 10.636719 124.222656 11.019531 L 124.222656 31.230469 L 144.476562 31.230469 C 144.855469 31.230469 145.164062 31.539062 145.164062 31.917969 C 145.164062 32.296875 144.855469 32.601562 144.476562 32.601562 L 124.222656 32.601562 L 124.222656 52.816406 C 124.222656 53.195312 123.917969 53.5 123.539062 53.5 Z M 123.539062 53.5 " fill-opacity="1" fill-rule="nonzero"/></g><g clip-path="url(#2abddecf2e)"><path fill="#000000" d="M 209.589844 53.195312 C 209.210938 53.195312 208.902344 52.886719 208.902344 52.511719 L 208.902344 32.292969 L 188.648438 32.292969 C 188.269531 32.292969 187.964844 31.988281 187.964844 31.609375 C 187.964844 31.230469 188.269531 30.929688 188.648438 30.929688 L 208.902344 30.929688 L 208.902344 10.710938 C 208.902344 10.335938 209.210938 10.027344 209.589844 10.027344 C 209.964844 10.027344 210.273438 10.335938 210.273438 10.710938 L 210.273438 30.929688 L 230.527344 30.929688 C 230.90625 30.929688 231.210938 31.230469 231.210938 31.609375 C 231.210938 31.988281 230.90625 32.292969 230.527344 32.292969 L 210.273438 32.292969 L 210.273438 52.511719 C 210.273438 52.886719 209.964844 53.195312 209.589844 53.195312 Z M 209.589844 53.195312 " fill-opacity="1" fill-rule="nonzero"/></g><g clip-path="url(#64e373b187)"><path fill="#000000" d="M 40.808594 116.429688 C 40.425781 116.429688 40.121094 116.121094 40.121094 115.746094 L 40.121094 95.527344 L 19.867188 95.527344 C 19.488281 95.527344 19.183594 95.222656 19.183594 94.84375 C 19.183594 94.46875 19.488281 94.160156 19.867188 94.160156 L 40.121094 94.160156 L 40.121094 73.945312 C 40.121094 73.566406 40.425781 73.257812 40.808594 73.257812 C 41.183594 73.257812 41.488281 73.566406 41.488281 73.945312 L 41.488281 94.160156 L 61.742188 94.160156 C 62.121094 94.160156 62.425781 94.46875 62.425781 94.84375 C 62.425781 95.222656 62.121094 95.527344 61.742188 95.527344 L 41.488281 95.527344 L 41.488281 115.746094 C 41.488281 116.121094 41.183594 116.429688 40.808594 116.429688 Z M 40.808594 116.429688 " fill-opacity="1" fill-rule="nonzero"/></g><g clip-path="url(#87bc259b1f)"><path fill="#000000" d="M 123.847656 116.429688 C 123.46875 116.429688 123.160156 116.121094 123.160156 115.746094 L 123.160156 95.527344 L 102.90625 95.527344 C 102.527344 95.527344 102.222656 95.222656 102.222656 94.84375 C 102.222656 94.46875 102.527344 94.160156 102.90625 94.160156 L 123.160156 94.160156 L 123.160156 73.945312 C 123.160156 73.566406 123.46875 73.257812 123.847656 73.257812 C 124.222656 73.257812 124.53125 73.566406 124.53125 73.945312 L 124.53125 94.160156 L 144.785156 94.160156 C 145.164062 94.160156 145.46875 94.46875 145.46875 94.84375 C 145.46875 95.222656 145.164062 95.527344 144.785156 95.527344 L 124.53125 95.527344 L 124.53125 115.746094 C 124.53125 116.121094 124.222656 116.429688 123.847656 116.429688 Z M 123.847656 116.429688 " fill-opacity="1" fill-rule="nonzero"/></g><g clip-path="url(#b95c4fb9c1)"><path fill="#000000" d="M 210.203125 116.429688 C 209.824219 116.429688 209.519531 116.121094 209.519531 115.746094 L 209.519531 95.527344 L 189.265625 95.527344 C 188.886719 95.527344 188.578125 95.222656 188.578125 94.84375 C 188.578125 94.46875 188.886719 94.160156 189.265625 94.160156 L 209.519531 94.160156 L 209.519531 73.945312 C 209.519531 73.566406 209.824219 73.257812 210.203125 73.257812 C 210.582031 73.257812 210.890625 73.566406 210.890625 73.945312 L 210.890625 94.160156 L 231.140625 94.160156 C 231.519531 94.160156 231.828125 94.46875 231.828125 94.84375 C 231.828125 95.222656 231.519531 95.527344 231.140625 95.527344 L 210.890625 95.527344 L 210.890625 115.746094 C 210.890625 116.121094 210.582031 116.429688 210.203125 116.429688 Z M 210.203125 116.429688 " fill-opacity="1" fill-rule="nonzero"/></g><g clip-path="url(#fe3ec02ac9)"><path fill="#000000" d="M 40.160156 179.292969 C 39.78125 179.292969 39.476562 178.984375 39.476562 178.609375 L 39.476562 158.390625 L 19.222656 158.390625 C 18.84375 158.390625 18.535156 158.082031 18.535156 157.707031 C 18.535156 157.328125 18.84375 157.023438 19.222656 157.023438 L 39.476562 157.023438 L 39.476562 136.804688 C 39.476562 136.429688 39.78125 136.125 40.160156 136.125 C 40.539062 136.125 40.847656 136.429688 40.847656 136.804688 L 40.847656 157.023438 L 61.097656 157.023438 C 61.476562 157.023438 61.785156 157.328125 61.785156 157.707031 C 61.785156 158.082031 61.476562 158.390625 61.097656 158.390625 L 40.847656 158.390625 L 40.847656 178.609375 C 40.847656 178.984375 40.539062 179.292969 40.160156 179.292969 Z M 40.160156 179.292969 " fill-opacity="1" fill-rule="nonzero"/></g><g clip-path="url(#4720f79bb3)"><path fill="#000000" d="M 123.847656 177.148438 C 123.46875 177.148438 123.160156 176.84375 123.160156 176.464844 L 123.160156 156.25 L 102.90625 156.25 C 102.527344 156.25 102.222656 155.941406 102.222656 155.5625 C 102.222656 155.1875 102.527344 154.878906 102.90625 154.878906 L 123.160156 154.878906 L 123.160156 134.664062 C 123.160156 134.285156 123.46875 133.980469 123.847656 133.980469 C 124.222656 133.980469 124.53125 134.285156 124.53125 134.664062 L 124.53125 154.878906 L 144.785156 154.878906 C 145.164062 154.878906 145.46875 155.1875 145.46875 155.5625 C 145.46875 155.941406 145.164062 156.25 144.785156 156.25 L 124.53125 156.25 L 124.53125 176.464844 C 124.53125 176.84375 124.222656 177.148438 123.847656 177.148438 Z M 123.847656 177.148438 " fill-opacity="1" fill-rule="nonzero"/></g><g clip-path="url(#76780b4226)"><path fill="#000000" d="M 54.761719 31.953125 C 54.761719 32.226562 54.738281 32.492188 54.683594 32.757812 C 54.632812 33.019531 54.554688 33.277344 54.449219 33.523438 C 54.347656 33.769531 54.222656 34.007812 54.074219 34.230469 C 53.921875 34.453125 53.753906 34.660156 53.5625 34.851562 C 53.371094 35.042969 53.164062 35.214844 52.9375 35.359375 C 52.71875 35.507812 52.480469 35.636719 52.230469 35.738281 C 51.980469 35.84375 51.726562 35.921875 51.464844 35.972656 C 51.199219 36.027344 50.933594 36.050781 50.660156 36.050781 C 50.390625 36.050781 50.128906 36.027344 49.863281 35.972656 C 49.597656 35.921875 49.339844 35.84375 49.089844 35.738281 C 48.847656 35.636719 48.609375 35.507812 48.382812 35.359375 C 48.160156 35.214844 47.953125 35.042969 47.761719 34.851562 C 47.570312 34.660156 47.402344 34.453125 47.253906 34.230469 C 47.105469 34.007812 46.976562 33.769531 46.875 33.523438 C 46.769531 33.277344 46.691406 33.019531 46.640625 32.757812 C 46.585938 32.492188 46.558594 32.226562 46.558594 31.953125 C 46.558594 31.6875 46.585938 31.421875 46.640625 31.15625 C 46.691406 30.894531 46.769531 30.636719 46.875 30.390625 C 46.976562 30.144531 47.105469 29.90625 47.253906 29.679688 C 47.402344 29.460938 47.570312 29.253906 47.761719 29.0625 C 47.953125 28.871094 48.160156 28.699219 48.382812 28.554688 C 48.609375 28.40625 48.847656 28.277344 49.089844 28.175781 C 49.339844 28.070312 49.597656 27.992188 49.863281 27.941406 C 50.128906 27.886719 50.390625 27.863281 50.660156 27.863281 C 50.933594 27.863281 51.199219 27.886719 51.464844 27.941406 C 51.726562 27.992188 51.980469 28.070312 52.230469 28.175781 C 52.480469 28.277344 52.71875 28.40625 52.9375 28.554688 C 53.164062 28.699219 53.371094 28.871094 53.5625 29.0625 C 53.753906 29.253906 53.921875 29.460938 54.074219 29.679688 C 54.222656 29.90625 54.347656 30.144531 54.449219 30.390625 C 54.554688 30.636719 54.632812 30.894531 54.683594 31.15625 C 54.738281 31.421875 54.761719 31.6875 54.761719 31.953125 Z M 54.761719 31.953125 " fill-opacity="1" fill-rule="nonzero"/></g><g clip-path="url(#9edecbde09)"><path fill="#000000" d="M 137.683594 31.34375 C 137.683594 31.613281 137.65625 31.878906 137.605469 32.140625 C 137.550781 32.40625 137.472656 32.664062 137.371094 32.910156 C 137.269531 33.15625 137.144531 33.394531 136.996094 33.617188 C 136.84375 33.839844 136.675781 34.046875 136.484375 34.238281 C 136.292969 34.425781 136.085938 34.597656 135.863281 34.746094 C 135.640625 34.894531 135.402344 35.023438 135.152344 35.125 C 134.902344 35.230469 134.648438 35.304688 134.386719 35.355469 C 134.121094 35.410156 133.851562 35.4375 133.582031 35.4375 C 133.316406 35.4375 133.046875 35.410156 132.785156 35.355469 C 132.519531 35.304688 132.261719 35.230469 132.011719 35.125 C 131.765625 35.023438 131.53125 34.894531 131.304688 34.746094 C 131.082031 34.597656 130.871094 34.425781 130.683594 34.238281 C 130.496094 34.046875 130.324219 33.839844 130.175781 33.617188 C 130.023438 33.394531 129.898438 33.15625 129.792969 32.910156 C 129.691406 32.664062 129.613281 32.40625 129.558594 32.140625 C 129.507812 31.878906 129.480469 31.613281 129.480469 31.34375 C 129.480469 31.074219 129.507812 30.808594 129.558594 30.542969 C 129.613281 30.28125 129.691406 30.027344 129.792969 29.777344 C 129.898438 29.527344 130.023438 29.292969 130.175781 29.070312 C 130.324219 28.84375 130.496094 28.640625 130.683594 28.449219 C 130.871094 28.257812 131.082031 28.089844 131.304688 27.9375 C 131.53125 27.792969 131.765625 27.664062 132.011719 27.5625 C 132.261719 27.457031 132.519531 27.378906 132.785156 27.328125 C 133.046875 27.273438 133.316406 27.25 133.582031 27.25 C 133.851562 27.25 134.121094 27.273438 134.386719 27.328125 C 134.648438 27.378906 134.902344 27.457031 135.152344 27.5625 C 135.402344 27.664062 135.640625 27.792969 135.863281 27.9375 C 136.085938 28.089844 136.292969 28.257812 136.484375 28.449219 C 136.675781 28.640625 136.84375 28.84375 136.996094 29.070312 C 137.144531 29.292969 137.269531 29.527344 137.371094 29.777344 C 137.472656 30.027344 137.550781 30.28125 137.605469 30.542969 C 137.65625 30.808594 137.683594 31.074219 137.683594 31.34375 Z M 137.683594 31.34375 " fill-opacity="1" fill-rule="nonzero"/></g><g clip-path="url(#a054ecdeff)"><path fill="#000000" d="M 127.371094 20.824219 C 127.371094 21.09375 127.34375 21.355469 127.292969 21.621094 C 127.238281 21.886719 127.160156 22.140625 127.058594 22.390625 C 126.953125 22.640625 126.828125 22.875 126.679688 23.097656 C 126.53125 23.320312 126.359375 23.527344 126.171875 23.714844 C 125.980469 23.90625 125.769531 24.078125 125.546875 24.226562 C 125.324219 24.378906 125.089844 24.503906 124.839844 24.601562 C 124.589844 24.707031 124.332031 24.785156 124.066406 24.835938 C 123.808594 24.890625 123.539062 24.917969 123.269531 24.917969 C 123 24.917969 122.730469 24.890625 122.472656 24.835938 C 122.207031 24.785156 121.949219 24.707031 121.699219 24.601562 C 121.449219 24.503906 121.21875 24.378906 120.992188 24.226562 C 120.769531 24.078125 120.558594 23.90625 120.367188 23.714844 C 120.179688 23.527344 120.007812 23.320312 119.863281 23.097656 C 119.710938 22.875 119.585938 22.640625 119.480469 22.390625 C 119.378906 22.140625 119.300781 21.886719 119.246094 21.621094 C 119.195312 21.355469 119.167969 21.09375 119.167969 20.824219 C 119.167969 20.554688 119.195312 20.289062 119.246094 20.023438 C 119.300781 19.757812 119.378906 19.507812 119.480469 19.257812 C 119.585938 19.007812 119.710938 18.769531 119.863281 18.550781 C 120.007812 18.324219 120.179688 18.117188 120.367188 17.929688 C 120.558594 17.738281 120.769531 17.570312 120.992188 17.417969 C 121.21875 17.269531 121.449219 17.140625 121.699219 17.042969 C 121.949219 16.9375 122.207031 16.859375 122.472656 16.808594 C 122.730469 16.757812 123 16.730469 123.269531 16.730469 C 123.539062 16.730469 123.808594 16.757812 124.066406 16.808594 C 124.332031 16.859375 124.589844 16.9375 124.839844 17.042969 C 125.089844 17.140625 125.324219 17.269531 125.546875 17.417969 C 125.769531 17.570312 125.980469 17.738281 126.171875 17.929688 C 126.359375 18.117188 126.53125 18.324219 126.679688 18.550781 C 126.828125 18.769531 126.953125 19.007812 127.058594 19.257812 C 127.160156 19.507812 127.238281 19.757812 127.292969 20.023438 C 127.34375 20.289062 127.371094 20.554688 127.371094 20.824219 Z M 127.371094 20.824219 " fill-opacity="1" fill-rule="nonzero"/></g><g clip-path="url(#7bd24c54f0)"><path fill="#000000" d="M 213.421875 40.429688 C 213.421875 40.699219 213.394531 40.964844 213.34375 41.226562 C 213.289062 41.492188 213.210938 41.75 213.109375 41.996094 C 213.003906 42.246094 212.878906 42.480469 212.730469 42.703125 C 212.578125 42.925781 212.40625 43.132812 212.222656 43.324219 C 212.03125 43.511719 211.820312 43.683594 211.597656 43.832031 C 211.375 43.984375 211.136719 44.109375 210.890625 44.214844 C 210.640625 44.3125 210.382812 44.390625 210.117188 44.441406 C 209.855469 44.496094 209.589844 44.523438 209.320312 44.523438 C 209.050781 44.523438 208.78125 44.496094 208.519531 44.441406 C 208.257812 44.390625 208 44.3125 207.75 44.214844 C 207.5 44.109375 207.265625 43.984375 207.039062 43.832031 C 206.820312 43.683594 206.609375 43.511719 206.417969 43.324219 C 206.230469 43.132812 206.058594 42.925781 205.910156 42.703125 C 205.757812 42.480469 205.636719 42.246094 205.53125 41.996094 C 205.429688 41.75 205.351562 41.492188 205.296875 41.226562 C 205.246094 40.964844 205.21875 40.699219 205.21875 40.429688 C 205.21875 40.164062 205.246094 39.894531 205.296875 39.628906 C 205.351562 39.367188 205.429688 39.113281 205.53125 38.863281 C 205.636719 38.613281 205.757812 38.378906 205.910156 38.15625 C 206.058594 37.929688 206.230469 37.722656 206.417969 37.535156 C 206.609375 37.34375 206.820312 37.175781 207.039062 37.023438 C 207.265625 36.878906 207.5 36.75 207.75 36.648438 C 208 36.546875 208.257812 36.46875 208.519531 36.414062 C 208.78125 36.363281 209.050781 36.335938 209.320312 36.335938 C 209.589844 36.335938 209.855469 36.363281 210.117188 36.414062 C 210.382812 36.46875 210.640625 36.546875 210.890625 36.648438 C 211.136719 36.75 211.375 36.878906 211.597656 37.023438 C 211.820312 37.175781 212.03125 37.34375 212.222656 37.535156 C 212.40625 37.722656 212.578125 37.929688 212.730469 38.15625 C 212.878906 38.378906 213.003906 38.613281 213.109375 38.863281 C 213.210938 39.113281 213.289062 39.367188 213.34375 39.628906 C 213.394531 39.894531 213.421875 40.164062 213.421875 40.429688 Z M 213.421875 40.429688 " fill-opacity="1" fill-rule="nonzero"/></g><g clip-path="url(#2b39ccbb45)"><path fill="#000000" d="M 225.058594 31.34375 C 225.058594 31.613281 225.03125 31.878906 224.980469 32.140625 C 224.925781 32.40625 224.847656 32.664062 224.746094 32.910156 C 224.640625 33.15625 224.515625 33.394531 224.367188 33.617188 C 224.21875 33.839844 224.046875 34.046875 223.855469 34.238281 C 223.664062 34.425781 223.457031 34.597656 223.234375 34.746094 C 223.011719 34.894531 222.777344 35.023438 222.527344 35.125 C 222.277344 35.230469 222.019531 35.304688 221.753906 35.355469 C 221.492188 35.410156 221.226562 35.4375 220.957031 35.4375 C 220.6875 35.4375 220.417969 35.410156 220.15625 35.355469 C 219.894531 35.304688 219.636719 35.230469 219.386719 35.125 C 219.136719 35.023438 218.902344 34.894531 218.679688 34.746094 C 218.453125 34.597656 218.246094 34.425781 218.054688 34.238281 C 217.863281 34.046875 217.699219 33.839844 217.546875 33.617188 C 217.398438 33.394531 217.273438 33.15625 217.167969 32.910156 C 217.066406 32.664062 216.988281 32.40625 216.933594 32.140625 C 216.882812 31.878906 216.855469 31.613281 216.855469 31.34375 C 216.855469 31.074219 216.882812 30.808594 216.933594 30.542969 C 216.988281 30.28125 217.066406 30.027344 217.167969 29.777344 C 217.273438 29.527344 217.398438 29.292969 217.546875 29.070312 C 217.699219 28.84375 217.863281 28.640625 218.054688 28.449219 C 218.246094 28.257812 218.453125 28.089844 218.679688 27.9375 C 218.902344 27.792969 219.136719 27.664062 219.386719 27.5625 C 219.636719 27.457031 219.894531 27.378906 220.15625 27.328125 C 220.417969 27.273438 220.6875 27.25 220.957031 27.25 C 221.226562 27.25 221.492188 27.273438 221.753906 27.328125 C 222.019531 27.378906 222.277344 27.457031 222.527344 27.5625 C 222.777344 27.664062 223.011719 27.792969 223.234375 27.9375 C 223.457031 28.089844 223.664062 28.257812 223.855469 28.449219 C 224.046875 28.640625 224.21875 28.84375 224.367188 29.070312 C 224.515625 29.292969 224.640625 29.527344 224.746094 29.777344 C 224.847656 30.027344 224.925781 30.28125 224.980469 30.542969 C 225.03125 30.808594 225.058594 31.074219 225.058594 31.34375 Z M 225.058594 31.34375 " fill-opacity="1" fill-rule="nonzero"/></g><g clip-path="url(#6641928760)"><path fill="#000000" d="M 34.671875 94.269531 C 34.671875 94.542969 34.648438 94.804688 34.59375 95.070312 C 34.542969 95.335938 34.464844 95.585938 34.359375 95.835938 C 34.257812 96.085938 34.132812 96.320312 33.984375 96.542969 C 33.832031 96.769531 33.664062 96.976562 33.472656 97.164062 C 33.28125 97.355469 33.074219 97.523438 32.847656 97.675781 C 32.628906 97.824219 32.390625 97.949219 32.140625 98.050781 C 31.890625 98.15625 31.636719 98.234375 31.375 98.285156 C 31.109375 98.339844 30.84375 98.363281 30.570312 98.363281 C 30.300781 98.363281 30.039062 98.339844 29.773438 98.285156 C 29.507812 98.234375 29.25 98.15625 29 98.050781 C 28.757812 97.949219 28.519531 97.824219 28.292969 97.675781 C 28.070312 97.523438 27.863281 97.355469 27.671875 97.164062 C 27.480469 96.976562 27.3125 96.769531 27.164062 96.542969 C 27.011719 96.320312 26.886719 96.085938 26.785156 95.835938 C 26.679688 95.585938 26.601562 95.335938 26.550781 95.070312 C 26.496094 94.804688 26.46875 94.542969 26.46875 94.269531 C 26.46875 94 26.496094 93.738281 26.550781 93.472656 C 26.601562 93.207031 26.679688 92.949219 26.785156 92.703125 C 26.886719 92.457031 27.011719 92.21875 27.164062 91.996094 C 27.3125 91.773438 27.480469 91.566406 27.671875 91.375 C 27.863281 91.1875 28.070312 91.015625 28.292969 90.867188 C 28.519531 90.71875 28.757812 90.589844 29 90.488281 C 29.25 90.386719 29.507812 90.308594 29.773438 90.257812 C 30.039062 90.203125 30.300781 90.175781 30.570312 90.175781 C 30.84375 90.175781 31.109375 90.203125 31.375 90.257812 C 31.636719 90.308594 31.890625 90.386719 32.140625 90.488281 C 32.390625 90.589844 32.628906 90.71875 32.847656 90.867188 C 33.074219 91.015625 33.28125 91.1875 33.472656 91.375 C 33.664062 91.566406 33.832031 91.773438 33.984375 91.996094 C 34.132812 92.21875 34.257812 92.457031 34.359375 92.703125 C 34.464844 92.949219 34.542969 93.207031 34.59375 93.472656 C 34.648438 93.738281 34.671875 94 34.671875 94.269531 Z M 34.671875 94.269531 " fill-opacity="1" fill-rule="nonzero"/></g><g clip-path="url(#918a32ed4c)"><path fill="#000000" d="M 137.683594 94.269531 C 137.683594 94.542969 137.65625 94.804688 137.605469 95.070312 C 137.550781 95.335938 137.472656 95.585938 137.371094 95.835938 C 137.269531 96.085938 137.144531 96.320312 136.996094 96.542969 C 136.84375 96.769531 136.675781 96.976562 136.484375 97.164062 C 136.292969 97.355469 136.085938 97.523438 135.863281 97.675781 C 135.640625 97.824219 135.402344 97.949219 135.152344 98.050781 C 134.902344 98.15625 134.648438 98.234375 134.386719 98.285156 C 134.121094 98.339844 133.851562 98.363281 133.582031 98.363281 C 133.316406 98.363281 133.046875 98.339844 132.785156 98.285156 C 132.519531 98.234375 132.261719 98.15625 132.011719 98.050781 C 131.765625 97.949219 131.53125 97.824219 131.304688 97.675781 C 131.082031 97.523438 130.871094 97.355469 130.683594 97.164062 C 130.496094 96.976562 130.324219 96.769531 130.175781 96.542969 C 130.023438 96.320312 129.898438 96.085938 129.792969 95.835938 C 129.691406 95.585938 129.613281 95.335938 129.558594 95.070312 C 129.507812 94.804688 129.480469 94.542969 129.480469 94.269531 C 129.480469 94 129.507812 93.738281 129.558594 93.472656 C 129.613281 93.207031 129.691406 92.949219 129.792969 92.703125 C 129.898438 92.457031 130.023438 92.21875 130.175781 91.996094 C 130.324219 91.773438 130.496094 91.566406 130.683594 91.375 C 130.871094 91.1875 131.082031 91.015625 131.304688 90.867188 C 131.53125 90.71875 131.765625 90.589844 132.011719 90.488281 C 132.261719 90.386719 132.519531 90.308594 132.785156 90.257812 C 133.046875 90.203125 133.316406 90.175781 133.582031 90.175781 C 133.851562 90.175781 134.121094 90.203125 134.386719 90.257812 C 134.648438 90.308594 134.902344 90.386719 135.152344 90.488281 C 135.402344 90.589844 135.640625 90.71875 135.863281 90.867188 C 136.085938 91.015625 136.292969 91.1875 136.484375 91.375 C 136.675781 91.566406 136.84375 91.773438 136.996094 91.996094 C 137.144531 92.21875 137.269531 92.457031 137.371094 92.703125 C 137.472656 92.949219 137.550781 93.207031 137.605469 93.472656 C 137.65625 93.738281 137.683594 94 137.683594 94.269531 Z M 137.683594 94.269531 " fill-opacity="1" fill-rule="nonzero"/></g><g clip-path="url(#23b80ec33b)"><path fill="#000000" d="M 203.007812 94.574219 C 203.007812 94.84375 202.988281 95.113281 202.933594 95.378906 C 202.882812 95.640625 202.804688 95.894531 202.699219 96.144531 C 202.597656 96.390625 202.46875 96.628906 202.320312 96.851562 C 202.171875 97.074219 202 97.28125 201.808594 97.472656 C 201.621094 97.664062 201.414062 97.832031 201.1875 97.980469 C 200.964844 98.128906 200.726562 98.257812 200.476562 98.359375 C 200.234375 98.464844 199.976562 98.542969 199.710938 98.59375 C 199.445312 98.648438 199.179688 98.671875 198.910156 98.671875 C 198.640625 98.671875 198.375 98.648438 198.109375 98.59375 C 197.84375 98.542969 197.589844 98.464844 197.34375 98.359375 C 197.09375 98.257812 196.855469 98.128906 196.628906 97.980469 C 196.40625 97.832031 196.203125 97.664062 196.011719 97.472656 C 195.820312 97.28125 195.648438 97.074219 195.5 96.851562 C 195.351562 96.628906 195.222656 96.390625 195.121094 96.144531 C 195.015625 95.894531 194.941406 95.640625 194.890625 95.378906 C 194.835938 95.113281 194.8125 94.84375 194.8125 94.574219 C 194.8125 94.308594 194.835938 94.042969 194.890625 93.777344 C 194.941406 93.515625 195.015625 93.257812 195.121094 93.007812 C 195.222656 92.765625 195.351562 92.527344 195.5 92.300781 C 195.648438 92.082031 195.820312 91.875 196.011719 91.683594 C 196.203125 91.492188 196.40625 91.320312 196.628906 91.175781 C 196.855469 91.023438 197.09375 90.898438 197.34375 90.796875 C 197.589844 90.691406 197.84375 90.613281 198.109375 90.5625 C 198.375 90.507812 198.640625 90.480469 198.910156 90.480469 C 199.179688 90.480469 199.445312 90.507812 199.710938 90.5625 C 199.976562 90.613281 200.234375 90.691406 200.476562 90.796875 C 200.726562 90.898438 200.964844 91.023438 201.1875 91.175781 C 201.414062 91.320312 201.621094 91.492188 201.808594 91.683594 C 202 91.875 202.171875 92.082031 202.320312 92.300781 C 202.46875 92.527344 202.597656 92.765625 202.699219 93.007812 C 202.804688 93.257812 202.882812 93.515625 202.933594 93.777344 C 202.988281 94.042969 203.007812 94.308594 203.007812 94.574219 Z M 203.007812 94.574219 " fill-opacity="1" fill-rule="nonzero"/></g><g clip-path="url(#a702a0aeae)"><path fill="#000000" d="M 225.058594 94.574219 C 225.058594 94.84375 225.03125 95.113281 224.980469 95.378906 C 224.925781 95.640625 224.847656 95.894531 224.746094 96.144531 C 224.640625 96.390625 224.515625 96.628906 224.367188 96.851562 C 224.21875 97.074219 224.046875 97.28125 223.855469 97.472656 C 223.664062 97.664062 223.457031 97.832031 223.234375 97.980469 C 223.011719 98.128906 222.777344 98.257812 222.527344 98.359375 C 222.277344 98.464844 222.019531 98.542969 221.753906 98.59375 C 221.492188 98.648438 221.226562 98.671875 220.957031 98.671875 C 220.6875 98.671875 220.417969 98.648438 220.15625 98.59375 C 219.894531 98.542969 219.636719 98.464844 219.386719 98.359375 C 219.136719 98.257812 218.902344 98.128906 218.679688 97.980469 C 218.453125 97.832031 218.246094 97.664062 218.054688 97.472656 C 217.863281 97.28125 217.699219 97.074219 217.546875 96.851562 C 217.398438 96.628906 217.273438 96.390625 217.167969 96.144531 C 217.066406 95.894531 216.988281 95.640625 216.933594 95.378906 C 216.882812 95.113281 216.855469 94.84375 216.855469 94.574219 C 216.855469 94.308594 216.882812 94.042969 216.933594 93.777344 C 216.988281 93.515625 217.066406 93.257812 217.167969 93.007812 C 217.273438 92.765625 217.398438 92.527344 217.546875 92.300781 C 217.699219 92.082031 217.863281 91.875 218.054688 91.683594 C 218.246094 91.492188 218.453125 91.320312 218.679688 91.175781 C 218.902344 91.023438 219.136719 90.898438 219.386719 90.796875 C 219.636719 90.691406 219.894531 90.613281 220.15625 90.5625 C 220.417969 90.507812 220.6875 90.480469 220.957031 90.480469 C 221.226562 90.480469 221.492188 90.507812 221.753906 90.5625 C 222.019531 90.613281 222.277344 90.691406 222.527344 90.796875 C 222.777344 90.898438 223.011719 91.023438 223.234375 91.175781 C 223.457031 91.320312 223.664062 91.492188 223.855469 91.683594 C 224.046875 91.875 224.21875 92.082031 224.367188 92.300781 C 224.515625 92.527344 224.640625 92.765625 224.746094 93.007812 C 224.847656 93.257812 224.925781 93.515625 224.980469 93.777344 C 225.03125 94.042969 225.058594 94.308594 225.058594 94.574219 Z M 225.058594 94.574219 " fill-opacity="1" fill-rule="nonzero"/></g><g clip-path="url(#ad77ae9077)"><path fill="#000000" d="M 34.671875 157.003906 C 34.671875 157.269531 34.648438 157.535156 34.59375 157.800781 C 34.542969 158.0625 34.464844 158.320312 34.359375 158.570312 C 34.257812 158.820312 34.132812 159.050781 33.984375 159.277344 C 33.832031 159.5 33.664062 159.707031 33.472656 159.894531 C 33.28125 160.085938 33.074219 160.257812 32.847656 160.40625 C 32.628906 160.554688 32.390625 160.679688 32.140625 160.785156 C 31.890625 160.886719 31.636719 160.964844 31.375 161.019531 C 31.109375 161.070312 30.84375 161.097656 30.570312 161.097656 C 30.300781 161.097656 30.039062 161.070312 29.773438 161.019531 C 29.507812 160.964844 29.25 160.886719 29 160.785156 C 28.757812 160.679688 28.519531 160.554688 28.292969 160.40625 C 28.070312 160.257812 27.863281 160.085938 27.671875 159.894531 C 27.480469 159.707031 27.3125 159.5 27.164062 159.277344 C 27.011719 159.050781 26.886719 158.820312 26.785156 158.570312 C 26.679688 158.320312 26.601562 158.0625 26.550781 157.800781 C 26.496094 157.535156 26.46875 157.269531 26.46875 157.003906 C 26.46875 156.734375 26.496094 156.464844 26.550781 156.203125 C 26.601562 155.941406 26.679688 155.683594 26.785156 155.4375 C 26.886719 155.1875 27.011719 154.949219 27.164062 154.726562 C 27.3125 154.503906 27.480469 154.296875 27.671875 154.105469 C 27.863281 153.914062 28.070312 153.75 28.292969 153.597656 C 28.519531 153.449219 28.757812 153.324219 29 153.21875 C 29.25 153.117188 29.507812 153.042969 29.773438 152.988281 C 30.039062 152.9375 30.300781 152.910156 30.570312 152.910156 C 30.84375 152.910156 31.109375 152.9375 31.375 152.988281 C 31.636719 153.042969 31.890625 153.117188 32.140625 153.21875 C 32.390625 153.324219 32.628906 153.449219 32.847656 153.597656 C 33.074219 153.75 33.28125 153.914062 33.472656 154.105469 C 33.664062 154.296875 33.832031 154.503906 33.984375 154.726562 C 34.132812 154.949219 34.257812 155.1875 34.359375 155.4375 C 34.464844 155.683594 34.542969 155.941406 34.59375 156.203125 C 34.648438 156.464844 34.671875 156.734375 34.671875 157.003906 Z M 34.671875 157.003906 " fill-opacity="1" fill-rule="nonzero"/></g><g clip-path="url(#c4b59de835)"><path fill="#000000" d="M 54.761719 157.335938 C 54.761719 157.605469 54.738281 157.871094 54.683594 158.132812 C 54.632812 158.398438 54.554688 158.65625 54.449219 158.902344 C 54.347656 159.148438 54.222656 159.386719 54.074219 159.613281 C 53.921875 159.832031 53.753906 160.039062 53.5625 160.230469 C 53.371094 160.421875 53.164062 160.589844 52.9375 160.738281 C 52.71875 160.890625 52.480469 161.015625 52.230469 161.117188 C 51.980469 161.222656 51.726562 161.300781 51.464844 161.347656 C 51.199219 161.402344 50.933594 161.429688 50.660156 161.429688 C 50.390625 161.429688 50.128906 161.402344 49.863281 161.347656 C 49.597656 161.300781 49.339844 161.222656 49.089844 161.117188 C 48.847656 161.015625 48.609375 160.890625 48.382812 160.738281 C 48.160156 160.589844 47.953125 160.421875 47.761719 160.230469 C 47.570312 160.039062 47.402344 159.832031 47.253906 159.613281 C 47.105469 159.386719 46.976562 159.148438 46.875 158.902344 C 46.769531 158.65625 46.691406 158.398438 46.640625 158.132812 C 46.585938 157.871094 46.558594 157.605469 46.558594 157.335938 C 46.558594 157.066406 46.585938 156.800781 46.640625 156.535156 C 46.691406 156.273438 46.769531 156.019531 46.875 155.769531 C 46.976562 155.523438 47.105469 155.285156 47.253906 155.0625 C 47.402344 154.835938 47.570312 154.632812 47.761719 154.441406 C 47.953125 154.25 48.160156 154.082031 48.382812 153.929688 C 48.609375 153.785156 48.847656 153.65625 49.089844 153.554688 C 49.339844 153.449219 49.597656 153.371094 49.863281 153.320312 C 50.128906 153.265625 50.390625 153.242188 50.660156 153.242188 C 50.933594 153.242188 51.199219 153.265625 51.464844 153.320312 C 51.726562 153.371094 51.980469 153.449219 52.230469 153.554688 C 52.480469 153.65625 52.71875 153.785156 52.9375 153.929688 C 53.164062 154.082031 53.371094 154.25 53.5625 154.441406 C 53.753906 154.632812 53.921875 154.835938 54.074219 155.0625 C 54.222656 155.285156 54.347656 155.523438 54.449219 155.769531 C 54.554688 156.019531 54.632812 156.273438 54.683594 156.535156 C 54.738281 156.800781 54.761719 157.066406 54.761719 157.335938 Z M 54.761719 157.335938 " fill-opacity="1" fill-rule="nonzero"/></g><g clip-path="url(#e4df20aa3f)"><path fill="#ffffff" d="M 185.292969 137.714844 L 236.078125 137.714844 L 236.078125 176.621094 L 185.292969 176.621094 Z M 185.292969 137.714844 " fill-opacity="1" fill-rule="nonzero"/><path fill="#ffffff" d="M 185.292969 137.714844 L 236.078125 137.714844 L 236.078125 176.621094 L 185.292969 176.621094 Z M 185.292969 137.714844 " fill-opacity="1" fill-rule="nonzero"/></g><g clip-path="url(#8610364ca6)"><path stroke-linecap="butt" transform="matrix(0.806104, 0, 0, 0.810503, 180.809639, 137.715498)" fill="none" stroke-linejoin="miter" d="M -0.00129622 1.001657 L 74.120665 1.001657 " stroke="#000000" stroke-width="2" stroke-opacity="1" stroke-miterlimit="4"/></g><g clip-path="url(#8af7296656)"><path stroke-linecap="butt" transform="matrix(0.806104, 0, 0, 0.810503, 183.872849, 174.998622)" fill="none" stroke-linejoin="miter" d="M 0.00266781 0.999345 L 74.124629 0.999345 " stroke="#000000" stroke-width="2" stroke-opacity="1" stroke-miterlimit="4"/></g><g clip-path="url(#35f6ad333c)"><path stroke-linecap="butt" transform="matrix(0, 0.810503, -0.806104, 0, 186.906049, 138.526008)" fill="none" stroke-linejoin="miter" d="M 0.00164791 0.997994 L 47.999441 0.997994 " stroke="#000000" stroke-width="2" stroke-opacity="1" stroke-miterlimit="4"/></g><g clip-path="url(#46da7dc2fc)"><path stroke-linecap="butt" transform="matrix(0, 0.810503, -0.806104, 0, 236.07838, 138.526008)" fill="none" stroke-linejoin="miter" d="M 0.00164791 1.003405 L 47.999441 1.003405 " stroke="#000000" stroke-width="2" stroke-opacity="1" stroke-miterlimit="4"/></g><g clip-path="url(#de2dc485a9)"><path fill="#000000" d="M 214.96875 151.175781 C 214.554688 150.59375 213.980469 150.148438 213.246094 149.84375 C 212.519531 149.542969 211.679688 149.386719 210.726562 149.386719 C 209.859375 149.386719 209.070312 149.539062 208.351562 149.835938 C 207.640625 150.136719 207.0625 150.59375 206.628906 151.207031 C 206.28125 151.683594 206.066406 152.269531 205.980469 152.964844 C 205.941406 153.253906 206.183594 153.519531 206.492188 153.519531 L 208.40625 153.519531 C 208.65625 153.519531 208.863281 153.351562 208.914062 153.117188 C 208.960938 152.910156 209.042969 152.722656 209.152344 152.5625 C 209.328125 152.300781 209.558594 152.109375 209.832031 151.972656 C 210.109375 151.84375 210.402344 151.773438 210.714844 151.773438 C 211.035156 151.773438 211.324219 151.835938 211.59375 151.972656 C 211.859375 152.097656 212.070312 152.289062 212.230469 152.53125 C 212.382812 152.777344 212.464844 153.058594 212.464844 153.378906 C 212.464844 153.683594 212.390625 153.957031 212.257812 154.203125 C 212.117188 154.445312 211.929688 154.671875 211.699219 154.871094 C 211.460938 155.074219 211.199219 155.265625 210.90625 155.453125 C 210.507812 155.695312 210.164062 155.964844 209.882812 156.265625 C 209.605469 156.5625 209.394531 156.953125 209.242188 157.4375 C 209.101562 157.929688 209.023438 158.578125 209.019531 159.390625 L 209.019531 159.796875 C 209.019531 160.078125 209.25 160.308594 209.539062 160.308594 L 211.222656 160.308594 C 211.507812 160.308594 211.742188 160.082031 211.742188 159.796875 L 211.742188 159.390625 C 211.746094 158.933594 211.804688 158.550781 211.921875 158.238281 C 212.039062 157.929688 212.222656 157.652344 212.457031 157.410156 C 212.699219 157.175781 213.007812 156.949219 213.386719 156.726562 C 213.835938 156.460938 214.226562 156.171875 214.554688 155.847656 C 214.882812 155.523438 215.140625 155.148438 215.324219 154.722656 C 215.511719 154.300781 215.605469 153.816406 215.605469 153.269531 C 215.59375 152.449219 215.382812 151.75 214.96875 151.175781 Z M 214.96875 151.175781 " fill-opacity="1" fill-rule="nonzero"/></g><g clip-path="url(#6f81144107)"><path fill="#000000" d="M 210.433594 161.4375 C 209.953125 161.4375 209.546875 161.597656 209.207031 161.929688 C 208.871094 162.253906 208.703125 162.648438 208.710938 163.105469 C 208.703125 163.566406 208.871094 163.964844 209.207031 164.292969 C 209.546875 164.621094 209.953125 164.78125 210.433594 164.78125 C 210.738281 164.78125 211.023438 164.710938 211.273438 164.558594 C 211.53125 164.402344 211.742188 164.203125 211.90625 163.945312 C 212.066406 163.691406 212.148438 163.414062 212.152344 163.105469 C 212.144531 162.644531 211.96875 162.253906 211.625 161.929688 C 211.28125 161.597656 210.886719 161.4375 210.433594 161.4375 Z M 210.433594 161.4375 " fill-opacity="1" fill-rule="nonzero"/></g><g clip-path="url(#6002fa8955)"><path fill="#000000" d="M 127.964844 165.824219 C 127.964844 166.09375 127.9375 166.359375 127.886719 166.625 C 127.832031 166.890625 127.753906 167.148438 127.652344 167.398438 C 127.546875 167.644531 127.421875 167.882812 127.269531 168.109375 C 127.121094 168.332031 126.949219 168.539062 126.757812 168.730469 C 126.570312 168.921875 126.359375 169.09375 126.136719 169.242188 C 125.910156 169.394531 125.675781 169.519531 125.425781 169.621094 C 125.175781 169.726562 124.917969 169.804688 124.652344 169.855469 C 124.390625 169.910156 124.121094 169.9375 123.851562 169.9375 C 123.582031 169.9375 123.3125 169.910156 123.046875 169.855469 C 122.785156 169.804688 122.527344 169.726562 122.277344 169.621094 C 122.027344 169.519531 121.789062 169.394531 121.566406 169.242188 C 121.339844 169.09375 121.132812 168.921875 120.941406 168.730469 C 120.75 168.539062 120.582031 168.332031 120.429688 168.109375 C 120.28125 167.882812 120.15625 167.644531 120.050781 167.398438 C 119.949219 167.148438 119.871094 166.890625 119.816406 166.625 C 119.765625 166.359375 119.738281 166.09375 119.738281 165.824219 C 119.738281 165.550781 119.765625 165.285156 119.816406 165.019531 C 119.871094 164.753906 119.949219 164.5 120.050781 164.25 C 120.15625 164 120.28125 163.761719 120.429688 163.539062 C 120.582031 163.3125 120.75 163.105469 120.941406 162.914062 C 121.132812 162.722656 121.339844 162.554688 121.566406 162.402344 C 121.789062 162.253906 122.027344 162.125 122.277344 162.023438 C 122.527344 161.917969 122.785156 161.839844 123.046875 161.789062 C 123.3125 161.734375 123.582031 161.710938 123.851562 161.710938 C 124.121094 161.710938 124.390625 161.734375 124.652344 161.789062 C 124.917969 161.839844 125.175781 161.917969 125.425781 162.023438 C 125.675781 162.125 125.910156 162.253906 126.136719 162.402344 C 126.359375 162.554688 126.570312 162.722656 126.757812 162.914062 C 126.949219 163.105469 127.121094 163.3125 127.269531 163.539062 C 127.421875 163.761719 127.546875 164 127.652344 164.25 C 127.753906 164.5 127.832031 164.753906 127.886719 165.019531 C 127.9375 165.285156 127.964844 165.550781 127.964844 165.824219 Z M 127.964844 165.824219 " fill-opacity="1" fill-rule="nonzero"/></g><g clip-path="url(#ec139017f7)"><path fill="#000000" d="M 138.1875 155.632812 C 138.1875 155.902344 138.160156 156.167969 138.109375 156.433594 C 138.054688 156.699219 137.976562 156.957031 137.875 157.207031 C 137.769531 157.457031 137.644531 157.691406 137.492188 157.917969 C 137.34375 158.140625 137.171875 158.347656 136.980469 158.539062 C 136.792969 158.730469 136.582031 158.902344 136.359375 159.050781 C 136.132812 159.203125 135.898438 159.328125 135.648438 159.433594 C 135.398438 159.535156 135.140625 159.613281 134.875 159.664062 C 134.609375 159.71875 134.34375 159.746094 134.074219 159.746094 C 133.804688 159.746094 133.535156 159.71875 133.269531 159.664062 C 133.007812 159.613281 132.75 159.535156 132.5 159.433594 C 132.25 159.328125 132.011719 159.203125 131.789062 159.050781 C 131.5625 158.902344 131.355469 158.730469 131.164062 158.539062 C 130.972656 158.347656 130.804688 158.140625 130.652344 157.917969 C 130.503906 157.691406 130.378906 157.457031 130.273438 157.207031 C 130.171875 156.957031 130.09375 156.699219 130.039062 156.433594 C 129.988281 156.167969 129.960938 155.902344 129.960938 155.632812 C 129.960938 155.363281 129.988281 155.09375 130.039062 154.828125 C 130.09375 154.566406 130.171875 154.308594 130.273438 154.058594 C 130.378906 153.808594 130.503906 153.570312 130.652344 153.347656 C 130.804688 153.121094 130.972656 152.914062 131.164062 152.722656 C 131.355469 152.53125 131.5625 152.363281 131.789062 152.210938 C 132.011719 152.0625 132.25 151.933594 132.5 151.832031 C 132.75 151.730469 133.007812 151.652344 133.269531 151.597656 C 133.535156 151.546875 133.804688 151.519531 134.074219 151.519531 C 134.34375 151.519531 134.609375 151.546875 134.875 151.597656 C 135.140625 151.652344 135.398438 151.730469 135.648438 151.832031 C 135.898438 151.933594 136.132812 152.0625 136.359375 152.210938 C 136.582031 152.363281 136.792969 152.53125 136.980469 152.722656 C 137.171875 152.914062 137.34375 153.121094 137.492188 153.347656 C 137.644531 153.570312 137.769531 153.808594 137.875 154.058594 C 137.976562 154.308594 138.054688 154.566406 138.109375 154.828125 C 138.160156 155.09375 138.1875 155.363281 138.1875 155.632812 Z M 138.1875 155.632812 " fill-opacity="1" fill-rule="nonzero"/></g></svg>