<svg xmlns="http://www.w3.org/2000/svg" xmlns:xlink="http://www.w3.org/1999/xlink" width="343" zoomAndPan="magnify" viewBox="0 0 257.25 186.749995" height="249" preserveAspectRatio="xMidYMid meet" version="1.0"><defs><clipPath id="592a0ed146"><path d="M 8.359375 68.207031 L 58.464844 68.207031 L 58.464844 118.3125 L 8.359375 118.3125 Z M 8.359375 68.207031 " clip-rule="nonzero"/></clipPath><clipPath id="2182d171ab"><path d="M 68.871094 68.207031 L 118.972656 68.207031 L 118.972656 118.3125 L 68.871094 118.3125 Z M 68.871094 68.207031 " clip-rule="nonzero"/></clipPath><clipPath id="3fb3203b56"><path d="M 128.25 68.207031 L 178.355469 68.207031 L 178.355469 118.3125 L 128.25 118.3125 Z M 128.25 68.207031 " clip-rule="nonzero"/></clipPath><clipPath id="4ca9d62a2a"><path d="M 187.667969 71.550781 L 247.328125 71.550781 L 247.328125 117.140625 L 187.667969 117.140625 Z M 187.667969 71.550781 " clip-rule="nonzero"/></clipPath><clipPath id="914ccc489e"><path d="M 187.667969 71.550781 L 247.328125 71.550781 L 247.328125 74 L 187.667969 74 Z M 187.667969 71.550781 " clip-rule="nonzero"/></clipPath><clipPath id="6e27ce24e4"><path d="M 187.667969 115 L 247.328125 115 L 247.328125 117.140625 L 187.667969 117.140625 Z M 187.667969 115 " clip-rule="nonzero"/></clipPath><clipPath id="f0c81b0412"><path d="M 187.667969 71.550781 L 189.90625 71.550781 L 189.90625 117.140625 L 187.667969 117.140625 Z M 187.667969 71.550781 " clip-rule="nonzero"/></clipPath><clipPath id="a4fa0e9b2c"><path d="M 245 71.550781 L 247.328125 71.550781 L 247.328125 117.140625 L 245 117.140625 Z M 245 71.550781 " clip-rule="nonzero"/></clipPath><clipPath id="bc8d668a80"><path d="M 211.917969 85.226562 L 223.285156 85.226562 L 223.285156 98.882812 L 211.917969 98.882812 Z M 211.917969 85.226562 " clip-rule="nonzero"/></clipPath><clipPath id="5510d9a9ed"><path d="M 215 99 L 219.757812 99 L 219.757812 103.273438 L 215 103.273438 Z M 215 99 " clip-rule="nonzero"/></clipPath><clipPath id="39a25eb0a9"><path d="M 11.179688 71.421875 L 26.136719 71.421875 L 26.136719 86.378906 L 11.179688 86.378906 Z M 11.179688 71.421875 " clip-rule="nonzero"/></clipPath><clipPath id="b0e0d7b1a3"><path d="M 100.816406 71.421875 L 115.773438 71.421875 L 115.773438 86.378906 L 100.816406 86.378906 Z M 100.816406 71.421875 " clip-rule="nonzero"/></clipPath><clipPath id="1cb2c54099"><path d="M 160.5625 99.878906 L 175.519531 99.878906 L 175.519531 114.835938 L 160.5625 114.835938 Z M 160.5625 99.878906 " clip-rule="nonzero"/></clipPath></defs><g clip-path="url(#592a0ed146)"><path fill="#000000" d="M 55.695312 90.488281 L 36.183594 90.488281 L 36.183594 70.976562 C 36.183594 69.445312 34.945312 68.207031 33.414062 68.207031 C 31.878906 68.207031 30.640625 69.445312 30.640625 70.976562 L 30.640625 90.488281 L 11.128906 90.488281 C 9.597656 90.488281 8.359375 91.726562 8.359375 93.257812 C 8.359375 94.792969 9.597656 96.027344 11.128906 96.027344 L 30.640625 96.027344 L 30.640625 115.539062 C 30.640625 117.074219 31.878906 118.3125 33.414062 118.3125 C 34.945312 118.3125 36.183594 117.074219 36.183594 115.539062 L 36.183594 96.027344 L 55.695312 96.027344 C 57.226562 96.027344 58.464844 94.792969 58.464844 93.257812 C 58.464844 91.726562 57.226562 90.488281 55.695312 90.488281 Z M 55.695312 90.488281 " fill-opacity="1" fill-rule="nonzero"/></g><g clip-path="url(#2182d171ab)"><path fill="#000000" d="M 116.203125 90.488281 L 96.691406 90.488281 L 96.691406 70.976562 C 96.691406 69.445312 95.453125 68.207031 93.921875 68.207031 C 92.386719 68.207031 91.152344 69.445312 91.152344 70.976562 L 91.152344 90.488281 L 71.640625 90.488281 C 70.105469 90.488281 68.871094 91.726562 68.871094 93.257812 C 68.871094 94.792969 70.105469 96.027344 71.640625 96.027344 L 91.152344 96.027344 L 91.152344 115.539062 C 91.152344 117.074219 92.386719 118.3125 93.921875 118.3125 C 95.453125 118.3125 96.691406 117.074219 96.691406 115.539062 L 96.691406 96.027344 L 116.203125 96.027344 C 117.738281 96.027344 118.972656 94.792969 118.972656 93.257812 C 118.972656 91.726562 117.738281 90.488281 116.203125 90.488281 Z M 116.203125 90.488281 " fill-opacity="1" fill-rule="nonzero"/></g><g clip-path="url(#3fb3203b56)"><path fill="#000000" d="M 175.585938 90.488281 L 156.074219 90.488281 L 156.074219 70.976562 C 156.074219 69.445312 154.835938 68.207031 153.304688 68.207031 C 151.769531 68.207031 150.53125 69.445312 150.53125 70.976562 L 150.53125 90.488281 L 131.019531 90.488281 C 129.488281 90.488281 128.25 91.726562 128.25 93.257812 C 128.25 94.792969 129.488281 96.027344 131.019531 96.027344 L 150.53125 96.027344 L 150.53125 115.539062 C 150.53125 117.074219 151.769531 118.3125 153.304688 118.3125 C 154.835938 118.3125 156.074219 117.074219 156.074219 115.539062 L 156.074219 96.027344 L 175.585938 96.027344 C 177.117188 96.027344 178.355469 94.792969 178.355469 93.257812 C 178.355469 91.726562 177.117188 90.488281 175.585938 90.488281 Z M 175.585938 90.488281 " fill-opacity="1" fill-rule="nonzero"/></g><g clip-path="url(#4ca9d62a2a)"><path fill="#ffffff" d="M 187.667969 71.550781 L 247.328125 71.550781 L 247.328125 117.140625 L 187.667969 117.140625 Z M 187.667969 71.550781 " fill-opacity="1" fill-rule="nonzero"/><path fill="#ffffff" d="M 187.667969 71.550781 L 247.328125 71.550781 L 247.328125 117.140625 L 187.667969 117.140625 Z M 187.667969 71.550781 " fill-opacity="1" fill-rule="nonzero"/></g><g clip-path="url(#914ccc489e)"><path stroke-linecap="butt" transform="matrix(0.947046, 0, 0, 0.949828, 182.398245, 71.549987)" fill="none" stroke-linejoin="miter" d="M 0.000203612 1.000195 L 74.124599 1.000195 " stroke="#000000" stroke-width="2" stroke-opacity="1" stroke-miterlimit="4"/></g><g clip-path="url(#6e27ce24e4)"><path stroke-linecap="butt" transform="matrix(0.947046, 0, 0, 0.949828, 185.997024, 115.242056)" fill="none" stroke-linejoin="miter" d="M 0.00314277 0.999498 L 74.123413 0.999498 " stroke="#000000" stroke-width="2" stroke-opacity="1" stroke-miterlimit="4"/></g><g clip-path="url(#f0c81b0412)"><path stroke-linecap="butt" transform="matrix(0, 0.949828, -0.947046, 0, 189.560575, 72.499819)" fill="none" stroke-linejoin="miter" d="M 0.000190503 1.000261 L 48.002314 1.000261 " stroke="#000000" stroke-width="2" stroke-opacity="1" stroke-miterlimit="4"/></g><g clip-path="url(#a4fa0e9b2c)"><path stroke-linecap="butt" transform="matrix(0, 0.949828, -0.947046, 0, 247.330365, 72.499819)" fill="none" stroke-linejoin="miter" d="M 0.000190503 1.000535 L 48.002314 1.000535 " stroke="#000000" stroke-width="2" stroke-opacity="1" stroke-miterlimit="4"/></g><g clip-path="url(#bc8d668a80)"><path fill="#000000" d="M 222.53125 87.320312 C 222.042969 86.640625 221.367188 86.121094 220.507812 85.765625 C 219.65625 85.410156 218.667969 85.226562 217.546875 85.226562 C 216.527344 85.226562 215.597656 85.40625 214.757812 85.757812 C 213.921875 86.105469 213.242188 86.644531 212.730469 87.359375 C 212.324219 87.921875 212.070312 88.609375 211.96875 89.417969 C 211.925781 89.761719 212.207031 90.074219 212.574219 90.074219 L 214.824219 90.074219 C 215.113281 90.074219 215.355469 89.875 215.417969 89.601562 C 215.472656 89.355469 215.570312 89.136719 215.695312 88.949219 C 215.902344 88.644531 216.171875 88.414062 216.496094 88.257812 C 216.820312 88.105469 217.164062 88.023438 217.53125 88.023438 C 217.910156 88.023438 218.25 88.101562 218.566406 88.257812 C 218.875 88.40625 219.121094 88.628906 219.308594 88.914062 C 219.492188 89.199219 219.589844 89.527344 219.589844 89.90625 C 219.589844 90.261719 219.503906 90.585938 219.339844 90.871094 C 219.179688 91.15625 218.960938 91.421875 218.6875 91.652344 C 218.40625 91.894531 218.105469 92.117188 217.753906 92.335938 C 217.289062 92.621094 216.886719 92.933594 216.558594 93.285156 C 216.226562 93.636719 215.980469 94.09375 215.800781 94.664062 C 215.636719 95.238281 215.542969 95.996094 215.539062 96.953125 L 215.539062 97.429688 C 215.539062 97.753906 215.8125 98.023438 216.148438 98.023438 L 218.128906 98.023438 C 218.464844 98.023438 218.738281 97.761719 218.738281 97.429688 L 218.738281 96.953125 C 218.742188 96.417969 218.8125 95.964844 218.949219 95.597656 C 219.085938 95.238281 219.300781 94.914062 219.578125 94.632812 C 219.863281 94.355469 220.226562 94.089844 220.667969 93.828125 C 221.203125 93.519531 221.65625 93.179688 222.042969 92.796875 C 222.429688 92.417969 222.730469 91.980469 222.949219 91.480469 C 223.167969 90.988281 223.28125 90.417969 223.28125 89.777344 C 223.265625 88.816406 223.015625 88 222.53125 87.320312 Z M 222.53125 87.320312 " fill-opacity="1" fill-rule="nonzero"/></g><g clip-path="url(#5510d9a9ed)"><path fill="#000000" d="M 217.203125 99.351562 C 216.636719 99.351562 216.15625 99.539062 215.761719 99.925781 C 215.367188 100.308594 215.167969 100.769531 215.179688 101.304688 C 215.167969 101.84375 215.367188 102.3125 215.761719 102.695312 C 216.15625 103.082031 216.636719 103.273438 217.203125 103.273438 C 217.554688 103.273438 217.890625 103.183594 218.191406 103.007812 C 218.492188 102.824219 218.738281 102.589844 218.929688 102.289062 C 219.117188 101.992188 219.214844 101.664062 219.21875 101.304688 C 219.207031 100.765625 219.007812 100.308594 218.601562 99.925781 C 218.199219 99.539062 217.734375 99.351562 217.203125 99.351562 Z M 217.203125 99.351562 " fill-opacity="1" fill-rule="nonzero"/></g><g clip-path="url(#39a25eb0a9)"><path fill="#000000" d="M 18.65625 71.421875 C 14.53125 71.421875 11.179688 74.773438 11.179688 78.902344 C 11.179688 83.027344 14.53125 86.378906 18.65625 86.378906 C 22.785156 86.378906 26.136719 83.027344 26.136719 78.902344 C 26.136719 74.773438 22.785156 71.421875 18.65625 71.421875 Z M 18.65625 71.839844 C 22.5625 71.839844 25.722656 74.996094 25.722656 78.902344 C 25.722656 82.804688 22.5625 85.964844 18.65625 85.964844 C 14.753906 85.964844 11.59375 82.804688 11.59375 78.902344 C 11.59375 74.996094 14.753906 71.839844 18.65625 71.839844 Z M 18.65625 71.839844 " fill-opacity="1" fill-rule="nonzero"/></g><g clip-path="url(#b0e0d7b1a3)"><path fill="#000000" d="M 108.292969 71.421875 C 104.164062 71.421875 100.816406 74.773438 100.816406 78.902344 C 100.816406 83.027344 104.164062 86.378906 108.292969 86.378906 C 112.421875 86.378906 115.773438 83.027344 115.773438 78.902344 C 115.773438 74.773438 112.421875 71.421875 108.292969 71.421875 Z M 108.292969 71.839844 C 112.195312 71.839844 115.355469 74.996094 115.355469 78.902344 C 115.355469 82.804688 112.195312 85.964844 108.292969 85.964844 C 104.390625 85.964844 101.230469 82.804688 101.230469 78.902344 C 101.230469 74.996094 104.390625 71.839844 108.292969 71.839844 Z M 108.292969 71.839844 " fill-opacity="1" fill-rule="nonzero"/></g><g clip-path="url(#1cb2c54099)"><path fill="#000000" d="M 168.039062 99.878906 C 163.914062 99.878906 160.5625 103.230469 160.5625 107.359375 C 160.5625 111.484375 163.914062 114.835938 168.039062 114.835938 C 172.167969 114.835938 175.519531 111.484375 175.519531 107.359375 C 175.519531 103.230469 172.167969 99.878906 168.039062 99.878906 Z M 168.039062 100.296875 C 171.941406 100.296875 175.101562 103.453125 175.101562 107.359375 C 175.101562 111.261719 171.941406 114.421875 168.039062 114.421875 C 164.136719 114.421875 160.976562 111.261719 160.976562 107.359375 C 160.976562 103.453125 164.136719 100.296875 168.039062 100.296875 Z M 168.039062 100.296875 " fill-opacity="1" fill-rule="nonzero"/></g><path stroke-linecap="butt" transform="matrix(0.528788, -0.528788, 0.528788, 0.528788, 39.416917, 85.398046)" fill="none" stroke-linejoin="miter" d="M -0.00306927 1.999594 L 26.435613 1.999594 " stroke="#000000" stroke-width="4" stroke-opacity="1" stroke-miterlimit="4"/><path stroke-linecap="butt" transform="matrix(0.528788, -0.528788, 0.528788, 0.528788, 159.347519, 85.398046)" fill="none" stroke-linejoin="miter" d="M -0.000239615 2.002423 L 26.434749 1.99873 " stroke="#000000" stroke-width="4" stroke-opacity="1" stroke-miterlimit="4"/></svg>