<svg xmlns="http://www.w3.org/2000/svg" xmlns:xlink="http://www.w3.org/1999/xlink" width="343" zoomAndPan="magnify" viewBox="0 0 257.25 186.749995" height="249" preserveAspectRatio="xMidYMid meet" version="1.0"><defs><clipPath id="2fd90ec4a9"><path d="M 0.410156 0.457031 L 255.28125 0.457031 L 255.28125 186.355469 L 0.410156 186.355469 Z M 0.410156 0.457031 " clip-rule="nonzero"/></clipPath><clipPath id="83cfcb7b9c"><path d="M 27.023438 71.78125 L 126.222656 71.78125 L 126.222656 147.089844 L 27.023438 147.089844 Z M 27.023438 71.78125 " clip-rule="nonzero"/></clipPath><clipPath id="ff0f1b1312"><path d="M 27.023438 71.78125 L 126.222656 71.78125 L 126.222656 74.964844 L 27.023438 74.964844 Z M 27.023438 71.78125 " clip-rule="nonzero"/></clipPath><clipPath id="45433066f5"><path d="M 27.023438 143.28125 L 126.222656 143.28125 L 126.222656 147.089844 L 27.023438 147.089844 Z M 27.023438 143.28125 " clip-rule="nonzero"/></clipPath><clipPath id="9e8db7b507"><path d="M 27.023438 71.78125 L 30.753906 71.78125 L 30.753906 147.089844 L 27.023438 147.089844 Z M 27.023438 71.78125 " clip-rule="nonzero"/></clipPath><clipPath id="771ee32f50"><path d="M 123 71.78125 L 126.222656 71.78125 L 126.222656 147.089844 L 123 147.089844 Z M 123 71.78125 " clip-rule="nonzero"/></clipPath><clipPath id="e8977cf246"><path d="M 67.347656 94.375 L 86.246094 94.375 L 86.246094 115.628906 L 67.347656 115.628906 Z M 67.347656 94.375 " clip-rule="nonzero"/></clipPath><clipPath id="e5b1d99fb8"><path d="M 72 117.253906 L 79.957031 117.253906 L 79.957031 124.179688 L 72 124.179688 Z M 72 117.253906 " clip-rule="nonzero"/></clipPath></defs><g clip-path="url(#2fd90ec4a9)"><path fill="#000000" d="M 2.773438 -30.007812 C 9.445312 -28.710938 16.472656 -27.410156 23.597656 -26.316406 C 23.644531 -26.308594 23.683594 -26.304688 23.71875 -26.296875 C 21.792969 -18.152344 20.839844 -9.554688 20.601562 -0.863281 C 13.484375 -2.011719 6.808594 -3.265625 0.410156 -4.523438 L 0.410156 -3.84375 C 6.800781 -2.589844 13.472656 -1.339844 20.574219 -0.195312 C 20.421875 6.328125 20.644531 12.878906 21.140625 19.316406 C 21.308594 21.601562 21.683594 23.828125 22.132812 26.023438 C 14.519531 24.824219 7.289062 23.464844 0.410156 22.105469 L 0.410156 22.789062 C 7.339844 24.15625 14.632812 25.523438 22.285156 26.730469 C 24.273438 36.011719 28.050781 44.710938 30.015625 53.765625 C 27.90625 53.476562 25.832031 53.25 23.699219 52.917969 C 16.636719 51.839844 9.667969 50.550781 3.035156 49.257812 C 2.242188 46.375 1.328125 43.523438 0.410156 40.667969 L 0.410156 43.078125 C 1.050781 45.085938 1.726562 47.097656 2.292969 49.121094 C 1.542969 48.972656 1.144531 48.878906 0.410156 48.738281 L 0.410156 49.414062 C 1.226562 49.570312 1.671875 49.671875 2.5 49.835938 C 3.402344 53.15625 4.125 56.503906 4.46875 59.933594 C 4.949219 64.800781 5.222656 70.570312 5.214844 76.3125 C 3.300781 75.945312 2.246094 75.703125 0.410156 75.339844 L 0.410156 76.019531 C 2.246094 76.382812 3.292969 76.625 5.203125 76.988281 C 5.175781 81.726562 4.976562 86.433594 4.46875 90.539062 C 3.960938 94.617188 2.792969 98.4375 1.613281 102.25 C 1.132812 102.152344 0.882812 102.097656 0.410156 102.007812 L 0.410156 102.6875 C 0.808594 102.761719 1.019531 102.8125 1.417969 102.890625 C 1.074219 104 0.738281 105.121094 0.410156 106.246094 L 0.410156 109.007812 C 0.933594 107 1.472656 105.003906 2.089844 103.015625 C 8.964844 104.359375 16.238281 105.710938 23.597656 106.84375 C 24.652344 107 25.667969 107.109375 26.714844 107.261719 C 25.617188 111.144531 24.742188 115.121094 24.742188 119.460938 C 24.742188 123.976562 24.84375 128.5 25.078125 133 C 24.609375 132.929688 24.164062 132.886719 23.699219 132.816406 C 15.710938 131.582031 7.765625 130.101562 0.410156 128.648438 L 0.410156 129.328125 C 7.734375 130.769531 15.640625 132.25 23.597656 133.46875 C 24.113281 133.550781 24.609375 133.597656 25.113281 133.671875 C 25.601562 142.675781 26.695312 151.566406 28.769531 160.117188 C 27.066406 159.882812 25.414062 159.710938 23.699219 159.441406 C 16.210938 158.292969 8.804688 156.914062 1.835938 155.554688 C 1.246094 152.59375 0.796875 149.59375 0.410156 146.570312 L 0.410156 151.15625 C 0.636719 152.582031 0.859375 154.011719 1.136719 155.421875 C 0.847656 155.363281 0.695312 155.324219 0.410156 155.269531 L 0.410156 155.949219 C 0.746094 156.011719 0.921875 156.054688 1.265625 156.121094 C 2.109375 160.257812 3.160156 164.324219 4.480469 168.292969 C 5.710938 171.984375 6.1875 177.097656 6.167969 183.015625 C 3.878906 182.582031 2.601562 182.289062 0.410156 181.859375 L 0.410156 182.53125 C 2.601562 182.964844 3.863281 183.257812 6.160156 183.695312 C 6.089844 191.253906 5.164062 200.125 3.878906 209.210938 C 2.496094 208.945312 1.746094 208.773438 0.410156 208.503906 L 0.410156 209.183594 C 1.714844 209.4375 2.445312 209.609375 3.789062 209.863281 C 3.636719 210.933594 3.535156 211.960938 3.371094 213.027344 C 2.484375 218.816406 1.457031 224.492188 0.410156 230.019531 L 0.410156 233.621094 C 1.675781 227.042969 2.953125 220.136719 4.023438 213.128906 C 4.1875 212.070312 4.289062 211.046875 4.441406 209.992188 C 10.636719 211.179688 17.066406 212.363281 23.597656 213.367188 C 25.679688 213.683594 27.695312 213.90625 29.75 214.191406 C 28.566406 221.820312 27.167969 229.292969 25.800781 236.300781 L 26.476562 236.300781 C 27.839844 229.320312 29.222656 221.878906 30.410156 214.273438 C 39.660156 215.519531 48.578125 216.34375 55.996094 216.171875 C 54.855469 223.277344 53.613281 229.921875 52.363281 236.300781 L 53.042969 236.300781 C 54.292969 229.910156 55.535156 223.25 56.675781 216.140625 C 61.324219 215.996094 65.421875 215.5 68.558594 214.453125 C 73.371094 212.84375 78.351562 211.65625 83.410156 210.742188 C 83.296875 211.511719 83.226562 212.253906 83.105469 213.027344 C 81.882812 221.015625 80.40625 228.949219 78.960938 236.300781 L 79.636719 236.300781 C 81.078125 228.976562 82.546875 221.078125 83.765625 213.128906 C 83.894531 212.277344 83.976562 211.460938 84.101562 210.613281 C 92.636719 209.113281 101.453125 208.503906 110.316406 208.300781 C 110.097656 209.890625 109.929688 211.433594 109.691406 213.027344 C 108.566406 220.324219 107.234375 227.535156 105.917969 234.363281 C 99.066406 234.644531 92.277344 235.226562 85.628906 236.300781 L 90.5 236.300781 C 95.542969 235.660156 100.640625 235.246094 105.785156 235.03125 C 105.6875 235.53125 105.625 235.800781 105.53125 236.300781 L 106.207031 236.300781 C 106.304688 235.792969 106.367188 235.527344 106.46875 235.019531 C 110 234.878906 113.539062 234.785156 117.082031 234.785156 C 120.628906 234.785156 123.925781 235.464844 127.167969 236.300781 L 129.78125 236.300781 C 125.734375 235.125 121.617188 234.121094 117.082031 234.121094 C 113.582031 234.121094 110.082031 234.21875 106.59375 234.34375 C 107.90625 227.558594 109.234375 220.386719 110.34375 213.128906 C 110.597656 211.492188 110.761719 209.910156 110.988281 208.289062 C 113.027344 208.246094 115.046875 208.15625 117.082031 208.15625 C 123.996094 208.15625 130.070312 210.410156 136.367188 212.285156 C 136.328125 212.539062 136.304688 212.773438 136.265625 213.027344 C 135.042969 221.007812 133.566406 228.949219 132.121094 236.300781 L 132.796875 236.300781 C 134.238281 228.976562 135.707031 221.078125 136.925781 213.128906 C 136.957031 212.90625 136.976562 212.699219 137.007812 212.480469 C 139.875 213.320312 142.785156 214.078125 145.875 214.464844 C 150.890625 215.09375 156.722656 215.289062 162.480469 215.214844 C 161.308594 222.597656 159.996094 229.613281 158.683594 236.300781 L 159.363281 236.300781 C 160.675781 229.605469 161.988281 222.578125 163.152344 215.195312 C 167.882812 215.113281 172.546875 214.871094 176.566406 214.464844 C 181.035156 214.019531 185.347656 212.925781 189.609375 211.644531 C 189.539062 212.113281 189.503906 212.558594 189.425781 213.027344 C 188.203125 221.007812 186.726562 228.945312 185.277344 236.300781 L 185.957031 236.300781 C 187.398438 228.976562 188.867188 221.078125 190.085938 213.128906 C 190.175781 212.558594 190.226562 212.003906 190.308594 211.441406 C 199.101562 208.746094 207.714844 205.265625 217.09375 204.539062 C 217.105469 204.539062 217.117188 204.539062 217.132812 204.539062 C 216.777344 207.363281 216.445312 210.164062 216.007812 213.027344 C 215.070312 219.160156 213.972656 225.195312 212.863281 231.054688 C 206.21875 232.113281 199.933594 234.289062 193.65625 236.300781 L 195.851562 236.300781 C 201.390625 234.511719 206.941406 232.699219 212.738281 231.738281 C 212.386719 233.558594 212.160156 234.554688 211.816406 236.300781 L 212.496094 236.300781 C 212.84375 234.515625 213.074219 233.507812 213.429688 231.652344 C 214.640625 231.464844 215.851562 231.269531 217.09375 231.175781 C 224.488281 230.601562 232.039062 230.410156 239.511719 230.730469 C 239.085938 232.953125 238.804688 234.179688 238.386719 236.300781 L 239.066406 236.300781 C 239.480469 234.1875 239.757812 232.964844 240.175781 230.761719 C 248.839844 231.167969 257.363281 232.3125 265.363281 234.492188 C 265.230469 235.207031 265.140625 235.589844 265.003906 236.300781 L 265.679688 236.300781 C 265.808594 235.652344 265.882812 235.3125 266.015625 234.648438 C 266.074219 234.667969 266.144531 234.679688 266.207031 234.699219 L 266.207031 234.007812 C 266.183594 234 266.164062 234 266.136719 233.996094 C 266.164062 233.875 266.183594 233.753906 266.207031 233.640625 L 266.207031 230.019531 C 265.964844 231.28125 265.738281 232.585938 265.496094 233.824219 C 257.476562 231.652344 248.960938 230.496094 240.308594 230.089844 C 241.34375 224.554688 242.363281 218.878906 243.246094 213.128906 C 243.695312 210.183594 244.039062 207.292969 244.414062 204.394531 C 251.90625 204.964844 259.265625 206.109375 266.207031 208.066406 L 266.207031 207.378906 C 259.277344 205.441406 251.957031 204.28125 244.5 203.707031 C 245.6875 194.195312 246.367188 185.167969 245.929688 177.886719 C 252.902344 178.496094 259.734375 179.609375 266.207031 181.4375 L 266.207031 180.753906 C 259.714844 178.929688 252.871094 177.804688 245.894531 177.199219 C 245.65625 173.699219 245.160156 170.59375 244.328125 168.082031 C 242.476562 162.519531 241.148438 156.753906 240.195312 150.867188 C 249.15625 151.292969 257.96875 152.480469 266.207031 154.804688 L 266.207031 154.125 C 257.914062 151.800781 249.066406 150.597656 240.082031 150.179688 C 238.757812 141.683594 238.28125 132.9375 238.148438 124.15625 C 247.0625 124.453125 255.859375 125.527344 264.140625 127.65625 C 264.355469 135.558594 264.964844 143.414062 266.207031 151.082031 L 266.207031 146.570312 C 265.414062 140.402344 264.984375 134.136719 264.804688 127.820312 C 265.269531 127.949219 265.738281 128.054688 266.207031 128.175781 L 266.207031 127.484375 C 265.730469 127.363281 265.261719 127.242188 264.789062 127.117188 C 264.722656 124.566406 264.621094 122.019531 264.621094 119.464844 C 264.621094 115.769531 265.320312 112.332031 266.207031 108.957031 L 266.207031 106.207031 C 264.972656 110.417969 263.957031 114.734375 263.957031 119.464844 C 263.957031 121.964844 264.058594 124.453125 264.121094 126.945312 C 255.828125 124.828125 247.03125 123.785156 238.128906 123.488281 C 238.117188 122.148438 238.046875 120.808594 238.046875 119.464844 C 238.046875 111.65625 240.929688 104.941406 242.878906 97.742188 C 250.914062 98.265625 258.792969 99.453125 266.207031 101.542969 L 266.207031 100.855469 C 258.828125 98.792969 251.007812 97.609375 243.042969 97.082031 C 243.589844 94.984375 244.0625 92.851562 244.34375 90.621094 C 245.066406 84.800781 245.199219 77.902344 245.007812 71.289062 C 252.300781 71.878906 259.449219 73.003906 266.207031 74.914062 L 266.207031 74.230469 C 259.429688 72.328125 252.28125 71.1875 244.988281 70.601562 C 244.867188 66.820312 244.667969 63.125 244.34375 59.871094 C 243.808594 54.539062 242.402344 49.429688 240.804688 44.367188 C 249.554688 44.820312 258.152344 46.011719 266.207031 48.28125 L 266.207031 47.601562 C 258.066406 45.320312 249.398438 44.121094 240.582031 43.6875 C 238.03125 35.703125 235.089844 27.804688 234.4375 19.265625 C 234.394531 18.691406 234.367188 18.113281 234.328125 17.542969 C 243.226562 17.636719 252.085938 18.414062 260.46875 20.222656 C 261.242188 28.230469 263.828125 35.652344 266.207031 43.066406 L 266.207031 40.820312 C 264.046875 34.152344 261.875 27.472656 261.160156 20.382812 C 262.859375 20.765625 264.546875 21.183594 266.207031 21.652344 L 266.207031 20.96875 C 264.515625 20.496094 262.800781 20.070312 261.070312 19.691406 C 261.058594 19.550781 261.027344 19.410156 261.015625 19.265625 C 260.367188 10.808594 260.175781 2.148438 260.722656 -6.359375 C 262.574219 -5.953125 264.402344 -5.488281 266.207031 -4.972656 L 266.207031 -5.660156 C 264.417969 -6.15625 262.605469 -6.605469 260.773438 -7 C 261.3125 -14.921875 262.484375 -22.695312 264.546875 -30.007812 L 263.867188 -30.007812 C 261.824219 -22.71875 260.660156 -15 260.121094 -7.140625 C 251.84375 -8.886719 243.15625 -9.613281 234.417969 -9.707031 C 235.027344 -16.691406 236.144531 -23.527344 237.96875 -30.007812 L 237.285156 -30.007812 C 235.472656 -23.515625 234.359375 -16.683594 233.753906 -9.714844 C 232.382812 -9.726562 231.019531 -9.785156 229.648438 -9.765625 C 225.425781 -9.695312 221.203125 -9.484375 217.042969 -9.167969 C 213.828125 -8.914062 210.71875 -8.324219 207.65625 -7.578125 C 208.214844 -15.296875 209.375 -22.867188 211.386719 -30.007812 L 210.707031 -30.007812 C 208.691406 -22.808594 207.53125 -15.183594 206.984375 -7.425781 C 198.042969 -5.171875 189.585938 -1.519531 180.699219 0.121094 C 180.898438 -8.996094 181.886719 -18.011719 183.933594 -26.511719 C 187.957031 -27.453125 191.886719 -28.730469 195.824219 -30.007812 L 193.617188 -30.007812 C 190.464844 -28.996094 187.308594 -28.011719 184.117188 -27.25 C 184.347656 -28.164062 184.5625 -29.09375 184.808594 -30.007812 L 184.132812 -30.007812 C 183.863281 -29.035156 183.636719 -28.050781 183.394531 -27.070312 C 181.117188 -26.550781 178.835938 -26.101562 176.496094 -25.871094 C 170.75 -25.292969 163.757812 -25.03125 157.023438 -25.179688 C 157.390625 -26.804688 157.78125 -28.417969 158.226562 -30.007812 L 157.546875 -30.007812 C 157.109375 -28.417969 156.710938 -26.8125 156.34375 -25.191406 C 152.703125 -25.285156 149.140625 -25.46875 145.949219 -25.871094 C 140.914062 -26.5 136.261719 -28.109375 131.535156 -29.550781 C 131.574219 -29.695312 131.613281 -29.855469 131.648438 -30.007812 L 130.964844 -30.007812 C 130.945312 -29.910156 130.925781 -29.824219 130.902344 -29.734375 C 130.554688 -29.835938 130.191406 -29.90625 129.847656 -30.007812 L 127.128906 -30.007812 C 128.328125 -29.695312 129.542969 -29.429688 130.738281 -29.074219 C 128.601562 -21.132812 127.464844 -12.710938 127.050781 -4.160156 C 123.871094 -4.960938 120.597656 -5.550781 117.082031 -5.550781 C 111.769531 -5.550781 106.449219 -5.40625 101.171875 -5.070312 C 101.644531 -13.660156 102.839844 -22.097656 105.066406 -30.007812 L 104.386719 -30.007812 C 102.167969 -22.066406 100.976562 -13.613281 100.507812 -5.03125 C 91.609375 -4.441406 82.847656 -3.253906 74.433594 -1.027344 C 74.691406 -10.214844 75.761719 -19.289062 77.9375 -27.808594 C 82.023438 -28.75 86.183594 -29.453125 90.386719 -30.007812 L 85.816406 -30.007812 C 83.226562 -29.582031 80.660156 -29.109375 78.121094 -28.53125 C 78.25 -29.023438 78.363281 -29.519531 78.492188 -30.007812 L 77.8125 -30.007812 C 77.664062 -29.460938 77.539062 -28.90625 77.398438 -28.363281 C 74.34375 -27.648438 71.3125 -26.84375 68.34375 -25.859375 C 64.011719 -24.410156 57.734375 -23.992188 50.472656 -24.21875 C 50.894531 -26.175781 51.375 -28.101562 51.914062 -30.007812 L 51.230469 -30.007812 C 50.695312 -28.109375 50.21875 -26.183594 49.800781 -24.226562 C 42.136719 -24.511719 33.382812 -25.515625 24.542969 -26.855469 C 24.796875 -27.902344 25.046875 -28.964844 25.332031 -30.007812 L 24.644531 -30.007812 C 24.371094 -28.992188 24.132812 -27.96875 23.882812 -26.945312 C 23.820312 -26.949219 23.765625 -26.957031 23.699219 -26.96875 C 17.789062 -27.878906 11.980469 -28.933594 6.332031 -30.007812 Z M 131.371094 -28.890625 C 136.078125 -27.460938 140.75 -25.851562 145.875 -25.214844 C 149.039062 -24.816406 152.578125 -24.632812 156.179688 -24.53125 C 154.371094 -16.207031 153.570312 -7.4375 153.453125 1.378906 C 150.828125 1.253906 148.296875 1.050781 145.949219 0.757812 C 139.5625 -0.0390625 133.800781 -2.40625 127.707031 -4.007812 C 128.117188 -12.558594 129.246094 -20.980469 131.371094 -28.890625 Z M 77.214844 -27.644531 C 75.066406 -19.089844 74.011719 -10.023438 73.757812 -0.851562 C 71.941406 -0.355469 70.132812 0.179688 68.34375 0.769531 C 63.488281 2.394531 56.199219 2.734375 47.792969 2.300781 C 47.867188 -6.492188 48.617188 -15.230469 50.347656 -23.539062 C 57.683594 -23.296875 64.0625 -23.722656 68.558594 -25.230469 C 71.394531 -26.175781 74.292969 -26.945312 77.214844 -27.644531 Z M 183.210938 -26.347656 C 181.195312 -17.839844 180.226562 -8.855469 180.035156 0.222656 C 178.863281 0.421875 177.6875 0.636719 176.496094 0.757812 C 169.921875 1.417969 161.683594 1.714844 154.109375 1.390625 C 154.238281 -7.4375 155.035156 -16.207031 156.855469 -24.519531 C 163.667969 -24.363281 170.746094 -24.625 176.566406 -25.214844 C 178.816406 -25.4375 181.023438 -25.859375 183.210938 -26.347656 Z M 24.378906 -26.207031 C 33.226562 -24.867188 41.96875 -23.835938 49.675781 -23.546875 C 47.949219 -15.234375 47.207031 -6.511719 47.125 2.261719 C 39.871094 1.855469 31.824219 0.910156 23.699219 -0.34375 C 22.882812 -0.46875 22.078125 -0.621094 21.257812 -0.753906 C 21.492188 -9.460938 22.445312 -18.070312 24.378906 -26.207031 Z M 229.664062 -9.105469 C 231.007812 -9.121094 232.359375 -9.105469 233.703125 -9.089844 C 232.992188 -0.496094 233.054688 8.292969 233.625 16.90625 C 232.300781 16.902344 230.976562 16.84375 229.648438 16.863281 C 225.425781 16.933594 221.203125 17.140625 217.042969 17.460938 C 213.886719 17.707031 210.839844 18.285156 207.839844 19.011719 C 207.195312 10.457031 207.023438 1.703125 207.601562 -6.878906 C 210.703125 -7.648438 213.847656 -8.257812 217.09375 -8.507812 C 221.246094 -8.824219 225.453125 -9.035156 229.664062 -9.105469 Z M 234.367188 -9.089844 C 243.113281 -8.996094 251.804688 -8.234375 260.0625 -6.484375 C 259.515625 2.078125 259.703125 10.800781 260.355469 19.316406 C 260.359375 19.390625 260.378906 19.46875 260.386719 19.542969 C 251.992188 17.746094 243.164062 17.007812 234.285156 16.921875 C 233.714844 8.292969 233.652344 -0.496094 234.367188 -9.089844 Z M 206.929688 -6.726562 C 206.363281 1.863281 206.535156 10.617188 207.183594 19.15625 C 198.734375 21.265625 190.71875 24.644531 182.382812 26.425781 C 181.878906 24.074219 181.460938 21.703125 181.277344 19.265625 C 180.808594 13.171875 180.585938 6.964844 180.695312 0.792969 C 189.648438 -0.824219 198.089844 -4.460938 206.929688 -6.726562 Z M 117.082031 -4.890625 C 120.570312 -4.890625 123.832031 -4.289062 127.027344 -3.476562 C 126.691406 4.125 126.882812 11.800781 127.457031 19.316406 C 127.539062 20.453125 127.730469 21.550781 127.890625 22.671875 C 124.445312 21.753906 120.90625 21.074219 117.082031 21.074219 C 111.992188 21.074219 106.894531 21.207031 101.828125 21.515625 C 101.738281 20.765625 101.59375 20.027344 101.535156 19.265625 C 100.9375 11.449219 100.75 3.46875 101.140625 -4.402344 C 106.429688 -4.738281 111.757812 -4.890625 117.082031 -4.890625 Z M 100.480469 -4.363281 C 100.089844 3.519531 100.277344 11.507812 100.875 19.316406 C 100.933594 20.070312 101.070312 20.808594 101.167969 21.558594 C 92.53125 22.105469 84.007812 23.222656 75.808594 25.269531 C 75.425781 23.300781 75.109375 21.304688 74.957031 19.265625 C 74.464844 12.796875 74.242188 6.207031 74.398438 -0.34375 C 82.800781 -2.578125 91.574219 -3.765625 100.480469 -4.363281 Z M 127.679688 -3.316406 C 133.667969 -1.722656 139.417969 0.609375 145.875 1.417969 C 148.238281 1.714844 150.800781 1.917969 153.453125 2.046875 C 153.386719 7.820312 153.597656 13.617188 154.035156 19.316406 C 154.261719 22.300781 154.808594 25.199219 155.472656 28.050781 C 152.144531 27.9375 148.886719 27.757812 145.949219 27.390625 C 139.867188 26.628906 134.351562 24.441406 128.582031 22.855469 C 128.402344 21.660156 128.207031 20.476562 128.117188 19.265625 C 127.546875 11.8125 127.355469 4.207031 127.679688 -3.316406 Z M 73.734375 -0.144531 C 73.582031 6.355469 73.804688 12.898438 74.296875 19.316406 C 74.457031 21.394531 74.773438 23.417969 75.160156 25.425781 C 72.867188 26.011719 70.589844 26.652344 68.34375 27.402344 C 63.929688 28.878906 57.507812 29.289062 50.0625 29.035156 C 49.261719 25.847656 48.636719 22.605469 48.375 19.265625 C 47.964844 13.890625 47.761719 8.433594 47.792969 2.988281 C 56.214844 3.417969 63.550781 3.074219 68.558594 1.40625 C 70.257812 0.832031 71.992188 0.332031 73.734375 -0.144531 Z M 21.234375 -0.0820312 C 22.027344 0.046875 22.808594 0.199219 23.597656 0.316406 C 31.761719 1.570312 39.828125 2.535156 47.125 2.941406 C 47.101562 8.425781 47.304688 13.914062 47.714844 19.316406 C 47.976562 22.644531 48.589844 25.859375 49.371094 29.023438 C 41.566406 28.710938 32.660156 27.671875 23.699219 26.292969 C 23.410156 26.246094 23.128906 26.191406 22.839844 26.144531 C 22.371094 23.882812 21.976562 21.601562 21.796875 19.265625 C 21.308594 12.878906 21.082031 6.378906 21.234375 -0.0820312 Z M 180.027344 0.898438 C 179.925781 7.054688 180.148438 13.242188 180.613281 19.316406 C 180.808594 21.792969 181.226562 24.203125 181.734375 26.582031 C 180.003906 26.933594 178.265625 27.214844 176.496094 27.390625 C 170.511719 27.988281 163.152344 28.253906 156.160156 28.0625 C 155.480469 25.1875 154.929688 22.269531 154.695312 19.265625 C 154.257812 13.585938 154.054688 7.808594 154.109375 2.058594 C 161.714844 2.382812 169.964844 2.085938 176.566406 1.417969 C 177.734375 1.304688 178.878906 1.085938 180.027344 0.898438 Z M 229.664062 17.53125 C 230.992188 17.503906 232.324219 17.53125 233.664062 17.535156 C 233.703125 18.128906 233.726562 18.722656 233.777344 19.316406 C 234.4375 27.878906 237.328125 35.757812 239.859375 43.644531 C 236.464844 43.492188 233.054688 43.441406 229.648438 43.496094 C 225.425781 43.5625 221.203125 43.769531 217.042969 44.09375 C 216.097656 44.164062 215.179688 44.328125 214.253906 44.457031 C 211.691406 36.34375 208.652344 28.332031 207.910156 19.683594 C 210.910156 18.953125 213.953125 18.367188 217.09375 18.121094 C 221.246094 17.804688 225.453125 17.59375 229.664062 17.53125 Z M 207.265625 19.832031 C 208.027344 28.515625 211.03125 36.519531 213.566406 44.546875 C 205.214844 45.773438 197.429688 48.789062 189.566406 51.164062 C 187.53125 43.078125 184.347656 35.269531 182.527344 27.078125 C 190.917969 25.292969 198.914062 21.933594 207.265625 19.832031 Z M 117.082031 21.734375 C 120.921875 21.734375 124.492188 22.441406 127.984375 23.386719 C 129.527344 33.21875 133.5 42.269531 135.828125 51.636719 C 129.804688 49.800781 123.875 47.703125 117.082031 47.703125 C 114.371094 47.703125 111.660156 47.804688 108.949219 47.882812 C 106.488281 39.375 103.132812 31.070312 101.914062 22.179688 C 106.945312 21.875 112.015625 21.734375 117.082031 21.734375 Z M 101.253906 22.21875 C 102.46875 31.183594 105.789062 39.476562 108.25 47.894531 C 99.726562 48.160156 91.269531 48.839844 83.050781 50.347656 C 80.90625 42.167969 77.652344 34.265625 75.953125 25.921875 C 84.121094 23.878906 92.625 22.757812 101.253906 22.21875 Z M 128.675781 23.585938 C 134.308594 25.160156 139.78125 27.289062 145.875 28.050781 C 148.878906 28.425781 152.214844 28.609375 155.621094 28.71875 C 157.777344 37.59375 161.390625 45.980469 163.148438 54.742188 C 157.199219 54.84375 151.125 54.667969 145.949219 54.019531 C 142.703125 53.613281 139.621094 52.773438 136.570312 51.859375 C 134.273438 42.378906 130.269531 33.320312 128.675781 23.585938 Z M 75.300781 26.074219 C 77.011719 34.476562 80.253906 42.371094 82.390625 50.46875 C 77.613281 51.367188 72.910156 52.511719 68.34375 54.03125 C 65.527344 54.976562 61.835938 55.449219 57.644531 55.632812 C 56.035156 46.789062 52.476562 38.445312 50.21875 29.722656 C 57.613281 29.96875 64.039062 29.542969 68.558594 28.03125 C 70.773438 27.296875 73.03125 26.660156 75.300781 26.074219 Z M 22.996094 26.84375 C 23.199219 26.875 23.394531 26.921875 23.597656 26.953125 C 32.648438 28.335938 41.628906 29.40625 49.523438 29.710938 C 51.773438 38.535156 55.355469 46.890625 56.972656 55.664062 C 49.492188 55.925781 40.300781 55.125 30.726562 53.859375 C 28.785156 44.710938 25.007812 36.03125 22.996094 26.84375 Z M 181.878906 27.230469 C 183.707031 35.511719 186.894531 43.324219 188.925781 51.363281 C 184.839844 52.570312 180.738281 53.59375 176.496094 54.019531 C 172.699219 54.398438 168.296875 54.628906 163.828125 54.722656 C 162.082031 45.878906 158.472656 37.511719 156.3125 28.730469 C 163.289062 28.914062 170.585938 28.648438 176.566406 28.050781 C 178.359375 27.867188 180.128906 27.585938 181.878906 27.230469 Z M 229.664062 44.15625 C 233.136719 44.105469 236.617188 44.175781 240.082031 44.335938 C 241.710938 49.464844 243.152344 54.597656 243.683594 59.933594 C 244.007812 63.148438 244.203125 66.800781 244.324219 70.539062 C 239.464844 70.175781 234.550781 70.046875 229.648438 70.125 C 225.882812 70.1875 222.136719 70.371094 218.414062 70.640625 C 218.285156 66.847656 218.089844 63.128906 217.757812 59.871094 C 217.257812 54.792969 215.953125 49.925781 214.449219 45.097656 C 215.332031 44.984375 216.199219 44.824219 217.09375 44.753906 C 221.246094 44.4375 225.453125 44.226562 229.664062 44.15625 Z M 213.765625 45.1875 C 215.28125 50.027344 216.597656 54.890625 217.101562 59.933594 C 217.429688 63.1875 217.625 66.890625 217.746094 70.675781 C 217.511719 70.695312 217.269531 70.703125 217.042969 70.722656 C 208.183594 71.40625 200.074219 74.496094 191.925781 77.089844 C 191.960938 71.066406 191.695312 64.976562 191.183594 59.871094 C 190.910156 57.132812 190.363281 54.46875 189.722656 51.828125 C 197.671875 49.4375 205.464844 46.402344 213.765625 45.1875 Z M 117.082031 48.371094 C 123.871094 48.371094 129.84375 50.535156 136.011719 52.398438 C 136.601562 54.882812 137.109375 57.378906 137.363281 59.933594 C 137.929688 65.550781 138.183594 72.347656 138.0625 78.9375 C 131.25 77 124.710938 74.335938 117.082031 74.335938 C 115.453125 74.335938 113.832031 74.414062 112.199219 74.4375 C 112.148438 69.304688 111.878906 64.222656 111.441406 59.871094 C 111.058594 55.996094 110.191406 52.246094 109.144531 48.542969 C 111.789062 48.472656 114.433594 48.371094 117.082031 48.371094 Z M 108.445312 48.5625 C 109.511719 52.289062 110.398438 56.058594 110.785156 59.933594 C 111.21875 64.265625 111.484375 69.335938 111.535156 74.457031 C 102.796875 74.617188 94.082031 75.132812 85.617188 76.503906 C 85.628906 70.671875 85.359375 64.8125 84.863281 59.871094 C 84.558594 56.847656 83.945312 53.902344 83.207031 50.996094 C 91.425781 49.488281 99.90625 48.816406 108.445312 48.5625 Z M 3.222656 49.976562 C 9.773438 51.242188 16.636719 52.511719 23.597656 53.582031 C 25.824219 53.921875 27.980469 54.164062 30.183594 54.464844 C 30.554688 56.269531 30.859375 58.089844 31.042969 59.933594 C 31.652344 66.027344 31.917969 73.523438 31.710938 80.621094 C 29.046875 80.277344 26.402344 79.964844 23.699219 79.554688 C 17.644531 78.621094 11.671875 77.539062 5.882812 76.441406 C 5.886719 70.625 5.613281 64.792969 5.125 59.871094 C 4.789062 56.496094 4.09375 53.210938 3.222656 49.976562 Z M 82.546875 51.113281 C 83.289062 54.011719 83.90625 56.941406 84.203125 59.933594 C 84.699219 64.890625 84.964844 70.777344 84.945312 76.625 C 79.28125 77.578125 73.726562 78.867188 68.34375 80.664062 C 65.8125 81.511719 62.585938 81.988281 58.921875 82.210938 C 59.238281 74.636719 58.941406 66.441406 58.28125 59.871094 C 58.167969 58.667969 57.949219 57.492188 57.746094 56.3125 C 61.945312 56.121094 65.667969 55.632812 68.558594 54.667969 C 73.101562 53.148438 77.785156 52.011719 82.546875 51.113281 Z M 189.078125 52.015625 C 189.71875 54.621094 190.257812 57.253906 190.523438 59.933594 C 191.035156 65.078125 191.304688 71.230469 191.253906 77.296875 C 186.40625 78.824219 181.542969 80.144531 176.496094 80.652344 C 173.105469 80.988281 169.222656 81.191406 165.257812 81.3125 C 165.511719 73.988281 165.234375 66.1875 164.601562 59.871094 C 164.453125 58.359375 164.207031 56.863281 163.925781 55.382812 C 168.386719 55.289062 172.765625 55.058594 176.566406 54.679688 C 180.851562 54.253906 184.988281 53.230469 189.078125 52.015625 Z M 136.753906 52.621094 C 139.703125 53.492188 142.691406 54.285156 145.875 54.679688 C 151.117188 55.332031 157.25 55.511719 163.253906 55.402344 C 163.539062 56.902344 163.792969 58.410156 163.945312 59.933594 C 164.574219 66.230469 164.847656 74.03125 164.59375 81.332031 C 158.1875 81.496094 151.550781 81.351562 145.949219 80.652344 C 143.46875 80.339844 141.078125 79.789062 138.726562 79.140625 C 138.855469 72.460938 138.59375 65.5625 138.023438 59.871094 C 137.777344 57.40625 137.304688 55.003906 136.753906 52.621094 Z M 30.890625 54.558594 C 40.429688 55.824219 49.574219 56.617188 57.082031 56.34375 C 57.285156 57.53125 57.507812 58.726562 57.628906 59.933594 C 58.28125 66.484375 58.570312 74.6875 58.253906 82.242188 C 50.976562 82.621094 41.90625 81.917969 32.375 80.710938 C 32.589844 73.554688 32.320312 66.007812 31.703125 59.871094 C 31.527344 58.070312 31.242188 56.304688 30.890625 54.558594 Z M 229.664062 70.792969 C 234.570312 70.714844 239.484375 70.863281 244.34375 71.230469 C 244.539062 77.84375 244.40625 84.75 243.683594 90.539062 C 243.402344 92.773438 242.921875 94.921875 242.359375 97.042969 C 238.140625 96.785156 233.890625 96.6875 229.648438 96.757812 C 225.425781 96.824219 221.203125 97.03125 217.042969 97.355469 C 216.816406 97.367188 216.597656 97.417969 216.371094 97.4375 C 216.960938 95.226562 217.46875 92.972656 217.757812 90.621094 C 218.488281 84.808594 218.621094 77.90625 218.433594 71.300781 C 222.148438 71.039062 225.902344 70.847656 229.664062 70.792969 Z M 217.765625 71.34375 C 217.957031 77.921875 217.824219 84.78125 217.101562 90.539062 C 216.800781 92.941406 216.277344 95.253906 215.660156 97.535156 C 205.773438 98.582031 196.757812 102.417969 187.542969 105.03125 C 188.964844 100.355469 190.546875 95.710938 191.183594 90.621094 C 191.671875 86.714844 191.863281 82.285156 191.914062 77.804688 C 200.15625 75.203125 208.285156 72.070312 217.09375 71.382812 C 217.316406 71.371094 217.542969 71.355469 217.765625 71.34375 Z M 117.082031 75.003906 C 124.617188 75.003906 131.128906 77.699219 138.046875 79.640625 C 137.960938 83.453125 137.78125 87.203125 137.363281 90.539062 C 136.765625 95.347656 135.269531 99.800781 133.886719 104.3125 C 128.523438 102.640625 123.144531 100.964844 117.082031 100.964844 C 114.375 100.964844 111.675781 101.066406 108.972656 101.144531 C 110.007812 97.742188 110.984375 94.304688 111.441406 90.621094 C 112.03125 85.925781 112.257812 80.5 112.21875 75.105469 C 113.84375 75.082031 115.460938 75.003906 117.082031 75.003906 Z M 111.554688 75.117188 C 111.59375 80.492188 111.363281 85.886719 110.785156 90.539062 C 110.324219 94.230469 109.316406 97.699219 108.261719 101.15625 C 99.226562 101.433594 90.253906 102.179688 81.570312 103.875 C 82.890625 99.585938 84.28125 95.292969 84.863281 90.621094 C 85.371094 86.535156 85.574219 81.878906 85.605469 77.183594 C 94.070312 75.796875 102.796875 75.277344 111.554688 75.117188 Z M 5.867188 77.113281 C 11.632812 78.207031 17.570312 79.285156 23.597656 80.207031 C 26.332031 80.632812 29.003906 80.945312 31.699219 81.292969 C 31.582031 84.527344 31.398438 87.6875 31.042969 90.539062 C 30.347656 96.160156 28.4375 101.308594 26.902344 106.605469 C 25.824219 106.453125 24.777344 106.351562 23.699219 106.179688 C 16.371094 105.054688 9.128906 103.710938 2.28125 102.375 C 3.453125 98.574219 4.613281 94.75 5.125 90.621094 C 5.632812 86.511719 5.835938 81.828125 5.867188 77.113281 Z M 84.933594 77.304688 C 84.902344 81.9375 84.703125 86.523438 84.203125 90.539062 C 83.621094 95.242188 82.175781 99.605469 80.824219 104.015625 C 76.582031 104.871094 72.414062 105.941406 68.34375 107.292969 C 64.632812 108.539062 59.480469 109.007812 53.523438 108.988281 C 55.117188 102.941406 57.476562 97.132812 58.28125 90.621094 C 58.585938 88.207031 58.789062 85.59375 58.90625 82.894531 C 62.628906 82.660156 65.933594 82.171875 68.558594 81.292969 C 73.855469 79.527344 79.347656 78.25 84.933594 77.304688 Z M 191.238281 78.007812 C 191.1875 82.394531 191 86.734375 190.523438 90.539062 C 189.882812 95.683594 188.226562 100.429688 186.769531 105.261719 C 183.394531 106.1875 179.992188 106.929688 176.496094 107.28125 C 171.625 107.769531 165.847656 108.042969 160.097656 108.03125 C 161.675781 102.324219 163.832031 96.789062 164.601562 90.621094 C 164.9375 87.941406 165.125 85 165.246094 81.980469 C 169.234375 81.859375 173.140625 81.65625 176.566406 81.3125 C 181.605469 80.804688 186.445312 79.507812 191.238281 78.007812 Z M 138.707031 79.832031 C 141.027344 80.460938 143.402344 81.003906 145.875 81.3125 C 151.503906 82.019531 158.164062 82.164062 164.582031 82 C 164.464844 84.984375 164.277344 87.894531 163.945312 90.539062 C 163.179688 96.664062 160.980469 102.210938 159.394531 108.015625 C 154.695312 107.992188 150.027344 107.796875 145.949219 107.28125 C 141.980469 106.785156 138.257812 105.660156 134.542969 104.511719 C 135.917969 100.003906 137.414062 95.519531 138.023438 90.621094 C 138.433594 87.3125 138.621094 83.601562 138.707031 79.832031 Z M 32.363281 81.382812 C 41.863281 82.597656 50.90625 83.308594 58.242188 82.921875 C 58.121094 85.582031 57.917969 88.164062 57.628906 90.539062 C 56.820312 96.992188 54.425781 102.820312 52.832031 108.976562 C 45.332031 108.894531 36.566406 107.980469 27.582031 106.703125 C 29.109375 101.460938 30.992188 96.3125 31.703125 90.621094 C 32.058594 87.761719 32.25 84.609375 32.363281 81.382812 Z M 229.664062 97.417969 C 233.847656 97.355469 238.046875 97.433594 242.199219 97.6875 C 240.253906 104.789062 237.378906 111.539062 237.378906 119.460938 C 237.378906 120.800781 237.449219 122.136719 237.46875 123.476562 C 234.863281 123.398438 232.257812 123.347656 229.648438 123.386719 C 225.425781 123.457031 221.203125 123.667969 217.042969 123.984375 C 215.191406 124.128906 213.371094 124.382812 211.578125 124.707031 C 211.546875 122.960938 211.460938 121.214844 211.460938 119.460938 C 211.460938 111.796875 214.246094 105.183594 216.191406 98.132812 C 216.496094 98.105469 216.789062 98.042969 217.09375 98.015625 C 221.246094 97.699219 225.453125 97.488281 229.664062 97.417969 Z M 215.457031 98.226562 C 213.515625 105.132812 210.804688 111.742188 210.804688 119.460938 C 210.804688 121.265625 210.886719 123.054688 210.917969 124.855469 C 202.027344 126.574219 193.726562 130.101562 185.175781 132.28125 C 184.976562 128.023438 184.886719 123.742188 184.886719 119.460938 C 184.886719 114.613281 186.007812 110.183594 187.320312 105.800781 C 196.65625 103.207031 205.671875 99.324219 215.457031 98.226562 Z M 117.082031 101.632812 C 123.019531 101.632812 128.332031 103.296875 133.699219 104.960938 C 132.296875 109.582031 131.058594 114.261719 131.058594 119.460938 C 131.058594 123.03125 131.15625 126.601562 131.296875 130.160156 C 126.773438 128.792969 122.175781 127.597656 117.082031 127.597656 C 113.164062 127.597656 109.238281 127.679688 105.328125 127.851562 C 105.246094 125.058594 105.148438 122.261719 105.148438 119.460938 C 105.148438 113.152344 107.015625 107.535156 108.769531 101.816406 C 111.542969 101.734375 114.3125 101.632812 117.082031 101.632812 Z M 108.058594 101.828125 C 106.324219 107.472656 104.484375 113.085938 104.484375 119.460938 C 104.484375 122.269531 104.585938 125.0625 104.660156 127.867188 C 95.882812 128.273438 87.203125 129.226562 78.820312 131.082031 C 78.648438 127.21875 78.566406 123.34375 78.566406 119.460938 C 78.566406 114.167969 79.890625 109.378906 81.355469 104.59375 C 90.023438 102.871094 99.003906 102.113281 108.058594 101.828125 Z M 80.609375 104.734375 C 79.179688 109.421875 77.902344 114.179688 77.902344 119.460938 C 77.902344 123.394531 77.988281 127.320312 78.152344 131.238281 C 74.835938 131.988281 71.554688 132.851562 68.34375 133.925781 C 64.425781 135.234375 58.875 135.6875 52.476562 135.597656 C 52.136719 130.25 51.988281 124.855469 51.988281 119.460938 C 51.988281 116.027344 52.566406 112.8125 53.359375 109.667969 C 59.414062 109.699219 64.691406 109.21875 68.558594 107.929688 C 72.484375 106.621094 76.511719 105.570312 80.609375 104.734375 Z M 134.351562 105.160156 C 138.074219 106.308594 141.828125 107.4375 145.875 107.941406 C 149.933594 108.449219 154.5625 108.652344 159.222656 108.683594 C 158.316406 112.117188 157.644531 115.652344 157.644531 119.460938 C 157.644531 124.523438 157.777344 129.585938 158.074219 134.625 C 153.832031 134.5625 149.640625 134.371094 145.949219 133.914062 C 141.066406 133.304688 136.546875 131.765625 131.960938 130.355469 C 131.816406 126.734375 131.726562 123.101562 131.726562 119.460938 C 131.726562 114.378906 132.957031 109.75 134.351562 105.160156 Z M 186.554688 106.015625 C 185.285156 110.292969 184.21875 114.65625 184.21875 119.460938 C 184.21875 123.792969 184.308594 128.125 184.519531 132.441406 C 181.878906 133.089844 179.222656 133.640625 176.496094 133.914062 C 171.238281 134.441406 164.9375 134.703125 158.742188 134.640625 C 158.441406 129.601562 158.304688 124.53125 158.304688 119.460938 C 158.304688 115.671875 158.988281 112.148438 159.914062 108.695312 C 165.753906 108.710938 171.621094 108.4375 176.566406 107.941406 C 179.972656 107.605469 183.28125 106.894531 186.554688 106.015625 Z M 27.398438 107.351562 C 36.371094 108.632812 45.128906 109.566406 52.667969 109.65625 C 51.894531 112.789062 51.324219 116.011719 51.324219 119.460938 C 51.324219 124.847656 51.46875 130.234375 51.8125 135.585938 C 44.019531 135.433594 34.96875 134.453125 25.75 133.089844 C 25.515625 128.566406 25.40625 124.015625 25.40625 119.460938 C 25.40625 115.183594 26.289062 111.230469 27.398438 107.351562 Z M 229.664062 124.054688 C 232.269531 124.007812 234.875 124.046875 237.480469 124.125 C 237.609375 132.890625 238.089844 141.632812 239.410156 150.140625 C 236.164062 150.007812 232.902344 149.96875 229.648438 150.019531 C 225.425781 150.085938 221.203125 150.292969 217.042969 150.617188 C 215.894531 150.707031 214.777344 150.890625 213.648438 151.054688 C 212.285156 142.683594 211.761719 134.054688 211.597656 125.386719 C 213.402344 125.058594 215.230469 124.789062 217.09375 124.644531 C 221.246094 124.328125 225.453125 124.117188 229.664062 124.054688 Z M 210.929688 125.535156 C 211.101562 134.175781 211.628906 142.777344 212.992188 151.144531 C 204.457031 152.484375 196.503906 155.667969 188.429688 158.027344 C 186.617188 149.90625 185.652344 141.488281 185.214844 132.960938 C 193.847656 130.789062 202.132812 127.269531 210.929688 125.535156 Z M 117.082031 128.265625 C 122.144531 128.265625 126.734375 129.484375 131.308594 130.878906 C 131.6875 140.007812 132.613281 149.046875 134.527344 157.765625 C 128.949219 156.039062 123.386719 154.226562 117.082031 154.226562 C 114.039062 154.226562 110.988281 154.328125 107.953125 154.421875 C 106.339844 146.003906 105.617188 137.292969 105.339844 128.519531 C 109.246094 128.347656 113.164062 128.265625 117.082031 128.265625 Z M 104.679688 128.53125 C 104.953125 137.300781 105.675781 146.003906 107.273438 154.441406 C 98.679688 154.742188 90.160156 155.484375 81.890625 157.078125 C 80.125 148.871094 79.226562 140.363281 78.832031 131.761719 C 87.203125 129.90625 95.882812 128.941406 104.679688 128.53125 Z M 131.972656 131.074219 C 136.476562 132.460938 140.972656 133.957031 145.875 134.574219 C 149.609375 135.039062 153.839844 135.230469 158.113281 135.292969 C 158.671875 144.15625 159.8125 152.898438 161.941406 161.296875 C 156.382812 161.355469 150.769531 161.144531 145.949219 160.542969 C 142.238281 160.078125 138.738281 159.054688 135.265625 157.988281 C 133.324219 149.277344 132.367188 140.230469 131.972656 131.074219 Z M 78.171875 131.917969 C 78.566406 140.496094 79.472656 148.992188 81.234375 157.199219 C 76.855469 158.070312 72.542969 159.15625 68.34375 160.554688 C 65.273438 161.585938 61.191406 162.066406 56.523438 162.207031 C 54.3125 153.859375 53.125 145.132812 52.523438 136.285156 C 58.933594 136.375 64.519531 135.910156 68.558594 134.554688 C 71.699219 133.507812 74.914062 132.664062 78.171875 131.917969 Z M 184.5625 133.121094 C 185 141.648438 185.96875 150.070312 187.796875 158.214844 C 184.085938 159.277344 180.34375 160.160156 176.496094 160.542969 C 172.347656 160.960938 167.515625 161.214844 162.621094 161.277344 C 160.484375 152.90625 159.335938 144.167969 158.785156 135.304688 C 164.988281 135.371094 171.296875 135.101562 176.566406 134.574219 C 179.285156 134.300781 181.9375 133.753906 184.5625 133.121094 Z M 25.789062 133.761719 C 35.007812 135.128906 44.042969 136.125 51.855469 136.273438 C 52.453125 145.128906 53.636719 153.859375 55.84375 162.230469 C 48.25 162.390625 39.015625 161.515625 29.472656 160.210938 C 27.386719 151.671875 26.289062 142.785156 25.789062 133.761719 Z M 229.664062 150.679688 C 232.945312 150.628906 236.238281 150.699219 239.515625 150.839844 C 240.472656 156.800781 241.820312 162.644531 243.695312 168.292969 C 244.496094 170.703125 244.976562 173.714844 245.21875 177.136719 C 240.070312 176.71875 234.855469 176.566406 229.648438 176.648438 C 226.1875 176.707031 222.738281 176.878906 219.320312 177.105469 C 219.066406 173.636719 218.570312 170.566406 217.746094 168.082031 C 215.992188 162.785156 214.714844 157.300781 213.769531 151.710938 C 214.875 151.550781 215.972656 151.367188 217.09375 151.277344 C 221.246094 150.960938 225.453125 150.75 229.664062 150.679688 Z M 213.113281 151.800781 C 214.0625 157.421875 215.34375 162.949219 217.117188 168.292969 C 217.917969 170.703125 218.394531 173.71875 218.632812 177.144531 C 218.109375 177.183594 217.570312 177.207031 217.042969 177.246094 C 208.546875 177.90625 200.726562 180.773438 192.90625 183.292969 C 192.9375 177.234375 192.457031 171.953125 191.171875 168.082031 C 190.148438 165.007812 189.320312 161.863281 188.589844 158.6875 C 196.726562 156.316406 204.660156 153.132812 213.113281 151.800781 Z M 117.082031 154.894531 C 123.386719 154.894531 128.992188 156.769531 134.707031 158.527344 C 135.453125 161.832031 136.316406 165.097656 137.375 168.292969 C 138.789062 172.539062 139.214844 178.664062 139.023438 185.734375 C 131.859375 183.785156 125.066406 180.859375 117.082031 180.859375 C 115.777344 180.859375 114.472656 180.925781 113.160156 180.941406 C 113.058594 175.875 112.550781 171.445312 111.425781 168.082031 C 110.027344 163.859375 108.941406 159.507812 108.074219 155.089844 C 111.074219 154.996094 114.078125 154.894531 117.082031 154.894531 Z M 107.394531 155.101562 C 108.277344 159.589844 109.371094 164 110.800781 168.292969 C 111.882812 171.554688 112.378906 175.925781 112.472656 180.957031 C 103.761719 181.089844 95.058594 181.558594 86.59375 182.875 C 86.601562 176.984375 86.105469 171.863281 84.851562 168.082031 C 83.722656 164.703125 82.816406 161.242188 82.042969 157.726562 C 90.285156 156.140625 98.800781 155.402344 107.394531 155.101562 Z M 1.960938 156.253906 C 8.867188 157.605469 16.191406 158.964844 23.597656 160.105469 C 25.398438 160.375 27.144531 160.566406 28.933594 160.816406 C 29.558594 163.335938 30.246094 165.839844 31.058594 168.292969 C 32.578125 172.847656 32.984375 179.519531 32.679688 187.269531 C 29.699219 186.898438 26.730469 186.539062 23.699219 186.078125 C 17.988281 185.199219 12.351562 184.183594 6.851562 183.148438 C 6.871094 177.144531 6.390625 171.921875 5.109375 168.082031 C 3.828125 164.226562 2.792969 160.273438 1.960938 156.253906 Z M 81.386719 157.847656 C 82.167969 161.386719 83.082031 164.882812 84.214844 168.292969 C 85.445312 171.976562 85.921875 177.082031 85.910156 182.976562 C 79.910156 183.9375 74.03125 185.289062 68.34375 187.1875 C 66.023438 187.964844 63.144531 188.445312 59.859375 188.695312 C 60.277344 180.339844 59.929688 173.058594 58.269531 168.082031 C 57.695312 166.367188 57.195312 164.628906 56.714844 162.878906 C 61.347656 162.726562 65.433594 162.230469 68.558594 161.191406 C 72.730469 159.796875 77.027344 158.71875 81.386719 157.847656 Z M 135.441406 158.75 C 138.816406 159.773438 142.222656 160.746094 145.875 161.203125 C 150.777344 161.820312 156.46875 162.023438 162.101562 161.964844 C 162.660156 164.09375 163.261719 166.210938 163.960938 168.292969 C 165.507812 172.957031 165.894531 179.84375 165.542969 187.824219 C 158.855469 188.035156 151.828125 187.90625 145.949219 187.175781 C 143.804688 186.902344 141.738281 186.4375 139.703125 185.90625 C 139.90625 178.730469 139.476562 172.492188 138.011719 168.082031 C 136.996094 165.035156 136.171875 161.90625 135.441406 158.75 Z M 187.949219 158.878906 C 188.683594 162.0625 189.515625 165.210938 190.535156 168.292969 C 191.796875 172.085938 192.265625 177.390625 192.214844 183.515625 C 187.054688 185.167969 181.878906 186.636719 176.496094 187.175781 C 173.382812 187.488281 169.851562 187.679688 166.230469 187.804688 C 166.578125 179.8125 166.183594 172.886719 164.585938 168.082031 C 163.914062 166.0625 163.320312 164.011719 162.78125 161.941406 C 167.636719 161.871094 172.4375 161.617188 176.566406 161.203125 C 180.460938 160.816406 184.226562 159.9375 187.949219 158.878906 Z M 29.636719 160.910156 C 39.179688 162.214844 48.402344 163.089844 56.027344 162.90625 C 56.523438 164.722656 57.050781 166.519531 57.640625 168.292969 C 59.25 173.128906 59.59375 180.363281 59.175781 188.726562 C 51.988281 189.195312 42.929688 188.542969 33.359375 187.359375 C 33.675781 179.558594 33.257812 172.796875 31.691406 168.082031 C 30.90625 165.726562 30.246094 163.332031 29.636719 160.910156 Z M 229.664062 177.316406 C 234.875 177.234375 240.09375 177.40625 245.242188 177.832031 C 245.679688 185.046875 245.015625 194.101562 243.828125 203.652344 C 239.136719 203.3125 234.386719 203.207031 229.648438 203.28125 C 225.710938 203.339844 221.792969 203.535156 217.90625 203.824219 C 219.105469 194.214844 219.796875 185.09375 219.34375 177.765625 C 222.761719 177.539062 226.207031 177.367188 229.664062 177.316406 Z M 218.667969 177.8125 C 219.105469 185.085938 218.425781 194.230469 217.21875 203.867188 C 217.164062 203.875 217.101562 203.875 217.042969 203.878906 C 207.640625 204.605469 199.066406 208.027344 190.410156 210.703125 C 191.796875 201.230469 192.800781 191.953125 192.894531 184.011719 C 200.804688 181.46875 208.632812 178.5625 217.09375 177.90625 C 217.613281 177.867188 218.140625 177.84375 218.667969 177.8125 Z M 117.082031 181.523438 C 124.964844 181.523438 131.734375 184.476562 139.011719 186.425781 C 138.757812 194.050781 137.777344 202.773438 136.457031 211.613281 C 130.21875 209.730469 124.109375 207.488281 117.082031 207.488281 C 115.078125 207.488281 113.082031 207.578125 111.078125 207.621094 C 112.367188 198.28125 113.277344 189.203125 113.191406 181.609375 C 114.492188 181.589844 115.785156 181.523438 117.082031 181.523438 Z M 112.503906 181.625 C 112.585938 189.175781 111.6875 198.28125 110.40625 207.632812 C 101.554688 207.832031 92.746094 208.433594 84.191406 209.921875 C 85.546875 200.539062 86.523438 191.371094 86.582031 183.546875 C 95.046875 182.226562 103.761719 181.75 112.503906 181.625 Z M 85.898438 183.648438 C 85.828125 191.457031 84.863281 200.652344 83.507812 210.050781 C 78.34375 210.96875 73.265625 212.175781 68.34375 213.816406 C 65.339844 214.820312 61.34375 215.308594 56.796875 215.457031 C 56.917969 214.675781 57.070312 213.90625 57.183594 213.128906 C 58.445312 204.890625 59.414062 196.738281 59.816406 189.378906 C 63.175781 189.121094 66.136719 188.625 68.558594 187.816406 C 74.164062 185.949219 79.96875 184.609375 85.898438 183.648438 Z M 6.839844 183.820312 C 12.304688 184.851562 17.917969 185.859375 23.597656 186.730469 C 26.648438 187.203125 29.644531 187.5625 32.640625 187.945312 C 32.300781 195.613281 31.285156 204.285156 29.945312 213.027344 C 29.921875 213.195312 29.890625 213.359375 29.863281 213.523438 C 27.804688 213.25 25.78125 213.027344 23.699219 212.703125 C 17.167969 211.699219 10.734375 210.527344 4.53125 209.332031 C 5.824219 200.265625 6.761719 191.421875 6.839844 183.820312 Z M 192.203125 184.234375 C 192.097656 192.164062 191.101562 201.445312 189.710938 210.914062 C 185.375 212.226562 181.011719 213.351562 176.496094 213.804688 C 172.53125 214.203125 167.933594 214.4375 163.269531 214.523438 C 163.34375 214.058594 163.433594 213.59375 163.503906 213.128906 C 164.816406 204.554688 165.824219 196.066406 166.191406 188.472656 C 169.84375 188.34375 173.414062 188.148438 176.566406 187.832031 C 181.945312 187.296875 187.097656 185.859375 192.203125 184.234375 Z M 139.691406 186.589844 C 141.699219 187.113281 143.742188 187.570312 145.875 187.832031 C 151.777344 188.574219 158.804688 188.699219 165.507812 188.492188 C 165.140625 196.03125 164.15625 204.496094 162.851562 213.027344 C 162.765625 213.535156 162.671875 214.03125 162.589844 214.539062 C 156.820312 214.625 150.960938 214.433594 145.949219 213.804688 C 142.894531 213.421875 139.984375 212.652344 137.105469 211.800781 C 138.421875 202.972656 139.425781 194.253906 139.691406 186.589844 Z M 33.320312 188.035156 C 42.851562 189.214844 51.886719 189.882812 59.128906 189.40625 C 58.738281 196.71875 57.785156 204.832031 56.53125 213.027344 C 56.402344 213.847656 56.246094 214.660156 56.113281 215.480469 C 48.742188 215.660156 39.800781 214.851562 30.523438 213.613281 C 30.550781 213.453125 30.582031 213.289062 30.605469 213.128906 C 31.945312 204.394531 32.972656 195.726562 33.320312 188.035156 Z M 229.664062 203.941406 C 234.367188 203.875 239.078125 204 243.738281 204.332031 C 243.378906 207.222656 243.035156 210.09375 242.585938 213.027344 C 241.703125 218.804688 240.683594 224.496094 239.636719 230.042969 C 236.320312 229.902344 232.980469 229.859375 229.648438 229.910156 C 225.425781 229.980469 221.203125 230.191406 217.042969 230.507812 C 215.863281 230.597656 214.714844 230.792969 213.5625 230.957031 C 214.660156 225.164062 215.738281 219.191406 216.664062 213.128906 C 217.113281 210.214844 217.449219 207.363281 217.816406 204.496094 C 221.734375 204.203125 225.691406 204.007812 229.664062 203.941406 Z M 0.410156 235.171875 L 0.410156 235.851562 C 1.175781 236.003906 2.007812 236.148438 2.785156 236.300781 L 6.351562 236.300781 C 4.359375 235.921875 2.324219 235.550781 0.410156 235.171875 Z M 0.410156 235.171875 " fill-opacity="1" fill-rule="nonzero"/></g><g clip-path="url(#83cfcb7b9c)"><path fill="#ffffff" d="M 27.023438 71.78125 L 126.222656 71.78125 L 126.222656 147.089844 L 27.023438 147.089844 Z M 27.023438 71.78125 " fill-opacity="1" fill-rule="nonzero"/><path fill="#ffffff" d="M 27.023438 71.78125 L 126.222656 71.78125 L 126.222656 147.089844 L 27.023438 147.089844 Z M 27.023438 71.78125 " fill-opacity="1" fill-rule="nonzero"/></g><g clip-path="url(#ff0f1b1312)"><path stroke-linecap="butt" transform="matrix(1.574518, 0, 0, 1.56903, 18.267584, 71.780168)" fill="none" stroke-linejoin="miter" d="M -0.00124405 1.001507 L 74.126091 1.001507 " stroke="#000000" stroke-width="2" stroke-opacity="1" stroke-miterlimit="4"/></g><g clip-path="url(#45433066f5)"><path stroke-linecap="butt" transform="matrix(1.574518, 0, 0, 1.56903, 24.250753, 143.955558)" fill="none" stroke-linejoin="miter" d="M 0.00200247 0.999267 L 74.124376 0.999267 " stroke="#000000" stroke-width="2" stroke-opacity="1" stroke-miterlimit="4"/></g><g clip-path="url(#9e8db7b507)"><path stroke-linecap="butt" transform="matrix(0, 1.56903, -1.574518, 0, 30.175372, 73.349194)" fill="none" stroke-linejoin="miter" d="M 0.00150959 0.99955 L 48.003385 0.99955 " stroke="#000000" stroke-width="2" stroke-opacity="1" stroke-miterlimit="4"/></g><g clip-path="url(#771ee32f50)"><path stroke-linecap="butt" transform="matrix(0, 1.56903, -1.574518, 0, 126.220973, 73.349194)" fill="none" stroke-linejoin="miter" d="M 0.00150959 1.001222 L 48.003385 1.001222 " stroke="#000000" stroke-width="2" stroke-opacity="1" stroke-miterlimit="4"/></g><g clip-path="url(#e8977cf246)"><path fill="#000000" d="M 84.988281 97.832031 C 84.179688 96.707031 83.054688 95.851562 81.621094 95.265625 C 80.207031 94.675781 78.566406 94.375 76.703125 94.375 C 75.007812 94.375 73.46875 94.667969 72.066406 95.246094 C 70.679688 95.824219 69.550781 96.714844 68.691406 97.890625 C 68.019531 98.824219 67.601562 99.960938 67.429688 101.296875 C 67.355469 101.867188 67.832031 102.375 68.433594 102.375 L 72.175781 102.375 C 72.65625 102.375 73.0625 102.050781 73.164062 101.59375 C 73.257812 101.195312 73.417969 100.832031 73.625 100.519531 C 73.976562 100.019531 74.417969 99.636719 74.957031 99.375 C 75.496094 99.128906 76.066406 98.996094 76.675781 98.996094 C 77.3125 98.996094 77.875 99.117188 78.394531 99.375 C 78.910156 99.625 79.320312 99.992188 79.636719 100.464844 C 79.941406 100.933594 80.101562 101.480469 80.101562 102.101562 C 80.101562 102.6875 79.957031 103.226562 79.6875 103.695312 C 79.417969 104.167969 79.054688 104.605469 78.597656 104.992188 C 78.136719 105.386719 77.628906 105.753906 77.050781 106.117188 C 76.269531 106.585938 75.605469 107.109375 75.058594 107.6875 C 74.515625 108.265625 74.097656 109.019531 73.804688 109.960938 C 73.523438 110.90625 73.371094 112.160156 73.367188 113.742188 L 73.367188 114.53125 C 73.367188 115.070312 73.824219 115.515625 74.375 115.515625 L 77.671875 115.515625 C 78.230469 115.515625 78.679688 115.074219 78.679688 114.53125 L 78.679688 113.742188 C 78.691406 112.859375 78.808594 112.117188 79.035156 111.503906 C 79.265625 110.90625 79.617188 110.375 80.082031 109.910156 C 80.558594 109.445312 81.160156 109.015625 81.894531 108.582031 C 82.777344 108.074219 83.539062 107.507812 84.179688 106.878906 C 84.820312 106.25 85.328125 105.527344 85.6875 104.707031 C 86.050781 103.886719 86.234375 102.945312 86.234375 101.890625 C 86.207031 100.304688 85.796875 98.949219 84.988281 97.832031 Z M 84.988281 97.832031 " fill-opacity="1" fill-rule="nonzero"/></g><g clip-path="url(#e5b1d99fb8)"><path fill="#000000" d="M 76.132812 117.707031 C 75.191406 117.707031 74.394531 118.019531 73.734375 118.652344 C 73.082031 119.28125 72.75 120.050781 72.765625 120.933594 C 72.75 121.824219 73.082031 122.59375 73.734375 123.234375 C 74.394531 123.871094 75.191406 124.179688 76.132812 124.179688 C 76.722656 124.179688 77.277344 124.039062 77.773438 123.742188 C 78.28125 123.445312 78.679688 123.054688 79.003906 122.5625 C 79.316406 122.066406 79.472656 121.523438 79.484375 120.933594 C 79.46875 120.039062 79.128906 119.28125 78.457031 118.652344 C 77.792969 118.019531 77.011719 117.707031 76.132812 117.707031 Z M 76.132812 117.707031 " fill-opacity="1" fill-rule="nonzero"/></g></svg>