<svg xmlns="http://www.w3.org/2000/svg" xmlns:xlink="http://www.w3.org/1999/xlink" width="210" zoomAndPan="magnify" viewBox="0 0 157.5 119.999999" height="160" preserveAspectRatio="xMidYMid meet" version="1.0"><defs><clipPath id="d03b71358e"><path d="M 0 0.191406 L 157 0.191406 L 157 119.808594 L 0 119.808594 Z M 0 0.191406 " clip-rule="nonzero"/></clipPath><clipPath id="0bea941074"><path d="M 16.394531 44.042969 L 77.5 44.042969 L 77.5 90.34375 L 16.394531 90.34375 Z M 16.394531 44.042969 " clip-rule="nonzero"/></clipPath><clipPath id="05405201e6"><path d="M 16.394531 44.042969 L 77.5 44.042969 L 77.5 46 L 16.394531 46 Z M 16.394531 44.042969 " clip-rule="nonzero"/></clipPath><clipPath id="beae224be2"><path d="M 16.394531 88 L 77.5 88 L 77.5 90.34375 L 16.394531 90.34375 Z M 16.394531 88 " clip-rule="nonzero"/></clipPath><clipPath id="e66331ae4e"><path d="M 16.394531 44.042969 L 18.691406 44.042969 L 18.691406 90.34375 L 16.394531 90.34375 Z M 16.394531 44.042969 " clip-rule="nonzero"/></clipPath><clipPath id="f1ed117242"><path d="M 75 44.042969 L 77.5 44.042969 L 77.5 90.34375 L 75 90.34375 Z M 75 44.042969 " clip-rule="nonzero"/></clipPath><clipPath id="45fa8f54b4"><path d="M 41.234375 57.933594 L 52.875 57.933594 L 52.875 71 L 41.234375 71 Z M 41.234375 57.933594 " clip-rule="nonzero"/></clipPath><clipPath id="d236ae4b94"><path d="M 44 72 L 49 72 L 49 76.257812 L 44 76.257812 Z M 44 72 " clip-rule="nonzero"/></clipPath></defs><g clip-path="url(#d03b71358e)"><path fill="#000000" d="M 1.457031 -18.539062 C 5.566406 -17.742188 9.894531 -16.941406 14.285156 -16.269531 C 14.3125 -16.265625 14.335938 -16.261719 14.359375 -16.257812 C 13.171875 -11.25 12.585938 -5.964844 12.4375 -0.621094 C 8.054688 -1.328125 3.941406 -2.097656 0 -2.871094 L 0 -2.453125 C 3.9375 -1.683594 8.046875 -0.914062 12.421875 -0.210938 C 12.328125 3.800781 12.464844 7.828125 12.769531 11.785156 C 12.875 13.191406 13.105469 14.558594 13.382812 15.910156 C 8.691406 15.171875 4.238281 14.335938 0 13.5 L 0 13.921875 C 4.269531 14.761719 8.761719 15.601562 13.476562 16.34375 C 14.699219 22.050781 17.027344 27.398438 18.238281 32.964844 C 16.9375 32.789062 15.660156 32.648438 14.347656 32.445312 C 9.996094 31.78125 5.703125 30.988281 1.617188 30.195312 C 1.128906 28.421875 0.566406 26.667969 0 24.914062 L 0 26.394531 C 0.394531 27.628906 0.8125 28.867188 1.160156 30.109375 C 0.699219 30.019531 0.453125 29.960938 0 29.875 L 0 30.289062 C 0.503906 30.386719 0.777344 30.449219 1.289062 30.550781 C 1.84375 32.589844 2.289062 34.648438 2.5 36.757812 C 2.796875 39.75 2.964844 43.296875 2.960938 46.828125 C 1.78125 46.601562 1.132812 46.453125 0 46.230469 L 0 46.648438 C 1.132812 46.871094 1.777344 47.019531 2.953125 47.242188 C 2.9375 50.15625 2.8125 53.050781 2.5 55.574219 C 2.1875 58.082031 1.46875 60.429688 0.742188 62.773438 C 0.445312 62.714844 0.292969 62.679688 0 62.625 L 0 63.042969 C 0.246094 63.089844 0.375 63.121094 0.621094 63.167969 C 0.410156 63.851562 0.203125 64.539062 0 65.230469 L 0 66.929688 C 0.324219 65.695312 0.65625 64.46875 1.035156 63.246094 C 5.269531 64.070312 9.75 64.902344 14.285156 65.597656 C 14.933594 65.695312 15.558594 65.761719 16.203125 65.855469 C 15.527344 68.242188 14.988281 70.6875 14.988281 73.355469 C 14.988281 76.132812 15.050781 78.914062 15.195312 81.679688 C 14.90625 81.636719 14.632812 81.609375 14.347656 81.566406 C 9.425781 80.808594 4.53125 79.898438 0 79.003906 L 0 79.421875 C 4.511719 80.308594 9.382812 81.21875 14.285156 81.96875 C 14.601562 82.019531 14.90625 82.046875 15.21875 82.09375 C 15.519531 87.628906 16.191406 93.09375 17.46875 98.351562 C 16.421875 98.207031 15.402344 98.101562 14.347656 97.9375 C 9.734375 97.230469 5.171875 96.382812 0.878906 95.546875 C 0.515625 93.726562 0.238281 91.882812 0 90.023438 L 0 92.84375 C 0.140625 93.71875 0.277344 94.597656 0.449219 95.464844 C 0.269531 95.429688 0.175781 95.40625 0 95.371094 L 0 95.789062 C 0.207031 95.828125 0.316406 95.855469 0.527344 95.894531 C 1.046875 98.4375 1.695312 100.9375 2.507812 103.378906 C 3.265625 105.648438 3.558594 108.792969 3.546875 112.429688 C 2.136719 112.164062 1.351562 111.984375 0 111.71875 L 0 112.132812 C 1.351562 112.398438 2.128906 112.578125 3.542969 112.847656 C 3.5 117.496094 2.929688 122.949219 2.136719 128.535156 C 1.285156 128.371094 0.824219 128.265625 0 128.101562 L 0 128.519531 C 0.804688 128.675781 1.253906 128.78125 2.082031 128.9375 C 1.988281 129.59375 1.925781 130.226562 1.824219 130.882812 C 1.277344 134.441406 0.644531 137.929688 0 141.328125 L 0 143.542969 C 0.78125 139.5 1.566406 135.253906 2.226562 130.945312 C 2.328125 130.292969 2.390625 129.664062 2.484375 129.015625 C 6.300781 129.746094 10.261719 130.472656 14.285156 131.089844 C 15.566406 131.285156 16.808594 131.421875 18.074219 131.597656 C 17.34375 136.289062 16.484375 140.882812 15.640625 145.191406 L 16.058594 145.191406 C 16.898438 140.898438 17.75 136.324219 18.480469 131.648438 C 24.179688 132.414062 29.671875 132.921875 34.242188 132.816406 C 33.539062 137.183594 32.773438 141.269531 32.003906 145.191406 L 32.421875 145.191406 C 33.191406 141.261719 33.957031 137.167969 34.660156 132.796875 C 37.523438 132.707031 40.046875 132.402344 41.980469 131.757812 C 44.945312 130.769531 48.011719 130.039062 51.128906 129.476562 C 51.058594 129.949219 51.015625 130.40625 50.941406 130.882812 C 50.1875 135.792969 49.277344 140.671875 48.386719 145.191406 L 48.804688 145.191406 C 49.691406 140.6875 50.597656 135.832031 51.347656 130.945312 C 51.425781 130.421875 51.476562 129.917969 51.554688 129.398438 C 56.8125 128.476562 62.242188 128.101562 67.703125 127.976562 C 67.566406 128.953125 67.464844 129.902344 67.316406 130.882812 C 66.625 135.367188 65.804688 139.800781 64.992188 144 C 60.773438 144.171875 56.589844 144.53125 52.496094 145.191406 L 55.496094 145.191406 C 58.601562 144.796875 61.742188 144.542969 64.910156 144.410156 C 64.851562 144.71875 64.8125 144.882812 64.753906 145.191406 L 65.171875 145.191406 C 65.230469 144.878906 65.269531 144.714844 65.332031 144.402344 C 67.507812 144.316406 69.6875 144.257812 71.871094 144.257812 C 74.054688 144.257812 76.085938 144.675781 78.082031 145.191406 L 79.691406 145.191406 C 77.199219 144.46875 74.664062 143.851562 71.871094 143.851562 C 69.714844 143.851562 67.558594 143.910156 65.410156 143.988281 C 66.21875 139.816406 67.035156 135.40625 67.71875 130.945312 C 67.875 129.9375 67.976562 128.964844 68.117188 127.96875 C 69.371094 127.941406 70.617188 127.886719 71.871094 127.886719 C 76.128906 127.886719 79.871094 129.273438 83.75 130.425781 C 83.726562 130.582031 83.710938 130.726562 83.6875 130.882812 C 82.933594 135.789062 82.023438 140.671875 81.132812 145.191406 L 81.550781 145.191406 C 82.4375 140.6875 83.34375 135.832031 84.09375 130.945312 C 84.113281 130.808594 84.125 130.679688 84.144531 130.546875 C 85.910156 131.0625 87.703125 131.527344 89.605469 131.765625 C 92.695312 132.152344 96.289062 132.273438 99.835938 132.226562 C 99.113281 136.765625 98.304688 141.078125 97.496094 145.191406 L 97.914062 145.191406 C 98.722656 141.074219 99.53125 136.753906 100.25 132.214844 C 103.164062 132.164062 106.035156 132.015625 108.511719 131.765625 C 111.265625 131.492188 113.921875 130.820312 116.546875 130.03125 C 116.503906 130.320312 116.480469 130.59375 116.433594 130.882812 C 115.679688 135.789062 114.769531 140.667969 113.878906 145.191406 L 114.296875 145.191406 C 115.183594 140.6875 116.089844 135.832031 116.839844 130.945312 C 116.894531 130.59375 116.925781 130.253906 116.976562 129.90625 C 122.394531 128.25 127.699219 126.109375 133.476562 125.664062 C 133.484375 125.664062 133.492188 125.664062 133.5 125.664062 C 133.28125 127.398438 133.078125 129.121094 132.808594 130.882812 C 132.230469 134.652344 131.554688 138.363281 130.871094 141.964844 C 126.777344 142.617188 122.90625 143.953125 119.039062 145.191406 L 120.390625 145.191406 C 123.804688 144.089844 127.222656 142.976562 130.792969 142.386719 C 130.578125 143.503906 130.4375 144.117188 130.226562 145.191406 L 130.644531 145.191406 C 130.859375 144.09375 131 143.472656 131.21875 142.332031 C 131.964844 142.21875 132.710938 142.097656 133.476562 142.039062 C 138.03125 141.6875 142.683594 141.570312 147.285156 141.765625 C 147.023438 143.132812 146.851562 143.886719 146.59375 145.191406 L 147.011719 145.191406 C 147.265625 143.890625 147.4375 143.140625 147.695312 141.785156 C 153.03125 142.035156 158.28125 142.738281 163.210938 144.078125 C 163.128906 144.519531 163.074219 144.753906 162.988281 145.191406 L 163.40625 145.191406 C 163.484375 144.792969 163.53125 144.582031 163.613281 144.175781 C 163.648438 144.1875 163.691406 144.195312 163.730469 144.207031 L 163.730469 143.78125 C 163.714844 143.777344 163.703125 143.777344 163.6875 143.773438 C 163.703125 143.699219 163.714844 143.625 163.730469 143.554688 L 163.730469 141.328125 C 163.582031 142.105469 163.441406 142.90625 163.292969 143.667969 C 158.351562 142.332031 153.105469 141.621094 147.777344 141.371094 C 148.414062 137.96875 149.042969 134.480469 149.585938 130.945312 C 149.863281 129.132812 150.074219 127.355469 150.304688 125.574219 C 154.921875 125.925781 159.453125 126.628906 163.730469 127.832031 L 163.730469 127.410156 C 159.460938 126.21875 154.953125 125.503906 150.359375 125.152344 C 151.089844 119.304688 151.507812 113.753906 151.238281 109.277344 C 155.535156 109.652344 159.742188 110.335938 163.730469 111.460938 L 163.730469 111.039062 C 159.730469 109.917969 155.515625 109.226562 151.21875 108.855469 C 151.070312 106.703125 150.765625 104.792969 150.253906 103.25 C 149.113281 99.828125 148.292969 96.285156 147.707031 92.664062 C 153.226562 92.925781 158.65625 93.65625 163.730469 95.085938 L 163.730469 94.667969 C 158.621094 93.238281 153.171875 92.5 147.636719 92.242188 C 146.820312 87.019531 146.527344 81.640625 146.445312 76.242188 C 151.9375 76.425781 157.355469 77.085938 162.457031 78.394531 C 162.589844 83.253906 162.964844 88.082031 163.730469 92.796875 L 163.730469 90.023438 C 163.242188 86.230469 162.976562 82.378906 162.867188 78.496094 C 163.152344 78.574219 163.441406 78.640625 163.730469 78.714844 L 163.730469 78.289062 C 163.4375 78.214844 163.148438 78.140625 162.855469 78.0625 C 162.816406 76.496094 162.753906 74.929688 162.753906 73.359375 C 162.753906 71.085938 163.183594 68.972656 163.730469 66.898438 L 163.730469 65.207031 C 162.96875 67.796875 162.34375 70.449219 162.34375 73.359375 C 162.34375 74.894531 162.40625 76.425781 162.445312 77.957031 C 157.335938 76.65625 151.917969 76.015625 146.433594 75.832031 C 146.425781 75.007812 146.382812 74.183594 146.382812 73.359375 C 146.382812 68.558594 148.160156 64.429688 149.359375 60.003906 C 154.308594 60.324219 159.164062 61.054688 163.730469 62.339844 L 163.730469 61.917969 C 159.183594 60.648438 154.367188 59.921875 149.460938 59.597656 C 149.796875 58.308594 150.089844 56.996094 150.261719 55.625 C 150.707031 52.046875 150.789062 47.804688 150.671875 43.738281 C 155.164062 44.101562 159.566406 44.792969 163.730469 45.96875 L 163.730469 45.546875 C 159.554688 44.378906 155.152344 43.675781 150.660156 43.316406 C 150.585938 40.992188 150.460938 38.71875 150.261719 36.71875 C 149.933594 33.441406 149.066406 30.300781 148.082031 27.1875 C 153.472656 27.464844 158.769531 28.199219 163.730469 29.59375 L 163.730469 29.175781 C 158.714844 27.773438 153.375 27.035156 147.945312 26.769531 C 146.375 21.859375 144.5625 17.003906 144.160156 11.753906 C 144.132812 11.402344 144.117188 11.046875 144.09375 10.695312 C 149.574219 10.753906 155.03125 11.230469 160.195312 12.34375 C 160.671875 17.265625 162.265625 21.828125 163.730469 26.386719 L 163.730469 25.007812 C 162.398438 20.90625 161.0625 16.800781 160.621094 12.441406 C 161.667969 12.675781 162.707031 12.933594 163.730469 13.222656 L 163.730469 12.800781 C 162.6875 12.511719 161.632812 12.25 160.566406 12.015625 C 160.558594 11.929688 160.539062 11.84375 160.53125 11.753906 C 160.132812 6.554688 160.015625 1.230469 160.351562 -4 C 161.492188 -3.75 162.617188 -3.464844 163.730469 -3.148438 L 163.730469 -3.570312 C 162.628906 -3.875 161.511719 -4.152344 160.382812 -4.394531 C 160.714844 -9.265625 161.4375 -14.042969 162.707031 -18.539062 L 162.289062 -18.539062 C 161.03125 -14.058594 160.3125 -9.3125 159.980469 -4.480469 C 154.882812 -5.554688 149.53125 -6 144.148438 -6.058594 C 144.523438 -10.351562 145.210938 -14.554688 146.335938 -18.539062 L 145.914062 -18.539062 C 144.796875 -14.546875 144.113281 -10.347656 143.738281 -6.0625 C 142.894531 -6.070312 142.054688 -6.105469 141.210938 -6.09375 C 138.609375 -6.050781 136.007812 -5.921875 133.445312 -5.726562 C 131.464844 -5.570312 129.550781 -5.207031 127.664062 -4.75 C 128.007812 -9.496094 128.722656 -14.148438 129.960938 -18.539062 L 129.542969 -18.539062 C 128.300781 -14.113281 127.585938 -9.425781 127.25 -4.65625 C 121.742188 -3.269531 116.53125 -1.023438 111.058594 -0.015625 C 111.179688 -5.621094 111.789062 -11.164062 113.050781 -16.390625 C 115.527344 -16.96875 117.949219 -17.753906 120.375 -18.539062 L 119.015625 -18.539062 C 117.074219 -17.917969 115.128906 -17.3125 113.164062 -16.84375 C 113.304688 -17.40625 113.4375 -17.976562 113.589844 -18.539062 L 113.171875 -18.539062 C 113.007812 -17.941406 112.867188 -17.335938 112.71875 -16.734375 C 111.316406 -16.414062 109.910156 -16.136719 108.46875 -15.996094 C 104.929688 -15.640625 100.621094 -15.480469 96.472656 -15.570312 C 96.699219 -16.570312 96.941406 -17.5625 97.214844 -18.539062 L 96.796875 -18.539062 C 96.527344 -17.5625 96.28125 -16.574219 96.054688 -15.578125 C 93.8125 -15.636719 91.617188 -15.75 89.652344 -15.996094 C 86.550781 -16.382812 83.683594 -17.371094 80.773438 -18.257812 C 80.796875 -18.347656 80.820312 -18.445312 80.84375 -18.539062 L 80.421875 -18.539062 C 80.410156 -18.480469 80.398438 -18.425781 80.382812 -18.371094 C 80.167969 -18.433594 79.945312 -18.476562 79.734375 -18.539062 L 78.058594 -18.539062 C 78.796875 -18.347656 79.546875 -18.183594 80.28125 -17.964844 C 78.964844 -13.082031 78.265625 -7.90625 78.011719 -2.648438 C 76.050781 -3.140625 74.035156 -3.503906 71.871094 -3.503906 C 68.597656 -3.503906 65.320312 -3.414062 62.070312 -3.207031 C 62.359375 -8.488281 63.097656 -13.675781 64.46875 -18.539062 L 64.050781 -18.539062 C 62.683594 -13.65625 61.949219 -8.460938 61.660156 -3.183594 C 56.179688 -2.820312 50.78125 -2.089844 45.597656 -0.722656 C 45.757812 -6.371094 46.417969 -11.949219 47.757812 -17.1875 C 50.273438 -17.765625 52.835938 -18.199219 55.425781 -18.539062 L 52.609375 -18.539062 C 51.015625 -18.277344 49.433594 -17.988281 47.871094 -17.632812 C 47.949219 -17.933594 48.019531 -18.238281 48.097656 -18.539062 L 47.679688 -18.539062 C 47.589844 -18.203125 47.511719 -17.863281 47.425781 -17.527344 C 45.542969 -17.089844 43.675781 -16.59375 41.847656 -15.988281 C 39.179688 -15.097656 35.3125 -14.839844 30.839844 -14.980469 C 31.097656 -16.183594 31.394531 -17.367188 31.726562 -18.539062 L 31.304688 -18.539062 C 30.976562 -17.371094 30.683594 -16.1875 30.425781 -14.984375 C 25.703125 -15.160156 20.3125 -15.777344 14.867188 -16.601562 C 15.023438 -17.246094 15.175781 -17.898438 15.351562 -18.539062 L 14.929688 -18.539062 C 14.761719 -17.914062 14.613281 -17.285156 14.460938 -16.65625 C 14.421875 -16.660156 14.386719 -16.664062 14.347656 -16.671875 C 10.707031 -17.230469 7.128906 -17.878906 3.648438 -18.539062 Z M 80.671875 -17.851562 C 83.570312 -16.972656 86.449219 -15.984375 89.605469 -15.59375 C 91.554688 -15.347656 93.734375 -15.234375 95.953125 -15.171875 C 94.839844 -10.054688 94.347656 -4.664062 94.273438 0.757812 C 92.65625 0.679688 91.097656 0.554688 89.652344 0.375 C 85.71875 -0.113281 82.167969 -1.570312 78.414062 -2.554688 C 78.667969 -7.8125 79.363281 -12.988281 80.671875 -17.851562 Z M 47.3125 -17.085938 C 45.988281 -11.828125 45.339844 -6.253906 45.183594 -0.613281 C 44.0625 -0.308594 42.949219 0.0195312 41.847656 0.382812 C 38.855469 1.382812 34.367188 1.589844 29.1875 1.324219 C 29.234375 -4.082031 29.695312 -9.453125 30.761719 -14.5625 C 35.28125 -14.414062 39.210938 -14.675781 41.980469 -15.601562 C 43.726562 -16.183594 45.511719 -16.65625 47.3125 -17.085938 Z M 112.605469 -16.289062 C 111.363281 -11.058594 110.765625 -5.535156 110.648438 0.046875 C 109.925781 0.167969 109.203125 0.300781 108.46875 0.375 C 104.417969 0.78125 99.34375 0.964844 94.679688 0.765625 C 94.757812 -4.664062 95.25 -10.054688 96.371094 -15.164062 C 100.566406 -15.070312 104.925781 -15.230469 108.511719 -15.59375 C 109.898438 -15.730469 111.257812 -15.988281 112.605469 -16.289062 Z M 14.765625 -16.203125 C 20.214844 -15.378906 25.601562 -14.746094 30.347656 -14.566406 C 29.285156 -9.457031 28.828125 -4.09375 28.777344 1.300781 C 24.308594 1.050781 19.351562 0.46875 14.347656 -0.300781 C 13.84375 -0.378906 13.347656 -0.472656 12.84375 -0.554688 C 12.988281 -5.90625 13.574219 -11.199219 14.765625 -16.203125 Z M 141.21875 -5.6875 C 142.046875 -5.699219 142.878906 -5.6875 143.707031 -5.679688 C 143.269531 -0.394531 143.308594 5.007812 143.660156 10.304688 C 142.84375 10.300781 142.027344 10.265625 141.210938 10.277344 C 138.609375 10.320312 136.007812 10.449219 133.445312 10.644531 C 131.5 10.796875 129.625 11.152344 127.777344 11.597656 C 127.378906 6.339844 127.273438 0.957031 127.628906 -4.320312 C 129.539062 -4.792969 131.476562 -5.167969 133.476562 -5.320312 C 136.035156 -5.515625 138.625 -5.644531 141.21875 -5.6875 Z M 144.117188 -5.679688 C 149.503906 -5.621094 154.859375 -5.152344 159.945312 -4.078125 C 159.609375 1.1875 159.722656 6.550781 160.125 11.785156 C 160.128906 11.832031 160.140625 11.878906 160.144531 11.925781 C 154.972656 10.820312 149.535156 10.367188 144.066406 10.3125 C 143.714844 5.007812 143.675781 -0.394531 144.117188 -5.679688 Z M 127.214844 -4.226562 C 126.867188 1.054688 126.972656 6.4375 127.371094 11.6875 C 122.167969 12.984375 117.230469 15.0625 112.09375 16.15625 C 111.785156 14.710938 111.527344 13.253906 111.414062 11.753906 C 111.125 8.007812 110.988281 4.191406 111.054688 0.398438 C 116.570312 -0.597656 121.769531 -2.832031 127.214844 -4.226562 Z M 71.871094 -3.097656 C 74.019531 -3.097656 76.027344 -2.726562 77.996094 -2.226562 C 77.789062 2.445312 77.90625 7.164062 78.261719 11.785156 C 78.3125 12.484375 78.429688 13.160156 78.527344 13.847656 C 76.40625 13.285156 74.226562 12.867188 71.871094 12.867188 C 68.734375 12.867188 65.59375 12.949219 62.472656 13.136719 C 62.417969 12.675781 62.328125 12.222656 62.292969 11.753906 C 61.925781 6.949219 61.808594 2.042969 62.050781 -2.796875 C 65.308594 -3.003906 68.589844 -3.097656 71.871094 -3.097656 Z M 61.644531 -2.773438 C 61.402344 2.074219 61.519531 6.984375 61.886719 11.785156 C 61.921875 12.25 62.007812 12.703125 62.066406 13.164062 C 56.746094 13.5 51.496094 14.1875 46.445312 15.445312 C 46.210938 14.234375 46.015625 13.007812 45.921875 11.753906 C 45.617188 7.777344 45.480469 3.726562 45.578125 -0.300781 C 50.753906 -1.675781 56.15625 -2.40625 61.644531 -2.773438 Z M 78.398438 -2.128906 C 82.085938 -1.148438 85.628906 0.285156 89.605469 0.78125 C 91.0625 0.964844 92.640625 1.089844 94.273438 1.167969 C 94.234375 4.71875 94.363281 8.28125 94.632812 11.785156 C 94.773438 13.621094 95.109375 15.402344 95.519531 17.15625 C 93.46875 17.085938 91.460938 16.976562 89.652344 16.75 C 85.90625 16.28125 82.507812 14.9375 78.953125 13.960938 C 78.84375 13.226562 78.722656 12.5 78.667969 11.753906 C 78.316406 7.171875 78.199219 2.496094 78.398438 -2.128906 Z M 45.167969 -0.179688 C 45.074219 3.816406 45.210938 7.839844 45.515625 11.785156 C 45.613281 13.0625 45.808594 14.308594 46.046875 15.542969 C 44.632812 15.902344 43.230469 16.296875 41.847656 16.757812 C 39.128906 17.664062 35.171875 17.917969 30.585938 17.761719 C 30.09375 15.800781 29.707031 13.808594 29.546875 11.753906 C 29.292969 8.449219 29.167969 5.09375 29.1875 1.746094 C 34.375 2.011719 38.894531 1.800781 41.980469 0.773438 C 43.027344 0.421875 44.09375 0.113281 45.167969 -0.179688 Z M 12.828125 -0.140625 C 13.316406 -0.0625 13.796875 0.03125 14.285156 0.105469 C 19.3125 0.875 24.28125 1.46875 28.777344 1.71875 C 28.761719 5.089844 28.886719 8.464844 29.140625 11.785156 C 29.300781 13.832031 29.679688 15.808594 30.160156 17.753906 C 25.351562 17.5625 19.867188 16.921875 14.347656 16.074219 C 14.167969 16.046875 13.996094 16.011719 13.816406 15.984375 C 13.527344 14.59375 13.285156 13.191406 13.175781 11.753906 C 12.875 7.828125 12.734375 3.832031 12.828125 -0.140625 Z M 110.644531 0.460938 C 110.582031 4.246094 110.71875 8.050781 111.003906 11.785156 C 111.125 13.308594 111.382812 14.789062 111.695312 16.253906 C 110.628906 16.46875 109.558594 16.640625 108.46875 16.75 C 104.78125 17.117188 100.25 17.28125 95.941406 17.164062 C 95.523438 15.394531 95.183594 13.601562 95.039062 11.753906 C 94.769531 8.261719 94.644531 4.710938 94.679688 1.175781 C 99.363281 1.375 104.445312 1.191406 108.511719 0.78125 C 109.230469 0.710938 109.9375 0.578125 110.644531 0.460938 Z M 141.21875 10.6875 C 142.039062 10.671875 142.859375 10.6875 143.683594 10.691406 C 143.707031 11.054688 143.722656 11.421875 143.753906 11.785156 C 144.160156 17.050781 145.941406 21.894531 147.5 26.742188 C 145.410156 26.648438 143.308594 26.617188 141.210938 26.652344 C 138.609375 26.691406 136.007812 26.820312 133.445312 27.019531 C 132.863281 27.0625 132.296875 27.164062 131.726562 27.242188 C 130.148438 22.253906 128.277344 17.328125 127.820312 12.011719 C 129.667969 11.5625 131.542969 11.203125 133.476562 11.050781 C 136.035156 10.855469 138.625 10.726562 141.21875 10.6875 Z M 127.421875 12.101562 C 127.890625 17.441406 129.742188 22.363281 131.304688 27.296875 C 126.160156 28.050781 121.363281 29.90625 116.519531 31.367188 C 115.265625 26.394531 113.304688 21.59375 112.183594 16.558594 C 117.351562 15.460938 122.277344 13.394531 127.421875 12.101562 Z M 71.871094 13.273438 C 74.234375 13.273438 76.433594 13.707031 78.585938 14.289062 C 79.535156 20.332031 81.984375 25.898438 83.417969 31.65625 C 79.707031 30.527344 76.054688 29.238281 71.871094 29.238281 C 70.199219 29.238281 68.53125 29.300781 66.859375 29.347656 C 65.34375 24.117188 63.277344 19.011719 62.527344 13.546875 C 65.625 13.359375 68.75 13.273438 71.871094 13.273438 Z M 62.121094 13.570312 C 62.867188 19.082031 64.914062 24.179688 66.429688 29.355469 C 61.179688 29.519531 55.96875 29.9375 50.90625 30.863281 C 49.585938 25.835938 47.582031 20.976562 46.535156 15.847656 C 51.566406 14.589844 56.804688 13.902344 62.121094 13.570312 Z M 79.011719 14.410156 C 82.480469 15.378906 85.851562 16.6875 89.605469 17.15625 C 91.457031 17.386719 93.511719 17.5 95.609375 17.566406 C 96.9375 23.023438 99.164062 28.179688 100.246094 33.566406 C 96.582031 33.628906 92.839844 33.519531 89.652344 33.121094 C 87.652344 32.871094 85.753906 32.355469 83.875 31.792969 C 82.460938 25.964844 79.992188 20.394531 79.011719 14.410156 Z M 46.132812 15.941406 C 47.1875 21.105469 49.183594 25.960938 50.5 30.9375 C 47.558594 31.492188 44.660156 32.195312 41.847656 33.128906 C 40.113281 33.710938 37.839844 34 35.257812 34.113281 C 34.265625 28.675781 32.074219 23.546875 30.683594 18.183594 C 35.238281 18.335938 39.195312 18.074219 41.980469 17.144531 C 43.34375 16.691406 44.734375 16.300781 46.132812 15.941406 Z M 13.914062 16.414062 C 14.039062 16.433594 14.160156 16.460938 14.285156 16.480469 C 19.859375 17.332031 25.390625 17.988281 30.253906 18.175781 C 31.640625 23.601562 33.847656 28.738281 34.84375 34.132812 C 30.234375 34.292969 24.574219 33.800781 18.675781 33.023438 C 17.480469 27.398438 15.152344 22.0625 13.914062 16.414062 Z M 111.785156 16.652344 C 112.910156 21.742188 114.875 26.546875 116.125 31.488281 C 113.609375 32.230469 111.082031 32.859375 108.46875 33.121094 C 106.128906 33.355469 103.417969 33.496094 100.664062 33.554688 C 99.589844 28.117188 97.367188 22.972656 96.035156 17.574219 C 100.332031 17.6875 104.828125 17.523438 108.511719 17.15625 C 109.617188 17.042969 110.707031 16.871094 111.785156 16.652344 Z M 141.21875 27.058594 C 143.359375 27.027344 145.503906 27.070312 147.636719 27.167969 C 148.640625 30.320312 149.527344 33.476562 149.855469 36.757812 C 150.054688 38.734375 150.175781 40.980469 150.25 43.277344 C 147.257812 43.054688 144.230469 42.976562 141.210938 43.023438 C 138.890625 43.0625 136.582031 43.175781 134.289062 43.339844 C 134.210938 41.007812 134.089844 38.722656 133.886719 36.71875 C 133.578125 33.597656 132.773438 30.605469 131.847656 27.636719 C 132.390625 27.566406 132.925781 27.46875 133.476562 27.425781 C 136.035156 27.230469 138.625 27.101562 141.21875 27.058594 Z M 131.425781 27.691406 C 132.359375 30.667969 133.171875 33.65625 133.480469 36.757812 C 133.683594 38.757812 133.804688 41.035156 133.878906 43.363281 C 133.734375 43.375 133.585938 43.378906 133.445312 43.390625 C 127.988281 43.8125 122.992188 45.710938 117.972656 47.304688 C 117.996094 43.601562 117.832031 39.859375 117.515625 36.71875 C 117.347656 35.035156 117.011719 33.398438 116.617188 31.773438 C 121.511719 30.304688 126.3125 28.4375 131.425781 27.691406 Z M 71.871094 29.648438 C 76.050781 29.648438 79.730469 30.980469 83.53125 32.125 C 83.894531 33.652344 84.207031 35.1875 84.363281 36.757812 C 84.710938 40.210938 84.867188 44.390625 84.792969 48.441406 C 80.597656 47.25 76.570312 45.613281 71.871094 45.613281 C 70.867188 45.613281 69.867188 45.660156 68.863281 45.675781 C 68.832031 42.519531 68.664062 39.394531 68.394531 36.71875 C 68.160156 34.335938 67.625 32.03125 66.980469 29.753906 C 68.609375 29.710938 70.238281 29.648438 71.871094 29.648438 Z M 66.550781 29.765625 C 67.207031 32.058594 67.753906 34.375 67.992188 36.757812 C 68.257812 39.421875 68.421875 42.539062 68.453125 45.6875 C 63.070312 45.785156 57.703125 46.101562 52.488281 46.945312 C 52.496094 43.359375 52.328125 39.757812 52.023438 36.71875 C 51.835938 34.859375 51.457031 33.050781 51.003906 31.261719 C 56.066406 30.335938 61.289062 29.921875 66.550781 29.765625 Z M 1.734375 30.636719 C 5.769531 31.414062 9.996094 32.195312 14.285156 32.851562 C 15.65625 33.0625 16.984375 33.210938 18.339844 33.394531 C 18.570312 34.503906 18.757812 35.625 18.871094 36.757812 C 19.246094 40.503906 19.410156 45.113281 19.28125 49.476562 C 17.640625 49.265625 16.011719 49.074219 14.347656 48.820312 C 10.617188 48.246094 6.9375 47.582031 3.371094 46.90625 C 3.375 43.332031 3.207031 39.746094 2.90625 36.71875 C 2.699219 34.644531 2.269531 32.625 1.734375 30.636719 Z M 50.597656 31.335938 C 51.054688 33.117188 51.433594 34.917969 51.617188 36.757812 C 51.921875 39.804688 52.085938 43.425781 52.074219 47.019531 C 48.585938 47.605469 45.164062 48.398438 41.847656 49.503906 C 40.289062 50.023438 38.300781 50.316406 36.042969 50.453125 C 36.238281 45.796875 36.054688 40.757812 35.648438 36.71875 C 35.578125 35.980469 35.445312 35.257812 35.320312 34.53125 C 37.90625 34.414062 40.199219 34.113281 41.980469 33.519531 C 44.777344 32.585938 47.664062 31.886719 50.597656 31.335938 Z M 116.21875 31.890625 C 116.613281 33.492188 116.945312 35.109375 117.109375 36.757812 C 117.425781 39.921875 117.589844 43.703125 117.558594 47.433594 C 114.574219 48.371094 111.578125 49.183594 108.46875 49.496094 C 106.378906 49.703125 103.988281 49.828125 101.546875 49.902344 C 101.703125 45.398438 101.53125 40.601562 101.140625 36.71875 C 101.050781 35.789062 100.898438 34.871094 100.726562 33.960938 C 103.472656 33.902344 106.171875 33.761719 108.511719 33.527344 C 111.152344 33.265625 113.699219 32.636719 116.21875 31.890625 Z M 83.988281 32.261719 C 85.804688 32.796875 87.644531 33.285156 89.605469 33.527344 C 92.835938 33.929688 96.613281 34.039062 100.3125 33.972656 C 100.488281 34.894531 100.644531 35.820312 100.738281 36.757812 C 101.125 40.628906 101.292969 45.425781 101.136719 49.914062 C 97.191406 50.015625 93.101562 49.925781 89.652344 49.496094 C 88.125 49.304688 86.652344 48.964844 85.203125 48.566406 C 85.28125 44.460938 85.121094 40.21875 84.769531 36.71875 C 84.617188 35.203125 84.328125 33.726562 83.988281 32.261719 Z M 18.777344 33.453125 C 24.652344 34.230469 30.285156 34.71875 34.910156 34.550781 C 35.035156 35.28125 35.171875 36.015625 35.246094 36.757812 C 35.648438 40.785156 35.828125 45.828125 35.632812 50.472656 C 31.148438 50.707031 25.5625 50.273438 19.691406 49.53125 C 19.824219 45.132812 19.65625 40.492188 19.277344 36.71875 C 19.167969 35.613281 18.992188 34.527344 18.777344 33.453125 Z M 141.21875 43.433594 C 144.242188 43.386719 147.269531 43.476562 150.261719 43.703125 C 150.382812 47.769531 150.300781 52.015625 149.855469 55.574219 C 149.683594 56.949219 149.386719 58.269531 149.039062 59.574219 C 146.441406 59.414062 143.824219 59.355469 141.210938 59.398438 C 138.609375 59.4375 136.007812 59.566406 133.445312 59.765625 C 133.304688 59.773438 133.171875 59.804688 133.03125 59.816406 C 133.394531 58.457031 133.707031 57.070312 133.886719 55.625 C 134.335938 52.050781 134.417969 47.808594 134.300781 43.746094 C 136.589844 43.585938 138.902344 43.46875 141.21875 43.433594 Z M 133.890625 43.773438 C 134.007812 47.816406 133.925781 52.035156 133.480469 55.574219 C 133.296875 57.050781 132.972656 58.472656 132.59375 59.875 C 126.503906 60.519531 120.949219 62.878906 115.273438 64.484375 C 116.148438 61.609375 117.125 58.753906 117.515625 55.625 C 117.816406 53.222656 117.933594 50.5 117.964844 47.746094 C 123.042969 46.144531 128.050781 44.21875 133.476562 43.796875 C 133.613281 43.789062 133.753906 43.78125 133.890625 43.773438 Z M 71.871094 46.023438 C 76.511719 46.023438 80.523438 47.679688 84.785156 48.875 C 84.730469 51.21875 84.621094 53.523438 84.363281 55.574219 C 83.996094 58.53125 83.074219 61.269531 82.222656 64.042969 C 78.917969 63.015625 75.605469 61.984375 71.871094 61.984375 C 70.203125 61.984375 68.539062 62.046875 66.875 62.09375 C 67.511719 60.003906 68.113281 57.890625 68.394531 55.625 C 68.757812 52.738281 68.898438 49.402344 68.875 46.085938 C 69.875 46.070312 70.871094 46.023438 71.871094 46.023438 Z M 68.464844 46.09375 C 68.488281 49.398438 68.347656 52.714844 67.992188 55.574219 C 67.707031 57.84375 67.085938 59.976562 66.4375 62.101562 C 60.871094 62.273438 55.34375 62.730469 49.996094 63.773438 C 50.808594 61.136719 51.664062 58.496094 52.023438 55.625 C 52.335938 53.113281 52.460938 50.25 52.480469 47.363281 C 57.695312 46.511719 63.070312 46.191406 68.464844 46.09375 Z M 3.363281 47.320312 C 6.914062 47.992188 10.570312 48.65625 14.285156 49.222656 C 15.96875 49.484375 17.613281 49.675781 19.273438 49.890625 C 19.203125 51.878906 19.089844 53.820312 18.871094 55.574219 C 18.441406 59.03125 17.265625 62.195312 16.320312 65.453125 C 15.65625 65.359375 15.011719 65.296875 14.347656 65.191406 C 9.832031 64.5 5.371094 63.671875 1.152344 62.851562 C 1.875 60.515625 2.589844 58.164062 2.90625 55.625 C 3.21875 53.097656 3.34375 50.21875 3.363281 47.320312 Z M 52.066406 47.4375 C 52.046875 50.285156 51.925781 53.105469 51.617188 55.574219 C 51.257812 58.464844 50.367188 61.148438 49.535156 63.859375 C 46.921875 64.386719 44.355469 65.042969 41.847656 65.875 C 39.5625 66.640625 36.386719 66.929688 32.71875 66.917969 C 33.699219 63.199219 35.152344 59.628906 35.648438 55.625 C 35.835938 54.140625 35.960938 52.535156 36.035156 50.875 C 38.328125 50.730469 40.363281 50.429688 41.980469 49.890625 C 45.242188 48.804688 48.625 48.019531 52.066406 47.4375 Z M 117.550781 47.871094 C 117.519531 50.566406 117.402344 53.234375 117.109375 55.574219 C 116.714844 58.738281 115.695312 61.65625 114.796875 64.625 C 112.71875 65.195312 110.621094 65.652344 108.46875 65.867188 C 105.46875 66.167969 101.910156 66.335938 98.367188 66.328125 C 99.339844 62.820312 100.667969 59.417969 101.140625 55.625 C 101.347656 53.976562 101.464844 52.167969 101.539062 50.3125 C 103.996094 50.238281 106.402344 50.113281 108.511719 49.902344 C 111.617188 49.589844 114.597656 48.792969 117.550781 47.871094 Z M 85.191406 48.992188 C 86.621094 49.378906 88.082031 49.710938 89.605469 49.902344 C 93.074219 50.335938 97.175781 50.425781 101.128906 50.324219 C 101.058594 52.160156 100.941406 53.949219 100.738281 55.574219 C 100.265625 59.339844 98.910156 62.75 97.933594 66.320312 C 95.039062 66.304688 92.164062 66.183594 89.652344 65.867188 C 87.207031 65.5625 84.914062 64.871094 82.625 64.164062 C 83.472656 61.394531 84.394531 58.636719 84.769531 55.625 C 85.023438 53.589844 85.136719 51.308594 85.191406 48.992188 Z M 19.683594 49.945312 C 25.535156 50.691406 31.105469 51.128906 35.625 50.890625 C 35.550781 52.527344 35.425781 54.113281 35.246094 55.574219 C 34.75 59.542969 33.273438 63.125 32.292969 66.910156 C 27.671875 66.859375 22.273438 66.296875 16.738281 65.511719 C 17.679688 62.289062 18.839844 59.125 19.277344 55.625 C 19.496094 53.867188 19.613281 51.929688 19.683594 49.945312 Z M 141.21875 59.804688 C 143.796875 59.765625 146.382812 59.8125 148.941406 59.96875 C 147.742188 64.335938 145.972656 68.484375 145.972656 73.355469 C 145.972656 74.179688 146.015625 75 146.027344 75.824219 C 144.421875 75.777344 142.816406 75.746094 141.210938 75.769531 C 138.609375 75.8125 136.007812 75.941406 133.445312 76.136719 C 132.304688 76.226562 131.183594 76.382812 130.078125 76.582031 C 130.058594 75.507812 130.007812 74.433594 130.007812 73.355469 C 130.007812 68.644531 131.722656 64.578125 132.921875 60.242188 C 133.109375 60.226562 133.289062 60.1875 133.476562 60.171875 C 136.035156 59.976562 138.625 59.847656 141.21875 59.804688 Z M 132.46875 60.300781 C 131.273438 64.546875 129.601562 68.609375 129.601562 73.355469 C 129.601562 74.464844 129.652344 75.566406 129.671875 76.671875 C 124.195312 77.730469 119.082031 79.898438 113.816406 81.238281 C 113.691406 78.621094 113.636719 75.988281 113.636719 73.355469 C 113.636719 70.375 114.328125 67.652344 115.136719 64.957031 C 120.886719 63.363281 126.441406 60.976562 132.46875 60.300781 Z M 71.871094 62.394531 C 75.527344 62.394531 78.800781 63.417969 82.105469 64.441406 C 81.242188 67.28125 80.480469 70.160156 80.480469 73.355469 C 80.480469 75.550781 80.539062 77.746094 80.625 79.933594 C 77.839844 79.09375 75.007812 78.359375 71.871094 78.359375 C 69.457031 78.359375 67.039062 78.410156 64.628906 78.515625 C 64.578125 76.796875 64.519531 75.078125 64.519531 73.355469 C 64.519531 69.476562 65.667969 66.023438 66.75 62.507812 C 68.457031 62.457031 70.164062 62.394531 71.871094 62.394531 Z M 66.3125 62.515625 C 65.242188 65.984375 64.109375 69.4375 64.109375 73.355469 C 64.109375 75.082031 64.171875 76.800781 64.21875 78.523438 C 58.8125 78.773438 53.464844 79.359375 48.300781 80.5 C 48.195312 78.125 48.144531 75.742188 48.144531 73.355469 C 48.144531 70.101562 48.960938 67.15625 49.863281 64.214844 C 55.203125 63.15625 60.734375 62.691406 66.3125 62.515625 Z M 49.402344 64.300781 C 48.523438 67.183594 47.734375 70.109375 47.734375 73.355469 C 47.734375 75.773438 47.789062 78.1875 47.890625 80.597656 C 45.847656 81.058594 43.824219 81.589844 41.847656 82.25 C 39.433594 83.054688 36.015625 83.332031 32.074219 83.277344 C 31.863281 79.988281 31.773438 76.671875 31.773438 73.355469 C 31.773438 71.246094 32.128906 69.269531 32.617188 67.335938 C 36.347656 67.355469 39.597656 67.058594 41.980469 66.265625 C 44.398438 65.460938 46.878906 64.816406 49.402344 64.300781 Z M 82.507812 64.5625 C 84.800781 65.269531 87.113281 65.964844 89.605469 66.273438 C 92.105469 66.585938 94.957031 66.710938 97.828125 66.730469 C 97.269531 68.839844 96.855469 71.015625 96.855469 73.355469 C 96.855469 76.46875 96.9375 79.582031 97.121094 82.679688 C 94.507812 82.640625 91.925781 82.523438 89.652344 82.242188 C 86.644531 81.867188 83.859375 80.921875 81.035156 80.054688 C 80.945312 77.828125 80.890625 75.59375 80.890625 73.355469 C 80.890625 70.230469 81.648438 67.386719 82.507812 64.5625 Z M 114.664062 65.089844 C 113.882812 67.71875 113.226562 70.402344 113.226562 73.355469 C 113.226562 76.019531 113.28125 78.683594 113.410156 81.335938 C 111.785156 81.734375 110.148438 82.074219 108.46875 82.242188 C 105.230469 82.566406 101.347656 82.726562 97.53125 82.6875 C 97.347656 79.589844 97.261719 76.472656 97.261719 73.355469 C 97.261719 71.027344 97.683594 68.859375 98.253906 66.738281 C 101.851562 66.746094 105.464844 66.578125 108.511719 66.273438 C 110.609375 66.066406 112.648438 65.628906 114.664062 65.089844 Z M 16.625 65.910156 C 22.152344 66.699219 27.546875 67.273438 32.191406 67.328125 C 31.714844 69.253906 31.363281 71.234375 31.363281 73.355469 C 31.363281 76.667969 31.453125 79.980469 31.664062 83.269531 C 26.863281 83.175781 21.289062 82.574219 15.609375 81.734375 C 15.464844 78.953125 15.398438 76.15625 15.398438 73.355469 C 15.398438 70.726562 15.941406 68.296875 16.625 65.910156 Z M 141.21875 76.179688 C 142.824219 76.152344 144.429688 76.175781 146.035156 76.222656 C 146.113281 81.613281 146.410156 86.988281 147.222656 92.21875 C 145.222656 92.136719 143.214844 92.113281 141.210938 92.144531 C 138.609375 92.183594 136.007812 92.3125 133.445312 92.511719 C 132.738281 92.566406 132.050781 92.679688 131.355469 92.78125 C 130.515625 87.632812 130.191406 82.328125 130.089844 77 C 131.203125 76.796875 132.328125 76.632812 133.476562 76.542969 C 136.035156 76.347656 138.625 76.21875 141.21875 76.179688 Z M 129.679688 77.089844 C 129.785156 82.402344 130.109375 87.691406 130.949219 92.835938 C 125.691406 93.660156 120.792969 95.617188 115.820312 97.066406 C 114.703125 92.074219 114.109375 86.898438 113.839844 81.65625 C 119.15625 80.320312 124.261719 78.15625 129.679688 77.089844 Z M 71.871094 78.769531 C 74.988281 78.769531 77.816406 79.519531 80.632812 80.375 C 80.867188 85.988281 81.4375 91.546875 82.617188 96.90625 C 79.179688 95.84375 75.753906 94.730469 71.871094 94.730469 C 69.996094 94.730469 68.117188 94.792969 66.246094 94.851562 C 65.253906 89.675781 64.808594 84.320312 64.636719 78.925781 C 67.042969 78.820312 69.457031 78.769531 71.871094 78.769531 Z M 64.230469 78.933594 C 64.398438 84.324219 64.84375 89.675781 65.828125 94.863281 C 60.535156 95.046875 55.285156 95.503906 50.191406 96.484375 C 49.105469 91.4375 48.550781 86.207031 48.308594 80.917969 C 53.464844 79.777344 58.8125 79.183594 64.230469 78.933594 Z M 81.042969 80.496094 C 83.816406 81.347656 86.585938 82.269531 89.605469 82.648438 C 91.90625 82.933594 94.511719 83.050781 97.144531 83.089844 C 97.488281 88.539062 98.191406 93.914062 99.503906 99.078125 C 96.078125 99.113281 92.621094 98.984375 89.652344 98.613281 C 87.367188 98.328125 85.210938 97.699219 83.070312 97.042969 C 81.875 91.6875 81.285156 86.125 81.042969 80.496094 Z M 47.902344 81.015625 C 48.144531 86.289062 48.703125 91.511719 49.789062 96.558594 C 47.089844 97.09375 44.433594 97.761719 41.847656 98.621094 C 39.957031 99.253906 37.441406 99.550781 34.566406 99.636719 C 33.203125 94.503906 32.472656 89.140625 32.101562 83.699219 C 36.050781 83.753906 39.492188 83.46875 41.980469 82.636719 C 43.914062 81.992188 45.894531 81.472656 47.902344 81.015625 Z M 113.4375 81.753906 C 113.707031 86.996094 114.304688 92.175781 115.429688 97.183594 C 113.144531 97.835938 110.839844 98.378906 108.46875 98.613281 C 105.914062 98.871094 102.9375 99.027344 99.921875 99.066406 C 98.605469 93.917969 97.898438 88.546875 97.558594 83.097656 C 101.378906 83.136719 105.265625 82.972656 108.511719 82.648438 C 110.1875 82.480469 111.820312 82.144531 113.4375 81.753906 Z M 15.632812 82.148438 C 21.3125 82.988281 26.878906 83.601562 31.691406 83.691406 C 32.058594 89.136719 32.789062 94.503906 34.148438 99.652344 C 29.46875 99.75 23.78125 99.210938 17.902344 98.410156 C 16.617188 93.160156 15.941406 87.695312 15.632812 82.148438 Z M 141.21875 92.550781 C 143.242188 92.519531 145.269531 92.5625 147.289062 92.648438 C 147.878906 96.3125 148.707031 99.90625 149.863281 103.378906 C 150.355469 104.859375 150.652344 106.710938 150.800781 108.816406 C 147.628906 108.558594 144.417969 108.464844 141.210938 108.515625 C 139.078125 108.550781 136.953125 108.65625 134.847656 108.796875 C 134.691406 106.664062 134.386719 104.777344 133.878906 103.25 C 132.796875 99.992188 132.011719 96.621094 131.429688 93.183594 C 132.109375 93.085938 132.785156 92.972656 133.476562 92.917969 C 136.035156 92.722656 138.625 92.59375 141.21875 92.550781 Z M 131.023438 93.238281 C 131.609375 96.695312 132.398438 100.09375 133.492188 103.378906 C 133.984375 104.859375 134.277344 106.714844 134.425781 108.820312 C 134.101562 108.84375 133.769531 108.859375 133.445312 108.882812 C 128.210938 109.289062 123.394531 111.050781 118.578125 112.601562 C 118.597656 108.875 118.300781 105.628906 117.507812 103.25 C 116.878906 101.359375 116.367188 99.425781 115.917969 97.472656 C 120.929688 96.015625 125.816406 94.058594 131.023438 93.238281 Z M 71.871094 95.140625 C 75.753906 95.140625 79.207031 96.292969 82.726562 97.375 C 83.1875 99.40625 83.71875 101.414062 84.371094 103.378906 C 85.242188 105.988281 85.503906 109.753906 85.386719 114.101562 C 80.972656 112.902344 76.789062 111.105469 71.871094 111.105469 C 71.066406 111.105469 70.261719 111.144531 69.453125 111.15625 C 69.390625 108.039062 69.078125 105.316406 68.386719 103.25 C 67.523438 100.652344 66.855469 97.976562 66.320312 95.261719 C 68.167969 95.203125 70.019531 95.140625 71.871094 95.140625 Z M 65.902344 95.269531 C 66.445312 98.027344 67.121094 100.738281 68 103.378906 C 68.667969 105.382812 68.972656 108.070312 69.03125 111.164062 C 63.664062 111.246094 58.304688 111.535156 53.089844 112.34375 C 53.09375 108.722656 52.789062 105.574219 52.015625 103.25 C 51.320312 101.171875 50.761719 99.042969 50.285156 96.882812 C 55.363281 95.90625 60.609375 95.453125 65.902344 95.269531 Z M 0.957031 95.976562 C 5.210938 96.808594 9.722656 97.644531 14.285156 98.34375 C 15.394531 98.511719 16.46875 98.628906 17.570312 98.78125 C 17.957031 100.332031 18.378906 101.871094 18.878906 103.378906 C 19.816406 106.179688 20.066406 110.28125 19.878906 115.046875 C 18.042969 114.816406 16.214844 114.597656 14.347656 114.3125 C 10.828125 113.773438 7.355469 113.148438 3.96875 112.511719 C 3.980469 108.820312 3.683594 105.609375 2.894531 103.25 C 2.105469 100.878906 1.46875 98.449219 0.957031 95.976562 Z M 49.882812 96.957031 C 50.363281 99.132812 50.925781 101.28125 51.625 103.378906 C 52.382812 105.644531 52.675781 108.78125 52.667969 112.40625 C 48.972656 112.996094 45.351562 113.828125 41.847656 114.996094 C 40.417969 115.472656 38.644531 115.769531 36.621094 115.921875 C 36.878906 110.785156 36.664062 106.308594 35.640625 103.25 C 35.289062 102.195312 34.980469 101.125 34.683594 100.050781 C 37.539062 99.957031 40.054688 99.652344 41.980469 99.011719 C 44.550781 98.15625 47.195312 97.492188 49.882812 96.957031 Z M 83.179688 97.511719 C 85.257812 98.140625 87.355469 98.738281 89.605469 99.019531 C 92.625 99.398438 96.132812 99.523438 99.601562 99.488281 C 99.945312 100.796875 100.316406 102.097656 100.746094 103.378906 C 101.699219 106.246094 101.9375 110.480469 101.722656 115.386719 C 97.601562 115.515625 93.273438 115.4375 89.652344 114.988281 C 88.332031 114.820312 87.058594 114.535156 85.804688 114.207031 C 85.929688 109.796875 85.664062 105.960938 84.761719 103.25 C 84.136719 101.375 83.628906 99.453125 83.179688 97.511719 Z M 115.523438 97.589844 C 115.976562 99.546875 116.488281 101.484375 117.117188 103.378906 C 117.894531 105.710938 118.183594 108.972656 118.152344 112.738281 C 114.972656 113.753906 111.785156 114.65625 108.46875 114.988281 C 106.550781 115.179688 104.375 115.296875 102.144531 115.375 C 102.359375 110.460938 102.117188 106.203125 101.132812 103.25 C 100.71875 102.007812 100.351562 100.746094 100.019531 99.472656 C 103.011719 99.429688 105.96875 99.273438 108.511719 99.019531 C 110.910156 98.78125 113.230469 98.242188 115.523438 97.589844 Z M 18.003906 98.839844 C 23.882812 99.640625 29.5625 100.179688 34.261719 100.066406 C 34.566406 101.183594 34.890625 102.289062 35.253906 103.378906 C 36.246094 106.351562 36.457031 110.800781 36.199219 115.941406 C 31.773438 116.230469 26.191406 115.828125 20.296875 115.101562 C 20.492188 110.304688 20.234375 106.148438 19.269531 103.25 C 18.785156 101.800781 18.378906 100.328125 18.003906 98.839844 Z M 141.21875 108.925781 C 144.429688 108.875 147.644531 108.980469 150.816406 109.242188 C 151.085938 113.679688 150.675781 119.246094 149.945312 125.117188 C 147.054688 124.910156 144.128906 124.84375 141.210938 124.890625 C 138.785156 124.925781 136.371094 125.046875 133.976562 125.222656 C 134.714844 119.316406 135.140625 113.707031 134.863281 109.203125 C 136.96875 109.0625 139.089844 108.957031 141.21875 108.925781 Z M 134.445312 109.230469 C 134.714844 113.703125 134.296875 119.324219 133.554688 125.25 C 133.519531 125.253906 133.480469 125.253906 133.445312 125.257812 C 127.652344 125.703125 122.371094 127.808594 117.039062 129.453125 C 117.894531 123.628906 118.511719 117.925781 118.570312 113.042969 C 123.441406 111.480469 128.265625 109.691406 133.476562 109.289062 C 133.796875 109.265625 134.121094 109.25 134.445312 109.230469 Z M 71.871094 111.511719 C 76.726562 111.511719 80.894531 113.328125 85.378906 114.527344 C 85.222656 119.214844 84.617188 124.578125 83.804688 130.011719 C 79.960938 128.855469 76.199219 127.476562 71.871094 127.476562 C 70.636719 127.476562 69.40625 127.53125 68.171875 127.558594 C 68.964844 121.816406 69.527344 116.234375 69.472656 111.566406 C 70.273438 111.554688 71.070312 111.511719 71.871094 111.511719 Z M 69.050781 111.574219 C 69.101562 116.21875 68.546875 121.816406 67.757812 127.566406 C 62.304688 127.6875 56.878906 128.058594 51.609375 128.972656 C 52.445312 123.203125 53.046875 117.566406 53.082031 112.757812 C 58.296875 111.945312 63.664062 111.652344 69.050781 111.574219 Z M 52.660156 112.820312 C 52.617188 117.621094 52.023438 123.273438 51.1875 129.050781 C 48.007812 129.617188 44.878906 130.359375 41.847656 131.367188 C 39.996094 131.984375 37.535156 132.285156 34.734375 132.375 C 34.808594 131.894531 34.902344 131.421875 34.972656 130.945312 C 35.75 125.878906 36.347656 120.867188 36.59375 116.34375 C 38.664062 116.183594 40.488281 115.878906 41.980469 115.382812 C 45.433594 114.234375 49.007812 113.410156 52.660156 112.820312 Z M 3.960938 112.925781 C 7.328125 113.558594 10.785156 114.179688 14.285156 114.714844 C 16.164062 115.003906 18.007812 115.226562 19.855469 115.460938 C 19.644531 120.175781 19.019531 125.507812 18.195312 130.882812 C 18.179688 130.984375 18.160156 131.085938 18.144531 131.1875 C 16.875 131.019531 15.628906 130.882812 14.347656 130.683594 C 10.324219 130.066406 6.359375 129.34375 2.539062 128.609375 C 3.335938 123.035156 3.914062 117.597656 3.960938 112.925781 Z M 118.144531 113.179688 C 118.078125 118.054688 117.464844 123.761719 116.609375 129.582031 C 113.9375 130.390625 111.25 131.082031 108.46875 131.359375 C 106.027344 131.605469 103.195312 131.75 100.320312 131.800781 C 100.367188 131.515625 100.421875 131.230469 100.464844 130.945312 C 101.273438 125.671875 101.894531 120.453125 102.121094 115.785156 C 104.371094 115.707031 106.570312 115.585938 108.511719 115.390625 C 111.824219 115.0625 115 114.179688 118.144531 113.179688 Z M 85.796875 114.628906 C 87.035156 114.949219 88.292969 115.230469 89.605469 115.390625 C 93.242188 115.847656 97.570312 115.925781 101.699219 115.796875 C 101.472656 120.433594 100.867188 125.636719 100.0625 130.882812 C 100.011719 131.195312 99.953125 131.5 99.902344 131.8125 C 96.347656 131.863281 92.738281 131.746094 89.652344 131.359375 C 87.769531 131.125 85.976562 130.652344 84.203125 130.128906 C 85.015625 124.699219 85.632812 119.339844 85.796875 114.628906 Z M 20.273438 115.515625 C 26.144531 116.242188 31.710938 116.652344 36.171875 116.359375 C 35.929688 120.855469 35.34375 125.84375 34.570312 130.882812 C 34.492188 131.386719 34.394531 131.886719 34.3125 132.390625 C 29.773438 132.5 24.265625 132.003906 18.550781 131.242188 C 18.566406 131.144531 18.585938 131.042969 18.601562 130.945312 C 19.425781 125.574219 20.058594 120.246094 20.273438 115.515625 Z M 141.21875 125.296875 C 144.117188 125.253906 147.019531 125.332031 149.890625 125.535156 C 149.667969 127.3125 149.457031 129.078125 149.179688 130.882812 C 148.636719 134.433594 148.007812 137.933594 147.363281 141.34375 C 145.320312 141.257812 143.261719 141.230469 141.210938 141.261719 C 138.609375 141.304688 136.007812 141.433594 133.445312 141.628906 C 132.71875 141.683594 132.011719 141.804688 131.300781 141.90625 C 131.976562 138.34375 132.640625 134.671875 133.210938 130.945312 C 133.488281 129.152344 133.695312 127.398438 133.921875 125.636719 C 136.335938 125.457031 138.773438 125.335938 141.21875 125.296875 Z M 0 144.496094 L 0 144.914062 C 0.472656 145.007812 0.984375 145.097656 1.464844 145.191406 L 3.660156 145.191406 C 2.433594 144.957031 1.179688 144.730469 0 144.496094 Z M 0 144.496094 " fill-opacity="1" fill-rule="nonzero"/></g><g clip-path="url(#0bea941074)"><path fill="#ffffff" d="M 16.394531 44.042969 L 77.5 44.042969 L 77.5 90.34375 L 16.394531 90.34375 Z M 16.394531 44.042969 " fill-opacity="1" fill-rule="nonzero"/><path fill="#ffffff" d="M 16.394531 44.042969 L 77.5 44.042969 L 77.5 90.34375 L 16.394531 90.34375 Z M 16.394531 44.042969 " fill-opacity="1" fill-rule="nonzero"/></g><g clip-path="url(#05405201e6)"><path stroke-linecap="butt" transform="matrix(0.969894, 0, 0, 0.964662, 11.000806, 44.041201)" fill="none" stroke-linejoin="miter" d="M -0.000831292 1.002021 L 74.12532 1.002021 " stroke="#000000" stroke-width="2" stroke-opacity="1" stroke-miterlimit="4"/></g><g clip-path="url(#beae224be2)"><path stroke-linecap="butt" transform="matrix(0.969894, 0, 0, 0.964662, 14.686403, 88.415648)" fill="none" stroke-linejoin="miter" d="M 0.00113055 0.998545 L 74.123254 0.998545 " stroke="#000000" stroke-width="2" stroke-opacity="1" stroke-miterlimit="4"/></g><g clip-path="url(#e66331ae4e)"><path stroke-linecap="butt" transform="matrix(0, 0.964662, -0.969894, 0, 18.335934, 45.005864)" fill="none" stroke-linejoin="miter" d="M 0.00202008 0.998816 L 48.00295 0.998816 " stroke="#000000" stroke-width="2" stroke-opacity="1" stroke-miterlimit="4"/></g><g clip-path="url(#f1ed117242)"><path stroke-linecap="butt" transform="matrix(0, 0.964662, -0.969894, 0, 77.499466, 45.005864)" fill="none" stroke-linejoin="miter" d="M 0.00202008 1.002297 L 48.00295 1.002297 " stroke="#000000" stroke-width="2" stroke-opacity="1" stroke-miterlimit="4"/></g><g clip-path="url(#45fa8f54b4)"><path fill="#000000" d="M 52.101562 60.058594 C 51.601562 59.367188 50.910156 58.839844 50.027344 58.480469 C 49.15625 58.117188 48.144531 57.933594 46.996094 57.933594 C 45.953125 57.933594 45.003906 58.113281 44.140625 58.46875 C 43.285156 58.824219 42.589844 59.371094 42.0625 60.09375 C 41.648438 60.667969 41.390625 61.367188 41.285156 62.1875 C 41.238281 62.539062 41.53125 62.851562 41.902344 62.851562 L 44.207031 62.851562 C 44.503906 62.851562 44.753906 62.652344 44.816406 62.371094 C 44.875 62.125 44.972656 61.902344 45.101562 61.710938 C 45.316406 61.402344 45.589844 61.167969 45.921875 61.007812 C 46.253906 60.855469 46.605469 60.773438 46.980469 60.773438 C 47.371094 60.773438 47.71875 60.847656 48.039062 61.007812 C 48.355469 61.160156 48.609375 61.386719 48.804688 61.675781 C 48.992188 61.964844 49.089844 62.300781 49.089844 62.683594 C 49.089844 63.042969 49 63.375 48.835938 63.664062 C 48.667969 63.953125 48.445312 64.222656 48.164062 64.460938 C 47.878906 64.703125 47.566406 64.929688 47.210938 65.152344 C 46.730469 65.441406 46.320312 65.761719 45.984375 66.117188 C 45.648438 66.472656 45.390625 66.9375 45.210938 67.515625 C 45.039062 68.097656 44.945312 68.867188 44.941406 69.839844 L 44.941406 70.324219 C 44.941406 70.65625 45.222656 70.929688 45.5625 70.929688 L 47.59375 70.929688 C 47.9375 70.929688 48.214844 70.660156 48.214844 70.324219 L 48.214844 69.839844 C 48.222656 69.296875 48.292969 68.839844 48.433594 68.464844 C 48.574219 68.097656 48.792969 67.769531 49.078125 67.484375 C 49.371094 67.199219 49.742188 66.933594 50.195312 66.667969 C 50.738281 66.355469 51.207031 66.007812 51.601562 65.621094 C 51.996094 65.234375 52.308594 64.789062 52.53125 64.285156 C 52.753906 63.78125 52.867188 63.203125 52.867188 62.554688 C 52.851562 61.578125 52.597656 60.746094 52.101562 60.058594 Z M 52.101562 60.058594 " fill-opacity="1" fill-rule="nonzero"/></g><g clip-path="url(#d236ae4b94)"><path fill="#000000" d="M 46.644531 72.277344 C 46.066406 72.277344 45.574219 72.46875 45.167969 72.859375 C 44.765625 73.246094 44.5625 73.71875 44.570312 74.261719 C 44.5625 74.808594 44.765625 75.28125 45.167969 75.675781 C 45.574219 76.066406 46.066406 76.257812 46.644531 76.257812 C 47.007812 76.257812 47.351562 76.171875 47.65625 75.988281 C 47.96875 75.804688 48.214844 75.566406 48.414062 75.261719 C 48.605469 74.957031 48.703125 74.625 48.710938 74.261719 C 48.699219 73.710938 48.492188 73.246094 48.078125 72.859375 C 47.667969 72.46875 47.1875 72.277344 46.644531 72.277344 Z M 46.644531 72.277344 " fill-opacity="1" fill-rule="nonzero"/></g></svg>