<svg xmlns="http://www.w3.org/2000/svg" xmlns:xlink="http://www.w3.org/1999/xlink" width="343" zoomAndPan="magnify" viewBox="0 0 257.25 186.749995" height="249" preserveAspectRatio="xMidYMid meet" version="1.0"><defs><clipPath id="c11f4f189c"><path d="M 0 0.148438 L 3 0.148438 L 3 186.355469 L 0 186.355469 Z M 0 0.148438 " clip-rule="nonzero"/></clipPath><clipPath id="f268e76b1e"><path d="M 80 0.148438 L 84 0.148438 L 84 186.355469 L 80 186.355469 Z M 80 0.148438 " clip-rule="nonzero"/></clipPath><clipPath id="6d8b5a91cd"><path d="M 164 0.148438 L 168 0.148438 L 168 186.355469 L 164 186.355469 Z M 164 0.148438 " clip-rule="nonzero"/></clipPath><clipPath id="9a13a13328"><path d="M 253 0.148438 L 256.503906 0.148438 L 256.503906 186.355469 L 253 186.355469 Z M 253 0.148438 " clip-rule="nonzero"/></clipPath><clipPath id="08f65337c5"><path d="M 0 60 L 256.503906 60 L 256.503906 64 L 0 64 Z M 0 60 " clip-rule="nonzero"/></clipPath><clipPath id="45a995d0a6"><path d="M 0 125 L 256.503906 125 L 256.503906 129 L 0 129 Z M 0 125 " clip-rule="nonzero"/></clipPath><clipPath id="5633d530c3"><path d="M 0 183 L 256.503906 183 L 256.503906 186.355469 L 0 186.355469 Z M 0 183 " clip-rule="nonzero"/></clipPath><clipPath id="735e71d145"><path d="M 0 0.148438 L 256.503906 0.148438 L 256.503906 4 L 0 4 Z M 0 0.148438 " clip-rule="nonzero"/></clipPath><clipPath id="57fb80b598"><path d="M 19.707031 9.632812 L 63.828125 9.632812 L 63.828125 53.753906 L 19.707031 53.753906 Z M 19.707031 9.632812 " clip-rule="nonzero"/></clipPath><clipPath id="df3a473e7d"><path d="M 101.777344 9.632812 L 145.898438 9.632812 L 145.898438 53.753906 L 101.777344 53.753906 Z M 101.777344 9.632812 " clip-rule="nonzero"/></clipPath><clipPath id="7b73db66da"><path d="M 188.386719 9.632812 L 232.507812 9.632812 L 232.507812 53.753906 L 188.386719 53.753906 Z M 188.386719 9.632812 " clip-rule="nonzero"/></clipPath><clipPath id="edf3a0377a"><path d="M 19.707031 72.550781 L 63.828125 72.550781 L 63.828125 116.671875 L 19.707031 116.671875 Z M 19.707031 72.550781 " clip-rule="nonzero"/></clipPath><clipPath id="6357d9959c"><path d="M 101.777344 72.550781 L 145.898438 72.550781 L 145.898438 116.671875 L 101.777344 116.671875 Z M 101.777344 72.550781 " clip-rule="nonzero"/></clipPath><clipPath id="722662253b"><path d="M 188.386719 72.550781 L 232.507812 72.550781 L 232.507812 116.671875 L 188.386719 116.671875 Z M 188.386719 72.550781 " clip-rule="nonzero"/></clipPath><clipPath id="21131f1ac0"><path d="M 18.621094 134.175781 L 62.742188 134.175781 L 62.742188 178.296875 L 18.621094 178.296875 Z M 18.621094 134.175781 " clip-rule="nonzero"/></clipPath><clipPath id="427d3c0b4d"><path d="M 101.777344 134.175781 L 145.898438 134.175781 L 145.898438 178.296875 L 101.777344 178.296875 Z M 101.777344 134.175781 " clip-rule="nonzero"/></clipPath><clipPath id="fd725a8382"><path d="M 189.421875 138.480469 L 234.53125 138.480469 L 234.53125 173.222656 L 189.421875 173.222656 Z M 189.421875 138.480469 " clip-rule="nonzero"/></clipPath><clipPath id="0ea436f5b4"><path d="M 189.421875 138.480469 L 234.53125 138.480469 L 234.53125 140 L 189.421875 140 Z M 189.421875 138.480469 " clip-rule="nonzero"/></clipPath><clipPath id="6cd956fc9b"><path d="M 189.421875 171.210938 L 234.53125 171.210938 L 234.53125 173.222656 L 189.421875 173.222656 Z M 189.421875 171.210938 " clip-rule="nonzero"/></clipPath><clipPath id="f9d70a36ad"><path d="M 189.421875 138.480469 L 191 138.480469 L 191 173.222656 L 189.421875 173.222656 Z M 189.421875 138.480469 " clip-rule="nonzero"/></clipPath><clipPath id="1f2eb5773a"><path d="M 233 138.480469 L 234.53125 138.480469 L 234.53125 173.222656 L 233 173.222656 Z M 233 138.480469 " clip-rule="nonzero"/></clipPath><clipPath id="d004b1281a"><path d="M 207.757812 148.902344 L 216.351562 148.902344 L 216.351562 159 L 207.757812 159 Z M 207.757812 148.902344 " clip-rule="nonzero"/></clipPath><clipPath id="5656a00d95"><path d="M 210 159.308594 L 213.683594 159.308594 L 213.683594 162.652344 L 210 162.652344 Z M 210 159.308594 " clip-rule="nonzero"/></clipPath><clipPath id="d53a4c2568"><path d="M 15.945312 5.871094 L 25.667969 5.871094 L 25.667969 15.59375 L 15.945312 15.59375 Z M 15.945312 5.871094 " clip-rule="nonzero"/></clipPath><clipPath id="5103337c5f"><path d="M 16.445312 49.363281 L 24.671875 49.363281 L 24.671875 57.589844 L 16.445312 57.589844 Z M 16.445312 49.363281 " clip-rule="nonzero"/></clipPath><clipPath id="aed4c8910d"><path d="M 139.554688 6.871094 L 147.777344 6.871094 L 147.777344 15.097656 L 139.554688 15.097656 Z M 139.554688 6.871094 " clip-rule="nonzero"/></clipPath><clipPath id="ea77faf1c1"><path d="M 185.832031 6.371094 L 194.058594 6.371094 L 194.058594 14.597656 L 185.832031 14.597656 Z M 185.832031 6.371094 " clip-rule="nonzero"/></clipPath><clipPath id="99f1a76e5a"><path d="M 59.4375 69.835938 L 67.664062 69.835938 L 67.664062 78.0625 L 59.4375 78.0625 Z M 59.4375 69.835938 " clip-rule="nonzero"/></clipPath><clipPath id="54259eda07"><path d="M 59.4375 110.328125 L 67.664062 110.328125 L 67.664062 118.554688 L 59.4375 118.554688 Z M 59.4375 110.328125 " clip-rule="nonzero"/></clipPath><clipPath id="0f2998284b"><path d="M 99.851562 69.835938 L 108.078125 69.835938 L 108.078125 78.0625 L 99.851562 78.0625 Z M 99.851562 69.835938 " clip-rule="nonzero"/></clipPath><clipPath id="fa93e6e2c1"><path d="M 227.164062 69.835938 L 235.390625 69.835938 L 235.390625 78.0625 L 227.164062 78.0625 Z M 227.164062 69.835938 " clip-rule="nonzero"/></clipPath><clipPath id="b7a1ba9f94"><path d="M 99.851562 131.734375 L 108.078125 131.734375 L 108.078125 139.960938 L 99.851562 139.960938 Z M 99.851562 131.734375 " clip-rule="nonzero"/></clipPath><clipPath id="e96683dda1"><path d="M 139.554688 131.734375 L 147.777344 131.734375 L 147.777344 139.960938 L 139.554688 139.960938 Z M 139.554688 131.734375 " clip-rule="nonzero"/></clipPath></defs><g clip-path="url(#c11f4f189c)"><path stroke-linecap="butt" transform="matrix(0, -0.74782, 0.74782, 0, -0.00297822, 191.88746)" fill="none" stroke-linejoin="miter" d="M 0.000990604 1.999366 L 253.90054 1.999366 " stroke="#000000" stroke-width="4" stroke-opacity="1" stroke-miterlimit="4"/></g><g clip-path="url(#f268e76b1e)"><path stroke-linecap="butt" transform="matrix(0, -0.74782, 0.74782, 0, 80.404219, 190.014199)" fill="none" stroke-linejoin="miter" d="M -0.00190738 1.9981 L 253.897642 1.9981 " stroke="#000000" stroke-width="4" stroke-opacity="1" stroke-miterlimit="4"/></g><g clip-path="url(#6d8b5a91cd)"><path stroke-linecap="butt" transform="matrix(0, -0.74782, 0.74782, 0, 164.143453, 188.182567)" fill="none" stroke-linejoin="miter" d="M -0.00137335 2.00205 L 253.898176 2.00205 " stroke="#000000" stroke-width="4" stroke-opacity="1" stroke-miterlimit="4"/></g><g clip-path="url(#9a13a13328)"><path stroke-linecap="butt" transform="matrix(0, -0.74782, 0.74782, 0, 253.62248, 191.509838)" fill="none" stroke-linejoin="miter" d="M -0.00251485 1.998754 L 253.897034 1.998754 " stroke="#000000" stroke-width="4" stroke-opacity="1" stroke-miterlimit="4"/></g><g clip-path="url(#08f65337c5)"><path stroke-linecap="butt" transform="matrix(0.74782, 0.000000000000000029, -0.000000000000000029, 0.74782, -9.091193, 60.113854)" fill="none" stroke-linejoin="miter" d="M 0.00180436 1.999841 L 360.957359 1.999841 " stroke="#000000" stroke-width="4" stroke-opacity="1" stroke-miterlimit="4"/></g><g clip-path="url(#45a995d0a6)"><path stroke-linecap="butt" transform="matrix(0.74782, 0, 0, 0.74782, -15.373313, 125.981857)" fill="none" stroke-linejoin="miter" d="M -0.0022553 1.998751 L 375.312751 1.998751 " stroke="#000000" stroke-width="4" stroke-opacity="1" stroke-miterlimit="4"/></g><g clip-path="url(#5633d530c3)"><path stroke-linecap="butt" transform="matrix(0.74782, 0, 0, 0.74782, 0, 183.362635)" fill="none" stroke-linejoin="miter" d="M 0 2.001471 L 375.315006 2.001471 " stroke="#000000" stroke-width="4" stroke-opacity="1" stroke-miterlimit="4"/></g><g clip-path="url(#735e71d145)"><path stroke-linecap="butt" transform="matrix(0.74782, 0, 0, 0.74782, -9.091193, 0.1468)" fill="none" stroke-linejoin="miter" d="M 0.00180436 1.997574 L 375.311587 1.997574 " stroke="#000000" stroke-width="4" stroke-opacity="1" stroke-miterlimit="4"/></g><g clip-path="url(#57fb80b598)"><path stroke-linecap="round" transform="matrix(1.161088, 0, 0, 1.161088, 13.900137, 3.826866)" fill="none" stroke-linejoin="round" d="M 40.501344 5.49835 L 7.500925 5.49835 C 7.235146 5.49835 6.979459 5.552179 6.733865 5.653108 C 6.488271 5.754037 6.272956 5.898702 6.084555 6.087103 C 5.899519 6.272139 5.754854 6.490819 5.65056 6.733048 C 5.549631 6.978642 5.499167 7.234329 5.499167 7.500109 L 5.499167 40.500527 C 5.499167 40.766307 5.549631 41.021994 5.65056 41.264223 C 5.754854 41.509817 5.899519 41.725133 6.084555 41.913533 C 6.272956 42.101934 6.488271 42.246599 6.733865 42.347528 C 6.979459 42.448457 7.235146 42.498922 7.500925 42.498922 L 40.501344 42.498922 C 40.763759 42.498922 41.019446 42.448457 41.26504 42.347528 C 41.510634 42.246599 41.725949 42.101934 41.91435 41.913533 C 42.102751 41.725133 42.247416 41.509817 42.348345 41.264223 C 42.449274 41.021994 42.499738 40.766307 42.499738 40.500527 L 42.499738 7.500109 C 42.499738 7.234329 42.449274 6.978642 42.348345 6.733048 C 42.247416 6.490819 42.102751 6.272139 41.91435 6.087103 C 41.725949 5.898702 41.510634 5.754037 41.26504 5.653108 C 41.019446 5.552179 40.763759 5.49835 40.501344 5.49835 Z M 40.501344 5.49835 " stroke="#000000" stroke-width="1" stroke-opacity="1" stroke-miterlimit="4"/></g><g clip-path="url(#df3a473e7d)"><path stroke-linecap="round" transform="matrix(1.161088, 0, 0, 1.161088, 95.973352, 3.826866)" fill="none" stroke-linejoin="round" d="M 40.498844 5.49835 L 7.498426 5.49835 C 7.23601 5.49835 6.980323 5.552179 6.734729 5.653108 C 6.489136 5.754037 6.27382 5.898702 6.08542 6.087103 C 5.897019 6.272139 5.752354 6.490819 5.651425 6.733048 C 5.550496 6.978642 5.500031 7.234329 5.500031 7.500109 L 5.500031 40.500527 C 5.500031 40.766307 5.550496 41.021994 5.651425 41.264223 C 5.752354 41.509817 5.897019 41.725133 6.08542 41.913533 C 6.27382 42.101934 6.489136 42.246599 6.734729 42.347528 C 6.980323 42.448457 7.23601 42.498922 7.498426 42.498922 L 40.498844 42.498922 C 40.764624 42.498922 41.020311 42.448457 41.265904 42.347528 C 41.511498 42.246599 41.726814 42.101934 41.915214 41.913533 C 42.100251 41.725133 42.244916 41.509817 42.349209 41.264223 C 42.450138 41.021994 42.500603 40.766307 42.500603 40.500527 L 42.500603 7.500109 C 42.500603 7.234329 42.450138 6.978642 42.349209 6.733048 C 42.244916 6.490819 42.100251 6.272139 41.915214 6.087103 C 41.726814 5.898702 41.511498 5.754037 41.265904 5.653108 C 41.020311 5.552179 40.764624 5.49835 40.498844 5.49835 Z M 40.498844 5.49835 " stroke="#000000" stroke-width="1" stroke-opacity="1" stroke-miterlimit="4"/></g><g clip-path="url(#7b73db66da)"><path stroke-linecap="round" transform="matrix(1.161088, 0, 0, 1.161088, 182.582481, 3.826866)" fill="none" stroke-linejoin="round" d="M 40.499056 5.49835 L 7.498637 5.49835 C 7.236222 5.49835 6.980535 5.552179 6.734941 5.653108 C 6.489347 5.754037 6.274032 5.898702 6.085631 6.087103 C 5.89723 6.272139 5.752566 6.490819 5.651637 6.733048 C 5.550708 6.978642 5.500243 7.234329 5.500243 7.500109 L 5.500243 40.500527 C 5.500243 40.766307 5.550708 41.021994 5.651637 41.264223 C 5.752566 41.509817 5.89723 41.725133 6.085631 41.913533 C 6.274032 42.101934 6.489347 42.246599 6.734941 42.347528 C 6.980535 42.448457 7.236222 42.498922 7.498637 42.498922 L 40.499056 42.498922 C 40.764835 42.498922 41.020522 42.448457 41.266116 42.347528 C 41.51171 42.246599 41.727025 42.101934 41.915426 41.913533 C 42.100463 41.725133 42.245127 41.509817 42.349421 41.264223 C 42.45035 41.021994 42.500814 40.766307 42.500814 40.500527 L 42.500814 7.500109 C 42.500814 7.234329 42.45035 6.978642 42.349421 6.733048 C 42.245127 6.490819 42.100463 6.272139 41.915426 6.087103 C 41.727025 5.898702 41.51171 5.754037 41.266116 5.653108 C 41.020522 5.552179 40.764835 5.49835 40.499056 5.49835 Z M 40.499056 5.49835 " stroke="#000000" stroke-width="1" stroke-opacity="1" stroke-miterlimit="4"/></g><g clip-path="url(#edf3a0377a)"><path stroke-linecap="round" transform="matrix(1.161088, 0, 0, 1.161088, 13.900137, 66.744397)" fill="none" stroke-linejoin="round" d="M 40.501344 5.498727 L 7.500925 5.498727 C 7.235146 5.498727 6.979459 5.549192 6.733865 5.653485 C 6.488271 5.754414 6.272956 5.899079 6.084555 6.084115 C 5.899519 6.272516 5.754854 6.491196 5.65056 6.733425 C 5.549631 6.979019 5.499167 7.234706 5.499167 7.500486 L 5.499167 40.500904 C 5.499167 40.766684 5.549631 41.019006 5.65056 41.2646 C 5.754854 41.510194 5.899519 41.725509 6.084555 41.91391 C 6.272956 42.102311 6.488271 42.246976 6.733865 42.347905 C 6.979459 42.448834 7.235146 42.499298 7.500925 42.499298 L 40.501344 42.499298 C 40.763759 42.499298 41.019446 42.448834 41.26504 42.347905 C 41.510634 42.246976 41.725949 42.102311 41.91435 41.91391 C 42.102751 41.725509 42.247416 41.510194 42.348345 41.2646 C 42.449274 41.019006 42.499738 40.766684 42.499738 40.500904 L 42.499738 7.500486 C 42.499738 7.234706 42.449274 6.979019 42.348345 6.733425 C 42.247416 6.491196 42.102751 6.272516 41.91435 6.084115 C 41.725949 5.899079 41.510634 5.754414 41.26504 5.653485 C 41.019446 5.549192 40.763759 5.498727 40.501344 5.498727 Z M 40.501344 5.498727 " stroke="#000000" stroke-width="1" stroke-opacity="1" stroke-miterlimit="4"/></g><g clip-path="url(#6357d9959c)"><path stroke-linecap="round" transform="matrix(1.161088, 0, 0, 1.161088, 95.973352, 66.744397)" fill="none" stroke-linejoin="round" d="M 40.498844 5.498727 L 7.498426 5.498727 C 7.23601 5.498727 6.980323 5.549192 6.734729 5.653485 C 6.489136 5.754414 6.27382 5.899079 6.08542 6.084115 C 5.897019 6.272516 5.752354 6.491196 5.651425 6.733425 C 5.550496 6.979019 5.500031 7.234706 5.500031 7.500486 L 5.500031 40.500904 C 5.500031 40.766684 5.550496 41.019006 5.651425 41.2646 C 5.752354 41.510194 5.897019 41.725509 6.08542 41.91391 C 6.27382 42.102311 6.489136 42.246976 6.734729 42.347905 C 6.980323 42.448834 7.23601 42.499298 7.498426 42.499298 L 40.498844 42.499298 C 40.764624 42.499298 41.020311 42.448834 41.265904 42.347905 C 41.511498 42.246976 41.726814 42.102311 41.915214 41.91391 C 42.100251 41.725509 42.244916 41.510194 42.349209 41.2646 C 42.450138 41.019006 42.500603 40.766684 42.500603 40.500904 L 42.500603 7.500486 C 42.500603 7.234706 42.450138 6.979019 42.349209 6.733425 C 42.244916 6.491196 42.100251 6.272516 41.915214 6.084115 C 41.726814 5.899079 41.511498 5.754414 41.265904 5.653485 C 41.020311 5.549192 40.764624 5.498727 40.498844 5.498727 Z M 40.498844 5.498727 " stroke="#000000" stroke-width="1" stroke-opacity="1" stroke-miterlimit="4"/></g><g clip-path="url(#722662253b)"><path stroke-linecap="round" transform="matrix(1.161088, 0, 0, 1.161088, 182.582481, 66.744397)" fill="none" stroke-linejoin="round" d="M 40.499056 5.498727 L 7.498637 5.498727 C 7.236222 5.498727 6.980535 5.549192 6.734941 5.653485 C 6.489347 5.754414 6.274032 5.899079 6.085631 6.084115 C 5.89723 6.272516 5.752566 6.491196 5.651637 6.733425 C 5.550708 6.979019 5.500243 7.234706 5.500243 7.500486 L 5.500243 40.500904 C 5.500243 40.766684 5.550708 41.019006 5.651637 41.2646 C 5.752566 41.510194 5.89723 41.725509 6.085631 41.91391 C 6.274032 42.102311 6.489347 42.246976 6.734941 42.347905 C 6.980535 42.448834 7.236222 42.499298 7.498637 42.499298 L 40.499056 42.499298 C 40.764835 42.499298 41.020522 42.448834 41.266116 42.347905 C 41.51171 42.246976 41.727025 42.102311 41.915426 41.91391 C 42.100463 41.725509 42.245127 41.510194 42.349421 41.2646 C 42.45035 41.019006 42.500814 40.766684 42.500814 40.500904 L 42.500814 7.500486 C 42.500814 7.234706 42.45035 6.979019 42.349421 6.733425 C 42.245127 6.491196 42.100463 6.272516 41.915426 6.084115 C 41.727025 5.899079 41.51171 5.754414 41.266116 5.653485 C 41.020522 5.549192 40.764835 5.498727 40.499056 5.498727 Z M 40.499056 5.498727 " stroke="#000000" stroke-width="1" stroke-opacity="1" stroke-miterlimit="4"/></g><g clip-path="url(#21131f1ac0)"><path stroke-linecap="round" transform="matrix(1.161088, 0, 0, 1.161088, 12.815269, 128.368776)" fill="none" stroke-linejoin="round" d="M 40.500423 5.499262 L 7.500004 5.499262 C 7.234225 5.499262 6.978538 5.549727 6.736308 5.650656 C 6.490714 5.754949 6.272035 5.899614 6.086998 6.084651 C 5.898598 6.273051 5.753933 6.488367 5.653004 6.733961 C 5.552075 6.979554 5.50161 7.235241 5.50161 7.501021 L 5.50161 40.501439 C 5.50161 40.763855 5.552075 41.019542 5.653004 41.265136 C 5.753933 41.510729 5.898598 41.726045 6.086998 41.914445 C 6.272035 42.102846 6.490714 42.247511 6.736308 42.34844 C 6.978538 42.449369 7.234225 42.499834 7.500004 42.499834 L 40.500423 42.499834 C 40.766203 42.499834 41.02189 42.449369 41.264119 42.34844 C 41.509713 42.247511 41.725028 42.102846 41.913429 41.914445 C 42.10183 41.726045 42.246495 41.510729 42.347424 41.265136 C 42.448353 41.019542 42.498817 40.763855 42.498817 40.501439 L 42.498817 7.501021 C 42.498817 7.235241 42.448353 6.979554 42.347424 6.733961 C 42.246495 6.488367 42.10183 6.273051 41.913429 6.084651 C 41.725028 5.899614 41.509713 5.754949 41.264119 5.650656 C 41.02189 5.549727 40.766203 5.499262 40.500423 5.499262 Z M 40.500423 5.499262 " stroke="#000000" stroke-width="1" stroke-opacity="1" stroke-miterlimit="4"/></g><g clip-path="url(#427d3c0b4d)"><path stroke-linecap="round" transform="matrix(1.161088, 0, 0, 1.161088, 95.973352, 128.368776)" fill="none" stroke-linejoin="round" d="M 40.498844 5.499262 L 7.498426 5.499262 C 7.23601 5.499262 6.980323 5.549727 6.734729 5.650656 C 6.489136 5.754949 6.27382 5.899614 6.08542 6.084651 C 5.897019 6.273051 5.752354 6.488367 5.651425 6.733961 C 5.550496 6.979554 5.500031 7.235241 5.500031 7.501021 L 5.500031 40.501439 C 5.500031 40.763855 5.550496 41.019542 5.651425 41.265136 C 5.752354 41.510729 5.897019 41.726045 6.08542 41.914445 C 6.27382 42.102846 6.489136 42.247511 6.734729 42.34844 C 6.980323 42.449369 7.23601 42.499834 7.498426 42.499834 L 40.498844 42.499834 C 40.764624 42.499834 41.020311 42.449369 41.265904 42.34844 C 41.511498 42.247511 41.726814 42.102846 41.915214 41.914445 C 42.100251 41.726045 42.244916 41.510729 42.349209 41.265136 C 42.450138 41.019542 42.500603 40.763855 42.500603 40.501439 L 42.500603 7.501021 C 42.500603 7.235241 42.450138 6.979554 42.349209 6.733961 C 42.244916 6.488367 42.100251 6.273051 41.915214 6.084651 C 41.726814 5.899614 41.511498 5.754949 41.265904 5.650656 C 41.020311 5.549727 40.764624 5.499262 40.498844 5.499262 Z M 40.498844 5.499262 " stroke="#000000" stroke-width="1" stroke-opacity="1" stroke-miterlimit="4"/></g><g clip-path="url(#fd725a8382)"><path fill="#ffffff" d="M 189.421875 138.480469 L 234.53125 138.480469 L 234.53125 173.222656 L 189.421875 173.222656 Z M 189.421875 138.480469 " fill-opacity="1" fill-rule="nonzero"/><path fill="#ffffff" d="M 189.421875 138.480469 L 234.53125 138.480469 L 234.53125 173.222656 L 189.421875 173.222656 Z M 189.421875 138.480469 " fill-opacity="1" fill-rule="nonzero"/></g><g clip-path="url(#0ea436f5b4)"><path stroke-linecap="butt" transform="matrix(0.716059, 0, 0, 0.723824, 185.438511, 138.479153)" fill="none" stroke-linejoin="miter" d="M -0.00141216 1.000204 L 74.123906 1.000204 " stroke="#000000" stroke-width="2" stroke-opacity="1" stroke-miterlimit="4"/></g><g clip-path="url(#6cd956fc9b)"><path stroke-linecap="butt" transform="matrix(0.716059, 0, 0, 0.723824, 188.159536, 171.775067)" fill="none" stroke-linejoin="miter" d="M 0.000865557 1.001532 L 74.126184 1.001532 " stroke="#000000" stroke-width="2" stroke-opacity="1" stroke-miterlimit="4"/></g><g clip-path="url(#f9d70a36ad)"><path stroke-linecap="butt" transform="matrix(0, 0.723824, -0.716059, 0, 190.853923, 139.202975)" fill="none" stroke-linejoin="miter" d="M 0.000206922 1.001598 L 48.003686 1.001598 " stroke="#000000" stroke-width="2" stroke-opacity="1" stroke-miterlimit="4"/></g><g clip-path="url(#1f2eb5773a)"><path stroke-linecap="butt" transform="matrix(0, 0.723824, -0.716059, 0, 234.533533, 139.202975)" fill="none" stroke-linejoin="miter" d="M 0.000206922 1.00149 L 48.003686 1.00149 " stroke="#000000" stroke-width="2" stroke-opacity="1" stroke-miterlimit="4"/></g><g clip-path="url(#d004b1281a)"><path fill="#000000" d="M 215.78125 150.5 C 215.414062 149.980469 214.902344 149.582031 214.253906 149.3125 C 213.609375 149.042969 212.859375 148.902344 212.015625 148.902344 C 211.242188 148.902344 210.542969 149.039062 209.90625 149.304688 C 209.273438 149.570312 208.757812 149.984375 208.371094 150.527344 C 208.066406 150.957031 207.875 151.480469 207.796875 152.09375 C 207.761719 152.359375 207.976562 152.59375 208.253906 152.59375 L 209.957031 152.59375 C 210.175781 152.59375 210.359375 152.441406 210.402344 152.234375 C 210.445312 152.046875 210.519531 151.882812 210.613281 151.738281 C 210.773438 151.503906 210.976562 151.332031 211.21875 151.210938 C 211.464844 151.09375 211.726562 151.03125 212.003906 151.03125 C 212.289062 151.03125 212.546875 151.089844 212.785156 151.210938 C 213.019531 151.324219 213.207031 151.492188 213.347656 151.710938 C 213.484375 151.929688 213.558594 152.179688 213.558594 152.464844 C 213.558594 152.738281 213.492188 152.984375 213.371094 153.203125 C 213.246094 153.417969 213.082031 153.621094 212.875 153.800781 C 212.664062 153.980469 212.433594 154.152344 212.171875 154.320312 C 211.816406 154.535156 211.515625 154.777344 211.265625 155.042969 C 211.015625 155.3125 210.828125 155.660156 210.695312 156.09375 C 210.570312 156.53125 210.5 157.109375 210.496094 157.835938 L 210.496094 158.199219 C 210.496094 158.449219 210.703125 158.65625 210.957031 158.65625 L 212.453125 158.65625 C 212.707031 158.65625 212.914062 158.453125 212.914062 158.199219 L 212.914062 157.835938 C 212.917969 157.429688 212.972656 157.085938 213.074219 156.804688 C 213.179688 156.53125 213.339844 156.28125 213.550781 156.070312 C 213.765625 155.855469 214.042969 155.65625 214.375 155.457031 C 214.777344 155.222656 215.121094 154.960938 215.414062 154.671875 C 215.703125 154.378906 215.933594 154.046875 216.101562 153.667969 C 216.265625 153.292969 216.347656 152.859375 216.347656 152.371094 C 216.335938 151.636719 216.148438 151.011719 215.78125 150.5 Z M 215.78125 150.5 " fill-opacity="1" fill-rule="nonzero"/></g><g clip-path="url(#5656a00d95)"><path fill="#000000" d="M 211.753906 159.664062 C 211.328125 159.664062 210.964844 159.808594 210.664062 160.101562 C 210.367188 160.394531 210.214844 160.746094 210.222656 161.152344 C 210.214844 161.5625 210.367188 161.921875 210.664062 162.214844 C 210.964844 162.507812 211.328125 162.652344 211.753906 162.652344 C 212.019531 162.652344 212.273438 162.585938 212.5 162.453125 C 212.730469 162.3125 212.914062 162.132812 213.058594 161.90625 C 213.203125 161.675781 213.273438 161.429688 213.277344 161.152344 C 213.269531 160.742188 213.117188 160.394531 212.8125 160.101562 C 212.507812 159.808594 212.15625 159.664062 211.753906 159.664062 Z M 211.753906 159.664062 " fill-opacity="1" fill-rule="nonzero"/></g><g clip-path="url(#d53a4c2568)"><path fill="#000000" d="M 25.667969 10.734375 C 25.667969 11.050781 25.636719 11.367188 25.574219 11.679688 C 25.511719 11.996094 25.417969 12.296875 25.296875 12.59375 C 25.175781 12.886719 25.027344 13.167969 24.847656 13.433594 C 24.671875 13.699219 24.46875 13.945312 24.242188 14.171875 C 24.019531 14.394531 23.773438 14.597656 23.507812 14.773438 C 23.242188 14.953125 22.960938 15.101562 22.667969 15.222656 C 22.371094 15.347656 22.066406 15.4375 21.753906 15.5 C 21.441406 15.5625 21.125 15.59375 20.804688 15.59375 C 20.488281 15.59375 20.171875 15.5625 19.859375 15.5 C 19.546875 15.4375 19.242188 15.347656 18.945312 15.222656 C 18.652344 15.101562 18.371094 14.953125 18.105469 14.773438 C 17.839844 14.597656 17.59375 14.394531 17.371094 14.171875 C 17.144531 13.945312 16.941406 13.699219 16.765625 13.433594 C 16.585938 13.167969 16.4375 12.886719 16.316406 12.59375 C 16.195312 12.296875 16.101562 11.996094 16.039062 11.679688 C 15.976562 11.367188 15.945312 11.050781 15.945312 10.734375 C 15.945312 10.414062 15.976562 10.097656 16.039062 9.785156 C 16.101562 9.472656 16.195312 9.167969 16.316406 8.871094 C 16.4375 8.578125 16.585938 8.296875 16.765625 8.03125 C 16.941406 7.765625 17.144531 7.523438 17.371094 7.296875 C 17.59375 7.070312 17.839844 6.867188 18.105469 6.691406 C 18.371094 6.515625 18.652344 6.363281 18.945312 6.242188 C 19.242188 6.121094 19.546875 6.027344 19.859375 5.964844 C 20.171875 5.902344 20.488281 5.871094 20.804688 5.871094 C 21.125 5.871094 21.441406 5.902344 21.753906 5.964844 C 22.066406 6.027344 22.371094 6.121094 22.667969 6.242188 C 22.960938 6.363281 23.242188 6.515625 23.507812 6.691406 C 23.773438 6.867188 24.019531 7.070312 24.242188 7.296875 C 24.46875 7.523438 24.671875 7.765625 24.847656 8.03125 C 25.027344 8.296875 25.175781 8.578125 25.296875 8.871094 C 25.417969 9.167969 25.511719 9.472656 25.574219 9.785156 C 25.636719 10.097656 25.667969 10.414062 25.667969 10.734375 Z M 25.667969 10.734375 " fill-opacity="1" fill-rule="nonzero"/></g><g clip-path="url(#5103337c5f)"><path fill="#000000" d="M 24.671875 53.476562 C 24.671875 53.746094 24.644531 54.015625 24.59375 54.277344 C 24.539062 54.542969 24.460938 54.800781 24.359375 55.050781 C 24.253906 55.300781 24.128906 55.535156 23.976562 55.761719 C 23.828125 55.984375 23.65625 56.195312 23.464844 56.382812 C 23.273438 56.574219 23.066406 56.746094 22.84375 56.894531 C 22.617188 57.046875 22.382812 57.171875 22.132812 57.277344 C 21.882812 57.378906 21.625 57.457031 21.359375 57.511719 C 21.09375 57.5625 20.828125 57.589844 20.558594 57.589844 C 20.289062 57.589844 20.019531 57.5625 19.753906 57.511719 C 19.492188 57.457031 19.234375 57.378906 18.984375 57.277344 C 18.734375 57.171875 18.496094 57.046875 18.273438 56.894531 C 18.046875 56.746094 17.839844 56.574219 17.648438 56.382812 C 17.457031 56.195312 17.289062 55.984375 17.136719 55.761719 C 16.988281 55.535156 16.859375 55.300781 16.757812 55.050781 C 16.65625 54.800781 16.578125 54.542969 16.523438 54.277344 C 16.472656 54.015625 16.445312 53.746094 16.445312 53.476562 C 16.445312 53.207031 16.472656 52.9375 16.523438 52.671875 C 16.578125 52.410156 16.65625 52.152344 16.757812 51.902344 C 16.859375 51.652344 16.988281 51.414062 17.136719 51.191406 C 17.289062 50.964844 17.457031 50.757812 17.648438 50.566406 C 17.839844 50.375 18.046875 50.207031 18.273438 50.054688 C 18.496094 49.90625 18.734375 49.78125 18.984375 49.675781 C 19.234375 49.574219 19.492188 49.496094 19.753906 49.441406 C 20.019531 49.390625 20.289062 49.363281 20.558594 49.363281 C 20.828125 49.363281 21.09375 49.390625 21.359375 49.441406 C 21.625 49.496094 21.882812 49.574219 22.132812 49.675781 C 22.382812 49.78125 22.617188 49.90625 22.84375 50.054688 C 23.066406 50.207031 23.273438 50.375 23.464844 50.566406 C 23.65625 50.757812 23.828125 50.964844 23.976562 51.191406 C 24.128906 51.414062 24.253906 51.652344 24.359375 51.902344 C 24.460938 52.152344 24.539062 52.410156 24.59375 52.671875 C 24.644531 52.9375 24.671875 53.207031 24.671875 53.476562 Z M 24.671875 53.476562 " fill-opacity="1" fill-rule="nonzero"/></g><g clip-path="url(#aed4c8910d)"><path fill="#000000" d="M 147.777344 10.984375 C 147.777344 11.253906 147.753906 11.519531 147.699219 11.785156 C 147.648438 12.050781 147.570312 12.308594 147.464844 12.558594 C 147.363281 12.808594 147.234375 13.042969 147.085938 13.269531 C 146.9375 13.492188 146.765625 13.703125 146.574219 13.890625 C 146.382812 14.082031 146.175781 14.253906 145.949219 14.402344 C 145.726562 14.554688 145.488281 14.679688 145.238281 14.785156 C 144.992188 14.886719 144.734375 14.964844 144.46875 15.019531 C 144.203125 15.070312 143.9375 15.097656 143.664062 15.097656 C 143.394531 15.097656 143.128906 15.070312 142.863281 15.019531 C 142.597656 14.964844 142.339844 14.886719 142.09375 14.785156 C 141.84375 14.679688 141.605469 14.554688 141.382812 14.402344 C 141.15625 14.253906 140.949219 14.082031 140.757812 13.890625 C 140.566406 13.703125 140.394531 13.492188 140.246094 13.269531 C 140.097656 13.042969 139.96875 12.808594 139.867188 12.558594 C 139.761719 12.308594 139.683594 12.050781 139.632812 11.785156 C 139.578125 11.519531 139.554688 11.253906 139.554688 10.984375 C 139.554688 10.714844 139.578125 10.445312 139.632812 10.179688 C 139.683594 9.917969 139.761719 9.660156 139.867188 9.410156 C 139.96875 9.160156 140.097656 8.921875 140.246094 8.699219 C 140.394531 8.472656 140.566406 8.265625 140.757812 8.074219 C 140.949219 7.882812 141.15625 7.714844 141.382812 7.5625 C 141.605469 7.414062 141.84375 7.289062 142.09375 7.183594 C 142.339844 7.082031 142.597656 7.003906 142.863281 6.949219 C 143.128906 6.898438 143.394531 6.871094 143.664062 6.871094 C 143.9375 6.871094 144.203125 6.898438 144.46875 6.949219 C 144.734375 7.003906 144.992188 7.082031 145.238281 7.183594 C 145.488281 7.289062 145.726562 7.414062 145.949219 7.5625 C 146.175781 7.714844 146.382812 7.882812 146.574219 8.074219 C 146.765625 8.265625 146.9375 8.472656 147.085938 8.699219 C 147.234375 8.921875 147.363281 9.160156 147.464844 9.410156 C 147.570312 9.660156 147.648438 9.917969 147.699219 10.179688 C 147.753906 10.445312 147.777344 10.714844 147.777344 10.984375 Z M 147.777344 10.984375 " fill-opacity="1" fill-rule="nonzero"/></g><g clip-path="url(#ea77faf1c1)"><path fill="#000000" d="M 194.058594 10.484375 C 194.058594 10.753906 194.03125 11.023438 193.980469 11.285156 C 193.925781 11.550781 193.847656 11.808594 193.746094 12.058594 C 193.644531 12.308594 193.515625 12.546875 193.367188 12.769531 C 193.214844 12.996094 193.046875 13.203125 192.855469 13.394531 C 192.664062 13.582031 192.457031 13.753906 192.230469 13.90625 C 192.007812 14.054688 191.769531 14.179688 191.519531 14.285156 C 191.269531 14.386719 191.011719 14.464844 190.75 14.519531 C 190.484375 14.570312 190.214844 14.597656 189.945312 14.597656 C 189.675781 14.597656 189.410156 14.570312 189.144531 14.519531 C 188.878906 14.464844 188.621094 14.386719 188.371094 14.285156 C 188.121094 14.179688 187.886719 14.054688 187.660156 13.90625 C 187.4375 13.753906 187.230469 13.582031 187.039062 13.394531 C 186.847656 13.203125 186.675781 12.996094 186.527344 12.769531 C 186.375 12.546875 186.25 12.308594 186.144531 12.058594 C 186.042969 11.808594 185.964844 11.550781 185.914062 11.285156 C 185.859375 11.023438 185.832031 10.753906 185.832031 10.484375 C 185.832031 10.214844 185.859375 9.945312 185.914062 9.683594 C 185.964844 9.417969 186.042969 9.160156 186.144531 8.910156 C 186.25 8.660156 186.375 8.425781 186.527344 8.199219 C 186.675781 7.976562 186.847656 7.765625 187.039062 7.578125 C 187.230469 7.386719 187.4375 7.214844 187.660156 7.066406 C 187.886719 6.914062 188.121094 6.789062 188.371094 6.683594 C 188.621094 6.582031 188.878906 6.503906 189.144531 6.449219 C 189.410156 6.398438 189.675781 6.371094 189.945312 6.371094 C 190.214844 6.371094 190.484375 6.398438 190.75 6.449219 C 191.011719 6.503906 191.269531 6.582031 191.519531 6.683594 C 191.769531 6.789062 192.007812 6.914062 192.230469 7.066406 C 192.457031 7.214844 192.664062 7.386719 192.855469 7.578125 C 193.046875 7.765625 193.214844 7.976562 193.367188 8.199219 C 193.515625 8.425781 193.644531 8.660156 193.746094 8.910156 C 193.847656 9.160156 193.925781 9.417969 193.980469 9.683594 C 194.03125 9.945312 194.058594 10.214844 194.058594 10.484375 Z M 194.058594 10.484375 " fill-opacity="1" fill-rule="nonzero"/></g><g clip-path="url(#99f1a76e5a)"><path fill="#000000" d="M 67.664062 73.949219 C 67.664062 74.21875 67.636719 74.484375 67.582031 74.75 C 67.53125 75.015625 67.453125 75.273438 67.347656 75.523438 C 67.246094 75.773438 67.121094 76.007812 66.96875 76.234375 C 66.820312 76.457031 66.648438 76.664062 66.457031 76.855469 C 66.265625 77.046875 66.058594 77.21875 65.835938 77.367188 C 65.609375 77.519531 65.371094 77.644531 65.125 77.75 C 64.875 77.851562 64.617188 77.929688 64.351562 77.984375 C 64.085938 78.035156 63.820312 78.0625 63.550781 78.0625 C 63.28125 78.0625 63.011719 78.035156 62.746094 77.984375 C 62.480469 77.929688 62.226562 77.851562 61.976562 77.75 C 61.726562 77.644531 61.488281 77.519531 61.265625 77.367188 C 61.039062 77.21875 60.832031 77.046875 60.640625 76.855469 C 60.449219 76.664062 60.28125 76.457031 60.128906 76.234375 C 59.980469 76.007812 59.851562 75.773438 59.75 75.523438 C 59.644531 75.273438 59.566406 75.015625 59.515625 74.75 C 59.460938 74.484375 59.4375 74.21875 59.4375 73.949219 C 59.4375 73.679688 59.460938 73.410156 59.515625 73.144531 C 59.566406 72.882812 59.644531 72.625 59.75 72.375 C 59.851562 72.125 59.980469 71.886719 60.128906 71.664062 C 60.28125 71.4375 60.449219 71.230469 60.640625 71.039062 C 60.832031 70.847656 61.039062 70.679688 61.265625 70.527344 C 61.488281 70.378906 61.726562 70.25 61.976562 70.148438 C 62.226562 70.046875 62.480469 69.96875 62.746094 69.914062 C 63.011719 69.863281 63.28125 69.835938 63.550781 69.835938 C 63.820312 69.835938 64.085938 69.863281 64.351562 69.914062 C 64.617188 69.96875 64.875 70.046875 65.125 70.148438 C 65.371094 70.25 65.609375 70.378906 65.835938 70.527344 C 66.058594 70.679688 66.265625 70.847656 66.457031 71.039062 C 66.648438 71.230469 66.820312 71.4375 66.96875 71.664062 C 67.121094 71.886719 67.246094 72.125 67.347656 72.375 C 67.453125 72.625 67.53125 72.882812 67.582031 73.144531 C 67.636719 73.410156 67.664062 73.679688 67.664062 73.949219 Z M 67.664062 73.949219 " fill-opacity="1" fill-rule="nonzero"/></g><g clip-path="url(#54259eda07)"><path fill="#000000" d="M 67.664062 114.441406 C 67.664062 114.710938 67.636719 114.976562 67.582031 115.242188 C 67.53125 115.507812 67.453125 115.765625 67.347656 116.015625 C 67.246094 116.261719 67.121094 116.5 66.96875 116.726562 C 66.820312 116.949219 66.648438 117.15625 66.457031 117.347656 C 66.265625 117.539062 66.058594 117.710938 65.835938 117.859375 C 65.609375 118.011719 65.371094 118.136719 65.125 118.238281 C 64.875 118.34375 64.617188 118.421875 64.351562 118.472656 C 64.085938 118.527344 63.820312 118.554688 63.550781 118.554688 C 63.28125 118.554688 63.011719 118.527344 62.746094 118.472656 C 62.480469 118.421875 62.226562 118.34375 61.976562 118.238281 C 61.726562 118.136719 61.488281 118.011719 61.265625 117.859375 C 61.039062 117.710938 60.832031 117.539062 60.640625 117.347656 C 60.449219 117.15625 60.28125 116.949219 60.128906 116.726562 C 59.980469 116.5 59.851562 116.261719 59.75 116.015625 C 59.644531 115.765625 59.566406 115.507812 59.515625 115.242188 C 59.460938 114.976562 59.4375 114.710938 59.4375 114.441406 C 59.4375 114.167969 59.460938 113.902344 59.515625 113.636719 C 59.566406 113.371094 59.644531 113.117188 59.75 112.867188 C 59.851562 112.617188 59.980469 112.378906 60.128906 112.15625 C 60.28125 111.929688 60.449219 111.722656 60.640625 111.53125 C 60.832031 111.339844 61.039062 111.171875 61.265625 111.019531 C 61.488281 110.871094 61.726562 110.742188 61.976562 110.640625 C 62.226562 110.535156 62.480469 110.457031 62.746094 110.40625 C 63.011719 110.351562 63.28125 110.328125 63.550781 110.328125 C 63.820312 110.328125 64.085938 110.351562 64.351562 110.40625 C 64.617188 110.457031 64.875 110.535156 65.125 110.640625 C 65.371094 110.742188 65.609375 110.871094 65.835938 111.019531 C 66.058594 111.171875 66.265625 111.339844 66.457031 111.53125 C 66.648438 111.722656 66.820312 111.929688 66.96875 112.15625 C 67.121094 112.378906 67.246094 112.617188 67.347656 112.867188 C 67.453125 113.117188 67.53125 113.371094 67.582031 113.636719 C 67.636719 113.902344 67.664062 114.167969 67.664062 114.441406 Z M 67.664062 114.441406 " fill-opacity="1" fill-rule="nonzero"/></g><g clip-path="url(#0f2998284b)"><path fill="#000000" d="M 108.078125 73.949219 C 108.078125 74.21875 108.050781 74.484375 107.996094 74.75 C 107.945312 75.015625 107.867188 75.273438 107.761719 75.523438 C 107.660156 75.773438 107.535156 76.007812 107.382812 76.234375 C 107.234375 76.457031 107.0625 76.664062 106.871094 76.855469 C 106.679688 77.046875 106.472656 77.21875 106.25 77.367188 C 106.023438 77.519531 105.785156 77.644531 105.539062 77.75 C 105.289062 77.851562 105.03125 77.929688 104.765625 77.984375 C 104.5 78.035156 104.234375 78.0625 103.964844 78.0625 C 103.695312 78.0625 103.425781 78.035156 103.160156 77.984375 C 102.894531 77.929688 102.640625 77.851562 102.390625 77.75 C 102.140625 77.644531 101.902344 77.519531 101.679688 77.367188 C 101.453125 77.21875 101.246094 77.046875 101.054688 76.855469 C 100.863281 76.664062 100.695312 76.457031 100.542969 76.234375 C 100.394531 76.007812 100.265625 75.773438 100.164062 75.523438 C 100.058594 75.273438 99.980469 75.015625 99.929688 74.75 C 99.875 74.484375 99.851562 74.21875 99.851562 73.949219 C 99.851562 73.679688 99.875 73.410156 99.929688 73.144531 C 99.980469 72.882812 100.058594 72.625 100.164062 72.375 C 100.265625 72.125 100.394531 71.886719 100.542969 71.664062 C 100.695312 71.4375 100.863281 71.230469 101.054688 71.039062 C 101.246094 70.847656 101.453125 70.679688 101.679688 70.527344 C 101.902344 70.378906 102.140625 70.25 102.390625 70.148438 C 102.640625 70.046875 102.894531 69.96875 103.160156 69.914062 C 103.425781 69.863281 103.695312 69.835938 103.964844 69.835938 C 104.234375 69.835938 104.5 69.863281 104.765625 69.914062 C 105.03125 69.96875 105.289062 70.046875 105.539062 70.148438 C 105.785156 70.25 106.023438 70.378906 106.25 70.527344 C 106.472656 70.679688 106.679688 70.847656 106.871094 71.039062 C 107.0625 71.230469 107.234375 71.4375 107.382812 71.664062 C 107.535156 71.886719 107.660156 72.125 107.761719 72.375 C 107.867188 72.625 107.945312 72.882812 107.996094 73.144531 C 108.050781 73.410156 108.078125 73.679688 108.078125 73.949219 Z M 108.078125 73.949219 " fill-opacity="1" fill-rule="nonzero"/></g><g clip-path="url(#fa93e6e2c1)"><path fill="#000000" d="M 235.390625 73.949219 C 235.390625 74.21875 235.363281 74.484375 235.3125 74.75 C 235.257812 75.015625 235.179688 75.273438 235.078125 75.523438 C 234.972656 75.773438 234.847656 76.007812 234.699219 76.234375 C 234.546875 76.457031 234.378906 76.664062 234.1875 76.855469 C 233.996094 77.046875 233.789062 77.21875 233.5625 77.367188 C 233.339844 77.519531 233.101562 77.644531 232.851562 77.75 C 232.601562 77.851562 232.34375 77.929688 232.082031 77.984375 C 231.816406 78.035156 231.546875 78.0625 231.277344 78.0625 C 231.007812 78.0625 230.742188 78.035156 230.476562 77.984375 C 230.210938 77.929688 229.953125 77.851562 229.703125 77.75 C 229.453125 77.644531 229.21875 77.519531 228.992188 77.367188 C 228.769531 77.21875 228.558594 77.046875 228.371094 76.855469 C 228.179688 76.664062 228.007812 76.457031 227.859375 76.234375 C 227.707031 76.007812 227.582031 75.773438 227.476562 75.523438 C 227.375 75.273438 227.296875 75.015625 227.242188 74.75 C 227.191406 74.484375 227.164062 74.21875 227.164062 73.949219 C 227.164062 73.679688 227.191406 73.410156 227.242188 73.144531 C 227.296875 72.882812 227.375 72.625 227.476562 72.375 C 227.582031 72.125 227.707031 71.886719 227.859375 71.664062 C 228.007812 71.4375 228.179688 71.230469 228.371094 71.039062 C 228.558594 70.847656 228.769531 70.679688 228.992188 70.527344 C 229.21875 70.378906 229.453125 70.25 229.703125 70.148438 C 229.953125 70.046875 230.210938 69.96875 230.476562 69.914062 C 230.742188 69.863281 231.007812 69.835938 231.277344 69.835938 C 231.546875 69.835938 231.816406 69.863281 232.082031 69.914062 C 232.34375 69.96875 232.601562 70.046875 232.851562 70.148438 C 233.101562 70.25 233.339844 70.378906 233.5625 70.527344 C 233.789062 70.679688 233.996094 70.847656 234.1875 71.039062 C 234.378906 71.230469 234.546875 71.4375 234.699219 71.664062 C 234.847656 71.886719 234.972656 72.125 235.078125 72.375 C 235.179688 72.625 235.257812 72.882812 235.3125 73.144531 C 235.363281 73.410156 235.390625 73.679688 235.390625 73.949219 Z M 235.390625 73.949219 " fill-opacity="1" fill-rule="nonzero"/></g><g clip-path="url(#b7a1ba9f94)"><path fill="#000000" d="M 108.078125 135.847656 C 108.078125 136.117188 108.050781 136.386719 107.996094 136.652344 C 107.945312 136.917969 107.867188 137.171875 107.761719 137.421875 C 107.660156 137.671875 107.535156 137.910156 107.382812 138.132812 C 107.234375 138.359375 107.0625 138.566406 106.871094 138.757812 C 106.679688 138.949219 106.472656 139.117188 106.25 139.269531 C 106.023438 139.417969 105.785156 139.546875 105.539062 139.648438 C 105.289062 139.753906 105.03125 139.832031 104.765625 139.882812 C 104.5 139.9375 104.234375 139.960938 103.964844 139.960938 C 103.695312 139.960938 103.425781 139.9375 103.160156 139.882812 C 102.894531 139.832031 102.640625 139.753906 102.390625 139.648438 C 102.140625 139.546875 101.902344 139.417969 101.679688 139.269531 C 101.453125 139.117188 101.246094 138.949219 101.054688 138.757812 C 100.863281 138.566406 100.695312 138.359375 100.542969 138.132812 C 100.394531 137.910156 100.265625 137.671875 100.164062 137.421875 C 100.058594 137.171875 99.980469 136.917969 99.929688 136.652344 C 99.875 136.386719 99.851562 136.117188 99.851562 135.847656 C 99.851562 135.578125 99.875 135.3125 99.929688 135.046875 C 99.980469 134.78125 100.058594 134.523438 100.164062 134.273438 C 100.265625 134.027344 100.394531 133.789062 100.542969 133.5625 C 100.695312 133.339844 100.863281 133.132812 101.054688 132.941406 C 101.246094 132.75 101.453125 132.578125 101.679688 132.429688 C 101.902344 132.277344 102.140625 132.152344 102.390625 132.050781 C 102.640625 131.945312 102.894531 131.867188 103.160156 131.816406 C 103.425781 131.761719 103.695312 131.734375 103.964844 131.734375 C 104.234375 131.734375 104.5 131.761719 104.765625 131.816406 C 105.03125 131.867188 105.289062 131.945312 105.539062 132.050781 C 105.785156 132.152344 106.023438 132.277344 106.25 132.429688 C 106.472656 132.578125 106.679688 132.75 106.871094 132.941406 C 107.0625 133.132812 107.234375 133.339844 107.382812 133.5625 C 107.535156 133.789062 107.660156 134.027344 107.761719 134.273438 C 107.867188 134.523438 107.945312 134.78125 107.996094 135.046875 C 108.050781 135.3125 108.078125 135.578125 108.078125 135.847656 Z M 108.078125 135.847656 " fill-opacity="1" fill-rule="nonzero"/></g><g clip-path="url(#e96683dda1)"><path fill="#000000" d="M 147.777344 135.847656 C 147.777344 136.117188 147.753906 136.386719 147.699219 136.652344 C 147.648438 136.917969 147.570312 137.171875 147.464844 137.421875 C 147.363281 137.671875 147.234375 137.910156 147.085938 138.132812 C 146.9375 138.359375 146.765625 138.566406 146.574219 138.757812 C 146.382812 138.949219 146.175781 139.117188 145.949219 139.269531 C 145.726562 139.417969 145.488281 139.546875 145.238281 139.648438 C 144.992188 139.753906 144.734375 139.832031 144.46875 139.882812 C 144.203125 139.9375 143.9375 139.960938 143.664062 139.960938 C 143.394531 139.960938 143.128906 139.9375 142.863281 139.882812 C 142.597656 139.832031 142.339844 139.753906 142.09375 139.648438 C 141.84375 139.546875 141.605469 139.417969 141.382812 139.269531 C 141.15625 139.117188 140.949219 138.949219 140.757812 138.757812 C 140.566406 138.566406 140.394531 138.359375 140.246094 138.132812 C 140.097656 137.910156 139.96875 137.671875 139.867188 137.421875 C 139.761719 137.171875 139.683594 136.917969 139.632812 136.652344 C 139.578125 136.386719 139.554688 136.117188 139.554688 135.847656 C 139.554688 135.578125 139.578125 135.3125 139.632812 135.046875 C 139.683594 134.78125 139.761719 134.523438 139.867188 134.273438 C 139.96875 134.027344 140.097656 133.789062 140.246094 133.5625 C 140.394531 133.339844 140.566406 133.132812 140.757812 132.941406 C 140.949219 132.75 141.15625 132.578125 141.382812 132.429688 C 141.605469 132.277344 141.84375 132.152344 142.09375 132.050781 C 142.339844 131.945312 142.597656 131.867188 142.863281 131.816406 C 143.128906 131.761719 143.394531 131.734375 143.664062 131.734375 C 143.9375 131.734375 144.203125 131.761719 144.46875 131.816406 C 144.734375 131.867188 144.992188 131.945312 145.238281 132.050781 C 145.488281 132.152344 145.726562 132.277344 145.949219 132.429688 C 146.175781 132.578125 146.382812 132.75 146.574219 132.941406 C 146.765625 133.132812 146.9375 133.339844 147.085938 133.5625 C 147.234375 133.789062 147.363281 134.027344 147.464844 134.273438 C 147.570312 134.523438 147.648438 134.78125 147.699219 135.046875 C 147.753906 135.3125 147.777344 135.578125 147.777344 135.847656 Z M 147.777344 135.847656 " fill-opacity="1" fill-rule="nonzero"/></g></svg>