<svg xmlns="http://www.w3.org/2000/svg" xmlns:xlink="http://www.w3.org/1999/xlink" width="210" zoomAndPan="magnify" viewBox="0 0 157.5 119.999999" height="160" preserveAspectRatio="xMidYMid meet" version="1.0"><defs><clipPath id="1438092866"><path d="M 0 0.191406 L 157 0.191406 L 157 119.808594 L 0 119.808594 Z M 0 0.191406 " clip-rule="nonzero"/></clipPath><clipPath id="0fa557be64"><path d="M 17.320312 72 L 49.46875 72 L 49.46875 104.125 L 17.320312 104.125 Z M 17.320312 72 " clip-rule="nonzero"/></clipPath><clipPath id="22a6868cdb"><path d="M 37.394531 38.285156 L 98.496094 38.285156 L 98.496094 84.589844 L 37.394531 84.589844 Z M 37.394531 38.285156 " clip-rule="nonzero"/></clipPath><clipPath id="c3cf6def62"><path d="M 37.394531 38.285156 L 98.496094 38.285156 L 98.496094 40.929688 L 37.394531 40.929688 Z M 37.394531 38.285156 " clip-rule="nonzero"/></clipPath><clipPath id="bb50402acf"><path d="M 37.394531 82 L 98.496094 82 L 98.496094 84.589844 L 37.394531 84.589844 Z M 37.394531 82 " clip-rule="nonzero"/></clipPath><clipPath id="d2466b0fd2"><path d="M 37.394531 38.285156 L 39.691406 38.285156 L 39.691406 84.589844 L 37.394531 84.589844 Z M 37.394531 38.285156 " clip-rule="nonzero"/></clipPath><clipPath id="5eabaffcf6"><path d="M 96 38.285156 L 98.496094 38.285156 L 98.496094 84.589844 L 96 84.589844 Z M 96 38.285156 " clip-rule="nonzero"/></clipPath><clipPath id="a9c44d6e04"><path d="M 62.234375 52.175781 L 73.871094 52.175781 L 73.871094 66 L 62.234375 66 Z M 62.234375 52.175781 " clip-rule="nonzero"/></clipPath><clipPath id="b5930eff35"><path d="M 65 66.042969 L 70 66.042969 L 70 70.5 L 65 70.5 Z M 65 66.042969 " clip-rule="nonzero"/></clipPath></defs><g clip-path="url(#1438092866)"><path fill="#231f20" d="M 165.925781 96.09375 L 165.925781 -41.542969 C 165.925781 -41.550781 165.921875 -41.554688 165.921875 -41.558594 C 165.921875 -41.574219 165.921875 -41.585938 165.917969 -41.605469 C 165.914062 -41.621094 165.910156 -41.636719 165.902344 -41.652344 C 165.902344 -41.65625 165.902344 -41.664062 165.898438 -41.667969 C 165.898438 -41.675781 165.890625 -41.683594 165.882812 -41.695312 C 165.878906 -41.710938 165.867188 -41.722656 165.855469 -41.738281 C 165.847656 -41.75 165.835938 -41.761719 165.824219 -41.773438 C 165.8125 -41.785156 165.800781 -41.796875 165.789062 -41.804688 C 165.773438 -41.816406 165.761719 -41.824219 165.746094 -41.832031 C 165.734375 -41.835938 165.726562 -41.847656 165.71875 -41.847656 C 165.714844 -41.851562 165.707031 -41.851562 165.703125 -41.851562 C 165.683594 -41.859375 165.671875 -41.863281 165.65625 -41.867188 C 165.640625 -41.871094 165.621094 -41.871094 165.605469 -41.871094 C 165.597656 -41.871094 165.597656 -41.875 165.589844 -41.875 L 27.996094 -42.203125 L 0.378906 -42.269531 C 0.375 -42.269531 0.371094 -42.265625 0.367188 -42.265625 C 0.359375 -42.265625 0.355469 -42.269531 0.355469 -42.269531 C 0.320312 -42.265625 0.292969 -42.257812 0.269531 -42.246094 C 0.257812 -42.242188 0.246094 -42.242188 0.238281 -42.238281 C 0.195312 -42.21875 0.164062 -42.191406 0.132812 -42.15625 C 0.132812 -42.15625 0.128906 -42.15625 0.128906 -42.15625 C 0.121094 -42.148438 0.121094 -42.136719 0.113281 -42.132812 C 0.0976562 -42.105469 0.078125 -42.078125 0.0664062 -42.046875 C 0.0585938 -42.027344 0.0585938 -42.011719 0.0546875 -41.996094 C 0.0546875 -41.976562 0.046875 -41.957031 0.046875 -41.9375 L 0.046875 124.113281 C 0.046875 124.117188 0.0507812 124.125 0.0507812 124.132812 C 0.0507812 124.148438 0.0546875 124.164062 0.0546875 124.183594 C 0.0585938 124.203125 0.0625 124.214844 0.0703125 124.226562 C 0.0742188 124.234375 0.0742188 124.242188 0.078125 124.25 C 0.078125 124.257812 0.0859375 124.265625 0.09375 124.273438 C 0.0976562 124.289062 0.109375 124.300781 0.121094 124.316406 C 0.128906 124.328125 0.140625 124.339844 0.152344 124.351562 C 0.164062 124.359375 0.171875 124.371094 0.183594 124.382812 C 0.203125 124.390625 0.214844 124.402344 0.230469 124.40625 C 0.242188 124.410156 0.25 124.417969 0.257812 124.425781 C 0.261719 124.425781 0.265625 124.425781 0.269531 124.425781 C 0.300781 124.441406 0.335938 124.445312 0.375 124.445312 L 28.507812 124.363281 L 84.046875 124.203125 L 111.460938 124.121094 L 165.597656 123.964844 C 165.597656 123.964844 165.601562 123.960938 165.605469 123.960938 C 165.640625 123.960938 165.679688 123.953125 165.710938 123.941406 C 165.726562 123.933594 165.742188 123.921875 165.753906 123.914062 C 165.769531 123.902344 165.792969 123.898438 165.808594 123.882812 C 165.808594 123.882812 165.8125 123.878906 165.8125 123.878906 C 165.84375 123.847656 165.871094 123.8125 165.890625 123.769531 C 165.894531 123.761719 165.894531 123.75 165.898438 123.746094 C 165.90625 123.714844 165.917969 123.6875 165.921875 123.65625 C 165.921875 123.652344 165.917969 123.644531 165.921875 123.640625 C 165.921875 123.640625 165.921875 123.636719 165.921875 123.628906 Z M 111.507812 123.457031 L 99.550781 120.378906 L 119.808594 120.332031 L 135.304688 123.386719 Z M 84.109375 123.539062 L 75.746094 120.4375 L 96.914062 120.386719 L 108.875 123.464844 Z M 56.5 123.617188 L 51.796875 120.492188 L 73.855469 120.4375 L 82.222656 123.542969 Z M 28.753906 123.699219 L 27.773438 120.546875 L 50.605469 120.496094 L 55.3125 123.621094 Z M 82.625 -41.414062 L 73.003906 -19.296875 L 50.496094 -19.339844 L 55.835938 -41.476562 Z M 110.054688 -41.347656 L 96.160156 -19.253906 L 73.726562 -19.296875 L 83.347656 -41.414062 Z M 137.441406 -41.28125 L 119.28125 -19.210938 L 96.9375 -19.253906 L 110.828125 -41.347656 Z M 164.789062 -41.214844 L 142.378906 -19.164062 L 120.136719 -19.207031 L 138.296875 -41.28125 Z M 0.707031 -8.328125 L 3.351562 5.882812 L 3.308594 27.445312 L 0.707031 17.066406 Z M 4.003906 9.402344 L 5.753906 18.800781 L 5.695312 36.953125 L 3.964844 30.0625 Z M 165.265625 40.820312 L 142.890625 50.042969 L 142.890625 27.585938 L 165.265625 14.101562 Z M 142.230469 50.3125 L 126.195312 56.925781 L 126.195312 37.652344 L 142.230469 27.988281 Z M 125.535156 57.191406 L 113.535156 62.136719 L 113.535156 45.273438 L 125.535156 38.042969 Z M 33.632812 72.378906 L 49.820312 72.378906 L 49.820312 104.847656 L 17.4375 104.847656 L 17.4375 72.378906 Z M 50.011719 71.71875 L 45.34375 71.71875 L 45.722656 71.253906 L 50.480469 71.253906 Z M 44.488281 71.71875 L 39.734375 71.71875 L 40.027344 71.253906 L 44.867188 71.253906 Z M 38.957031 71.71875 L 34.132812 71.71875 L 34.335938 71.253906 L 39.246094 71.253906 Z M 33.417969 71.71875 L 28.542969 71.71875 L 28.65625 71.253906 L 33.617188 71.253906 Z M 27.867188 71.71875 L 22.960938 71.71875 L 22.984375 71.253906 L 27.976562 71.253906 Z M 22.300781 71.71875 L 17.390625 71.71875 L 17.320312 71.253906 L 22.320312 71.253906 Z M 50.476562 104.898438 L 50.476562 99.980469 L 50.964844 99.964844 L 50.964844 104.976562 Z M 50.476562 99.316406 L 50.476562 94.402344 L 50.964844 94.296875 L 50.964844 99.304688 Z M 50.476562 93.722656 L 50.476562 88.835938 L 50.964844 88.636719 L 50.964844 93.617188 Z M 50.476562 88.121094 L 50.476562 83.28125 L 50.964844 82.988281 L 50.964844 87.921875 Z M 50.476562 82.503906 L 50.476562 77.726562 L 50.964844 77.34375 L 50.964844 82.210938 Z M 50.476562 76.886719 L 50.476562 72.1875 L 50.964844 71.710938 L 50.964844 76.5 Z M 51.15625 70.589844 L 46.269531 70.589844 L 46.722656 70.035156 L 51.71875 70.035156 Z M 45.414062 70.589844 L 40.445312 70.589844 L 40.796875 70.035156 L 45.871094 70.035156 Z M 39.667969 70.589844 L 34.625 70.589844 L 34.867188 70.035156 L 40.011719 70.035156 Z M 33.90625 70.589844 L 28.816406 70.589844 L 28.953125 70.035156 L 34.152344 70.035156 Z M 28.136719 70.589844 L 23.015625 70.589844 L 23.042969 70.035156 L 28.269531 70.035156 Z M 22.355469 70.589844 L 17.226562 70.589844 L 17.144531 70.035156 L 22.378906 70.035156 Z M 51.625 105.082031 L 51.625 99.945312 L 52.203125 99.929688 L 52.203125 105.175781 Z M 51.625 99.28125 L 51.625 94.148438 L 52.203125 94.019531 L 52.203125 99.261719 Z M 51.625 93.46875 L 51.625 88.363281 L 52.203125 88.125 L 52.203125 93.339844 Z M 51.625 87.648438 L 51.625 82.589844 L 52.203125 82.238281 L 52.203125 87.410156 Z M 51.625 81.816406 L 51.625 76.820312 L 52.203125 76.359375 L 52.203125 81.464844 Z M 51.625 75.976562 L 51.625 71.058594 L 52.203125 70.488281 L 52.203125 75.515625 Z M 52.394531 69.375 L 47.273438 69.375 L 47.816406 68.714844 L 53.066406 68.714844 Z M 46.417969 69.375 L 41.210938 69.375 L 41.628906 68.714844 L 46.960938 68.714844 Z M 40.429688 69.371094 L 35.15625 69.371094 L 35.441406 68.710938 L 40.847656 68.710938 Z M 34.433594 69.371094 L 29.109375 69.371094 L 29.265625 68.710938 L 34.722656 68.710938 Z M 28.429688 69.371094 L 23.074219 69.371094 L 23.105469 68.710938 L 28.589844 68.710938 Z M 22.410156 69.371094 L 17.042969 69.371094 L 16.949219 68.710938 L 22.441406 68.710938 Z M 52.867188 105.28125 L 52.867188 99.90625 L 53.554688 99.886719 L 53.554688 105.390625 Z M 52.867188 99.242188 L 52.867188 93.871094 L 53.554688 93.71875 L 53.554688 99.21875 Z M 52.867188 93.195312 L 52.867188 87.851562 L 53.554688 87.570312 L 53.554688 93.042969 Z M 52.867188 87.136719 L 52.867188 81.84375 L 53.554688 81.429688 L 53.554688 86.855469 Z M 52.867188 81.066406 L 52.867188 75.835938 L 53.554688 75.292969 L 53.554688 80.652344 Z M 52.867188 74.992188 L 52.867188 69.839844 L 53.554688 69.164062 L 53.554688 74.449219 Z M 53.738281 68.050781 L 48.363281 68.050781 L 49.003906 67.269531 L 54.53125 67.269531 Z M 47.503906 68.050781 L 42.042969 68.050781 L 42.53125 67.269531 L 48.140625 67.269531 Z M 41.261719 68.050781 L 35.730469 68.050781 L 36.070312 67.269531 L 41.75 67.269531 Z M 35.011719 68.050781 L 29.429688 68.050781 L 29.617188 67.269531 L 35.351562 67.269531 Z M 28.75 68.050781 L 23.132812 68.050781 L 23.171875 67.269531 L 28.9375 67.269531 Z M 22.472656 68.050781 L 16.851562 68.050781 L 16.738281 67.269531 L 22.507812 67.269531 Z M 54.214844 105.496094 L 54.214844 99.867188 L 55.023438 99.839844 L 55.023438 105.625 Z M 54.214844 99.199219 L 54.214844 93.574219 L 55.023438 93.394531 L 55.023438 99.175781 Z M 54.214844 92.894531 L 54.214844 87.296875 L 55.023438 86.964844 L 55.023438 92.714844 Z M 54.214844 86.582031 L 54.214844 81.027344 L 55.023438 80.539062 L 55.023438 86.246094 Z M 54.214844 80.253906 L 54.214844 74.769531 L 55.023438 74.128906 L 55.023438 79.773438 Z M 54.214844 73.925781 L 54.214844 68.511719 L 55.023438 67.71875 L 55.023438 73.28125 Z M 55.203125 66.609375 L 49.546875 66.609375 L 50.300781 65.695312 L 56.136719 65.695312 Z M 48.691406 66.609375 L 42.949219 66.609375 L 43.527344 65.695312 L 49.445312 65.695312 Z M 42.171875 66.609375 L 36.363281 66.609375 L 36.761719 65.695312 L 42.75 65.695312 Z M 35.636719 66.609375 L 29.777344 66.609375 L 29.996094 65.695312 L 36.039062 65.695312 Z M 29.09375 66.609375 L 23.199219 66.609375 L 23.242188 65.695312 L 29.3125 65.695312 Z M 22.542969 66.605469 L 16.640625 66.605469 L 16.503906 65.6875 L 22.585938 65.6875 Z M 55.683594 105.730469 L 55.683594 99.820312 L 56.628906 99.789062 L 56.628906 105.878906 Z M 55.683594 99.15625 L 55.683594 93.25 L 56.628906 93.042969 L 56.628906 99.128906 Z M 55.683594 92.570312 L 55.683594 86.691406 L 56.628906 86.300781 L 56.628906 92.359375 Z M 55.683594 85.976562 L 55.683594 80.144531 L 56.628906 79.578125 L 56.628906 85.589844 Z M 55.683594 79.371094 L 55.683594 73.601562 L 56.628906 72.855469 L 56.628906 78.800781 Z M 55.683594 72.757812 L 55.683594 67.070312 L 56.628906 66.136719 L 56.628906 72.007812 Z M 56.804688 65.03125 L 50.84375 65.03125 L 51.726562 63.960938 L 57.894531 63.960938 Z M 49.988281 65.03125 L 43.945312 65.03125 L 44.621094 63.960938 L 50.871094 63.960938 Z M 43.164062 65.03125 L 37.046875 65.03125 L 37.511719 63.960938 L 43.832031 63.960938 Z M 36.324219 65.03125 L 30.15625 65.03125 L 30.414062 63.960938 L 36.789062 63.960938 Z M 29.480469 65.027344 L 23.28125 65.027344 L 23.328125 63.957031 L 29.738281 63.957031 Z M 22.617188 65.027344 L 16.40625 65.027344 L 16.246094 63.953125 L 22.664062 63.953125 Z M 57.289062 105.984375 L 57.289062 99.769531 L 58.390625 99.738281 L 58.390625 106.160156 Z M 57.289062 99.109375 L 57.289062 92.894531 L 58.390625 92.648438 L 58.390625 99.074219 Z M 57.289062 92.214844 L 57.289062 86.03125 L 58.390625 85.578125 L 58.390625 91.972656 Z M 57.289062 85.316406 L 57.289062 79.175781 L 58.390625 78.507812 L 58.390625 84.859375 Z M 57.289062 78.402344 L 57.289062 72.332031 L 58.390625 71.457031 L 58.390625 77.742188 Z M 57.289062 71.480469 L 57.289062 65.484375 L 58.390625 64.398438 L 58.390625 70.605469 Z M 58.566406 63.296875 L 52.269531 63.296875 L 53.296875 62.050781 L 59.835938 62.050781 Z M 51.414062 63.296875 L 45.03125 63.296875 L 45.820312 62.046875 L 52.441406 62.046875 Z M 44.253906 63.296875 L 37.800781 63.296875 L 38.347656 62.046875 L 45.042969 62.046875 Z M 37.078125 63.296875 L 30.574219 63.296875 L 30.875 62.042969 L 37.625 62.042969 Z M 29.894531 63.296875 L 23.359375 63.296875 L 23.417969 62.042969 L 30.195312 62.042969 Z M 22.699219 63.292969 L 16.15625 63.292969 L 15.96875 62.039062 L 22.757812 62.039062 Z M 59.054688 106.265625 L 59.054688 99.714844 L 60.339844 99.675781 L 60.339844 106.472656 Z M 59.054688 99.050781 L 59.054688 92.5 L 60.339844 92.214844 L 60.339844 99.011719 Z M 59.054688 91.824219 L 59.054688 85.300781 L 60.339844 84.769531 L 60.339844 91.539062 Z M 59.054688 84.585938 L 59.054688 78.113281 L 60.339844 77.335938 L 60.339844 84.054688 Z M 59.054688 77.339844 L 59.054688 70.929688 L 60.339844 69.910156 L 60.339844 76.566406 Z M 59.054688 70.085938 L 59.054688 63.753906 L 60.339844 62.488281 L 60.339844 69.0625 Z M 60.511719 61.386719 L 53.84375 61.386719 L 55.046875 59.925781 L 62 59.929688 Z M 52.984375 61.382812 L 46.234375 61.382812 L 47.152344 59.921875 L 54.1875 59.925781 Z M 45.457031 61.382812 L 38.632812 61.382812 L 39.265625 59.921875 L 46.371094 59.925781 Z M 37.910156 61.378906 L 31.035156 61.378906 L 31.386719 59.917969 L 38.546875 59.921875 Z M 30.359375 61.378906 L 23.453125 61.378906 L 23.519531 59.917969 L 30.710938 59.921875 Z M 22.789062 61.378906 L 15.871094 61.378906 L 15.65625 59.917969 L 22.855469 59.921875 Z M 61.003906 106.578125 L 61.003906 99.65625 L 62.503906 99.609375 L 62.503906 106.816406 Z M 61.003906 98.992188 L 61.003906 92.070312 L 62.503906 91.738281 L 62.503906 98.945312 Z M 61.003906 91.394531 L 61.003906 84.5 L 62.503906 83.878906 L 62.503906 91.058594 Z M 61.003906 83.785156 L 61.003906 76.9375 L 62.503906 76.035156 L 62.503906 83.167969 Z M 61.003906 76.164062 L 61.003906 69.382812 L 62.503906 68.191406 L 62.503906 75.257812 Z M 61.003906 68.535156 L 61.003906 61.832031 L 62.503906 60.351562 L 62.503906 67.34375 Z M 62.667969 59.261719 L 55.589844 59.257812 L 56.996094 57.554688 L 64.402344 57.558594 Z M 54.734375 59.261719 L 47.570312 59.257812 L 48.644531 57.554688 L 56.136719 57.558594 Z M 46.789062 59.257812 L 39.558594 59.257812 L 40.300781 57.550781 L 47.863281 57.554688 Z M 38.835938 59.257812 L 31.550781 59.253906 L 31.964844 57.542969 L 39.582031 57.546875 Z M 30.871094 59.257812 L 23.550781 59.253906 L 23.628906 57.542969 L 31.28125 57.546875 Z M 22.890625 59.253906 L 15.5625 59.25 L 15.308594 57.539062 L 22.96875 57.542969 Z M 63.164062 106.921875 L 63.164062 99.589844 L 64.914062 99.535156 L 64.914062 107.207031 Z M 63.164062 98.925781 L 63.164062 91.59375 L 64.914062 91.207031 L 64.914062 98.871094 Z M 63.164062 90.914062 L 63.164062 83.609375 L 64.914062 82.886719 L 64.914062 90.527344 Z M 63.164062 82.894531 L 63.164062 75.632812 L 64.914062 74.578125 L 64.914062 82.167969 Z M 63.164062 74.863281 L 63.164062 67.667969 L 64.914062 66.28125 L 64.914062 73.808594 Z M 63.164062 66.824219 L 63.164062 59.707031 L 64.914062 57.984375 L 64.914062 65.433594 Z M 65.078125 56.894531 L 57.539062 56.890625 L 59.183594 54.894531 L 67.105469 54.894531 Z M 56.683594 56.894531 L 49.0625 56.890625 L 50.320312 54.894531 L 58.328125 54.894531 Z M 48.28125 56.890625 L 40.589844 56.886719 L 41.457031 54.890625 L 49.535156 54.894531 Z M 39.867188 56.886719 L 32.121094 56.882812 L 32.605469 54.882812 L 40.738281 54.886719 Z M 31.441406 56.882812 L 23.664062 56.878906 L 23.757812 54.878906 L 31.925781 54.882812 Z M 23.003906 56.878906 L 15.214844 56.878906 L 14.917969 54.875 L 23.09375 54.878906 Z M 65.574219 107.3125 L 65.574219 99.515625 L 67.625 99.453125 L 67.625 107.640625 Z M 65.574219 98.851562 L 65.574219 91.058594 L 67.625 90.605469 L 67.625 98.789062 Z M 65.574219 90.378906 L 65.574219 82.613281 L 67.625 81.769531 L 67.625 89.925781 Z M 65.574219 81.898438 L 65.574219 74.183594 L 67.625 72.949219 L 67.625 81.058594 Z M 65.574219 73.40625 L 65.574219 65.753906 L 67.625 64.128906 L 67.625 72.175781 Z M 65.574219 64.910156 L 65.574219 57.332031 L 67.625 55.316406 L 67.625 63.28125 Z M 67.78125 54.238281 L 59.726562 54.234375 L 61.65625 51.886719 L 70.164062 51.890625 Z M 58.871094 54.234375 L 50.734375 54.230469 L 52.210938 51.882812 L 60.804688 51.882812 Z M 49.953125 54.230469 L 41.746094 54.226562 L 42.765625 51.878906 L 51.429688 51.882812 Z M 41.023438 54.226562 L 32.761719 54.222656 L 33.328125 51.875 L 42.046875 51.878906 Z M 32.082031 54.222656 L 23.789062 54.21875 L 23.902344 51.871094 L 32.652344 51.875 Z M 23.128906 54.21875 L 14.824219 54.21875 L 14.480469 51.863281 L 23.238281 51.867188 Z M 68.285156 107.742188 L 68.285156 99.429688 L 70.6875 99.355469 L 70.6875 108.125 Z M 68.285156 98.765625 L 68.285156 90.457031 L 70.6875 89.921875 L 70.6875 98.691406 Z M 68.285156 89.78125 L 68.285156 81.496094 L 70.6875 80.507812 L 70.6875 89.246094 Z M 68.285156 80.78125 L 68.285156 72.550781 L 70.6875 71.101562 L 70.6875 79.796875 Z M 68.285156 71.777344 L 68.285156 63.605469 L 70.6875 61.703125 L 70.6875 70.328125 Z M 68.285156 62.761719 L 68.285156 54.671875 L 70.6875 52.304688 L 70.6875 60.855469 Z M 70.835938 51.226562 L 62.203125 51.222656 L 64.480469 48.453125 L 73.648438 48.457031 Z M 61.347656 51.222656 L 52.625 51.21875 L 54.367188 48.449219 L 63.621094 48.453125 Z M 51.847656 51.21875 L 43.054688 51.214844 L 44.261719 48.441406 L 53.589844 48.445312 Z M 42.332031 51.214844 L 33.488281 51.210938 L 34.15625 48.4375 L 43.535156 48.441406 Z M 32.808594 51.207031 L 23.929688 51.207031 L 24.0625 48.433594 L 33.480469 48.433594 Z M 23.269531 51.207031 L 14.382812 51.203125 L 13.972656 48.429688 L 23.402344 48.433594 Z M 71.347656 108.230469 L 71.347656 99.335938 L 74.179688 99.25 L 74.179688 108.6875 Z M 71.347656 98.671875 L 71.347656 89.78125 L 74.179688 89.15625 L 74.179688 98.585938 Z M 71.347656 89.101562 L 71.347656 80.234375 L 74.179688 79.070312 L 74.179688 88.476562 Z M 71.347656 79.519531 L 71.347656 70.699219 L 74.179688 68.992188 L 74.179688 78.351562 Z M 71.347656 69.929688 L 71.347656 61.175781 L 74.179688 58.929688 L 74.179688 68.222656 Z M 71.347656 60.328125 L 71.347656 51.652344 L 74.179688 48.867188 L 74.179688 58.082031 Z M 74.324219 47.796875 L 65.027344 47.792969 L 67.730469 44.507812 L 77.664062 44.511719 Z M 64.171875 47.789062 L 54.785156 47.785156 L 56.855469 44.496094 L 66.875 44.503906 Z M 54.003906 47.785156 L 44.546875 47.78125 L 45.976562 44.492188 L 56.070312 44.5 Z M 43.828125 47.78125 L 34.316406 47.777344 L 35.109375 44.484375 L 45.257812 44.492188 Z M 33.636719 47.777344 L 24.089844 47.773438 L 24.246094 44.480469 L 34.429688 44.484375 Z M 23.433594 47.769531 L 13.875 47.765625 L 13.394531 44.472656 L 23.585938 44.480469 Z M 74.839844 108.792969 L 74.839844 99.230469 L 78.199219 99.128906 L 78.199219 109.328125 Z M 74.839844 98.566406 L 74.839844 89.007812 L 78.199219 88.265625 L 78.199219 98.464844 Z M 74.839844 88.328125 L 74.839844 78.796875 L 78.199219 77.414062 L 78.199219 87.585938 Z M 74.839844 78.082031 L 74.839844 68.597656 L 78.199219 66.570312 L 78.199219 76.695312 Z M 74.839844 67.824219 L 74.839844 58.40625 L 78.199219 55.742188 L 78.199219 65.800781 Z M 74.839844 57.558594 L 74.839844 48.21875 L 78.199219 44.914062 L 78.199219 54.894531 Z M 78.335938 43.847656 L 68.277344 43.839844 L 71.511719 39.90625 L 82.332031 39.914062 Z M 67.417969 43.839844 L 57.273438 43.832031 L 59.746094 39.898438 L 70.65625 39.902344 Z M 56.488281 43.832031 L 46.269531 43.828125 L 47.980469 39.890625 L 58.964844 39.898438 Z M 45.546875 43.828125 L 35.269531 43.820312 L 36.21875 39.882812 L 47.257812 39.890625 Z M 34.589844 43.820312 L 24.277344 43.8125 L 24.460938 39.875 L 35.539062 39.878906 Z M 23.617188 43.8125 L 13.292969 43.808594 L 12.714844 39.867188 L 23.800781 39.875 Z M 12.679688 44.160156 L 12.621094 52.105469 L 12.578125 51.878906 L 12.632812 43.851562 Z M 12.59375 55.585938 L 12.527344 64.214844 L 12.492188 64.0625 L 12.554688 55.363281 Z M 12.507812 66.855469 L 12.4375 76.152344 L 12.40625 76.0625 L 12.472656 66.707031 Z M 12.425781 77.984375 L 12.347656 87.894531 L 12.320312 87.855469 L 12.386719 77.898438 Z M 12.34375 88.996094 L 12.261719 99.34375 L 12.238281 99.339844 L 12.3125 88.957031 Z M 12.257812 100.003906 L 12.183594 110.25 L 12.164062 110.273438 L 12.238281 100.003906 Z M 78.859375 109.433594 L 78.859375 99.105469 L 82.875 98.980469 L 82.875 110.074219 Z M 78.859375 98.441406 L 78.859375 88.117188 L 82.875 87.230469 L 82.875 98.320312 Z M 78.859375 87.4375 L 78.859375 77.140625 L 82.875 75.488281 L 82.875 86.550781 Z M 78.859375 76.425781 L 78.859375 66.175781 L 82.875 63.753906 L 82.875 74.773438 Z M 78.859375 65.402344 L 78.859375 55.21875 L 82.875 52.035156 L 82.875 62.984375 Z M 78.859375 54.371094 L 78.859375 44.265625 L 82.875 40.316406 L 82.875 51.1875 Z M 83.007812 39.25 L 72.054688 39.246094 L 75.960938 34.492188 L 87.832031 34.503906 Z M 71.199219 39.246094 L 60.164062 39.238281 L 63.148438 34.488281 L 75.109375 34.496094 Z M 59.378906 39.238281 L 48.265625 39.230469 L 50.335938 34.476562 L 62.367188 34.488281 Z M 47.546875 39.226562 L 36.378906 39.222656 L 37.523438 34.46875 L 49.617188 34.476562 Z M 35.699219 39.222656 L 24.496094 39.214844 L 24.71875 34.457031 L 36.847656 34.46875 Z M 23.835938 39.210938 L 12.621094 39.203125 L 11.921875 34.445312 L 24.058594 34.453125 Z M 12 39.558594 L 11.9375 48.457031 L 11.777344 47.589844 L 11.835938 38.441406 Z M 11.914062 51.941406 L 11.847656 61.503906 L 11.691406 60.882812 L 11.757812 51.089844 Z M 11.828125 64.144531 L 11.757812 74.34375 L 11.605469 73.945312 L 11.675781 63.527344 Z M 11.742188 76.179688 L 11.667969 86.976562 L 11.523438 86.777344 L 11.59375 75.78125 Z M 11.65625 88.074219 L 11.578125 99.28125 L 11.4375 99.265625 L 11.511719 87.875 Z M 11.574219 99.945312 L 11.496094 111.027344 L 11.359375 111.183594 L 11.433594 99.9375 Z M 13.207031 110.089844 L 23.816406 110.085938 L 23.847656 110.175781 L 13.121094 110.1875 Z M 24.507812 110.085938 L 34.925781 110.078125 L 35.066406 110.171875 L 24.539062 110.179688 Z M 36.125 110.078125 L 45.898438 110.070312 L 46.144531 110.164062 L 36.265625 110.171875 Z M 47.796875 110.066406 L 56.804688 110.0625 L 57.15625 110.152344 L 48.042969 110.15625 Z M 59.457031 110.0625 L 67.671875 110.054688 L 68.121094 110.144531 L 59.804688 110.152344 Z M 71.085938 110.050781 L 78.496094 110.042969 L 79.042969 110.128906 L 71.535156 110.136719 Z M 83.53125 110.179688 L 83.53125 98.960938 L 88.375 98.8125 L 88.375 110.957031 Z M 83.53125 98.300781 L 83.53125 87.085938 L 88.375 86.011719 L 88.375 98.148438 Z M 83.53125 86.40625 L 83.53125 75.214844 L 88.375 73.222656 L 88.375 85.335938 Z M 83.53125 74.5 L 83.53125 63.359375 L 88.375 60.4375 L 88.375 72.503906 Z M 83.53125 62.585938 L 83.53125 51.511719 L 88.375 47.667969 L 88.375 59.667969 Z M 83.53125 50.660156 L 83.53125 39.660156 L 88.375 34.898438 L 88.375 46.820312 Z M 88.503906 33.84375 L 76.507812 33.835938 L 81.28125 28.03125 L 94.398438 28.042969 Z M 75.652344 33.835938 L 63.566406 33.824219 L 67.21875 28.015625 L 80.425781 28.03125 Z M 62.785156 33.824219 L 50.625 33.8125 L 53.152344 28.003906 L 66.433594 28.015625 Z M 49.902344 33.8125 L 37.6875 33.800781 L 39.085938 27.988281 L 52.429688 28 Z M 37.007812 33.800781 L 24.753906 33.792969 L 25.027344 27.972656 L 38.410156 27.988281 Z M 24.089844 33.792969 L 11.824219 33.78125 L 10.972656 27.960938 L 24.367188 27.972656 Z M 11.207031 34.136719 L 11.144531 44.160156 L 10.828125 42.476562 L 10.890625 31.980469 Z M 11.121094 47.652344 L 11.050781 58.3125 L 10.742188 57.082031 L 10.808594 45.976562 Z M 11.03125 60.960938 L 10.957031 72.226562 L 10.652344 71.429688 L 10.722656 59.738281 Z M 10.945312 74.066406 L 10.863281 85.902344 L 10.566406 85.5 L 10.640625 73.269531 Z M 10.859375 86.996094 L 10.777344 99.210938 L 10.488281 99.183594 L 10.5625 86.597656 Z M 10.773438 99.875 L 10.691406 111.9375 L 10.40625 112.261719 L 10.480469 99.851562 Z M 12.535156 110.851562 L 24.054688 110.839844 L 24.128906 111.070312 L 12.332031 111.082031 Z M 24.746094 110.839844 L 36.0625 110.832031 L 36.40625 111.0625 L 24.820312 111.070312 Z M 37.257812 110.828125 L 47.921875 110.820312 L 48.535156 111.046875 L 37.601562 111.054688 Z M 49.828125 110.820312 L 59.722656 110.8125 L 60.597656 111.039062 L 50.4375 111.046875 Z M 62.375 110.808594 L 71.472656 110.804688 L 72.601562 111.023438 L 63.246094 111.035156 Z M 74.882812 110.800781 L 83.167969 110.792969 L 84.550781 111.015625 L 76.007812 111.023438 Z M 89.035156 111.058594 L 89.035156 98.789062 L 94.953125 98.605469 L 94.953125 112.003906 Z M 89.035156 98.128906 L 89.035156 85.863281 L 94.953125 84.554688 L 94.953125 97.949219 Z M 89.035156 85.1875 L 89.035156 72.945312 L 94.953125 70.507812 L 94.953125 83.875 Z M 89.035156 72.230469 L 89.035156 60.042969 L 94.953125 56.476562 L 94.953125 69.796875 Z M 89.035156 59.265625 L 89.035156 47.140625 L 94.953125 42.449219 L 94.953125 55.703125 Z M 89.035156 46.296875 L 89.035156 34.25 L 94.953125 28.429688 L 94.953125 41.605469 Z M 95.613281 27.777344 L 102.945312 20.5625 L 102.945312 35.261719 L 95.613281 41.082031 Z M 95.078125 27.375 L 81.828125 27.363281 L 87.757812 20.15625 L 102.398438 20.171875 Z M 80.972656 27.363281 L 67.632812 27.351562 L 72.167969 20.140625 L 86.898438 20.15625 Z M 66.855469 27.351562 L 53.441406 27.335938 L 56.578125 20.125 L 71.386719 20.140625 Z M 52.71875 27.335938 L 39.246094 27.324219 L 40.988281 20.109375 L 55.859375 20.125 Z M 38.570312 27.324219 L 25.058594 27.308594 L 25.398438 20.089844 L 40.308594 20.109375 Z M 24.398438 27.3125 L 10.871094 27.300781 L 9.8125 20.078125 L 24.738281 20.09375 Z M 10.257812 27.65625 L 10.1875 39.03125 L 9.671875 36.257812 L 9.738281 24.113281 Z M 10.167969 42.535156 L 10.09375 54.507812 L 9.585938 52.480469 L 9.652344 39.777344 Z M 10.078125 57.164062 L 10.003906 69.707031 L 9.5 68.382812 L 9.570312 55.140625 Z M 9.992188 71.546875 L 9.914062 84.617188 L 9.417969 83.953125 L 9.492188 70.226562 Z M 9.90625 85.71875 L 9.828125 99.132812 L 9.339844 99.085938 L 9.414062 85.054688 Z M 9.820312 99.792969 L 9.742188 113.011719 L 9.261719 113.554688 L 9.335938 99.75 Z M 11.742188 111.746094 L 24.332031 111.734375 L 24.457031 112.140625 L 11.378906 112.15625 Z M 25.023438 111.734375 L 37.402344 111.722656 L 38.011719 112.125 L 25.152344 112.136719 Z M 38.597656 111.722656 L 50.320312 111.710938 L 51.398438 112.113281 L 39.203125 112.125 Z M 52.21875 111.707031 L 63.160156 111.699219 L 64.707031 112.09375 L 53.300781 112.109375 Z M 65.808594 111.695312 L 75.941406 111.683594 L 77.949219 112.078125 L 67.351562 112.09375 Z M 79.351562 111.679688 L 88.671875 111.671875 L 91.128906 112.066406 L 81.355469 112.074219 Z M 95.613281 112.113281 L 95.613281 98.589844 L 102.945312 98.367188 L 102.945312 113.285156 Z M 95.613281 97.925781 L 95.613281 84.40625 L 102.945312 82.785156 L 102.945312 97.699219 Z M 95.613281 83.730469 L 95.613281 70.238281 L 102.945312 67.21875 L 102.945312 82.109375 Z M 95.613281 69.519531 L 95.613281 56.074219 L 102.945312 51.65625 L 102.945312 66.5 Z M 95.613281 55.304688 L 95.613281 41.925781 L 102.945312 36.105469 L 102.945312 50.882812 Z M 103.605469 35.582031 L 112.871094 28.230469 L 112.871094 44.898438 L 103.605469 50.488281 Z M 103.605469 34.738281 L 103.605469 19.910156 L 112.871094 10.792969 L 112.871094 27.386719 Z M 103.066406 19.515625 L 88.300781 19.496094 L 95.792969 10.386719 L 112.324219 10.40625 Z M 87.445312 19.496094 L 72.585938 19.480469 L 78.316406 10.363281 L 94.9375 10.382812 Z M 71.804688 19.480469 L 56.867188 19.464844 L 60.835938 10.339844 L 77.539062 10.359375 Z M 56.144531 19.464844 L 41.144531 19.449219 L 43.347656 10.320312 L 60.113281 10.34375 Z M 40.46875 19.445312 L 25.429688 19.429688 L 25.859375 10.292969 L 42.667969 10.316406 Z M 24.765625 19.429688 L 9.710938 19.410156 L 8.371094 10.269531 L 25.195312 10.292969 Z M 9.097656 19.765625 L 9.027344 32.804688 L 8.238281 28.550781 L 8.300781 14.332031 Z M 9.011719 36.320312 L 8.9375 49.898438 L 8.160156 46.78125 L 8.226562 32.082031 Z M 8.925781 52.558594 L 8.847656 66.65625 L 8.078125 64.617188 L 8.144531 49.457031 Z M 7.425781 62.886719 L 6.273438 59.847656 L 6.335938 42.234375 L 7.496094 46.863281 Z M 7.414062 64.738281 L 7.34375 81.160156 L 6.210938 79.632812 L 6.269531 61.703125 Z M 8.070312 66.460938 L 8.839844 68.5 L 8.761719 83.070312 L 8 82.042969 Z M 8.757812 84.171875 L 8.675781 99.03125 L 7.925781 98.964844 L 7.992188 83.148438 Z M 8.675781 99.695312 L 8.597656 114.308594 L 7.855469 115.148438 L 7.925781 99.628906 Z M 10.800781 112.816406 L 24.667969 112.800781 L 24.867188 113.441406 L 10.230469 113.460938 Z M 25.359375 112.800781 L 39.003906 112.785156 L 39.960938 113.421875 L 25.554688 113.441406 Z M 40.199219 112.785156 L 53.175781 112.769531 L 54.878906 113.402344 L 41.152344 113.425781 Z M 55.078125 112.769531 L 67.269531 112.753906 L 69.707031 113.382812 L 56.78125 113.402344 Z M 69.914062 112.75 L 81.289062 112.738281 L 84.453125 113.359375 L 72.351562 113.378906 Z M 84.695312 112.734375 L 95.246094 112.722656 L 99.128906 113.339844 L 87.855469 113.359375 Z M 103.605469 113.386719 L 103.605469 98.34375 L 112.871094 98.058594 L 112.871094 114.867188 Z M 103.605469 97.679688 L 103.605469 82.636719 L 112.871094 80.585938 L 112.871094 97.394531 Z M 103.605469 81.957031 L 103.605469 66.941406 L 112.871094 63.121094 L 112.871094 79.90625 Z M 103.605469 66.226562 L 103.605469 51.261719 L 112.871094 45.675781 L 112.871094 62.410156 Z M 113.53125 44.503906 L 113.53125 27.707031 L 125.53125 18.1875 L 125.53125 37.273438 Z M 113.53125 26.863281 L 113.53125 10.144531 L 125.53125 -1.660156 L 125.53125 17.34375 Z M 112.992188 9.746094 L 96.335938 9.722656 L 106.050781 -2.085938 L 124.988281 -2.054688 Z M 95.484375 9.722656 L 78.734375 9.699219 L 86.164062 -2.117188 L 105.199219 -2.085938 Z M 77.953125 9.699219 L 61.125 9.675781 L 66.269531 -2.148438 L 85.386719 -2.117188 Z M 60.402344 9.675781 L 43.507812 9.65625 L 46.359375 -2.179688 L 65.546875 -2.152344 Z M 42.828125 9.65625 L 25.894531 9.632812 L 26.453125 -2.210938 L 45.683594 -2.179688 Z M 25.230469 9.632812 L 8.273438 9.609375 L 6.535156 -2.238281 L 25.789062 -2.210938 Z M 7.660156 9.960938 L 7.59375 25.078125 L 6.414062 18.734375 L 6.46875 1.851562 Z M 7.578125 28.613281 L 7.507812 44.195312 L 6.34375 39.554688 L 6.402344 22.292969 Z M 5.683594 39.628906 L 5.621094 58.113281 L 3.917969 53.613281 L 3.957031 32.757812 Z M 5.613281 59.96875 L 5.550781 78.746094 L 3.875 76.492188 L 3.914062 55.472656 Z M 5.546875 79.851562 L 5.484375 98.75 L 3.832031 98.605469 L 3.871094 77.597656 Z M 6.207031 80.738281 L 7.339844 82.261719 L 7.265625 98.90625 L 6.144531 98.808594 Z M 7.261719 99.570312 L 7.191406 115.902344 L 6.082031 117.15625 L 6.144531 99.476562 Z M 9.640625 114.125 L 25.070312 114.105469 L 25.367188 115.0625 L 8.789062 115.089844 Z M 25.765625 114.101562 L 40.957031 114.082031 L 42.390625 115.039062 L 26.0625 115.0625 Z M 42.152344 114.082031 L 56.664062 114.0625 L 59.21875 115.011719 L 43.585938 115.035156 Z M 58.558594 114.058594 L 72.269531 114.042969 L 75.929688 114.984375 L 61.113281 115.007812 Z M 74.914062 114.035156 L 87.792969 114.019531 L 92.542969 114.957031 L 78.570312 114.980469 Z M 91.199219 114.015625 L 103.242188 114 L 109.066406 114.929688 L 95.941406 114.953125 Z M 113.53125 114.976562 L 113.53125 98.039062 L 125.53125 97.667969 L 125.53125 116.894531 Z M 113.53125 97.375 L 113.53125 80.441406 L 125.53125 77.785156 L 125.53125 97.003906 Z M 113.53125 79.761719 L 113.53125 62.855469 L 125.53125 57.910156 L 125.53125 77.105469 Z M 126.195312 57.636719 L 142.230469 51.027344 L 142.230469 73.402344 L 126.195312 76.957031 Z M 142.890625 50.753906 L 165.265625 41.539062 L 165.265625 68.308594 L 142.890625 73.261719 Z M 165.265625 13.324219 L 142.890625 26.808594 L 142.890625 4.417969 L 165.265625 -13.332031 Z M 142.230469 27.207031 L 126.195312 36.871094 L 126.195312 17.664062 L 142.230469 4.941406 Z M 126.195312 16.820312 L 126.195312 -2.3125 L 142.230469 -18.09375 L 142.230469 4.09375 Z M 128.222656 -5.238281 L 125.660156 -2.71875 L 106.597656 -2.746094 L 119.59375 -18.546875 L 141.707031 -18.503906 Z M 105.742188 -2.746094 L 86.578125 -2.777344 L 96.519531 -18.589844 L 118.738281 -18.546875 Z M 85.796875 -2.78125 L 66.554688 -2.808594 L 73.4375 -18.632812 L 95.742188 -18.589844 Z M 65.832031 -2.808594 L 46.519531 -2.839844 L 50.339844 -18.675781 L 72.714844 -18.632812 Z M 45.84375 -2.839844 L 26.480469 -2.871094 L 27.226562 -18.71875 L 49.660156 -18.675781 Z M 25.820312 -2.871094 L 6.441406 -2.902344 L 4.109375 -18.765625 L 26.566406 -18.722656 Z M 5.824219 -2.546875 L 5.761719 15.246094 L 4.011719 5.820312 L 4.050781 -14.632812 Z M 3.359375 2.304688 L 0.707031 -11.945312 L 0.707031 -37.410156 L 3.398438 -19.074219 Z M 3.304688 30.140625 L 3.261719 51.875 L 0.707031 45.117188 L 0.707031 19.785156 Z M 3.257812 53.738281 L 3.214844 75.605469 L 0.707031 72.230469 L 0.707031 46.988281 Z M 3.214844 76.714844 L 3.171875 98.550781 L 0.707031 98.335938 L 0.707031 73.339844 Z M 0.707031 99 L 3.171875 99.214844 L 3.132812 120.496094 L 0.707031 123.242188 Z M 3.832031 99.273438 L 5.484375 99.414062 L 5.421875 117.902344 L 3.792969 119.746094 Z M 8.203125 115.753906 L 25.578125 115.726562 L 26.015625 117.136719 L 6.949219 117.175781 Z M 26.265625 115.722656 L 43.382812 115.695312 L 45.496094 117.101562 L 26.707031 117.136719 Z M 44.578125 115.695312 L 60.996094 115.671875 L 64.757812 117.066406 L 46.691406 117.097656 Z M 66.53125 117.726562 L 72.078125 119.78125 L 50.800781 119.832031 L 47.6875 117.761719 Z M 68.425781 117.722656 L 86.425781 117.6875 L 94.367188 119.734375 L 73.976562 119.777344 Z M 66.648438 117.0625 L 62.894531 115.667969 L 78.484375 115.644531 L 83.867188 117.027344 Z M 81.128906 115.636719 L 95.875 115.613281 L 102.863281 116.992188 L 86.511719 117.023438 Z M 99.273438 115.609375 L 113.164062 115.585938 L 121.726562 116.957031 L 106.25 116.984375 Z M 126.195312 117 L 126.195312 97.648438 L 142.230469 97.152344 L 142.230469 119.558594 Z M 126.195312 96.984375 L 126.195312 77.636719 L 142.230469 74.082031 L 142.230469 96.488281 Z M 142.890625 73.941406 L 165.265625 68.984375 L 165.265625 95.78125 L 142.890625 96.46875 Z M 165.265625 -14.175781 L 142.890625 3.570312 L 142.890625 -18.742188 L 164.28125 -39.789062 L 165.265625 -40.757812 Z M 49.820312 -19.34375 L 27.261719 -19.386719 L 28.308594 -41.542969 L 55.15625 -41.476562 Z M 26.601562 -19.386719 L 4.015625 -19.429688 L 0.761719 -41.609375 L 27.644531 -41.542969 Z M 6.359375 117.835938 L 26.21875 117.800781 L 26.871094 119.886719 L 4.503906 119.941406 Z M 26.914062 117.796875 L 46.488281 117.761719 L 49.609375 119.832031 L 27.566406 119.882812 Z M 97 119.722656 L 89.066406 117.679688 L 106.191406 117.644531 L 116.488281 119.675781 Z M 109.582031 117.640625 L 125.828125 117.613281 L 138.441406 119.625 L 119.871094 119.667969 Z M 142.890625 119.667969 L 142.890625 97.132812 L 165.265625 96.445312 L 165.265625 123.246094 Z M 3.917969 120.605469 L 27.078125 120.550781 L 28.0625 123.703125 L 1.113281 123.785156 Z M 138.679688 123.378906 L 123.191406 120.320312 L 142.527344 120.277344 L 161.5 123.308594 Z M 138.679688 123.378906 " fill-opacity="1" fill-rule="nonzero"/></g><g clip-path="url(#0fa557be64)"><path fill="#000000" d="M 49.214844 99.886719 C 48.695312 99.894531 48.164062 99.902344 47.644531 99.882812 C 47.113281 99.859375 46.601562 99.808594 46.074219 99.855469 C 45.910156 99.871094 45.746094 99.890625 45.582031 99.902344 C 45.570312 99.675781 45.558594 99.449219 45.535156 99.222656 C 45.511719 98.976562 45.484375 98.726562 45.5 98.476562 C 45.515625 98.210938 45.585938 97.953125 45.628906 97.691406 C 45.664062 97.453125 45.675781 97.21875 45.648438 96.980469 C 45.617188 96.71875 45.558594 96.460938 45.53125 96.199219 C 45.515625 96.027344 45.523438 95.855469 45.539062 95.683594 C 45.632812 95.683594 45.726562 95.683594 45.820312 95.683594 C 46.113281 95.675781 46.402344 95.660156 46.695312 95.667969 C 46.976562 95.675781 47.253906 95.722656 47.535156 95.746094 C 48.105469 95.796875 48.644531 95.632812 49.214844 95.617188 C 49.464844 95.613281 49.464844 95.222656 49.214844 95.230469 C 48.710938 95.242188 48.222656 95.394531 47.714844 95.371094 C 47.472656 95.359375 47.234375 95.324219 46.992188 95.300781 C 46.726562 95.273438 46.464844 95.28125 46.199219 95.285156 C 45.992188 95.289062 45.789062 95.289062 45.585938 95.289062 C 45.613281 95.097656 45.640625 94.902344 45.644531 94.703125 C 45.660156 94.199219 45.496094 93.707031 45.511719 93.199219 C 45.523438 92.949219 45.550781 92.695312 45.570312 92.445312 C 45.589844 92.175781 45.589844 91.902344 45.605469 91.628906 C 45.609375 91.523438 45.617188 91.417969 45.621094 91.308594 C 45.644531 91.308594 45.671875 91.308594 45.695312 91.308594 C 46.867188 91.289062 48.042969 91.328125 49.214844 91.316406 C 49.464844 91.3125 49.464844 90.925781 49.214844 90.925781 C 48.167969 90.9375 47.121094 90.894531 46.074219 90.914062 C 45.925781 90.917969 45.78125 90.917969 45.636719 90.921875 C 45.644531 90.636719 45.644531 90.351562 45.613281 90.0625 C 45.589844 89.8125 45.566406 89.5625 45.570312 89.308594 C 45.578125 89.035156 45.609375 88.765625 45.632812 88.492188 C 45.671875 87.992188 45.632812 87.488281 45.625 86.988281 C 45.617188 86.753906 45.636719 86.523438 45.660156 86.289062 C 46.082031 86.304688 46.503906 86.335938 46.925781 86.300781 C 47.4375 86.261719 47.9375 86.214844 48.453125 86.214844 C 48.707031 86.214844 48.960938 86.214844 49.214844 86.210938 C 49.464844 86.203125 49.464844 85.816406 49.214844 85.820312 C 48.710938 85.832031 48.203125 85.804688 47.699219 85.839844 C 47.183594 85.875 46.679688 85.945312 46.160156 85.921875 C 46.003906 85.917969 45.851562 85.914062 45.699219 85.910156 C 45.714844 85.746094 45.726562 85.582031 45.730469 85.417969 C 45.730469 84.894531 45.660156 84.375 45.652344 83.851562 C 45.648438 83.335938 45.609375 82.816406 45.667969 82.304688 C 45.695312 82.0625 45.734375 81.824219 45.746094 81.585938 C 45.746094 81.519531 45.746094 81.453125 45.746094 81.386719 C 46.027344 81.394531 46.308594 81.40625 46.589844 81.402344 C 46.882812 81.398438 47.171875 81.363281 47.464844 81.335938 C 47.753906 81.308594 48.046875 81.308594 48.339844 81.292969 C 48.628906 81.277344 48.921875 81.253906 49.214844 81.246094 C 49.464844 81.242188 49.464844 80.855469 49.214844 80.859375 C 48.695312 80.867188 48.167969 80.894531 47.652344 80.929688 C 47.125 80.964844 46.617188 81.023438 46.089844 81.007812 C 45.960938 81.003906 45.835938 81.003906 45.707031 81.003906 C 45.699219 80.941406 45.6875 80.878906 45.679688 80.8125 C 45.640625 80.570312 45.601562 80.332031 45.601562 80.082031 C 45.605469 79.8125 45.636719 79.539062 45.652344 79.265625 C 45.695312 78.679688 45.621094 78.097656 45.621094 77.507812 C 45.621094 77.214844 45.660156 76.921875 45.683594 76.628906 C 45.699219 76.484375 45.703125 76.34375 45.703125 76.199219 C 45.703125 76.199219 45.707031 76.199219 45.710938 76.199219 C 46.292969 76.167969 46.875 76.152344 47.460938 76.128906 C 47.753906 76.117188 48.042969 76.113281 48.335938 76.144531 C 48.628906 76.175781 48.917969 76.214844 49.214844 76.21875 C 49.464844 76.222656 49.464844 75.835938 49.214844 75.832031 C 48.691406 75.824219 48.175781 75.71875 47.648438 75.734375 C 47.128906 75.746094 46.605469 75.757812 46.085938 75.785156 C 45.953125 75.792969 45.824219 75.800781 45.691406 75.804688 C 45.691406 75.789062 45.691406 75.769531 45.691406 75.75 C 45.664062 75.160156 45.632812 74.578125 45.570312 73.992188 C 45.507812 73.402344 45.601562 72.824219 45.59375 72.230469 C 45.589844 71.980469 45.203125 71.980469 45.203125 72.230469 C 45.210938 72.757812 45.125 73.277344 45.164062 73.804688 C 45.183594 74.054688 45.222656 74.304688 45.246094 74.558594 C 45.269531 74.828125 45.269531 75.101562 45.28125 75.375 C 45.289062 75.523438 45.296875 75.671875 45.300781 75.820312 C 45.058594 75.828125 44.820312 75.839844 44.582031 75.851562 C 44.332031 75.867188 44.082031 75.882812 43.832031 75.875 C 43.5625 75.867188 43.289062 75.828125 43.019531 75.808594 C 42.511719 75.769531 42.023438 75.855469 41.519531 75.886719 C 41.382812 75.894531 41.25 75.894531 41.117188 75.886719 C 41.113281 75.839844 41.113281 75.796875 41.109375 75.75 C 41.066406 75.164062 41.042969 74.582031 41.019531 73.996094 C 40.992188 73.40625 41.046875 72.820312 41.042969 72.234375 C 41.042969 71.984375 40.652344 71.980469 40.652344 72.234375 C 40.65625 72.757812 40.601562 73.28125 40.621094 73.804688 C 40.640625 74.328125 40.648438 74.855469 40.691406 75.375 C 40.703125 75.539062 40.710938 75.699219 40.71875 75.859375 C 40.464844 75.835938 40.210938 75.8125 39.953125 75.816406 C 39.457031 75.824219 38.953125 75.84375 38.453125 75.875 C 37.929688 75.910156 37.417969 75.980469 36.890625 75.929688 C 36.828125 75.925781 36.765625 75.917969 36.703125 75.910156 C 36.699219 75.835938 36.695312 75.761719 36.6875 75.6875 C 36.65625 75.398438 36.609375 75.105469 36.617188 74.8125 C 36.625 74.527344 36.691406 74.246094 36.730469 73.964844 C 36.8125 73.382812 36.671875 72.816406 36.65625 72.234375 C 36.652344 71.984375 36.261719 71.980469 36.269531 72.234375 C 36.28125 72.753906 36.414062 73.269531 36.363281 73.792969 C 36.339844 74.035156 36.285156 74.273438 36.253906 74.511719 C 36.21875 74.78125 36.226562 75.042969 36.253906 75.3125 C 36.273438 75.5 36.300781 75.6875 36.316406 75.878906 C 36.257812 75.875 36.199219 75.871094 36.140625 75.871094 C 35.867188 75.871094 35.597656 75.894531 35.328125 75.914062 C 34.824219 75.953125 34.332031 75.929688 33.828125 75.910156 C 33.121094 75.882812 32.414062 75.902344 31.710938 75.921875 C 31.695312 74.945312 31.660156 73.96875 31.640625 72.992188 C 31.636719 72.738281 31.632812 72.484375 31.625 72.230469 C 31.617188 71.980469 31.230469 71.980469 31.238281 72.230469 C 31.265625 73.257812 31.300781 74.289062 31.3125 75.316406 C 31.316406 75.523438 31.320312 75.730469 31.320312 75.933594 C 31.136719 75.941406 30.949219 75.945312 30.761719 75.949219 C 30.242188 75.960938 29.722656 76.035156 29.203125 76.003906 C 28.695312 75.972656 28.207031 75.925781 27.699219 75.960938 C 27.339844 75.984375 26.980469 75.996094 26.621094 76.011719 C 26.621094 75.917969 26.621094 75.828125 26.625 75.734375 C 26.65625 74.570312 26.703125 73.398438 26.6875 72.234375 C 26.6875 71.984375 26.296875 71.980469 26.300781 72.234375 C 26.3125 73.273438 26.277344 74.320312 26.246094 75.359375 C 26.242188 75.585938 26.234375 75.804688 26.238281 76.027344 C 26.203125 76.027344 26.171875 76.027344 26.136719 76.03125 C 25.632812 76.054688 25.136719 76.035156 24.636719 76.019531 C 24.054688 75.996094 23.464844 75.996094 22.882812 76.011719 C 22.589844 76.015625 22.300781 76.050781 22.007812 76.070312 C 21.828125 76.082031 21.644531 76.085938 21.464844 76.089844 C 21.460938 75.972656 21.460938 75.855469 21.460938 75.738281 C 21.464844 75.445312 21.464844 75.152344 21.46875 74.863281 C 21.472656 74.566406 21.511719 74.277344 21.539062 73.988281 C 21.59375 73.398438 21.488281 72.820312 21.484375 72.234375 C 21.484375 71.984375 21.09375 71.980469 21.09375 72.234375 C 21.097656 72.757812 21.199219 73.273438 21.164062 73.796875 C 21.148438 74.050781 21.113281 74.296875 21.09375 74.550781 C 21.074219 74.820312 21.078125 75.09375 21.078125 75.363281 C 21.074219 75.609375 21.074219 75.855469 21.074219 76.101562 C 20.824219 76.109375 20.570312 76.121094 20.316406 76.121094 C 20.027344 76.121094 19.734375 76.089844 19.445312 76.066406 C 19.152344 76.042969 18.859375 76.046875 18.566406 76.027344 C 18.273438 76.007812 17.984375 75.980469 17.6875 75.980469 C 17.4375 75.976562 17.4375 76.367188 17.6875 76.367188 C 18.734375 76.375 19.773438 76.535156 20.820312 76.5 C 20.90625 76.496094 20.996094 76.492188 21.082031 76.492188 C 21.085938 76.636719 21.085938 76.78125 21.09375 76.925781 C 21.113281 77.449219 21.097656 77.96875 21.085938 78.492188 C 21.074219 79.015625 21.136719 79.53125 21.148438 80.054688 C 21.152344 80.324219 21.144531 80.597656 21.136719 80.867188 C 21.113281 80.867188 21.089844 80.867188 21.066406 80.867188 C 20.777344 80.855469 20.484375 80.835938 20.195312 80.847656 C 19.914062 80.855469 19.636719 80.90625 19.359375 80.929688 C 19.070312 80.957031 18.800781 80.941406 18.515625 80.886719 C 18.242188 80.832031 17.96875 80.769531 17.691406 80.757812 C 17.441406 80.75 17.441406 81.140625 17.691406 81.148438 C 18.195312 81.164062 18.671875 81.359375 19.179688 81.332031 C 19.421875 81.320312 19.65625 81.28125 19.898438 81.257812 C 20.164062 81.230469 20.425781 81.234375 20.691406 81.242188 C 20.835938 81.246094 20.984375 81.253906 21.128906 81.257812 C 21.128906 81.355469 21.128906 81.457031 21.132812 81.554688 C 21.148438 82.078125 21.203125 82.59375 21.203125 83.117188 C 21.203125 83.640625 21.199219 84.160156 21.246094 84.679688 C 21.28125 85.0625 21.285156 85.4375 21.285156 85.816406 C 21.171875 85.816406 21.058594 85.816406 20.945312 85.8125 C 20.445312 85.800781 19.945312 85.796875 19.445312 85.804688 C 19 85.808594 18.5625 85.804688 18.117188 85.863281 C 17.972656 85.882812 17.828125 85.90625 17.683594 85.902344 C 17.433594 85.890625 17.433594 86.28125 17.683594 86.289062 C 18.03125 86.304688 18.386719 86.207031 18.734375 86.195312 C 19.21875 86.175781 19.707031 86.183594 20.1875 86.1875 C 20.550781 86.1875 20.914062 86.191406 21.28125 86.203125 C 21.28125 86.214844 21.28125 86.230469 21.28125 86.246094 C 21.269531 86.769531 21.324219 87.285156 21.34375 87.808594 C 21.367188 88.296875 21.234375 88.765625 21.226562 89.25 C 21.21875 89.75 21.234375 90.25 21.234375 90.746094 C 21.1875 90.746094 21.140625 90.746094 21.089844 90.746094 C 20.503906 90.734375 19.921875 90.738281 19.332031 90.765625 C 18.742188 90.792969 18.160156 90.714844 17.570312 90.71875 C 17.320312 90.71875 17.320312 91.109375 17.570312 91.105469 C 18.097656 91.105469 18.617188 91.183594 19.144531 91.164062 C 19.667969 91.144531 20.1875 91.113281 20.714844 91.125 C 20.890625 91.128906 21.0625 91.132812 21.234375 91.136719 C 21.234375 91.546875 21.226562 91.960938 21.238281 92.371094 C 21.25 92.882812 21.242188 93.390625 21.335938 93.894531 C 21.382812 94.136719 21.429688 94.375 21.429688 94.621094 C 21.425781 94.878906 21.382812 95.136719 21.355469 95.394531 C 21.34375 95.496094 21.335938 95.597656 21.335938 95.695312 C 21.242188 95.6875 21.148438 95.679688 21.050781 95.667969 C 20.773438 95.632812 20.492188 95.585938 20.210938 95.585938 C 19.917969 95.585938 19.625 95.609375 19.332031 95.621094 C 18.75 95.648438 18.160156 95.660156 17.574219 95.667969 C 17.324219 95.671875 17.324219 96.0625 17.574219 96.058594 C 18.097656 96.050781 18.621094 96.035156 19.144531 96.019531 C 19.660156 96 20.175781 95.941406 20.691406 96.007812 C 20.910156 96.035156 21.125 96.074219 21.34375 96.085938 C 21.363281 96.347656 21.394531 96.605469 21.417969 96.875 C 21.472656 97.453125 21.449219 98.046875 21.453125 98.625 C 21.457031 99.039062 21.476562 99.457031 21.457031 99.871094 C 21.335938 99.871094 21.214844 99.867188 21.09375 99.855469 C 20.503906 99.816406 19.925781 99.804688 19.335938 99.816406 C 19.039062 99.820312 18.746094 99.816406 18.453125 99.84375 C 18.160156 99.867188 17.867188 99.898438 17.574219 99.902344 C 17.324219 99.90625 17.324219 100.292969 17.574219 100.292969 C 18.097656 100.285156 18.621094 100.214844 19.144531 100.207031 C 19.667969 100.203125 20.191406 100.175781 20.714844 100.214844 C 20.953125 100.234375 21.1875 100.257812 21.425781 100.261719 C 21.421875 100.292969 21.417969 100.328125 21.414062 100.359375 C 21.335938 100.925781 21.328125 101.492188 21.3125 102.066406 C 21.304688 102.351562 21.308594 102.628906 21.351562 102.910156 C 21.398438 103.195312 21.460938 103.472656 21.46875 103.757812 C 21.472656 104.007812 21.859375 104.007812 21.855469 103.757812 C 21.847656 103.25 21.6875 102.765625 21.695312 102.253906 C 21.703125 101.746094 21.691406 101.214844 21.753906 100.710938 C 21.773438 100.554688 21.796875 100.402344 21.816406 100.25 C 21.960938 100.238281 22.105469 100.21875 22.25 100.199219 C 22.46875 100.171875 22.6875 100.144531 22.910156 100.152344 C 23.175781 100.160156 23.433594 100.214844 23.695312 100.253906 C 23.933594 100.289062 24.167969 100.308594 24.40625 100.285156 C 24.667969 100.265625 24.925781 100.207031 25.1875 100.179688 C 25.527344 100.144531 25.875 100.148438 26.21875 100.15625 C 26.21875 100.1875 26.21875 100.222656 26.222656 100.257812 C 26.234375 100.546875 26.257812 100.839844 26.253906 101.132812 C 26.25 101.425781 26.226562 101.714844 26.207031 102.007812 C 26.175781 102.589844 26.148438 103.175781 26.136719 103.757812 C 26.132812 104.007812 26.523438 104.007812 26.527344 103.757812 C 26.539062 103.238281 26.5625 102.714844 26.585938 102.195312 C 26.609375 101.671875 26.652344 101.15625 26.628906 100.632812 C 26.621094 100.472656 26.617188 100.320312 26.617188 100.164062 C 26.65625 100.164062 26.699219 100.164062 26.742188 100.164062 C 27.246094 100.167969 27.742188 100.261719 28.246094 100.261719 C 28.769531 100.257812 29.292969 100.222656 29.816406 100.257812 C 30.304688 100.289062 30.773438 100.320312 31.257812 100.289062 C 31.257812 100.359375 31.257812 100.429688 31.257812 100.503906 C 31.277344 100.996094 31.261719 101.480469 31.21875 101.96875 C 31.179688 102.414062 31.179688 102.863281 31.152344 103.308594 C 31.144531 103.457031 31.136719 103.605469 31.125 103.757812 C 31.113281 104.007812 31.5 104.003906 31.515625 103.757812 C 31.539062 103.390625 31.558594 103.027344 31.570312 102.664062 C 31.585938 102.183594 31.644531 101.707031 31.65625 101.226562 C 31.667969 100.902344 31.648438 100.582031 31.640625 100.257812 C 31.804688 100.246094 31.972656 100.234375 32.136719 100.238281 C 32.410156 100.246094 32.683594 100.277344 32.953125 100.296875 C 33.457031 100.339844 33.957031 100.304688 34.460938 100.292969 C 34.984375 100.285156 35.507812 100.300781 36.027344 100.304688 C 36.03125 100.304688 36.035156 100.304688 36.039062 100.304688 C 36.039062 100.320312 36.039062 100.339844 36.039062 100.355469 C 36.0625 100.945312 36.085938 101.527344 36.132812 102.113281 C 36.15625 102.40625 36.15625 102.699219 36.175781 102.992188 C 36.191406 103.285156 36.21875 103.578125 36.222656 103.875 C 36.226562 104.125 36.617188 104.125 36.613281 103.875 C 36.601562 103.351562 36.566406 102.824219 36.535156 102.304688 C 36.519531 102.050781 36.488281 101.800781 36.472656 101.550781 C 36.453125 101.277344 36.457031 101.003906 36.445312 100.734375 C 36.4375 100.589844 36.433594 100.449219 36.425781 100.308594 C 37.320312 100.320312 38.210938 100.351562 39.105469 100.335938 C 39.738281 100.324219 40.371094 100.3125 41.007812 100.296875 C 41.007812 100.316406 41.007812 100.335938 41.003906 100.355469 C 40.972656 100.945312 40.972656 101.523438 40.984375 102.113281 C 40.992188 102.40625 41 102.699219 40.976562 102.992188 C 40.957031 103.285156 40.925781 103.578125 40.925781 103.875 C 40.925781 104.125 41.316406 104.125 41.316406 103.875 C 41.316406 103.347656 41.390625 102.828125 41.378906 102.300781 C 41.367188 101.777344 41.34375 101.253906 41.371094 100.730469 C 41.378906 100.582031 41.390625 100.433594 41.398438 100.285156 C 41.679688 100.277344 41.960938 100.265625 42.242188 100.253906 C 42.808594 100.226562 43.375 100.253906 43.9375 100.253906 C 44.363281 100.253906 44.78125 100.292969 45.203125 100.296875 C 45.203125 100.335938 45.203125 100.378906 45.203125 100.417969 C 45.222656 101.003906 45.234375 101.589844 45.257812 102.175781 C 45.269531 102.464844 45.265625 102.746094 45.234375 103.03125 C 45.203125 103.3125 45.160156 103.589844 45.15625 103.875 C 45.15625 104.125 45.542969 104.125 45.546875 103.875 C 45.550781 103.367188 45.664062 102.875 45.652344 102.367188 C 45.640625 101.84375 45.617188 101.316406 45.605469 100.792969 C 45.601562 100.625 45.597656 100.457031 45.59375 100.289062 C 45.625 100.285156 45.660156 100.285156 45.695312 100.28125 C 45.988281 100.257812 46.28125 100.21875 46.574219 100.214844 C 46.871094 100.210938 47.160156 100.242188 47.453125 100.261719 C 48.039062 100.296875 48.632812 100.285156 49.214844 100.273438 C 49.464844 100.269531 49.464844 99.878906 49.214844 99.886719 Z M 45.1875 93.976562 C 45.226562 94.21875 45.265625 94.457031 45.257812 94.703125 C 45.25 94.902344 45.222656 95.097656 45.195312 95.292969 C 44.484375 95.289062 43.769531 95.28125 43.058594 95.3125 C 42.8125 95.320312 42.566406 95.316406 42.320312 95.339844 C 42.058594 95.367188 41.800781 95.410156 41.542969 95.433594 C 41.453125 95.441406 41.367188 95.445312 41.28125 95.449219 C 41.3125 95.179688 41.347656 94.914062 41.34375 94.644531 C 41.339844 94.140625 41.207031 93.644531 41.230469 93.140625 C 41.242188 92.886719 41.277344 92.636719 41.296875 92.386719 C 41.320312 92.113281 41.3125 91.839844 41.300781 91.570312 C 41.296875 91.496094 41.292969 91.425781 41.289062 91.355469 C 41.335938 91.355469 41.382812 91.355469 41.425781 91.355469 C 41.699219 91.347656 41.96875 91.3125 42.242188 91.289062 C 42.535156 91.269531 42.816406 91.277344 43.105469 91.316406 C 43.382812 91.359375 43.660156 91.410156 43.9375 91.410156 C 44.234375 91.410156 44.523438 91.367188 44.816406 91.339844 C 44.957031 91.328125 45.101562 91.320312 45.242188 91.316406 C 45.226562 91.695312 45.210938 92.070312 45.179688 92.445312 C 45.160156 92.695312 45.132812 92.949219 45.125 93.199219 C 45.117188 93.460938 45.148438 93.71875 45.1875 93.976562 Z M 26.804688 83.738281 C 26.789062 83.488281 26.757812 83.238281 26.746094 82.988281 C 26.730469 82.71875 26.730469 82.449219 26.707031 82.175781 C 26.683594 81.878906 26.667969 81.578125 26.664062 81.277344 C 26.714844 81.277344 26.769531 81.273438 26.824219 81.273438 C 27.867188 81.273438 28.90625 81.3125 29.949219 81.332031 C 30.417969 81.339844 30.882812 81.347656 31.347656 81.347656 C 31.347656 81.4375 31.34375 81.523438 31.34375 81.613281 C 31.328125 82.144531 31.304688 82.675781 31.28125 83.207031 C 31.257812 83.75 31.253906 84.289062 31.253906 84.832031 C 31.253906 85.191406 31.265625 85.546875 31.28125 85.902344 C 30.929688 85.90625 30.578125 85.914062 30.226562 85.917969 C 29.96875 85.925781 29.710938 85.925781 29.449219 85.929688 C 29.1875 85.933594 28.929688 85.972656 28.671875 86.003906 C 28.410156 86.03125 28.152344 86.042969 27.894531 86.011719 C 27.644531 85.984375 27.398438 85.933594 27.148438 85.90625 C 27.035156 85.894531 26.925781 85.894531 26.816406 85.898438 C 26.824219 85.679688 26.832031 85.460938 26.828125 85.242188 C 26.828125 84.742188 26.839844 84.238281 26.804688 83.738281 Z M 45.355469 81.585938 C 45.347656 81.824219 45.308594 82.0625 45.28125 82.304688 C 45.25 82.570312 45.242188 82.832031 45.25 83.097656 C 45.257812 83.617188 45.253906 84.144531 45.296875 84.664062 C 45.316406 84.917969 45.339844 85.167969 45.339844 85.417969 C 45.339844 85.582031 45.324219 85.746094 45.304688 85.90625 C 45.046875 85.90625 44.792969 85.914062 44.53125 85.925781 C 43.996094 85.949219 43.46875 85.933594 42.933594 85.921875 C 42.398438 85.914062 41.871094 85.972656 41.335938 85.980469 C 41.277344 85.984375 41.214844 85.984375 41.15625 85.988281 C 41.164062 85.796875 41.171875 85.609375 41.171875 85.417969 C 41.171875 84.917969 41.230469 84.414062 41.214844 83.914062 C 41.199219 83.394531 41.191406 82.859375 41.136719 82.34375 C 41.109375 82.09375 41.070312 81.84375 41.058594 81.589844 C 41.054688 81.503906 41.054688 81.417969 41.054688 81.332031 C 41.4375 81.300781 41.816406 81.316406 42.210938 81.335938 C 42.503906 81.347656 42.792969 81.34375 43.085938 81.363281 C 43.378906 81.386719 43.667969 81.421875 43.960938 81.417969 C 44.425781 81.417969 44.890625 81.390625 45.355469 81.386719 C 45.359375 81.453125 45.359375 81.519531 45.355469 81.585938 Z M 40.667969 81.589844 C 40.679688 81.84375 40.71875 82.09375 40.746094 82.34375 C 40.777344 82.617188 40.777344 82.886719 40.789062 83.160156 C 40.8125 83.6875 40.839844 84.203125 40.808594 84.730469 C 40.785156 85.152344 40.78125 85.578125 40.769531 86.003906 C 40.429688 86.023438 40.089844 86.039062 39.753906 86.007812 C 39.496094 85.984375 39.238281 85.933594 38.980469 85.910156 C 38.710938 85.886719 38.445312 85.902344 38.179688 85.917969 C 37.675781 85.949219 37.175781 85.964844 36.675781 86.003906 C 36.695312 85.769531 36.707031 85.535156 36.703125 85.300781 C 36.6875 84.792969 36.570312 84.300781 36.617188 83.789062 C 36.640625 83.535156 36.679688 83.285156 36.703125 83.035156 C 36.722656 82.769531 36.707031 82.507812 36.671875 82.246094 C 36.644531 82.003906 36.605469 81.765625 36.601562 81.523438 C 36.601562 81.476562 36.601562 81.429688 36.605469 81.382812 C 36.972656 81.371094 37.339844 81.355469 37.707031 81.347656 C 38.226562 81.335938 38.738281 81.296875 39.253906 81.375 C 39.488281 81.414062 39.722656 81.453125 39.960938 81.460938 C 40.199219 81.464844 40.433594 81.425781 40.664062 81.386719 C 40.664062 81.453125 40.664062 81.523438 40.667969 81.589844 Z M 40.765625 86.976562 C 40.785156 87.238281 40.832031 87.496094 40.859375 87.757812 C 40.90625 88.277344 40.796875 88.789062 40.789062 89.3125 C 40.785156 89.832031 40.863281 90.355469 40.878906 90.878906 C 40.882812 90.910156 40.882812 90.941406 40.882812 90.976562 C 40.542969 90.980469 40.199219 90.980469 39.855469 90.980469 C 39.355469 90.980469 38.851562 90.988281 38.347656 90.984375 C 37.832031 90.980469 37.308594 91.003906 36.796875 90.917969 C 36.707031 90.902344 36.613281 90.882812 36.519531 90.871094 C 36.519531 90.832031 36.519531 90.792969 36.519531 90.753906 C 36.519531 90.480469 36.558594 90.210938 36.59375 89.9375 C 36.625 89.6875 36.648438 89.441406 36.636719 89.1875 C 36.625 88.914062 36.578125 88.644531 36.558594 88.371094 C 36.519531 87.867188 36.59375 87.367188 36.609375 86.863281 C 36.613281 86.707031 36.625 86.550781 36.640625 86.390625 C 36.890625 86.371094 37.144531 86.347656 37.394531 86.34375 C 37.921875 86.335938 38.453125 86.25 38.980469 86.296875 C 39.238281 86.320312 39.496094 86.371094 39.753906 86.394531 C 40.011719 86.417969 40.269531 86.40625 40.527344 86.394531 C 40.601562 86.394531 40.679688 86.390625 40.757812 86.386719 C 40.75 86.585938 40.75 86.78125 40.765625 86.976562 Z M 31.671875 90.324219 C 31.699219 90.066406 31.753906 89.808594 31.777344 89.546875 C 31.800781 89.300781 31.78125 89.054688 31.742188 88.808594 C 31.703125 88.546875 31.648438 88.289062 31.644531 88.023438 C 31.640625 87.753906 31.664062 87.480469 31.679688 87.210938 C 31.699219 86.898438 31.691406 86.589844 31.679688 86.28125 C 31.996094 86.273438 32.3125 86.277344 32.625 86.332031 C 32.878906 86.375 33.132812 86.429688 33.394531 86.4375 C 33.652344 86.445312 33.914062 86.414062 34.171875 86.390625 C 34.722656 86.339844 35.25 86.386719 35.800781 86.417969 C 35.949219 86.425781 36.09375 86.425781 36.242188 86.417969 C 36.210938 86.839844 36.195312 87.257812 36.171875 87.679688 C 36.160156 87.910156 36.152344 88.140625 36.167969 88.371094 C 36.191406 88.644531 36.234375 88.914062 36.246094 89.1875 C 36.273438 89.714844 36.132812 90.230469 36.128906 90.753906 C 36.128906 90.777344 36.128906 90.800781 36.128906 90.824219 C 36.117188 90.824219 36.101562 90.824219 36.089844 90.820312 C 35.816406 90.8125 35.542969 90.847656 35.273438 90.871094 C 34.753906 90.925781 34.226562 90.902344 33.703125 90.898438 C 33.179688 90.898438 32.65625 90.90625 32.136719 90.902344 C 31.980469 90.902344 31.824219 90.898438 31.667969 90.894531 C 31.652344 90.707031 31.648438 90.515625 31.671875 90.324219 Z M 36.3125 83.035156 C 36.273438 83.558594 36.183594 84.054688 36.242188 84.582031 C 36.269531 84.820312 36.304688 85.058594 36.3125 85.300781 C 36.320312 85.542969 36.296875 85.785156 36.273438 86.027344 C 35.84375 86.035156 35.421875 85.992188 34.988281 85.972656 C 34.453125 85.945312 33.925781 86.066406 33.394531 86.050781 C 33.128906 86.042969 32.871094 85.976562 32.609375 85.9375 C 32.355469 85.898438 32.109375 85.890625 31.855469 85.894531 C 31.792969 85.894531 31.726562 85.894531 31.660156 85.898438 C 31.65625 85.804688 31.652344 85.710938 31.648438 85.617188 C 31.605469 84.554688 31.640625 83.484375 31.6875 82.425781 C 31.703125 82.0625 31.71875 81.707031 31.726562 81.347656 C 32.175781 81.347656 32.628906 81.339844 33.078125 81.316406 C 33.585938 81.292969 34.074219 81.371094 34.582031 81.394531 C 35.097656 81.421875 35.625 81.394531 36.144531 81.390625 C 36.167969 81.390625 36.191406 81.390625 36.214844 81.390625 C 36.214844 81.433594 36.210938 81.480469 36.214844 81.523438 C 36.222656 82.03125 36.351562 82.523438 36.3125 83.035156 Z M 27.148438 86.296875 C 27.40625 86.324219 27.664062 86.378906 27.925781 86.40625 C 28.4375 86.457031 28.9375 86.328125 29.449219 86.320312 C 29.980469 86.308594 30.511719 86.304688 31.042969 86.300781 C 31.128906 86.296875 31.214844 86.296875 31.296875 86.292969 C 31.300781 86.339844 31.304688 86.382812 31.304688 86.429688 C 31.324219 86.960938 31.246094 87.492188 31.253906 88.023438 C 31.265625 88.550781 31.4375 89.050781 31.386719 89.578125 C 31.359375 89.828125 31.308594 90.074219 31.28125 90.324219 C 31.261719 90.511719 31.261719 90.699219 31.273438 90.886719 C 31.039062 90.882812 30.804688 90.882812 30.566406 90.882812 C 30.050781 90.890625 29.523438 90.953125 29.011719 90.863281 C 28.773438 90.820312 28.539062 90.765625 28.300781 90.742188 C 28.0625 90.71875 27.824219 90.746094 27.589844 90.785156 C 27.347656 90.824219 27.105469 90.878906 26.859375 90.882812 C 26.8125 90.886719 26.765625 90.886719 26.71875 90.886719 C 26.75 90.027344 26.738281 89.164062 26.75 88.304688 C 26.757812 87.804688 26.777344 87.304688 26.785156 86.804688 C 26.785156 86.632812 26.792969 86.457031 26.800781 86.285156 C 26.914062 86.28125 27.03125 86.285156 27.148438 86.296875 Z M 26.765625 93.75 C 26.753906 93.480469 26.761719 93.207031 26.742188 92.9375 C 26.710938 92.429688 26.660156 91.945312 26.691406 91.433594 C 26.695312 91.382812 26.699219 91.328125 26.699219 91.273438 C 26.753906 91.273438 26.808594 91.273438 26.859375 91.273438 C 27.34375 91.261719 27.8125 91.082031 28.300781 91.128906 C 28.546875 91.15625 28.785156 91.21875 29.027344 91.257812 C 29.289062 91.296875 29.546875 91.300781 29.8125 91.292969 C 30.3125 91.28125 30.8125 91.28125 31.3125 91.285156 C 31.335938 91.480469 31.359375 91.679688 31.363281 91.878906 C 31.367188 92.140625 31.339844 92.398438 31.320312 92.660156 C 31.273438 93.191406 31.277344 93.722656 31.269531 94.257812 C 31.265625 94.675781 31.3125 95.085938 31.332031 95.5 C 31.121094 95.507812 30.90625 95.515625 30.695312 95.519531 C 30.167969 95.53125 29.652344 95.597656 29.125 95.585938 C 28.613281 95.574219 28.089844 95.585938 27.582031 95.527344 C 27.34375 95.5 27.101562 95.464844 26.859375 95.464844 C 26.808594 95.464844 26.761719 95.464844 26.710938 95.464844 C 26.742188 95.144531 26.785156 94.824219 26.785156 94.5 C 26.785156 94.25 26.773438 94 26.765625 93.75 Z M 31.679688 95.050781 C 31.636719 94.527344 31.667969 94 31.671875 93.472656 C 31.679688 92.929688 31.765625 92.390625 31.75 91.847656 C 31.746094 91.660156 31.726562 91.472656 31.707031 91.285156 C 32.121094 91.289062 32.535156 91.289062 32.949219 91.285156 C 33.472656 91.28125 33.996094 91.289062 34.519531 91.292969 C 35.042969 91.296875 35.566406 91.191406 36.089844 91.210938 C 36.105469 91.210938 36.121094 91.214844 36.136719 91.214844 C 36.148438 91.585938 36.167969 91.953125 36.15625 92.324219 C 36.140625 92.847656 36.121094 93.367188 36.121094 93.890625 C 36.117188 94.417969 36.125 94.933594 36.175781 95.460938 C 36.175781 95.480469 36.179688 95.503906 36.179688 95.523438 C 35.921875 95.542969 35.660156 95.535156 35.402344 95.539062 C 34.878906 95.546875 34.355469 95.550781 33.832031 95.550781 C 33.582031 95.550781 33.328125 95.558594 33.078125 95.546875 C 32.804688 95.53125 32.535156 95.503906 32.261719 95.496094 C 32.078125 95.492188 31.890625 95.492188 31.707031 95.496094 C 31.699219 95.347656 31.691406 95.199219 31.679688 95.050781 Z M 36.507812 94.644531 C 36.503906 94.125 36.503906 93.597656 36.519531 93.074219 C 36.53125 92.550781 36.5625 92.03125 36.542969 91.507812 C 36.539062 91.425781 36.535156 91.34375 36.53125 91.261719 C 36.625 91.28125 36.71875 91.296875 36.8125 91.3125 C 37.074219 91.351562 37.332031 91.367188 37.597656 91.367188 C 38.097656 91.371094 38.601562 91.378906 39.101562 91.375 C 39.625 91.371094 40.148438 91.375 40.671875 91.363281 C 40.75 91.363281 40.824219 91.359375 40.902344 91.359375 C 40.917969 91.703125 40.933594 92.042969 40.90625 92.386719 C 40.886719 92.636719 40.851562 92.886719 40.839844 93.140625 C 40.828125 93.402344 40.855469 93.664062 40.886719 93.925781 C 40.917969 94.164062 40.953125 94.402344 40.953125 94.644531 C 40.957031 94.90625 40.914062 95.164062 40.882812 95.421875 C 40.882812 95.4375 40.878906 95.449219 40.878906 95.460938 C 40.582031 95.46875 40.28125 95.464844 39.984375 95.46875 C 39.46875 95.476562 38.941406 95.519531 38.425781 95.484375 C 37.917969 95.449219 37.4375 95.355469 36.925781 95.421875 C 36.804688 95.4375 36.6875 95.460938 36.566406 95.476562 C 36.539062 95.199219 36.507812 94.925781 36.507812 94.644531 Z M 44.503906 90.984375 C 44.253906 91.011719 44.007812 91.03125 43.757812 91.015625 C 43.496094 90.996094 43.238281 90.941406 42.976562 90.910156 C 42.457031 90.847656 41.945312 90.949219 41.425781 90.964844 C 41.375 90.964844 41.328125 90.96875 41.277344 90.96875 C 41.265625 90.667969 41.253906 90.363281 41.226562 90.0625 C 41.203125 89.8125 41.175781 89.5625 41.179688 89.3125 C 41.183594 89.039062 41.21875 88.765625 41.242188 88.496094 C 41.289062 87.976562 41.195312 87.492188 41.152344 86.976562 C 41.136719 86.777344 41.136719 86.578125 41.140625 86.375 C 41.480469 86.363281 41.816406 86.351562 42.152344 86.332031 C 42.683594 86.296875 43.214844 86.328125 43.746094 86.332031 C 44.253906 86.339844 44.757812 86.292969 45.261719 86.285156 C 45.210938 86.792969 45.25 87.296875 45.261719 87.804688 C 45.273438 88.308594 45.191406 88.804688 45.183594 89.308594 C 45.171875 89.835938 45.277344 90.351562 45.261719 90.878906 C 45.257812 90.894531 45.257812 90.914062 45.257812 90.933594 C 45.007812 90.941406 44.753906 90.957031 44.503906 90.984375 Z M 42.269531 76.203125 C 42.859375 76.148438 43.433594 76.273438 44.019531 76.265625 C 44.445312 76.257812 44.875 76.242188 45.300781 76.21875 C 45.300781 76.460938 45.289062 76.699219 45.265625 76.945312 C 45.214844 77.46875 45.253906 77.988281 45.273438 78.515625 C 45.296875 79.039062 45.21875 79.558594 45.214844 80.082031 C 45.210938 80.390625 45.273438 80.695312 45.316406 81 C 45.050781 81 44.789062 81.003906 44.523438 81.015625 C 44.273438 81.023438 44.023438 81.035156 43.773438 81.027344 C 43.503906 81.015625 43.234375 80.984375 42.960938 80.96875 C 42.710938 80.953125 42.460938 80.957031 42.210938 80.945312 C 41.941406 80.933594 41.667969 80.914062 41.398438 80.914062 C 41.285156 80.914062 41.175781 80.921875 41.066406 80.9375 C 41.070312 80.882812 41.074219 80.828125 41.078125 80.777344 C 41.105469 80.246094 41.070312 79.734375 41.035156 79.207031 C 40.996094 78.636719 41.078125 78.078125 41.082031 77.507812 C 41.082031 77.09375 41.117188 76.683594 41.121094 76.269531 C 41.503906 76.273438 41.878906 76.238281 42.269531 76.203125 Z M 37.703125 76.332031 C 37.953125 76.3125 38.203125 76.28125 38.453125 76.261719 C 38.703125 76.246094 38.953125 76.25 39.203125 76.238281 C 39.71875 76.214844 40.214844 76.207031 40.726562 76.25 C 40.726562 76.480469 40.722656 76.710938 40.710938 76.945312 C 40.695312 77.195312 40.699219 77.445312 40.691406 77.699219 C 40.683594 77.96875 40.652344 78.242188 40.636719 78.515625 C 40.609375 79.019531 40.6875 79.515625 40.703125 80.019531 C 40.714844 80.347656 40.691406 80.671875 40.675781 80.996094 C 40.4375 81.039062 40.203125 81.078125 39.960938 81.070312 C 39.71875 81.066406 39.476562 81.015625 39.238281 80.984375 C 38.976562 80.945312 38.722656 80.933594 38.457031 80.9375 C 37.9375 80.949219 37.414062 80.953125 36.894531 80.976562 C 36.804688 80.980469 36.714844 80.980469 36.625 80.984375 C 36.632812 80.894531 36.636719 80.804688 36.644531 80.710938 C 36.683594 80.207031 36.664062 79.710938 36.652344 79.207031 C 36.644531 78.910156 36.652344 78.621094 36.683594 78.328125 C 36.714844 78.03125 36.75 77.742188 36.75 77.445312 C 36.75 77.066406 36.746094 76.679688 36.726562 76.292969 C 37.050781 76.324219 37.375 76.355469 37.703125 76.332031 Z M 33.078125 76.296875 C 33.597656 76.296875 34.117188 76.328125 34.640625 76.332031 C 35.140625 76.335938 35.640625 76.257812 36.140625 76.261719 C 36.203125 76.261719 36.269531 76.261719 36.332031 76.265625 C 36.335938 76.472656 36.339844 76.675781 36.347656 76.882812 C 36.355469 77.132812 36.367188 77.382812 36.359375 77.636719 C 36.347656 77.910156 36.304688 78.179688 36.28125 78.453125 C 36.230469 78.972656 36.28125 79.5 36.285156 80.019531 C 36.285156 80.347656 36.253906 80.671875 36.230469 80.996094 C 35.929688 81 35.632812 81.007812 35.332031 81.007812 C 35.082031 81.011719 34.828125 81.019531 34.582031 81.007812 C 34.308594 80.992188 34.039062 80.953125 33.765625 80.933594 C 33.265625 80.894531 32.765625 80.960938 32.265625 80.96875 C 32.085938 80.972656 31.90625 80.972656 31.730469 80.972656 C 31.730469 80.914062 31.730469 80.855469 31.730469 80.796875 C 31.726562 80.265625 31.71875 79.734375 31.703125 79.199219 C 31.695312 78.933594 31.699219 78.671875 31.667969 78.40625 C 31.640625 78.15625 31.597656 77.910156 31.582031 77.664062 C 31.550781 77.207031 31.675781 76.765625 31.707031 76.3125 C 32.164062 76.300781 32.621094 76.296875 33.078125 76.296875 Z M 28.449219 76.332031 C 28.699219 76.34375 28.949219 76.378906 29.203125 76.394531 C 29.472656 76.410156 29.742188 76.398438 30.015625 76.378906 C 30.449219 76.351562 30.882812 76.335938 31.316406 76.324219 C 31.304688 76.511719 31.273438 76.699219 31.242188 76.890625 C 31.203125 77.148438 31.175781 77.402344 31.191406 77.664062 C 31.210938 77.910156 31.253906 78.15625 31.28125 78.40625 C 31.339844 78.9375 31.328125 79.484375 31.335938 80.015625 C 31.339844 80.332031 31.34375 80.648438 31.347656 80.964844 C 31.132812 80.960938 30.917969 80.957031 30.703125 80.953125 C 29.65625 80.945312 28.617188 80.890625 27.574219 80.886719 C 27.265625 80.886719 26.960938 80.890625 26.65625 80.894531 C 26.652344 80.300781 26.664062 79.707031 26.65625 79.113281 C 26.652344 78.816406 26.660156 78.527344 26.695312 78.234375 C 26.730469 77.945312 26.773438 77.65625 26.757812 77.367188 C 26.742188 77.085938 26.683594 76.816406 26.648438 76.539062 C 26.640625 76.492188 26.636719 76.445312 26.632812 76.402344 C 26.738281 76.398438 26.84375 76.394531 26.949219 76.390625 C 27.449219 76.378906 27.949219 76.304688 28.449219 76.332031 Z M 22.320312 76.433594 C 22.84375 76.390625 23.363281 76.398438 23.886719 76.402344 C 24.386719 76.402344 24.886719 76.429688 25.386719 76.4375 C 25.675781 76.441406 25.964844 76.429688 26.253906 76.417969 C 26.265625 76.550781 26.277344 76.6875 26.300781 76.820312 C 26.335938 77.0625 26.375 77.304688 26.375 77.546875 C 26.367188 77.820312 26.324219 78.089844 26.292969 78.359375 C 26.234375 78.878906 26.273438 79.40625 26.28125 79.925781 C 26.285156 80.253906 26.277344 80.578125 26.273438 80.90625 C 26.183594 80.910156 26.097656 80.910156 26.007812 80.914062 C 25.78125 80.921875 25.550781 80.914062 25.320312 80.925781 C 25.046875 80.941406 24.777344 80.972656 24.507812 80.988281 C 23.9375 81.015625 23.386719 80.835938 22.820312 80.84375 C 22.386719 80.847656 21.957031 80.867188 21.527344 80.871094 C 21.527344 80.828125 21.527344 80.785156 21.527344 80.742188 C 21.542969 80.238281 21.519531 79.746094 21.488281 79.242188 C 21.453125 78.65625 21.5 78.074219 21.496094 77.488281 C 21.496094 77.152344 21.480469 76.816406 21.472656 76.480469 C 21.753906 76.46875 22.039062 76.457031 22.320312 76.433594 Z M 21.59375 83.871094 C 21.589844 83.347656 21.605469 82.824219 21.570312 82.304688 C 21.546875 81.957031 21.53125 81.609375 21.527344 81.265625 C 21.769531 81.265625 22.011719 81.265625 22.253906 81.253906 C 22.503906 81.238281 22.753906 81.222656 23.003906 81.234375 C 23.265625 81.242188 23.527344 81.300781 23.785156 81.335938 C 24.304688 81.410156 24.800781 81.339844 25.320312 81.316406 C 25.636719 81.300781 25.953125 81.289062 26.269531 81.28125 C 26.269531 81.332031 26.269531 81.378906 26.269531 81.425781 C 26.273438 81.675781 26.296875 81.925781 26.320312 82.175781 C 26.339844 82.449219 26.34375 82.71875 26.355469 82.988281 C 26.386719 83.492188 26.425781 83.988281 26.433594 84.488281 C 26.4375 84.96875 26.429688 85.445312 26.421875 85.921875 C 26.15625 85.949219 25.894531 85.988281 25.625 85.992188 C 25.085938 86 24.546875 85.96875 24.007812 85.960938 C 23.5 85.957031 22.984375 85.980469 22.476562 85.917969 C 22.230469 85.886719 21.988281 85.84375 21.742188 85.832031 C 21.71875 85.828125 21.699219 85.828125 21.675781 85.828125 C 21.679688 85.695312 21.683594 85.5625 21.679688 85.433594 C 21.675781 84.910156 21.59375 84.390625 21.59375 83.871094 Z M 21.613281 89.25 C 21.617188 88.988281 21.667969 88.730469 21.703125 88.472656 C 21.769531 87.976562 21.707031 87.488281 21.679688 86.996094 C 21.664062 86.734375 21.664062 86.476562 21.667969 86.214844 C 21.695312 86.21875 21.71875 86.21875 21.742188 86.21875 C 21.988281 86.234375 22.230469 86.277344 22.476562 86.304688 C 22.738281 86.339844 22.996094 86.339844 23.257812 86.34375 C 23.777344 86.347656 24.292969 86.351562 24.808594 86.363281 C 25.082031 86.371094 25.355469 86.386719 25.625 86.382812 C 25.875 86.378906 26.121094 86.339844 26.367188 86.3125 C 26.382812 86.3125 26.394531 86.3125 26.410156 86.308594 C 26.398438 86.746094 26.382812 87.179688 26.371094 87.617188 C 26.34375 88.640625 26.363281 89.660156 26.34375 90.683594 C 26.34375 90.75 26.339844 90.8125 26.335938 90.878906 C 26.242188 90.875 26.144531 90.875 26.050781 90.871094 C 25.796875 90.867188 25.546875 90.871094 25.296875 90.855469 C 25.023438 90.839844 24.753906 90.800781 24.480469 90.777344 C 23.910156 90.730469 23.355469 90.878906 22.789062 90.867188 C 22.507812 90.859375 22.230469 90.808594 21.949219 90.777344 C 21.839844 90.765625 21.730469 90.757812 21.617188 90.753906 C 21.617188 90.5 21.621094 90.25 21.621094 89.996094 C 21.617188 89.746094 21.609375 89.5 21.613281 89.25 Z M 22.25 91.203125 C 22.488281 91.234375 22.726562 91.261719 22.96875 91.253906 C 23.230469 91.242188 23.488281 91.203125 23.746094 91.175781 C 24.273438 91.121094 24.773438 91.214844 25.296875 91.246094 C 25.628906 91.265625 25.972656 91.273438 26.3125 91.277344 C 26.292969 91.578125 26.273438 91.882812 26.289062 92.183594 C 26.304688 92.4375 26.335938 92.6875 26.355469 92.9375 C 26.371094 93.207031 26.363281 93.480469 26.375 93.75 C 26.394531 94.28125 26.390625 94.789062 26.328125 95.3125 C 26.320312 95.371094 26.316406 95.429688 26.3125 95.488281 C 26.226562 95.492188 26.136719 95.5 26.050781 95.507812 C 25.523438 95.546875 25.007812 95.519531 24.480469 95.5 C 24.191406 95.488281 23.917969 95.503906 23.636719 95.558594 C 23.351562 95.609375 23.078125 95.671875 22.785156 95.675781 C 22.433594 95.683594 22.078125 95.707031 21.71875 95.707031 C 21.742188 95.34375 21.8125 94.984375 21.816406 94.621094 C 21.824219 94.113281 21.648438 93.628906 21.640625 93.125 C 21.632812 92.601562 21.613281 92.082031 21.617188 91.558594 C 21.617188 91.421875 21.617188 91.289062 21.617188 91.152344 C 21.828125 91.160156 22.039062 91.175781 22.25 91.203125 Z M 25.1875 99.792969 C 24.925781 99.820312 24.667969 99.875 24.40625 99.898438 C 23.859375 99.945312 23.335938 99.753906 22.789062 99.761719 C 22.507812 99.765625 22.230469 99.816406 21.953125 99.847656 C 21.917969 99.851562 21.882812 99.855469 21.847656 99.855469 C 21.855469 99.632812 21.847656 99.410156 21.84375 99.1875 C 21.84375 98.667969 21.835938 98.144531 21.832031 97.625 C 21.828125 97.375 21.832031 97.125 21.808594 96.875 C 21.785156 96.613281 21.742188 96.355469 21.722656 96.09375 C 21.890625 96.089844 22.058594 96.082031 22.222656 96.078125 C 22.472656 96.070312 22.722656 96.078125 22.96875 96.0625 C 23.230469 96.042969 23.484375 95.980469 23.738281 95.933594 C 24.253906 95.835938 24.777344 95.914062 25.296875 95.925781 C 25.625 95.929688 25.953125 95.898438 26.285156 95.875 C 26.265625 96.1875 26.257812 96.503906 26.246094 96.816406 C 26.230469 97.109375 26.234375 97.398438 26.257812 97.691406 C 26.28125 97.984375 26.3125 98.273438 26.304688 98.566406 C 26.292969 98.972656 26.242188 99.375 26.226562 99.777344 C 26.125 99.777344 26.027344 99.777344 25.925781 99.777344 C 25.679688 99.777344 25.433594 99.765625 25.1875 99.792969 Z M 30.570312 99.921875 C 30.042969 99.898438 29.527344 99.847656 29 99.859375 C 28.496094 99.867188 28 99.878906 27.496094 99.828125 C 27.203125 99.796875 26.910156 99.785156 26.617188 99.78125 C 26.621094 99.566406 26.628906 99.347656 26.652344 99.128906 C 26.675781 98.882812 26.699219 98.632812 26.695312 98.378906 C 26.6875 98.109375 26.65625 97.835938 26.636719 97.566406 C 26.601562 97.042969 26.660156 96.523438 26.671875 96 C 26.671875 95.953125 26.675781 95.902344 26.675781 95.855469 C 26.738281 95.851562 26.800781 95.851562 26.859375 95.851562 C 27.101562 95.855469 27.34375 95.890625 27.582031 95.917969 C 27.847656 95.945312 28.105469 95.949219 28.371094 95.953125 C 28.898438 95.960938 29.417969 95.992188 29.941406 95.953125 C 30.410156 95.921875 30.875 95.90625 31.34375 95.898438 C 31.34375 96.402344 31.289062 96.90625 31.300781 97.410156 C 31.308594 97.921875 31.347656 98.429688 31.308594 98.941406 C 31.285156 99.261719 31.265625 99.578125 31.257812 99.898438 C 31.03125 99.917969 30.800781 99.929688 30.570312 99.921875 Z M 33.644531 99.929688 C 33.140625 99.9375 32.640625 99.859375 32.136719 99.851562 C 31.972656 99.847656 31.804688 99.855469 31.636719 99.867188 C 31.636719 99.8125 31.636719 99.761719 31.640625 99.707031 C 31.660156 99.199219 31.730469 98.699219 31.714844 98.1875 C 31.699219 97.660156 31.683594 97.136719 31.707031 96.609375 C 31.71875 96.367188 31.722656 96.128906 31.71875 95.894531 C 32.171875 95.890625 32.621094 95.914062 33.078125 95.933594 C 33.597656 95.960938 34.125 95.945312 34.648438 95.941406 C 35.160156 95.933594 35.679688 95.949219 36.191406 95.910156 C 36.183594 96.246094 36.144531 96.578125 36.109375 96.921875 C 36.050781 97.503906 36.167969 98.078125 36.152344 98.660156 C 36.144531 98.941406 36.09375 99.21875 36.058594 99.496094 C 36.042969 99.636719 36.035156 99.777344 36.03125 99.914062 C 35.234375 99.910156 34.441406 99.914062 33.644531 99.929688 Z M 38.351562 99.945312 C 37.828125 99.9375 37.304688 99.925781 36.78125 99.921875 C 36.660156 99.917969 36.539062 99.917969 36.421875 99.917969 C 36.421875 99.671875 36.457031 99.433594 36.488281 99.1875 C 36.5625 98.671875 36.519531 98.175781 36.488281 97.65625 C 36.457031 97.140625 36.554688 96.652344 36.585938 96.144531 C 36.589844 96.050781 36.589844 95.960938 36.589844 95.867188 C 36.960938 95.820312 37.324219 95.757812 37.707031 95.792969 C 37.945312 95.816406 38.183594 95.859375 38.425781 95.875 C 38.691406 95.894531 38.960938 95.878906 39.230469 95.871094 C 39.753906 95.859375 40.277344 95.851562 40.796875 95.84375 C 40.816406 95.84375 40.832031 95.84375 40.851562 95.84375 C 40.839844 96.214844 40.863281 96.589844 40.875 96.96875 C 40.890625 97.53125 40.882812 98.097656 40.902344 98.660156 C 40.914062 98.941406 40.957031 99.21875 40.988281 99.496094 C 41.003906 99.636719 41.011719 99.773438 41.011719 99.914062 C 40.628906 99.921875 40.242188 99.929688 39.859375 99.929688 C 39.355469 99.9375 38.851562 99.957031 38.351562 99.945312 Z M 44.503906 99.882812 C 44 99.851562 43.496094 99.859375 42.996094 99.855469 C 42.472656 99.847656 41.949219 99.894531 41.425781 99.902344 C 41.417969 99.902344 41.410156 99.902344 41.402344 99.90625 C 41.398438 99.667969 41.371094 99.433594 41.339844 99.195312 C 41.277344 98.6875 41.285156 98.171875 41.273438 97.65625 C 41.265625 97.15625 41.246094 96.652344 41.234375 96.152344 C 41.234375 96.046875 41.238281 95.941406 41.246094 95.835938 C 41.34375 95.832031 41.441406 95.832031 41.542969 95.820312 C 41.800781 95.800781 42.058594 95.753906 42.320312 95.730469 C 42.605469 95.703125 42.894531 95.707031 43.183594 95.695312 C 43.476562 95.683594 43.769531 95.667969 44.0625 95.667969 C 44.425781 95.667969 44.785156 95.679688 45.148438 95.683594 C 45.132812 95.855469 45.125 96.027344 45.144531 96.199219 C 45.167969 96.460938 45.226562 96.71875 45.257812 96.980469 C 45.328125 97.554688 45.097656 98.089844 45.105469 98.660156 C 45.109375 98.953125 45.152344 99.246094 45.179688 99.539062 C 45.1875 99.664062 45.191406 99.789062 45.195312 99.917969 C 44.964844 99.914062 44.734375 99.898438 44.503906 99.882812 Z M 44.503906 99.882812 " fill-opacity="1" fill-rule="nonzero"/></g><g clip-path="url(#22a6868cdb)"><path fill="#ffffff" d="M 37.394531 38.285156 L 98.496094 38.285156 L 98.496094 84.589844 L 37.394531 84.589844 Z M 37.394531 38.285156 " fill-opacity="1" fill-rule="nonzero"/><path fill="#ffffff" d="M 37.394531 38.285156 L 98.496094 38.285156 L 98.496094 84.589844 L 37.394531 84.589844 Z M 37.394531 38.285156 " fill-opacity="1" fill-rule="nonzero"/></g><g clip-path="url(#c3cf6def62)"><path stroke-linecap="butt" transform="matrix(0.969894, 0, 0, 0.964662, 31.99995, 38.283996)" fill="none" stroke-linejoin="miter" d="M 0.0000518813 1.001391 L 74.122175 1.001391 " stroke="#000000" stroke-width="2" stroke-opacity="1" stroke-miterlimit="4"/></g><g clip-path="url(#bb50402acf)"><path stroke-linecap="butt" transform="matrix(0.969894, 0, 0, 0.964662, 35.685544, 82.658442)" fill="none" stroke-linejoin="miter" d="M 0.00201669 0.997916 L 74.12414 0.997916 " stroke="#000000" stroke-width="2" stroke-opacity="1" stroke-miterlimit="4"/></g><g clip-path="url(#d2466b0fd2)"><path stroke-linecap="butt" transform="matrix(0, 0.964662, -0.969894, 0, 39.335075, 39.248656)" fill="none" stroke-linejoin="miter" d="M 0.00139288 0.997931 L 48.002323 0.997931 " stroke="#000000" stroke-width="2" stroke-opacity="1" stroke-miterlimit="4"/></g><g clip-path="url(#5eabaffcf6)"><path stroke-linecap="butt" transform="matrix(0, 0.964662, -0.969894, 0, 98.498609, 39.248656)" fill="none" stroke-linejoin="miter" d="M 0.00139288 1.001414 L 48.002323 1.001414 " stroke="#000000" stroke-width="2" stroke-opacity="1" stroke-miterlimit="4"/></g><g clip-path="url(#a9c44d6e04)"><path fill="#000000" d="M 73.097656 54.300781 C 72.601562 53.609375 71.910156 53.082031 71.027344 52.722656 C 70.15625 52.359375 69.144531 52.175781 67.996094 52.175781 C 66.953125 52.175781 66.003906 52.355469 65.140625 52.710938 C 64.285156 53.066406 63.589844 53.617188 63.0625 54.339844 C 62.648438 54.910156 62.386719 55.609375 62.285156 56.429688 C 62.238281 56.78125 62.527344 57.097656 62.902344 57.097656 L 65.207031 57.097656 C 65.503906 57.097656 65.753906 56.894531 65.816406 56.617188 C 65.871094 56.367188 65.972656 56.144531 66.101562 55.953125 C 66.3125 55.644531 66.589844 55.414062 66.921875 55.253906 C 67.253906 55.097656 67.605469 55.015625 67.980469 55.015625 C 68.371094 55.015625 68.71875 55.09375 69.039062 55.253906 C 69.355469 55.402344 69.609375 55.628906 69.800781 55.917969 C 69.988281 56.207031 70.089844 56.542969 70.089844 56.925781 C 70.089844 57.285156 70 57.617188 69.832031 57.90625 C 69.667969 58.195312 69.445312 58.464844 69.164062 58.703125 C 68.878906 58.945312 68.566406 59.171875 68.207031 59.394531 C 67.730469 59.683594 67.320312 60.003906 66.984375 60.359375 C 66.644531 60.714844 66.390625 61.179688 66.210938 61.757812 C 66.039062 62.34375 65.945312 63.113281 65.941406 64.082031 L 65.941406 64.566406 C 65.941406 64.898438 66.21875 65.171875 66.5625 65.171875 L 68.59375 65.171875 C 68.933594 65.171875 69.214844 64.902344 69.214844 64.566406 L 69.214844 64.082031 C 69.222656 63.539062 69.292969 63.082031 69.433594 62.707031 C 69.574219 62.34375 69.792969 62.011719 70.078125 61.726562 C 70.367188 61.445312 70.742188 61.175781 71.195312 60.910156 C 71.738281 60.597656 72.207031 60.25 72.601562 59.863281 C 72.996094 59.476562 73.308594 59.03125 73.53125 58.527344 C 73.753906 58.023438 73.867188 57.445312 73.867188 56.796875 C 73.851562 55.820312 73.597656 54.988281 73.097656 54.300781 Z M 73.097656 54.300781 " fill-opacity="1" fill-rule="nonzero"/></g><g clip-path="url(#b5930eff35)"><path fill="#000000" d="M 67.644531 66.519531 C 67.066406 66.519531 66.574219 66.710938 66.167969 67.101562 C 65.761719 67.492188 65.5625 67.960938 65.570312 68.503906 C 65.5625 69.050781 65.761719 69.523438 66.167969 69.917969 C 66.574219 70.308594 67.066406 70.5 67.644531 70.5 C 68.007812 70.5 68.347656 70.414062 68.65625 70.234375 C 68.964844 70.046875 69.214844 69.808594 69.414062 69.503906 C 69.605469 69.199219 69.703125 68.871094 69.710938 68.503906 C 69.699219 67.957031 69.492188 67.492188 69.074219 67.101562 C 68.664062 66.710938 68.1875 66.519531 67.644531 66.519531 Z M 67.644531 66.519531 " fill-opacity="1" fill-rule="nonzero"/></g></svg>