<svg xmlns="http://www.w3.org/2000/svg" xmlns:xlink="http://www.w3.org/1999/xlink" width="343" zoomAndPan="magnify" viewBox="0 0 257.25 186.749995" height="249" preserveAspectRatio="xMidYMid meet" version="1.0"><defs><clipPath id="6c3fed0379"><path d="M 0.410156 0.148438 L 255.28125 0.148438 L 255.28125 186.355469 L 0.410156 186.355469 Z M 0.410156 0.148438 " clip-rule="nonzero"/></clipPath><clipPath id="d7ae5e35fe"><path d="M 28.527344 108.652344 L 80.714844 108.652344 L 80.714844 160.902344 L 28.527344 160.902344 Z M 28.527344 108.652344 " clip-rule="nonzero"/></clipPath><clipPath id="5fd6ab472f"><path d="M 61.113281 53.8125 L 160.308594 53.8125 L 160.308594 129.128906 L 61.113281 129.128906 Z M 61.113281 53.8125 " clip-rule="nonzero"/></clipPath><clipPath id="282c625cd1"><path d="M 61.113281 53.8125 L 160.308594 53.8125 L 160.308594 57 L 61.113281 57 Z M 61.113281 53.8125 " clip-rule="nonzero"/></clipPath><clipPath id="02183eb241"><path d="M 61.113281 125 L 160.308594 125 L 160.308594 129.128906 L 61.113281 129.128906 Z M 61.113281 125 " clip-rule="nonzero"/></clipPath><clipPath id="9efb9c9b63"><path d="M 61.113281 53.8125 L 64.84375 53.8125 L 64.84375 129.128906 L 61.113281 129.128906 Z M 61.113281 53.8125 " clip-rule="nonzero"/></clipPath><clipPath id="4c9d2e68ba"><path d="M 157 53.8125 L 160.308594 53.8125 L 160.308594 129.128906 L 157 129.128906 Z M 157 53.8125 " clip-rule="nonzero"/></clipPath><clipPath id="c022449dff"><path d="M 101.441406 76.40625 L 120.332031 76.40625 L 120.332031 98 L 101.441406 98 Z M 101.441406 76.40625 " clip-rule="nonzero"/></clipPath><clipPath id="a5b6476a2f"><path d="M 106 99 L 114 99 L 114 106.210938 L 106 106.210938 Z M 106 99 " clip-rule="nonzero"/></clipPath></defs><g clip-path="url(#6c3fed0379)"><path fill="#231f20" d="M 269.773438 147.839844 L 269.773438 -76.027344 C 269.773438 -76.039062 269.765625 -76.046875 269.765625 -76.054688 C 269.765625 -76.078125 269.765625 -76.097656 269.757812 -76.128906 C 269.753906 -76.15625 269.746094 -76.179688 269.734375 -76.207031 C 269.734375 -76.210938 269.734375 -76.226562 269.726562 -76.230469 C 269.726562 -76.242188 269.714844 -76.257812 269.703125 -76.277344 C 269.695312 -76.300781 269.675781 -76.320312 269.65625 -76.34375 C 269.644531 -76.363281 269.625 -76.382812 269.605469 -76.402344 C 269.585938 -76.421875 269.570312 -76.441406 269.550781 -76.453125 C 269.523438 -76.472656 269.503906 -76.484375 269.480469 -76.496094 C 269.460938 -76.503906 269.449219 -76.523438 269.433594 -76.523438 C 269.429688 -76.53125 269.417969 -76.53125 269.410156 -76.53125 C 269.378906 -76.542969 269.359375 -76.546875 269.335938 -76.554688 C 269.308594 -76.5625 269.277344 -76.5625 269.25 -76.5625 C 269.238281 -76.5625 269.238281 -76.566406 269.226562 -76.566406 L 45.859375 -77.101562 L 1.023438 -77.210938 C 1.019531 -77.210938 1.011719 -77.203125 1.003906 -77.203125 C 0.992188 -77.203125 0.984375 -77.210938 0.984375 -77.210938 C 0.929688 -77.203125 0.882812 -77.191406 0.847656 -77.171875 C 0.828125 -77.164062 0.808594 -77.164062 0.796875 -77.160156 C 0.726562 -77.128906 0.675781 -77.082031 0.625 -77.023438 C 0.625 -77.023438 0.617188 -77.023438 0.617188 -77.023438 C 0.605469 -77.011719 0.605469 -76.992188 0.59375 -76.988281 C 0.566406 -76.941406 0.535156 -76.898438 0.515625 -76.847656 C 0.503906 -76.816406 0.503906 -76.789062 0.496094 -76.765625 C 0.496094 -76.734375 0.484375 -76.703125 0.484375 -76.667969 L 0.484375 193.414062 C 0.484375 193.417969 0.492188 193.433594 0.492188 193.445312 C 0.492188 193.46875 0.496094 193.496094 0.496094 193.527344 C 0.503906 193.558594 0.511719 193.578125 0.523438 193.597656 C 0.53125 193.609375 0.53125 193.621094 0.535156 193.636719 C 0.535156 193.648438 0.546875 193.660156 0.5625 193.675781 C 0.566406 193.699219 0.585938 193.71875 0.605469 193.742188 C 0.617188 193.761719 0.636719 193.78125 0.65625 193.800781 C 0.675781 193.8125 0.6875 193.832031 0.707031 193.851562 C 0.738281 193.863281 0.757812 193.882812 0.78125 193.890625 C 0.800781 193.894531 0.816406 193.910156 0.828125 193.921875 C 0.832031 193.921875 0.839844 193.921875 0.847656 193.921875 C 0.898438 193.945312 0.953125 193.953125 1.019531 193.953125 L 46.6875 193.820312 L 136.851562 193.558594 L 181.355469 193.425781 L 269.238281 193.171875 C 269.238281 193.171875 269.246094 193.164062 269.25 193.164062 C 269.308594 193.164062 269.371094 193.152344 269.421875 193.132812 C 269.449219 193.121094 269.472656 193.101562 269.492188 193.089844 C 269.519531 193.070312 269.554688 193.0625 269.582031 193.039062 C 269.582031 193.039062 269.585938 193.03125 269.585938 193.03125 C 269.636719 192.980469 269.683594 192.925781 269.714844 192.855469 C 269.722656 192.839844 269.722656 192.824219 269.726562 192.816406 C 269.738281 192.765625 269.757812 192.722656 269.765625 192.671875 C 269.765625 192.664062 269.757812 192.652344 269.765625 192.644531 C 269.765625 192.644531 269.765625 192.636719 269.765625 192.625 Z M 181.429688 192.347656 L 162.019531 187.339844 L 194.90625 187.261719 L 220.0625 192.230469 Z M 136.953125 192.480469 L 123.375 187.433594 L 157.738281 187.351562 L 177.15625 192.359375 Z M 92.128906 192.605469 L 84.496094 187.523438 L 120.304688 187.433594 L 133.886719 192.484375 Z M 47.085938 192.738281 L 45.496094 187.613281 L 82.5625 187.53125 L 90.203125 192.613281 Z M 134.542969 -75.816406 L 118.921875 -39.84375 L 82.382812 -39.914062 L 91.050781 -75.917969 Z M 179.070312 -75.710938 L 156.515625 -39.773438 L 120.097656 -39.84375 L 135.714844 -75.816406 Z M 223.53125 -75.601562 L 194.050781 -39.703125 L 157.777344 -39.773438 L 180.328125 -75.710938 Z M 267.925781 -75.492188 L 231.546875 -39.628906 L 195.4375 -39.699219 L 224.917969 -75.601562 Z M 1.558594 -22.003906 L 5.851562 1.109375 L 5.78125 36.183594 L 1.558594 19.300781 Z M 6.910156 6.835938 L 9.75 22.121094 L 9.65625 51.648438 L 6.84375 40.4375 Z M 268.699219 57.9375 L 232.375 72.9375 L 232.375 36.410156 L 268.699219 14.476562 Z M 231.304688 73.375 L 205.273438 84.132812 L 205.273438 52.785156 L 231.304688 37.066406 Z M 204.203125 84.5625 L 184.722656 92.609375 L 184.722656 65.179688 L 204.203125 53.417969 Z M 55.007812 109.265625 L 81.285156 109.265625 L 81.285156 162.078125 L 28.71875 162.078125 L 28.71875 109.265625 Z M 81.597656 108.191406 L 74.019531 108.191406 L 74.632812 107.4375 L 82.359375 107.4375 Z M 72.632812 108.191406 L 64.914062 108.191406 L 65.390625 107.4375 L 73.246094 107.4375 Z M 63.652344 108.191406 L 55.820312 108.191406 L 56.148438 107.4375 L 64.121094 107.4375 Z M 54.660156 108.191406 L 46.746094 108.191406 L 46.929688 107.4375 L 54.984375 107.4375 Z M 45.648438 108.191406 L 37.683594 108.191406 L 37.722656 107.4375 L 45.824219 107.4375 Z M 36.613281 108.191406 L 28.640625 108.191406 L 28.527344 107.4375 L 36.644531 107.4375 Z M 82.351562 162.160156 L 82.351562 154.160156 L 83.144531 154.136719 L 83.144531 162.289062 Z M 82.351562 153.082031 L 82.351562 145.089844 L 83.144531 144.917969 L 83.144531 153.0625 Z M 82.351562 143.984375 L 82.351562 136.035156 L 83.144531 135.710938 L 83.144531 143.8125 Z M 82.351562 134.871094 L 82.351562 127 L 83.144531 126.523438 L 83.144531 134.546875 Z M 82.351562 125.734375 L 82.351562 117.964844 L 83.144531 117.34375 L 83.144531 125.257812 Z M 82.351562 116.597656 L 82.351562 108.957031 L 83.144531 108.179688 L 83.144531 115.96875 Z M 83.457031 106.355469 L 75.523438 106.355469 L 76.257812 105.453125 L 84.367188 105.453125 Z M 74.132812 106.355469 L 66.066406 106.355469 L 66.636719 105.453125 L 74.875 105.453125 Z M 64.804688 106.355469 L 56.617188 106.355469 L 57.011719 105.453125 L 65.363281 105.453125 Z M 55.453125 106.355469 L 47.1875 106.355469 L 47.410156 105.453125 L 55.851562 105.453125 Z M 46.085938 106.355469 L 37.773438 106.355469 L 37.816406 105.453125 L 46.300781 105.453125 Z M 36.699219 106.355469 L 28.375 106.355469 L 28.242188 105.453125 L 36.738281 105.453125 Z M 84.214844 162.457031 L 84.214844 154.105469 L 85.15625 154.078125 L 85.15625 162.613281 Z M 84.214844 153.023438 L 84.214844 144.675781 L 85.15625 144.464844 L 85.15625 152.992188 Z M 84.214844 143.570312 L 84.214844 135.265625 L 85.15625 134.878906 L 85.15625 143.359375 Z M 84.214844 134.101562 L 84.214844 125.875 L 85.15625 125.304688 L 85.15625 133.714844 Z M 84.214844 124.617188 L 84.214844 116.492188 L 85.15625 115.742188 L 85.15625 124.046875 Z M 84.214844 115.117188 L 84.214844 107.121094 L 85.15625 106.191406 L 85.15625 114.367188 Z M 85.464844 104.382812 L 77.152344 104.382812 L 78.035156 103.308594 L 86.554688 103.308594 Z M 75.761719 104.382812 L 67.308594 104.382812 L 67.988281 103.308594 L 76.644531 103.308594 Z M 66.042969 104.375 L 57.480469 104.375 L 57.945312 103.300781 L 66.722656 103.300781 Z M 56.308594 104.375 L 47.664062 104.375 L 47.917969 103.300781 L 56.777344 103.300781 Z M 46.5625 104.375 L 37.867188 104.375 L 37.917969 103.300781 L 46.820312 103.300781 Z M 36.789062 104.375 L 28.078125 104.375 L 27.925781 103.300781 L 36.839844 103.300781 Z M 86.234375 162.78125 L 86.234375 154.039062 L 87.347656 154.007812 L 87.347656 162.960938 Z M 86.234375 152.960938 L 86.234375 144.222656 L 87.347656 143.976562 L 87.347656 152.921875 Z M 86.234375 143.125 L 86.234375 134.433594 L 87.347656 133.976562 L 87.347656 142.878906 Z M 86.234375 133.269531 L 86.234375 124.660156 L 87.347656 123.988281 L 87.347656 132.8125 Z M 86.234375 123.398438 L 86.234375 114.890625 L 87.347656 114.007812 L 87.347656 122.722656 Z M 86.234375 113.515625 L 86.234375 105.136719 L 87.347656 104.039062 L 87.347656 112.632812 Z M 87.648438 102.226562 L 78.921875 102.226562 L 79.960938 100.957031 L 88.933594 100.957031 Z M 77.527344 102.226562 L 68.660156 102.226562 L 69.453125 100.957031 L 78.558594 100.957031 Z M 67.394531 102.226562 L 58.414062 102.226562 L 58.964844 100.957031 L 68.1875 100.957031 Z M 57.246094 102.226562 L 48.183594 102.226562 L 48.488281 100.957031 L 57.796875 100.957031 Z M 47.082031 102.226562 L 37.960938 102.226562 L 38.027344 100.957031 L 47.386719 100.957031 Z M 36.890625 102.226562 L 27.765625 102.226562 L 27.582031 100.957031 L 36.949219 100.957031 Z M 88.421875 163.132812 L 88.421875 153.976562 L 89.734375 153.933594 L 89.734375 163.34375 Z M 88.421875 152.890625 L 88.421875 143.742188 L 89.734375 143.449219 L 89.734375 152.851562 Z M 88.421875 142.636719 L 88.421875 133.53125 L 89.734375 132.992188 L 89.734375 142.34375 Z M 88.421875 132.367188 L 88.421875 123.332031 L 89.734375 122.539062 L 89.734375 131.820312 Z M 88.421875 122.074219 L 88.421875 113.15625 L 89.734375 112.113281 L 89.734375 121.292969 Z M 88.421875 111.78125 L 88.421875 102.976562 L 89.734375 101.6875 L 89.734375 110.734375 Z M 90.023438 99.882812 L 80.84375 99.882812 L 82.066406 98.394531 L 91.539062 98.394531 Z M 79.453125 99.882812 L 70.132812 99.882812 L 71.070312 98.394531 L 80.679688 98.394531 Z M 68.871094 99.882812 L 59.441406 99.882812 L 60.085938 98.394531 L 69.808594 98.394531 Z M 58.261719 99.882812 L 48.75 99.882812 L 49.105469 98.394531 L 58.914062 98.394531 Z M 47.640625 99.882812 L 38.070312 99.882812 L 38.140625 98.394531 L 47.996094 98.394531 Z M 37.003906 99.875 L 27.421875 99.875 L 27.203125 98.382812 L 37.074219 98.382812 Z M 90.804688 163.511719 L 90.804688 153.902344 L 92.339844 153.851562 L 92.339844 163.753906 Z M 90.804688 152.820312 L 90.804688 143.214844 L 92.339844 142.878906 L 92.339844 152.777344 Z M 90.804688 142.109375 L 90.804688 132.546875 L 92.339844 131.910156 L 92.339844 141.765625 Z M 90.804688 131.382812 L 90.804688 121.898438 L 92.339844 120.976562 L 92.339844 130.753906 Z M 90.804688 120.640625 L 90.804688 111.253906 L 92.339844 110.042969 L 92.339844 119.710938 Z M 90.804688 109.882812 L 90.804688 100.632812 L 92.339844 99.113281 L 92.339844 108.664062 Z M 92.625 97.316406 L 82.949219 97.316406 L 84.382812 95.574219 L 94.394531 95.574219 Z M 81.558594 97.316406 L 71.75 97.316406 L 72.847656 95.574219 L 82.992188 95.574219 Z M 70.480469 97.316406 L 60.550781 97.316406 L 61.304688 95.574219 L 71.566406 95.574219 Z M 59.378906 97.316406 L 49.363281 97.316406 L 49.78125 95.574219 L 60.132812 95.574219 Z M 48.265625 97.308594 L 38.203125 97.308594 L 38.28125 95.570312 L 48.6875 95.570312 Z M 37.125 97.308594 L 27.042969 97.308594 L 26.78125 95.5625 L 37.203125 95.5625 Z M 93.410156 163.925781 L 93.410156 153.816406 L 95.199219 153.765625 L 95.199219 164.210938 Z M 93.410156 152.746094 L 93.410156 142.636719 L 95.199219 142.234375 L 95.199219 152.6875 Z M 93.410156 141.53125 L 93.410156 131.472656 L 95.199219 130.734375 L 95.199219 141.136719 Z M 93.410156 130.308594 L 93.410156 120.320312 L 95.199219 119.234375 L 95.199219 129.566406 Z M 93.410156 119.0625 L 93.410156 109.191406 L 95.199219 107.765625 L 95.199219 117.992188 Z M 93.410156 107.804688 L 93.410156 98.054688 L 95.199219 96.285156 L 95.199219 106.382812 Z M 95.484375 94.496094 L 85.261719 94.496094 L 86.929688 92.46875 L 97.546875 92.46875 Z M 83.875 94.496094 L 73.511719 94.496094 L 74.792969 92.460938 L 85.542969 92.460938 Z M 72.25 94.496094 L 61.773438 94.496094 L 62.664062 92.460938 L 73.53125 92.460938 Z M 60.601562 94.496094 L 50.042969 94.496094 L 50.53125 92.457031 L 61.488281 92.457031 Z M 48.941406 94.496094 L 38.332031 94.496094 L 38.425781 92.457031 L 49.429688 92.457031 Z M 37.257812 94.488281 L 26.636719 94.488281 L 26.332031 92.449219 L 37.355469 92.449219 Z M 96.277344 164.382812 L 96.277344 153.730469 L 98.363281 153.664062 L 98.363281 164.722656 Z M 96.277344 152.648438 L 96.277344 141.992188 L 98.363281 141.53125 L 98.363281 152.585938 Z M 96.277344 140.894531 L 96.277344 130.285156 L 98.363281 129.421875 L 98.363281 140.429688 Z M 96.277344 129.121094 L 96.277344 118.59375 L 98.363281 117.328125 L 98.363281 128.257812 Z M 96.277344 117.335938 L 96.277344 106.910156 L 98.363281 105.25 L 98.363281 116.078125 Z M 96.277344 105.539062 L 96.277344 95.238281 L 98.363281 93.179688 L 98.363281 103.871094 Z M 98.644531 91.386719 L 87.820312 91.386719 L 89.773438 89.011719 L 101.058594 89.019531 Z M 86.421875 91.382812 L 75.464844 91.382812 L 76.957031 89.003906 L 88.375 89.011719 Z M 74.203125 91.382812 L 63.125 91.382812 L 64.152344 89.003906 L 75.6875 89.011719 Z M 61.953125 91.375 L 50.792969 91.375 L 51.363281 89 L 62.984375 89.003906 Z M 49.695312 91.375 L 38.484375 91.375 L 38.589844 89 L 50.265625 89.003906 Z M 37.40625 91.375 L 26.175781 91.375 L 25.824219 89 L 37.511719 89.003906 Z M 99.441406 164.890625 L 99.441406 153.632812 L 101.878906 153.558594 L 101.878906 165.28125 Z M 99.441406 152.554688 L 99.441406 141.296875 L 101.878906 140.753906 L 101.878906 152.476562 Z M 99.441406 140.195312 L 99.441406 128.980469 L 101.878906 127.972656 L 101.878906 139.648438 Z M 99.441406 127.820312 L 99.441406 116.679688 L 101.878906 115.214844 L 101.878906 126.816406 Z M 99.441406 115.421875 L 99.441406 104.394531 L 101.878906 102.457031 L 101.878906 113.949219 Z M 99.441406 103.015625 L 99.441406 92.113281 L 101.878906 89.703125 L 101.878906 101.078125 Z M 102.144531 87.933594 L 90.652344 87.925781 L 92.9375 85.15625 L 104.960938 85.160156 Z M 89.265625 87.933594 L 77.632812 87.925781 L 79.378906 85.15625 L 91.539062 85.160156 Z M 76.367188 87.925781 L 64.628906 87.925781 L 65.832031 85.148438 L 78.109375 85.15625 Z M 63.453125 87.925781 L 51.628906 87.917969 L 52.300781 85.136719 L 64.667969 85.144531 Z M 50.523438 87.925781 L 38.640625 87.917969 L 38.769531 85.136719 L 51.191406 85.144531 Z M 37.570312 87.917969 L 25.671875 87.914062 L 25.261719 85.128906 L 37.695312 85.136719 Z M 102.949219 165.453125 L 102.949219 153.527344 L 105.789062 153.4375 L 105.789062 165.914062 Z M 102.949219 152.445312 L 102.949219 140.519531 L 105.789062 139.890625 L 105.789062 152.355469 Z M 102.949219 139.414062 L 102.949219 127.535156 L 105.789062 126.359375 L 105.789062 138.785156 Z M 102.949219 126.371094 L 102.949219 114.558594 L 105.789062 112.84375 L 105.789062 125.1875 Z M 102.949219 113.308594 L 102.949219 101.605469 L 105.789062 99.347656 L 105.789062 111.59375 Z M 102.949219 100.230469 L 102.949219 88.65625 L 105.789062 85.855469 L 105.789062 97.96875 Z M 106.054688 84.082031 L 93.816406 84.074219 L 96.488281 80.828125 L 109.347656 80.828125 Z M 92.429688 84.082031 L 80.054688 84.074219 L 82.097656 80.828125 L 95.097656 80.828125 Z M 78.789062 84.074219 L 66.300781 84.070312 L 67.710938 80.820312 L 80.824219 80.828125 Z M 65.128906 84.070312 L 52.554688 84.0625 L 53.339844 80.808594 L 66.542969 80.816406 Z M 51.449219 84.0625 L 38.824219 84.054688 L 38.976562 80.804688 L 52.238281 80.808594 Z M 37.753906 84.054688 L 25.109375 84.054688 L 24.625 80.796875 L 37.898438 80.804688 Z M 106.863281 166.085938 L 106.863281 153.40625 L 110.191406 153.304688 L 110.191406 166.621094 Z M 106.863281 152.324219 L 106.863281 139.648438 L 110.191406 138.914062 L 110.191406 152.222656 Z M 106.863281 138.542969 L 106.863281 125.914062 L 110.191406 124.539062 L 110.191406 137.808594 Z M 106.863281 124.75 L 106.863281 112.203125 L 110.191406 110.195312 L 110.191406 123.382812 Z M 106.863281 110.9375 L 106.863281 98.492188 L 110.191406 95.847656 L 110.191406 108.9375 Z M 106.863281 97.117188 L 106.863281 84.792969 L 110.191406 81.515625 L 110.191406 94.46875 Z M 110.445312 79.761719 L 97.367188 79.753906 L 100.5 75.9375 L 114.3125 75.941406 Z M 95.980469 79.753906 L 82.769531 79.75 L 85.167969 75.929688 L 99.117188 75.929688 Z M 81.503906 79.75 L 68.179688 79.742188 L 69.835938 75.921875 L 83.898438 75.929688 Z M 67.007812 79.742188 L 53.59375 79.734375 L 54.511719 75.917969 L 68.667969 75.921875 Z M 52.492188 79.734375 L 39.027344 79.730469 L 39.210938 75.910156 L 53.417969 75.917969 Z M 37.957031 79.730469 L 24.472656 79.730469 L 23.917969 75.898438 L 38.132812 75.90625 Z M 111.261719 166.785156 L 111.261719 153.265625 L 115.164062 153.144531 L 115.164062 167.410156 Z M 111.261719 152.183594 L 111.261719 138.671875 L 115.164062 137.800781 L 115.164062 152.066406 Z M 111.261719 137.570312 L 111.261719 124.097656 L 115.164062 122.488281 L 115.164062 136.703125 Z M 111.261719 122.933594 L 111.261719 109.546875 L 115.164062 107.1875 L 115.164062 121.332031 Z M 111.261719 108.289062 L 111.261719 94.996094 L 115.164062 91.902344 L 115.164062 105.929688 Z M 111.261719 93.625 L 111.261719 80.464844 L 115.164062 76.617188 L 115.164062 90.523438 Z M 115.402344 74.863281 L 101.390625 74.855469 L 105.085938 70.351562 L 119.96875 70.359375 Z M 100 74.855469 L 85.839844 74.851562 L 88.667969 70.34375 L 103.691406 70.351562 Z M 84.578125 74.851562 L 70.304688 74.84375 L 72.261719 70.332031 L 87.40625 70.339844 Z M 69.128906 74.84375 L 54.773438 74.835938 L 55.859375 70.324219 L 71.082031 70.332031 Z M 53.671875 74.832031 L 39.257812 74.832031 L 39.472656 70.320312 L 54.761719 70.320312 Z M 38.183594 74.832031 L 23.757812 74.824219 L 23.09375 70.3125 L 38.398438 70.320312 Z M 116.234375 167.578125 L 116.234375 153.113281 L 120.832031 152.972656 L 120.832031 168.324219 Z M 116.234375 152.03125 L 116.234375 137.570312 L 120.832031 136.554688 L 120.832031 151.894531 Z M 116.234375 136.464844 L 116.234375 122.042969 L 120.832031 120.152344 L 120.832031 135.449219 Z M 116.234375 120.882812 L 116.234375 106.535156 L 120.832031 103.757812 L 120.832031 118.980469 Z M 116.234375 105.285156 L 116.234375 91.046875 L 120.832031 87.390625 L 120.832031 102.507812 Z M 116.234375 89.667969 L 116.234375 75.554688 L 120.832031 71.023438 L 120.832031 86.011719 Z M 121.066406 69.285156 L 105.972656 69.277344 L 110.363281 63.933594 L 126.488281 63.941406 Z M 104.585938 69.269531 L 89.347656 69.265625 L 92.707031 63.914062 L 108.972656 63.929688 Z M 88.078125 69.265625 L 72.726562 69.257812 L 75.046875 63.910156 L 91.433594 63.921875 Z M 71.558594 69.257812 L 56.117188 69.253906 L 57.40625 63.894531 L 73.878906 63.910156 Z M 55.015625 69.253906 L 39.515625 69.246094 L 39.769531 63.890625 L 56.300781 63.894531 Z M 38.449219 69.238281 L 22.933594 69.234375 L 22.152344 63.878906 L 38.699219 63.890625 Z M 121.902344 168.496094 L 121.902344 152.941406 L 127.355469 152.777344 L 127.355469 169.363281 Z M 121.902344 151.859375 L 121.902344 136.3125 L 127.355469 135.105469 L 127.355469 151.695312 Z M 121.902344 135.207031 L 121.902344 119.707031 L 127.355469 117.457031 L 127.355469 134 Z M 121.902344 118.542969 L 121.902344 103.117188 L 127.355469 99.820312 L 127.355469 116.289062 Z M 121.902344 101.859375 L 121.902344 86.539062 L 127.355469 82.207031 L 127.355469 98.566406 Z M 121.902344 85.160156 L 121.902344 69.96875 L 127.355469 64.59375 L 127.355469 80.828125 Z M 127.578125 62.859375 L 111.25 62.847656 L 116.5 56.449219 L 134.066406 56.460938 Z M 109.855469 62.847656 L 93.386719 62.835938 L 97.398438 56.4375 L 115.113281 56.445312 Z M 92.113281 62.835938 L 75.523438 62.828125 L 78.300781 56.425781 L 96.132812 56.4375 Z M 74.347656 62.828125 L 57.664062 62.816406 L 59.207031 56.410156 L 77.125 56.425781 Z M 56.5625 62.816406 L 39.820312 62.804688 L 40.117188 56.398438 L 58.101562 56.40625 Z M 38.75 62.804688 L 21.988281 62.796875 L 21.050781 56.386719 L 39.046875 56.398438 Z M 20.992188 63.367188 L 20.898438 76.292969 L 20.828125 75.921875 L 20.917969 62.867188 Z M 20.855469 81.953125 L 20.746094 95.988281 L 20.6875 95.742188 L 20.789062 81.589844 Z M 20.714844 100.28125 L 20.601562 115.40625 L 20.550781 115.257812 L 20.65625 100.042969 Z M 20.582031 118.382812 L 20.453125 134.503906 L 20.410156 134.441406 L 20.515625 118.246094 Z M 20.449219 136.296875 L 20.316406 153.125 L 20.277344 153.121094 L 20.398438 136.230469 Z M 20.308594 154.199219 L 20.1875 170.863281 L 20.15625 170.902344 L 20.277344 154.199219 Z M 128.429688 169.535156 L 128.429688 152.738281 L 134.949219 152.535156 L 134.949219 170.578125 Z M 128.429688 151.65625 L 128.429688 134.867188 L 134.949219 133.421875 L 134.949219 151.460938 Z M 128.429688 133.761719 L 128.429688 117.011719 L 134.949219 114.324219 L 134.949219 132.316406 Z M 128.429688 115.847656 L 128.429688 99.175781 L 134.949219 95.238281 L 134.949219 113.160156 Z M 128.429688 97.917969 L 128.429688 81.355469 L 134.949219 76.175781 L 134.949219 93.988281 Z M 128.429688 79.976562 L 128.429688 63.539062 L 134.949219 57.117188 L 134.949219 74.800781 Z M 135.164062 55.382812 L 117.382812 55.375 L 123.722656 47.644531 L 142.996094 47.664062 Z M 115.992188 55.375 L 98.078125 55.363281 L 102.921875 47.636719 L 122.339844 47.648438 Z M 96.804688 55.363281 L 78.761719 55.351562 L 82.125 47.617188 L 101.65625 47.636719 Z M 77.597656 55.34375 L 59.464844 55.339844 L 61.324219 47.605469 L 80.957031 47.617188 Z M 58.363281 55.339844 L 40.175781 55.324219 L 40.539062 47.585938 L 60.226562 47.605469 Z M 39.105469 55.320312 L 20.898438 55.304688 L 19.761719 47.566406 L 39.464844 47.582031 Z M 19.890625 55.882812 L 19.789062 70.359375 L 19.527344 68.949219 L 19.625 54.066406 Z M 19.75 76.023438 L 19.640625 91.578125 L 19.390625 90.570312 L 19.496094 74.640625 Z M 19.609375 95.875 L 19.496094 112.460938 L 19.25 111.816406 L 19.363281 94.871094 Z M 19.472656 115.449219 L 19.351562 133.011719 L 19.117188 132.6875 L 19.230469 114.800781 Z M 19.332031 134.796875 L 19.203125 153.023438 L 18.976562 153 L 19.097656 134.472656 Z M 19.199219 154.105469 L 19.070312 172.128906 L 18.851562 172.382812 L 18.96875 154.089844 Z M 21.847656 170.605469 L 39.074219 170.597656 L 39.125 170.742188 L 21.710938 170.761719 Z M 40.195312 170.597656 L 57.105469 170.585938 L 57.335938 170.738281 L 40.246094 170.75 Z M 59.054688 170.585938 L 74.921875 170.574219 L 75.320312 170.726562 L 59.28125 170.738281 Z M 78.003906 170.566406 L 92.625 170.558594 L 93.195312 170.707031 L 78.402344 170.710938 Z M 96.929688 170.558594 L 110.265625 170.546875 L 110.996094 170.691406 L 97.496094 170.707031 Z M 115.808594 170.539062 L 127.839844 170.527344 L 128.726562 170.667969 L 116.539062 170.679688 Z M 136.011719 170.75 L 136.011719 152.503906 L 143.875 152.261719 L 143.875 172.015625 Z M 136.011719 151.429688 L 136.011719 133.1875 L 143.875 131.441406 L 143.875 151.179688 Z M 136.011719 132.082031 L 136.011719 113.878906 L 143.875 110.640625 L 143.875 130.339844 Z M 136.011719 112.71875 L 136.011719 94.597656 L 143.875 89.84375 L 143.875 109.46875 Z M 136.011719 93.339844 L 136.011719 75.328125 L 143.875 69.074219 L 143.875 88.59375 Z M 136.011719 73.941406 L 136.011719 56.050781 L 143.875 48.304688 L 143.875 67.695312 Z M 144.085938 46.589844 L 124.609375 46.578125 L 132.359375 37.136719 L 153.65625 37.152344 Z M 123.222656 46.578125 L 103.601562 46.558594 L 109.53125 37.109375 L 130.972656 37.136719 Z M 102.332031 46.558594 L 82.59375 46.539062 L 86.695312 37.089844 L 108.257812 37.109375 Z M 81.421875 46.539062 L 61.589844 46.519531 L 63.859375 37.066406 L 85.523438 37.085938 Z M 60.488281 46.519531 L 40.59375 46.507812 L 41.039062 37.039062 L 62.765625 37.066406 Z M 39.515625 46.507812 L 19.605469 46.488281 L 18.222656 37.019531 L 39.964844 37.039062 Z M 18.601562 47.066406 L 18.5 63.367188 L 17.988281 60.628906 L 18.089844 43.558594 Z M 18.460938 69.050781 L 18.347656 86.386719 L 17.847656 84.386719 L 17.957031 66.324219 Z M 18.316406 90.695312 L 18.195312 109.019531 L 17.703125 107.722656 L 17.816406 88.707031 Z M 18.175781 112.011719 L 18.042969 131.261719 L 17.5625 130.609375 L 17.683594 110.714844 Z M 18.039062 133.042969 L 17.90625 152.910156 L 17.4375 152.863281 L 17.554688 132.394531 Z M 17.898438 153.988281 L 17.765625 173.609375 L 17.300781 174.136719 L 17.421875 153.953125 Z M 20.757812 171.84375 L 39.460938 171.824219 L 39.578125 172.199219 L 20.429688 172.21875 Z M 40.582031 171.824219 L 58.953125 171.8125 L 59.511719 172.1875 L 40.703125 172.199219 Z M 60.894531 171.804688 L 78.203125 171.792969 L 79.199219 172.160156 L 61.449219 172.171875 Z M 81.300781 171.792969 L 97.363281 171.78125 L 98.78125 172.148438 L 82.289062 172.160156 Z M 101.667969 171.773438 L 116.4375 171.765625 L 118.269531 172.121094 L 103.082031 172.140625 Z M 121.972656 171.761719 L 135.421875 171.746094 L 137.667969 172.109375 L 123.800781 172.121094 Z M 144.949219 172.179688 L 144.949219 152.222656 L 154.554688 151.925781 L 154.554688 173.71875 Z M 144.949219 151.148438 L 144.949219 131.199219 L 154.554688 129.070312 L 154.554688 150.855469 Z M 144.949219 130.101562 L 144.949219 110.1875 L 154.554688 106.222656 L 154.554688 127.964844 Z M 144.949219 109.027344 L 144.949219 89.203125 L 154.554688 83.402344 L 154.554688 105.066406 Z M 144.949219 87.9375 L 144.949219 68.214844 L 154.554688 60.585938 L 154.554688 82.144531 Z M 144.949219 66.84375 L 144.949219 47.25 L 154.554688 37.785156 L 154.554688 59.214844 Z M 155.625 36.722656 L 167.53125 24.988281 L 167.53125 48.894531 L 155.625 58.363281 Z M 154.757812 36.066406 L 133.25 36.046875 L 142.875 24.328125 L 166.640625 24.351562 Z M 131.859375 36.046875 L 110.203125 36.03125 L 117.566406 24.300781 L 141.480469 24.328125 Z M 108.941406 36.03125 L 87.164062 36.003906 L 92.257812 24.277344 L 116.296875 24.300781 Z M 85.992188 36.003906 L 64.121094 35.984375 L 66.949219 24.25 L 91.089844 24.277344 Z M 63.023438 35.984375 L 41.089844 35.960938 L 41.640625 24.21875 L 65.84375 24.25 Z M 40.015625 35.964844 L 18.058594 35.945312 L 16.339844 24.199219 L 40.570312 24.226562 Z M 17.0625 36.523438 L 16.949219 55.027344 L 16.109375 50.515625 L 16.21875 30.761719 Z M 16.914062 60.726562 L 16.796875 80.199219 L 15.96875 76.902344 L 16.078125 56.242188 Z M 16.769531 84.519531 L 16.648438 104.921875 L 15.832031 102.765625 L 15.945312 81.230469 Z M 16.628906 107.914062 L 16.503906 129.171875 L 15.699219 128.09375 L 15.820312 105.765625 Z M 16.492188 130.964844 L 16.363281 152.78125 L 15.570312 152.707031 L 15.691406 129.882812 Z M 16.351562 153.855469 L 16.222656 175.355469 L 15.445312 176.238281 L 15.566406 153.785156 Z M 19.472656 173.296875 L 39.910156 173.277344 L 40.113281 173.941406 L 18.882812 173.964844 Z M 41.03125 173.277344 L 61.128906 173.261719 L 62.117188 173.914062 L 41.242188 173.933594 Z M 63.066406 173.261719 L 82.097656 173.242188 L 83.847656 173.894531 L 64.050781 173.914062 Z M 85.179688 173.234375 L 102.941406 173.222656 L 105.453125 173.863281 L 86.9375 173.890625 Z M 107.242188 173.214844 L 123.691406 173.195312 L 126.949219 173.839844 L 109.746094 173.863281 Z M 129.226562 173.191406 L 144.359375 173.175781 L 148.347656 173.820312 L 132.480469 173.832031 Z M 155.625 173.894531 L 155.625 151.898438 L 167.53125 151.539062 L 167.53125 175.800781 Z M 155.625 150.820312 L 155.625 128.828125 L 167.53125 126.191406 L 167.53125 150.449219 Z M 155.625 127.730469 L 155.625 105.785156 L 167.53125 100.875 L 167.53125 125.09375 Z M 155.625 104.617188 L 155.625 82.746094 L 167.53125 75.5625 L 167.53125 99.703125 Z M 155.625 81.496094 L 155.625 59.734375 L 167.53125 50.269531 L 167.53125 74.304688 Z M 168.601562 49.417969 L 183.644531 37.460938 L 183.644531 64.570312 L 168.601562 73.660156 Z M 168.601562 48.042969 L 168.601562 23.925781 L 183.644531 9.097656 L 183.644531 36.085938 Z M 167.726562 23.285156 L 143.753906 23.253906 L 155.917969 8.4375 L 182.753906 8.46875 Z M 142.367188 23.253906 L 118.246094 23.226562 L 127.546875 8.398438 L 154.53125 8.429688 Z M 116.976562 23.226562 L 92.726562 23.203125 L 99.167969 8.359375 L 126.285156 8.390625 Z M 91.554688 23.203125 L 67.203125 23.175781 L 70.777344 8.328125 L 97.996094 8.367188 Z M 66.105469 23.171875 L 41.691406 23.144531 L 42.390625 8.285156 L 69.675781 8.320312 Z M 40.613281 23.144531 L 16.171875 23.113281 L 14 8.246094 L 41.3125 8.285156 Z M 15.179688 23.691406 L 15.0625 44.898438 L 13.78125 37.980469 L 13.882812 14.851562 Z M 15.039062 50.617188 L 14.917969 72.703125 L 13.65625 67.632812 L 13.765625 43.722656 Z M 14.898438 77.027344 L 14.773438 99.960938 L 13.523438 96.640625 L 13.628906 71.984375 Z M 12.464844 93.828125 L 10.59375 88.886719 L 10.695312 60.238281 L 12.578125 67.765625 Z M 12.445312 96.839844 L 12.332031 123.550781 L 10.492188 121.066406 L 10.585938 91.902344 Z M 13.511719 99.640625 L 14.757812 102.957031 L 14.632812 126.65625 L 13.394531 124.984375 Z M 14.625 128.449219 L 14.492188 152.617188 L 13.277344 152.507812 L 13.382812 126.785156 Z M 14.492188 153.699219 L 14.367188 177.464844 L 13.160156 178.832031 L 13.277344 153.589844 Z M 17.941406 175.039062 L 40.453125 175.011719 L 40.777344 176.054688 L 17.015625 176.085938 Z M 41.578125 175.011719 L 63.726562 174.988281 L 65.28125 176.023438 L 41.894531 176.054688 Z M 65.667969 174.988281 L 86.734375 174.960938 L 89.5 175.992188 L 67.214844 176.03125 Z M 89.824219 174.960938 L 109.613281 174.9375 L 113.570312 175.960938 L 92.585938 175.992188 Z M 113.90625 174.929688 L 132.371094 174.910156 L 137.507812 175.921875 L 117.863281 175.953125 Z M 137.902344 174.90625 L 155.03125 174.886719 L 161.335938 175.890625 L 143.03125 175.921875 Z M 168.601562 175.964844 L 168.601562 151.5 L 183.644531 151.035156 L 183.644531 178.375 Z M 168.601562 150.417969 L 168.601562 125.953125 L 183.644531 122.617188 L 183.644531 149.957031 Z M 168.601562 124.847656 L 168.601562 100.421875 L 183.644531 94.210938 L 183.644531 121.511719 Z M 168.601562 99.261719 L 168.601562 74.917969 L 183.644531 65.835938 L 183.644531 93.054688 Z M 184.714844 63.929688 L 184.714844 36.609375 L 204.195312 21.125 L 204.195312 52.167969 Z M 184.714844 35.234375 L 184.714844 8.042969 L 204.195312 -11.15625 L 204.195312 19.75 Z M 183.839844 7.394531 L 156.800781 7.355469 L 172.570312 -11.851562 L 203.3125 -11.800781 Z M 155.417969 7.355469 L 128.226562 7.316406 L 140.285156 -11.902344 L 171.1875 -11.851562 Z M 126.957031 7.316406 L 99.640625 7.28125 L 107.992188 -11.953125 L 139.023438 -11.902344 Z M 98.464844 7.28125 L 71.039062 7.25 L 75.667969 -12.003906 L 106.816406 -11.957031 Z M 69.9375 7.25 L 42.445312 7.210938 L 43.351562 -12.054688 L 74.570312 -12.003906 Z M 41.367188 7.210938 L 13.839844 7.171875 L 11.019531 -12.097656 L 42.273438 -12.054688 Z M 12.84375 7.742188 L 12.738281 32.332031 L 10.820312 22.015625 L 10.910156 -5.445312 Z M 12.710938 38.082031 L 12.597656 63.425781 L 10.707031 55.878906 L 10.800781 27.800781 Z M 9.636719 56 L 9.535156 86.0625 L 6.769531 78.746094 L 6.832031 44.824219 Z M 9.523438 89.082031 L 9.421875 119.625 L 6.699219 115.957031 L 6.761719 81.769531 Z M 9.414062 121.421875 L 9.3125 152.160156 L 6.628906 151.925781 L 6.691406 117.753906 Z M 10.484375 122.863281 L 12.324219 125.339844 L 12.203125 152.414062 L 10.382812 152.253906 Z M 12.199219 153.492188 L 12.082031 180.058594 L 10.28125 182.097656 L 10.382812 153.339844 Z M 16.058594 177.167969 L 41.109375 177.136719 L 41.589844 178.691406 L 14.675781 178.738281 Z M 42.238281 177.128906 L 66.898438 177.097656 L 69.226562 178.652344 L 42.71875 178.691406 Z M 68.839844 177.097656 L 92.398438 177.066406 L 96.542969 178.609375 L 71.167969 178.648438 Z M 95.472656 177.058594 L 117.730469 177.035156 L 123.671875 178.566406 L 99.621094 178.601562 Z M 122.023438 177.019531 L 142.929688 176.996094 L 150.640625 178.519531 L 127.960938 178.558594 Z M 148.460938 176.988281 L 168.011719 176.964844 L 177.464844 178.476562 L 156.160156 178.515625 Z M 184.714844 178.550781 L 184.714844 151.003906 L 204.195312 150.398438 L 204.195312 181.671875 Z M 184.714844 149.921875 L 184.714844 122.378906 L 204.195312 118.058594 L 204.195312 149.320312 Z M 184.714844 121.273438 L 184.714844 93.777344 L 204.195312 85.734375 L 204.195312 116.953125 Z M 205.273438 85.289062 L 231.304688 74.539062 L 231.304688 110.929688 L 205.273438 116.714844 Z M 232.375 74.09375 L 268.699219 59.105469 L 268.699219 102.648438 L 232.375 110.703125 Z M 268.699219 13.214844 L 232.375 35.148438 L 232.375 -1.273438 L 268.699219 -30.140625 Z M 231.304688 35.792969 L 205.273438 51.511719 L 205.273438 20.273438 L 231.304688 -0.421875 Z M 205.273438 18.902344 L 205.273438 -12.21875 L 231.304688 -37.886719 L 231.304688 -1.800781 Z M 208.566406 -16.976562 L 204.40625 -12.878906 L 173.457031 -12.925781 L 194.554688 -38.625 L 230.453125 -38.554688 Z M 172.070312 -12.925781 L 140.960938 -12.976562 L 157.097656 -38.695312 L 193.167969 -38.625 Z M 139.691406 -12.980469 L 108.453125 -13.027344 L 119.625 -38.765625 L 155.835938 -38.695312 Z M 107.28125 -13.027344 L 75.929688 -13.078125 L 82.128906 -38.835938 L 118.453125 -38.765625 Z M 74.832031 -13.078125 L 43.398438 -13.128906 L 44.609375 -38.902344 L 81.027344 -38.835938 Z M 42.324219 -13.128906 L 10.867188 -13.179688 L 7.082031 -38.980469 L 43.535156 -38.910156 Z M 9.863281 -12.601562 L 9.761719 16.339844 L 6.921875 1.007812 L 6.984375 -32.257812 Z M 5.863281 -4.710938 L 1.558594 -27.886719 L 1.558594 -69.304688 L 5.925781 -39.480469 Z M 5.773438 40.566406 L 5.703125 75.917969 L 1.558594 64.925781 L 1.558594 23.722656 Z M 5.699219 78.949219 L 5.628906 114.515625 L 1.558594 109.027344 L 1.558594 67.96875 Z M 5.628906 116.320312 L 5.558594 151.835938 L 1.558594 151.484375 L 1.558594 110.828125 Z M 1.558594 152.566406 L 5.558594 152.914062 L 5.496094 187.53125 L 1.558594 191.996094 Z M 6.628906 153.011719 L 9.3125 153.238281 L 9.210938 183.3125 L 6.566406 186.308594 Z M 13.726562 179.816406 L 41.933594 179.773438 L 42.640625 182.066406 L 11.691406 182.128906 Z M 43.046875 179.765625 L 70.835938 179.722656 L 74.265625 182.007812 L 43.765625 182.066406 Z M 72.777344 179.722656 L 99.429688 179.683594 L 105.535156 181.953125 L 76.207031 182.003906 Z M 108.414062 183.023438 L 117.421875 186.367188 L 82.878906 186.449219 L 77.824219 183.082031 Z M 111.492188 183.019531 L 140.710938 182.960938 L 153.605469 186.292969 L 120.5 186.359375 Z M 108.605469 181.945312 L 102.511719 179.675781 L 127.820312 179.640625 L 136.558594 181.886719 Z M 132.113281 179.625 L 156.050781 179.589844 L 167.394531 181.832031 L 140.851562 181.882812 Z M 161.570312 179.582031 L 184.117188 179.542969 L 198.019531 181.773438 L 172.894531 181.816406 Z M 205.273438 181.84375 L 205.273438 150.367188 L 231.304688 149.5625 L 231.304688 186.003906 Z M 205.273438 149.289062 L 205.273438 117.820312 L 231.304688 112.039062 L 231.304688 148.480469 Z M 232.375 111.808594 L 268.699219 103.746094 L 268.699219 147.332031 L 232.375 148.449219 Z M 268.699219 -31.515625 L 232.375 -2.652344 L 232.375 -38.941406 L 267.101562 -73.175781 L 268.699219 -74.75 Z M 81.285156 -39.921875 L 44.664062 -39.992188 L 46.363281 -76.027344 L 89.949219 -75.917969 Z M 43.59375 -39.992188 L 6.929688 -40.058594 L 1.644531 -76.136719 L 45.285156 -76.027344 Z M 10.734375 183.203125 L 42.972656 183.144531 L 44.03125 186.539062 L 7.71875 186.628906 Z M 44.101562 183.140625 L 75.878906 183.082031 L 80.945312 186.449219 L 45.160156 186.53125 Z M 157.878906 186.273438 L 145 182.949219 L 172.800781 182.890625 L 189.515625 186.195312 Z M 178.304688 182.886719 L 204.675781 182.839844 L 225.152344 186.113281 L 195.007812 186.183594 Z M 232.375 186.183594 L 232.375 149.53125 L 268.699219 148.410156 L 268.699219 192.003906 Z M 6.769531 187.707031 L 44.367188 187.617188 L 45.964844 192.746094 L 2.214844 192.878906 Z M 225.539062 192.21875 L 200.398438 187.242188 L 231.785156 187.175781 L 262.585938 192.105469 Z M 225.539062 192.21875 " fill-opacity="1" fill-rule="nonzero"/></g><g clip-path="url(#d7ae5e35fe)"><path fill="#000000" d="M 80.304688 154.007812 C 79.460938 154.019531 78.597656 154.035156 77.753906 154.003906 C 76.890625 153.964844 76.0625 153.882812 75.207031 153.957031 C 74.9375 153.984375 74.671875 154.015625 74.40625 154.035156 C 74.386719 153.664062 74.367188 153.296875 74.332031 152.929688 C 74.292969 152.527344 74.246094 152.121094 74.273438 151.714844 C 74.296875 151.28125 74.414062 150.863281 74.484375 150.4375 C 74.539062 150.050781 74.558594 149.667969 74.515625 149.28125 C 74.464844 148.855469 74.367188 148.4375 74.324219 148.011719 C 74.296875 147.730469 74.3125 147.453125 74.335938 147.171875 C 74.488281 147.171875 74.640625 147.171875 74.792969 147.171875 C 75.269531 147.160156 75.738281 147.132812 76.214844 147.148438 C 76.671875 147.160156 77.121094 147.234375 77.578125 147.273438 C 78.503906 147.355469 79.378906 147.089844 80.304688 147.0625 C 80.710938 147.058594 80.710938 146.421875 80.304688 146.433594 C 79.484375 146.453125 78.691406 146.703125 77.867188 146.664062 C 77.476562 146.644531 77.089844 146.585938 76.695312 146.550781 C 76.265625 146.503906 75.839844 146.519531 75.410156 146.523438 C 75.074219 146.53125 74.742188 146.53125 74.414062 146.53125 C 74.457031 146.21875 74.5 145.902344 74.507812 145.578125 C 74.535156 144.757812 74.265625 143.957031 74.292969 143.132812 C 74.3125 142.726562 74.355469 142.3125 74.386719 141.90625 C 74.417969 141.464844 74.417969 141.023438 74.445312 140.578125 C 74.449219 140.40625 74.464844 140.234375 74.46875 140.054688 C 74.507812 140.054688 74.550781 140.054688 74.589844 140.054688 C 76.492188 140.023438 78.402344 140.089844 80.304688 140.070312 C 80.710938 140.0625 80.710938 139.433594 80.304688 139.433594 C 78.605469 139.453125 76.90625 139.382812 75.207031 139.414062 C 74.964844 139.421875 74.730469 139.421875 74.496094 139.425781 C 74.507812 138.964844 74.507812 138.5 74.457031 138.03125 C 74.417969 137.621094 74.382812 137.214844 74.386719 136.804688 C 74.398438 136.359375 74.449219 135.921875 74.488281 135.476562 C 74.550781 134.664062 74.488281 133.84375 74.476562 133.027344 C 74.464844 132.648438 74.496094 132.273438 74.535156 131.890625 C 75.21875 131.917969 75.902344 131.96875 76.589844 131.910156 C 77.417969 131.847656 78.230469 131.769531 79.066406 131.769531 C 79.480469 131.769531 79.890625 131.769531 80.304688 131.765625 C 80.710938 131.753906 80.710938 131.125 80.304688 131.128906 C 79.484375 131.148438 78.660156 131.105469 77.84375 131.160156 C 77.007812 131.21875 76.1875 131.332031 75.34375 131.292969 C 75.089844 131.289062 74.84375 131.28125 74.597656 131.277344 C 74.621094 131.007812 74.640625 130.742188 74.648438 130.476562 C 74.648438 129.625 74.535156 128.777344 74.519531 127.925781 C 74.515625 127.089844 74.449219 126.242188 74.546875 125.410156 C 74.589844 125.015625 74.652344 124.628906 74.671875 124.242188 C 74.671875 124.132812 74.671875 124.027344 74.671875 123.917969 C 75.128906 123.929688 75.585938 123.949219 76.042969 123.945312 C 76.519531 123.9375 76.988281 123.878906 77.464844 123.835938 C 77.933594 123.792969 78.40625 123.792969 78.882812 123.765625 C 79.351562 123.742188 79.828125 123.703125 80.304688 123.691406 C 80.710938 123.683594 80.710938 123.054688 80.304688 123.0625 C 79.460938 123.074219 78.605469 123.117188 77.765625 123.175781 C 76.910156 123.230469 76.085938 123.328125 75.230469 123.300781 C 75.023438 123.296875 74.820312 123.296875 74.609375 123.296875 C 74.597656 123.195312 74.578125 123.09375 74.566406 122.984375 C 74.5 122.589844 74.4375 122.203125 74.4375 121.796875 C 74.445312 121.359375 74.496094 120.914062 74.519531 120.46875 C 74.589844 119.515625 74.46875 118.570312 74.46875 117.609375 C 74.46875 117.132812 74.535156 116.65625 74.570312 116.179688 C 74.597656 115.945312 74.601562 115.714844 74.601562 115.480469 C 74.601562 115.480469 74.609375 115.480469 74.617188 115.480469 C 75.5625 115.429688 76.503906 115.40625 77.457031 115.367188 C 77.933594 115.347656 78.402344 115.339844 78.878906 115.390625 C 79.351562 115.441406 79.820312 115.507812 80.304688 115.511719 C 80.710938 115.519531 80.710938 114.890625 80.304688 114.882812 C 79.453125 114.871094 78.617188 114.699219 77.761719 114.726562 C 76.917969 114.742188 76.066406 114.761719 75.222656 114.808594 C 75.007812 114.820312 74.800781 114.832031 74.585938 114.839844 C 74.585938 114.8125 74.585938 114.78125 74.585938 114.75 C 74.539062 113.789062 74.488281 112.84375 74.386719 111.890625 C 74.285156 110.929688 74.4375 109.992188 74.425781 109.027344 C 74.417969 108.617188 73.792969 108.617188 73.792969 109.027344 C 73.804688 109.882812 73.664062 110.726562 73.726562 111.585938 C 73.757812 111.992188 73.824219 112.398438 73.859375 112.8125 C 73.898438 113.25 73.898438 113.695312 73.917969 114.140625 C 73.929688 114.382812 73.945312 114.621094 73.949219 114.863281 C 73.558594 114.878906 73.167969 114.894531 72.78125 114.914062 C 72.378906 114.941406 71.972656 114.964844 71.566406 114.953125 C 71.128906 114.941406 70.683594 114.878906 70.246094 114.84375 C 69.421875 114.78125 68.628906 114.921875 67.8125 114.972656 C 67.589844 114.984375 67.375 114.984375 67.160156 114.972656 C 67.152344 114.894531 67.152344 114.828125 67.144531 114.75 C 67.074219 113.796875 67.039062 112.851562 67 111.898438 C 66.957031 110.9375 67.042969 109.984375 67.039062 109.03125 C 67.039062 108.625 66.402344 108.617188 66.402344 109.03125 C 66.410156 109.882812 66.320312 110.734375 66.351562 111.585938 C 66.382812 112.4375 66.398438 113.296875 66.46875 114.140625 C 66.484375 114.40625 66.5 114.667969 66.511719 114.929688 C 66.097656 114.890625 65.6875 114.851562 65.269531 114.859375 C 64.464844 114.871094 63.644531 114.902344 62.832031 114.953125 C 61.984375 115.011719 61.152344 115.125 60.296875 115.042969 C 60.195312 115.035156 60.09375 115.023438 59.992188 115.011719 C 59.984375 114.890625 59.980469 114.769531 59.96875 114.648438 C 59.917969 114.179688 59.839844 113.703125 59.851562 113.226562 C 59.867188 112.761719 59.972656 112.304688 60.035156 111.847656 C 60.171875 110.898438 59.941406 109.980469 59.917969 109.03125 C 59.910156 108.625 59.277344 108.617188 59.289062 109.03125 C 59.308594 109.875 59.523438 110.714844 59.441406 111.566406 C 59.402344 111.960938 59.3125 112.347656 59.261719 112.734375 C 59.207031 113.175781 59.21875 113.601562 59.261719 114.039062 C 59.296875 114.34375 59.339844 114.648438 59.363281 114.960938 C 59.269531 114.953125 59.175781 114.945312 59.078125 114.945312 C 58.636719 114.945312 58.199219 114.984375 57.761719 115.015625 C 56.941406 115.082031 56.144531 115.042969 55.324219 115.011719 C 54.175781 114.964844 53.03125 114.996094 51.886719 115.03125 C 51.863281 113.441406 51.804688 111.851562 51.773438 110.265625 C 51.769531 109.851562 51.761719 109.4375 51.75 109.027344 C 51.734375 108.617188 51.109375 108.617188 51.121094 109.027344 C 51.164062 110.695312 51.222656 112.375 51.242188 114.042969 C 51.246094 114.382812 51.253906 114.71875 51.253906 115.046875 C 50.957031 115.0625 50.652344 115.066406 50.347656 115.074219 C 49.503906 115.09375 48.660156 115.214844 47.816406 115.164062 C 46.992188 115.113281 46.199219 115.035156 45.375 115.09375 C 44.792969 115.132812 44.207031 115.148438 43.625 115.175781 C 43.625 115.023438 43.625 114.878906 43.632812 114.726562 C 43.683594 112.832031 43.757812 110.925781 43.734375 109.03125 C 43.734375 108.625 43.097656 108.617188 43.105469 109.03125 C 43.125 110.722656 43.066406 112.425781 43.015625 114.113281 C 43.011719 114.484375 42.996094 114.839844 43.003906 115.203125 C 42.945312 115.203125 42.894531 115.203125 42.839844 115.207031 C 42.019531 115.246094 41.214844 115.214844 40.402344 115.1875 C 39.460938 115.148438 38.5 115.148438 37.558594 115.175781 C 37.082031 115.183594 36.613281 115.238281 36.136719 115.269531 C 35.84375 115.289062 35.546875 115.296875 35.253906 115.304688 C 35.25 115.113281 35.25 114.921875 35.25 114.730469 C 35.253906 114.253906 35.253906 113.777344 35.261719 113.308594 C 35.265625 112.824219 35.332031 112.355469 35.375 111.882812 C 35.464844 110.925781 35.292969 109.984375 35.285156 109.03125 C 35.285156 108.625 34.652344 108.617188 34.652344 109.03125 C 34.660156 109.882812 34.824219 110.722656 34.765625 111.574219 C 34.742188 111.984375 34.683594 112.386719 34.652344 112.800781 C 34.621094 113.238281 34.628906 113.683594 34.628906 114.121094 C 34.621094 114.519531 34.621094 114.921875 34.621094 115.320312 C 34.214844 115.335938 33.800781 115.355469 33.390625 115.355469 C 32.921875 115.355469 32.445312 115.304688 31.976562 115.265625 C 31.5 115.226562 31.023438 115.234375 30.550781 115.203125 C 30.074219 115.167969 29.605469 115.125 29.121094 115.125 C 28.71875 115.117188 28.71875 115.753906 29.121094 115.753906 C 30.820312 115.765625 32.507812 116.027344 34.207031 115.96875 C 34.347656 115.964844 34.492188 115.957031 34.632812 115.957031 C 34.640625 116.191406 34.640625 116.425781 34.652344 116.664062 C 34.683594 117.515625 34.660156 118.359375 34.640625 119.210938 C 34.621094 120.0625 34.722656 120.898438 34.742188 121.75 C 34.746094 122.191406 34.734375 122.636719 34.722656 123.074219 C 34.683594 123.074219 34.644531 123.074219 34.609375 123.074219 C 34.140625 123.054688 33.664062 123.023438 33.195312 123.042969 C 32.738281 123.054688 32.285156 123.136719 31.835938 123.175781 C 31.367188 123.21875 30.929688 123.195312 30.46875 123.105469 C 30.023438 123.015625 29.578125 122.914062 29.128906 122.894531 C 28.722656 122.882812 28.722656 123.519531 29.128906 123.53125 C 29.945312 123.554688 30.722656 123.875 31.546875 123.828125 C 31.9375 123.808594 32.320312 123.746094 32.710938 123.707031 C 33.144531 123.664062 33.566406 123.671875 34 123.683594 C 34.234375 123.691406 34.476562 123.703125 34.710938 123.707031 C 34.710938 123.867188 34.710938 124.03125 34.714844 124.191406 C 34.742188 125.042969 34.828125 125.882812 34.828125 126.734375 C 34.828125 127.585938 34.824219 128.429688 34.898438 129.273438 C 34.957031 129.898438 34.964844 130.507812 34.964844 131.125 C 34.777344 131.125 34.59375 131.125 34.410156 131.117188 C 33.601562 131.097656 32.789062 131.089844 31.976562 131.105469 C 31.253906 131.109375 30.542969 131.105469 29.820312 131.199219 C 29.585938 131.230469 29.351562 131.269531 29.117188 131.261719 C 28.710938 131.242188 28.710938 131.878906 29.117188 131.890625 C 29.679688 131.917969 30.257812 131.757812 30.820312 131.738281 C 31.609375 131.707031 32.402344 131.71875 33.179688 131.726562 C 33.769531 131.726562 34.359375 131.734375 34.957031 131.753906 C 34.957031 131.769531 34.957031 131.796875 34.957031 131.820312 C 34.9375 132.671875 35.027344 133.511719 35.058594 134.363281 C 35.097656 135.15625 34.878906 135.921875 34.867188 136.707031 C 34.855469 137.519531 34.878906 138.335938 34.878906 139.140625 C 34.804688 139.140625 34.726562 139.140625 34.644531 139.140625 C 33.695312 139.121094 32.75 139.128906 31.792969 139.171875 C 30.835938 139.21875 29.890625 139.089844 28.933594 139.097656 C 28.527344 139.097656 28.527344 139.730469 28.933594 139.726562 C 29.789062 139.726562 30.632812 139.851562 31.488281 139.820312 C 32.335938 139.789062 33.179688 139.738281 34.039062 139.757812 C 34.324219 139.765625 34.601562 139.769531 34.878906 139.777344 C 34.878906 140.445312 34.867188 141.117188 34.886719 141.785156 C 34.90625 142.617188 34.894531 143.441406 35.046875 144.261719 C 35.121094 144.65625 35.199219 145.042969 35.199219 145.445312 C 35.191406 145.863281 35.121094 146.28125 35.078125 146.703125 C 35.058594 146.867188 35.046875 147.03125 35.046875 147.191406 C 34.894531 147.179688 34.742188 147.164062 34.582031 147.148438 C 34.132812 147.089844 33.675781 147.011719 33.21875 147.011719 C 32.742188 147.011719 32.269531 147.050781 31.792969 147.070312 C 30.847656 147.113281 29.890625 147.132812 28.9375 147.148438 C 28.53125 147.152344 28.53125 147.789062 28.9375 147.78125 C 29.789062 147.769531 30.636719 147.742188 31.488281 147.71875 C 32.324219 147.6875 33.164062 147.589844 34 147.699219 C 34.355469 147.742188 34.703125 147.808594 35.058594 147.828125 C 35.089844 148.253906 35.140625 148.671875 35.179688 149.109375 C 35.265625 150.050781 35.230469 151.015625 35.234375 151.957031 C 35.242188 152.628906 35.273438 153.308594 35.242188 153.984375 C 35.046875 153.984375 34.847656 153.976562 34.652344 153.957031 C 33.695312 153.894531 32.757812 153.875 31.796875 153.894531 C 31.316406 153.902344 30.839844 153.894531 30.367188 153.9375 C 29.890625 153.976562 29.414062 154.027344 28.9375 154.035156 C 28.53125 154.039062 28.53125 154.667969 28.9375 154.667969 C 29.789062 154.65625 30.636719 154.542969 31.488281 154.53125 C 32.335938 154.523438 33.1875 154.480469 34.039062 154.542969 C 34.425781 154.574219 34.804688 154.613281 35.191406 154.617188 C 35.183594 154.667969 35.179688 154.726562 35.171875 154.777344 C 35.046875 155.699219 35.03125 156.621094 35.007812 157.554688 C 34.996094 158.019531 35 158.46875 35.070312 158.925781 C 35.148438 159.390625 35.25 159.839844 35.261719 160.304688 C 35.265625 160.710938 35.894531 160.710938 35.890625 160.304688 C 35.875 159.480469 35.617188 158.691406 35.628906 157.859375 C 35.640625 157.03125 35.621094 156.167969 35.722656 155.347656 C 35.753906 155.09375 35.792969 154.847656 35.824219 154.597656 C 36.058594 154.582031 36.292969 154.546875 36.53125 154.515625 C 36.882812 154.472656 37.238281 154.429688 37.601562 154.441406 C 38.03125 154.453125 38.449219 154.542969 38.875 154.605469 C 39.261719 154.664062 39.644531 154.695312 40.03125 154.65625 C 40.453125 154.625 40.875 154.53125 41.296875 154.484375 C 41.851562 154.429688 42.414062 154.433594 42.972656 154.445312 C 42.972656 154.496094 42.972656 154.554688 42.980469 154.613281 C 42.996094 155.082031 43.035156 155.558594 43.03125 156.035156 C 43.023438 156.511719 42.984375 156.980469 42.953125 157.457031 C 42.902344 158.40625 42.859375 159.359375 42.839844 160.304688 C 42.832031 160.710938 43.46875 160.710938 43.472656 160.304688 C 43.492188 159.460938 43.53125 158.609375 43.570312 157.761719 C 43.605469 156.914062 43.675781 156.074219 43.636719 155.222656 C 43.625 154.960938 43.617188 154.714844 43.617188 154.460938 C 43.683594 154.460938 43.753906 154.460938 43.820312 154.460938 C 44.640625 154.464844 45.445312 154.617188 46.261719 154.617188 C 47.113281 154.613281 47.964844 154.554688 48.8125 154.613281 C 49.605469 154.664062 50.367188 154.714844 51.152344 154.664062 C 51.152344 154.777344 51.152344 154.890625 51.152344 155.011719 C 51.183594 155.8125 51.160156 156.601562 51.089844 157.394531 C 51.027344 158.121094 51.027344 158.851562 50.980469 159.574219 C 50.96875 159.816406 50.957031 160.058594 50.9375 160.304688 C 50.917969 160.710938 51.546875 160.707031 51.570312 160.304688 C 51.609375 159.707031 51.640625 159.117188 51.660156 158.527344 C 51.683594 157.746094 51.78125 156.96875 51.800781 156.1875 C 51.820312 155.660156 51.785156 155.140625 51.773438 154.613281 C 52.039062 154.59375 52.3125 154.574219 52.578125 154.582031 C 53.023438 154.59375 53.46875 154.644531 53.90625 154.675781 C 54.722656 154.746094 55.535156 154.6875 56.351562 154.667969 C 57.203125 154.65625 58.050781 154.683594 58.894531 154.6875 C 58.902344 154.6875 58.90625 154.6875 58.914062 154.6875 C 58.914062 154.714844 58.914062 154.746094 58.914062 154.769531 C 58.953125 155.730469 58.992188 156.675781 59.066406 157.628906 C 59.105469 158.105469 59.105469 158.582031 59.136719 159.058594 C 59.160156 159.535156 59.207031 160.011719 59.210938 160.496094 C 59.21875 160.902344 59.851562 160.902344 59.847656 160.496094 C 59.828125 159.644531 59.769531 158.785156 59.71875 157.941406 C 59.695312 157.527344 59.644531 157.121094 59.617188 156.714844 C 59.585938 156.269531 59.59375 155.824219 59.574219 155.386719 C 59.5625 155.152344 59.554688 154.921875 59.542969 154.695312 C 60.996094 154.714844 62.441406 154.765625 63.890625 154.738281 C 64.917969 154.71875 65.945312 154.703125 66.980469 154.675781 C 66.980469 154.707031 66.980469 154.738281 66.972656 154.769531 C 66.921875 155.730469 66.921875 156.671875 66.941406 157.628906 C 66.957031 158.105469 66.96875 158.582031 66.929688 159.058594 C 66.898438 159.535156 66.847656 160.011719 66.847656 160.496094 C 66.847656 160.902344 67.480469 160.902344 67.480469 160.496094 C 67.480469 159.636719 67.601562 158.792969 67.582031 157.933594 C 67.5625 157.082031 67.527344 156.230469 67.570312 155.382812 C 67.582031 155.140625 67.601562 154.898438 67.613281 154.65625 C 68.070312 154.644531 68.527344 154.625 68.984375 154.605469 C 69.902344 154.5625 70.824219 154.605469 71.738281 154.605469 C 72.429688 154.605469 73.105469 154.667969 73.792969 154.675781 C 73.792969 154.738281 73.792969 154.808594 73.792969 154.871094 C 73.824219 155.824219 73.84375 156.777344 73.878906 157.730469 C 73.898438 158.203125 73.894531 158.660156 73.84375 159.125 C 73.792969 159.582031 73.722656 160.03125 73.714844 160.496094 C 73.714844 160.902344 74.34375 160.902344 74.347656 160.496094 C 74.355469 159.667969 74.539062 158.871094 74.519531 158.042969 C 74.5 157.191406 74.464844 156.335938 74.445312 155.484375 C 74.4375 155.210938 74.433594 154.9375 74.425781 154.664062 C 74.476562 154.65625 74.535156 154.65625 74.589844 154.648438 C 75.066406 154.613281 75.542969 154.546875 76.015625 154.542969 C 76.5 154.535156 76.96875 154.585938 77.445312 154.617188 C 78.394531 154.675781 79.359375 154.65625 80.304688 154.636719 C 80.710938 154.632812 80.710938 153.996094 80.304688 154.007812 Z M 73.765625 144.394531 C 73.828125 144.789062 73.894531 145.175781 73.878906 145.578125 C 73.867188 145.902344 73.824219 146.21875 73.777344 146.535156 C 72.625 146.53125 71.464844 146.519531 70.308594 146.570312 C 69.910156 146.582031 69.511719 146.574219 69.113281 146.613281 C 68.6875 146.65625 68.269531 146.726562 67.847656 146.765625 C 67.703125 146.777344 67.5625 146.785156 67.425781 146.792969 C 67.476562 146.351562 67.53125 145.921875 67.527344 145.480469 C 67.519531 144.664062 67.304688 143.855469 67.34375 143.035156 C 67.359375 142.625 67.417969 142.214844 67.449219 141.808594 C 67.488281 141.363281 67.476562 140.921875 67.457031 140.480469 C 67.449219 140.359375 67.445312 140.246094 67.4375 140.132812 C 67.511719 140.132812 67.589844 140.132812 67.660156 140.132812 C 68.101562 140.121094 68.539062 140.0625 68.984375 140.023438 C 69.460938 139.992188 69.917969 140.003906 70.386719 140.070312 C 70.835938 140.140625 71.285156 140.222656 71.738281 140.222656 C 72.21875 140.222656 72.6875 140.152344 73.164062 140.105469 C 73.390625 140.089844 73.625 140.074219 73.855469 140.070312 C 73.828125 140.683594 73.804688 141.296875 73.753906 141.90625 C 73.722656 142.3125 73.675781 142.726562 73.664062 143.132812 C 73.652344 143.558594 73.703125 143.976562 73.765625 144.394531 Z M 43.921875 127.742188 C 43.898438 127.335938 43.847656 126.929688 43.828125 126.523438 C 43.804688 126.085938 43.804688 125.644531 43.765625 125.203125 C 43.726562 124.71875 43.703125 124.230469 43.695312 123.742188 C 43.777344 123.742188 43.867188 123.734375 43.957031 123.734375 C 45.648438 123.734375 47.335938 123.796875 49.027344 123.828125 C 49.789062 123.84375 50.542969 123.855469 51.296875 123.855469 C 51.296875 124 51.292969 124.140625 51.292969 124.285156 C 51.265625 125.152344 51.230469 126.015625 51.191406 126.878906 C 51.152344 127.761719 51.144531 128.640625 51.144531 129.523438 C 51.144531 130.105469 51.164062 130.683594 51.191406 131.261719 C 50.621094 131.269531 50.050781 131.28125 49.480469 131.289062 C 49.058594 131.300781 48.640625 131.300781 48.214844 131.308594 C 47.792969 131.3125 47.375 131.378906 46.953125 131.429688 C 46.53125 131.472656 46.109375 131.492188 45.691406 131.441406 C 45.285156 131.394531 44.886719 131.3125 44.480469 131.269531 C 44.296875 131.25 44.121094 131.25 43.941406 131.257812 C 43.957031 130.902344 43.96875 130.546875 43.960938 130.1875 C 43.960938 129.375 43.980469 128.554688 43.921875 127.742188 Z M 74.039062 124.242188 C 74.027344 124.628906 73.960938 125.015625 73.917969 125.410156 C 73.867188 125.84375 73.855469 126.269531 73.867188 126.699219 C 73.878906 127.546875 73.875 128.402344 73.945312 129.25 C 73.976562 129.660156 74.011719 130.070312 74.011719 130.476562 C 74.011719 130.742188 73.988281 131.007812 73.957031 131.269531 C 73.539062 131.269531 73.125 131.28125 72.699219 131.300781 C 71.832031 131.339844 70.976562 131.3125 70.105469 131.292969 C 69.238281 131.28125 68.382812 131.378906 67.511719 131.390625 C 67.417969 131.394531 67.316406 131.394531 67.222656 131.402344 C 67.234375 131.089844 67.246094 130.785156 67.246094 130.476562 C 67.246094 129.660156 67.34375 128.84375 67.316406 128.027344 C 67.292969 127.183594 67.277344 126.3125 67.191406 125.476562 C 67.144531 125.066406 67.082031 124.660156 67.0625 124.25 C 67.058594 124.109375 67.058594 123.96875 67.058594 123.828125 C 67.679688 123.777344 68.292969 123.804688 68.933594 123.835938 C 69.410156 123.855469 69.878906 123.847656 70.355469 123.878906 C 70.828125 123.917969 71.300781 123.976562 71.773438 123.96875 C 72.53125 123.96875 73.285156 123.925781 74.039062 123.917969 C 74.046875 124.027344 74.046875 124.132812 74.039062 124.242188 Z M 66.429688 124.25 C 66.449219 124.660156 66.511719 125.066406 66.554688 125.476562 C 66.605469 125.917969 66.605469 126.359375 66.625 126.804688 C 66.664062 127.660156 66.707031 128.5 66.65625 129.355469 C 66.621094 130.042969 66.613281 130.734375 66.59375 131.429688 C 66.042969 131.460938 65.492188 131.484375 64.945312 131.433594 C 64.527344 131.394531 64.109375 131.3125 63.691406 131.277344 C 63.253906 131.238281 62.820312 131.261719 62.390625 131.289062 C 61.570312 131.339844 60.761719 131.363281 59.949219 131.429688 C 59.980469 131.046875 60 130.664062 59.992188 130.285156 C 59.96875 129.457031 59.777344 128.65625 59.851562 127.824219 C 59.890625 127.414062 59.953125 127.007812 59.992188 126.597656 C 60.023438 126.167969 60 125.742188 59.941406 125.316406 C 59.898438 124.921875 59.835938 124.535156 59.828125 124.140625 C 59.828125 124.0625 59.828125 123.988281 59.835938 123.910156 C 60.429688 123.894531 61.027344 123.867188 61.621094 123.855469 C 62.464844 123.835938 63.296875 123.773438 64.132812 123.898438 C 64.515625 123.960938 64.894531 124.027344 65.28125 124.039062 C 65.667969 124.046875 66.046875 123.980469 66.421875 123.917969 C 66.421875 124.027344 66.421875 124.140625 66.429688 124.25 Z M 66.585938 133.011719 C 66.621094 133.4375 66.695312 133.855469 66.738281 134.28125 C 66.816406 135.125 66.636719 135.957031 66.625 136.808594 C 66.621094 137.65625 66.746094 138.507812 66.769531 139.355469 C 66.777344 139.410156 66.777344 139.460938 66.777344 139.515625 C 66.226562 139.523438 65.667969 139.523438 65.109375 139.523438 C 64.296875 139.523438 63.480469 139.535156 62.664062 139.527344 C 61.824219 139.523438 60.976562 139.5625 60.144531 139.421875 C 60 139.394531 59.847656 139.363281 59.695312 139.34375 C 59.695312 139.28125 59.695312 139.21875 59.695312 139.152344 C 59.695312 138.710938 59.757812 138.269531 59.816406 137.828125 C 59.867188 137.417969 59.902344 137.019531 59.882812 136.605469 C 59.867188 136.160156 59.789062 135.722656 59.757812 135.277344 C 59.695312 134.457031 59.816406 133.644531 59.839844 132.824219 C 59.847656 132.570312 59.867188 132.316406 59.890625 132.058594 C 60.296875 132.027344 60.710938 131.988281 61.113281 131.980469 C 61.972656 131.96875 62.832031 131.828125 63.691406 131.90625 C 64.109375 131.941406 64.527344 132.027344 64.945312 132.0625 C 65.363281 132.101562 65.78125 132.082031 66.199219 132.0625 C 66.320312 132.0625 66.449219 132.058594 66.574219 132.050781 C 66.5625 132.375 66.5625 132.691406 66.585938 133.011719 Z M 51.824219 138.457031 C 51.871094 138.035156 51.957031 137.617188 51.996094 137.191406 C 52.035156 136.789062 52.003906 136.390625 51.9375 135.988281 C 51.875 135.5625 51.785156 135.144531 51.78125 134.714844 C 51.773438 134.273438 51.8125 133.828125 51.835938 133.390625 C 51.871094 132.882812 51.855469 132.382812 51.835938 131.878906 C 52.351562 131.867188 52.863281 131.871094 53.371094 131.960938 C 53.785156 132.03125 54.195312 132.121094 54.621094 132.132812 C 55.039062 132.144531 55.464844 132.09375 55.882812 132.058594 C 56.777344 131.972656 57.632812 132.050781 58.527344 132.101562 C 58.769531 132.113281 59.003906 132.113281 59.246094 132.101562 C 59.195312 132.789062 59.167969 133.46875 59.128906 134.152344 C 59.109375 134.527344 59.097656 134.902344 59.125 135.277344 C 59.160156 135.722656 59.230469 136.160156 59.25 136.605469 C 59.296875 137.464844 59.066406 138.300781 59.058594 139.152344 C 59.058594 139.191406 59.058594 139.230469 59.058594 139.269531 C 59.042969 139.269531 59.015625 139.269531 58.996094 139.261719 C 58.554688 139.25 58.109375 139.304688 57.671875 139.34375 C 56.828125 139.433594 55.972656 139.394531 55.121094 139.390625 C 54.273438 139.390625 53.421875 139.402344 52.578125 139.394531 C 52.324219 139.394531 52.070312 139.390625 51.820312 139.382812 C 51.792969 139.078125 51.785156 138.765625 51.824219 138.457031 Z M 59.359375 126.597656 C 59.296875 127.449219 59.148438 128.257812 59.246094 129.117188 C 59.289062 129.503906 59.34375 129.890625 59.359375 130.285156 C 59.371094 130.679688 59.332031 131.074219 59.296875 131.464844 C 58.597656 131.480469 57.914062 131.410156 57.207031 131.378906 C 56.339844 131.332031 55.484375 131.53125 54.621094 131.503906 C 54.191406 131.492188 53.773438 131.382812 53.347656 131.320312 C 52.933594 131.257812 52.535156 131.242188 52.121094 131.25 C 52.019531 131.25 51.914062 131.25 51.804688 131.257812 C 51.800781 131.105469 51.792969 130.953125 51.785156 130.800781 C 51.71875 129.070312 51.773438 127.332031 51.851562 125.609375 C 51.875 125.015625 51.902344 124.4375 51.914062 123.855469 C 52.644531 123.855469 53.378906 123.84375 54.109375 123.804688 C 54.933594 123.765625 55.726562 123.894531 56.550781 123.929688 C 57.386719 123.976562 58.242188 123.929688 59.085938 123.925781 C 59.125 123.925781 59.160156 123.925781 59.199219 123.925781 C 59.199219 123.996094 59.195312 124.070312 59.199219 124.140625 C 59.210938 124.964844 59.421875 125.765625 59.359375 126.597656 Z M 44.480469 131.90625 C 44.898438 131.949219 45.320312 132.039062 45.742188 132.082031 C 46.574219 132.164062 47.386719 131.957031 48.214844 131.941406 C 49.078125 131.921875 49.941406 131.917969 50.804688 131.910156 C 50.945312 131.90625 51.082031 131.90625 51.214844 131.898438 C 51.222656 131.972656 51.230469 132.042969 51.230469 132.121094 C 51.261719 132.984375 51.132812 133.847656 51.144531 134.714844 C 51.164062 135.570312 51.445312 136.382812 51.363281 137.242188 C 51.316406 137.648438 51.234375 138.046875 51.191406 138.457031 C 51.160156 138.761719 51.160156 139.066406 51.179688 139.371094 C 50.796875 139.363281 50.417969 139.363281 50.03125 139.363281 C 49.191406 139.375 48.335938 139.476562 47.507812 139.332031 C 47.121094 139.261719 46.738281 139.171875 46.351562 139.136719 C 45.964844 139.097656 45.578125 139.140625 45.199219 139.203125 C 44.804688 139.269531 44.410156 139.355469 44.011719 139.363281 C 43.9375 139.371094 43.859375 139.371094 43.785156 139.371094 C 43.835938 137.972656 43.816406 136.566406 43.835938 135.171875 C 43.847656 134.355469 43.878906 133.542969 43.890625 132.730469 C 43.890625 132.449219 43.90625 132.164062 43.917969 131.886719 C 44.101562 131.878906 44.292969 131.886719 44.480469 131.90625 Z M 43.859375 144.027344 C 43.839844 143.589844 43.855469 143.144531 43.820312 142.707031 C 43.769531 141.878906 43.6875 141.09375 43.738281 140.257812 C 43.746094 140.175781 43.753906 140.089844 43.753906 140 C 43.839844 140 43.929688 140 44.011719 140 C 44.796875 139.980469 45.558594 139.6875 46.351562 139.765625 C 46.75 139.808594 47.136719 139.910156 47.53125 139.972656 C 47.957031 140.039062 48.375 140.042969 48.804688 140.03125 C 49.617188 140.011719 50.429688 140.011719 51.242188 140.019531 C 51.28125 140.335938 51.316406 140.660156 51.324219 140.984375 C 51.332031 141.410156 51.285156 141.828125 51.253906 142.253906 C 51.179688 143.117188 51.183594 143.984375 51.171875 144.851562 C 51.164062 145.53125 51.242188 146.199219 51.273438 146.875 C 50.929688 146.886719 50.582031 146.898438 50.238281 146.90625 C 49.382812 146.925781 48.546875 147.03125 47.691406 147.011719 C 46.859375 146.996094 46.011719 147.011719 45.183594 146.917969 C 44.796875 146.875 44.40625 146.816406 44.011719 146.816406 C 43.929688 146.816406 43.855469 146.816406 43.769531 146.816406 C 43.820312 146.296875 43.890625 145.773438 43.890625 145.246094 C 43.890625 144.839844 43.871094 144.433594 43.859375 144.027344 Z M 51.835938 146.144531 C 51.769531 145.292969 51.820312 144.433594 51.824219 143.574219 C 51.835938 142.691406 51.976562 141.816406 51.953125 140.933594 C 51.945312 140.628906 51.914062 140.324219 51.882812 140.019531 C 52.554688 140.023438 53.226562 140.023438 53.898438 140.019531 C 54.75 140.011719 55.597656 140.023438 56.449219 140.03125 C 57.296875 140.039062 58.148438 139.867188 58.996094 139.898438 C 59.023438 139.898438 59.046875 139.902344 59.074219 139.902344 C 59.09375 140.507812 59.125 141.105469 59.105469 141.707031 C 59.078125 142.558594 59.046875 143.40625 59.046875 144.257812 C 59.042969 145.113281 59.054688 145.953125 59.136719 146.808594 C 59.136719 146.84375 59.144531 146.878906 59.144531 146.910156 C 58.722656 146.945312 58.300781 146.929688 57.878906 146.9375 C 57.03125 146.949219 56.179688 146.957031 55.332031 146.957031 C 54.925781 146.957031 54.511719 146.96875 54.109375 146.949219 C 53.664062 146.925781 53.226562 146.878906 52.78125 146.867188 C 52.484375 146.859375 52.179688 146.859375 51.882812 146.867188 C 51.871094 146.625 51.855469 146.382812 51.835938 146.144531 Z M 59.675781 145.480469 C 59.667969 144.636719 59.667969 143.78125 59.695312 142.929688 C 59.714844 142.078125 59.765625 141.230469 59.734375 140.378906 C 59.726562 140.246094 59.71875 140.113281 59.714844 139.980469 C 59.867188 140.011719 60.019531 140.039062 60.171875 140.0625 C 60.59375 140.125 61.011719 140.152344 61.445312 140.152344 C 62.257812 140.15625 63.074219 140.171875 63.886719 140.164062 C 64.734375 140.15625 65.585938 140.164062 66.433594 140.144531 C 66.5625 140.144531 66.683594 140.140625 66.808594 140.140625 C 66.835938 140.699219 66.859375 141.25 66.816406 141.808594 C 66.785156 142.214844 66.726562 142.625 66.707031 143.035156 C 66.6875 143.460938 66.734375 143.886719 66.785156 144.3125 C 66.835938 144.699219 66.890625 145.089844 66.890625 145.480469 C 66.898438 145.90625 66.828125 146.328125 66.777344 146.746094 C 66.777344 146.773438 66.769531 146.792969 66.769531 146.808594 C 66.289062 146.824219 65.800781 146.816406 65.320312 146.824219 C 64.480469 146.835938 63.625 146.90625 62.789062 146.847656 C 61.964844 146.792969 61.183594 146.636719 60.355469 146.746094 C 60.15625 146.773438 59.96875 146.808594 59.769531 146.835938 C 59.726562 146.382812 59.675781 145.941406 59.675781 145.480469 Z M 72.65625 139.527344 C 72.25 139.574219 71.851562 139.605469 71.445312 139.578125 C 71.019531 139.546875 70.601562 139.460938 70.175781 139.410156 C 69.332031 139.304688 68.503906 139.472656 67.660156 139.496094 C 67.578125 139.496094 67.5 139.503906 67.417969 139.503906 C 67.398438 139.015625 67.378906 138.519531 67.335938 138.03125 C 67.296875 137.621094 67.253906 137.214844 67.257812 136.808594 C 67.265625 136.363281 67.324219 135.921875 67.359375 135.480469 C 67.4375 134.636719 67.285156 133.847656 67.214844 133.011719 C 67.191406 132.6875 67.191406 132.363281 67.195312 132.03125 C 67.746094 132.011719 68.292969 131.992188 68.839844 131.960938 C 69.699219 131.90625 70.5625 131.957031 71.425781 131.960938 C 72.25 131.972656 73.070312 131.898438 73.886719 131.886719 C 73.804688 132.710938 73.867188 133.53125 73.886719 134.355469 C 73.90625 135.175781 73.773438 135.984375 73.757812 136.804688 C 73.742188 137.660156 73.910156 138.5 73.886719 139.355469 C 73.878906 139.382812 73.878906 139.414062 73.878906 139.445312 C 73.472656 139.460938 73.0625 139.484375 72.65625 139.527344 Z M 69.027344 115.488281 C 69.988281 115.398438 70.917969 115.601562 71.871094 115.589844 C 72.5625 115.574219 73.257812 115.550781 73.949219 115.511719 C 73.949219 115.90625 73.929688 116.292969 73.894531 116.695312 C 73.808594 117.546875 73.875 118.390625 73.90625 119.25 C 73.945312 120.101562 73.816406 120.945312 73.808594 121.796875 C 73.804688 122.296875 73.90625 122.792969 73.976562 123.289062 C 73.542969 123.289062 73.121094 123.296875 72.6875 123.316406 C 72.28125 123.328125 71.875 123.347656 71.46875 123.332031 C 71.03125 123.316406 70.59375 123.265625 70.152344 123.238281 C 69.746094 123.214844 69.339844 123.21875 68.933594 123.199219 C 68.496094 123.179688 68.050781 123.148438 67.613281 123.148438 C 67.429688 123.148438 67.253906 123.164062 67.074219 123.1875 C 67.082031 123.097656 67.089844 123.007812 67.09375 122.925781 C 67.140625 122.0625 67.082031 121.230469 67.023438 120.371094 C 66.960938 119.445312 67.09375 118.535156 67.101562 117.609375 C 67.101562 116.9375 67.160156 116.269531 67.164062 115.59375 C 67.785156 115.601562 68.394531 115.542969 69.027344 115.488281 Z M 61.617188 115.695312 C 62.023438 115.664062 62.425781 115.613281 62.832031 115.582031 C 63.238281 115.558594 63.644531 115.5625 64.050781 115.542969 C 64.886719 115.507812 65.695312 115.492188 66.523438 115.5625 C 66.523438 115.9375 66.519531 116.3125 66.5 116.695312 C 66.472656 117.101562 66.480469 117.507812 66.46875 117.921875 C 66.453125 118.359375 66.402344 118.804688 66.378906 119.25 C 66.332031 120.066406 66.460938 120.875 66.484375 121.695312 C 66.503906 122.226562 66.46875 122.753906 66.441406 123.28125 C 66.054688 123.351562 65.675781 123.417969 65.28125 123.402344 C 64.886719 123.398438 64.496094 123.316406 64.109375 123.265625 C 63.683594 123.199219 63.269531 123.179688 62.839844 123.1875 C 61.996094 123.207031 61.148438 123.214844 60.304688 123.25 C 60.15625 123.257812 60.011719 123.257812 59.867188 123.265625 C 59.878906 123.117188 59.882812 122.972656 59.898438 122.820312 C 59.960938 122 59.929688 121.191406 59.910156 120.371094 C 59.898438 119.890625 59.910156 119.421875 59.960938 118.945312 C 60.011719 118.460938 60.070312 117.992188 60.070312 117.507812 C 60.070312 116.890625 60.0625 116.261719 60.03125 115.632812 C 60.558594 115.683594 61.082031 115.734375 61.617188 115.695312 Z M 54.109375 115.640625 C 54.949219 115.640625 55.792969 115.691406 56.644531 115.695312 C 57.457031 115.703125 58.269531 115.574219 59.078125 115.582031 C 59.179688 115.582031 59.289062 115.582031 59.390625 115.589844 C 59.394531 115.925781 59.402344 116.257812 59.414062 116.59375 C 59.429688 117 59.445312 117.40625 59.433594 117.820312 C 59.414062 118.261719 59.34375 118.703125 59.308594 119.148438 C 59.226562 119.992188 59.308594 120.847656 59.3125 121.695312 C 59.3125 122.226562 59.261719 122.753906 59.226562 123.28125 C 58.738281 123.289062 58.253906 123.300781 57.765625 123.300781 C 57.359375 123.308594 56.949219 123.320312 56.550781 123.300781 C 56.105469 123.277344 55.667969 123.214844 55.222656 123.179688 C 54.414062 123.117188 53.601562 123.226562 52.789062 123.238281 C 52.496094 123.246094 52.207031 123.246094 51.921875 123.246094 C 51.921875 123.148438 51.921875 123.054688 51.921875 122.957031 C 51.914062 122.09375 51.902344 121.230469 51.875 120.359375 C 51.863281 119.929688 51.871094 119.503906 51.820312 119.070312 C 51.773438 118.664062 51.703125 118.261719 51.679688 117.863281 C 51.628906 117.121094 51.832031 116.402344 51.882812 115.664062 C 52.625 115.644531 53.367188 115.640625 54.109375 115.640625 Z M 46.59375 115.695312 C 47 115.714844 47.40625 115.773438 47.816406 115.796875 C 48.253906 115.824219 48.691406 115.804688 49.136719 115.773438 C 49.839844 115.730469 50.542969 115.703125 51.246094 115.683594 C 51.230469 115.988281 51.179688 116.292969 51.128906 116.605469 C 51.0625 117.023438 51.019531 117.4375 51.042969 117.863281 C 51.078125 118.261719 51.144531 118.664062 51.191406 119.070312 C 51.285156 119.933594 51.265625 120.824219 51.28125 121.6875 C 51.285156 122.203125 51.292969 122.71875 51.296875 123.230469 C 50.949219 123.226562 50.601562 123.21875 50.253906 123.214844 C 48.550781 123.199219 46.867188 123.113281 45.171875 123.105469 C 44.671875 123.105469 44.175781 123.113281 43.683594 123.117188 C 43.675781 122.152344 43.695312 121.1875 43.683594 120.21875 C 43.675781 119.738281 43.6875 119.265625 43.746094 118.789062 C 43.804688 118.320312 43.871094 117.851562 43.847656 117.378906 C 43.820312 116.921875 43.726562 116.484375 43.667969 116.035156 C 43.65625 115.957031 43.652344 115.882812 43.644531 115.8125 C 43.816406 115.804688 43.988281 115.796875 44.15625 115.792969 C 44.96875 115.773438 45.78125 115.652344 46.59375 115.695312 Z M 36.644531 115.863281 C 37.492188 115.792969 38.335938 115.804688 39.1875 115.8125 C 40 115.8125 40.808594 115.855469 41.621094 115.867188 C 42.089844 115.875 42.558594 115.855469 43.03125 115.835938 C 43.046875 116.050781 43.066406 116.273438 43.105469 116.492188 C 43.164062 116.886719 43.226562 117.277344 43.226562 117.671875 C 43.214844 118.117188 43.144531 118.554688 43.09375 118.996094 C 42.996094 119.839844 43.0625 120.695312 43.074219 121.542969 C 43.078125 122.074219 43.066406 122.601562 43.0625 123.136719 C 42.914062 123.144531 42.777344 123.144531 42.628906 123.148438 C 42.261719 123.164062 41.886719 123.148438 41.515625 123.167969 C 41.070312 123.195312 40.632812 123.246094 40.195312 123.269531 C 39.269531 123.316406 38.375 123.023438 37.457031 123.035156 C 36.75 123.042969 36.054688 123.074219 35.355469 123.078125 C 35.355469 123.007812 35.355469 122.941406 35.355469 122.871094 C 35.382812 122.050781 35.34375 121.25 35.292969 120.429688 C 35.234375 119.476562 35.3125 118.53125 35.304688 117.578125 C 35.304688 117.03125 35.28125 116.484375 35.265625 115.9375 C 35.722656 115.917969 36.1875 115.898438 36.644531 115.863281 Z M 35.464844 127.960938 C 35.457031 127.109375 35.484375 126.257812 35.425781 125.410156 C 35.386719 124.847656 35.363281 124.28125 35.355469 123.722656 C 35.75 123.722656 36.144531 123.722656 36.535156 123.703125 C 36.941406 123.675781 37.347656 123.652344 37.753906 123.671875 C 38.179688 123.683594 38.601562 123.777344 39.023438 123.835938 C 39.863281 123.957031 40.671875 123.84375 41.515625 123.804688 C 42.027344 123.777344 42.542969 123.757812 43.054688 123.746094 C 43.054688 123.828125 43.054688 123.90625 43.054688 123.980469 C 43.0625 124.386719 43.097656 124.796875 43.136719 125.203125 C 43.167969 125.644531 43.175781 126.085938 43.195312 126.523438 C 43.246094 127.34375 43.308594 128.148438 43.320312 128.964844 C 43.328125 129.746094 43.316406 130.519531 43.300781 131.292969 C 42.871094 131.339844 42.445312 131.402344 42.007812 131.410156 C 41.132812 131.421875 40.257812 131.371094 39.382812 131.359375 C 38.558594 131.351562 37.722656 131.390625 36.898438 131.289062 C 36.496094 131.238281 36.105469 131.167969 35.703125 131.148438 C 35.667969 131.140625 35.636719 131.140625 35.597656 131.140625 C 35.605469 130.925781 35.609375 130.710938 35.605469 130.5 C 35.597656 129.648438 35.464844 128.804688 35.464844 127.960938 Z M 35.496094 136.707031 C 35.503906 136.28125 35.585938 135.863281 35.640625 135.445312 C 35.75 134.636719 35.648438 133.84375 35.605469 133.042969 C 35.578125 132.617188 35.578125 132.195312 35.585938 131.769531 C 35.628906 131.777344 35.667969 131.777344 35.703125 131.777344 C 36.105469 131.804688 36.496094 131.871094 36.898438 131.917969 C 37.320312 131.972656 37.742188 131.972656 38.164062 131.980469 C 39.007812 131.988281 39.847656 131.992188 40.683594 132.011719 C 41.125 132.027344 41.570312 132.050781 42.007812 132.042969 C 42.414062 132.039062 42.8125 131.972656 43.214844 131.929688 C 43.238281 131.929688 43.257812 131.929688 43.28125 131.921875 C 43.265625 132.636719 43.238281 133.339844 43.21875 134.050781 C 43.175781 135.71875 43.207031 137.375 43.175781 139.039062 C 43.175781 139.148438 43.167969 139.25 43.164062 139.355469 C 43.011719 139.351562 42.851562 139.351562 42.699219 139.34375 C 42.289062 139.339844 41.882812 139.34375 41.476562 139.320312 C 41.03125 139.292969 40.59375 139.230469 40.148438 139.191406 C 39.222656 139.117188 38.324219 139.355469 37.40625 139.339844 C 36.949219 139.324219 36.496094 139.242188 36.042969 139.191406 C 35.863281 139.171875 35.6875 139.160156 35.503906 139.152344 C 35.503906 138.742188 35.507812 138.335938 35.507812 137.921875 C 35.503906 137.515625 35.488281 137.113281 35.496094 136.707031 Z M 36.53125 139.882812 C 36.917969 139.9375 37.304688 139.980469 37.695312 139.96875 C 38.121094 139.949219 38.539062 139.882812 38.957031 139.839844 C 39.8125 139.75 40.625 139.902344 41.476562 139.953125 C 42.015625 139.988281 42.574219 140 43.125 140.003906 C 43.09375 140.496094 43.0625 140.992188 43.085938 141.480469 C 43.113281 141.890625 43.164062 142.300781 43.195312 142.707031 C 43.21875 143.144531 43.207031 143.589844 43.226562 144.027344 C 43.257812 144.890625 43.25 145.71875 43.148438 146.570312 C 43.136719 146.664062 43.128906 146.757812 43.125 146.855469 C 42.984375 146.859375 42.839844 146.875 42.699219 146.886719 C 41.84375 146.949219 41.007812 146.90625 40.148438 146.875 C 39.679688 146.855469 39.238281 146.878906 38.78125 146.96875 C 38.316406 147.050781 37.875 147.152344 37.398438 147.160156 C 36.828125 147.171875 36.25 147.210938 35.667969 147.210938 C 35.703125 146.621094 35.820312 146.035156 35.824219 145.445312 C 35.839844 144.617188 35.554688 143.832031 35.539062 143.011719 C 35.527344 142.160156 35.496094 141.3125 35.503906 140.464844 C 35.503906 140.242188 35.503906 140.023438 35.503906 139.800781 C 35.84375 139.816406 36.1875 139.839844 36.53125 139.882812 Z M 41.296875 153.855469 C 40.875 153.902344 40.453125 153.988281 40.03125 154.027344 C 39.140625 154.105469 38.292969 153.792969 37.40625 153.804688 C 36.949219 153.8125 36.496094 153.894531 36.046875 153.945312 C 35.992188 153.953125 35.933594 153.957031 35.875 153.957031 C 35.890625 153.59375 35.875 153.234375 35.871094 152.871094 C 35.871094 152.027344 35.855469 151.175781 35.851562 150.328125 C 35.84375 149.921875 35.851562 149.515625 35.8125 149.109375 C 35.773438 148.683594 35.703125 148.265625 35.671875 147.839844 C 35.945312 147.832031 36.21875 147.820312 36.484375 147.8125 C 36.890625 147.800781 37.296875 147.8125 37.695312 147.789062 C 38.121094 147.757812 38.535156 147.65625 38.945312 147.578125 C 39.78125 147.421875 40.632812 147.546875 41.476562 147.566406 C 42.007812 147.574219 42.542969 147.523438 43.078125 147.484375 C 43.046875 147.992188 43.035156 148.507812 43.015625 149.015625 C 42.992188 149.492188 42.996094 149.960938 43.035156 150.4375 C 43.074219 150.914062 43.125 151.382812 43.113281 151.859375 C 43.09375 152.523438 43.011719 153.175781 42.984375 153.832031 C 42.820312 153.832031 42.660156 153.832031 42.496094 153.832031 C 42.097656 153.832031 41.699219 153.8125 41.296875 153.855469 Z M 50.035156 154.066406 C 49.179688 154.027344 48.34375 153.945312 47.488281 153.964844 C 46.667969 153.976562 45.863281 153.996094 45.046875 153.914062 C 44.570312 153.863281 44.09375 153.84375 43.617188 153.835938 C 43.625 153.488281 43.636719 153.132812 43.675781 152.777344 C 43.714844 152.375 43.753906 151.96875 43.746094 151.554688 C 43.734375 151.117188 43.683594 150.671875 43.652344 150.234375 C 43.59375 149.382812 43.6875 148.539062 43.707031 147.6875 C 43.707031 147.609375 43.714844 147.527344 43.714844 147.453125 C 43.816406 147.445312 43.917969 147.445312 44.011719 147.445312 C 44.40625 147.453125 44.796875 147.507812 45.183594 147.554688 C 45.617188 147.597656 46.035156 147.605469 46.464844 147.609375 C 47.324219 147.625 48.164062 147.675781 49.015625 147.609375 C 49.777344 147.558594 50.53125 147.535156 51.292969 147.523438 C 51.292969 148.339844 51.203125 149.160156 51.222656 149.980469 C 51.234375 150.8125 51.296875 151.640625 51.234375 152.472656 C 51.195312 152.992188 51.164062 153.507812 51.152344 154.027344 C 50.785156 154.058594 50.410156 154.078125 50.035156 154.066406 Z M 55.027344 154.078125 C 54.210938 154.089844 53.398438 153.964844 52.578125 153.953125 C 52.3125 153.945312 52.039062 153.957031 51.769531 153.976562 C 51.769531 153.886719 51.769531 153.804688 51.773438 153.714844 C 51.804688 152.890625 51.921875 152.078125 51.894531 151.246094 C 51.871094 150.386719 51.84375 149.535156 51.882812 148.679688 C 51.902344 148.285156 51.90625 147.898438 51.902344 147.515625 C 52.636719 147.507812 53.367188 147.546875 54.109375 147.578125 C 54.949219 147.625 55.808594 147.597656 56.65625 147.589844 C 57.488281 147.578125 58.332031 147.605469 59.160156 147.539062 C 59.148438 148.085938 59.085938 148.628906 59.027344 149.1875 C 58.933594 150.132812 59.125 151.066406 59.097656 152.011719 C 59.085938 152.472656 59.003906 152.921875 58.945312 153.375 C 58.921875 153.601562 58.90625 153.832031 58.902344 154.054688 C 57.609375 154.046875 56.320312 154.054688 55.027344 154.078125 Z M 62.667969 154.105469 C 61.820312 154.089844 60.96875 154.070312 60.121094 154.066406 C 59.921875 154.058594 59.726562 154.058594 59.535156 154.058594 C 59.535156 153.660156 59.59375 153.273438 59.644531 152.871094 C 59.765625 152.03125 59.695312 151.226562 59.644531 150.378906 C 59.59375 149.542969 59.75 148.746094 59.800781 147.921875 C 59.808594 147.769531 59.808594 147.625 59.808594 147.472656 C 60.410156 147.394531 61 147.292969 61.621094 147.351562 C 62.007812 147.386719 62.394531 147.457031 62.789062 147.484375 C 63.21875 147.515625 63.65625 147.488281 64.09375 147.476562 C 64.945312 147.457031 65.792969 147.445312 66.636719 147.433594 C 66.671875 147.433594 66.695312 147.433594 66.726562 147.433594 C 66.707031 148.035156 66.746094 148.644531 66.765625 149.261719 C 66.789062 150.175781 66.777344 151.097656 66.808594 152.011719 C 66.828125 152.472656 66.898438 152.921875 66.949219 153.375 C 66.972656 153.601562 66.988281 153.824219 66.988281 154.054688 C 66.367188 154.066406 65.738281 154.078125 65.117188 154.078125 C 64.296875 154.089844 63.480469 154.121094 62.667969 154.105469 Z M 72.65625 154.003906 C 71.839844 153.953125 71.019531 153.964844 70.207031 153.957031 C 69.359375 153.945312 68.507812 154.019531 67.660156 154.035156 C 67.648438 154.035156 67.632812 154.035156 67.621094 154.039062 C 67.613281 153.652344 67.570312 153.273438 67.519531 152.882812 C 67.417969 152.058594 67.429688 151.21875 67.410156 150.378906 C 67.398438 149.566406 67.367188 148.746094 67.347656 147.933594 C 67.347656 147.761719 67.355469 147.589844 67.367188 147.421875 C 67.527344 147.414062 67.683594 147.414062 67.847656 147.394531 C 68.269531 147.363281 68.6875 147.285156 69.113281 147.25 C 69.574219 147.203125 70.042969 147.210938 70.511719 147.191406 C 70.988281 147.171875 71.464844 147.148438 71.941406 147.148438 C 72.53125 147.148438 73.113281 147.164062 73.703125 147.171875 C 73.675781 147.453125 73.664062 147.730469 73.695312 148.011719 C 73.734375 148.4375 73.828125 148.855469 73.878906 149.28125 C 73.996094 150.214844 73.621094 151.085938 73.632812 152.011719 C 73.640625 152.488281 73.707031 152.964844 73.753906 153.441406 C 73.765625 153.648438 73.773438 153.851562 73.777344 154.058594 C 73.40625 154.054688 73.03125 154.027344 72.65625 154.003906 Z M 72.65625 154.003906 " fill-opacity="1" fill-rule="nonzero"/></g><g clip-path="url(#5fd6ab472f)"><path fill="#ffffff" d="M 61.113281 53.8125 L 160.308594 53.8125 L 160.308594 129.128906 L 61.113281 129.128906 Z M 61.113281 53.8125 " fill-opacity="1" fill-rule="nonzero"/><path fill="#ffffff" d="M 61.113281 53.8125 L 160.308594 53.8125 L 160.308594 129.128906 L 61.113281 129.128906 Z M 61.113281 53.8125 " fill-opacity="1" fill-rule="nonzero"/></g><g clip-path="url(#282c625cd1)"><path stroke-linecap="butt" transform="matrix(1.574518, 0, 0, 1.56903, 52.357427, 53.811366)" fill="none" stroke-linejoin="miter" d="M 0.00123692 1.00154 L 74.121129 1.00154 " stroke="#000000" stroke-width="2" stroke-opacity="1" stroke-miterlimit="4"/></g><g clip-path="url(#02183eb241)"><path stroke-linecap="butt" transform="matrix(1.574518, 0, 0, 1.56903, 58.340586, 125.986751)" fill="none" stroke-linejoin="miter" d="M 0.00200951 0.996813 L 74.124383 0.996813 " stroke="#000000" stroke-width="2" stroke-opacity="1" stroke-miterlimit="4"/></g><g clip-path="url(#9efb9c9b63)"><path stroke-linecap="butt" transform="matrix(0, 1.56903, -1.574518, 0, 64.265211, 55.380392)" fill="none" stroke-linejoin="miter" d="M 0.00154252 0.997066 L 48.003418 0.997066 " stroke="#000000" stroke-width="2" stroke-opacity="1" stroke-miterlimit="4"/></g><g clip-path="url(#4c9d2e68ba)"><path stroke-linecap="butt" transform="matrix(0, 1.56903, -1.574518, 0, 160.310818, 55.380392)" fill="none" stroke-linejoin="miter" d="M 0.00154252 1.001222 L 48.003418 1.001222 " stroke="#000000" stroke-width="2" stroke-opacity="1" stroke-miterlimit="4"/></g><g clip-path="url(#c022449dff)"><path fill="#000000" d="M 119.074219 79.863281 C 118.269531 78.738281 117.148438 77.878906 115.714844 77.296875 C 114.300781 76.707031 112.65625 76.40625 110.792969 76.40625 C 109.101562 76.40625 107.558594 76.699219 106.15625 77.277344 C 104.769531 77.855469 103.640625 78.75 102.785156 79.925781 C 102.113281 80.855469 101.6875 81.992188 101.523438 83.324219 C 101.445312 83.898438 101.914062 84.410156 102.523438 84.410156 L 106.265625 84.410156 C 106.746094 84.410156 107.152344 84.082031 107.253906 83.628906 C 107.34375 83.222656 107.507812 82.863281 107.71875 82.550781 C 108.058594 82.046875 108.511719 81.671875 109.050781 81.414062 C 109.589844 81.160156 110.160156 81.027344 110.769531 81.027344 C 111.402344 81.027344 111.964844 81.152344 112.488281 81.414062 C 113 81.65625 113.414062 82.023438 113.722656 82.492188 C 114.027344 82.964844 114.191406 83.507812 114.191406 84.132812 C 114.191406 84.71875 114.046875 85.257812 113.773438 85.726562 C 113.507812 86.199219 113.144531 86.636719 112.6875 87.023438 C 112.226562 87.417969 111.71875 87.785156 111.136719 88.148438 C 110.363281 88.617188 109.695312 89.140625 109.152344 89.71875 C 108.597656 90.296875 108.1875 91.050781 107.894531 91.992188 C 107.617188 92.945312 107.464844 94.195312 107.457031 95.773438 L 107.457031 96.558594 C 107.457031 97.101562 107.90625 97.542969 108.464844 97.542969 L 111.761719 97.542969 C 112.316406 97.542969 112.773438 97.105469 112.773438 96.558594 L 112.773438 95.773438 C 112.785156 94.890625 112.898438 94.144531 113.125 93.535156 C 113.355469 92.945312 113.710938 92.40625 114.171875 91.941406 C 114.640625 91.484375 115.25 91.046875 115.988281 90.613281 C 116.867188 90.105469 117.628906 89.539062 118.269531 88.910156 C 118.910156 88.28125 119.417969 87.558594 119.777344 86.738281 C 120.140625 85.917969 120.324219 84.976562 120.324219 83.921875 C 120.300781 82.335938 119.886719 80.980469 119.074219 79.863281 Z M 119.074219 79.863281 " fill-opacity="1" fill-rule="nonzero"/></g><g clip-path="url(#a5b6476a2f)"><path fill="#000000" d="M 110.222656 99.738281 C 109.285156 99.738281 108.484375 100.046875 107.824219 100.683594 C 107.164062 101.320312 106.84375 102.082031 106.855469 102.964844 C 106.84375 103.855469 107.164062 104.621094 107.824219 105.265625 C 108.484375 105.898438 109.285156 106.210938 110.222656 106.210938 C 110.8125 106.210938 111.363281 106.070312 111.863281 105.777344 C 112.367188 105.472656 112.773438 105.085938 113.09375 104.589844 C 113.40625 104.09375 113.566406 103.5625 113.578125 102.964844 C 113.558594 102.074219 113.222656 101.320312 112.542969 100.683594 C 111.878906 100.046875 111.105469 99.738281 110.222656 99.738281 Z M 110.222656 99.738281 " fill-opacity="1" fill-rule="nonzero"/></g></svg>
