<svg xmlns="http://www.w3.org/2000/svg" xmlns:xlink="http://www.w3.org/1999/xlink" width="343" zoomAndPan="magnify" viewBox="0 0 257.25 186.749995" height="249" preserveAspectRatio="xMidYMid meet" version="1.0"><defs><clipPath id="d38bb9adf1"><path d="M 0.410156 54 L 255.28125 54 L 255.28125 58.699219 L 0.410156 58.699219 Z M 0.410156 54 " clip-rule="nonzero"/></clipPath><clipPath id="adaaf5ab70"><path d="M 0.410156 25 L 255.28125 25 L 255.28125 29.425781 L 0.410156 29.425781 Z M 0.410156 25 " clip-rule="nonzero"/></clipPath><clipPath id="9339491858"><path d="M 0.410156 83.097656 L 255.28125 83.097656 L 255.28125 87 L 0.410156 87 Z M 0.410156 83.097656 " clip-rule="nonzero"/></clipPath><clipPath id="85c65ae266"><path d="M 0.410156 112 L 255.28125 112 L 255.28125 116 L 0.410156 116 Z M 0.410156 112 " clip-rule="nonzero"/></clipPath><clipPath id="8660a17f44"><path d="M 0.410156 140.027344 L 255.28125 140.027344 L 255.28125 144.90625 L 0.410156 144.90625 Z M 0.410156 140.027344 " clip-rule="nonzero"/></clipPath><clipPath id="0e3d4a9f76"><path d="M 0.410156 169.304688 L 255.28125 169.304688 L 255.28125 174 L 0.410156 174 Z M 0.410156 169.304688 " clip-rule="nonzero"/></clipPath><clipPath id="d86116d3b2"><path d="M 50 0.628906 L 76 0.628906 L 76 26 L 50 26 Z M 50 0.628906 " clip-rule="nonzero"/></clipPath><clipPath id="e5050b883b"><path d="M 0.410156 0.628906 L 26 0.628906 L 26 26 L 0.410156 26 Z M 0.410156 0.628906 " clip-rule="nonzero"/></clipPath><clipPath id="cea3387e5f"><path d="M 100 0.628906 L 126 0.628906 L 126 26 L 100 26 Z M 100 0.628906 " clip-rule="nonzero"/></clipPath><clipPath id="8706ef5821"><path d="M 150 0.628906 L 175.734375 0.628906 L 175.734375 26 L 150 26 Z M 150 0.628906 " clip-rule="nonzero"/></clipPath><clipPath id="1f2a08e891"><path d="M 200.085938 0.628906 L 226 0.628906 L 226 26 L 200.085938 26 Z M 200.085938 0.628906 " clip-rule="nonzero"/></clipPath><clipPath id="bf6889cbac"><path d="M 250.410156 0.628906 L 255.28125 0.628906 L 255.28125 26 L 250.410156 26 Z M 250.410156 0.628906 " clip-rule="nonzero"/></clipPath><clipPath id="e65131522c"><path d="M 250.410156 115.628906 L 255.28125 115.628906 L 255.28125 141 L 250.410156 141 Z M 250.410156 115.628906 " clip-rule="nonzero"/></clipPath><clipPath id="c23d23bec3"><path d="M 65.34375 173 L 91 173 L 91 186.355469 L 65.34375 186.355469 Z M 65.34375 173 " clip-rule="nonzero"/></clipPath><clipPath id="6aa9e76c73"><path d="M 15.019531 173 L 40.992188 173 L 40.992188 186.355469 L 15.019531 186.355469 Z M 15.019531 173 " clip-rule="nonzero"/></clipPath><clipPath id="99d5387ce4"><path d="M 115 173 L 141 173 L 141 186.355469 L 115 186.355469 Z M 115 173 " clip-rule="nonzero"/></clipPath><clipPath id="eafbf9415c"><path d="M 165 173 L 191 173 L 191 186.355469 L 165 186.355469 Z M 165 173 " clip-rule="nonzero"/></clipPath><clipPath id="e6ccc48849"><path d="M 215 173 L 240.671875 173 L 240.671875 186.355469 L 215 186.355469 Z M 215 173 " clip-rule="nonzero"/></clipPath><clipPath id="484f045d28"><path d="M 139.78125 66.839844 L 238.972656 66.839844 L 238.972656 142.15625 L 139.78125 142.15625 Z M 139.78125 66.839844 " clip-rule="nonzero"/></clipPath><clipPath id="13094a9651"><path d="M 139.78125 66.839844 L 238.972656 66.839844 L 238.972656 70 L 139.78125 70 Z M 139.78125 66.839844 " clip-rule="nonzero"/></clipPath><clipPath id="b45c88f036"><path d="M 139.78125 139 L 238.972656 139 L 238.972656 142.15625 L 139.78125 142.15625 Z M 139.78125 139 " clip-rule="nonzero"/></clipPath><clipPath id="d55a8ec32d"><path d="M 139.78125 66.839844 L 143 66.839844 L 143 142.15625 L 139.78125 142.15625 Z M 139.78125 66.839844 " clip-rule="nonzero"/></clipPath><clipPath id="293b8ad68c"><path d="M 235.800781 66.839844 L 238.972656 66.839844 L 238.972656 142.15625 L 235.800781 142.15625 Z M 235.800781 66.839844 " clip-rule="nonzero"/></clipPath><clipPath id="3b379bb16a"><path d="M 180.097656 89.433594 L 198.996094 89.433594 L 198.996094 110.75 L 180.097656 110.75 Z M 180.097656 89.433594 " clip-rule="nonzero"/></clipPath><clipPath id="86f7202018"><path d="M 185.476562 112.375 L 193 112.375 L 193 119.238281 L 185.476562 119.238281 Z M 185.476562 112.375 " clip-rule="nonzero"/></clipPath></defs><g clip-path="url(#d38bb9adf1)"><path fill="#afabab" d="M 0.410156 54.449219 L 275.460938 54.449219 L 275.460938 58.171875 L 0.410156 58.171875 Z M 0.410156 54.449219 " fill-opacity="1" fill-rule="nonzero"/></g><g clip-path="url(#adaaf5ab70)"><path fill="#afabab" d="M 0.410156 25.675781 L 275.460938 25.675781 L 275.460938 29.398438 L 0.410156 29.398438 Z M 0.410156 25.675781 " fill-opacity="1" fill-rule="nonzero"/></g><g clip-path="url(#9339491858)"><path fill="#afabab" d="M 0.410156 83.226562 L 275.460938 83.226562 L 275.460938 86.949219 L 0.410156 86.949219 Z M 0.410156 83.226562 " fill-opacity="1" fill-rule="nonzero"/></g><g clip-path="url(#85c65ae266)"><path fill="#afabab" d="M 0.410156 112.171875 L 275.460938 112.171875 L 275.460938 115.894531 L 0.410156 115.894531 Z M 0.410156 112.171875 " fill-opacity="1" fill-rule="nonzero"/></g><g clip-path="url(#8660a17f44)"><path fill="#afabab" d="M 0.410156 140.949219 L 275.460938 140.949219 L 275.460938 144.671875 L 0.410156 144.671875 Z M 0.410156 140.949219 " fill-opacity="1" fill-rule="nonzero"/></g><g clip-path="url(#0e3d4a9f76)"><path fill="#afabab" d="M 0.410156 169.722656 L 275.460938 169.722656 L 275.460938 173.445312 L 0.410156 173.445312 Z M 0.410156 169.722656 " fill-opacity="1" fill-rule="nonzero"/></g><g clip-path="url(#d86116d3b2)"><path fill="#000000" d="M 50.359375 0.628906 L 75.496094 0.628906 L 75.496094 25.675781 L 50.359375 25.675781 Z M 50.359375 0.628906 " fill-opacity="1" fill-rule="nonzero"/></g><g clip-path="url(#e5050b883b)"><path fill="#000000" d="M 0.410156 0.628906 L 25.382812 0.628906 L 25.382812 25.675781 L 0.410156 25.675781 Z M 0.410156 0.628906 " fill-opacity="1" fill-rule="nonzero"/></g><g clip-path="url(#cea3387e5f)"><path fill="#000000" d="M 100.476562 0.628906 L 125.449219 0.628906 L 125.449219 25.675781 L 100.476562 25.675781 Z M 100.476562 0.628906 " fill-opacity="1" fill-rule="nonzero"/></g><g clip-path="url(#8706ef5821)"><path fill="#000000" d="M 150.421875 0.628906 L 175.398438 0.628906 L 175.398438 25.675781 L 150.421875 25.675781 Z M 150.421875 0.628906 " fill-opacity="1" fill-rule="nonzero"/></g><g clip-path="url(#1f2a08e891)"><path fill="#000000" d="M 200.542969 0.628906 L 225.515625 0.628906 L 225.515625 25.675781 L 200.542969 25.675781 Z M 200.542969 0.628906 " fill-opacity="1" fill-rule="nonzero"/></g><g clip-path="url(#bf6889cbac)"><path fill="#000000" d="M 250.488281 0.628906 L 275.460938 0.628906 L 275.460938 25.675781 L 250.488281 25.675781 Z M 250.488281 0.628906 " fill-opacity="1" fill-rule="nonzero"/></g><path fill="#000000" d="M 55.589844 29.398438 L 80.730469 29.398438 L 80.730469 54.449219 L 55.589844 54.449219 Z M 55.589844 29.398438 " fill-opacity="1" fill-rule="nonzero"/><path fill="#000000" d="M 5.640625 29.398438 L 30.613281 29.398438 L 30.613281 54.449219 L 5.640625 54.449219 Z M 5.640625 29.398438 " fill-opacity="1" fill-rule="nonzero"/><path fill="#000000" d="M 105.707031 29.398438 L 130.679688 29.398438 L 130.679688 54.449219 L 105.707031 54.449219 Z M 105.707031 29.398438 " fill-opacity="1" fill-rule="nonzero"/><path fill="#000000" d="M 155.652344 29.398438 L 180.628906 29.398438 L 180.628906 54.449219 L 155.652344 54.449219 Z M 155.652344 29.398438 " fill-opacity="1" fill-rule="nonzero"/><path fill="#000000" d="M 205.773438 29.398438 L 230.746094 29.398438 L 230.746094 54.449219 L 205.773438 54.449219 Z M 205.773438 29.398438 " fill-opacity="1" fill-rule="nonzero"/><path fill="#000000" d="M 65.375 58.171875 L 90.347656 58.171875 L 90.347656 83.226562 L 65.375 83.226562 Z M 65.375 58.171875 " fill-opacity="1" fill-rule="nonzero"/><path fill="#000000" d="M 15.425781 58.171875 L 40.402344 58.171875 L 40.402344 83.226562 L 15.425781 83.226562 Z M 15.425781 58.171875 " fill-opacity="1" fill-rule="nonzero"/><path fill="#000000" d="M 115.320312 58.171875 L 140.464844 58.171875 L 140.464844 83.226562 L 115.320312 83.226562 Z M 115.320312 58.171875 " fill-opacity="1" fill-rule="nonzero"/><path fill="#000000" d="M 165.441406 58.171875 L 190.414062 58.171875 L 190.414062 83.226562 L 165.441406 83.226562 Z M 165.441406 58.171875 " fill-opacity="1" fill-rule="nonzero"/><path fill="#000000" d="M 215.386719 58.171875 L 240.367188 58.171875 L 240.367188 83.226562 L 215.386719 83.226562 Z M 215.386719 58.171875 " fill-opacity="1" fill-rule="nonzero"/><path fill="#000000" d="M 55.589844 86.949219 L 80.730469 86.949219 L 80.730469 112.171875 L 55.589844 112.171875 Z M 55.589844 86.949219 " fill-opacity="1" fill-rule="nonzero"/><path fill="#000000" d="M 5.640625 86.949219 L 30.613281 86.949219 L 30.613281 112.171875 L 5.640625 112.171875 Z M 5.640625 86.949219 " fill-opacity="1" fill-rule="nonzero"/><path fill="#000000" d="M 105.707031 86.949219 L 130.679688 86.949219 L 130.679688 112.171875 L 105.707031 112.171875 Z M 105.707031 86.949219 " fill-opacity="1" fill-rule="nonzero"/><path fill="#000000" d="M 155.652344 86.949219 L 180.628906 86.949219 L 180.628906 112.171875 L 155.652344 112.171875 Z M 155.652344 86.949219 " fill-opacity="1" fill-rule="nonzero"/><path fill="#000000" d="M 205.773438 86.949219 L 230.746094 86.949219 L 230.746094 112.171875 L 205.773438 112.171875 Z M 205.773438 86.949219 " fill-opacity="1" fill-rule="nonzero"/><path fill="#000000" d="M 50.359375 115.894531 L 75.496094 115.894531 L 75.496094 140.949219 L 50.359375 140.949219 Z M 50.359375 115.894531 " fill-opacity="1" fill-rule="nonzero"/><path fill="#000000" d="M 0.410156 115.894531 L 25.382812 115.894531 L 25.382812 140.949219 L 0.410156 140.949219 Z M 0.410156 115.894531 " fill-opacity="1" fill-rule="nonzero"/><path fill="#000000" d="M 100.476562 115.894531 L 125.449219 115.894531 L 125.449219 140.949219 L 100.476562 140.949219 Z M 100.476562 115.894531 " fill-opacity="1" fill-rule="nonzero"/><path fill="#000000" d="M 150.421875 115.894531 L 175.398438 115.894531 L 175.398438 140.949219 L 150.421875 140.949219 Z M 150.421875 115.894531 " fill-opacity="1" fill-rule="nonzero"/><path fill="#000000" d="M 200.542969 115.894531 L 225.515625 115.894531 L 225.515625 140.949219 L 200.542969 140.949219 Z M 200.542969 115.894531 " fill-opacity="1" fill-rule="nonzero"/><g clip-path="url(#e65131522c)"><path fill="#000000" d="M 250.488281 115.894531 L 275.460938 115.894531 L 275.460938 140.949219 L 250.488281 140.949219 Z M 250.488281 115.894531 " fill-opacity="1" fill-rule="nonzero"/></g><path fill="#000000" d="M 55.589844 144.671875 L 80.730469 144.671875 L 80.730469 169.722656 L 55.589844 169.722656 Z M 55.589844 144.671875 " fill-opacity="1" fill-rule="nonzero"/><path fill="#000000" d="M 5.640625 144.671875 L 30.613281 144.671875 L 30.613281 169.722656 L 5.640625 169.722656 Z M 5.640625 144.671875 " fill-opacity="1" fill-rule="nonzero"/><path fill="#000000" d="M 105.707031 144.671875 L 130.679688 144.671875 L 130.679688 169.722656 L 105.707031 169.722656 Z M 105.707031 144.671875 " fill-opacity="1" fill-rule="nonzero"/><path fill="#000000" d="M 155.652344 144.671875 L 180.628906 144.671875 L 180.628906 169.722656 L 155.652344 169.722656 Z M 155.652344 144.671875 " fill-opacity="1" fill-rule="nonzero"/><path fill="#000000" d="M 205.773438 144.671875 L 230.746094 144.671875 L 230.746094 169.722656 L 205.773438 169.722656 Z M 205.773438 144.671875 " fill-opacity="1" fill-rule="nonzero"/><g clip-path="url(#c23d23bec3)"><path fill="#000000" d="M 65.375 173.445312 L 90.347656 173.445312 L 90.347656 198.5 L 65.375 198.5 Z M 65.375 173.445312 " fill-opacity="1" fill-rule="nonzero"/></g><g clip-path="url(#6aa9e76c73)"><path fill="#000000" d="M 15.425781 173.445312 L 40.402344 173.445312 L 40.402344 198.5 L 15.425781 198.5 Z M 15.425781 173.445312 " fill-opacity="1" fill-rule="nonzero"/></g><g clip-path="url(#99d5387ce4)"><path fill="#000000" d="M 115.320312 173.445312 L 140.464844 173.445312 L 140.464844 198.5 L 115.320312 198.5 Z M 115.320312 173.445312 " fill-opacity="1" fill-rule="nonzero"/></g><g clip-path="url(#eafbf9415c)"><path fill="#000000" d="M 165.441406 173.445312 L 190.414062 173.445312 L 190.414062 198.5 L 165.441406 198.5 Z M 165.441406 173.445312 " fill-opacity="1" fill-rule="nonzero"/></g><g clip-path="url(#e6ccc48849)"><path fill="#000000" d="M 215.386719 173.445312 L 240.367188 173.445312 L 240.367188 198.5 L 215.386719 198.5 Z M 215.386719 173.445312 " fill-opacity="1" fill-rule="nonzero"/></g><g clip-path="url(#484f045d28)"><path fill="#ffffff" d="M 139.78125 66.839844 L 238.972656 66.839844 L 238.972656 142.15625 L 139.78125 142.15625 Z M 139.78125 66.839844 " fill-opacity="1" fill-rule="nonzero"/><path fill="#ffffff" d="M 139.78125 66.839844 L 238.972656 66.839844 L 238.972656 142.15625 L 139.78125 142.15625 Z M 139.78125 66.839844 " fill-opacity="1" fill-rule="nonzero"/></g><g clip-path="url(#13094a9651)"><path stroke-linecap="butt" transform="matrix(1.574518, 0, 0, 1.56903, 131.021289, 66.837977)" fill="none" stroke-linejoin="miter" d="M 0.00136451 1.002007 L 74.123738 1.002007 " stroke="#000000" stroke-width="2" stroke-opacity="1" stroke-miterlimit="4"/></g><g clip-path="url(#b45c88f036)"><path stroke-linecap="butt" transform="matrix(1.574518, 0, 0, 1.56903, 137.004445, 139.013376)" fill="none" stroke-linejoin="miter" d="M 0.00213862 0.997271 L 74.124512 0.997271 " stroke="#000000" stroke-width="2" stroke-opacity="1" stroke-miterlimit="4"/></g><g clip-path="url(#d55a8ec32d)"><path stroke-linecap="butt" transform="matrix(0, 1.56903, -1.574518, 0, 142.929078, 68.407012)" fill="none" stroke-linejoin="miter" d="M 0.00200369 0.996941 L 48.00139 0.996941 " stroke="#000000" stroke-width="2" stroke-opacity="1" stroke-miterlimit="4"/></g><g clip-path="url(#293b8ad68c)"><path stroke-linecap="butt" transform="matrix(0, 1.56903, -1.574518, 0, 238.974663, 68.407012)" fill="none" stroke-linejoin="miter" d="M 0.00200369 1.001084 L 48.00139 1.001084 " stroke="#000000" stroke-width="2" stroke-opacity="1" stroke-miterlimit="4"/></g><g clip-path="url(#3b379bb16a)"><path fill="#000000" d="M 197.738281 92.890625 C 196.933594 91.765625 195.8125 90.90625 194.378906 90.324219 C 192.964844 89.730469 191.324219 89.433594 189.457031 89.433594 C 187.765625 89.433594 186.21875 89.726562 184.824219 90.304688 C 183.425781 90.882812 182.296875 91.777344 181.449219 92.953125 C 180.777344 93.878906 180.351562 95.019531 180.1875 96.351562 C 180.109375 96.925781 180.582031 97.4375 181.1875 97.4375 L 184.929688 97.4375 C 185.414062 97.4375 185.816406 97.109375 185.917969 96.65625 C 186.007812 96.25 186.167969 95.886719 186.382812 95.578125 C 186.726562 95.074219 187.175781 94.699219 187.714844 94.441406 C 188.253906 94.1875 188.824219 94.050781 189.433594 94.050781 C 190.058594 94.050781 190.632812 94.179688 191.152344 94.441406 C 191.664062 94.679688 192.078125 95.050781 192.386719 95.519531 C 192.691406 95.988281 192.851562 96.535156 192.851562 97.160156 C 192.851562 97.742188 192.710938 98.285156 192.4375 98.753906 C 192.171875 99.222656 191.8125 99.664062 191.355469 100.050781 C 190.890625 100.445312 190.382812 100.8125 189.800781 101.175781 C 189.027344 101.644531 188.359375 102.164062 187.816406 102.742188 C 187.265625 103.320312 186.851562 104.078125 186.558594 105.019531 C 186.28125 105.972656 186.128906 107.222656 186.117188 108.796875 L 186.117188 109.585938 C 186.117188 110.125 186.574219 110.570312 187.128906 110.570312 L 190.429688 110.570312 C 190.980469 110.570312 191.4375 110.132812 191.4375 109.585938 L 191.4375 108.796875 C 191.441406 107.914062 191.5625 107.171875 191.792969 106.5625 C 192.019531 105.972656 192.375 105.429688 192.839844 104.96875 C 193.308594 104.511719 193.917969 104.070312 194.652344 103.640625 C 195.53125 103.132812 196.292969 102.566406 196.933594 101.9375 C 197.574219 101.308594 198.074219 100.582031 198.445312 99.765625 C 198.804688 98.945312 198.988281 98.003906 198.988281 96.949219 C 198.964844 95.359375 198.550781 94.007812 197.738281 92.890625 Z M 197.738281 92.890625 " fill-opacity="1" fill-rule="nonzero"/></g><g clip-path="url(#86f7202018)"><path fill="#000000" d="M 188.882812 112.761719 C 187.949219 112.761719 187.148438 113.074219 186.492188 113.710938 C 185.832031 114.34375 185.5 115.109375 185.519531 115.992188 C 185.5 116.878906 185.832031 117.648438 186.492188 118.289062 C 187.148438 118.925781 187.949219 119.238281 188.882812 119.238281 C 189.472656 119.238281 190.027344 119.097656 190.53125 118.804688 C 191.03125 118.5 191.4375 118.113281 191.761719 117.617188 C 192.070312 117.121094 192.230469 116.589844 192.234375 115.992188 C 192.222656 115.101562 191.886719 114.34375 191.207031 113.710938 C 190.542969 113.074219 189.769531 112.761719 188.882812 112.761719 Z M 188.882812 112.761719 " fill-opacity="1" fill-rule="nonzero"/></g></svg>