<svg xmlns="http://www.w3.org/2000/svg" xmlns:xlink="http://www.w3.org/1999/xlink" width="210" zoomAndPan="magnify" viewBox="0 0 157.5 119.999999" height="160" preserveAspectRatio="xMidYMid meet" version="1.0"><defs><clipPath id="1fe8bb090a"><path d="M 0 33 L 157 33 L 157 36 L 0 36 Z M 0 33 " clip-rule="nonzero"/></clipPath><clipPath id="1dd02eacee"><path d="M 0 15 L 157 15 L 157 18 L 0 18 Z M 0 15 " clip-rule="nonzero"/></clipPath><clipPath id="48c10f2fcd"><path d="M 0 51 L 157 51 L 157 54 L 0 54 Z M 0 51 " clip-rule="nonzero"/></clipPath><clipPath id="b1caf65bf8"><path d="M 0 68 L 157 68 L 157 72 L 0 72 Z M 0 68 " clip-rule="nonzero"/></clipPath><clipPath id="e04fdaea50"><path d="M 0 86 L 157 86 L 157 89 L 0 89 Z M 0 86 " clip-rule="nonzero"/></clipPath><clipPath id="dab81cec48"><path d="M 0 104 L 157 104 L 157 107 L 0 107 Z M 0 104 " clip-rule="nonzero"/></clipPath><clipPath id="e10c5b4622"><path d="M 30 0.296875 L 47 0.296875 L 47 16 L 30 16 Z M 30 0.296875 " clip-rule="nonzero"/></clipPath><clipPath id="fe32f12773"><path d="M 0 0.296875 L 16 0.296875 L 16 16 L 0 16 Z M 0 0.296875 " clip-rule="nonzero"/></clipPath><clipPath id="2a62b5ebb9"><path d="M 61 0.296875 L 78 0.296875 L 78 16 L 61 16 Z M 61 0.296875 " clip-rule="nonzero"/></clipPath><clipPath id="430817e273"><path d="M 92 0.296875 L 108 0.296875 L 108 16 L 92 16 Z M 92 0.296875 " clip-rule="nonzero"/></clipPath><clipPath id="91bad30926"><path d="M 123 0.296875 L 139 0.296875 L 139 16 L 123 16 Z M 123 0.296875 " clip-rule="nonzero"/></clipPath><clipPath id="3a5d4dbfd2"><path d="M 154 0.296875 L 157 0.296875 L 157 16 L 154 16 Z M 154 0.296875 " clip-rule="nonzero"/></clipPath><clipPath id="85fed8c907"><path d="M 154 71 L 157 71 L 157 87 L 154 87 Z M 154 71 " clip-rule="nonzero"/></clipPath><clipPath id="e8158bdc33"><path d="M 40 106 L 56 106 L 56 119.808594 L 40 119.808594 Z M 40 106 " clip-rule="nonzero"/></clipPath><clipPath id="2fad39d4e0"><path d="M 9 106 L 25 106 L 25 119.808594 L 9 119.808594 Z M 9 106 " clip-rule="nonzero"/></clipPath><clipPath id="afca3803cd"><path d="M 70 106 L 87 106 L 87 119.808594 L 70 119.808594 Z M 70 106 " clip-rule="nonzero"/></clipPath><clipPath id="bd68e1299f"><path d="M 101 106 L 118 106 L 118 119.808594 L 101 119.808594 Z M 101 106 " clip-rule="nonzero"/></clipPath><clipPath id="99a7eaf53e"><path d="M 132 106 L 148 106 L 148 119.808594 L 132 119.808594 Z M 132 106 " clip-rule="nonzero"/></clipPath><clipPath id="1260460aed"><path d="M 85.851562 41.003906 L 146.953125 41.003906 L 146.953125 87.308594 L 85.851562 87.308594 Z M 85.851562 41.003906 " clip-rule="nonzero"/></clipPath><clipPath id="2c48432103"><path d="M 85.851562 41.003906 L 146.953125 41.003906 L 146.953125 43 L 85.851562 43 Z M 85.851562 41.003906 " clip-rule="nonzero"/></clipPath><clipPath id="2684395ca6"><path d="M 85.851562 85 L 146.953125 85 L 146.953125 87.308594 L 85.851562 87.308594 Z M 85.851562 85 " clip-rule="nonzero"/></clipPath><clipPath id="833726412f"><path d="M 85.851562 41.003906 L 88 41.003906 L 88 87.308594 L 85.851562 87.308594 Z M 85.851562 41.003906 " clip-rule="nonzero"/></clipPath><clipPath id="cd38b36619"><path d="M 145 41.003906 L 146.953125 41.003906 L 146.953125 87.308594 L 145 87.308594 Z M 145 41.003906 " clip-rule="nonzero"/></clipPath><clipPath id="293ce618ae"><path d="M 110.6875 54.894531 L 122.328125 54.894531 L 122.328125 68 L 110.6875 68 Z M 110.6875 54.894531 " clip-rule="nonzero"/></clipPath><clipPath id="1631324ce0"><path d="M 114 69 L 118.714844 69 L 118.714844 73.21875 L 114 73.21875 Z M 114 69 " clip-rule="nonzero"/></clipPath></defs><g clip-path="url(#1fe8bb090a)"><path fill="#afabab" d="M 0 33.386719 L 169.429688 33.386719 L 169.429688 35.675781 L 0 35.675781 Z M 0 33.386719 " fill-opacity="1" fill-rule="nonzero"/></g><g clip-path="url(#1dd02eacee)"><path fill="#afabab" d="M 0 15.695312 L 169.429688 15.695312 L 169.429688 17.984375 L 0 17.984375 Z M 0 15.695312 " fill-opacity="1" fill-rule="nonzero"/></g><g clip-path="url(#48c10f2fcd)"><path fill="#afabab" d="M 0 51.078125 L 169.429688 51.078125 L 169.429688 53.367188 L 0 53.367188 Z M 0 51.078125 " fill-opacity="1" fill-rule="nonzero"/></g><g clip-path="url(#b1caf65bf8)"><path fill="#afabab" d="M 0 68.875 L 169.429688 68.875 L 169.429688 71.164062 L 0 71.164062 Z M 0 68.875 " fill-opacity="1" fill-rule="nonzero"/></g><g clip-path="url(#e04fdaea50)"><path fill="#afabab" d="M 0 86.566406 L 169.429688 86.566406 L 169.429688 88.855469 L 0 88.855469 Z M 0 86.566406 " fill-opacity="1" fill-rule="nonzero"/></g><g clip-path="url(#dab81cec48)"><path fill="#afabab" d="M 0 104.257812 L 169.429688 104.257812 L 169.429688 106.546875 L 0 106.546875 Z M 0 104.257812 " fill-opacity="1" fill-rule="nonzero"/></g><g clip-path="url(#e10c5b4622)"><path fill="#000000" d="M 30.769531 0.296875 L 46.253906 0.296875 L 46.253906 15.695312 L 30.769531 15.695312 Z M 30.769531 0.296875 " fill-opacity="1" fill-rule="nonzero"/></g><g clip-path="url(#fe32f12773)"><path fill="#000000" d="M 0 0.296875 L 15.382812 0.296875 L 15.382812 15.695312 L 0 15.695312 Z M 0 0.296875 " fill-opacity="1" fill-rule="nonzero"/></g><g clip-path="url(#2a62b5ebb9)"><path fill="#000000" d="M 61.640625 0.296875 L 77.023438 0.296875 L 77.023438 15.695312 L 61.640625 15.695312 Z M 61.640625 0.296875 " fill-opacity="1" fill-rule="nonzero"/></g><g clip-path="url(#430817e273)"><path fill="#000000" d="M 92.40625 0.296875 L 107.792969 0.296875 L 107.792969 15.695312 L 92.40625 15.695312 Z M 92.40625 0.296875 " fill-opacity="1" fill-rule="nonzero"/></g><g clip-path="url(#91bad30926)"><path fill="#000000" d="M 123.28125 0.296875 L 138.664062 0.296875 L 138.664062 15.695312 L 123.28125 15.695312 Z M 123.28125 0.296875 " fill-opacity="1" fill-rule="nonzero"/></g><g clip-path="url(#3a5d4dbfd2)"><path fill="#000000" d="M 154.046875 0.296875 L 169.429688 0.296875 L 169.429688 15.695312 L 154.046875 15.695312 Z M 154.046875 0.296875 " fill-opacity="1" fill-rule="nonzero"/></g><path fill="#000000" d="M 33.992188 17.984375 L 49.476562 17.984375 L 49.476562 33.386719 L 33.992188 33.386719 Z M 33.992188 17.984375 " fill-opacity="1" fill-rule="nonzero"/><path fill="#000000" d="M 3.222656 17.984375 L 18.605469 17.984375 L 18.605469 33.386719 L 3.222656 33.386719 Z M 3.222656 17.984375 " fill-opacity="1" fill-rule="nonzero"/><path fill="#000000" d="M 64.863281 17.984375 L 80.246094 17.984375 L 80.246094 33.386719 L 64.863281 33.386719 Z M 64.863281 17.984375 " fill-opacity="1" fill-rule="nonzero"/><path fill="#000000" d="M 95.628906 17.984375 L 111.015625 17.984375 L 111.015625 33.386719 L 95.628906 33.386719 Z M 95.628906 17.984375 " fill-opacity="1" fill-rule="nonzero"/><path fill="#000000" d="M 126.503906 17.984375 L 141.886719 17.984375 L 141.886719 33.386719 L 126.503906 33.386719 Z M 126.503906 17.984375 " fill-opacity="1" fill-rule="nonzero"/><path fill="#000000" d="M 40.019531 35.675781 L 55.402344 35.675781 L 55.402344 51.078125 L 40.019531 51.078125 Z M 40.019531 35.675781 " fill-opacity="1" fill-rule="nonzero"/><path fill="#000000" d="M 9.25 35.675781 L 24.636719 35.675781 L 24.636719 51.078125 L 9.25 51.078125 Z M 9.25 35.675781 " fill-opacity="1" fill-rule="nonzero"/><path fill="#000000" d="M 70.785156 35.675781 L 86.273438 35.675781 L 86.273438 51.078125 L 70.785156 51.078125 Z M 70.785156 35.675781 " fill-opacity="1" fill-rule="nonzero"/><path fill="#000000" d="M 101.660156 35.675781 L 117.042969 35.675781 L 117.042969 51.078125 L 101.660156 51.078125 Z M 101.660156 35.675781 " fill-opacity="1" fill-rule="nonzero"/><path fill="#000000" d="M 132.425781 35.675781 L 147.8125 35.675781 L 147.8125 51.078125 L 132.425781 51.078125 Z M 132.425781 35.675781 " fill-opacity="1" fill-rule="nonzero"/><path fill="#000000" d="M 33.992188 53.367188 L 49.476562 53.367188 L 49.476562 68.875 L 33.992188 68.875 Z M 33.992188 53.367188 " fill-opacity="1" fill-rule="nonzero"/><path fill="#000000" d="M 3.222656 53.367188 L 18.605469 53.367188 L 18.605469 68.875 L 3.222656 68.875 Z M 3.222656 53.367188 " fill-opacity="1" fill-rule="nonzero"/><path fill="#000000" d="M 64.863281 53.367188 L 80.246094 53.367188 L 80.246094 68.875 L 64.863281 68.875 Z M 64.863281 53.367188 " fill-opacity="1" fill-rule="nonzero"/><path fill="#000000" d="M 95.628906 53.367188 L 111.015625 53.367188 L 111.015625 68.875 L 95.628906 68.875 Z M 95.628906 53.367188 " fill-opacity="1" fill-rule="nonzero"/><path fill="#000000" d="M 126.503906 53.367188 L 141.886719 53.367188 L 141.886719 68.875 L 126.503906 68.875 Z M 126.503906 53.367188 " fill-opacity="1" fill-rule="nonzero"/><path fill="#000000" d="M 30.769531 71.164062 L 46.253906 71.164062 L 46.253906 86.566406 L 30.769531 86.566406 Z M 30.769531 71.164062 " fill-opacity="1" fill-rule="nonzero"/><path fill="#000000" d="M 0 71.164062 L 15.382812 71.164062 L 15.382812 86.566406 L 0 86.566406 Z M 0 71.164062 " fill-opacity="1" fill-rule="nonzero"/><path fill="#000000" d="M 61.640625 71.164062 L 77.023438 71.164062 L 77.023438 86.566406 L 61.640625 86.566406 Z M 61.640625 71.164062 " fill-opacity="1" fill-rule="nonzero"/><path fill="#000000" d="M 92.40625 71.164062 L 107.792969 71.164062 L 107.792969 86.566406 L 92.40625 86.566406 Z M 92.40625 71.164062 " fill-opacity="1" fill-rule="nonzero"/><path fill="#000000" d="M 123.28125 71.164062 L 138.664062 71.164062 L 138.664062 86.566406 L 123.28125 86.566406 Z M 123.28125 71.164062 " fill-opacity="1" fill-rule="nonzero"/><g clip-path="url(#85fed8c907)"><path fill="#000000" d="M 154.046875 71.164062 L 169.429688 71.164062 L 169.429688 86.566406 L 154.046875 86.566406 Z M 154.046875 71.164062 " fill-opacity="1" fill-rule="nonzero"/></g><path fill="#000000" d="M 33.992188 88.855469 L 49.476562 88.855469 L 49.476562 104.257812 L 33.992188 104.257812 Z M 33.992188 88.855469 " fill-opacity="1" fill-rule="nonzero"/><path fill="#000000" d="M 3.222656 88.855469 L 18.605469 88.855469 L 18.605469 104.257812 L 3.222656 104.257812 Z M 3.222656 88.855469 " fill-opacity="1" fill-rule="nonzero"/><path fill="#000000" d="M 64.863281 88.855469 L 80.246094 88.855469 L 80.246094 104.257812 L 64.863281 104.257812 Z M 64.863281 88.855469 " fill-opacity="1" fill-rule="nonzero"/><path fill="#000000" d="M 95.628906 88.855469 L 111.015625 88.855469 L 111.015625 104.257812 L 95.628906 104.257812 Z M 95.628906 88.855469 " fill-opacity="1" fill-rule="nonzero"/><path fill="#000000" d="M 126.503906 88.855469 L 141.886719 88.855469 L 141.886719 104.257812 L 126.503906 104.257812 Z M 126.503906 88.855469 " fill-opacity="1" fill-rule="nonzero"/><g clip-path="url(#e8158bdc33)"><path fill="#000000" d="M 40.019531 106.546875 L 55.402344 106.546875 L 55.402344 121.949219 L 40.019531 121.949219 Z M 40.019531 106.546875 " fill-opacity="1" fill-rule="nonzero"/></g><g clip-path="url(#2fad39d4e0)"><path fill="#000000" d="M 9.25 106.546875 L 24.636719 106.546875 L 24.636719 121.949219 L 9.25 121.949219 Z M 9.25 106.546875 " fill-opacity="1" fill-rule="nonzero"/></g><g clip-path="url(#afca3803cd)"><path fill="#000000" d="M 70.785156 106.546875 L 86.273438 106.546875 L 86.273438 121.949219 L 70.785156 121.949219 Z M 70.785156 106.546875 " fill-opacity="1" fill-rule="nonzero"/></g><g clip-path="url(#bd68e1299f)"><path fill="#000000" d="M 101.660156 106.546875 L 117.042969 106.546875 L 117.042969 121.949219 L 101.660156 121.949219 Z M 101.660156 106.546875 " fill-opacity="1" fill-rule="nonzero"/></g><g clip-path="url(#99a7eaf53e)"><path fill="#000000" d="M 132.425781 106.546875 L 147.8125 106.546875 L 147.8125 121.949219 L 132.425781 121.949219 Z M 132.425781 106.546875 " fill-opacity="1" fill-rule="nonzero"/></g><g clip-path="url(#1260460aed)"><path fill="#ffffff" d="M 85.851562 41.003906 L 146.953125 41.003906 L 146.953125 87.308594 L 85.851562 87.308594 Z M 85.851562 41.003906 " fill-opacity="1" fill-rule="nonzero"/><path fill="#ffffff" d="M 85.851562 41.003906 L 146.953125 41.003906 L 146.953125 87.308594 L 85.851562 87.308594 Z M 85.851562 41.003906 " fill-opacity="1" fill-rule="nonzero"/></g><g clip-path="url(#2c48432103)"><path stroke-linecap="butt" transform="matrix(0.969894, 0, 0, 0.964662, 80.456431, 41.002677)" fill="none" stroke-linejoin="miter" d="M 0.000619297 1.001463 L 74.122743 1.001463 " stroke="#000000" stroke-width="2" stroke-opacity="1" stroke-miterlimit="4"/></g><g clip-path="url(#2684395ca6)"><path stroke-linecap="butt" transform="matrix(0.969894, 0, 0, 0.964662, 84.142024, 85.377131)" fill="none" stroke-linejoin="miter" d="M 0.00258534 0.997979 L 74.124709 0.997979 " stroke="#000000" stroke-width="2" stroke-opacity="1" stroke-miterlimit="4"/></g><g clip-path="url(#833726412f)"><path stroke-linecap="butt" transform="matrix(0, 0.964662, -0.969894, 0, 87.791559, 41.967337)" fill="none" stroke-linejoin="miter" d="M 0.0014645 0.997366 L 48.002394 0.997366 " stroke="#000000" stroke-width="2" stroke-opacity="1" stroke-miterlimit="4"/></g><g clip-path="url(#cd38b36619)"><path stroke-linecap="butt" transform="matrix(0, 0.964662, -0.969894, 0, 146.95508, 41.967337)" fill="none" stroke-linejoin="miter" d="M 0.0014645 1.000836 L 48.002394 1.000836 " stroke="#000000" stroke-width="2" stroke-opacity="1" stroke-miterlimit="4"/></g><g clip-path="url(#293ce618ae)"><path fill="#000000" d="M 121.554688 57.019531 C 121.058594 56.328125 120.367188 55.800781 119.484375 55.441406 C 118.613281 55.078125 117.601562 54.894531 116.453125 54.894531 C 115.410156 54.894531 114.457031 55.074219 113.597656 55.429688 C 112.738281 55.785156 112.042969 56.335938 111.519531 57.058594 C 111.105469 57.628906 110.84375 58.328125 110.742188 59.148438 C 110.695312 59.5 110.984375 59.816406 111.359375 59.816406 L 113.664062 59.816406 C 113.960938 59.816406 114.210938 59.613281 114.273438 59.335938 C 114.328125 59.085938 114.425781 58.863281 114.558594 58.671875 C 114.769531 58.363281 115.046875 58.132812 115.378906 57.972656 C 115.710938 57.816406 116.0625 57.734375 116.4375 57.734375 C 116.824219 57.734375 117.175781 57.8125 117.496094 57.972656 C 117.8125 58.121094 118.066406 58.347656 118.257812 58.636719 C 118.445312 58.925781 118.542969 59.261719 118.542969 59.644531 C 118.542969 60.003906 118.457031 60.335938 118.289062 60.625 C 118.125 60.914062 117.902344 61.183594 117.621094 61.421875 C 117.335938 61.664062 117.023438 61.890625 116.664062 62.113281 C 116.1875 62.402344 115.777344 62.722656 115.441406 63.078125 C 115.101562 63.433594 114.847656 63.898438 114.667969 64.476562 C 114.496094 65.0625 114.402344 65.832031 114.394531 66.800781 L 114.394531 67.285156 C 114.394531 67.617188 114.675781 67.890625 115.019531 67.890625 L 117.050781 67.890625 C 117.390625 67.890625 117.671875 67.621094 117.671875 67.285156 L 117.671875 66.800781 C 117.675781 66.257812 117.75 65.800781 117.890625 65.425781 C 118.03125 65.0625 118.25 64.730469 118.535156 64.445312 C 118.824219 64.164062 119.199219 63.894531 119.652344 63.628906 C 120.195312 63.316406 120.664062 62.96875 121.058594 62.582031 C 121.453125 62.195312 121.761719 61.75 121.988281 61.246094 C 122.210938 60.742188 122.324219 60.164062 122.324219 59.515625 C 122.308594 58.539062 122.054688 57.707031 121.554688 57.019531 Z M 121.554688 57.019531 " fill-opacity="1" fill-rule="nonzero"/></g><g clip-path="url(#1631324ce0)"><path fill="#000000" d="M 116.097656 69.238281 C 115.523438 69.238281 115.03125 69.429688 114.625 69.820312 C 114.21875 70.210938 114.015625 70.679688 114.027344 71.222656 C 114.015625 71.769531 114.21875 72.242188 114.625 72.636719 C 115.03125 73.027344 115.523438 73.21875 116.097656 73.21875 C 116.460938 73.21875 116.804688 73.132812 117.113281 72.953125 C 117.421875 72.765625 117.671875 72.527344 117.871094 72.222656 C 118.0625 71.917969 118.160156 71.589844 118.164062 71.222656 C 118.15625 70.675781 117.949219 70.210938 117.53125 69.820312 C 117.121094 69.429688 116.644531 69.238281 116.097656 69.238281 Z M 116.097656 69.238281 " fill-opacity="1" fill-rule="nonzero"/></g></svg>