<svg xmlns="http://www.w3.org/2000/svg" xmlns:xlink="http://www.w3.org/1999/xlink" width="343" zoomAndPan="magnify" viewBox="0 0 257.25 186.749995" height="249" preserveAspectRatio="xMidYMid meet" version="1.0"><defs><clipPath id="f17d1627b8"><path d="M 13.339844 7.464844 L 64.191406 7.464844 L 64.191406 58.316406 L 13.339844 58.316406 Z M 13.339844 7.464844 " clip-rule="nonzero"/></clipPath><clipPath id="38153502fc"><path d="M 13.339844 68.464844 L 64.191406 68.464844 L 64.191406 119.316406 L 13.339844 119.316406 Z M 13.339844 68.464844 " clip-rule="nonzero"/></clipPath><clipPath id="8c748fe780"><path d="M 13.339844 129.464844 L 64.191406 129.464844 L 64.191406 180.316406 L 13.339844 180.316406 Z M 13.339844 129.464844 " clip-rule="nonzero"/></clipPath><clipPath id="993c43ef41"><path d="M 21.902344 38.558594 L 34.074219 38.558594 L 34.074219 50.730469 L 21.902344 50.730469 Z M 21.902344 38.558594 " clip-rule="nonzero"/></clipPath><clipPath id="f13fbef08a"><path d="M 27.988281 38.558594 C 24.628906 38.558594 21.902344 41.28125 21.902344 44.644531 C 21.902344 48.003906 24.628906 50.730469 27.988281 50.730469 C 31.351562 50.730469 34.074219 48.003906 34.074219 44.644531 C 34.074219 41.28125 31.351562 38.558594 27.988281 38.558594 Z M 27.988281 38.558594 " clip-rule="nonzero"/></clipPath><clipPath id="0ea07b934e"><path d="M 0.902344 0.558594 L 13.074219 0.558594 L 13.074219 12.730469 L 0.902344 12.730469 Z M 0.902344 0.558594 " clip-rule="nonzero"/></clipPath><clipPath id="9366529e0f"><path d="M 6.988281 0.558594 C 3.628906 0.558594 0.902344 3.28125 0.902344 6.644531 C 0.902344 10.003906 3.628906 12.730469 6.988281 12.730469 C 10.351562 12.730469 13.074219 10.003906 13.074219 6.644531 C 13.074219 3.28125 10.351562 0.558594 6.988281 0.558594 Z M 6.988281 0.558594 " clip-rule="nonzero"/></clipPath><clipPath id="d7504c8d4c"><rect x="0" width="14" y="0" height="13"/></clipPath><clipPath id="dcbd7eb704"><path d="M 111.289062 15.53125 L 123.460938 15.53125 L 123.460938 27.703125 L 111.289062 27.703125 Z M 111.289062 15.53125 " clip-rule="nonzero"/></clipPath><clipPath id="c8342cc4d4"><path d="M 117.375 15.53125 C 114.015625 15.53125 111.289062 18.257812 111.289062 21.617188 C 111.289062 24.980469 114.015625 27.703125 117.375 27.703125 C 120.738281 27.703125 123.460938 24.980469 123.460938 21.617188 C 123.460938 18.257812 120.738281 15.53125 117.375 15.53125 Z M 117.375 15.53125 " clip-rule="nonzero"/></clipPath><clipPath id="05b0166534"><path d="M 0.289062 0.53125 L 12.460938 0.53125 L 12.460938 12.703125 L 0.289062 12.703125 Z M 0.289062 0.53125 " clip-rule="nonzero"/></clipPath><clipPath id="d0469ff5c5"><path d="M 6.375 0.53125 C 3.015625 0.53125 0.289062 3.257812 0.289062 6.617188 C 0.289062 9.980469 3.015625 12.703125 6.375 12.703125 C 9.738281 12.703125 12.460938 9.980469 12.460938 6.617188 C 12.460938 3.257812 9.738281 0.53125 6.375 0.53125 Z M 6.375 0.53125 " clip-rule="nonzero"/></clipPath><clipPath id="89b6fec49f"><rect x="0" width="13" y="0" height="13"/></clipPath><clipPath id="41c159ef07"><path d="M 218.96875 18.765625 L 231.140625 18.765625 L 231.140625 30.941406 L 218.96875 30.941406 Z M 218.96875 18.765625 " clip-rule="nonzero"/></clipPath><clipPath id="438042910a"><path d="M 225.054688 18.765625 C 221.691406 18.765625 218.96875 21.492188 218.96875 24.855469 C 218.96875 28.214844 221.691406 30.941406 225.054688 30.941406 C 228.414062 30.941406 231.140625 28.214844 231.140625 24.855469 C 231.140625 21.492188 228.414062 18.765625 225.054688 18.765625 Z M 225.054688 18.765625 " clip-rule="nonzero"/></clipPath><clipPath id="406d208f08"><path d="M 0.96875 0.765625 L 13.140625 0.765625 L 13.140625 12.941406 L 0.96875 12.941406 Z M 0.96875 0.765625 " clip-rule="nonzero"/></clipPath><clipPath id="f2a952b250"><path d="M 7.054688 0.765625 C 3.691406 0.765625 0.96875 3.492188 0.96875 6.855469 C 0.96875 10.214844 3.691406 12.941406 7.054688 12.941406 C 10.414062 12.941406 13.140625 10.214844 13.140625 6.855469 C 13.140625 3.492188 10.414062 0.765625 7.054688 0.765625 Z M 7.054688 0.765625 " clip-rule="nonzero"/></clipPath><clipPath id="b71c58e38f"><rect x="0" width="14" y="0" height="13"/></clipPath><clipPath id="ebcac91d34"><path d="M 41.835938 100.808594 L 54.007812 100.808594 L 54.007812 112.980469 L 41.835938 112.980469 Z M 41.835938 100.808594 " clip-rule="nonzero"/></clipPath><clipPath id="014720836d"><path d="M 47.921875 100.808594 C 44.558594 100.808594 41.835938 103.535156 41.835938 106.894531 C 41.835938 110.257812 44.558594 112.980469 47.921875 112.980469 C 51.28125 112.980469 54.007812 110.257812 54.007812 106.894531 C 54.007812 103.535156 51.28125 100.808594 47.921875 100.808594 Z M 47.921875 100.808594 " clip-rule="nonzero"/></clipPath><clipPath id="e3f1350e4f"><path d="M 0.835938 0.808594 L 13.007812 0.808594 L 13.007812 12.980469 L 0.835938 12.980469 Z M 0.835938 0.808594 " clip-rule="nonzero"/></clipPath><clipPath id="947e5560fe"><path d="M 6.921875 0.808594 C 3.558594 0.808594 0.835938 3.535156 0.835938 6.894531 C 0.835938 10.257812 3.558594 12.980469 6.921875 12.980469 C 10.28125 12.980469 13.007812 10.257812 13.007812 6.894531 C 13.007812 3.535156 10.28125 0.808594 6.921875 0.808594 Z M 6.921875 0.808594 " clip-rule="nonzero"/></clipPath><clipPath id="a160694c92"><rect x="0" width="14" y="0" height="13"/></clipPath><clipPath id="4d73e48abe"><path d="M 109.148438 100.808594 L 121.320312 100.808594 L 121.320312 112.980469 L 109.148438 112.980469 Z M 109.148438 100.808594 " clip-rule="nonzero"/></clipPath><clipPath id="ac47566a0c"><path d="M 115.234375 100.808594 C 111.875 100.808594 109.148438 103.535156 109.148438 106.894531 C 109.148438 110.257812 111.875 112.980469 115.234375 112.980469 C 118.597656 112.980469 121.320312 110.257812 121.320312 106.894531 C 121.320312 103.535156 118.597656 100.808594 115.234375 100.808594 Z M 115.234375 100.808594 " clip-rule="nonzero"/></clipPath><clipPath id="22f816d33a"><path d="M 0.148438 0.808594 L 12.320312 0.808594 L 12.320312 12.980469 L 0.148438 12.980469 Z M 0.148438 0.808594 " clip-rule="nonzero"/></clipPath><clipPath id="935a42a78c"><path d="M 6.234375 0.808594 C 2.875 0.808594 0.148438 3.535156 0.148438 6.894531 C 0.148438 10.257812 2.875 12.980469 6.234375 12.980469 C 9.597656 12.980469 12.320312 10.257812 12.320312 6.894531 C 12.320312 3.535156 9.597656 0.808594 6.234375 0.808594 Z M 6.234375 0.808594 " clip-rule="nonzero"/></clipPath><clipPath id="e7000cc144"><rect x="0" width="13" y="0" height="13"/></clipPath><clipPath id="0fde0e7c1c"><path d="M 41.835938 136.425781 L 54.007812 136.425781 L 54.007812 148.597656 L 41.835938 148.597656 Z M 41.835938 136.425781 " clip-rule="nonzero"/></clipPath><clipPath id="14b94ba5ab"><path d="M 47.921875 136.425781 C 44.558594 136.425781 41.835938 139.148438 41.835938 142.511719 C 41.835938 145.871094 44.558594 148.597656 47.921875 148.597656 C 51.28125 148.597656 54.007812 145.871094 54.007812 142.511719 C 54.007812 139.148438 51.28125 136.425781 47.921875 136.425781 Z M 47.921875 136.425781 " clip-rule="nonzero"/></clipPath><clipPath id="4eede44009"><path d="M 0.835938 0.425781 L 13.007812 0.425781 L 13.007812 12.597656 L 0.835938 12.597656 Z M 0.835938 0.425781 " clip-rule="nonzero"/></clipPath><clipPath id="6cb72f775e"><path d="M 6.921875 0.425781 C 3.558594 0.425781 0.835938 3.148438 0.835938 6.511719 C 0.835938 9.871094 3.558594 12.597656 6.921875 12.597656 C 10.28125 12.597656 13.007812 9.871094 13.007812 6.511719 C 13.007812 3.148438 10.28125 0.425781 6.921875 0.425781 Z M 6.921875 0.425781 " clip-rule="nonzero"/></clipPath><clipPath id="f24f88fdfb"><rect x="0" width="14" y="0" height="13"/></clipPath><clipPath id="fb9c5dea88"><path d="M 195.066406 79.183594 L 207.238281 79.183594 L 207.238281 91.355469 L 195.066406 91.355469 Z M 195.066406 79.183594 " clip-rule="nonzero"/></clipPath><clipPath id="be6dde2760"><path d="M 201.152344 79.183594 C 197.789062 79.183594 195.066406 81.910156 195.066406 85.269531 C 195.066406 88.632812 197.789062 91.355469 201.152344 91.355469 C 204.511719 91.355469 207.238281 88.632812 207.238281 85.269531 C 207.238281 81.910156 204.511719 79.183594 201.152344 79.183594 Z M 201.152344 79.183594 " clip-rule="nonzero"/></clipPath><clipPath id="6b17743cf5"><path d="M 0.0664062 0.183594 L 12.238281 0.183594 L 12.238281 12.355469 L 0.0664062 12.355469 Z M 0.0664062 0.183594 " clip-rule="nonzero"/></clipPath><clipPath id="fa4624e7a7"><path d="M 6.152344 0.183594 C 2.789062 0.183594 0.0664062 2.910156 0.0664062 6.269531 C 0.0664062 9.632812 2.789062 12.355469 6.152344 12.355469 C 9.511719 12.355469 12.238281 9.632812 12.238281 6.269531 C 12.238281 2.910156 9.511719 0.183594 6.152344 0.183594 Z M 6.152344 0.183594 " clip-rule="nonzero"/></clipPath><clipPath id="fd79a4a237"><rect x="0" width="13" y="0" height="13"/></clipPath><clipPath id="24d5153d19"><path d="M 130.324219 159.824219 L 142.496094 159.824219 L 142.496094 171.996094 L 130.324219 171.996094 Z M 130.324219 159.824219 " clip-rule="nonzero"/></clipPath><clipPath id="2d8a8d1200"><path d="M 136.410156 159.824219 C 133.050781 159.824219 130.324219 162.550781 130.324219 165.910156 C 130.324219 169.273438 133.050781 171.996094 136.410156 171.996094 C 139.773438 171.996094 142.496094 169.273438 142.496094 165.910156 C 142.496094 162.550781 139.773438 159.824219 136.410156 159.824219 Z M 136.410156 159.824219 " clip-rule="nonzero"/></clipPath><clipPath id="8b20a4fa84"><path d="M 0.324219 0.824219 L 12.496094 0.824219 L 12.496094 12.996094 L 0.324219 12.996094 Z M 0.324219 0.824219 " clip-rule="nonzero"/></clipPath><clipPath id="5c1be7cae5"><path d="M 6.410156 0.824219 C 3.050781 0.824219 0.324219 3.550781 0.324219 6.910156 C 0.324219 10.273438 3.050781 12.996094 6.410156 12.996094 C 9.773438 12.996094 12.496094 10.273438 12.496094 6.910156 C 12.496094 3.550781 9.773438 0.824219 6.410156 0.824219 Z M 6.410156 0.824219 " clip-rule="nonzero"/></clipPath><clipPath id="62e499e8b6"><rect x="0" width="13" y="0" height="13"/></clipPath><clipPath id="44b97baedb"><path d="M 181.367188 132.132812 L 249.761719 132.132812 L 249.761719 184.246094 L 181.367188 184.246094 Z M 181.367188 132.132812 " clip-rule="nonzero"/></clipPath><clipPath id="bfae0b259a"><path d="M 181.367188 132.132812 L 249.761719 132.132812 L 249.761719 135 L 181.367188 135 Z M 181.367188 132.132812 " clip-rule="nonzero"/></clipPath><clipPath id="fde24dd05b"><path d="M 181.367188 182 L 249.761719 182 L 249.761719 184.246094 L 181.367188 184.246094 Z M 181.367188 182 " clip-rule="nonzero"/></clipPath><clipPath id="ed25ab6a9c"><path d="M 181.367188 132.132812 L 183.933594 132.132812 L 183.933594 184.246094 L 181.367188 184.246094 Z M 181.367188 132.132812 " clip-rule="nonzero"/></clipPath><clipPath id="e16980bad0"><path d="M 247 132.132812 L 249.761719 132.132812 L 249.761719 184.246094 L 247 184.246094 Z M 247 132.132812 " clip-rule="nonzero"/></clipPath><clipPath id="df4bb32cce"><path d="M 209.167969 147.765625 L 222.195312 147.765625 L 222.195312 163 L 209.167969 163 Z M 209.167969 147.765625 " clip-rule="nonzero"/></clipPath><clipPath id="31222bbbeb"><path d="M 212.203125 163.375 L 218 163.375 L 218 168.390625 L 212.203125 168.390625 Z M 212.203125 163.375 " clip-rule="nonzero"/></clipPath><clipPath id="123bb7f7d5"><path d="M 100.6875 7.464844 L 151.539062 7.464844 L 151.539062 58.316406 L 100.6875 58.316406 Z M 100.6875 7.464844 " clip-rule="nonzero"/></clipPath><clipPath id="7863b3ab8c"><path d="M 100.6875 70.945312 L 151.539062 70.945312 L 151.539062 121.796875 L 100.6875 121.796875 Z M 100.6875 70.945312 " clip-rule="nonzero"/></clipPath><clipPath id="ca5ab73ef1"><path d="M 100.6875 129.464844 L 151.539062 129.464844 L 151.539062 180.316406 L 100.6875 180.316406 Z M 100.6875 129.464844 " clip-rule="nonzero"/></clipPath><clipPath id="126f5036a7"><path d="M 187.667969 11.296875 L 238.519531 11.296875 L 238.519531 62.148438 L 187.667969 62.148438 Z M 187.667969 11.296875 " clip-rule="nonzero"/></clipPath><clipPath id="d47efaf492"><path d="M 187.667969 71.644531 L 238.519531 71.644531 L 238.519531 122.496094 L 187.667969 122.496094 Z M 187.667969 71.644531 " clip-rule="nonzero"/></clipPath></defs><g clip-path="url(#f17d1627b8)"><path fill="#000000" d="M 38.765625 7.464844 C 24.730469 7.464844 13.339844 18.855469 13.339844 32.890625 C 13.339844 46.925781 24.730469 58.316406 38.765625 58.316406 C 52.800781 58.316406 64.191406 46.925781 64.191406 32.890625 C 64.191406 18.855469 52.800781 7.464844 38.765625 7.464844 Z M 38.765625 8.878906 C 52.035156 8.878906 62.777344 19.621094 62.777344 32.890625 C 62.777344 46.160156 52.035156 56.902344 38.765625 56.902344 C 25.496094 56.902344 14.753906 46.160156 14.753906 32.890625 C 14.753906 19.621094 25.496094 8.878906 38.765625 8.878906 Z M 38.765625 8.878906 " fill-opacity="1" fill-rule="nonzero"/></g><g clip-path="url(#38153502fc)"><path fill="#000000" d="M 38.765625 68.464844 C 24.730469 68.464844 13.339844 79.855469 13.339844 93.890625 C 13.339844 107.925781 24.730469 119.316406 38.765625 119.316406 C 52.800781 119.316406 64.191406 107.925781 64.191406 93.890625 C 64.191406 79.855469 52.800781 68.464844 38.765625 68.464844 Z M 38.765625 69.875 C 52.035156 69.875 62.777344 80.621094 62.777344 93.890625 C 62.777344 107.160156 52.035156 117.902344 38.765625 117.902344 C 25.496094 117.902344 14.753906 107.160156 14.753906 93.890625 C 14.753906 80.621094 25.496094 69.875 38.765625 69.875 Z M 38.765625 69.875 " fill-opacity="1" fill-rule="nonzero"/></g><g clip-path="url(#8c748fe780)"><path fill="#000000" d="M 38.765625 129.464844 C 24.730469 129.464844 13.339844 140.855469 13.339844 154.890625 C 13.339844 168.921875 24.730469 180.316406 38.765625 180.316406 C 52.800781 180.316406 64.191406 168.921875 64.191406 154.890625 C 64.191406 140.855469 52.800781 129.464844 38.765625 129.464844 Z M 38.765625 130.875 C 52.035156 130.875 62.777344 141.617188 62.777344 154.890625 C 62.777344 168.160156 52.035156 178.902344 38.765625 178.902344 C 25.496094 178.902344 14.753906 168.160156 14.753906 154.890625 C 14.753906 141.617188 25.496094 130.875 38.765625 130.875 Z M 38.765625 130.875 " fill-opacity="1" fill-rule="nonzero"/></g><g clip-path="url(#993c43ef41)"><g clip-path="url(#f13fbef08a)"><g transform="matrix(1, 0, 0, 1, 21, 38)"><g clip-path="url(#d7504c8d4c)"><g clip-path="url(#0ea07b934e)"><g clip-path="url(#9366529e0f)"><path fill="#222222" d="M 0.902344 0.558594 L 13.074219 0.558594 L 13.074219 12.730469 L 0.902344 12.730469 Z M 0.902344 0.558594 " fill-opacity="1" fill-rule="nonzero"/></g></g></g></g></g></g><g clip-path="url(#dcbd7eb704)"><g clip-path="url(#c8342cc4d4)"><g transform="matrix(1, 0, 0, 1, 111, 15)"><g clip-path="url(#89b6fec49f)"><g clip-path="url(#05b0166534)"><g clip-path="url(#d0469ff5c5)"><path fill="#222222" d="M 0.289062 0.53125 L 12.460938 0.53125 L 12.460938 12.703125 L 0.289062 12.703125 Z M 0.289062 0.53125 " fill-opacity="1" fill-rule="nonzero"/></g></g></g></g></g></g><g clip-path="url(#41c159ef07)"><g clip-path="url(#438042910a)"><g transform="matrix(1, 0, 0, 1, 218, 18)"><g clip-path="url(#b71c58e38f)"><g clip-path="url(#406d208f08)"><g clip-path="url(#f2a952b250)"><path fill="#222222" d="M 0.96875 0.765625 L 13.140625 0.765625 L 13.140625 12.941406 L 0.96875 12.941406 Z M 0.96875 0.765625 " fill-opacity="1" fill-rule="nonzero"/></g></g></g></g></g></g><g clip-path="url(#ebcac91d34)"><g clip-path="url(#014720836d)"><g transform="matrix(1, 0, 0, 1, 41, 100)"><g clip-path="url(#a160694c92)"><g clip-path="url(#e3f1350e4f)"><g clip-path="url(#947e5560fe)"><path fill="#222222" d="M 0.835938 0.808594 L 13.007812 0.808594 L 13.007812 12.980469 L 0.835938 12.980469 Z M 0.835938 0.808594 " fill-opacity="1" fill-rule="nonzero"/></g></g></g></g></g></g><g clip-path="url(#4d73e48abe)"><g clip-path="url(#ac47566a0c)"><g transform="matrix(1, 0, 0, 1, 109, 100)"><g clip-path="url(#e7000cc144)"><g clip-path="url(#22f816d33a)"><g clip-path="url(#935a42a78c)"><path fill="#222222" d="M 0.148438 0.808594 L 12.320312 0.808594 L 12.320312 12.980469 L 0.148438 12.980469 Z M 0.148438 0.808594 " fill-opacity="1" fill-rule="nonzero"/></g></g></g></g></g></g><g clip-path="url(#0fde0e7c1c)"><g clip-path="url(#14b94ba5ab)"><g transform="matrix(1, 0, 0, 1, 41, 136)"><g clip-path="url(#f24f88fdfb)"><g clip-path="url(#4eede44009)"><g clip-path="url(#6cb72f775e)"><path fill="#222222" d="M 0.835938 0.425781 L 13.007812 0.425781 L 13.007812 12.597656 L 0.835938 12.597656 Z M 0.835938 0.425781 " fill-opacity="1" fill-rule="nonzero"/></g></g></g></g></g></g><g clip-path="url(#fb9c5dea88)"><g clip-path="url(#be6dde2760)"><g transform="matrix(1, 0, 0, 1, 195, 79)"><g clip-path="url(#fd79a4a237)"><g clip-path="url(#6b17743cf5)"><g clip-path="url(#fa4624e7a7)"><path fill="#222222" d="M 0.0664062 0.183594 L 12.238281 0.183594 L 12.238281 12.355469 L 0.0664062 12.355469 Z M 0.0664062 0.183594 " fill-opacity="1" fill-rule="nonzero"/></g></g></g></g></g></g><g clip-path="url(#24d5153d19)"><g clip-path="url(#2d8a8d1200)"><g transform="matrix(1, 0, 0, 1, 130, 159)"><g clip-path="url(#62e499e8b6)"><g clip-path="url(#8b20a4fa84)"><g clip-path="url(#5c1be7cae5)"><path fill="#222222" d="M 0.324219 0.824219 L 12.496094 0.824219 L 12.496094 12.996094 L 0.324219 12.996094 Z M 0.324219 0.824219 " fill-opacity="1" fill-rule="nonzero"/></g></g></g></g></g></g><g clip-path="url(#44b97baedb)"><path fill="#ffffff" d="M 181.367188 132.132812 L 249.761719 132.132812 L 249.761719 184.246094 L 181.367188 184.246094 Z M 181.367188 132.132812 " fill-opacity="1" fill-rule="nonzero"/><path fill="#ffffff" d="M 181.367188 132.132812 L 249.761719 132.132812 L 249.761719 184.246094 L 181.367188 184.246094 Z M 181.367188 132.132812 " fill-opacity="1" fill-rule="nonzero"/></g><g clip-path="url(#bfae0b259a)"><path stroke-linecap="butt" transform="matrix(1.085638, 0, 0, 1.085698, 175.327067, 132.131915)" fill="none" stroke-linejoin="miter" d="M 0.000974502 1.001047 L 74.122115 1.001047 " stroke="#000000" stroke-width="2" stroke-opacity="1" stroke-miterlimit="4"/></g><g clip-path="url(#fde24dd05b)"><path stroke-linecap="butt" transform="matrix(1.085638, 0, 0, 1.085698, 179.452491, 182.074019)" fill="none" stroke-linejoin="miter" d="M 0.000584359 1.000405 L 74.125323 1.000405 " stroke="#000000" stroke-width="2" stroke-opacity="1" stroke-miterlimit="4"/></g><g clip-path="url(#ed25ab6a9c)"><path stroke-linecap="butt" transform="matrix(0, 1.085698, -1.085638, 0, 183.537544, 133.217613)" fill="none" stroke-linejoin="miter" d="M 0.00104752 0.998877 L 48.000833 0.998877 " stroke="#000000" stroke-width="2" stroke-opacity="1" stroke-miterlimit="4"/></g><g clip-path="url(#e16980bad0)"><path stroke-linecap="butt" transform="matrix(0, 1.085698, -1.085638, 0, 249.761452, 133.217613)" fill="none" stroke-linejoin="miter" d="M 0.00104752 1.00003 L 48.000833 1.00003 " stroke="#000000" stroke-width="2" stroke-opacity="1" stroke-miterlimit="4"/></g><g clip-path="url(#df4bb32cce)"><path fill="#000000" d="M 221.332031 150.160156 C 220.773438 149.382812 220 148.789062 219.011719 148.382812 C 218.035156 147.976562 216.902344 147.765625 215.617188 147.765625 C 214.449219 147.765625 213.386719 147.96875 212.421875 148.371094 C 211.464844 148.769531 210.683594 149.386719 210.097656 150.199219 C 209.632812 150.847656 209.34375 151.628906 209.226562 152.554688 C 209.171875 152.949219 209.5 153.304688 209.917969 153.304688 L 212.496094 153.304688 C 212.828125 153.304688 213.109375 153.078125 213.175781 152.761719 C 213.242188 152.484375 213.351562 152.234375 213.496094 152.019531 C 213.734375 151.671875 214.042969 151.410156 214.414062 151.230469 C 214.789062 151.054688 215.183594 150.960938 215.601562 150.960938 C 216.035156 150.960938 216.425781 151.050781 216.785156 151.230469 C 217.140625 151.398438 217.425781 151.652344 217.640625 151.980469 C 217.851562 152.304688 217.960938 152.683594 217.960938 153.113281 C 217.960938 153.519531 217.863281 153.890625 217.675781 154.214844 C 217.488281 154.542969 217.238281 154.84375 216.925781 155.113281 C 216.605469 155.382812 216.257812 155.640625 215.855469 155.890625 C 215.320312 156.214844 214.863281 156.574219 214.484375 156.976562 C 214.109375 157.378906 213.824219 157.902344 213.621094 158.550781 C 213.425781 159.207031 213.324219 160.074219 213.316406 161.167969 L 213.316406 161.714844 C 213.316406 162.085938 213.632812 162.394531 214.015625 162.394531 L 216.285156 162.394531 C 216.671875 162.394531 216.984375 162.089844 216.984375 161.714844 L 216.984375 161.167969 C 216.988281 160.558594 217.070312 160.039062 217.226562 159.621094 C 217.386719 159.207031 217.628906 158.835938 217.949219 158.515625 C 218.273438 158.199219 218.691406 157.894531 219.199219 157.597656 C 219.808594 157.246094 220.332031 156.855469 220.773438 156.417969 C 221.214844 155.984375 221.5625 155.484375 221.8125 154.914062 C 222.0625 154.351562 222.191406 153.699219 222.191406 152.96875 C 222.171875 151.867188 221.890625 150.933594 221.332031 150.160156 Z M 221.332031 150.160156 " fill-opacity="1" fill-rule="nonzero"/></g><g clip-path="url(#31222bbbeb)"><path fill="#000000" d="M 215.222656 163.910156 C 214.578125 163.910156 214.027344 164.125 213.574219 164.566406 C 213.121094 165.003906 212.894531 165.53125 212.90625 166.140625 C 212.894531 166.757812 213.121094 167.292969 213.574219 167.734375 C 214.027344 168.175781 214.578125 168.390625 215.222656 168.390625 C 215.628906 168.390625 216.015625 168.292969 216.355469 168.089844 C 216.707031 167.878906 216.984375 167.613281 217.203125 167.269531 C 217.421875 166.925781 217.53125 166.554688 217.535156 166.140625 C 217.523438 165.527344 217.292969 165.003906 216.828125 164.566406 C 216.367188 164.125 215.832031 163.910156 215.222656 163.910156 Z M 215.222656 163.910156 " fill-opacity="1" fill-rule="nonzero"/></g><g clip-path="url(#123bb7f7d5)"><path fill="#000000" d="M 126.113281 7.464844 C 112.082031 7.464844 100.6875 18.855469 100.6875 32.890625 C 100.6875 46.925781 112.082031 58.316406 126.113281 58.316406 C 140.148438 58.316406 151.539062 46.925781 151.539062 32.890625 C 151.539062 18.855469 140.148438 7.464844 126.113281 7.464844 Z M 126.113281 8.878906 C 139.386719 8.878906 150.128906 19.621094 150.128906 32.890625 C 150.128906 46.160156 139.386719 56.902344 126.113281 56.902344 C 112.84375 56.902344 102.101562 46.160156 102.101562 32.890625 C 102.101562 19.621094 112.84375 8.878906 126.113281 8.878906 Z M 126.113281 8.878906 " fill-opacity="1" fill-rule="nonzero"/></g><g clip-path="url(#7863b3ab8c)"><path fill="#000000" d="M 126.113281 70.945312 C 112.082031 70.945312 100.6875 82.335938 100.6875 96.371094 C 100.6875 110.402344 112.082031 121.796875 126.113281 121.796875 C 140.148438 121.796875 151.539062 110.402344 151.539062 96.371094 C 151.539062 82.335938 140.148438 70.945312 126.113281 70.945312 Z M 126.113281 72.355469 C 139.386719 72.355469 150.128906 83.097656 150.128906 96.371094 C 150.128906 109.640625 139.386719 120.382812 126.113281 120.382812 C 112.84375 120.382812 102.101562 109.640625 102.101562 96.371094 C 102.101562 83.097656 112.84375 72.355469 126.113281 72.355469 Z M 126.113281 72.355469 " fill-opacity="1" fill-rule="nonzero"/></g><g clip-path="url(#ca5ab73ef1)"><path fill="#000000" d="M 126.113281 129.464844 C 112.082031 129.464844 100.6875 140.855469 100.6875 154.890625 C 100.6875 168.921875 112.082031 180.316406 126.113281 180.316406 C 140.148438 180.316406 151.539062 168.921875 151.539062 154.890625 C 151.539062 140.855469 140.148438 129.464844 126.113281 129.464844 Z M 126.113281 130.875 C 139.386719 130.875 150.128906 141.617188 150.128906 154.890625 C 150.128906 168.160156 139.386719 178.902344 126.113281 178.902344 C 112.84375 178.902344 102.101562 168.160156 102.101562 154.890625 C 102.101562 141.617188 112.84375 130.875 126.113281 130.875 Z M 126.113281 130.875 " fill-opacity="1" fill-rule="nonzero"/></g><g clip-path="url(#126f5036a7)"><path fill="#000000" d="M 213.09375 11.296875 C 199.058594 11.296875 187.667969 22.6875 187.667969 36.722656 C 187.667969 50.753906 199.058594 62.148438 213.09375 62.148438 C 227.125 62.148438 238.519531 50.753906 238.519531 36.722656 C 238.519531 22.6875 227.125 11.296875 213.09375 11.296875 Z M 213.09375 12.707031 C 226.363281 12.707031 237.105469 23.449219 237.105469 36.722656 C 237.105469 49.992188 226.363281 60.734375 213.09375 60.734375 C 199.820312 60.734375 189.078125 49.992188 189.078125 36.722656 C 189.078125 23.449219 199.820312 12.707031 213.09375 12.707031 Z M 213.09375 12.707031 " fill-opacity="1" fill-rule="nonzero"/></g><g clip-path="url(#d47efaf492)"><path fill="#000000" d="M 213.09375 71.644531 C 199.058594 71.644531 187.667969 83.035156 187.667969 97.070312 C 187.667969 111.101562 199.058594 122.496094 213.09375 122.496094 C 227.125 122.496094 238.519531 111.101562 238.519531 97.070312 C 238.519531 83.035156 227.125 71.644531 213.09375 71.644531 Z M 213.09375 73.054688 C 226.363281 73.054688 237.105469 83.796875 237.105469 97.070312 C 237.105469 110.339844 226.363281 121.082031 213.09375 121.082031 C 199.820312 121.082031 189.078125 110.339844 189.078125 97.070312 C 189.078125 83.796875 199.820312 73.054688 213.09375 73.054688 Z M 213.09375 73.054688 " fill-opacity="1" fill-rule="nonzero"/></g></svg>