<svg xmlns="http://www.w3.org/2000/svg" xmlns:xlink="http://www.w3.org/1999/xlink" width="343" zoomAndPan="magnify" viewBox="0 0 257.25 186.749995" height="249" preserveAspectRatio="xMidYMid meet" version="1.0"><defs><clipPath id="2b42367f66"><path d="M 13.339844 7.464844 L 64.191406 7.464844 L 64.191406 58.316406 L 13.339844 58.316406 Z M 13.339844 7.464844 " clip-rule="nonzero"/></clipPath><clipPath id="5969af12fb"><path d="M 13.339844 68.464844 L 64.191406 68.464844 L 64.191406 119.316406 L 13.339844 119.316406 Z M 13.339844 68.464844 " clip-rule="nonzero"/></clipPath><clipPath id="2a2494a53b"><path d="M 13.339844 129.464844 L 64.191406 129.464844 L 64.191406 180.316406 L 13.339844 180.316406 Z M 13.339844 129.464844 " clip-rule="nonzero"/></clipPath><clipPath id="5c3a7eaf9e"><path d="M 21.902344 38.558594 L 34.074219 38.558594 L 34.074219 50.730469 L 21.902344 50.730469 Z M 21.902344 38.558594 " clip-rule="nonzero"/></clipPath><clipPath id="751ae1d51e"><path d="M 27.988281 38.558594 C 24.628906 38.558594 21.902344 41.28125 21.902344 44.644531 C 21.902344 48.003906 24.628906 50.730469 27.988281 50.730469 C 31.351562 50.730469 34.074219 48.003906 34.074219 44.644531 C 34.074219 41.28125 31.351562 38.558594 27.988281 38.558594 Z M 27.988281 38.558594 " clip-rule="nonzero"/></clipPath><clipPath id="1b5d8f7ffc"><path d="M 0.902344 0.558594 L 13.074219 0.558594 L 13.074219 12.730469 L 0.902344 12.730469 Z M 0.902344 0.558594 " clip-rule="nonzero"/></clipPath><clipPath id="35fcc17140"><path d="M 6.988281 0.558594 C 3.628906 0.558594 0.902344 3.28125 0.902344 6.644531 C 0.902344 10.003906 3.628906 12.730469 6.988281 12.730469 C 10.351562 12.730469 13.074219 10.003906 13.074219 6.644531 C 13.074219 3.28125 10.351562 0.558594 6.988281 0.558594 Z M 6.988281 0.558594 " clip-rule="nonzero"/></clipPath><clipPath id="e831ccfdee"><rect x="0" width="14" y="0" height="13"/></clipPath><clipPath id="71f76115c7"><path d="M 111.289062 15.53125 L 123.460938 15.53125 L 123.460938 27.703125 L 111.289062 27.703125 Z M 111.289062 15.53125 " clip-rule="nonzero"/></clipPath><clipPath id="5b98c88deb"><path d="M 117.375 15.53125 C 114.015625 15.53125 111.289062 18.257812 111.289062 21.617188 C 111.289062 24.980469 114.015625 27.703125 117.375 27.703125 C 120.738281 27.703125 123.460938 24.980469 123.460938 21.617188 C 123.460938 18.257812 120.738281 15.53125 117.375 15.53125 Z M 117.375 15.53125 " clip-rule="nonzero"/></clipPath><clipPath id="f7f40c9313"><path d="M 0.289062 0.53125 L 12.460938 0.53125 L 12.460938 12.703125 L 0.289062 12.703125 Z M 0.289062 0.53125 " clip-rule="nonzero"/></clipPath><clipPath id="1850a83a20"><path d="M 6.375 0.53125 C 3.015625 0.53125 0.289062 3.257812 0.289062 6.617188 C 0.289062 9.980469 3.015625 12.703125 6.375 12.703125 C 9.738281 12.703125 12.460938 9.980469 12.460938 6.617188 C 12.460938 3.257812 9.738281 0.53125 6.375 0.53125 Z M 6.375 0.53125 " clip-rule="nonzero"/></clipPath><clipPath id="7249c7bd50"><rect x="0" width="13" y="0" height="13"/></clipPath><clipPath id="eaece0f4e3"><path d="M 218.96875 18.765625 L 231.140625 18.765625 L 231.140625 30.941406 L 218.96875 30.941406 Z M 218.96875 18.765625 " clip-rule="nonzero"/></clipPath><clipPath id="6b05dbf737"><path d="M 225.054688 18.765625 C 221.691406 18.765625 218.96875 21.492188 218.96875 24.855469 C 218.96875 28.214844 221.691406 30.941406 225.054688 30.941406 C 228.414062 30.941406 231.140625 28.214844 231.140625 24.855469 C 231.140625 21.492188 228.414062 18.765625 225.054688 18.765625 Z M 225.054688 18.765625 " clip-rule="nonzero"/></clipPath><clipPath id="30223de9f4"><path d="M 0.96875 0.765625 L 13.140625 0.765625 L 13.140625 12.941406 L 0.96875 12.941406 Z M 0.96875 0.765625 " clip-rule="nonzero"/></clipPath><clipPath id="555d46dc74"><path d="M 7.054688 0.765625 C 3.691406 0.765625 0.96875 3.492188 0.96875 6.855469 C 0.96875 10.214844 3.691406 12.941406 7.054688 12.941406 C 10.414062 12.941406 13.140625 10.214844 13.140625 6.855469 C 13.140625 3.492188 10.414062 0.765625 7.054688 0.765625 Z M 7.054688 0.765625 " clip-rule="nonzero"/></clipPath><clipPath id="31b181e6b7"><rect x="0" width="14" y="0" height="13"/></clipPath><clipPath id="976b87cf9e"><path d="M 41.835938 100.808594 L 54.007812 100.808594 L 54.007812 112.980469 L 41.835938 112.980469 Z M 41.835938 100.808594 " clip-rule="nonzero"/></clipPath><clipPath id="7cf1d5ff01"><path d="M 47.921875 100.808594 C 44.558594 100.808594 41.835938 103.535156 41.835938 106.894531 C 41.835938 110.257812 44.558594 112.980469 47.921875 112.980469 C 51.28125 112.980469 54.007812 110.257812 54.007812 106.894531 C 54.007812 103.535156 51.28125 100.808594 47.921875 100.808594 Z M 47.921875 100.808594 " clip-rule="nonzero"/></clipPath><clipPath id="d5ca35f0f3"><path d="M 0.835938 0.808594 L 13.007812 0.808594 L 13.007812 12.980469 L 0.835938 12.980469 Z M 0.835938 0.808594 " clip-rule="nonzero"/></clipPath><clipPath id="3e8307fe32"><path d="M 6.921875 0.808594 C 3.558594 0.808594 0.835938 3.535156 0.835938 6.894531 C 0.835938 10.257812 3.558594 12.980469 6.921875 12.980469 C 10.28125 12.980469 13.007812 10.257812 13.007812 6.894531 C 13.007812 3.535156 10.28125 0.808594 6.921875 0.808594 Z M 6.921875 0.808594 " clip-rule="nonzero"/></clipPath><clipPath id="8d4c31e341"><rect x="0" width="14" y="0" height="13"/></clipPath><clipPath id="bb0a92ec12"><path d="M 109.148438 100.808594 L 121.320312 100.808594 L 121.320312 112.980469 L 109.148438 112.980469 Z M 109.148438 100.808594 " clip-rule="nonzero"/></clipPath><clipPath id="d3db21493c"><path d="M 115.234375 100.808594 C 111.875 100.808594 109.148438 103.535156 109.148438 106.894531 C 109.148438 110.257812 111.875 112.980469 115.234375 112.980469 C 118.597656 112.980469 121.320312 110.257812 121.320312 106.894531 C 121.320312 103.535156 118.597656 100.808594 115.234375 100.808594 Z M 115.234375 100.808594 " clip-rule="nonzero"/></clipPath><clipPath id="f3596d538f"><path d="M 0.148438 0.808594 L 12.320312 0.808594 L 12.320312 12.980469 L 0.148438 12.980469 Z M 0.148438 0.808594 " clip-rule="nonzero"/></clipPath><clipPath id="c751d0f25d"><path d="M 6.234375 0.808594 C 2.875 0.808594 0.148438 3.535156 0.148438 6.894531 C 0.148438 10.257812 2.875 12.980469 6.234375 12.980469 C 9.597656 12.980469 12.320312 10.257812 12.320312 6.894531 C 12.320312 3.535156 9.597656 0.808594 6.234375 0.808594 Z M 6.234375 0.808594 " clip-rule="nonzero"/></clipPath><clipPath id="c6701f2fdb"><rect x="0" width="13" y="0" height="13"/></clipPath><clipPath id="2178652a3c"><path d="M 41.835938 136.425781 L 54.007812 136.425781 L 54.007812 148.597656 L 41.835938 148.597656 Z M 41.835938 136.425781 " clip-rule="nonzero"/></clipPath><clipPath id="62492855d2"><path d="M 47.921875 136.425781 C 44.558594 136.425781 41.835938 139.148438 41.835938 142.511719 C 41.835938 145.871094 44.558594 148.597656 47.921875 148.597656 C 51.28125 148.597656 54.007812 145.871094 54.007812 142.511719 C 54.007812 139.148438 51.28125 136.425781 47.921875 136.425781 Z M 47.921875 136.425781 " clip-rule="nonzero"/></clipPath><clipPath id="a3241664b4"><path d="M 0.835938 0.425781 L 13.007812 0.425781 L 13.007812 12.597656 L 0.835938 12.597656 Z M 0.835938 0.425781 " clip-rule="nonzero"/></clipPath><clipPath id="bd26160f75"><path d="M 6.921875 0.425781 C 3.558594 0.425781 0.835938 3.148438 0.835938 6.511719 C 0.835938 9.871094 3.558594 12.597656 6.921875 12.597656 C 10.28125 12.597656 13.007812 9.871094 13.007812 6.511719 C 13.007812 3.148438 10.28125 0.425781 6.921875 0.425781 Z M 6.921875 0.425781 " clip-rule="nonzero"/></clipPath><clipPath id="fe92ed3f29"><rect x="0" width="14" y="0" height="13"/></clipPath><clipPath id="8e3c2cdafc"><path d="M 195.066406 79.183594 L 207.238281 79.183594 L 207.238281 91.355469 L 195.066406 91.355469 Z M 195.066406 79.183594 " clip-rule="nonzero"/></clipPath><clipPath id="0030cc0bb6"><path d="M 201.152344 79.183594 C 197.789062 79.183594 195.066406 81.910156 195.066406 85.269531 C 195.066406 88.632812 197.789062 91.355469 201.152344 91.355469 C 204.511719 91.355469 207.238281 88.632812 207.238281 85.269531 C 207.238281 81.910156 204.511719 79.183594 201.152344 79.183594 Z M 201.152344 79.183594 " clip-rule="nonzero"/></clipPath><clipPath id="47234dc469"><path d="M 0.0664062 0.183594 L 12.238281 0.183594 L 12.238281 12.355469 L 0.0664062 12.355469 Z M 0.0664062 0.183594 " clip-rule="nonzero"/></clipPath><clipPath id="70000e90c3"><path d="M 6.152344 0.183594 C 2.789062 0.183594 0.0664062 2.910156 0.0664062 6.269531 C 0.0664062 9.632812 2.789062 12.355469 6.152344 12.355469 C 9.511719 12.355469 12.238281 9.632812 12.238281 6.269531 C 12.238281 2.910156 9.511719 0.183594 6.152344 0.183594 Z M 6.152344 0.183594 " clip-rule="nonzero"/></clipPath><clipPath id="c41441d8bd"><rect x="0" width="13" y="0" height="13"/></clipPath><clipPath id="590bea2983"><path d="M 130.324219 159.824219 L 142.496094 159.824219 L 142.496094 171.996094 L 130.324219 171.996094 Z M 130.324219 159.824219 " clip-rule="nonzero"/></clipPath><clipPath id="cd1987b4e3"><path d="M 136.410156 159.824219 C 133.050781 159.824219 130.324219 162.550781 130.324219 165.910156 C 130.324219 169.273438 133.050781 171.996094 136.410156 171.996094 C 139.773438 171.996094 142.496094 169.273438 142.496094 165.910156 C 142.496094 162.550781 139.773438 159.824219 136.410156 159.824219 Z M 136.410156 159.824219 " clip-rule="nonzero"/></clipPath><clipPath id="40c83c7e3a"><path d="M 0.324219 0.824219 L 12.496094 0.824219 L 12.496094 12.996094 L 0.324219 12.996094 Z M 0.324219 0.824219 " clip-rule="nonzero"/></clipPath><clipPath id="eb0e02836e"><path d="M 6.410156 0.824219 C 3.050781 0.824219 0.324219 3.550781 0.324219 6.910156 C 0.324219 10.273438 3.050781 12.996094 6.410156 12.996094 C 9.773438 12.996094 12.496094 10.273438 12.496094 6.910156 C 12.496094 3.550781 9.773438 0.824219 6.410156 0.824219 Z M 6.410156 0.824219 " clip-rule="nonzero"/></clipPath><clipPath id="bede42e335"><rect x="0" width="13" y="0" height="13"/></clipPath><clipPath id="a1ffea9bb3"><path d="M 182.21875 132.640625 L 243.335938 132.640625 L 243.335938 178.964844 L 182.21875 178.964844 Z M 182.21875 132.640625 " clip-rule="nonzero"/></clipPath><clipPath id="3f407bb922"><path d="M 182.21875 132.640625 L 243.335938 132.640625 L 243.335938 135 L 182.21875 135 Z M 182.21875 132.640625 " clip-rule="nonzero"/></clipPath><clipPath id="2e97b92f82"><path d="M 182.21875 177 L 243.335938 177 L 243.335938 178.964844 L 182.21875 178.964844 Z M 182.21875 177 " clip-rule="nonzero"/></clipPath><clipPath id="fc235fbe54"><path d="M 182.21875 132.640625 L 184.511719 132.640625 L 184.511719 178.964844 L 182.21875 178.964844 Z M 182.21875 132.640625 " clip-rule="nonzero"/></clipPath><clipPath id="fe0740be7c"><path d="M 241 132.640625 L 243.335938 132.640625 L 243.335938 178.964844 L 241 178.964844 Z M 241 132.640625 " clip-rule="nonzero"/></clipPath><clipPath id="5ddd902a7d"><path d="M 207.0625 146.535156 L 218.703125 146.535156 L 218.703125 160 L 207.0625 160 Z M 207.0625 146.535156 " clip-rule="nonzero"/></clipPath><clipPath id="7275f2ac90"><path d="M 210 160.414062 L 215 160.414062 L 215 164.871094 L 210 164.871094 Z M 210 160.414062 " clip-rule="nonzero"/></clipPath><clipPath id="0747e21b9c"><path d="M 100.6875 7.464844 L 151.539062 7.464844 L 151.539062 58.316406 L 100.6875 58.316406 Z M 100.6875 7.464844 " clip-rule="nonzero"/></clipPath><clipPath id="a5e6c8fb42"><path d="M 100.6875 70.945312 L 151.539062 70.945312 L 151.539062 121.796875 L 100.6875 121.796875 Z M 100.6875 70.945312 " clip-rule="nonzero"/></clipPath><clipPath id="759dca795e"><path d="M 100.6875 129.464844 L 151.539062 129.464844 L 151.539062 180.316406 L 100.6875 180.316406 Z M 100.6875 129.464844 " clip-rule="nonzero"/></clipPath><clipPath id="fed82a6694"><path d="M 187.667969 11.296875 L 238.519531 11.296875 L 238.519531 62.148438 L 187.667969 62.148438 Z M 187.667969 11.296875 " clip-rule="nonzero"/></clipPath><clipPath id="aa77f5643e"><path d="M 187.667969 71.644531 L 238.519531 71.644531 L 238.519531 122.496094 L 187.667969 122.496094 Z M 187.667969 71.644531 " clip-rule="nonzero"/></clipPath><clipPath id="20fe58b1eb"><path d="M 0 0.148438 L 256.503906 0.148438 L 256.503906 4 L 0 4 Z M 0 0.148438 " clip-rule="nonzero"/></clipPath><clipPath id="dd561eb868"><path d="M 0 0.148438 L 3 0.148438 L 3 186.355469 L 0 186.355469 Z M 0 0.148438 " clip-rule="nonzero"/></clipPath><clipPath id="7ac6b1c07f"><path d="M 0 60 L 256.503906 60 L 256.503906 64 L 0 64 Z M 0 60 " clip-rule="nonzero"/></clipPath><clipPath id="99bfe4be6c"><path d="M 0 125 L 256.503906 125 L 256.503906 129 L 0 129 Z M 0 125 " clip-rule="nonzero"/></clipPath><clipPath id="051f5e99c0"><path d="M 0 183 L 256.503906 183 L 256.503906 186.355469 L 0 186.355469 Z M 0 183 " clip-rule="nonzero"/></clipPath><clipPath id="6fe3a30a36"><path d="M 164 0.148438 L 168 0.148438 L 168 186.355469 L 164 186.355469 Z M 164 0.148438 " clip-rule="nonzero"/></clipPath><clipPath id="fad9c87b59"><path d="M 82 0.148438 L 86 0.148438 L 86 186.355469 L 82 186.355469 Z M 82 0.148438 " clip-rule="nonzero"/></clipPath><clipPath id="a86fd3bdb0"><path d="M 253 0.148438 L 256.503906 0.148438 L 256.503906 186.355469 L 253 186.355469 Z M 253 0.148438 " clip-rule="nonzero"/></clipPath></defs><g clip-path="url(#2b42367f66)"><path fill="#000000" d="M 38.765625 7.464844 C 24.730469 7.464844 13.339844 18.855469 13.339844 32.890625 C 13.339844 46.925781 24.730469 58.316406 38.765625 58.316406 C 52.800781 58.316406 64.191406 46.925781 64.191406 32.890625 C 64.191406 18.855469 52.800781 7.464844 38.765625 7.464844 Z M 38.765625 8.878906 C 52.035156 8.878906 62.777344 19.621094 62.777344 32.890625 C 62.777344 46.160156 52.035156 56.902344 38.765625 56.902344 C 25.496094 56.902344 14.753906 46.160156 14.753906 32.890625 C 14.753906 19.621094 25.496094 8.878906 38.765625 8.878906 Z M 38.765625 8.878906 " fill-opacity="1" fill-rule="nonzero"/></g><g clip-path="url(#5969af12fb)"><path fill="#000000" d="M 38.765625 68.464844 C 24.730469 68.464844 13.339844 79.855469 13.339844 93.890625 C 13.339844 107.925781 24.730469 119.316406 38.765625 119.316406 C 52.800781 119.316406 64.191406 107.925781 64.191406 93.890625 C 64.191406 79.855469 52.800781 68.464844 38.765625 68.464844 Z M 38.765625 69.875 C 52.035156 69.875 62.777344 80.621094 62.777344 93.890625 C 62.777344 107.160156 52.035156 117.902344 38.765625 117.902344 C 25.496094 117.902344 14.753906 107.160156 14.753906 93.890625 C 14.753906 80.621094 25.496094 69.875 38.765625 69.875 Z M 38.765625 69.875 " fill-opacity="1" fill-rule="nonzero"/></g><g clip-path="url(#2a2494a53b)"><path fill="#000000" d="M 38.765625 129.464844 C 24.730469 129.464844 13.339844 140.855469 13.339844 154.890625 C 13.339844 168.921875 24.730469 180.316406 38.765625 180.316406 C 52.800781 180.316406 64.191406 168.921875 64.191406 154.890625 C 64.191406 140.855469 52.800781 129.464844 38.765625 129.464844 Z M 38.765625 130.875 C 52.035156 130.875 62.777344 141.617188 62.777344 154.890625 C 62.777344 168.160156 52.035156 178.902344 38.765625 178.902344 C 25.496094 178.902344 14.753906 168.160156 14.753906 154.890625 C 14.753906 141.617188 25.496094 130.875 38.765625 130.875 Z M 38.765625 130.875 " fill-opacity="1" fill-rule="nonzero"/></g><g clip-path="url(#5c3a7eaf9e)"><g clip-path="url(#751ae1d51e)"><g transform="matrix(1, 0, 0, 1, 21, 38)"><g clip-path="url(#e831ccfdee)"><g clip-path="url(#1b5d8f7ffc)"><g clip-path="url(#35fcc17140)"><path fill="#222222" d="M 0.902344 0.558594 L 13.074219 0.558594 L 13.074219 12.730469 L 0.902344 12.730469 Z M 0.902344 0.558594 " fill-opacity="1" fill-rule="nonzero"/></g></g></g></g></g></g><g clip-path="url(#71f76115c7)"><g clip-path="url(#5b98c88deb)"><g transform="matrix(1, 0, 0, 1, 111, 15)"><g clip-path="url(#7249c7bd50)"><g clip-path="url(#f7f40c9313)"><g clip-path="url(#1850a83a20)"><path fill="#222222" d="M 0.289062 0.53125 L 12.460938 0.53125 L 12.460938 12.703125 L 0.289062 12.703125 Z M 0.289062 0.53125 " fill-opacity="1" fill-rule="nonzero"/></g></g></g></g></g></g><g clip-path="url(#eaece0f4e3)"><g clip-path="url(#6b05dbf737)"><g transform="matrix(1, 0, 0, 1, 218, 18)"><g clip-path="url(#31b181e6b7)"><g clip-path="url(#30223de9f4)"><g clip-path="url(#555d46dc74)"><path fill="#222222" d="M 0.96875 0.765625 L 13.140625 0.765625 L 13.140625 12.941406 L 0.96875 12.941406 Z M 0.96875 0.765625 " fill-opacity="1" fill-rule="nonzero"/></g></g></g></g></g></g><g clip-path="url(#976b87cf9e)"><g clip-path="url(#7cf1d5ff01)"><g transform="matrix(1, 0, 0, 1, 41, 100)"><g clip-path="url(#8d4c31e341)"><g clip-path="url(#d5ca35f0f3)"><g clip-path="url(#3e8307fe32)"><path fill="#222222" d="M 0.835938 0.808594 L 13.007812 0.808594 L 13.007812 12.980469 L 0.835938 12.980469 Z M 0.835938 0.808594 " fill-opacity="1" fill-rule="nonzero"/></g></g></g></g></g></g><g clip-path="url(#bb0a92ec12)"><g clip-path="url(#d3db21493c)"><g transform="matrix(1, 0, 0, 1, 109, 100)"><g clip-path="url(#c6701f2fdb)"><g clip-path="url(#f3596d538f)"><g clip-path="url(#c751d0f25d)"><path fill="#222222" d="M 0.148438 0.808594 L 12.320312 0.808594 L 12.320312 12.980469 L 0.148438 12.980469 Z M 0.148438 0.808594 " fill-opacity="1" fill-rule="nonzero"/></g></g></g></g></g></g><g clip-path="url(#2178652a3c)"><g clip-path="url(#62492855d2)"><g transform="matrix(1, 0, 0, 1, 41, 136)"><g clip-path="url(#fe92ed3f29)"><g clip-path="url(#a3241664b4)"><g clip-path="url(#bd26160f75)"><path fill="#222222" d="M 0.835938 0.425781 L 13.007812 0.425781 L 13.007812 12.597656 L 0.835938 12.597656 Z M 0.835938 0.425781 " fill-opacity="1" fill-rule="nonzero"/></g></g></g></g></g></g><g clip-path="url(#8e3c2cdafc)"><g clip-path="url(#0030cc0bb6)"><g transform="matrix(1, 0, 0, 1, 195, 79)"><g clip-path="url(#c41441d8bd)"><g clip-path="url(#47234dc469)"><g clip-path="url(#70000e90c3)"><path fill="#222222" d="M 0.0664062 0.183594 L 12.238281 0.183594 L 12.238281 12.355469 L 0.0664062 12.355469 Z M 0.0664062 0.183594 " fill-opacity="1" fill-rule="nonzero"/></g></g></g></g></g></g><g clip-path="url(#590bea2983)"><g clip-path="url(#cd1987b4e3)"><g transform="matrix(1, 0, 0, 1, 130, 159)"><g clip-path="url(#bede42e335)"><g clip-path="url(#40c83c7e3a)"><g clip-path="url(#eb0e02836e)"><path fill="#222222" d="M 0.324219 0.824219 L 12.496094 0.824219 L 12.496094 12.996094 L 0.324219 12.996094 Z M 0.324219 0.824219 " fill-opacity="1" fill-rule="nonzero"/></g></g></g></g></g></g><g clip-path="url(#a1ffea9bb3)"><path fill="#ffffff" d="M 182.21875 132.640625 L 243.335938 132.640625 L 243.335938 178.964844 L 182.21875 178.964844 Z M 182.21875 132.640625 " fill-opacity="1" fill-rule="nonzero"/><path fill="#ffffff" d="M 182.21875 132.640625 L 243.335938 132.640625 L 243.335938 178.964844 L 182.21875 178.964844 Z M 182.21875 132.640625 " fill-opacity="1" fill-rule="nonzero"/></g><g clip-path="url(#3f407bb922)"><path stroke-linecap="butt" transform="matrix(0.970145, 0, 0, 0.965042, 176.821204, 132.640521)" fill="none" stroke-linejoin="miter" d="M -0.000918623 0.999903 L 74.122189 0.999903 " stroke="#000000" stroke-width="2" stroke-opacity="1" stroke-miterlimit="4"/></g><g clip-path="url(#2e97b92f82)"><path stroke-linecap="butt" transform="matrix(0.970145, 0, 0, 0.965042, 180.507749, 177.032428)" fill="none" stroke-linejoin="miter" d="M 0.0000652506 0.998574 L 74.123173 0.998574 " stroke="#000000" stroke-width="2" stroke-opacity="1" stroke-miterlimit="4"/></g><g clip-path="url(#fc235fbe54)"><path stroke-linecap="butt" transform="matrix(0, 0.965042, -0.970145, 0, 184.15822, 133.605558)" fill="none" stroke-linejoin="miter" d="M -0.0000921309 1.000593 L 48.002208 1.000593 " stroke="#000000" stroke-width="2" stroke-opacity="1" stroke-miterlimit="4"/></g><g clip-path="url(#fe0740be7c)"><path stroke-linecap="butt" transform="matrix(0, 0.965042, -0.970145, 0, 243.337036, 133.605558)" fill="none" stroke-linejoin="miter" d="M -0.0000921309 1.003721 L 48.002208 1.003721 " stroke="#000000" stroke-width="2" stroke-opacity="1" stroke-miterlimit="4"/></g><g clip-path="url(#5ddd902a7d)"><path fill="#000000" d="M 217.929688 148.664062 C 217.433594 147.972656 216.742188 147.445312 215.859375 147.085938 C 214.988281 146.722656 213.972656 146.535156 212.828125 146.535156 C 211.78125 146.535156 210.832031 146.71875 209.96875 147.074219 C 209.113281 147.429688 208.417969 147.976562 207.894531 148.703125 C 207.476562 149.273438 207.21875 149.972656 207.113281 150.792969 C 207.066406 151.144531 207.359375 151.460938 207.730469 151.460938 L 210.039062 151.460938 C 210.332031 151.460938 210.582031 151.257812 210.644531 150.980469 C 210.703125 150.730469 210.800781 150.507812 210.929688 150.316406 C 211.144531 150.007812 211.417969 149.777344 211.75 149.617188 C 212.082031 149.460938 212.4375 149.378906 212.8125 149.378906 C 213.199219 149.378906 213.546875 149.457031 213.871094 149.617188 C 214.1875 149.765625 214.441406 149.992188 214.632812 150.28125 C 214.820312 150.570312 214.917969 150.90625 214.917969 151.289062 C 214.917969 151.652344 214.832031 151.980469 214.664062 152.269531 C 214.5 152.558594 214.273438 152.828125 213.996094 153.066406 C 213.710938 153.308594 213.398438 153.535156 213.039062 153.757812 C 212.5625 154.046875 212.152344 154.367188 211.8125 154.726562 C 211.476562 155.082031 211.222656 155.546875 211.039062 156.125 C 210.867188 156.707031 210.773438 157.476562 210.769531 158.449219 L 210.769531 158.933594 C 210.769531 159.265625 211.050781 159.539062 211.394531 159.539062 L 213.421875 159.539062 C 213.765625 159.539062 214.046875 159.269531 214.046875 158.933594 L 214.046875 158.449219 C 214.050781 157.90625 214.125 157.445312 214.265625 157.074219 C 214.40625 156.707031 214.625 156.378906 214.910156 156.09375 C 215.199219 155.808594 215.574219 155.539062 216.023438 155.277344 C 216.570312 154.960938 217.039062 154.617188 217.433594 154.230469 C 217.828125 153.839844 218.140625 153.398438 218.363281 152.890625 C 218.585938 152.390625 218.699219 151.8125 218.699219 151.160156 C 218.683594 150.183594 218.429688 149.351562 217.929688 148.664062 Z M 217.929688 148.664062 " fill-opacity="1" fill-rule="nonzero"/></g><g clip-path="url(#7275f2ac90)"><path fill="#000000" d="M 212.472656 160.886719 C 211.898438 160.886719 211.402344 161.078125 211 161.472656 C 210.59375 161.859375 210.390625 162.328125 210.402344 162.871094 C 210.390625 163.417969 210.59375 163.894531 211 164.285156 C 211.402344 164.679688 211.898438 164.871094 212.472656 164.871094 C 212.835938 164.871094 213.179688 164.78125 213.484375 164.601562 C 213.796875 164.414062 214.046875 164.179688 214.242188 163.875 C 214.4375 163.570312 214.535156 163.238281 214.539062 162.871094 C 214.53125 162.324219 214.320312 161.859375 213.90625 161.472656 C 213.496094 161.078125 213.019531 160.886719 212.472656 160.886719 Z M 212.472656 160.886719 " fill-opacity="1" fill-rule="nonzero"/></g><g clip-path="url(#0747e21b9c)"><path fill="#000000" d="M 126.113281 7.464844 C 112.082031 7.464844 100.6875 18.855469 100.6875 32.890625 C 100.6875 46.925781 112.082031 58.316406 126.113281 58.316406 C 140.148438 58.316406 151.539062 46.925781 151.539062 32.890625 C 151.539062 18.855469 140.148438 7.464844 126.113281 7.464844 Z M 126.113281 8.878906 C 139.386719 8.878906 150.128906 19.621094 150.128906 32.890625 C 150.128906 46.160156 139.386719 56.902344 126.113281 56.902344 C 112.84375 56.902344 102.101562 46.160156 102.101562 32.890625 C 102.101562 19.621094 112.84375 8.878906 126.113281 8.878906 Z M 126.113281 8.878906 " fill-opacity="1" fill-rule="nonzero"/></g><g clip-path="url(#a5e6c8fb42)"><path fill="#000000" d="M 126.113281 70.945312 C 112.082031 70.945312 100.6875 82.335938 100.6875 96.371094 C 100.6875 110.402344 112.082031 121.796875 126.113281 121.796875 C 140.148438 121.796875 151.539062 110.402344 151.539062 96.371094 C 151.539062 82.335938 140.148438 70.945312 126.113281 70.945312 Z M 126.113281 72.355469 C 139.386719 72.355469 150.128906 83.097656 150.128906 96.371094 C 150.128906 109.640625 139.386719 120.382812 126.113281 120.382812 C 112.84375 120.382812 102.101562 109.640625 102.101562 96.371094 C 102.101562 83.097656 112.84375 72.355469 126.113281 72.355469 Z M 126.113281 72.355469 " fill-opacity="1" fill-rule="nonzero"/></g><g clip-path="url(#759dca795e)"><path fill="#000000" d="M 126.113281 129.464844 C 112.082031 129.464844 100.6875 140.855469 100.6875 154.890625 C 100.6875 168.921875 112.082031 180.316406 126.113281 180.316406 C 140.148438 180.316406 151.539062 168.921875 151.539062 154.890625 C 151.539062 140.855469 140.148438 129.464844 126.113281 129.464844 Z M 126.113281 130.875 C 139.386719 130.875 150.128906 141.617188 150.128906 154.890625 C 150.128906 168.160156 139.386719 178.902344 126.113281 178.902344 C 112.84375 178.902344 102.101562 168.160156 102.101562 154.890625 C 102.101562 141.617188 112.84375 130.875 126.113281 130.875 Z M 126.113281 130.875 " fill-opacity="1" fill-rule="nonzero"/></g><g clip-path="url(#fed82a6694)"><path fill="#000000" d="M 213.09375 11.296875 C 199.058594 11.296875 187.667969 22.6875 187.667969 36.722656 C 187.667969 50.753906 199.058594 62.148438 213.09375 62.148438 C 227.125 62.148438 238.519531 50.753906 238.519531 36.722656 C 238.519531 22.6875 227.125 11.296875 213.09375 11.296875 Z M 213.09375 12.707031 C 226.363281 12.707031 237.105469 23.449219 237.105469 36.722656 C 237.105469 49.992188 226.363281 60.734375 213.09375 60.734375 C 199.820312 60.734375 189.078125 49.992188 189.078125 36.722656 C 189.078125 23.449219 199.820312 12.707031 213.09375 12.707031 Z M 213.09375 12.707031 " fill-opacity="1" fill-rule="nonzero"/></g><g clip-path="url(#aa77f5643e)"><path fill="#000000" d="M 213.09375 71.644531 C 199.058594 71.644531 187.667969 83.035156 187.667969 97.070312 C 187.667969 111.101562 199.058594 122.496094 213.09375 122.496094 C 227.125 122.496094 238.519531 111.101562 238.519531 97.070312 C 238.519531 83.035156 227.125 71.644531 213.09375 71.644531 Z M 213.09375 73.054688 C 226.363281 73.054688 237.105469 83.796875 237.105469 97.070312 C 237.105469 110.339844 226.363281 121.082031 213.09375 121.082031 C 199.820312 121.082031 189.078125 110.339844 189.078125 97.070312 C 189.078125 83.796875 199.820312 73.054688 213.09375 73.054688 Z M 213.09375 73.054688 " fill-opacity="1" fill-rule="nonzero"/></g><g clip-path="url(#20fe58b1eb)"><path stroke-linecap="butt" transform="matrix(0.74782, 0, 0, 0.74782, -9.091193, 0.1468)" fill="none" stroke-linejoin="miter" d="M 0.00180436 1.997574 L 375.311587 1.997574 " stroke="#000000" stroke-width="4" stroke-opacity="1" stroke-miterlimit="4"/></g><g clip-path="url(#dd561eb868)"><path stroke-linecap="butt" transform="matrix(0, -0.74782, 0.74782, 0, -0.00297822, 191.88746)" fill="none" stroke-linejoin="miter" d="M 0.000990604 1.999366 L 253.90054 1.999366 " stroke="#000000" stroke-width="4" stroke-opacity="1" stroke-miterlimit="4"/></g><g clip-path="url(#7ac6b1c07f)"><path stroke-linecap="butt" transform="matrix(0.74782, 0.000000000000000029, -0.000000000000000029, 0.74782, -9.226357, 60.113854)" fill="none" stroke-linejoin="miter" d="M -0.00027542 1.999841 L 360.960502 1.999841 " stroke="#000000" stroke-width="4" stroke-opacity="1" stroke-miterlimit="4"/></g><g clip-path="url(#99bfe4be6c)"><path stroke-linecap="butt" transform="matrix(0.74782, 0, 0, 0.74782, -15.373313, 125.981857)" fill="none" stroke-linejoin="miter" d="M -0.0022553 1.998751 L 375.312751 1.998751 " stroke="#000000" stroke-width="4" stroke-opacity="1" stroke-miterlimit="4"/></g><g clip-path="url(#051f5e99c0)"><path stroke-linecap="butt" transform="matrix(0.74782, 0, 0, 0.74782, 0, 183.362635)" fill="none" stroke-linejoin="miter" d="M 0 2.001471 L 375.315006 2.001471 " stroke="#000000" stroke-width="4" stroke-opacity="1" stroke-miterlimit="4"/></g><g clip-path="url(#6fe3a30a36)"><path stroke-linecap="butt" transform="matrix(0, -0.74782, 0.74782, 0, 164.143453, 188.182567)" fill="none" stroke-linejoin="miter" d="M -0.00137335 2.00205 L 253.898176 2.00205 " stroke="#000000" stroke-width="4" stroke-opacity="1" stroke-miterlimit="4"/></g><g clip-path="url(#fad9c87b59)"><path stroke-linecap="butt" transform="matrix(0, -0.74782, 0.74782, 0, 82.070237, 190.014199)" fill="none" stroke-linejoin="miter" d="M -0.00190738 2.000709 L 253.897642 2.000709 " stroke="#000000" stroke-width="4" stroke-opacity="1" stroke-miterlimit="4"/></g><g clip-path="url(#a86fd3bdb0)"><path stroke-linecap="butt" transform="matrix(0, -0.74782, 0.74782, 0, 253.62248, 191.509838)" fill="none" stroke-linejoin="miter" d="M -0.00251485 1.998754 L 253.897034 1.998754 " stroke="#000000" stroke-width="4" stroke-opacity="1" stroke-miterlimit="4"/></g></svg>