<svg xmlns="http://www.w3.org/2000/svg" xmlns:xlink="http://www.w3.org/1999/xlink" width="343" zoomAndPan="magnify" viewBox="0 0 257.25 186.749995" height="249" preserveAspectRatio="xMidYMid meet" version="1.0"><defs><clipPath id="652ccf3145"><path d="M 256 23 L 256.503906 23 L 256.503906 24 L 256 24 Z M 256 23 " clip-rule="nonzero"/></clipPath><clipPath id="acaba358a7"><path d="M 256 46 L 256.503906 46 L 256.503906 47 L 256 47 Z M 256 46 " clip-rule="nonzero"/></clipPath><clipPath id="ae2e2b84d4"><path d="M 256 70 L 256.503906 70 L 256.503906 71 L 256 71 Z M 256 70 " clip-rule="nonzero"/></clipPath><clipPath id="0f2752515d"><path d="M 256 93 L 256.503906 93 L 256.503906 94 L 256 94 Z M 256 93 " clip-rule="nonzero"/></clipPath><clipPath id="c6bc9b0279"><path d="M 256 116 L 256.503906 116 L 256.503906 117 L 256 117 Z M 256 116 " clip-rule="nonzero"/></clipPath><clipPath id="32396e911e"><path d="M 256 140 L 256.503906 140 L 256.503906 141 L 256 141 Z M 256 140 " clip-rule="nonzero"/></clipPath><clipPath id="d552fc263c"><path d="M 256 163 L 256.503906 163 L 256.503906 164 L 256 164 Z M 256 163 " clip-rule="nonzero"/></clipPath><clipPath id="d460a7e1b2"><path d="M 235 0.148438 L 256.503906 0.148438 L 256.503906 24 L 235 24 Z M 235 0.148438 " clip-rule="nonzero"/></clipPath><clipPath id="64d352d326"><path d="M 235 23 L 256.503906 23 L 256.503906 47 L 235 47 Z M 235 23 " clip-rule="nonzero"/></clipPath><clipPath id="e935e33617"><path d="M 235 46 L 256.503906 46 L 256.503906 71 L 235 71 Z M 235 46 " clip-rule="nonzero"/></clipPath><clipPath id="c758a6c695"><path d="M 235 70 L 256.503906 70 L 256.503906 94 L 235 94 Z M 235 70 " clip-rule="nonzero"/></clipPath><clipPath id="433491cc07"><path d="M 235 93 L 256.503906 93 L 256.503906 117 L 235 117 Z M 235 93 " clip-rule="nonzero"/></clipPath><clipPath id="380bdd37bb"><path d="M 235 116 L 256.503906 116 L 256.503906 141 L 235 141 Z M 235 116 " clip-rule="nonzero"/></clipPath><clipPath id="7e5fa4fce6"><path d="M 235 140 L 256.503906 140 L 256.503906 164 L 235 164 Z M 235 140 " clip-rule="nonzero"/></clipPath><clipPath id="03455f97f6"><path d="M 235 163 L 256.503906 163 L 256.503906 186.355469 L 235 186.355469 Z M 235 163 " clip-rule="nonzero"/></clipPath><clipPath id="01e81582e8"><path d="M 213 0.148438 L 236 0.148438 L 236 24 L 213 24 Z M 213 0.148438 " clip-rule="nonzero"/></clipPath><clipPath id="a72da3b916"><path d="M 213 163 L 236 163 L 236 186.355469 L 213 186.355469 Z M 213 163 " clip-rule="nonzero"/></clipPath><clipPath id="931fb821b3"><path d="M 192 0.148438 L 214 0.148438 L 214 24 L 192 24 Z M 192 0.148438 " clip-rule="nonzero"/></clipPath><clipPath id="906e6bb5a0"><path d="M 192 163 L 214 163 L 214 186.355469 L 192 186.355469 Z M 192 163 " clip-rule="nonzero"/></clipPath><clipPath id="a11aad0c28"><path d="M 170 0.148438 L 193 0.148438 L 193 24 L 170 24 Z M 170 0.148438 " clip-rule="nonzero"/></clipPath><clipPath id="d84f3ef5fd"><path d="M 170 163 L 193 163 L 193 186.355469 L 170 186.355469 Z M 170 163 " clip-rule="nonzero"/></clipPath><clipPath id="b9b0a59cfb"><path d="M 149 0.148438 L 171 0.148438 L 171 24 L 149 24 Z M 149 0.148438 " clip-rule="nonzero"/></clipPath><clipPath id="9b326ad4ec"><path d="M 149 163 L 171 163 L 171 186.355469 L 149 186.355469 Z M 149 163 " clip-rule="nonzero"/></clipPath><clipPath id="6aac513caa"><path d="M 128 0.148438 L 150 0.148438 L 150 24 L 128 24 Z M 128 0.148438 " clip-rule="nonzero"/></clipPath><clipPath id="3fef0e60ab"><path d="M 128 163 L 150 163 L 150 186.355469 L 128 186.355469 Z M 128 163 " clip-rule="nonzero"/></clipPath><clipPath id="98785fcdac"><path d="M 106 0.148438 L 129 0.148438 L 129 24 L 106 24 Z M 106 0.148438 " clip-rule="nonzero"/></clipPath><clipPath id="413738e1f4"><path d="M 106 163 L 129 163 L 129 186.355469 L 106 186.355469 Z M 106 163 " clip-rule="nonzero"/></clipPath><clipPath id="513c74f6db"><path d="M 85 0.148438 L 107 0.148438 L 107 24 L 85 24 Z M 85 0.148438 " clip-rule="nonzero"/></clipPath><clipPath id="42bdf89a28"><path d="M 85 163 L 107 163 L 107 186.355469 L 85 186.355469 Z M 85 163 " clip-rule="nonzero"/></clipPath><clipPath id="2659807e8d"><path d="M 64 0.148438 L 86 0.148438 L 86 24 L 64 24 Z M 64 0.148438 " clip-rule="nonzero"/></clipPath><clipPath id="60944b55ee"><path d="M 64 163 L 86 163 L 86 186.355469 L 64 186.355469 Z M 64 163 " clip-rule="nonzero"/></clipPath><clipPath id="0d193a0fa1"><path d="M 42 0.148438 L 65 0.148438 L 65 24 L 42 24 Z M 42 0.148438 " clip-rule="nonzero"/></clipPath><clipPath id="49ff5fe66d"><path d="M 42 163 L 65 163 L 65 186.355469 L 42 186.355469 Z M 42 163 " clip-rule="nonzero"/></clipPath><clipPath id="8fac68100a"><path d="M 21 0.148438 L 43 0.148438 L 43 24 L 21 24 Z M 21 0.148438 " clip-rule="nonzero"/></clipPath><clipPath id="3717bc967c"><path d="M 21 163 L 43 163 L 43 186.355469 L 21 186.355469 Z M 21 163 " clip-rule="nonzero"/></clipPath><clipPath id="3adcc3b2b2"><path d="M 0 0.148438 L 22 0.148438 L 22 24 L 0 24 Z M 0 0.148438 " clip-rule="nonzero"/></clipPath><clipPath id="644330a2e4"><path d="M 0 163 L 22 163 L 22 186.355469 L 0 186.355469 Z M 0 163 " clip-rule="nonzero"/></clipPath><clipPath id="0a5f063358"><path d="M 152.636719 93.445312 L 247.222656 93.445312 L 247.222656 165.828125 L 152.636719 165.828125 Z M 152.636719 93.445312 " clip-rule="nonzero"/></clipPath><clipPath id="47155c91e8"><path d="M 152.636719 93.445312 L 247.222656 93.445312 L 247.222656 97 L 152.636719 97 Z M 152.636719 93.445312 " clip-rule="nonzero"/></clipPath><clipPath id="9ddf7dfdaf"><path d="M 152.636719 162 L 247.222656 162 L 247.222656 165.828125 L 152.636719 165.828125 Z M 152.636719 162 " clip-rule="nonzero"/></clipPath><clipPath id="c97a20c260"><path d="M 152.636719 93.445312 L 156 93.445312 L 156 165.828125 L 152.636719 165.828125 Z M 152.636719 93.445312 " clip-rule="nonzero"/></clipPath><clipPath id="05c0ec3b4a"><path d="M 244 93.445312 L 247.222656 93.445312 L 247.222656 165.828125 L 244 165.828125 Z M 244 93.445312 " clip-rule="nonzero"/></clipPath><clipPath id="08e9dda2ee"><path d="M 191.085938 115.160156 L 209.105469 115.160156 L 209.105469 136 L 191.085938 136 Z M 191.085938 115.160156 " clip-rule="nonzero"/></clipPath><clipPath id="1a981ca2e1"><path d="M 196 137 L 203 137 L 203 143.804688 L 196 143.804688 Z M 196 137 " clip-rule="nonzero"/></clipPath></defs><g clip-path="url(#652ccf3145)"><path fill="#000000" d="M 256.503906 23.316406 L 256.460938 23.402344 L 256.503906 23.402344 Z M 256.503906 23.316406 " fill-opacity="1" fill-rule="nonzero"/></g><g clip-path="url(#acaba358a7)"><path fill="#000000" d="M 256.503906 46.703125 L 256.460938 46.746094 L 256.503906 46.746094 Z M 256.503906 46.703125 " fill-opacity="1" fill-rule="nonzero"/></g><g clip-path="url(#ae2e2b84d4)"><path fill="#000000" d="M 256.503906 70.085938 L 256.460938 70.128906 L 256.503906 70.128906 Z M 256.503906 70.085938 " fill-opacity="1" fill-rule="nonzero"/></g><g clip-path="url(#0f2752515d)"><path fill="#000000" d="M 256.503906 93.429688 L 256.460938 93.472656 L 256.503906 93.472656 Z M 256.503906 93.429688 " fill-opacity="1" fill-rule="nonzero"/></g><g clip-path="url(#c6bc9b0279)"><path fill="#000000" d="M 256.503906 116.8125 L 256.460938 116.855469 L 256.503906 116.855469 Z M 256.503906 116.8125 " fill-opacity="1" fill-rule="nonzero"/></g><g clip-path="url(#32396e911e)"><path fill="#000000" d="M 256.503906 140.152344 L 256.460938 140.238281 L 256.503906 140.238281 Z M 256.503906 140.152344 " fill-opacity="1" fill-rule="nonzero"/></g><g clip-path="url(#d552fc263c)"><path fill="#000000" d="M 256.503906 163.539062 L 256.460938 163.582031 L 256.503906 163.582031 Z M 256.503906 163.539062 " fill-opacity="1" fill-rule="nonzero"/></g><g clip-path="url(#d460a7e1b2)"><path fill="#000000" d="M 256.460938 23.402344 L 251.03125 11.773438 L 245.816406 0.148438 L 245.730469 0.148438 L 240.511719 11.773438 L 235.085938 23.402344 Z M 256.460938 23.402344 " fill-opacity="1" fill-rule="nonzero"/></g><g clip-path="url(#64d352d326)"><path fill="#000000" d="M 235.085938 46.746094 L 256.460938 46.746094 L 251.03125 35.160156 L 245.773438 23.402344 L 240.511719 35.160156 Z M 235.085938 46.746094 " fill-opacity="1" fill-rule="nonzero"/></g><g clip-path="url(#e935e33617)"><path fill="#000000" d="M 235.085938 70.128906 L 256.460938 70.128906 L 251.03125 58.5 L 245.773438 46.746094 L 240.511719 58.5 Z M 235.085938 70.128906 " fill-opacity="1" fill-rule="nonzero"/></g><g clip-path="url(#c758a6c695)"><path fill="#000000" d="M 235.085938 93.472656 L 256.460938 93.472656 L 251.03125 81.886719 L 245.773438 70.128906 L 240.511719 81.886719 Z M 235.085938 93.472656 " fill-opacity="1" fill-rule="nonzero"/></g><g clip-path="url(#433491cc07)"><path fill="#000000" d="M 235.085938 116.855469 L 256.460938 116.855469 L 251.03125 105.226562 L 245.773438 93.472656 L 240.511719 105.226562 Z M 235.085938 116.855469 " fill-opacity="1" fill-rule="nonzero"/></g><g clip-path="url(#380bdd37bb)"><path fill="#000000" d="M 235.085938 140.238281 L 256.460938 140.238281 L 251.03125 128.613281 L 245.773438 116.855469 L 240.511719 128.613281 Z M 235.085938 140.238281 " fill-opacity="1" fill-rule="nonzero"/></g><g clip-path="url(#7e5fa4fce6)"><path fill="#000000" d="M 235.085938 163.582031 L 256.460938 163.582031 L 251.03125 151.953125 L 245.773438 140.238281 L 240.511719 151.953125 Z M 235.085938 163.582031 " fill-opacity="1" fill-rule="nonzero"/></g><g clip-path="url(#03455f97f6)"><path fill="#000000" d="M 235.085938 186.964844 L 256.460938 186.964844 L 251.03125 175.335938 L 245.773438 163.582031 L 240.511719 175.335938 Z M 235.085938 186.964844 " fill-opacity="1" fill-rule="nonzero"/></g><g clip-path="url(#01e81582e8)"><path fill="#000000" d="M 235.085938 23.402344 L 229.65625 11.773438 L 224.4375 0.148438 L 224.355469 0.148438 L 219.136719 11.773438 L 213.710938 23.402344 Z M 235.085938 23.402344 " fill-opacity="1" fill-rule="nonzero"/></g><path fill="#000000" d="M 235.085938 46.746094 L 229.65625 35.160156 L 224.398438 23.402344 L 219.136719 35.160156 L 213.710938 46.746094 Z M 235.085938 46.746094 " fill-opacity="1" fill-rule="nonzero"/><path fill="#000000" d="M 213.710938 70.128906 L 235.085938 70.128906 L 229.65625 58.5 L 224.398438 46.746094 L 219.136719 58.5 Z M 213.710938 70.128906 " fill-opacity="1" fill-rule="nonzero"/><path fill="#000000" d="M 213.710938 93.472656 L 235.085938 93.472656 L 229.65625 81.886719 L 224.398438 70.128906 L 219.136719 81.886719 Z M 213.710938 93.472656 " fill-opacity="1" fill-rule="nonzero"/><path fill="#000000" d="M 213.710938 116.855469 L 235.085938 116.855469 L 229.65625 105.226562 L 224.398438 93.472656 L 219.136719 105.226562 Z M 213.710938 116.855469 " fill-opacity="1" fill-rule="nonzero"/><path fill="#000000" d="M 213.710938 140.238281 L 235.085938 140.238281 L 229.65625 128.613281 L 224.398438 116.855469 L 219.136719 128.613281 Z M 213.710938 140.238281 " fill-opacity="1" fill-rule="nonzero"/><path fill="#000000" d="M 213.710938 163.582031 L 235.085938 163.582031 L 229.65625 151.953125 L 224.398438 140.238281 L 219.136719 151.953125 Z M 213.710938 163.582031 " fill-opacity="1" fill-rule="nonzero"/><g clip-path="url(#a72da3b916)"><path fill="#000000" d="M 213.710938 186.964844 L 235.085938 186.964844 L 229.65625 175.335938 L 224.398438 163.582031 L 219.136719 175.335938 Z M 213.710938 186.964844 " fill-opacity="1" fill-rule="nonzero"/></g><g clip-path="url(#931fb821b3)"><path fill="#000000" d="M 213.710938 23.402344 L 208.28125 11.773438 L 203.0625 0.148438 L 202.980469 0.148438 L 197.761719 11.773438 L 192.332031 23.402344 Z M 213.710938 23.402344 " fill-opacity="1" fill-rule="nonzero"/></g><path fill="#000000" d="M 213.710938 46.746094 L 208.28125 35.160156 L 203.019531 23.402344 L 197.761719 35.160156 L 192.332031 46.746094 Z M 213.710938 46.746094 " fill-opacity="1" fill-rule="nonzero"/><path fill="#000000" d="M 213.710938 70.128906 L 208.28125 58.5 L 203.019531 46.746094 L 197.761719 58.5 L 192.332031 70.128906 Z M 213.710938 70.128906 " fill-opacity="1" fill-rule="nonzero"/><path fill="#000000" d="M 192.332031 93.472656 L 213.710938 93.472656 L 208.28125 81.886719 L 203.019531 70.128906 L 197.761719 81.886719 Z M 192.332031 93.472656 " fill-opacity="1" fill-rule="nonzero"/><path fill="#000000" d="M 192.332031 116.855469 L 213.710938 116.855469 L 208.28125 105.226562 L 203.019531 93.472656 L 197.761719 105.226562 Z M 192.332031 116.855469 " fill-opacity="1" fill-rule="nonzero"/><path fill="#000000" d="M 192.332031 140.238281 L 213.710938 140.238281 L 208.28125 128.613281 L 203.019531 116.855469 L 197.761719 128.613281 Z M 192.332031 140.238281 " fill-opacity="1" fill-rule="nonzero"/><path fill="#000000" d="M 192.332031 163.582031 L 213.710938 163.582031 L 208.28125 151.953125 L 203.019531 140.238281 L 197.761719 151.953125 Z M 192.332031 163.582031 " fill-opacity="1" fill-rule="nonzero"/><g clip-path="url(#906e6bb5a0)"><path fill="#000000" d="M 192.332031 186.964844 L 213.710938 186.964844 L 208.28125 175.335938 L 203.019531 163.582031 L 197.761719 175.335938 Z M 192.332031 186.964844 " fill-opacity="1" fill-rule="nonzero"/></g><g clip-path="url(#a11aad0c28)"><path fill="#000000" d="M 192.332031 23.402344 L 186.90625 11.773438 L 181.6875 0.148438 L 181.605469 0.148438 L 176.386719 11.773438 L 170.957031 23.402344 Z M 192.332031 23.402344 " fill-opacity="1" fill-rule="nonzero"/></g><path fill="#000000" d="M 192.332031 46.746094 L 186.90625 35.160156 L 181.644531 23.402344 L 176.386719 35.160156 L 170.957031 46.746094 Z M 192.332031 46.746094 " fill-opacity="1" fill-rule="nonzero"/><path fill="#000000" d="M 192.332031 70.128906 L 186.90625 58.5 L 181.644531 46.746094 L 176.386719 58.5 L 170.957031 70.128906 Z M 192.332031 70.128906 " fill-opacity="1" fill-rule="nonzero"/><path fill="#000000" d="M 192.332031 93.472656 L 186.90625 81.886719 L 181.644531 70.128906 L 176.386719 81.886719 L 170.957031 93.472656 Z M 192.332031 93.472656 " fill-opacity="1" fill-rule="nonzero"/><path fill="#000000" d="M 170.957031 116.855469 L 192.332031 116.855469 L 186.90625 105.226562 L 181.644531 93.472656 L 176.386719 105.226562 Z M 170.957031 116.855469 " fill-opacity="1" fill-rule="nonzero"/><path fill="#000000" d="M 170.957031 140.238281 L 192.332031 140.238281 L 186.90625 128.613281 L 181.644531 116.855469 L 176.386719 128.613281 Z M 170.957031 140.238281 " fill-opacity="1" fill-rule="nonzero"/><path fill="#000000" d="M 170.957031 163.582031 L 192.332031 163.582031 L 186.90625 151.953125 L 181.644531 140.238281 L 176.386719 151.953125 Z M 170.957031 163.582031 " fill-opacity="1" fill-rule="nonzero"/><g clip-path="url(#d84f3ef5fd)"><path fill="#000000" d="M 181.644531 163.582031 L 176.386719 175.335938 L 170.957031 186.964844 L 192.332031 186.964844 L 186.90625 175.335938 Z M 181.644531 163.582031 " fill-opacity="1" fill-rule="nonzero"/></g><g clip-path="url(#b9b0a59cfb)"><path fill="#000000" d="M 170.957031 23.402344 L 165.53125 11.773438 L 160.3125 0.148438 L 160.226562 0.148438 L 155.011719 11.773438 L 149.582031 23.402344 Z M 170.957031 23.402344 " fill-opacity="1" fill-rule="nonzero"/></g><path fill="#000000" d="M 170.957031 46.746094 L 165.53125 35.160156 L 160.269531 23.402344 L 155.011719 35.160156 L 149.582031 46.746094 Z M 170.957031 46.746094 " fill-opacity="1" fill-rule="nonzero"/><path fill="#000000" d="M 170.957031 70.128906 L 165.53125 58.5 L 160.269531 46.746094 L 155.011719 58.5 L 149.582031 70.128906 Z M 170.957031 70.128906 " fill-opacity="1" fill-rule="nonzero"/><path fill="#000000" d="M 170.957031 93.472656 L 165.53125 81.886719 L 160.269531 70.128906 L 155.011719 81.886719 L 149.582031 93.472656 Z M 170.957031 93.472656 " fill-opacity="1" fill-rule="nonzero"/><path fill="#000000" d="M 170.957031 116.855469 L 165.53125 105.226562 L 160.269531 93.472656 L 155.011719 105.226562 L 149.582031 116.855469 Z M 170.957031 116.855469 " fill-opacity="1" fill-rule="nonzero"/><path fill="#000000" d="M 149.582031 140.238281 L 170.957031 140.238281 L 165.53125 128.613281 L 160.269531 116.855469 L 155.011719 128.613281 Z M 149.582031 140.238281 " fill-opacity="1" fill-rule="nonzero"/><path fill="#000000" d="M 160.269531 140.238281 L 155.011719 151.953125 L 149.582031 163.582031 L 170.957031 163.582031 L 165.53125 151.953125 Z M 160.269531 140.238281 " fill-opacity="1" fill-rule="nonzero"/><g clip-path="url(#9b326ad4ec)"><path fill="#000000" d="M 160.269531 163.582031 L 155.011719 175.335938 L 149.582031 186.964844 L 170.957031 186.964844 L 165.53125 175.335938 Z M 160.269531 163.582031 " fill-opacity="1" fill-rule="nonzero"/></g><g clip-path="url(#6aac513caa)"><path fill="#000000" d="M 149.582031 23.402344 L 144.152344 11.773438 L 138.9375 0.148438 L 138.851562 0.148438 L 133.636719 11.773438 L 128.207031 23.402344 Z M 149.582031 23.402344 " fill-opacity="1" fill-rule="nonzero"/></g><path fill="#000000" d="M 149.582031 46.746094 L 144.152344 35.160156 L 138.894531 23.402344 L 133.636719 35.160156 L 128.207031 46.746094 Z M 149.582031 46.746094 " fill-opacity="1" fill-rule="nonzero"/><path fill="#000000" d="M 149.582031 70.128906 L 144.152344 58.5 L 138.894531 46.746094 L 133.636719 58.5 L 128.207031 70.128906 Z M 149.582031 70.128906 " fill-opacity="1" fill-rule="nonzero"/><path fill="#000000" d="M 149.582031 93.472656 L 144.152344 81.886719 L 138.894531 70.128906 L 133.636719 81.886719 L 128.207031 93.472656 Z M 149.582031 93.472656 " fill-opacity="1" fill-rule="nonzero"/><path fill="#000000" d="M 149.582031 116.855469 L 144.152344 105.226562 L 138.894531 93.472656 L 133.636719 105.226562 L 128.207031 116.855469 Z M 149.582031 116.855469 " fill-opacity="1" fill-rule="nonzero"/><path fill="#000000" d="M 138.894531 116.855469 L 133.636719 128.613281 L 128.207031 140.238281 L 149.582031 140.238281 L 144.152344 128.613281 Z M 138.894531 116.855469 " fill-opacity="1" fill-rule="nonzero"/><path fill="#000000" d="M 138.894531 140.238281 L 133.636719 151.953125 L 128.207031 163.582031 L 149.582031 163.582031 L 144.152344 151.953125 Z M 138.894531 140.238281 " fill-opacity="1" fill-rule="nonzero"/><g clip-path="url(#3fef0e60ab)"><path fill="#000000" d="M 138.894531 163.582031 L 133.636719 175.335938 L 128.207031 186.964844 L 149.582031 186.964844 L 144.152344 175.335938 Z M 138.894531 163.582031 " fill-opacity="1" fill-rule="nonzero"/></g><g clip-path="url(#98785fcdac)"><path fill="#000000" d="M 128.207031 23.402344 L 122.777344 11.773438 L 117.5625 0.148438 L 117.476562 0.148438 L 112.261719 11.773438 L 106.832031 23.402344 Z M 128.207031 23.402344 " fill-opacity="1" fill-rule="nonzero"/></g><path fill="#000000" d="M 128.207031 46.746094 L 122.777344 35.160156 L 117.519531 23.402344 L 112.261719 35.160156 L 106.832031 46.746094 Z M 128.207031 46.746094 " fill-opacity="1" fill-rule="nonzero"/><path fill="#000000" d="M 128.207031 70.128906 L 122.777344 58.5 L 117.519531 46.746094 L 112.261719 58.5 L 106.832031 70.128906 Z M 128.207031 70.128906 " fill-opacity="1" fill-rule="nonzero"/><path fill="#000000" d="M 128.207031 93.472656 L 122.777344 81.886719 L 117.519531 70.128906 L 112.261719 81.886719 L 106.832031 93.472656 Z M 128.207031 93.472656 " fill-opacity="1" fill-rule="nonzero"/><path fill="#000000" d="M 128.207031 116.855469 L 122.777344 105.226562 L 117.519531 93.472656 L 112.261719 105.226562 L 106.832031 116.855469 Z M 128.207031 116.855469 " fill-opacity="1" fill-rule="nonzero"/><path fill="#000000" d="M 117.519531 116.855469 L 112.261719 128.613281 L 106.832031 140.238281 L 128.207031 140.238281 L 122.777344 128.613281 Z M 117.519531 116.855469 " fill-opacity="1" fill-rule="nonzero"/><path fill="#000000" d="M 117.519531 140.238281 L 112.261719 151.953125 L 106.832031 163.582031 L 128.207031 163.582031 L 122.777344 151.953125 Z M 117.519531 140.238281 " fill-opacity="1" fill-rule="nonzero"/><g clip-path="url(#413738e1f4)"><path fill="#000000" d="M 117.519531 163.582031 L 112.261719 175.335938 L 106.832031 186.964844 L 128.207031 186.964844 L 122.777344 175.335938 Z M 117.519531 163.582031 " fill-opacity="1" fill-rule="nonzero"/></g><g clip-path="url(#513c74f6db)"><path fill="#000000" d="M 106.832031 23.402344 L 101.402344 11.773438 L 96.230469 0.148438 L 96.101562 0.148438 L 90.886719 11.773438 L 85.457031 23.402344 Z M 106.832031 23.402344 " fill-opacity="1" fill-rule="nonzero"/></g><path fill="#000000" d="M 106.832031 46.746094 L 101.402344 35.160156 L 96.144531 23.402344 L 90.886719 35.160156 L 85.457031 46.746094 Z M 106.832031 46.746094 " fill-opacity="1" fill-rule="nonzero"/><path fill="#000000" d="M 106.832031 70.128906 L 101.402344 58.5 L 96.144531 46.746094 L 90.886719 58.5 L 85.457031 70.128906 Z M 106.832031 70.128906 " fill-opacity="1" fill-rule="nonzero"/><path fill="#000000" d="M 106.832031 93.472656 L 101.402344 81.886719 L 96.144531 70.128906 L 90.886719 81.886719 L 85.457031 93.472656 Z M 106.832031 93.472656 " fill-opacity="1" fill-rule="nonzero"/><path fill="#000000" d="M 101.402344 105.226562 L 96.144531 93.472656 L 90.886719 105.226562 L 85.457031 116.855469 L 106.832031 116.855469 Z M 101.402344 105.226562 " fill-opacity="1" fill-rule="nonzero"/><path fill="#000000" d="M 101.402344 128.613281 L 96.144531 116.855469 L 90.886719 128.613281 L 85.457031 140.238281 L 106.832031 140.238281 Z M 101.402344 128.613281 " fill-opacity="1" fill-rule="nonzero"/><path fill="#000000" d="M 96.144531 140.238281 L 90.886719 151.953125 L 85.457031 163.582031 L 106.832031 163.582031 L 101.402344 151.953125 Z M 96.144531 140.238281 " fill-opacity="1" fill-rule="nonzero"/><g clip-path="url(#42bdf89a28)"><path fill="#000000" d="M 96.144531 163.582031 L 90.886719 175.335938 L 85.457031 186.964844 L 106.832031 186.964844 L 101.402344 175.335938 Z M 96.144531 163.582031 " fill-opacity="1" fill-rule="nonzero"/></g><g clip-path="url(#2659807e8d)"><path fill="#000000" d="M 85.457031 23.402344 L 80.027344 11.773438 L 74.855469 0.148438 L 74.726562 0.148438 L 69.511719 11.773438 L 64.082031 23.402344 Z M 85.457031 23.402344 " fill-opacity="1" fill-rule="nonzero"/></g><path fill="#000000" d="M 85.457031 46.746094 L 80.027344 35.160156 L 74.769531 23.402344 L 69.511719 35.160156 L 64.082031 46.746094 Z M 85.457031 46.746094 " fill-opacity="1" fill-rule="nonzero"/><path fill="#000000" d="M 85.457031 70.128906 L 80.027344 58.5 L 74.769531 46.746094 L 69.511719 58.5 L 64.082031 70.128906 Z M 85.457031 70.128906 " fill-opacity="1" fill-rule="nonzero"/><path fill="#000000" d="M 80.027344 81.886719 L 74.769531 70.128906 L 69.511719 81.886719 L 64.082031 93.472656 L 85.457031 93.472656 Z M 80.027344 81.886719 " fill-opacity="1" fill-rule="nonzero"/><path fill="#000000" d="M 80.027344 105.226562 L 74.769531 93.472656 L 69.511719 105.226562 L 64.082031 116.855469 L 85.457031 116.855469 Z M 80.027344 105.226562 " fill-opacity="1" fill-rule="nonzero"/><path fill="#000000" d="M 80.027344 128.613281 L 74.769531 116.855469 L 69.511719 128.613281 L 64.082031 140.238281 L 85.457031 140.238281 Z M 80.027344 128.613281 " fill-opacity="1" fill-rule="nonzero"/><path fill="#000000" d="M 80.027344 151.953125 L 74.769531 140.238281 L 69.511719 151.953125 L 64.082031 163.582031 L 85.457031 163.582031 Z M 80.027344 151.953125 " fill-opacity="1" fill-rule="nonzero"/><g clip-path="url(#60944b55ee)"><path fill="#000000" d="M 74.769531 163.582031 L 69.511719 175.335938 L 64.082031 186.964844 L 85.457031 186.964844 L 80.027344 175.335938 Z M 74.769531 163.582031 " fill-opacity="1" fill-rule="nonzero"/></g><g clip-path="url(#0d193a0fa1)"><path fill="#000000" d="M 64.082031 23.402344 L 58.652344 11.773438 L 53.480469 0.148438 L 53.351562 0.148438 L 48.179688 11.773438 L 42.707031 23.402344 Z M 64.082031 23.402344 " fill-opacity="1" fill-rule="nonzero"/></g><path fill="#000000" d="M 64.082031 46.746094 L 58.652344 35.160156 L 53.394531 23.402344 L 48.179688 35.160156 L 42.707031 46.746094 Z M 64.082031 46.746094 " fill-opacity="1" fill-rule="nonzero"/><path fill="#000000" d="M 58.652344 58.5 L 53.394531 46.746094 L 48.179688 58.5 L 42.707031 70.128906 L 64.082031 70.128906 Z M 58.652344 58.5 " fill-opacity="1" fill-rule="nonzero"/><path fill="#000000" d="M 58.652344 81.886719 L 53.394531 70.128906 L 48.179688 81.886719 L 42.707031 93.472656 L 64.082031 93.472656 Z M 58.652344 81.886719 " fill-opacity="1" fill-rule="nonzero"/><path fill="#000000" d="M 58.652344 105.226562 L 53.394531 93.472656 L 48.179688 105.226562 L 42.707031 116.855469 L 64.082031 116.855469 Z M 58.652344 105.226562 " fill-opacity="1" fill-rule="nonzero"/><path fill="#000000" d="M 58.652344 128.613281 L 53.394531 116.855469 L 48.179688 128.613281 L 42.707031 140.238281 L 64.082031 140.238281 Z M 58.652344 128.613281 " fill-opacity="1" fill-rule="nonzero"/><path fill="#000000" d="M 58.652344 151.953125 L 53.394531 140.238281 L 48.179688 151.953125 L 42.707031 163.582031 L 64.082031 163.582031 Z M 58.652344 151.953125 " fill-opacity="1" fill-rule="nonzero"/><g clip-path="url(#49ff5fe66d)"><path fill="#000000" d="M 58.652344 175.335938 L 53.394531 163.582031 L 48.179688 175.335938 L 42.707031 186.964844 L 64.082031 186.964844 Z M 58.652344 175.335938 " fill-opacity="1" fill-rule="nonzero"/></g><g clip-path="url(#8fac68100a)"><path fill="#000000" d="M 42.707031 23.402344 L 37.277344 11.773438 L 32.105469 0.148438 L 31.976562 0.148438 L 26.804688 11.773438 L 21.332031 23.402344 Z M 42.707031 23.402344 " fill-opacity="1" fill-rule="nonzero"/></g><path fill="#000000" d="M 37.277344 35.160156 L 32.019531 23.402344 L 26.804688 35.160156 L 21.332031 46.746094 L 42.707031 46.746094 Z M 37.277344 35.160156 " fill-opacity="1" fill-rule="nonzero"/><path fill="#000000" d="M 37.277344 58.5 L 32.019531 46.746094 L 26.804688 58.5 L 21.332031 70.128906 L 42.707031 70.128906 Z M 37.277344 58.5 " fill-opacity="1" fill-rule="nonzero"/><path fill="#000000" d="M 37.277344 81.886719 L 32.019531 70.128906 L 26.804688 81.886719 L 21.332031 93.472656 L 42.707031 93.472656 Z M 37.277344 81.886719 " fill-opacity="1" fill-rule="nonzero"/><path fill="#000000" d="M 37.277344 105.226562 L 32.019531 93.472656 L 26.804688 105.226562 L 21.332031 116.855469 L 42.707031 116.855469 Z M 37.277344 105.226562 " fill-opacity="1" fill-rule="nonzero"/><path fill="#000000" d="M 37.277344 128.613281 L 32.019531 116.855469 L 26.804688 128.613281 L 21.332031 140.238281 L 42.707031 140.238281 Z M 37.277344 128.613281 " fill-opacity="1" fill-rule="nonzero"/><path fill="#000000" d="M 37.277344 151.953125 L 32.019531 140.238281 L 26.804688 151.953125 L 21.332031 163.582031 L 42.707031 163.582031 Z M 37.277344 151.953125 " fill-opacity="1" fill-rule="nonzero"/><g clip-path="url(#3717bc967c)"><path fill="#000000" d="M 37.277344 175.335938 L 32.019531 163.582031 L 26.804688 175.335938 L 21.332031 186.964844 L 42.707031 186.964844 Z M 37.277344 175.335938 " fill-opacity="1" fill-rule="nonzero"/></g><g clip-path="url(#3adcc3b2b2)"><path fill="#000000" d="M 15.902344 11.773438 L 10.730469 0.148438 L 10.601562 0.148438 L 5.429688 11.773438 L 0 23.402344 L 21.332031 23.402344 Z M 15.902344 11.773438 " fill-opacity="1" fill-rule="nonzero"/></g><path fill="#000000" d="M 15.902344 35.160156 L 10.644531 23.402344 L 5.429688 35.160156 L 0 46.746094 L 21.332031 46.746094 Z M 15.902344 35.160156 " fill-opacity="1" fill-rule="nonzero"/><path fill="#000000" d="M 15.902344 58.5 L 10.644531 46.746094 L 5.429688 58.5 L 0 70.128906 L 21.332031 70.128906 Z M 15.902344 58.5 " fill-opacity="1" fill-rule="nonzero"/><path fill="#000000" d="M 15.902344 81.886719 L 10.644531 70.128906 L 5.429688 81.886719 L 0 93.472656 L 21.332031 93.472656 Z M 15.902344 81.886719 " fill-opacity="1" fill-rule="nonzero"/><path fill="#000000" d="M 15.902344 105.226562 L 10.644531 93.472656 L 5.429688 105.226562 L 0 116.855469 L 21.332031 116.855469 Z M 15.902344 105.226562 " fill-opacity="1" fill-rule="nonzero"/><path fill="#000000" d="M 15.902344 128.613281 L 10.644531 116.855469 L 5.429688 128.613281 L 0 140.238281 L 21.332031 140.238281 Z M 15.902344 128.613281 " fill-opacity="1" fill-rule="nonzero"/><path fill="#000000" d="M 15.902344 151.953125 L 10.644531 140.238281 L 5.429688 151.953125 L 0 163.582031 L 21.332031 163.582031 Z M 15.902344 151.953125 " fill-opacity="1" fill-rule="nonzero"/><g clip-path="url(#644330a2e4)"><path fill="#000000" d="M 15.902344 175.335938 L 10.644531 163.582031 L 5.429688 175.335938 L 0 186.964844 L 21.332031 186.964844 Z M 15.902344 175.335938 " fill-opacity="1" fill-rule="nonzero"/></g><g clip-path="url(#0a5f063358)"><path fill="#ffffff" d="M 152.636719 93.445312 L 247.222656 93.445312 L 247.222656 165.828125 L 152.636719 165.828125 Z M 152.636719 93.445312 " fill-opacity="1" fill-rule="nonzero"/><path fill="#ffffff" d="M 152.636719 93.445312 L 247.222656 93.445312 L 247.222656 165.828125 L 152.636719 165.828125 Z M 152.636719 93.445312 " fill-opacity="1" fill-rule="nonzero"/></g><g clip-path="url(#47155c91e8)"><path stroke-linecap="butt" transform="matrix(1.501414, 0, 0, 1.507901, 144.283727, 93.446463)" fill="none" stroke-linejoin="miter" d="M 0.000951733 1.001769 L 74.123763 1.001769 " stroke="#000000" stroke-width="2" stroke-opacity="1" stroke-miterlimit="4"/></g><g clip-path="url(#9ddf7dfdaf)"><path stroke-linecap="butt" transform="matrix(1.501414, 0, 0, 1.507901, 149.989094, 162.809905)" fill="none" stroke-linejoin="miter" d="M 0.00206029 0.999072 L 74.124872 0.999072 " stroke="#000000" stroke-width="2" stroke-opacity="1" stroke-miterlimit="4"/></g><g clip-path="url(#c97a20c260)"><path stroke-linecap="butt" transform="matrix(0, 1.507901, -1.501414, 0, 155.638639, 94.954364)" fill="none" stroke-linejoin="miter" d="M 0.00176874 1.000337 L 48.001529 1.000337 " stroke="#000000" stroke-width="2" stroke-opacity="1" stroke-miterlimit="4"/></g><g clip-path="url(#05c0ec3b4a)"><path stroke-linecap="butt" transform="matrix(0, 1.507901, -1.501414, 0, 247.224881, 94.954364)" fill="none" stroke-linejoin="miter" d="M 0.00176874 1.000539 L 48.001529 1.000539 " stroke="#000000" stroke-width="2" stroke-opacity="1" stroke-miterlimit="4"/></g><g clip-path="url(#08e9dda2ee)"><path fill="#000000" d="M 207.90625 118.484375 C 207.136719 117.402344 206.066406 116.582031 204.699219 116.015625 C 203.347656 115.449219 201.78125 115.160156 200.007812 115.160156 C 198.390625 115.160156 196.917969 115.441406 195.585938 116 C 194.257812 116.554688 193.183594 117.410156 192.371094 118.542969 C 191.726562 119.4375 191.324219 120.527344 191.164062 121.8125 C 191.09375 122.359375 191.542969 122.851562 192.121094 122.851562 L 195.691406 122.851562 C 196.148438 122.851562 196.535156 122.539062 196.628906 122.101562 C 196.71875 121.714844 196.871094 121.367188 197.074219 121.066406 C 197.402344 120.582031 197.828125 120.21875 198.34375 119.96875 C 198.855469 119.726562 199.402344 119.597656 199.980469 119.597656 C 200.585938 119.597656 201.125 119.71875 201.621094 119.96875 C 202.113281 120.203125 202.503906 120.558594 202.804688 121.011719 C 203.09375 121.464844 203.246094 121.988281 203.246094 122.585938 C 203.246094 123.152344 203.109375 123.667969 202.851562 124.121094 C 202.59375 124.570312 202.25 124.992188 201.8125 125.363281 C 201.371094 125.742188 200.890625 126.097656 200.335938 126.445312 C 199.597656 126.894531 198.960938 127.394531 198.4375 127.953125 C 197.917969 128.511719 197.523438 129.238281 197.242188 130.140625 C 196.976562 131.054688 196.832031 132.253906 196.824219 133.773438 L 196.824219 134.53125 C 196.824219 135.046875 197.257812 135.476562 197.789062 135.476562 L 200.929688 135.476562 C 201.460938 135.476562 201.894531 135.054688 201.894531 134.53125 L 201.894531 133.773438 C 201.902344 132.925781 202.015625 132.207031 202.230469 131.625 C 202.449219 131.054688 202.785156 130.535156 203.230469 130.09375 C 203.679688 129.648438 204.257812 129.230469 204.957031 128.816406 C 205.800781 128.324219 206.523438 127.785156 207.136719 127.179688 C 207.746094 126.574219 208.226562 125.878906 208.574219 125.089844 C 208.917969 124.304688 209.097656 123.402344 209.097656 122.382812 C 209.070312 120.859375 208.679688 119.558594 207.90625 118.484375 Z M 207.90625 118.484375 " fill-opacity="1" fill-rule="nonzero"/></g><g clip-path="url(#1a981ca2e1)"><path fill="#000000" d="M 199.460938 137.582031 C 198.566406 137.582031 197.804688 137.882812 197.175781 138.496094 C 196.550781 139.101562 196.238281 139.835938 196.253906 140.683594 C 196.238281 141.539062 196.550781 142.28125 197.175781 142.894531 C 197.804688 143.507812 198.566406 143.804688 199.460938 143.804688 C 200.023438 143.804688 200.550781 143.667969 201.027344 143.386719 C 201.507812 143.097656 201.894531 142.726562 202.199219 142.25 C 202.496094 141.773438 202.648438 141.253906 202.65625 140.683594 C 202.640625 139.828125 202.320312 139.101562 201.675781 138.496094 C 201.042969 137.882812 200.304688 137.582031 199.460938 137.582031 Z M 199.460938 137.582031 " fill-opacity="1" fill-rule="nonzero"/></g></svg>