<svg xmlns="http://www.w3.org/2000/svg" xmlns:xlink="http://www.w3.org/1999/xlink" width="343" zoomAndPan="magnify" viewBox="0 0 257.25 186.749995" height="249" preserveAspectRatio="xMidYMid meet" version="1.0"><defs><clipPath id="6051c6918d"><path d="M 18.621094 18.765625 L 111.351562 18.765625 L 111.351562 66.628906 L 18.621094 66.628906 Z M 18.621094 18.765625 " clip-rule="nonzero"/></clipPath><clipPath id="e7b49e5ae9"><path d="M 145.242188 119.675781 L 237.972656 119.675781 L 237.972656 167.539062 L 145.242188 167.539062 Z M 145.242188 119.675781 " clip-rule="nonzero"/></clipPath><clipPath id="312b9bd1d2"><path d="M 145.242188 18.765625 L 237.972656 18.765625 L 237.972656 66.628906 L 145.242188 66.628906 Z M 145.242188 18.765625 " clip-rule="nonzero"/></clipPath><clipPath id="a3fdb718d3"><path d="M 19.183594 106.238281 L 113.773438 106.238281 L 113.773438 178.617188 L 19.183594 178.617188 Z M 19.183594 106.238281 " clip-rule="nonzero"/></clipPath><clipPath id="f4740b42ad"><path d="M 19.183594 106.238281 L 113.773438 106.238281 L 113.773438 110 L 19.183594 110 Z M 19.183594 106.238281 " clip-rule="nonzero"/></clipPath><clipPath id="59910811e7"><path d="M 19.183594 175 L 113.773438 175 L 113.773438 178.617188 L 19.183594 178.617188 Z M 19.183594 175 " clip-rule="nonzero"/></clipPath><clipPath id="b84933f759"><path d="M 19.183594 106.238281 L 22.734375 106.238281 L 22.734375 178.617188 L 19.183594 178.617188 Z M 19.183594 106.238281 " clip-rule="nonzero"/></clipPath><clipPath id="3d7435dd19"><path d="M 110 106.238281 L 113.773438 106.238281 L 113.773438 178.617188 L 110 178.617188 Z M 110 106.238281 " clip-rule="nonzero"/></clipPath><clipPath id="d19c1c8f0f"><path d="M 57.632812 127.953125 L 75.652344 127.953125 L 75.652344 149 L 57.632812 149 Z M 57.632812 127.953125 " clip-rule="nonzero"/></clipPath><clipPath id="2402bedee9"><path d="M 62 150 L 70 150 L 70 156.597656 L 62 156.597656 Z M 62 150 " clip-rule="nonzero"/></clipPath></defs><g clip-path="url(#6051c6918d)"><path fill="#000000" d="M 101.71875 64.703125 L 29.699219 64.703125 C 24.773438 64.703125 20.765625 60.695312 20.765625 55.769531 C 20.765625 50.847656 24.773438 46.839844 29.699219 46.839844 C 31.460938 46.839844 33.164062 47.351562 34.625 48.324219 L 34.664062 48.351562 C 35.003906 48.628906 35.480469 48.664062 35.859375 48.441406 C 36.238281 48.214844 36.433594 47.78125 36.355469 47.347656 L 36.285156 46.941406 C 36.273438 46.898438 36.265625 46.851562 36.25 46.808594 C 35.84375 45.542969 35.636719 44.21875 35.636719 42.871094 C 35.636719 35.765625 41.417969 29.984375 48.527344 29.984375 C 52.277344 29.984375 55.835938 31.617188 58.285156 34.457031 C 58.3125 34.484375 58.335938 34.511719 58.363281 34.539062 L 58.511719 34.675781 C 58.808594 34.953125 59.238281 35.035156 59.617188 34.882812 C 59.992188 34.734375 60.25 34.378906 60.277344 33.976562 C 60.738281 26.621094 66.8125 20.855469 74.105469 20.855469 C 81.746094 20.855469 87.964844 27.144531 87.964844 34.875 C 87.964844 35.882812 87.855469 36.886719 87.660156 37.820312 L 87.621094 37.960938 C 87.53125 38.320312 87.632812 38.703125 87.894531 38.964844 C 88.15625 39.226562 88.535156 39.332031 88.894531 39.242188 L 89.195312 39.164062 C 89.449219 39.140625 89.703125 39.128906 89.960938 39.128906 C 94.042969 39.15625 97.363281 42.472656 97.363281 46.523438 C 97.363281 47.480469 97.179688 48.414062 96.84375 49.25 L 96.757812 49.441406 C 96.566406 49.851562 96.664062 50.335938 96.992188 50.644531 C 97.324219 50.957031 97.8125 51.015625 98.210938 50.800781 C 99.28125 50.222656 100.492188 49.917969 101.71875 49.917969 C 105.796875 49.917969 109.113281 53.234375 109.113281 57.308594 C 109.113281 61.386719 105.796875 64.703125 101.71875 64.703125 Z M 101.71875 47.816406 C 100.910156 47.816406 100.105469 47.921875 99.328125 48.125 C 99.417969 47.597656 99.460938 47.0625 99.460938 46.523438 C 99.460938 41.324219 95.207031 37.066406 89.976562 37.03125 C 89.957031 37.03125 89.941406 37.027344 89.921875 37.027344 C 90.015625 36.316406 90.0625 35.597656 90.0625 34.875 C 90.0625 25.988281 82.90625 18.757812 74.105469 18.757812 C 66.445312 18.757812 59.953125 24.269531 58.46875 31.65625 C 55.742188 29.242188 52.214844 27.886719 48.527344 27.886719 C 40.261719 27.886719 33.539062 34.609375 33.539062 42.871094 C 33.539062 43.765625 33.617188 44.648438 33.769531 45.515625 C 32.484375 45.003906 31.105469 44.738281 29.699219 44.738281 C 23.613281 44.738281 18.664062 49.6875 18.664062 55.769531 C 18.664062 61.855469 23.613281 66.804688 29.699219 66.804688 L 101.71875 66.804688 C 106.953125 66.804688 111.210938 62.542969 111.210938 57.308594 C 111.210938 52.078125 106.953125 47.816406 101.71875 47.816406 " fill-opacity="1" fill-rule="nonzero"/></g><g clip-path="url(#e7b49e5ae9)"><path fill="#004aad" d="M 228.34375 165.613281 L 156.320312 165.613281 C 151.394531 165.613281 147.390625 161.605469 147.390625 156.679688 C 147.390625 151.757812 151.394531 147.75 156.320312 147.75 C 158.085938 147.75 159.789062 148.261719 161.25 149.234375 L 161.285156 149.261719 C 161.628906 149.539062 162.105469 149.574219 162.484375 149.347656 C 162.859375 149.125 163.058594 148.691406 162.980469 148.257812 L 162.90625 147.851562 C 162.898438 147.808594 162.886719 147.761719 162.875 147.71875 C 162.46875 146.453125 162.261719 145.128906 162.261719 143.78125 C 162.261719 136.675781 168.042969 130.894531 175.148438 130.894531 C 178.898438 130.894531 182.457031 132.527344 184.910156 135.367188 C 184.933594 135.394531 184.960938 135.421875 184.988281 135.449219 L 185.136719 135.585938 C 185.429688 135.863281 185.863281 135.945312 186.238281 135.792969 C 186.617188 135.644531 186.875 135.289062 186.898438 134.886719 C 187.359375 127.53125 193.4375 121.765625 200.730469 121.765625 C 208.371094 121.765625 214.585938 128.054688 214.585938 135.785156 C 214.585938 136.792969 214.480469 137.796875 214.28125 138.730469 L 214.246094 138.871094 C 214.152344 139.230469 214.257812 139.613281 214.519531 139.875 C 214.777344 140.136719 215.160156 140.242188 215.515625 140.152344 L 215.820312 140.074219 C 216.074219 140.050781 216.328125 140.039062 216.585938 140.039062 C 220.664062 140.066406 223.984375 143.382812 223.984375 147.433594 C 223.984375 148.390625 223.804688 149.324219 223.46875 150.160156 L 223.378906 150.351562 C 223.191406 150.761719 223.285156 151.246094 223.617188 151.554688 C 223.945312 151.863281 224.4375 151.925781 224.832031 151.710938 C 225.902344 151.132812 227.117188 150.828125 228.34375 150.828125 C 232.417969 150.828125 235.734375 154.144531 235.734375 158.21875 C 235.734375 162.296875 232.417969 165.613281 228.34375 165.613281 Z M 228.34375 148.726562 C 227.535156 148.726562 226.730469 148.832031 225.949219 149.035156 C 226.039062 148.507812 226.085938 147.972656 226.085938 147.433594 C 226.085938 142.234375 221.828125 137.976562 216.601562 137.941406 C 216.582031 137.941406 216.5625 137.9375 216.542969 137.9375 C 216.640625 137.226562 216.6875 136.507812 216.6875 135.785156 C 216.6875 126.898438 209.527344 119.667969 200.730469 119.667969 C 193.066406 119.667969 186.574219 125.179688 185.089844 132.566406 C 182.363281 130.152344 178.835938 128.796875 175.148438 128.796875 C 166.886719 128.796875 160.160156 135.519531 160.160156 143.78125 C 160.160156 144.675781 160.238281 145.558594 160.394531 146.425781 C 159.109375 145.914062 157.730469 145.648438 156.320312 145.648438 C 150.238281 145.648438 145.289062 150.597656 145.289062 156.679688 C 145.289062 162.765625 150.238281 167.714844 156.320312 167.714844 L 228.34375 167.714844 C 233.574219 167.714844 237.835938 163.453125 237.835938 158.21875 C 237.835938 152.988281 233.574219 148.726562 228.34375 148.726562 " fill-opacity="1" fill-rule="nonzero"/></g><g clip-path="url(#312b9bd1d2)"><path fill="#000000" d="M 228.34375 64.703125 L 156.320312 64.703125 C 151.394531 64.703125 147.390625 60.695312 147.390625 55.769531 C 147.390625 50.847656 151.394531 46.839844 156.320312 46.839844 C 158.085938 46.839844 159.789062 47.351562 161.25 48.324219 L 161.285156 48.351562 C 161.628906 48.628906 162.105469 48.664062 162.484375 48.441406 C 162.859375 48.214844 163.058594 47.78125 162.980469 47.347656 L 162.90625 46.941406 C 162.898438 46.898438 162.886719 46.851562 162.875 46.808594 C 162.46875 45.542969 162.261719 44.21875 162.261719 42.871094 C 162.261719 35.765625 168.042969 29.984375 175.148438 29.984375 C 178.898438 29.984375 182.457031 31.617188 184.910156 34.457031 C 184.933594 34.484375 184.960938 34.511719 184.988281 34.539062 L 185.136719 34.675781 C 185.429688 34.953125 185.863281 35.035156 186.238281 34.882812 C 186.617188 34.734375 186.875 34.378906 186.898438 33.976562 C 187.359375 26.621094 193.4375 20.855469 200.730469 20.855469 C 208.371094 20.855469 214.585938 27.144531 214.585938 34.875 C 214.585938 35.882812 214.480469 36.886719 214.28125 37.820312 L 214.246094 37.960938 C 214.152344 38.320312 214.257812 38.703125 214.519531 38.964844 C 214.777344 39.226562 215.160156 39.332031 215.515625 39.242188 L 215.820312 39.164062 C 216.074219 39.140625 216.328125 39.128906 216.585938 39.128906 C 220.664062 39.15625 223.984375 42.472656 223.984375 46.523438 C 223.984375 47.480469 223.804688 48.414062 223.46875 49.25 L 223.378906 49.441406 C 223.191406 49.851562 223.285156 50.335938 223.617188 50.644531 C 223.945312 50.957031 224.4375 51.015625 224.832031 50.800781 C 225.902344 50.222656 227.117188 49.917969 228.34375 49.917969 C 232.417969 49.917969 235.734375 53.234375 235.734375 57.308594 C 235.734375 61.386719 232.417969 64.703125 228.34375 64.703125 Z M 228.34375 47.816406 C 227.535156 47.816406 226.730469 47.921875 225.949219 48.125 C 226.039062 47.597656 226.085938 47.0625 226.085938 46.523438 C 226.085938 41.324219 221.828125 37.066406 216.601562 37.03125 C 216.582031 37.03125 216.5625 37.027344 216.542969 37.027344 C 216.640625 36.316406 216.6875 35.597656 216.6875 34.875 C 216.6875 25.988281 209.527344 18.757812 200.730469 18.757812 C 193.066406 18.757812 186.574219 24.269531 185.089844 31.65625 C 182.363281 29.242188 178.835938 27.886719 175.148438 27.886719 C 166.886719 27.886719 160.160156 34.609375 160.160156 42.871094 C 160.160156 43.765625 160.238281 44.648438 160.394531 45.515625 C 159.109375 45.003906 157.730469 44.738281 156.320312 44.738281 C 150.238281 44.738281 145.289062 49.6875 145.289062 55.769531 C 145.289062 61.855469 150.238281 66.804688 156.320312 66.804688 L 228.34375 66.804688 C 233.574219 66.804688 237.835938 62.542969 237.835938 57.308594 C 237.835938 52.078125 233.574219 47.816406 228.34375 47.816406 " fill-opacity="1" fill-rule="nonzero"/></g><path stroke-linecap="butt" transform="matrix(0.569616, -0.484533, 0.484533, 0.569616, 37.361012, 82.720222)" fill="none" stroke-linejoin="miter" d="M -0.00115687 0.997655 L 27.227841 1.001078 " stroke="#000000" stroke-width="2" stroke-opacity="1" stroke-miterlimit="4"/><path stroke-linecap="butt" transform="matrix(0.570162, -0.48389, 0.48389, 0.570162, 37.361651, 92.677383)" fill="none" stroke-linejoin="miter" d="M -0.00056897 0.99697 L 46.668375 0.997993 " stroke="#000000" stroke-width="2" stroke-opacity="1" stroke-miterlimit="4"/><path stroke-linecap="butt" transform="matrix(0.570546, -0.483437, 0.483437, 0.570546, 58.829244, 87.07679)" fill="none" stroke-linejoin="miter" d="M -0.00113557 1.000967 L 18.021731 0.997589 " stroke="#000000" stroke-width="2" stroke-opacity="1" stroke-miterlimit="4"/><path stroke-linecap="butt" transform="matrix(0.569616, -0.484533, 0.484533, 0.569616, 75.313481, 82.150601)" fill="none" stroke-linejoin="miter" d="M 0.000110773 0.997519 L 27.229108 1.000942 " stroke="#000000" stroke-width="2" stroke-opacity="1" stroke-miterlimit="4"/><path stroke-linecap="butt" transform="matrix(0.579212, -0.47302, 0.47302, 0.579212, 69.607243, 93.665235)" fill="none" stroke-linejoin="miter" d="M 0.000438803 1.003201 L 32.368048 0.999797 " stroke="#000000" stroke-width="2" stroke-opacity="1" stroke-miterlimit="4"/><g clip-path="url(#a3fdb718d3)"><path fill="#ffffff" d="M 19.183594 106.238281 L 113.773438 106.238281 L 113.773438 178.617188 L 19.183594 178.617188 Z M 19.183594 106.238281 " fill-opacity="1" fill-rule="nonzero"/><path fill="#ffffff" d="M 19.183594 106.238281 L 113.773438 106.238281 L 113.773438 178.617188 L 19.183594 178.617188 Z M 19.183594 106.238281 " fill-opacity="1" fill-rule="nonzero"/></g><g clip-path="url(#f4740b42ad)"><path stroke-linecap="butt" transform="matrix(1.501414, 0, 0, 1.507901, 10.831653, 106.238737)" fill="none" stroke-linejoin="miter" d="M 0.000251807 1.00223 L 74.123063 1.00223 " stroke="#000000" stroke-width="2" stroke-opacity="1" stroke-miterlimit="4"/></g><g clip-path="url(#59910811e7)"><path stroke-linecap="butt" transform="matrix(1.501414, 0, 0, 1.507901, 16.537026, 175.602181)" fill="none" stroke-linejoin="miter" d="M 0.00135654 0.999531 L 74.124168 0.999531 " stroke="#000000" stroke-width="2" stroke-opacity="1" stroke-miterlimit="4"/></g><g clip-path="url(#b84933f759)"><path stroke-linecap="butt" transform="matrix(0, 1.507901, -1.501414, 0, 22.186568, 107.746638)" fill="none" stroke-linejoin="miter" d="M 0.0022296 0.998437 L 48.00199 0.998437 " stroke="#000000" stroke-width="2" stroke-opacity="1" stroke-miterlimit="4"/></g><g clip-path="url(#3d7435dd19)"><path stroke-linecap="butt" transform="matrix(0, 1.507901, -1.501414, 0, 113.772828, 107.746638)" fill="none" stroke-linejoin="miter" d="M 0.0022296 1.001254 L 48.00199 1.001254 " stroke="#000000" stroke-width="2" stroke-opacity="1" stroke-miterlimit="4"/></g><g clip-path="url(#d19c1c8f0f)"><path fill="#000000" d="M 74.453125 131.277344 C 73.683594 130.195312 72.613281 129.371094 71.246094 128.808594 C 69.898438 128.242188 68.328125 127.953125 66.554688 127.953125 C 64.9375 127.953125 63.46875 128.234375 62.132812 128.792969 C 60.808594 129.347656 59.730469 130.203125 58.917969 131.332031 C 58.277344 132.230469 57.875 133.320312 57.714844 134.601562 C 57.640625 135.152344 58.089844 135.644531 58.667969 135.644531 L 62.238281 135.644531 C 62.695312 135.644531 63.082031 135.328125 63.179688 134.894531 C 63.265625 134.507812 63.417969 134.160156 63.621094 133.859375 C 63.949219 133.375 64.375 133.011719 64.890625 132.761719 C 65.40625 132.519531 65.949219 132.390625 66.53125 132.390625 C 67.132812 132.390625 67.671875 132.511719 68.167969 132.761719 C 68.660156 132.996094 69.054688 133.351562 69.351562 133.804688 C 69.640625 134.257812 69.792969 134.78125 69.792969 135.378906 C 69.792969 135.941406 69.65625 136.460938 69.398438 136.910156 C 69.140625 137.363281 68.796875 137.785156 68.363281 138.15625 C 67.921875 138.535156 67.4375 138.890625 66.882812 139.234375 C 66.144531 139.6875 65.507812 140.1875 64.988281 140.746094 C 64.464844 141.300781 64.070312 142.027344 63.789062 142.933594 C 63.523438 143.84375 63.378906 145.046875 63.371094 146.566406 L 63.371094 147.324219 C 63.371094 147.839844 63.804688 148.269531 64.335938 148.269531 L 67.476562 148.269531 C 68.007812 148.269531 68.441406 147.847656 68.441406 147.324219 L 68.441406 146.566406 C 68.449219 145.71875 68.5625 145 68.78125 144.417969 C 68.996094 143.84375 69.335938 143.328125 69.777344 142.882812 C 70.226562 142.441406 70.804688 142.019531 71.503906 141.609375 C 72.347656 141.117188 73.070312 140.578125 73.683594 139.972656 C 74.292969 139.367188 74.777344 138.671875 75.121094 137.878906 C 75.46875 137.097656 75.644531 136.191406 75.644531 135.175781 C 75.621094 133.652344 75.226562 132.351562 74.453125 131.277344 Z M 74.453125 131.277344 " fill-opacity="1" fill-rule="nonzero"/></g><g clip-path="url(#2402bedee9)"><path fill="#000000" d="M 66.007812 150.375 C 65.117188 150.375 64.351562 150.675781 63.726562 151.289062 C 63.097656 151.894531 62.785156 152.628906 62.800781 153.476562 C 62.785156 154.332031 63.097656 155.074219 63.726562 155.6875 C 64.351562 156.300781 65.117188 156.597656 66.007812 156.597656 C 66.570312 156.597656 67.101562 156.460938 67.574219 156.179688 C 68.058594 155.886719 68.441406 155.515625 68.746094 155.039062 C 69.046875 154.566406 69.199219 154.046875 69.207031 153.476562 C 69.191406 152.621094 68.867188 151.894531 68.226562 151.289062 C 67.589844 150.675781 66.851562 150.375 66.007812 150.375 Z M 66.007812 150.375 " fill-opacity="1" fill-rule="nonzero"/></g></svg>